<svg version="1.1" xmlns="http://www.w3.org/2000/svg" xmlns:xlink="http://www.w3.org/1999/xlink" width="502.10599" height="374.19727" viewBox="0,0,502.10599,374.19727"><g transform="translate(11.44609,6.48889)"><g data-paper-data="{&quot;isPaintingLayer&quot;:true}" fill-rule="nonzero" stroke="none" stroke-width="0.5" stroke-linecap="butt" stroke-linejoin="miter" stroke-miterlimit="10" stroke-dasharray="" stroke-dashoffset="0" style="mix-blend-mode: normal"><path d="M333.95412,15.80196c0.11802,-0.96778 1.09582,-0.86547 1.09582,-0.86547c2.56181,0.26993 5.06528,0.16546 7.62275,0.42373c0.75142,0.07588 2.84192,0.37064 2.98568,1.3734c0.10562,0.73673 -0.73406,1.32379 -1.28049,1.8291c-0.45391,0.41974 -2.21387,0.94201 -2.8357,1.24379c-0.65591,0.31832 -1.2554,0.69106 -1.85082,1.06069c1.9701,0.29498 4.25501,1.07667 4.99997,1.59733c0.50701,0.35436 1.46009,0.46428 1.50839,1.08095c0.12486,1.59433 -1.47834,1.90768 -2.44718,2.21878c-2.29273,0.73623 -4.80253,1.39817 -7.24503,1.95591c0.04695,0.0035 0.08547,0.00758 0.11406,0.01228c2.52279,0.41434 4.89261,1.24378 7.19964,2.2659l0.00029,-0.01394l1.0308,0.02179c0.4275,-0.00097 0.82389,0.27448 0.95709,0.70416c0.16354,0.5275 -0.13153,1.08774 -0.65904,1.25127c-0.0597,0.01851 -0.1198,0.03114 -0.17972,0.03823l-0.98585,0.13437c-2.26025,0.29967 -4.86115,0.29101 -7.02967,0.97212c-0.65463,0.20097 -3.25074,1.04803 -3.83613,0.70812c-1.33268,-0.77381 -1.22865,-4.54185 -0.79094,-5.6901c0.14085,-0.36948 0.35094,-0.71861 0.59881,-1.05445c-0.10084,-0.12991 -0.18354,-0.27088 -0.23861,-0.42873c-0.03171,-0.09087 0.66442,-2.24759 0.73695,-2.56307c0.27434,-1.19347 0.56552,-2.72362 0.39197,-3.95154c-0.12651,-0.89511 -0.94693,-2.54375 -0.52393,-3.43273c0.15598,-0.3278 0.38484,-0.63748 0.66089,-0.89191zM337.50484,23.31146c-0.01829,-0.012 -0.03692,-0.02429 -0.05573,-0.03681c0.00513,0.01839 0.00992,0.03708 0.0144,0.05606c0.01374,-0.00648 0.02753,-0.01288 0.04133,-0.01924z" fill="#d0d0d0"/><path d="M333.63104,53.15366c0.11802,-0.96779 1.09582,-0.86548 1.09582,-0.86548c2.56182,0.26992 5.06529,0.16546 7.62277,0.42373c0.75142,0.07588 2.84191,0.37065 2.98567,1.3734c0.10562,0.73673 -0.73407,1.32379 -1.28049,1.82909c-0.45391,0.41975 -2.21387,0.942 -2.8357,1.24379c-0.65591,0.31832 -1.2554,0.69107 -1.85082,1.0607c1.9701,0.29498 4.25501,1.07666 4.99997,1.59732c0.50701,0.35436 1.46009,0.46428 1.50839,1.08095c0.12486,1.59433 -1.47833,1.90768 -2.44718,2.21879c-2.29273,0.73623 -4.80253,1.39818 -7.24503,1.95592c0.04695,0.0035 0.08547,0.00758 0.11406,0.01228c2.52279,0.41433 4.89261,1.24377 7.19964,2.26589l0.00029,-0.01394l1.0308,0.02179c0.4275,-0.00097 0.82389,0.27448 0.95709,0.70416c0.16354,0.5275 -0.13153,1.08774 -0.65904,1.25127c-0.0597,0.01851 -0.1198,0.03115 -0.17972,0.03824l-0.98585,0.13437c-2.26025,0.29967 -4.86116,0.29101 -7.02967,0.97211c-0.65463,0.20097 -3.25074,1.04802 -3.83613,0.70812c-1.33268,-0.77382 -1.22865,-4.54184 -0.79094,-5.6901c0.14085,-0.36948 0.35094,-0.7186 0.59881,-1.05445c-0.10084,-0.12992 -0.18354,-0.27089 -0.23861,-0.42873c-0.03171,-0.09087 0.66442,-2.24759 0.73695,-2.56307c0.27434,-1.19348 0.56552,-2.72363 0.39197,-3.95154c-0.12651,-0.89511 -0.94693,-2.54376 -0.52393,-3.43273c0.15598,-0.32779 0.38484,-0.63749 0.66089,-0.89191zM337.18175,60.66317c-0.01829,-0.012 -0.03692,-0.0243 -0.05573,-0.03682c0.00513,0.01838 0.00993,0.03709 0.01441,0.05606c0.01374,-0.00648 0.02752,-0.01288 0.04132,-0.01925z" fill="#d0d0d0"/><path d="M332.6208,34.80196c0.11802,-0.96779 1.09583,-0.86547 1.09583,-0.86547c2.56181,0.26993 5.06528,0.16545 7.62275,0.42373c0.75142,0.07588 2.84192,0.37064 2.98568,1.3734c0.10562,0.73673 -0.73407,1.32379 -1.28049,1.8291c-0.45391,0.41975 -2.21387,0.942 -2.8357,1.24379c-0.65591,0.31832 -1.2554,0.69107 -1.85082,1.0607c1.9701,0.29498 4.25502,1.07667 4.99997,1.59732c0.50701,0.35436 1.46009,0.46428 1.50838,1.08095c0.12486,1.59433 -1.47834,1.90768 -2.44718,2.21878c-2.29273,0.73623 -4.80253,1.39818 -7.24503,1.95592c0.04695,0.00351 0.08547,0.00758 0.11406,0.01228c2.52279,0.41433 4.89261,1.24378 7.19964,2.2659l0.00029,-0.01394l1.0308,0.02179c0.4275,-0.00096 0.82389,0.27448 0.95709,0.70416c0.16354,0.52751 -0.13153,1.08774 -0.65904,1.25127c-0.0597,0.01851 -0.1198,0.03114 -0.17972,0.03823l-0.98585,0.13437c-2.26025,0.29967 -4.86115,0.29101 -7.02967,0.97212c-0.65463,0.20097 -3.25074,1.04803 -3.83613,0.70812c-1.33268,-0.77381 -1.22864,-4.54184 -0.79094,-5.6901c0.14085,-0.36948 0.35093,-0.71861 0.5988,-1.05445c-0.10084,-0.12991 -0.18354,-0.27089 -0.23861,-0.42873c-0.03171,-0.09087 0.66442,-2.24759 0.73695,-2.56307c0.27434,-1.19348 0.56552,-2.72363 0.39197,-3.95154c-0.12651,-0.89511 -0.94693,-2.54375 -0.52393,-3.43273c0.15598,-0.32779 0.38484,-0.63749 0.66089,-0.89191zM336.17151,42.31146c-0.01829,-0.012 -0.03693,-0.0243 -0.05574,-0.03682c0.00513,0.01838 0.00992,0.03708 0.0144,0.05606c0.01374,-0.00648 0.02752,-0.01287 0.04132,-0.01924z" fill="#d0d0d0"/><path d="M332.95075,71.57206c0.24552,-0.94353 1.20107,-0.71225 1.20107,-0.71225c2.50326,0.60781 4.99842,0.83679 7.49894,1.43247c0.73468,0.17502 2.7675,0.74483 2.7768,1.7578c0.00683,0.74423 -0.90339,1.21456 -1.51209,1.64281c-0.50563,0.35574 -2.31938,0.6396 -2.97578,0.85612c-0.69238,0.22838 -1.33607,0.51819 -1.97531,0.80546c1.91347,0.55405 4.07431,1.6323 4.74351,2.24729c0.45545,0.41857 1.38549,0.6541 1.35145,1.27172c-0.08801,1.59679 -1.71862,1.69442 -2.72021,1.87408c-2.3702,0.42517 -4.94569,0.74789 -7.44063,0.97627c0.04607,0.00971 0.08371,0.01887 0.11142,0.02732c2.4454,0.74575 4.68406,1.88262 6.83488,3.20211l0.00214,-0.01378l1.01878,0.15851c0.42385,0.05582 0.78012,0.38148 0.85507,0.82504c0.09202,0.54455 -0.27484,1.06064 -0.8194,1.15265c-0.06163,0.01041 -0.12288,0.01495 -0.1832,0.01402l-0.99496,0.00224c-2.28003,-0.00321 -4.85674,-0.35725 -7.09651,0.02979c-0.67552,0.11225 -3.36114,0.60696 -3.89619,0.19232c-1.21809,-0.94397 -0.61449,-4.66479 -0.02814,-5.74474c0.18867,-0.34751 0.44328,-0.66563 0.73356,-0.96558c-0.08269,-0.14216 -0.14593,-0.29287 -0.17955,-0.45663c-0.01936,-0.09428 0.95707,-2.13942 1.07086,-2.44248c0.43043,-1.14646 0.92227,-2.62438 0.91336,-3.86446c-0.00649,-0.90398 -0.60067,-2.64699 -0.06334,-3.47191c0.19813,-0.30417 0.46611,-0.58072 0.7735,-0.79622zM335.47255,79.48665c-0.01653,-0.01433 -0.03338,-0.02899 -0.05036,-0.04389c0.00264,0.0189 0.00491,0.03807 0.00683,0.05747c0.01448,-0.00459 0.02899,-0.00911 0.04352,-0.01359z" fill="#d0d0d0"/><path d="M332.96437,109.82032c0.11802,-0.96779 1.09582,-0.86548 1.09582,-0.86548c2.56182,0.26992 5.06529,0.16546 7.62276,0.42373c0.75142,0.07589 2.84191,0.37064 2.98567,1.3734c0.10562,0.73673 -0.73407,1.32379 -1.28049,1.82909c-0.4539,0.41974 -2.21387,0.942 -2.8357,1.24379c-0.65591,0.31832 -1.2554,0.69107 -1.85082,1.0607c1.97011,0.29498 4.25501,1.07666 4.99997,1.59732c0.50701,0.35436 1.46009,0.46428 1.50839,1.08095c0.12486,1.59433 -1.47833,1.90769 -2.44718,2.21879c-2.29273,0.73623 -4.80253,1.39817 -7.24503,1.95591c0.04695,0.0035 0.08547,0.00758 0.11406,0.01228c2.52279,0.41433 4.89261,1.24378 7.19964,2.26589l0.00029,-0.01394l1.0308,0.02179c0.4275,-0.00097 0.82388,0.27449 0.95708,0.70415c0.16353,0.5275 -0.13153,1.08774 -0.65904,1.25127c-0.0597,0.01851 -0.1198,0.03114 -0.17972,0.03823l-0.98585,0.13437c-2.26025,0.29967 -4.86116,0.29101 -7.02968,0.97212c-0.65463,0.20098 -3.25074,1.04802 -3.83613,0.70812c-1.33268,-0.77381 -1.22864,-4.54184 -0.79094,-5.6901c0.14085,-0.36949 0.35094,-0.71861 0.5988,-1.05445c-0.10083,-0.12991 -0.18354,-0.27089 -0.23861,-0.42873c-0.03171,-0.09087 0.66442,-2.24759 0.73695,-2.56308c0.27434,-1.19347 0.56552,-2.72363 0.39197,-3.95154c-0.1265,-0.8951 -0.94693,-2.54375 -0.52393,-3.43273c0.15597,-0.3278 0.38485,-0.63749 0.66089,-0.89191zM336.51508,117.32983c-0.01829,-0.012 -0.03692,-0.0243 -0.05573,-0.03681c0.00513,0.01839 0.00992,0.03709 0.0144,0.05606c0.01375,-0.00648 0.02752,-0.01288 0.04132,-0.01925z" fill="#d0d0d0"/><path d="M331.95414,91.46862c0.11802,-0.96779 1.09582,-0.86547 1.09582,-0.86547c2.56181,0.26993 5.06528,0.16546 7.62276,0.42373c0.75142,0.07589 2.84192,0.37064 2.98568,1.3734c0.10562,0.73673 -0.73407,1.32379 -1.28049,1.82909c-0.4539,0.41974 -2.21387,0.94201 -2.8357,1.2438c-0.65591,0.31832 -1.2554,0.69107 -1.85082,1.0607c1.97011,0.29498 4.25501,1.07667 4.99997,1.59732c0.50701,0.35436 1.46009,0.46428 1.50839,1.08095c0.12486,1.59433 -1.47833,1.90769 -2.44718,2.21879c-2.29273,0.73623 -4.80253,1.39817 -7.24503,1.95591c0.04695,0.0035 0.08547,0.00758 0.11406,0.01228c2.52279,0.41433 4.89262,1.24378 7.19964,2.2659l0.00029,-0.01394l1.0308,0.02179c0.4275,-0.00097 0.82388,0.27449 0.95708,0.70415c0.16353,0.5275 -0.13153,1.08774 -0.65904,1.25127c-0.0597,0.01851 -0.11981,0.03114 -0.17972,0.03823l-0.98585,0.13437c-2.26025,0.29967 -4.86115,0.29101 -7.02967,0.97212c-0.65463,0.20098 -3.25074,1.04802 -3.83613,0.70812c-1.33268,-0.77381 -1.22864,-4.54184 -0.79094,-5.6901c0.14085,-0.36949 0.35094,-0.71861 0.5988,-1.05445c-0.10083,-0.12991 -0.18354,-0.27089 -0.23861,-0.42873c-0.03171,-0.09087 0.66442,-2.24759 0.73695,-2.56308c0.27434,-1.19347 0.56552,-2.72363 0.39197,-3.95154c-0.1265,-0.8951 -0.94693,-2.54375 -0.52393,-3.43273c0.15597,-0.3278 0.38485,-0.63749 0.66089,-0.8919zM335.50484,98.97813c-0.01829,-0.012 -0.03693,-0.0243 -0.05574,-0.03681c0.00513,0.01839 0.00992,0.03708 0.0144,0.05605c0.01375,-0.00648 0.02752,-0.01287 0.04133,-0.01924z" fill="#d0d0d0"/><path d="M329.84781,146.89535c0.24552,-0.94353 1.20107,-0.71225 1.20107,-0.71225c2.50326,0.6078 4.99843,0.83679 7.49894,1.43247c0.73468,0.17502 2.7675,0.74483 2.77679,1.7578c0.00683,0.74423 -0.90339,1.21456 -1.51209,1.64281c-0.50563,0.35574 -2.31938,0.6396 -2.97578,0.85612c-0.69238,0.22838 -1.33607,0.5182 -1.9753,0.80547c1.91347,0.55405 4.0743,1.63229 4.7435,2.24729c0.45545,0.41857 1.38549,0.6541 1.35145,1.27172c-0.08801,1.59679 -1.71862,1.69443 -2.72021,1.87409c-2.3702,0.42517 -4.94569,0.74789 -7.44063,0.97626c0.04607,0.00971 0.08371,0.01887 0.11142,0.02732c2.4454,0.74575 4.68406,1.88262 6.83488,3.20211l0.00214,-0.01378l1.01877,0.15851c0.42384,0.05582 0.78012,0.38148 0.85507,0.82504c0.09202,0.54455 -0.27484,1.06064 -0.8194,1.15265c-0.06163,0.01041 -0.12288,0.01496 -0.18321,0.01403l-0.99496,0.00223c-2.28003,-0.00321 -4.85674,-0.35725 -7.09651,0.02979c-0.67552,0.11225 -3.36114,0.60695 -3.8962,0.19231c-1.21809,-0.94397 -0.61449,-4.66479 -0.02814,-5.74474c0.18867,-0.34751 0.44328,-0.66562 0.73356,-0.96557c-0.08269,-0.14216 -0.14593,-0.29287 -0.17955,-0.45663c-0.01936,-0.09428 0.95707,-2.13942 1.07086,-2.44248c0.43043,-1.14646 0.92227,-2.62438 0.91336,-3.86446c-0.00649,-0.90398 -0.60067,-2.64699 -0.06334,-3.4719c0.19813,-0.30417 0.46611,-0.58073 0.7735,-0.79622zM332.3696,154.80994c-0.01653,-0.01433 -0.03337,-0.02899 -0.05035,-0.04389c0.00264,0.0189 0.00491,0.03807 0.00683,0.05747c0.01448,-0.00459 0.02899,-0.00911 0.04352,-0.01359z" fill="#d0d0d0"/><path d="M332.28407,128.23873c0.24552,-0.94353 1.20107,-0.71225 1.20107,-0.71225c2.50326,0.60781 4.99842,0.83679 7.49893,1.43247c0.73468,0.17502 2.76751,0.74483 2.7768,1.7578c0.00683,0.74423 -0.9034,1.21455 -1.5121,1.6428c-0.50563,0.35574 -2.31938,0.63961 -2.97578,0.85613c-0.69238,0.22838 -1.33607,0.51819 -1.9753,0.80546c1.91347,0.55405 4.07431,1.6323 4.74351,2.24729c0.45545,0.41857 1.38548,0.6541 1.35144,1.27172c-0.08801,1.59679 -1.71862,1.69442 -2.7202,1.87409c-2.3702,0.42517 -4.94569,0.74789 -7.44063,0.97627c0.04607,0.00971 0.0837,0.01887 0.11142,0.02732c2.4454,0.74575 4.68406,1.88262 6.83489,3.20211l0.00214,-0.01377l1.01877,0.15851c0.42385,0.05582 0.78012,0.38148 0.85507,0.82504c0.09202,0.54455 -0.27484,1.06064 -0.8194,1.15265c-0.06163,0.01041 -0.12288,0.01495 -0.1832,0.01402l-0.99497,0.00224c-2.28003,-0.00321 -4.85673,-0.35725 -7.0965,0.02979c-0.67552,0.11225 -3.36114,0.60696 -3.89619,0.19232c-1.21809,-0.94397 -0.61449,-4.66479 -0.02814,-5.74474c0.18867,-0.34751 0.44327,-0.66563 0.73355,-0.96558c-0.08269,-0.14216 -0.14593,-0.29287 -0.17955,-0.45663c-0.01936,-0.09428 0.95707,-2.13942 1.07086,-2.44248c0.43043,-1.14646 0.92227,-2.62438 0.91335,-3.86446c-0.00649,-0.90398 -0.60067,-2.64699 -0.06334,-3.47191c0.19813,-0.30417 0.46611,-0.58072 0.7735,-0.79622zM334.80588,136.15332c-0.01653,-0.01433 -0.03337,-0.02899 -0.05035,-0.04389c0.00264,0.0189 0.00491,0.03807 0.00683,0.05747c0.01448,-0.00459 0.02899,-0.0091 0.04352,-0.01358z" fill="#d0d0d0"/><path d="M320.29487,185.00365c0.0202,-0.97475 1.00334,-0.97118 1.00334,-0.97118c2.57597,0.01121 5.05629,-0.34421 7.62677,-0.34416c0.75524,0.00002 2.86477,0.08328 3.10853,1.06652c0.1791,0.72239 -0.59737,1.39083 -1.09027,1.94847c-0.40944,0.46322 -2.10805,1.15964 -2.69641,1.52236c-0.62062,0.3826 -1.17962,0.81368 -1.7349,1.24126c1.98978,0.09558 4.34165,0.64378 5.13514,1.08697c0.54004,0.30164 1.49934,0.31526 1.60934,0.92395c0.28439,1.57372 -1.27921,2.04654 -2.21191,2.4534c-2.20717,0.96282 -4.63779,1.87354 -7.0119,2.67382c0.04707,-0.00123 0.0858,-0.00105 0.11472,0.00076c2.55165,0.15881 4.99281,0.746 7.39085,1.53119l-0.00111,-0.0139l1.02778,-0.08187c0.42524,-0.04391 0.84729,0.19033 1.02298,0.60445c0.2157,0.50841 -0.02159,1.09545 -0.53001,1.31114c-0.05754,0.02441 -0.11607,0.04302 -0.17497,0.05609l-0.96736,0.23273c-2.21871,0.52521 -4.80733,0.77786 -6.89646,1.67337c-0.63112,0.26572 -3.12902,1.36928 -3.74559,1.0899c-1.40367,-0.63602 -1.67868,-4.39545 -1.35854,-5.58186c0.10302,-0.38177 0.27697,-0.75022 0.48985,-1.10927c-0.11338,-0.11913 -0.20982,-0.25108 -0.28047,-0.40259c-0.04068,-0.08722 0.43528,-2.30296 0.47575,-2.62414c0.15306,-1.215 0.28906,-2.76666 -0.00697,-3.97093c-0.21578,-0.87787 -1.19768,-2.43576 -0.86612,-3.36273c0.12226,-0.34181 0.31887,-0.67292 0.56795,-0.95378zM324.58198,192.11848c-0.0194,-0.0101 -0.03918,-0.02046 -0.05915,-0.03103c0.00695,0.01778 0.0136,0.0359 0.01996,0.05432c0.01303,-0.00782 0.02609,-0.01558 0.03918,-0.0233z" fill="#d0d0d0"/><path d="M326.61015,165.02046c0.41643,-0.88155 1.31243,-0.47686 1.31243,-0.47686c2.34688,1.06202 4.75615,1.75031 7.10258,2.7999c0.68941,0.30839 2.58108,1.24573 2.40214,2.24281c-0.13147,0.73256 -1.11319,1.0257 -1.79082,1.33349c-0.56289,0.25566 -2.39781,0.19784 -3.083,0.28872c-0.72274,0.09585 -1.40905,0.26112 -2.09051,0.4247c1.77733,0.89969 3.70039,2.3604 4.24377,3.08895c0.36981,0.49585 1.23995,0.89997 1.09182,1.50053c-0.38296,1.55268 -2.00334,1.34586 -3.02087,1.33643c-2.40793,-0.0223 -4.99856,-0.18339 -7.49252,-0.42223c0.04347,0.0181 0.07875,0.03408 0.10441,0.04753c2.26442,1.18683 4.25306,2.71958 6.1215,4.41548l0.00466,-0.01314l0.97163,0.34492c0.40611,0.13355 0.69573,0.5197 0.68702,0.96946c-0.01069,0.55217 -0.46699,0.99116 -1.01917,0.98046c-0.06249,-0.00121 -0.12352,-0.00812 -0.18262,-0.02024l-0.97808,-0.18254c-2.23978,-0.42648 -4.70596,-1.2528 -6.97864,-1.28835c-0.68461,-0.01513 -3.41539,-0.02766 -3.86415,-0.53444c-1.02164,-1.15372 0.26232,-4.69778 1.03898,-5.65008c0.24992,-0.30643 0.55915,-0.57175 0.90008,-0.81258c-0.05485,-0.15504 -0.08901,-0.31487 -0.09165,-0.48202c-0.00152,-0.09623 1.33766,-1.92452 1.50574,-2.20118c0.63581,-1.04661 1.39351,-2.40751 1.615,-3.62768c0.16146,-0.88946 -0.09876,-2.71249 0.58239,-3.4233c0.25116,-0.2621 0.56583,-0.48408 0.90789,-0.63876zM327.61858,173.26565c-0.01359,-0.01715 -0.02741,-0.03467 -0.04133,-0.05247c-0.00091,0.01907 -0.00224,0.03832 -0.00396,0.05774c0.01508,-0.00182 0.03018,-0.00357 0.04528,-0.00527z" fill="#d0d0d0"/><path d="M472.32688,204.89135c0.88944,0.3993 0.50217,1.30295 0.50217,1.30295c-1.0164,2.36699 -1.65794,4.78913 -2.66193,7.15543c-0.29499,0.69525 -1.19554,2.60471 -2.1959,2.44509c-0.73496,-0.11727 -1.04705,-1.09314 -1.3679,-1.76468c-0.26652,-0.55784 -0.2442,-2.39353 -0.34832,-3.07683c-0.10982,-0.72075 -0.28834,-1.40374 -0.46508,-2.0819c-0.86513,1.79441 -2.28834,3.74537 -3.00624,4.30275c-0.4886,0.37934 -0.8758,1.25714 -1.47912,1.12066c-1.5598,-0.35284 -1.38438,-1.97692 -1.39465,-2.99444c-0.02431,-2.40791 0.08663,-5.00117 0.27715,-7.49929c-0.01725,0.04381 -0.03255,0.07939 -0.0455,0.10531c-1.14278,2.28696 -2.63677,4.30489 -4.29618,6.2058l0.01322,0.00441l-0.32604,0.97812c-0.12567,0.40862 -0.50614,0.70565 -0.95598,0.70565c-0.55228,0 -1,-0.44772 -1,-1c0,-0.0625 0.00573,-0.12366 0.0167,-0.18298l0.16357,-0.98142c0.38306,-2.24762 1.1615,-4.72932 1.15306,-7.00227c0.00187,-0.68478 -0.03844,-3.41529 0.45956,-3.87377c1.13373,-1.04378 4.70197,0.17135 5.66912,0.92944c0.31121,0.24394 0.58246,0.54799 0.82985,0.88419c0.15394,-0.05784 0.31309,-0.0951 0.48016,-0.10096c0.09618,-0.00337 1.95004,1.30017 2.22991,1.46286c1.05872,0.61544 2.43403,1.34666 3.65826,1.54449c0.89243,0.14422 2.71007,-0.15124 3.43392,0.51603c0.26691,0.24605 0.49494,0.55636 0.65621,0.89536zM464.10274,206.05916c0.01688,-0.01392 0.03414,-0.02807 0.05167,-0.04233c-0.01908,-0.00054 -0.03836,-0.0015 -0.05781,-0.00284c0.00211,0.01505 0.00416,0.0301 0.00615,0.04517z" fill="#d0d0d0"/><path d="M325.54187,333.94553c-0.9394,0.26092 -1.21864,-0.68173 -1.21864,-0.68173c-0.72992,-2.47042 -1.78348,-4.74381 -2.52249,-7.20577c-0.21713,-0.72335 -0.74393,-2.76774 0.12771,-3.28392c0.64039,-0.37923 1.50386,0.17225 2.17967,0.484c0.56138,0.25896 1.71678,1.68561 2.23336,2.14484c0.54489,0.4844 1.1185,0.89587 1.68767,1.30476c-0.48056,-1.93324 -0.63172,-4.34341 -0.43541,-5.23083c0.13363,-0.60397 -0.12916,-1.52667 0.42222,-1.80705c1.4255,-0.72486 2.32793,0.63677 2.98578,1.4131c1.55677,1.83713 3.1279,3.90326 4.57701,5.94703c-0.01471,-0.04473 -0.02567,-0.08188 -0.03226,-0.11009c-0.58156,-2.48956 -0.72105,-4.99647 -0.65851,-7.51901l-0.01299,0.00506l-0.37393,-0.96084c-0.16433,-0.39467 -0.06131,-0.86623 0.28479,-1.15357c0.42493,-0.35278 1.0554,-0.29428 1.40817,0.13065c0.03992,0.04809 0.07458,0.0988 0.10404,0.15146l0.50104,0.8596c1.14096,1.97401 2.12724,4.38069 3.5856,6.12412c0.43597,0.52807 2.21112,2.6032 2.12082,3.27406c-0.20558,1.52728 -3.72718,2.87159 -4.95555,2.90609c-0.39526,0.0111 -0.79818,-0.04957 -1.20327,-0.15022c-0.0815,0.14284 -0.18015,0.27316 -0.30495,0.38438c-0.07185,0.06404 -2.33087,0.24525 -2.65012,0.29884c-1.20771,0.20274 -2.73295,0.51863 -3.80125,1.14841c-0.77877,0.45909 -1.98855,1.84745 -2.9717,1.79642c-0.36253,-0.01883 -0.73619,-0.11192 -1.07681,-0.26973zM331.12362,327.79377c-0.0041,0.0215 -0.00834,0.04341 -0.01271,0.06556c0.01502,-0.01177 0.03047,-0.02335 0.04629,-0.03474c-0.01123,-0.01023 -0.02243,-0.0205 -0.03358,-0.03083z" fill="#d0d0d0"/><path d="M172.64667,193.84721c-0.91372,0.34008 -1.27235,-0.57532 -1.27235,-0.57532c-0.93794,-2.39917 -2.18154,-4.57443 -3.12783,-6.96439c-0.27803,-0.7022 -0.97725,-2.69422 -0.15281,-3.28285c0.60572,-0.43247 1.51307,0.04337 2.21301,0.29635c0.58142,0.21015 1.85428,1.53306 2.40814,1.94656c0.58421,0.43617 1.19082,0.79721 1.79279,1.15607c-0.64368,-1.88521 -0.99984,-4.27372 -0.87991,-5.17464c0.08163,-0.61316 -0.25888,-1.5101 0.26657,-1.83647c1.35849,-0.84379 2.37375,0.43592 3.09541,1.15332c1.70778,1.69768 3.44938,3.62229 5.0675,5.53503c-0.01847,-0.04331 -0.03256,-0.07939 -0.04153,-0.10694c-0.79175,-2.4309 -1.14453,-4.91678 -1.29734,-7.43546l-0.01251,0.00615l-0.4545,-0.92545c-0.19738,-0.37921 -0.13497,-0.85785 0.18538,-1.17366c0.39329,-0.38772 1.02646,-0.38322 1.41418,0.01008c0.04388,0.04451 0.08273,0.09208 0.11657,0.14203l0.57252,0.81374c1.30515,1.86952 2.49308,4.18331 4.09481,5.79602c0.47941,0.48897 2.42507,2.40514 2.39231,3.08126c-0.07458,1.53924 -3.46871,3.17899 -4.68966,3.31812c-0.39288,0.04477 -0.7995,0.01868 -1.2117,-0.04706c-0.06902,0.14927 -0.1562,0.28752 -0.27106,0.40899c-0.06612,0.06993 -2.30146,0.44314 -2.61498,0.52376c-1.18601,0.305 -2.67876,0.74981 -3.68946,1.4684c-0.73677,0.52382 -1.82375,2.0103 -2.80768,2.0433c-0.36281,0.01217 -0.74305,-0.04873 -1.09589,-0.17692zM177.68346,187.24183c-0.00225,0.02176 -0.0046,0.04396 -0.00707,0.06642c0.01397,-0.01301 0.02837,-0.02586 0.04316,-0.03856c-0.01207,-0.00923 -0.02409,-0.01852 -0.03609,-0.02785z" fill="#d0d0d0"/><path d="M156.64667,202.84721c-0.91372,0.34008 -1.27235,-0.57532 -1.27235,-0.57532c-0.93794,-2.39917 -2.18154,-4.57443 -3.12783,-6.96439c-0.27803,-0.7022 -0.97725,-2.69422 -0.15281,-3.28285c0.60572,-0.43247 1.51307,0.04337 2.21301,0.29635c0.58142,0.21015 1.85428,1.53306 2.40814,1.94656c0.58421,0.43617 1.19082,0.79721 1.79279,1.15607c-0.64368,-1.88521 -0.99984,-4.27372 -0.87991,-5.17464c0.08163,-0.61316 -0.25888,-1.5101 0.26657,-1.83647c1.35849,-0.84379 2.37375,0.43592 3.09541,1.15332c1.70778,1.69768 3.44938,3.62229 5.0675,5.53503c-0.01847,-0.04331 -0.03256,-0.07939 -0.04153,-0.10694c-0.79175,-2.4309 -1.14453,-4.91678 -1.29734,-7.43546l-0.01251,0.00615l-0.4545,-0.92545c-0.19738,-0.37921 -0.13497,-0.85785 0.18538,-1.17366c0.39329,-0.38772 1.02646,-0.38322 1.41418,0.01008c0.04388,0.04451 0.08273,0.09208 0.11657,0.14203l0.57252,0.81374c1.30515,1.86952 2.49308,4.18331 4.09481,5.79602c0.47941,0.48897 2.42507,2.40514 2.39231,3.08126c-0.07458,1.53924 -3.46871,3.17899 -4.68966,3.31812c-0.39288,0.04477 -0.7995,0.01868 -1.2117,-0.04706c-0.06902,0.14927 -0.1562,0.28752 -0.27106,0.40899c-0.06612,0.06993 -2.30146,0.44314 -2.61498,0.52376c-1.18601,0.305 -2.67876,0.74981 -3.68946,1.4684c-0.73677,0.52382 -1.82375,2.0103 -2.80768,2.0433c-0.36281,0.01217 -0.74305,-0.04873 -1.09589,-0.17692zM161.68346,196.24183c-0.00225,0.02176 -0.0046,0.04396 -0.00707,0.06642c0.01397,-0.01301 0.02837,-0.02586 0.04316,-0.03856c-0.01207,-0.00923 -0.02409,-0.01852 -0.03609,-0.02785z" fill="#d0d0d0"/><path d="M140.81334,212.18054c-0.91372,0.34008 -1.27235,-0.57532 -1.27235,-0.57532c-0.93793,-2.39917 -2.18154,-4.57443 -3.12783,-6.96439c-0.27803,-0.7022 -0.97725,-2.69422 -0.15281,-3.28285c0.60572,-0.43247 1.51307,0.04337 2.21301,0.29635c0.58142,0.21015 1.85428,1.53306 2.40814,1.94656c0.58421,0.43617 1.19082,0.79721 1.79279,1.15607c-0.64368,-1.88521 -0.99984,-4.27372 -0.87991,-5.17464c0.08163,-0.61316 -0.25888,-1.5101 0.26657,-1.83647c1.35849,-0.84379 2.37375,0.43592 3.09541,1.15332c1.70778,1.69768 3.44938,3.62229 5.0675,5.53503c-0.01847,-0.04331 -0.03256,-0.07939 -0.04153,-0.10694c-0.79175,-2.4309 -1.14453,-4.91678 -1.29734,-7.43546l-0.01251,0.00615l-0.4545,-0.92545c-0.19738,-0.37921 -0.13497,-0.85785 0.18538,-1.17366c0.39329,-0.38772 1.02646,-0.38322 1.41418,0.01008c0.04388,0.04451 0.08273,0.09208 0.11657,0.14203l0.57252,0.81374c1.30515,1.86952 2.49308,4.18331 4.09481,5.79602c0.47941,0.48897 2.42507,2.40514 2.39231,3.08126c-0.07458,1.53924 -3.46871,3.17899 -4.68966,3.31812c-0.39288,0.04477 -0.7995,0.01868 -1.2117,-0.04706c-0.06902,0.14927 -0.1562,0.28752 -0.27106,0.40899c-0.06612,0.06993 -2.30146,0.44314 -2.61498,0.52376c-1.18601,0.305 -2.67876,0.74981 -3.68946,1.4684c-0.73677,0.52382 -1.82375,2.0103 -2.80768,2.0433c-0.36281,0.01217 -0.74305,-0.04873 -1.09589,-0.17692zM145.85011,205.57517c-0.00225,0.02176 -0.0046,0.04396 -0.00707,0.06642c0.01397,-0.01301 0.02837,-0.02586 0.04316,-0.03856c-0.01207,-0.00923 -0.02409,-0.01852 -0.03609,-0.02785z" fill="#d0d0d0"/><path d="M349.41815,327.03988c4.54857,0 11.54679,-1.01807 15.72208,0.34254c0.45001,0.14665 0.85793,0.37932 1.23657,0.66477c1.37677,-0.0525 3.41148,0.37282 4.31043,3.06967c0.26617,0.7985 0.33319,1.49743 0.26627,2.1061c1.90227,2.72576 1.36616,4.38273 -2.80387,8.8931c-1.04751,1.133 -2.86057,1.15941 -4.30845,1.69289c-0.61587,0.22692 -6.43121,2.13379 -6.7022,2.17282c-3.24913,0.46792 -6.17804,-0.0321 -9.08661,-1.61396c-0.82824,-0.45045 -1.19155,-1.51493 -2,-2c-0.90388,-0.54233 -2.09612,-0.45767 -3,-1c-0.80845,-0.48507 -1.193,-1.51252 -2,-2c-0.77803,-0.46998 -1.79713,-0.38135 -2.61129,-0.78551c-1.82469,-0.9058 -3.50357,-2.15922 -5.44594,-2.77334c0,0 -4.26907,-1.42302 -2.84605,-5.6921c1.42302,-4.26907 5.6921,-2.84605 5.6921,-2.84605c1.35552,0.46785 2.67424,1.00214 3.96128,1.58966c0.81999,-1.1047 2.13424,-1.82058 3.6157,-1.82058c1,0 5,0 6,0z" fill="#999999"/><path d="M300.00013,305.76739l-3.45991,2.97548c-3.56807,0.25883 -13.54052,0.50142 -17.12208,0.34254c-1.57661,-0.06994 -3.25959,0.25053 -4.72208,-0.34254c-1.40963,-0.57164 -2.3066,-1.98365 -3.45991,-2.97548c0,0 -3.18198,-3.18198 0,-6.36396c3.18198,-3.18198 6.36396,0 6.36396,0c1.05129,1.99423 13.05444,0.37009 15.49594,1.02452l0.54009,-1.02452c0,0 3.18198,-3.18198 6.36396,0c3.18198,3.18198 0,6.36396 0,6.36396z" data-paper-data="{&quot;index&quot;:null}" fill="#999999"/><path d="M198.16776,331.87855c1.42302,-4.26907 5.6921,-2.84605 5.6921,-2.84605l3,1c0.96086,0.3459 2.02786,1.71071 2.8549,1.11162c0.58086,-0.42077 0.73555,-1.31113 1.35629,-1.67047c1.87091,-1.08307 6.21601,-2.02143 8.27438,-2.53771c0,0 4.36564,-1.09141 5.45705,3.27423c1.09141,4.36564 -3.27423,5.45705 -3.27423,5.45705c-1.91139,0.47614 -4.05554,0.4178 -5.72562,1.46229c-0.99582,0.6228 -1.52611,1.96827 -2.64371,2.32953c-3.8838,1.25542 -5.74298,0.18937 -9.1451,-0.88838l-3,-1c0,0 -4.26907,-1.42302 -2.84605,-5.6921z" data-paper-data="{&quot;index&quot;:null}" fill="#999999"/><path d="M142.91815,306.53988c0,4.5 -4.5,4.5 -4.5,4.5l-2.27918,-0.05811c-4.20249,1.40083 -8.32724,1.05811 -12.72082,1.05811c0,0 -4.5,0 -4.5,-4.5c0,-4.5 4.5,-4.5 4.5,-4.5c3.98779,0 7.48763,0.32196 11.27918,-0.94189l3.72082,-0.05811c0,0 4.5,0 4.5,4.5z" fill="#999999"/><path d="M102.00295,167.29943c0.88522,-0.98891 2.26489,-1.75955 4.4152,-1.75955c6,0 6,6 6,6c-0.09501,4.85739 -2.33254,8.37848 -3.07748,12.96109c-0.20227,1.2443 0.33655,2.62766 -0.17997,3.77761c-1.02559,2.28333 -2.32884,4.60568 -4.28626,6.16579c-1.58214,1.261 -3.85504,1.22968 -5.77876,1.85623c-4.48896,1.46204 -9.83826,2.51323 -14.04142,4.62917c-4.82793,2.43047 -8.45279,6.64208 -13.78064,8.316c-2.99091,0.93969 -6.20854,1.04924 -9.17794,2.05482c-0.90711,0.15349 -1.90444,0.03729 -2.72133,0.46048c-0.7713,0.39957 -1.05265,1.44301 -1.80181,1.88271c-2.46596,1.44735 -5.23015,2.31303 -7.85829,3.43937c-2.85594,1.22398 -6.55577,1.96498 -9.14171,3.56063c-0.86579,0.53423 -1.28202,1.67499 -2.19819,2.11729c-1.7197,0.83022 -3.64106,1.16683 -5.50098,1.59966c-0.69597,0.16196 -1.57643,-0.26633 -2.13633,0.17765c-0.89686,0.71117 -1.06413,2.04456 -1.78616,2.93271c-2.91717,3.58833 -6.56466,6.62589 -9.42882,10.22318c-0.59122,0.74255 -0.1185,1.89656 -0.1039,2.84561c0.06147,3.99771 0,8.00175 0,12c0,3.49543 0.42577,7.53764 -0.07748,10.96109c-0.54297,3.6937 -2.54617,6.84357 -2.95172,10.63013c-0.26162,2.4427 0.32751,4.9421 -0.04828,7.36987c-0.16124,1.04169 -0.81017,1.96314 -1,3c-0.30252,1.65237 0.07748,3.35907 0.07748,5.03891c0,4.33333 0,8.66667 0,13c0,5.53169 -0.73376,11.55023 0.62731,16.91832c0.65502,3.33858 6.55291,1.72871 9.33378,2.15915c1.68746,0.26119 3.33135,0.92252 5.03891,0.92252c2.348,0 4.64584,0.68674 6.96109,1.07748c1.12359,0.18962 2.32171,-0.22974 3.41742,0.08303c3.11168,0.88824 6.2511,3.41066 9.58258,3.91697c4.76196,0.72371 16.02759,-4.63483 20.09284,-1.46753c2.29815,1.79052 -1.82493,12.66921 -2.08313,14.98128c-0.50594,4.5304 -5.38788,4.38632 -6.1718,7.94878c-0.2669,1.10575 -0.82708,2.18006 -0.8007,3.31726c0.02738,1.18012 0.97124,2.22928 0.95674,3.40964c-0.02998,2.44068 0.28075,5.22012 -1.08759,7.24136c-2.43056,3.59029 -9.9723,4.44839 -13.86745,4.49174c-11.663,0.12981 -23.33626,0 -35,0c-3.19277,0 -6.81709,0.37912 -10,0c-2.18657,-0.26045 -4.90697,0.379 -6.50826,-1.13255c-2.17965,-2.0575 -2.31776,-5.52852 -3.47664,-8.29279c2.07148,-4.96989 3.26898,-9.3421 4.06238,-14.53576c0.64218,-4.20374 -1.80486,-11.74081 0.94493,-15.4059c-0.01261,-0.21057 -0.02035,-0.42155 -0.0224,-0.633c-0.01959,-2.01304 0.41235,-4.05382 0.07748,-6.03891c-0.35069,-2.07881 -1.69339,-3.91423 -2,-6c-0.47197,-3.21074 -0.50228,-9.45654 -0.03252,-12.69419c0.28145,-1.93982 0.73798,-3.87509 1.46796,-5.69422c0.35948,-0.89584 1.42965,-1.39891 1.74453,-2.31138c0.24245,-0.70256 -0.29526,-1.48816 -0.17997,-2.22239c0.16351,-1.04133 0.66667,-2 1,-3c-0.167,-4.39495 0.90504,-9.8227 0,-14.07781c-0.43859,-2.06206 -1.55869,-3.93852 -2,-6c-1.07281,-5.01135 -0.71031,-10.22643 -1.20547,-15.32735c-0.6567,-6.76513 -2.0841,-13.51582 -1.83399,-20.30815c0.12204,-3.3142 1.7991,-6.43926 1.97707,-9.75093c0.35486,-6.60336 -0.85992,-13.72304 0.02986,-20.30777c0.96432,-7.13637 2.07681,-15.44994 0.19432,-22.58937c-2.65836,-8.50369 -0.09959,-17.39348 -1.21008,-26.0863c-0.47703,-3.73415 -1.75859,-7.22658 -2.76117,-10.81796c-0.52956,-1.89696 -0.65027,-3.92595 -1.43925,-5.7305c-0.60528,-1.3844 -2.59117,-2.15528 -2.66827,-3.66425c-0.1409,-2.75761 0.28954,-5.91104 2.07125,-8.02048c5.8448,-6.91988 9.9008,-4.62453 13.64668,-0.4831c0.90943,-0.5551 1.97814,-0.87494 3.12156,-0.87494c0.71258,0 1.39615,0.12422 2.03023,0.35219l2.86713,0.95571c1.01875,-0.27065 2.00716,0.64591 3,1c1.42653,0.50877 2.94318,0.83475 4.25702,1.58819c0.81787,0.46902 1.19155,1.51493 2,2c0.90388,0.54233 2.10342,0.44569 3,1c0.54824,0.33895 0.54764,1.31057 1.14171,1.56063c0.52463,0.22082 1.10497,-0.48113 1.66499,-0.37925c2.77085,0.50408 5.16894,2.2476 7.67502,3.53263c2.21875,1.1377 4.99198,1.15143 7.00585,2.62165c0.9707,0.70865 1.14623,2.15412 2,3c0.24522,0.24296 0.69708,-0.06021 1.03556,0.00752c1.78853,0.35785 7.05868,1.71326 8.47686,2.65682c4.65497,3.0971 3.85643,5.69999 5.94952,9.94952c0.45457,0.9229 1.6824,1.18464 2.5322,1.7645c3.16726,1.1172 6.7867,-0.01247 10.09699,0.43485c1.36199,0.18404 2.63633,0.82887 4,1c1.39841,0.17548 2.83519,-0.18294 4.22799,0.03252c2.0834,0.32229 3.91575,1.68324 6,2c3.59686,0.54664 7.32242,0.62402 10.67502,2.53263c1.84486,1.05027 3.58368,2.46902 4.94869,4.14944zM8.27782,205.96432c0.2081,-0.13952 0.40975,-0.28061 0.60014,-0.42444h-0.54392c-0.01988,0.14091 -0.03861,0.2824 -0.05623,0.42444zM8.43243,220.22484c0.00287,-0.01718 0.00574,-0.03435 0.00861,-0.05153l-0.01108,-0.01939c0.00083,0.02365 0.00166,0.04728 0.00247,0.07091zM97.63904,184.63704c-0.02589,-0.11863 -0.05067,-0.23817 -0.0733,-0.35831c-0.34189,0.12419 -0.70433,0.26976 -1.09089,0.44823c0.38441,-0.05016 0.77225,-0.08151 1.16419,-0.08991z" fill="#999999"/><path d="M388.72297,11.78235c-1.03742,-0.0686 -2.10622,0.09087 -3.30482,0.09087c-1.08627,0 -2.23021,-0.71385 -3.24296,-0.32101c-1.69445,0.65726 -2.82259,2.36584 -4.48482,3.1008c-2.0357,0.90009 -4.16617,1.63513 -6.35003,2.06527c-4.05627,0.79894 -8.44199,-0.5951 -12.45599,0.06504c-2.68099,0.44092 -5.37815,0.8868 -8.0899,1.03922c-0.07374,0.05299 -0.14771,0.10453 -0.22191,0.1546c-0.44579,0.30081 -6.16009,2.26168 -7.25702,2.58819c-0.5917,0.17613 -1.63226,-0.13366 -1.79346,0.46229c-0.24784,0.91624 -0.13995,1.89713 -0.1039,2.84561c0,4.23083 -0.50309,7.61004 -1.04495,11.7331c-0.55144,4.19588 0.40864,8.80277 0,13c-0.13318,1.3679 -0.84653,2.63423 -1,4c-0.54333,4.83542 -0.74018,9.70501 -0.96249,14.56578c-0.78377,17.13623 0.00745,34.53663 0.00745,51.70112c-0.04592,2.34755 -0.65463,4.65149 -1.07748,6.96109c-0.61535,3.36107 0.71941,7.00781 -0.08303,10.41742c-0.60326,2.5633 -2.67648,4.72948 -2.88445,7.35458c-0.39315,4.96254 0.76216,10.29144 -0.03252,15.22799c-0.75676,4.70099 -2.09753,9.30541 -3.60295,13.82268c-1.50069,4.5031 -4.65223,8.48955 -5.39705,13.17732c-0.26359,1.65902 0.07748,3.35907 0.07748,5.03891c0,5.33333 0,10.66667 0,16c0,0.99191 0.14433,2.00174 0.1753,2.9975c0.94148,-0.01236 1.8832,-0.00798 2.8247,0.0025c4.02664,0.04482 7.12716,0.96327 10.89737,2.3079c1.42653,0.50877 2.9507,0.82179 4.25702,1.58819c0.80839,0.47428 2.94701,3.10918 4.27293,3.61682c1.28351,0.49141 2.73725,0.45747 4,1c1.11461,0.47888 2.91502,2.3592 4.53377,2.56456c1.25061,0.15866 2.58047,-0.21506 3.77761,0.17997c1.44105,0.47552 2.53759,1.67913 3.8974,2.35266c2.06328,1.02196 4.54892,1.09303 6.51828,2.28599c2.70587,1.63911 4.94137,4.6584 7.64955,6.46385c0.97805,1.11253 2.51842,1.5658 3.83218,2.25016c2.06561,1.07601 3.54741,3.04492 5.51828,4.28599c1.39585,0.87898 3.18201,0.87852 4.74298,1.41181c3.69785,1.26332 5.18152,1.47452 8.34527,4.44946c1.01796,0.95721 1.52554,2.34677 2.39741,3.43871c0.75252,0.94246 1.83346,1.62138 2.46385,2.64955c0.55097,0.89863 0.49432,2.07512 1,3c1.05238,1.92479 14.02848,-1.53865 14.7727,0.52496c2.55218,7.0768 4.49887,14.86216 -1.74688,20.90967c-6.24575,6.04751 -15.35071,-0.02387 -22.09082,-1.35772c-6.74011,-1.33386 -8.67937,-1.41409 -13,-3c-3.81611,0 -6.8543,-1.46519 -10.63013,-1.95172c-1.37323,-0.17695 -2.82564,0.18384 -4.14748,-0.22825c-1.14739,-0.3577 -1.88757,-1.5451 -3,-2c-1.31715,-0.53862 -2.83827,0.25745 -4.2613,0.25745c-4.03272,0 -14.99434,0.78115 -16.03891,0.92252c-4.60865,0.62375 -41.9767,-14.03457 -46.06325,-15.49345c-1.35193,-0.48263 -2.88278,-0.04815 -4.29602,-0.29995c-5.65268,-1.00716 -10.69783,-2.12913 -16.60182,-2.12913c-6.33333,0 -12.66667,0 -19,0c-2.43324,0 -5.96203,0.53515 -8.39818,0.12913c-1.55795,-0.25966 -3.02669,-1.24569 -4.60182,-1.12913c-2.54759,0.18854 -5.01072,1.09595 -7.39351,2.01685c-1.19432,0.46157 -1.92793,2.12055 -3.20831,2.11228c-8.12856,-0.05254 -16.26448,-0.12913 -24.39818,-0.12913c-4.20714,0.07466 -7.59035,1.37644 -11.60182,2.12913c-3.90303,0.73234 -6.89685,-0.72185 -11.22501,0.63208c-0.89981,0.28148 -1.17338,1.54658 -2,2c-0.23142,0.12694 -0.13172,-0.70507 -0.395,-0.68628c-1.37088,0.09785 -2.64291,0.78273 -4,1c-2.1,0.33621 -4.28167,-0.29234 -6.37999,0.0542c-4.32779,0.71474 -8.28025,3.3252 -12.62001,3.9458c-3.98171,0.5694 -6.91876,0.11728 -10.94045,1.43824c-3.29647,1.08276 -5.77803,3.09591 -9,4l-2.78124,0.92708c-2.03666,0.62636 -3.79609,1.88569 -5.04868,3.54841c-3.97715,-0.08635 -8.42362,-0.62049 -12.27471,-0.0336c-3.91781,0.59705 -7.40497,1.55973 -11.4662,1c-4.34651,-0.59904 -9.93902,-1.6106 -13.90301,-3.56515c-0.79856,-0.39375 -1.25944,-1.36128 -2.1026,-1.64734c-0.70382,-0.23879 -1.48816,0.29526 -2.22239,0.17997c-1.04133,-0.16351 -1.96314,-0.81017 -3,-1c-2.22046,-0.40652 -4.53063,0.30071 -6.77201,0.03252c-4.9352,-0.59052 -8.31218,-1.39621 -12.5951,-3.96274c0,0 -4.9923,-3.3282 -1.6641,-8.3205c3.3282,-4.9923 8.3205,-1.6641 8.3205,-1.6641c0.47017,0.41658 0.8096,1.06669 1.4105,1.24975c0.43068,0.1312 0.88513,-0.05016 1.33847,-0.15601c0.19159,-1.05537 0.55627,-1.78472 0.55627,-1.78472l6.36656,-5.31672c2.49551,0 25.88258,-11.31724 29.51228,-13.43723c1.65844,-0.96864 6.85974,-0.42007 8.24508,-1.80541c3.38279,-3.38279 7.61629,-9.28097 11.94654,-11.30064c1.07634,-0.50202 2.42831,0.1691 3.5574,-0.19927c0.84645,-0.27616 1.30781,-1.24602 2.1026,-1.64734c1.88188,-0.95024 4.12406,-1.03808 6,-2c1.06945,-0.54838 1.92076,-1.47114 3,-2c1.71916,-0.84245 15.92727,-13.60441 18,-14.66667c0.8733,-0.44756 16.57036,-13.28741 16.54956,-13.35124c-1.23019,-3.77343 -1.61332,-12.67142 -0.69692,-16.86149c0.20931,-0.95703 0.48061,-1.90214 0.78348,-2.84204c0,-2.62956 0,-5.25911 0,-7.88867c0,-3.21871 0.53037,-6.8702 0.07748,-10.03891c-0.46139,-3.22817 -2.02122,-6.86902 -3,-10c-0.17571,-8.98381 -0.07748,-17.97562 -0.07748,-26.96109c0,-3.05186 -0.47653,-6.74103 0.04495,-9.7331c0.47196,-2.70792 1.65085,-5.27353 2,-8c0.74389,-5.80899 -0.02167,-12.63096 -0.96748,-18.30581c-0.17329,-1.03975 -0.87416,-1.95345 -1,-3c-0.63689,-5.29686 -0.11081,-11.08761 -0.07896,-16.4677c-0.68458,-5.46302 -1.09948,-10.95904 -1.61141,-16.4416c-0.07659,-0.82026 -0.18836,-1.6953 -0.3233,-2.61577c-0.30803,-0.7336 -0.66329,-1.44626 -1.07285,-2.13307c-0.55059,-0.92331 -1.76254,-1.37028 -2.21215,-2.34675c-0.90064,-1.95598 -1.37277,-4.10021 -1.73385,-6.22309c-0.02129,-0.12517 -0.03449,-0.25103 -0.04138,-0.37741c-1.55616,-0.93771 -2.48886,-1.8704 -2.48886,-1.8704c0.18493,-0.29071 -2.19569,-0.76902 -2.86977,-0.96384c-1.5923,-0.46018 -3.25477,-0.68913 -4.8083,-1.26682c-3.12455,-1.16188 -6.28689,-2.33169 -9.14542,-4.04681c-0.00359,-0.00215 -0.00716,-0.0043 -0.01072,-0.00644c-2.84324,0.22284 -5.29671,-0.92526 -8.03556,-1.67993c-3.47362,-0.95713 -5.50474,-1.12894 -8.91717,-2.74166c-1.08661,-0.51353 -1.92503,-1.46252 -3,-2c-1.21857,-0.60928 -2.62576,-0.99948 -3.68935,-1.82593c0.00298,0.02353 -0.00822,0.03998 -0.03843,0.04615c-1.9596,0.39998 -4,0 -6,0c1.41637,-1.52758 -0.71859,0.7757 -0.72778,0.77978c-5.41614,2.40866 -5.96534,2.11642 -11.27222,2.22022c-1.3896,0.02718 -2.25919,0.15926 -2.71434,0.21029c-1.86611,1.0775 -10.37394,-3.70942 -16.27026,-12.55389c-6.6564,-9.9846 314.95515,-8.65641 306.46987,-0.17113c0,0 -12.24567,13.40937 -15.18045,11.42382zM203.15564,247.29362c-0.17744,-0.04589 -0.35485,-0.09185 -0.53223,-0.13794c-0.16679,-0.04334 0.34842,0.28021 0.48596,0.17639c0.01612,-0.01217 0.03152,-0.025 0.04627,-0.03845zM208.21789,74.03914c-0.00311,0.09656 -0.00611,0.19315 -0.00901,0.28977c0.01537,-0.04251 0.03088,-0.0849 0.04654,-0.12717c-0.01251,-0.0542 -0.02502,-0.1084 -0.03752,-0.1626z" fill="#999999"/><path d="M411.54582,336.4374c-0.15757,-1.05794 -0.37086,-2.11702 0.00922,-3.07881c0.60358,-1.52733 2.28558,-2.3611 3.36221,-3.60123c2.53182,-2.91631 3.87247,-6.6389 6.79429,-9.27516c2.34477,-2.11561 5.83562,-3.65267 8.36448,-5.62902c2.5643,-1.13468 4.99776,-2.58006 7.63665,-3.52842c1.9767,-0.71038 4.17717,-0.65006 6.15112,-1.36804c3.58624,-1.3044 5.75044,-4.58629 9.67937,-5.7348c3.38453,-0.98937 7.08638,-0.97444 10.54088,-1.62468c3.3915,-0.63839 7.27747,-1.9165 10.82502,-2.06331c0.02536,-6.53471 -1.38534,-13.30883 -1.41584,-19.83409c-0.01622,-3.46957 1.26751,-7.07423 1.33333,-10.55473c0.11091,-5.86424 0.51478,-12.13222 0.33333,-17.99377c-0.21006,-6.78585 0.00397,-13.71864 -0.66667,-20.43768c-0.57395,-5.7503 -1.6072,-11.60395 -1.66667,-17.4053c-0.00803,-0.78351 -0.10337,-2.67946 -0.10845,-4.66617h-2.55822l-0.9357,-0.23393l-0.96166,-0.07397l-0.10288,-0.03429l-0.08245,0.04122l-1.2728,-0.45457l-1.31118,-0.32779l-0.10086,-0.1765l-0.22734,-0.08119l-1,-0.66667l-0.06681,-0.0735l-0.09241,-0.03641l-2.18279,-1.55913l-2.46353,-1.53971l-1.6199,-0.97194l-0.10345,-0.10345l-0.11622,-0.04151h-1.36002l-0.9357,-0.23393l-0.96166,-0.07397l-1,-0.33333l-0.35005,-0.22276l-1.26261,-0.25252l-0.08188,-0.03878l-0.09058,0.00165l-4.15306,-0.9584l-1.81751,-0.30292l-0.82195,-0.35737l-0.87494,-0.19443l-0.66667,-0.33333l-0.28787,-0.24674l-0.35705,-0.12752l-1.23125,-0.82083l-1.14106,-0.16301l-0.07149,0.01787l-1.53553,0.51184l-0.0258,0.04516l-0.16718,0.0418l-0.14953,0.07477l-1.34581,0.29907l-1.33747,0.33437h-0.16718l-0.16823,0.03738l-0.05608,-0.03738h-0.60851l-0.71658,-0.17914h-0.73863l-1.33333,-0.33333l-0.906,-0.4832l-0.96698,-0.34535l-0.68919,-0.45946l-1.66589,-0.83294l-0.71821,-0.61561l-1.05372,-0.26343l-0.58303,-0.31095l-0.64504,-0.14334l-0.28528,-0.14264l-1.67177,-0.55726h-0.02633l-0.9357,-0.23393l-0.96166,-0.07397l-2,-0.66667l-0.36434,-0.23185l-0.42157,-0.09368l-0.58556,-0.29278l-0.62852,-0.04835l-0.7814,-0.26047l-1.10978,-0.27745l-0.0635,-0.03387l-0.48543,-0.12136l-0.84108,-0.18691l-0.0791,0.02157l-0.10364,-0.06218l-0.32199,-0.07155l-0.14953,-0.07477l-0.16718,-0.0418l-0.03344,-0.05851l-0.31651,-0.15826l-0.61059,-0.52336l-1.03946,-0.25986l-0.10086,-0.1765l-0.22734,-0.08119l-1,-0.66667l-0.1786,-0.19646l-0.24137,-0.11063l-1.46335,-1.17068l-0.78335,-0.52223l-0.40199,-0.44219l-0.51244,-0.30747l-0.24028,-0.24028l-1.07876,-0.4315l-0.5088,-0.36747l-0.59106,-0.21109l-2,-1.33333l-0.40199,-0.44219l-0.51244,-0.30747l-0.66667,-0.66667l-0.22219,-0.37031l-0.33517,-0.27233l-1,-1.33333l-0.06616,-0.15712l-0.12615,-0.11468l-0.31879,-0.47819l-0.95557,-0.71668l-0.27233,-0.33517l-0.37031,-0.22219l-2.66667,-2.66667l-0.30747,-0.51244l-0.44219,-0.40199l-0.33711,-0.50566l-0.24656,-0.24656l-0.49623,-0.82705l-0.01507,-0.01758l-0.01979,-0.01979l-0.24703,-0.01372l-0.75,-0.875l-0.24585,-0.12292l-0.7323,-0.62769l-0.82705,-0.49623l-0.5799,-0.5799l-0.43974,-0.29316l-0.09183,-0.0051l-1.01013,-1.17849l-1.04409,-1.1485l0.00633,-0.09175l-0.12282,-0.24564l-0.05851,-0.03344l-0.0418,-0.16718l-0.07477,-0.14953l-0.29907,-1.34581l-0.33437,-1.33747v-0.16718l-0.03738,-0.16823l0.03738,-0.05608v-1.27518l0.23393,-0.9357l0.07397,-0.96166l0.25832,-0.77495c-0.15165,-0.52748 -0.23288,-1.08476 -0.23288,-1.66102c0,-2.38699 1.39388,-4.44843 3.4121,-5.41474l-0.00803,-0.10444l0.58088,-0.64922l-0.05994,-0.86909l2.08013,-2.28814l2,-1.33333l0.35705,-0.12752l0.28787,-0.24674l1.33333,-0.66667l0.42157,-0.09368l0.36434,-0.23185l2.83273,-0.94424l1.27124,-0.5085l1.11011,-0.55506l0.42157,-0.09368l0.36434,-0.23185l2,-0.66667l0.23457,-0.01804l0.20758,-0.11071l1.33333,-0.33333h0.73863l0.71658,-0.17914h0.33333l1.33333,-0.33333h0.16718l0.16823,-0.03738l0.05608,0.03738h1.20321l0.61675,-0.15419h0.73863l0.71658,-0.17914h1.02633l0.0763,-0.02543l0.59585,-0.04583l0.55731,-0.21573l2.66667,-0.33333l0.37639,0.04562l0.36782,-0.09196h0.18335l0.48845,-0.32564l0.35705,-0.12752l0.28787,-0.24674l0.66667,-0.33333l0.42157,-0.09368l0.36434,-0.23185l1,-0.33333l0.86667,-0.06667l0.39547,-0.13182l2.28528,-1.14264l0.42157,-0.09368l0.28608,-0.18205l0.18205,-0.28608l0.09368,-0.42157l0.03878,-0.07757l0.17359,-0.69437l0.11071,-0.20758l0.01804,-0.23457l0.88187,-2.64562l0.26007,-1.30037l0.16231,-0.34264l0.02908,-0.37803l0.45511,-1.36533l0.23699,-2.36989v-5.97593l-0.03738,-0.05608l0.03738,-0.16823v-0.16718l0.33437,-1.33747l0.17811,-0.80149v-0.64958l0.15419,-0.61675v-1.5947l0.10474,-0.41896l-0.04444,-0.42956l0.27303,-1.91121v-2.24026l0.23393,-0.9357l0.07397,-0.96166l0.02543,-0.0763v-1.02633l0.23393,-0.9357l0.07397,-0.96166l0.02543,-0.0763v-4.96818l-0.03738,-0.05608l0.03738,-0.16823v-0.16718l0.33437,-1.33747l0.29907,-1.34581l0.07477,-0.14953l0.0418,-0.16718l0.05851,-0.03344l0.49159,-0.98318l0.62769,-0.7323l0.49623,-0.82705l0.66667,-0.66667l0.82705,-0.49623l0.7323,-0.62769l0.66667,-0.33333l0.32199,-0.07155l0.10364,-0.06218l0.04122,0.01124l0.31907,-0.20304l0.59547,-0.19849l0.28528,-0.14264l1.15551,-0.25678l0.34192,-0.30593l0.76868,0.05913l0.75259,-0.16724l0.38175,0.2545l1.18021,0.09079l0.64562,0.21521l2.38446,0.47689h5.40588l0.247,0.06175l0.25127,-0.04102l4,0.33333l0.02199,0.00749l0.02295,-0.00357l3.66667,0.33333l0.09798,0.03418l0.10302,-0.01249l2.66667,0.33333l0.26901,0.10413l0.28836,-0.00759l2.6246,0.58325l2.27139,0.20649l0.34721,-0.0868h0.24455l0.22427,-0.09751l1.66481,-0.27747l1.10602,-0.31601l1.2207,-0.8138l0.35705,-0.12752l0.28787,-0.24674l1.64984,-0.82492l0.03344,-0.05851l0.16718,-0.0418l0.14953,-0.07477l1.34581,-0.29907l1.33747,-0.33437h0.16718l0.16823,-0.03738l0.05608,0.03738h1.60851l1.14835,0.28709l0.44264,-0.12072l0.66108,0.39665l0.74793,0.18698l0.22763,0.39835l1.01501,0.60901l1.33333,1.33333l0.60901,1.01501l0.39835,0.22763l0.18698,0.74793l0.39665,0.66108l-0.12072,0.44264l0.28709,1.14835v2l-0.23393,0.9357l-0.07397,0.96166l-0.56879,1.70636l-0.49523,2.22854l-0.3051,5.18673l-0.01663,0.05304l0.00931,0.0548l-0.66667,8.66667l-0.06319,0.18958l0.02056,0.19877l-0.62875,4.40124l-0.31095,5.90802v32.9822l0.6285,9.74172l0.18173,0.90864l0.21521,0.64562l0.07397,0.96166l0.13026,0.52105l0.34119,0.85297l0.10426,0.76455l0.27855,0.71959l0.20586,1.64685l0.03196,0.06392l0.05851,0.03344l0.0418,0.16718l0.07477,0.14953l0.29907,1.34581l0.33437,1.33747v0.02633l0.02543,0.0763l0.01804,0.23457l0.11071,0.20758l0.33333,1.33333v0.1463l0.06263,0.13222l0.26007,1.30037l0.21521,0.64562l0.07397,0.96166l0.23393,0.9357v3.33333l-0.38187,1.5275l0.07397,0.36987l-0.2144,0.19183l-0.2277,0.9108l-1.58846,0.90769l2.33846,4.09231l-2.29548,4.01709c0.22773,2.76884 -0.06621,6.02708 -0.03785,6.98344c0.11563,3.89954 0.49998,7.94178 0.95078,11.82542c1.72211,14.83596 1.25299,29.86424 1.04922,44.84022c-0.08005,5.88332 -1.50949,11.42838 -1.33333,17.50342c0.09842,3.39435 1.19778,6.75738 1.33333,10.16324c0.14356,3.60694 -0.62415,6.22223 -0.66667,9.64033c-0.00653,0.52458 -0.03115,1.22868 -0.09116,2.02111c0.01418,0.09737 0.02954,0.19638 0.0462,0.29709c0.98547,5.95621 1.54495,11.67705 1.54495,17.7331c0,7.94718 -0.43056,16.06563 -0.02044,24.00512c0.09116,1.76471 1.57588,6.69589 1.39791,7.20128c-0.88501,2.51325 -2.94964,4.59985 -5.13198,6.12861c-1.46714,1.02775 -3.47289,0.92435 -5.25061,1.14455c-5.46442,0.67684 -11.25777,-1.27751 -16.45598,-2.55703c-1.54034,-0.37915 -5.06796,1.1454 -6.12524,1.40856c-0.73782,0.18364 -5.22593,1.02617 -5.82244,1.13972c-5.87979,0.05554 -11.69598,0.89219 -17.58611,0.50876c-3.6359,-0.23669 -7.06256,-1.00022 -10.65982,-1.51538c-5.48205,-0.78508 -10.59174,0.62844 -14.5665,-5.00798c-1.81371,-2.57194 -0.47959,-4.83645 -0.7496,-7.36497c-0.31204,-2.92209 -0.47124,-5.63401 -1.60006,-8.36288c0,0 -2.22834,-5.57086 3.34252,-7.7992c1.186,-0.4744 2.22051,-0.59531 3.11427,-0.49174zM465.82656,130.27009v-0.06845l-0.09167,0.00733z" fill="#999999"/><path d="M116.78603,161.73799c0,6 -6,6 -6,6h-3.003c-3.06696,-0.30303 -4.47726,2.06776 -7.63049,2.8425c-3.87144,0.9512 -8.16825,-0.5805 -12.01201,0c-2.11707,0.31973 -4.23151,1.98058 -6.27889,1.35411c-1.87551,-0.57389 -2.3681,-3.16389 -3.84678,-4.45246c-0.6112,-0.53262 -1.63224,-0.37443 -2.26862,-0.87669c-0.76835,-0.60641 -1.00735,-1.74046 -1.79084,-2.32718c-0.22455,-0.16816 -0.42847,0.42245 -0.7069,0.45672c-0.57722,0.07106 -6.94987,-0.07426 -6.9671,-0.07748c-1.55591,-0.2901 -2.95641,-1.17223 -4.5045,-1.5015c-1.41976,-0.30197 -3.04192,0.27425 -4.33801,-0.37925c-1.95219,-0.98432 -3.2997,-2.86909 -4.94954,-4.30364c0,0 -1.43572,-1.43572 -1.80158,-3.47197c-1.05161,-0.36267 -2.06702,-1.12233 -2.97786,-2.51344c-0.84871,-1.2962 -0.56985,-3.1766 -1.53806,-4.38615c-0.85339,-1.06612 -2.80788,0.42568 -4.09674,-0.02569c-1.68325,-0.58949 -3.08232,-1.79672 -4.5895,-2.75025c-1.18223,-0.74794 -2.38496,-1.47629 -3.47573,-2.35225c-0.88881,-0.71376 -1.72403,-1.50934 -2.43871,-2.39741c-0.14658,-0.18214 0.17639,-0.65654 -0.05346,-0.69936c-0.55958,-0.10424 -1.10075,0.45433 -1.66499,0.37925c-2.00987,-0.26745 -3.97241,-1 -6,-1c-1.73109,-0.60621 -3.59645,-0.91625 -5.19329,-1.81862c-1.69162,-0.95593 -2.38957,-3.26942 -4.14856,-4.09486c-1.02712,-0.48199 -7.63572,-2.9533 -10.65815,-4.08652l-2.03891,0.07748c0,0 -6,0 -6,-6l0.00002,-0.00002c0,-6 6,-6 6,-6l3.96109,0.07748c5.61184,1.76264 9.43518,2.83441 15.34185,5.91348c1.74541,0.90986 2.73444,3.65399 4.65815,4.08652c2.02759,0 4.00733,0.62531 6,1c1.42554,0.26806 3.00946,-0.20976 4.33501,0.37925c2.18506,0.97093 5.8522,4.94574 8.0321,6.55098c0.50582,0.37248 0.80791,1.07231 1.4105,1.24975c0.71295,0.20995 1.50133,-0.3601 2.22239,-0.17997c1.96483,0.49083 4.0784,0.91592 5.68087,2.15428c2.32762,1.79874 3.20639,4.95361 4.46194,7.61385c0.63646,1.34851 2.54047,1.57678 3.70003,2.51433c0.88922,0.71897 0.73389,1.7217 0.03779,2.6791c0.10102,0.13275 0.22206,0.24329 0.37556,0.31784c0.5129,0.24909 1.107,-0.48124 1.668,-0.37925c1.55719,0.28312 2.95795,1.16508 4.5045,1.5015c3.34512,0.72766 6.96985,-1.0874 10.34402,0.37925c1.71033,0.74343 2.70887,2.57928 4.21516,3.67883c1.08797,0.79419 2.64941,0.97851 3.56886,1.93301c1.81089,-0.08505 5.58642,-0.06256 6.43639,-0.06256c1.54342,0 3.13418,0.55063 4.62749,0.16051c2.16562,-0.56577 3.83235,-2.46894 6.00601,-3.003c1.41928,-0.34871 2.92101,-0.107 4.38152,-0.16051h3.003c0,0 6,0 6,6z" fill="#b3cedd"/><path d="" fill="#999999"/><path d="M185.59924,181.51937c4.24264,4.24264 0,8.48528 0,8.48528l-3.06086,2.62542c-2.61465,0.68385 -2.01077,3.31801 -3.82183,5.64921c-1.26158,1.6239 -2.7383,3.10062 -4.36219,4.36219c-1.13696,0.88329 -2.5468,1.34377 -3.82798,2.00061c-3.13466,1.60708 -6.93593,4.09075 -10.31377,4.97744c-0.67911,0.17827 -1.44456,-0.58303 -2.08542,-0.29622c-0.60958,0.27282 -0.62021,1.1967 -1.05646,1.70237c-1.64027,1.90125 -3.87458,3.26281 -5.38119,5.27163c-0.85998,1.14664 -1.08783,2.7495 -2.12631,3.73738c-0.83064,0.79017 -7.55923,4.25574 -8.87013,4.59986c-0.67911,0.17827 -1.4635,-0.62207 -2.08542,-0.29622c-0.86702,0.45428 -1.02601,1.71633 -1.79084,2.32718c-0.87448,0.69842 -2.10768,0.83001 -3.003,1.5015c-2.258,1.6935 -4.32951,3.69627 -6.83099,5.00361c-1.32641,0.66321 -6.34598,3.21537 -7.31077,3.47593c-0.96638,0.26099 -2.03189,-0.24278 -3.003,0c-1.08574,0.27143 -1.91726,1.23007 -3.003,1.5015c-2.71076,0.67769 -4.42616,0.13449 -6.87926,2.03096c-2.58633,1.99947 -4.98228,4.6148 -8.13575,5.47655c-0.46004,0.12571 -0.86505,-1.04597 -1.22713,-0.73559c-0.55202,0.4732 0.09366,1.62049 -0.41325,2.14174c-0.99927,1.02754 -2.57971,1.28124 -3.73738,2.12631c-1.50629,1.09955 -2.49691,2.9539 -4.21516,3.67883c-1.38342,0.58366 -3.1104,-0.55764 -4.5045,0c-1.31438,0.52575 -1.66806,2.5319 -3.003,3.003c-3.23867,1.14294 -9.12501,0.45672 -12.80661,0.45672c0,0 -6,0 -6,-6c0,-6 6,-6 6,-6c2.002,0 4.01165,-0.17478 6.00601,0c0.74884,0.06563 1.533,0.78672 2.2084,0.45672c1.27193,-0.62146 1.68862,-2.47725 3.003,-3.003c1.39411,-0.55764 3.09615,0.52062 4.5045,0c0.9181,-0.33939 1.02249,-1.72077 1.79084,-2.32718c0.63639,-0.50226 1.6884,-0.31049 2.26862,-0.87669c1.10977,-1.08295 1.2744,-3.04316 2.58976,-3.86427c1.3672,-0.85347 3.20607,-0.38357 4.77887,-0.73559c1.70593,-0.38182 2.46599,-2.49946 3.87626,-3.53246c1.16149,-0.85078 2.53438,-1.36857 3.82798,-2.00061c1.41922,-0.69342 2.78284,-1.56259 4.30777,-1.97443c0.96638,-0.26099 2.03189,0.24278 3.003,0c1.08574,-0.27143 1.91726,-1.23007 3.003,-1.5015c0.97111,-0.24278 2.02513,0.21395 3.003,0c1.73848,-0.38036 3.10951,-1.73421 4.70124,-2.53007c1.98299,-0.91263 3.43469,-2.69564 5.18103,-4.00539c0.89532,-0.67149 2.09377,-0.84897 3.003,-1.5015c1.51511,-1.08737 2.53955,-2.86014 4.21516,-3.67883c1.37978,-0.67415 5.64564,-0.08655 7.06247,-1.70237c0.5345,-0.60956 0.39026,-1.62006 0.87669,-2.26862c2.36097,-3.14796 8.20791,-9.29514 11.58036,-11.04402c1.16345,-0.60334 2.64498,0.00454 3.92059,-0.29622c1.73211,-0.40839 3.10951,-1.73421 4.70124,-2.53007c1.71561,-0.85781 3.60403,-1.41199 5.18103,-2.50389c2.89639,-2.00543 2.81969,-5.93226 5.27163,-8.3842c1.2407,-1.2407 3.04157,-1.75028 4.56236,-2.62542l-0.05786,-0.37758c0,0 4.24264,-4.24264 8.48528,0z" fill="#b3cedd"/><path d="M74.29869,328.02271c-1.71402,2.53632 -3.86299,2.87037 -7.95875,1.71692c-1.48564,-0.41838 -3.08406,0.16051 -4.62749,0.16051c-3.003,0 -6.00601,0 -9.00901,0c-9.00901,0 -18.01802,0 -27.02703,0c0,0 -11.25,0 -11.25,-6c0,-6 11.25,-6 11.25,-6c10.01001,0 20.02002,0 30.03003,0c4.12244,0 9.39266,-0.78247 13.39053,0.16051c1.3993,0.33005 2.58187,1.27349 3.92059,1.79772c3.78691,1.48293 2.99515,5.62802 1.28113,8.16434z" fill="#b3cedd"/><path d="M146.81606,299.87613c0,6 -6,6 -6,6h-1.5015c-1.54342,0 -3.14506,-0.5901 -4.62749,-0.16051c-1.07493,0.3115 -1.90293,1.29575 -3.003,1.5015c-1.00412,0.18781 -6.92139,0.16051 -8.88603,0.16051c0,0 -6,0 -6,-6c0,-6 6,-6 6,-6c2.0437,0 4.13252,0.59732 6.12899,0.16051c1.09329,-0.23921 1.91116,-1.25576 3.003,-1.5015c0.87597,-0.19715 6.0062,-0.16051 7.38452,-0.16051h1.5015c0,0 6,0 6,6z" fill="#b3cedd"/><path d="M227.89714,323.90015c0,6 -6,6 -6,6h-3.003c-1.54342,0 -3.14506,-0.5901 -4.62749,-0.16051c-1.07493,0.3115 -1.91726,1.23007 -3.003,1.5015c-0.97111,0.24278 -2.03189,-0.24278 -3.003,0c-1.08574,0.27143 -1.91116,1.25576 -3.003,1.5015c-1.42582,0.3209 -2.92101,0.107 -4.38152,0.16051c0,0 -6,0 -6,-6c0,-6 6,-6 6,-6c1.59818,0.15791 3.06948,-0.95149 4.62749,-1.341c0.97111,-0.24278 2.03189,0.24278 3.003,0c1.08574,-0.27143 1.91116,-1.25576 3.003,-1.5015c0.87597,-0.19715 6.0062,-0.16051 7.38452,-0.16051h3.003c0,0 6,0 6,6z" fill="#b3cedd"/><path d="M304.86771,295.37162c0,6 -6,6 -6,6h-1.5015c-2.05464,0 -12.09286,-0.72201 -14.03049,-0.16051c-1.07493,0.3115 -9.0092,1.66201 -10.38752,1.66201c0,0 -6,0 -6,-6c0,-6 6,-6 6,-6c1.54342,0 6.53865,-1.09525 7.63049,-1.34099c3.0836,-0.69401 13.597,-0.16051 16.78753,-0.16051h1.5015c0,0 6,0 6,6z" fill="#b3cedd"/><path d="M375.04428,323.90015c0,6 -6,6 -6,6l-1.62449,-0.16051c-3.58479,1.79239 -6.43694,1.66201 -10.38753,1.66201c-7.00701,0 -14.01401,0 -21.02102,0c0,0 -6,0 -6,-6c0,-6 6,-6 6,-6c5.50551,0 11.01101,0 16.51652,0c4.54871,0 8.11734,0.66783 12.135,-1.341l4.38152,-0.16051c0,0 6,0 6,6z" fill="#b3cedd"/><path d="M487.40104,288.12598c4.24264,4.24264 0,8.48528 0,8.48528l-3.06086,2.62542c-4.83879,2.4194 -10.05596,4.53913 -14.68674,7.3304c-3.69994,2.2302 -7.815,5.59252 -12.14355,6.65604c-1.94418,0.47768 -4.06901,-0.50604 -6.00601,0c-2.16562,0.56577 -3.84431,2.4224 -6.00601,3.003c-0.78825,0.21171 -1.70187,-0.50254 -2.44326,-0.16119c-1.15704,0.53272 -1.82448,1.78362 -2.81635,2.58282c-3.11472,2.50968 -6.33028,4.89158 -9.49542,7.33737c-6.33028,4.89158 -12.66056,9.78316 -18.99084,14.67474c0,0 -4.74771,3.66869 -8.4164,-1.07903c-3.66869,-4.74771 1.07903,-8.4164 1.07903,-8.4164c6.33028,-4.89158 12.66056,-9.78316 18.99084,-14.67474c5.19266,-4.01251 9.82902,-8.99971 15.77261,-11.78138c1.07671,-0.50391 2.40323,0.10103 3.56275,-0.16119c2.18318,-0.49372 3.83235,-2.46894 6.00601,-3.003c1.94418,-0.47768 4.06901,0.50604 6.00601,0c2.88609,-0.75399 6.55396,-3.96776 8.87747,-5.35597c4.86193,-2.90483 10.27597,-5.15095 15.34329,-7.68461l-0.05786,-0.37758c0,0 4.24264,-4.24264 8.48528,0z" fill="#b3cedd"/><path d="M323.66207,212.78303c-0.88861,0.86173 -2.20808,1.5015 -4.16733,1.5015c-6,0 -6,-6 -6,-6l6,-7.5015c6.00601,0 12.01201,0 18.01802,0c1.4663,0 6.93655,-0.05427 7.74471,0.25745c3.59221,1.38556 6.23138,4.52578 9.27706,6.88111c1.51733,1.1734 3.46541,1.64609 5.18103,2.50389c4.57749,2.28875 9.33217,4.38291 13.71025,7.03458c1.59296,0.2452 3.39396,-0.08882 4.77887,0.73559c0.96166,0.57246 0.58075,2.36682 1.5015,3.003c1.14657,0.79222 3.1058,-0.12419 4.09126,0.86126c0.98545,0.98545 0.15778,2.8882 0.86126,4.09126c0.23946,0.40952 1.00651,-0.46527 1.40736,-0.21156c1.19617,0.75709 1.88303,2.13717 3.003,3.003c2.86793,2.21717 6.98494,2.56895 9.74339,5.12932c0.82026,0.76136 0.71014,2.21164 1.5015,3.003c0.79136,0.79136 2.21164,0.71014 3.003,1.5015c0.79136,0.79136 0.71014,2.21164 1.5015,3.003c0.79136,0.79136 2.23748,0.68512 3.003,1.5015c0.49734,0.53038 -0.13878,1.66854 0.41325,2.14174c0.36208,0.31038 0.75786,-0.82056 1.22713,-0.73559c1.10125,0.19939 1.92808,1.19 3.003,1.5015c1.48243,0.42959 3.08406,-0.16051 4.62749,-0.16051c0,0 6,0 6,6c0,6 -6,6 -6,6c-1.37832,0 -6.50856,0.03664 -7.38452,-0.16051c-1.09184,-0.24574 -1.92741,-1.1923 -3.003,-1.5015c-1.54898,-0.44529 -3.41168,0.11788 -4.77887,-0.73559c-1.31535,-0.82111 -1.47084,-2.79077 -2.58976,-3.86427c-0.80758,-0.7748 -2.21164,-0.71014 -3.003,-1.5015c-0.79136,-0.79136 -0.71014,-2.21164 -1.5015,-3.003c-0.79136,-0.79136 -2.21164,-0.71014 -3.003,-1.5015c-0.79136,-0.79136 -0.76635,-2.15917 -1.5015,-3.003c-0.32673,-0.37504 -0.98547,-0.18396 -1.44364,-0.37758c-0.68179,-0.28811 -6.65394,-3.37243 -6.83099,-3.50211c-1.14203,-0.83652 -1.90723,-2.10674 -3.003,-3.003c-1.44769,-1.1841 -3.49727,-1.703 -4.59865,-3.21457c-0.41213,-0.56562 1.35613,-1.41988 0.86126,-1.91475c-0.49486,-0.49486 -1.3218,1.233 -1.91475,0.86126c-0.94822,-0.59446 -0.64074,-2.28774 -1.5015,-3.003c-0.36679,-0.3048 -0.81809,0.49039 -1.22713,0.73559c-5.50797,-2.52454 -10.90087,-5.27098 -16.31978,-7.98044c-0.90646,-0.45323 -6.36491,-3.16001 -6.83099,-3.50211c-1.14159,-0.83793 -6.57295,-4.2327 -7.00225,-4.20679c-1.99837,0.12056 -4.004,-0.66666 -6.00601,-0.66666c-3.61589,0 -7.23179,0 -10.84768,0z" fill="#b3cedd"/><path d="M445.60885,136.71396c0,6 -6,6 -6,6h-3.003c-2.05464,0 -5.69286,-0.72201 -7.63049,-0.16051c-1.07493,0.3115 -1.91726,1.23007 -3.003,1.5015c-0.97111,0.24278 -2.02513,-0.21395 -3.003,0c-1.8768,0.41062 -3.30635,1.98903 -5.08842,2.70679c-2.79762,1.12679 -5.50588,2.54124 -8.42509,3.29922c-0.96887,0.25157 -2.02513,-0.21395 -3.003,0c-4.75451,1.04023 -6.94461,6.78525 -11.09443,8.71279c-1.60793,0.74686 -3.53274,0.30448 -5.2991,0.45672c0,0 -6,0 -6,-6c0,-6 6,-6 6,-6c0.60446,0.39054 1.28213,-0.71057 1.76337,-1.24564c3.05735,-3.39941 7.37339,-6.38761 11.87313,-7.60286c0.96638,-0.26099 2.02895,0.23072 3.003,0c0.78127,-0.18506 1.34274,-0.90023 2.08542,-1.20528c3.26975,-1.34304 8.04694,-3.88757 11.42809,-4.80072c0.96638,-0.26099 2.03189,0.24278 3.003,0c1.08574,-0.27143 1.91116,-1.25576 3.003,-1.5015c3.0836,-0.69401 7.197,-0.16051 10.38753,-0.16051h3.003c0,0 6,0 6,6z" fill="#b3cedd"/><path d="M490.6599,92.66892c0,6 -6,6 -6,6c-8.00801,0 -17.51752,0 -25.52553,0c-3.88246,0 -8.82885,-0.88746 -12.55242,-0.07748c-1.54655,0.33642 -2.9486,1.2114 -4.5045,1.5015c-3.04172,0.56713 -6.85747,0.07748 -9.9701,0.07748c0,0 -6,0 -6,-6c0,-6 6,-6 6,-6c2.4042,0 5.70599,0.58691 8.04792,0.07748c1.54655,-0.33642 2.9486,-1.2114 4.5045,-1.5015c3.59794,-0.67084 7.80728,-0.07748 11.4716,-0.07748c9.00901,0 18.01802,0 27.02703,0h1.5015c0,0 6,0 6,6z" fill="#b3cedd"/><path d="M445.40569,128.5648c-4.02492,-2.01246 -2.01246,-6.03738 -2.01246,-6.03738l3.6019,-4.25662c0.75245,-0.25082 6.26349,-2.10446 6.7022,-2.17282c0.66494,-0.10362 1.36597,0.5135 1.99874,0.28444c0.49603,-0.17956 0.46891,-0.9789 0.86912,-1.32258c2.55975,-2.19816 5.55367,-4.37345 8.3568,-6.26418c0,0 3.74423,-2.49615 6.24038,1.24808c2.49615,3.74423 -1.24808,6.24038 -1.24808,6.24038c-2.67594,1.75732 -5.09756,3.79368 -7.6432,5.73582c-1.09175,0.83292 -1.86269,2.15076 -3.13088,2.67742c-1.23487,0.51282 -2.68448,0.05206 -4.00126,0.28444c-1.83958,0.32464 -3.52564,1.23646 -5.2978,1.82718l1.6019,-0.25661c0,0 -2.01246,4.02492 -6.03738,2.01246z" fill="#6c6c6c"/><path d="M475.41815,134.03988c4.5,0 4.5,4.5 4.5,4.5l-0.23093,3.42302c-0.8793,1.74252 -1.06511,4.07173 -2.63788,5.22756c-1.97596,1.45214 -5.03467,-0.21406 -7.32717,0.65632c-0.86406,0.32805 -1.37794,1.2714 -2.20906,1.67569c-2.00905,0.97728 -4.16266,1.62413 -6.24399,2.43621c-1.28366,0.02706 -2.5687,0.14654 -3.85098,0.0812c-0.44044,-0.02245 -0.88412,-0.54106 -1.27792,-0.34254c-0.64047,0.32287 -0.74479,1.29561 -1.35629,1.67047c-1.27813,0.78351 -3.04873,0.93487 -3.96625,2.12048c-0.7858,1.01541 -5.55239,7.58548 -6.27618,8.01913c-1.99329,1.19425 -4.75007,0.08203 -6.90621,0.94836c-1.66049,0.66718 -1.55813,3.23698 -2.56655,4.71529c-0.66679,0.97747 -1.63562,1.71043 -2.46861,2.55078c-2.41651,2.43785 -4.49469,4.8927 -7.87795,6.12493c-0.90531,0.32973 -1.91571,0.35683 -2.88914,0.24108c0.29063,1.40388 -1.10118,3.73411 -1.14582,3.87503c0,0 -1.42302,4.26907 -5.6921,2.84605c-4.26907,-1.42302 -2.84605,-5.6921 -2.84605,-5.6921c0.83409,-2.31698 0.00164,-5.35076 1.61849,-7.20817c1.43619,-1.64987 3.84679,-2.14294 5.92977,-2.8107c0.76833,-0.24631 1.63753,0.34414 2.4168,0.13498c1.82137,-0.48886 2.78041,-2.54978 4.12204,-3.87507c2.78156,-2.74766 3.19484,-6.73099 6.96483,-8.73392c1.72958,-0.91889 3.72998,-1.26318 5.66732,-1.55038c0.49827,-0.07387 0.99525,0.7591 1.42647,0.49875c0.48294,-0.29157 0.15166,-1.15264 0.44984,-1.63154c0.95911,-1.54044 2.08092,-2.98206 3.27398,-4.34934c0.91667,-1.05053 1.861,-2.12547 3.03375,-2.87952c0.88664,-0.57008 2.09213,-0.46439 3,-1c1.01162,-0.5968 1.53958,-1.92899 2.64371,-2.32953c1.49752,-0.54325 4.9345,-0.33452 6.8711,-0.26135c2.6125,-1.0877 4.84473,-3.04776 7.54696,-3.88811c1.27006,-0.39497 2.6595,-0.39529 3.98756,-0.23451l-0.18354,-0.45858c0,0 0,-4.5 4.5,-4.5z" fill="#6c6c6c"/><path d="M478.44308,171.52742c2.01246,4.02492 -2.01246,6.03738 -2.01246,6.03738l-0.26824,-0.52877c-1.00425,1.36001 -1.65446,3.07346 -3.01276,4.08003c-1.43192,1.06113 -3.27211,1.47351 -5.01065,1.86571c-0.65647,0.1481 -1.37677,-0.54138 -1.99874,-0.28444c-0.66291,0.27386 -0.74479,1.29561 -1.35629,1.67047c-0.89868,0.5509 -2.09213,0.46439 -3,1c-1.01162,0.5968 -1.53958,1.92899 -2.64371,2.32953c-1.48356,0.53818 -3.14522,0.27848 -4.72208,0.34254c-0.61065,0.02481 -1.25214,0.1426 -1.85066,0.0507c0.67616,1.77453 -0.94879,2.56317 -2.4051,4.94545c0,0 -2.49616,3.74423 -6.24038,1.24808c-3.74422,-2.49615 -1.24807,-6.24037 -1.24807,-6.24037c0.47911,-0.60262 1.18866,-1.07927 1.43731,-1.80788c0.47118,-1.38071 -0.33299,-3.25497 0.65633,-4.32717c2.61921,-2.83864 6.25562,-3.06198 9.65059,-2.8688c0.4403,0.02506 0.88412,0.54106 1.27792,0.34254c0.64047,-0.32287 0.74479,-1.29561 1.35629,-1.67047c0.89868,-0.5509 2.09213,-0.46439 3,-1c1.01162,-0.5968 1.5507,-1.89956 2.64371,-2.32953c1.5535,-0.61111 3.83314,0.78423 4.99061,-0.41872c0.49896,-0.51857 0.65817,-1.27998 0.98725,-1.91997l3.73176,-2.52878c0,0 4.02492,-2.01245 6.03738,2.01247z" fill="#6c6c6c"/><path d="M471.91815,327.53988c0,3.45018 -2.64529,4.25509 -3.87953,4.44287c-1.44583,1.01526 -3.0621,1.8139 -4.64338,2.59955c-3.19403,1.58693 -5.79439,4.40251 -9,6c-2.53559,1.2636 -6.23715,1.3152 -8.61129,2.78551c-3.17306,1.96509 -5.87518,5.33085 -9.27731,7.15807c-1.35198,0.72613 -2.85922,1.17354 -4.36766,1.45589c-1.21925,0.22822 -2.50299,0.29374 -3.72082,0.0581c-0.30305,-0.05864 -0.30863,-1.15216 -0.3688,-0.84941c-0.11218,0.56444 0.47037,1.20893 0.19673,1.7152c-0.61246,1.13313 -1.76396,1.87746 -2.64595,2.81619c0,0 -3.18198,3.18198 -6.36396,0c-3.18198,-3.18198 0,-6.36396 0,-6.36396c1.63626,-1.43053 1.7334,-4.27661 3.55079,-5.46861c3.26268,-2.13994 6.61104,0.51436 9.54271,-1.33542c3.02038,-1.90575 5.70697,-5.06482 8.72269,-6.84193c2.84289,-1.67526 6.47381,-1.75011 9.38871,-3.21449c3.18912,-1.60214 5.79868,-4.38966 9,-6c1.29733,-0.65258 2.83925,-1.04626 3.7951,-2.13956l4.18198,-1.31802c0,0 4.5,0 4.5,4.5z" fill="#6c6c6c"/><path d="M465.99513,355.80896c-4.26907,-1.42302 -2.84605,-5.6921 -2.84605,-5.6921l1.44115,-3.94277c1.20236,-1.27972 4.60417,-5.09999 6.10585,-5.79167c1.11579,-0.51394 2.96722,0.06218 3.5401,-1.02452c0,0 3.18198,-3.18198 6.36396,0c3.18198,3.18198 0,6.36396 0,6.36396c-1.1533,0.99183 -2.07829,2.3391 -3.4599,2.97548c-0.90828,0.41836 -2.03942,-0.278 -3,0c-0.93157,0.2696 -1.16404,1.57002 -1.89415,2.20833l-0.55885,2.05723c0,0 -1.42302,4.26908 -5.6921,2.84605z" fill="#6c6c6c"/><path d="M189.91815,209.53988c0,4.5 -4.5,4.5 -4.5,4.5l0.42302,-0.23093c-1.99724,0.63147 -3.6772,2.02113 -5.60253,2.84624c-3.77318,1.617 -6.02748,1.34 -8.96754,4.36473c-3.73418,2.0525 -4.34562,7.04005 -8,10c-2.16014,1.74965 -4.92884,2.59892 -7.22175,4.17055c-3.67762,2.52076 -5.15336,7.43443 -9,10c-2.41692,1.61199 -5.39463,2.81866 -8.20817,3.61849c-0.55123,0.1567 -1.26091,-0.07099 -1.69155,0.30711c-0.65078,0.57137 -0.7228,1.59082 -1.25143,2.27677c-3.13943,4.07371 -7.26991,6.76389 -12.05701,8.41612c0,0 -4.26907,1.42302 -5.6921,-2.84605c-1.42302,-4.26907 2.84605,-5.6921 2.84605,-5.6921c3.30567,-1.04517 5.72386,-2.8942 7.94299,-5.58388c0.98174,-1.1899 1.52482,-2.78402 2.74857,-3.72323c2.78853,-2.14014 7.11485,-2.08558 10.10028,-4.07441c3.76583,-2.50872 5.28731,-7.27278 9,-10c2.70234,-1.98505 5.96972,-2.48808 8.15116,-5.20236c1.36913,-1.70355 1.54063,-4.17025 2.90386,-5.87852c0.96221,-1.20575 2.48215,-1.83238 3.72323,-2.74857c2.0737,-2.02591 4.59375,-3.6795 7.29169,-4.74044c1.19316,-0.4692 2.56234,-0.38977 3.74077,-0.89483c2.18528,-0.9366 4.15003,-2.37808 6.39747,-3.15376l2.42302,-0.23093c0,0 4.5,0 4.5,4.5z" fill="#6c6c6c"/><path d="M221.43061,190.51496c4.02492,2.01246 2.01246,6.03738 2.01246,6.03738l-0.75585,1.41056c-1.3406,3.72399 -0.44483,6.94912 -2.35318,10.79412c-0.20785,0.41877 -4.69733,5.03659 -5.2847,5.43345c-1.11558,0.75373 -2.6179,0.86214 -3.65308,1.72296c-0.85441,0.7105 -1.01125,2.0218 -1.79613,2.80843c-0.82425,0.82609 -2.16663,1.03663 -2.9252,1.9234c-1.79135,2.09408 -3.00613,4.63592 -4.77674,6.74757c-1.02654,1.22426 -1.5793,2.90871 -2.88782,3.82542c-1.12562,0.78858 -2.83244,0.27496 -4,1c-0.69165,0.42951 -0.60306,1.53924 -1.11218,2.17458c-2.15592,2.69041 -4.86021,4.89118 -7.29806,7.32903c0,0 -3.18198,3.18198 -6.36396,0c-3.18198,-3.18198 0,-6.36396 0,-6.36396c2.22882,-2.22882 4.64608,-4.28167 6.70194,-6.67097c1.04206,-1.21108 1.5793,-2.90871 2.88782,-3.82542c1.12562,-0.78858 2.83244,-0.27496 4,-1c0.69165,-0.42951 0.62603,-1.5215 1.11218,-2.17458c1.77893,-2.38977 3.28245,-4.99216 5.22326,-7.25243c0.80571,-0.93833 2.19939,-1.20293 3.0748,-2.0766c0.91509,-0.91327 1.21139,-2.36305 2.20387,-3.19157c1.57563,-1.31534 5.87222,-2.50769 7.06221,-4.84359c0.84616,-1.66097 0.18125,-3.82293 0.47401,-5.50368c0.22214,-1.27531 0.78188,-2.46814 1.17282,-3.7022l1.24415,-2.58944c0,0 2.01246,-4.02492 6.03738,-2.01246z" fill="#6c6c6c"/><path d="M297.91943,215.35094c-0.71739,-0.92855 -2.21551,-3.46079 0.31674,-5.99304c3.18198,-3.18198 6.36396,0 6.36396,0l2.31802,4.18198c-0.01124,0.81673 0.00731,1.6344 -0.03372,2.45018c-0.02513,0.49982 -0.5188,1.13883 -0.16453,1.4923c0.39534,0.39445 1.16247,-0.20594 1.67533,0.0151c1.1037,0.4757 1.92503,1.46252 3,2c3.15803,1.57902 6.01938,2.95543 9,5c1.12957,0.40483 2.36342,0.59111 3.38871,1.21449c0.61286,0.37262 0.69338,1.39661 1.35629,1.67047c0.62197,0.25695 1.33887,-0.41649 1.99874,-0.28444c1.60726,0.32164 3.20503,0.83083 4.64497,1.61396c0.82824,0.45045 1.20741,1.48943 2,2c1.87135,1.20549 4.40804,0.83723 6.4547,1.71261c0.94155,0.40271 1.51443,1.47746 2.48354,1.8084c0.76356,0.26075 1.62258,-0.27722 2.41679,-0.13498c2.71788,0.48676 6.23855,2.24452 8.53785,3.5498c3.14656,1.78626 6.79399,4.12648 9.59428,6.41206c0.51008,0.41633 0.65819,1.27023 1.27041,1.5125c1.4473,0.57274 3.14009,0.26681 4.59871,0.81008c1.99633,0.74353 3.66976,2.24617 5.70095,2.88838c0,0 4.26907,1.42302 2.84605,5.6921c-1.42302,4.26907 -5.6921,2.84605 -5.6921,2.84605c-2.21375,-0.76406 -4.10804,-2.2846 -6.29905,-3.11162c-1.72482,-0.65105 -3.7215,-0.43019 -5.40129,-1.18992c-1.12162,-0.50728 -1.76179,-1.72675 -2.72959,-2.4875c-2.53867,-1.99554 -5.60827,-3.97632 -8.40572,-5.58794c-0.52248,-0.301 -4.20641,-2.25886 -5.46215,-2.4502c-1.18161,-0.18005 -2.44739,0.23723 -3.58321,-0.13498c-1.31249,-0.43011 -2.24737,-1.6466 -3.51646,-2.1916c-2.41487,-1.03704 -5.26385,-0.98276 -7.5453,-2.28739c-0.81844,-0.46802 -1.23168,-1.45358 -2,-2c-1.46635,-1.04284 -3.68182,-0.01178 -5.35629,-0.67047c-1.09301,-0.42996 -1.63335,-1.73061 -2.64371,-2.32953c-0.78191,-0.4635 -1.74086,-0.52367 -2.61129,-0.78551c-3.98779,-2.6043 -7.86647,-4.7512 -12,-7c-1.39329,-0.758 -3.36165,-0.72457 -4.32467,-1.9849c-2.06826,-2.70679 -2.19503,-5.37624 -2.19697,-8.24646z" fill="#6c6c6c"/><path d="M277.41814,182.03988c4.5,0 4.5,4.5 4.5,4.5v1c-0.13015,5.10489 2.64399,9.92987 3.84925,14.84499c0.35771,1.45878 0.32712,3.01006 0.80821,4.43293c0.68364,2.02193 3.18141,3.02884 4,5c0.51282,1.23487 0.04316,2.68609 0.28444,4.00126c1.12556,6.13524 2.27378,13.38528 8.05426,16.97659c0,0 3.74423,2.49615 1.24808,6.24038c-2.49615,3.74423 -6.24038,1.24808 -6.24038,1.24808c-5.6031,-3.89506 -9.68272,-10.13889 -10.94574,-17.02341c-0.18045,-0.98358 0.1644,-2.01361 0,-3c-0.17329,-1.03975 -0.85063,-1.95654 -1,-3c-0.09536,-0.66617 0.5135,-1.36597 0.28444,-1.99874c-0.17956,-0.49603 -0.99304,-0.45719 -1.32258,-0.86913c-1.02506,-1.28132 -2.06936,-2.60681 -2.67742,-4.13087c-0.70324,-1.76263 -0.72384,-3.72793 -1.19179,-5.56707c-1.47951,-5.81474 -4.05588,-11.08008 -4.15075,-17.15501v-1c0,0 0,-4.5 4.5,-4.5z" fill="#6c6c6c"/><path d="M303.91864,94.51013c0.00975,-0.38936 0.21418,-4.47025 4.49951,-4.47025c4.5,0 4.5,4.5 4.5,4.5l-0.47508,3.01246c-1.47678,2.9044 -2.53711,5.01089 -2.58303,8.26672c3.2067,8.98774 3.05811,17.32596 3.05811,26.72082c0,4.20333 -0.43851,7.45051 -1.03372,11.54982c-0.16693,1.14966 0.22918,2.36611 -0.08666,3.48406c-1.28867,4.56134 -5.21552,8.98772 -5.93773,13.68693c-0.62975,4.09763 0.05811,9.16388 0.05811,13.27918c0,0 0,4.5 -4.5,4.5c-4.5,0 -4.5,-4.5 -4.5,-4.5c0,-4.59727 -0.73606,-10.15288 0.05811,-14.72082c0.89952,-5.17388 4.63707,-9.40185 6.06227,-14.31307c0.23387,-0.8059 -0.20315,-1.68492 -0.08666,-2.51594c0.55449,-3.95588 0.96628,-6.39645 0.96628,-10.45018c0,-4.5768 0.70036,-9.89986 0.03372,-14.45018c-0.5293,-3.61281 -1.87521,-7.35777 -2.97561,-10.829c-0.02858,-5.00359 0.89804,-8.41765 2.94238,-12.75057z" fill="#6c6c6c"/><path d="M233.89267,153.91778c-0.11747,1.08325 -0.77657,4.1221 -4.47452,4.1221c-4.5,0 -4.5,-4.5 -4.5,-4.5l0.75577,-3.49615c0.56727,-0.82698 1.13454,-1.65395 1.70181,-2.48093c1.46322,-4.6279 4.07722,-9.7301 4.57613,-14.57274c0.58809,-5.70822 0.17694,-9.48243 3.98624,-14.30313c3.56911,-4.51673 9.25308,-7.26772 13.29806,-11.32903c1.99597,-2.00403 3.96797,-4.03255 6,-6c0.39164,-0.37919 1.04325,-0.53766 1.26608,-1.03516c0.46541,-1.03908 0.30263,-2.27546 0.69542,-3.34411c0.85897,-2.337 2.17346,-4.49656 2.95141,-6.86177c0,0 1.17464,-3.52391 4.59112,-3.10127c-0.06142,-1.73586 -0.14316,-3.47297 -0.25188,-5.21253c-0.32742,-5.23865 -1.52797,-12.65547 -0.49298,-18.0931c0.23976,-1.25966 1.02761,-2.36247 1.33826,-3.60655c0.72851,-2.91754 0.97047,-5.94721 1.7711,-8.84579c1.32326,-4.79064 4.0721,-8.4198 6.27103,-12.69482c0.47428,-0.92207 1.66974,-6.10739 1.72188,-6.28106c1.52801,-5.09004 3.37003,-10.12057 5.05147,-15.16488c0,0 1.42302,-4.26907 5.6921,-2.84605c4.26907,1.42302 2.84605,5.6921 2.84605,5.6921c-1.64488,4.93464 -3.45557,9.85518 -4.94853,14.83512c-0.78168,2.60738 -1.06474,5.24134 -2.27812,7.71894c-1.16043,2.36949 -2.86263,4.45679 -3.93734,6.86637c-1.86169,4.17404 -2.44079,8.80988 -3.55062,13.24347c-0.24018,0.95949 -0.9241,1.77593 -1.13165,2.743c-0.92989,4.33269 0.38623,11.97423 0.62983,15.87185c0.50196,8.03142 0.44868,16.00448 0.44047,24.04938c0.67071,6.03611 0.99934,12.11883 1.0042,18.19209c0.00314,3.9259 0.51222,7.89293 -0.05542,11.77758c-0.69148,4.7322 -3.93786,8.13954 -5.12135,12.53732c-0.65172,2.42176 -1.44864,4.81678 -1.85426,7.29168c-0.22487,1.37205 0.19548,2.79814 -0.02439,4.171c-0.44118,2.75473 -2.30402,5.09267 -3.18546,7.73959c-0.50356,1.51217 -0.52123,3.14822 -0.90718,4.69459c-0.71046,2.84655 -2.42313,5.68404 -2.90735,8.56581c-0.4862,2.89354 0.46061,6.07431 0,9c-0.278,1.76577 -0.98745,3.49225 -0.94189,5.27918c0,2.25316 0.06786,9.38311 -0.34254,10.72208c-0.81569,2.66128 -4.93327,5.0933 -6.24156,7.49507c-0.775,1.42276 -0.3357,5.53549 -0.47401,6.50368c-0.25278,1.76955 -0.98745,3.49225 -0.94189,5.27918v3c0,0 0,4.5 -4.5,4.5c-4.5,0 -4.5,-4.5 -4.5,-4.5v-3c0.03541,-2.26759 0.73737,-4.47575 1.05811,-6.72082c0.45342,-3.17383 0.13843,-6.6061 1.52599,-9.49632c0.51777,-1.07848 1.69594,-1.69573 2.43586,-2.63581c0.74333,-0.94441 1.21701,-2.08821 2,-3c0.34368,-0.40021 1.20126,-0.35574 1.32258,-0.86913c0.55856,-2.36356 -0.34254,-4.84926 -0.34254,-7.27792c0.03541,-2.26759 0.65977,-4.48821 1.05811,-6.72082c0.51412,-2.88155 -0.4836,-6.08367 0,-9c0.53486,-3.22545 2.29972,-6.26769 3.09265,-9.43419c0.4386,-1.75152 0.52139,-3.59262 1.09282,-5.30541c0.72409,-2.17039 2.54507,-3.98833 2.81454,-6.26041c0.49919,-4.20901 0.99554,-8.45107 2.12135,-12.53732c1.11901,-4.06154 4.29656,-7.24227 4.87865,-11.46268c0.47058,-3.41193 -0.06097,-6.88828 -0.06079,-10.33251c0.00031,-5.9085 -0.33797,-11.82545 -0.99043,-17.69782c-0.00086,-0.9085 -0.00071,-1.81615 -0.00049,-2.72312c-0.13614,0.58772 -0.30916,1.16054 -0.59049,1.69141c-0.62947,1.18783 -1.79583,2.00194 -2.73392,2.96484c-2.7348,2.8071 -5.27852,5.83771 -8.32903,8.29806c-2.02645,1.63441 -4,3.33333 -6,5c-2.10692,1.75577 -4.57567,2.63028 -5.73764,5.34045c-1.26136,2.94199 -0.2449,4.30502 -0.64903,7.72933c-0.68735,5.82422 -3.51808,11.90552 -5.42387,17.42726c-0.52263,0.80027 -1.04527,1.60054 -1.5679,2.40082z" fill="#6c6c6c"/><path d="M322.91814,9.53988c0,2.63797 -1.54642,3.72952 -2.82619,4.18119c-0.3678,0.58009 -0.75018,1.14912 -1.19377,1.67176c-0.34136,0.40219 -1.15012,0.37058 -1.32258,0.86913c-0.2531,0.73161 0.43312,1.56696 0.22216,2.31181c-0.45561,1.60868 -1.57626,2.96031 -2.15914,4.52737c-1.33445,3.58763 -0.36349,4.25623 -2.39255,7.80453c-0.46802,0.81844 -1.48389,1.211 -2,2c-1.2679,1.93827 -0.8504,4.55993 -1.47868,6.78922c-0.66235,2.35017 -1.2879,4.7413 -2.36324,6.93347c-0.734,1.49633 -2.17196,2.55358 -3,4c-1.09026,1.90445 -1.95726,3.92831 -2.94359,5.8886c-2.95214,5.8673 -5.96062,11.83035 -11.54627,15.76714c0,0 -3.74423,2.49615 -6.24038,-1.24808c-2.49615,-3.74423 1.24808,-6.24038 1.24808,-6.24038c2.84034,-1.70732 4.09755,-5.21935 5.91997,-7.98725c0.43869,-0.66628 1.33944,-0.9493 1.74825,-1.63432c1.5566,-2.60826 2.32482,-6.06301 3.84192,-8.72269c0.82579,-1.44771 2.24112,-2.51613 3,-4c2.30265,-4.50251 1.65906,-9.86963 4.15808,-14.27731c0.465,-0.82016 1.48943,-1.20741 2,-2c1.15541,-1.7936 0.85269,-4.1999 1.60745,-6.19547c0.46347,-1.22541 1.47817,-2.21371 1.84086,-3.47263c0.34096,-1.18349 -0.25978,-2.55477 0.22216,-3.68819c0.94795,-2.22933 3.08346,-3.74918 4.41323,-5.77408l4.74423,-2.00385c0,0 4.5,0 4.5,4.5z" fill="#6c6c6c"/><path d="M215.40569,127.5648c-4.02492,-2.01246 -2.01246,-6.03738 -2.01246,-6.03738l0.65928,-1.07895c0.90913,-3.49599 0.86737,-6.0196 0.92375,-9.62941c0.64118,-1.92354 0.6505,-4.00276 1,-6c0.36339,-2.07663 1.67477,-3.91705 2,-6c0.40179,-2.57331 0.3226,-5.38317 1.61396,-7.64497c0.31763,-0.55631 4.91752,-5.13281 5.46214,-5.46214c1.23425,-0.74634 7.01438,-1.46136 7.91008,-3.20932c2.54634,-4.96918 3.89064,-10.46804 5.91865,-15.67032c5.44812,-13.97562 10.89625,-27.95124 16.34437,-41.92686c0,0 1.63444,-4.19269 5.82712,-2.55825c4.19269,1.63444 2.55825,5.82712 2.55825,5.82712c-5.44812,13.97562 -10.89625,27.95124 -16.34437,41.92686c-0.63455,1.62777 -6.54558,16.93354 -7.15684,17.87116c-3.24137,4.97196 -9.73364,3.36669 -12.86355,7.93333c-0.72482,1.05753 -0.24807,3.56659 -0.38604,4.35503c-0.36339,2.07663 -1.67477,3.91705 -2,6c-0.31279,2.00332 -0.35882,4.07646 -1,6c0.09679,3.79634 -0.16659,6.61704 -1.07625,10.37059l-1.34072,2.92105c0,0 -2.01246,4.02492 -6.03738,2.01246z" fill="#6c6c6c"/><path d="M200.41815,106.03988c-4.5,0 -4.5,-4.5 -4.5,-4.5l0.23093,-2.42302c1.09427,-3.25009 2.36215,-6.94095 2.82718,-10.2978c0.43441,-3.1358 0.3364,-6.36009 1.09265,-9.43419c0.46849,-1.90441 1.63944,-3.62301 1.90735,-5.56581c0.72012,-5.22199 -0.84627,-10.76934 0,-16c0.33671,-2.08112 1.58096,-3.93388 2,-6c0.90968,-4.48528 -0.02085,-9.85579 1.06227,-14.31307c0.49234,-2.0261 2.00704,-3.88494 1.87962,-5.96611c0,0 0,-4.5 4.5,-4.5c4.5,0 4.5,4.5 4.5,4.5c-0.04013,1.34463 0.22291,2.7332 -0.12038,4.03389c-0.38042,1.44136 -1.62723,2.55665 -2,4c-0.27831,1.07762 0.21124,2.22938 0.10505,3.33727c-0.19345,2.01834 -0.79674,3.98263 -1,6c-0.14535,1.44265 0.238,2.92715 -0.04277,4.34966c-0.40823,2.06828 -1.6423,3.92238 -2,6c-0.88789,5.15715 0.76093,10.79308 0,16c-0.54388,3.72171 -2.55803,6.89202 -2.96379,10.7226c-0.58267,5.50068 -1.43838,10.62259 -3.20903,15.97961l0.23093,-0.42302c0,0 0,4.5 -4.5,4.5z" fill="#6c6c6c"/><path d="M227.41815,187.03988c-3.73823,0 -4.37105,-3.10541 -4.47817,-4.1568c-1.83045,-2.9571 -3.37171,-6.13195 -3.96372,-9.62238c-0.17603,-1.03783 0.65846,-2.68715 -0.28958,-3.14464c-0.82212,-0.39673 -1.85944,-0.26571 -2.63432,-0.74825c-5.16099,-3.2139 -8.00843,-9.32469 -10.46214,-14.46214c-0.79266,-1.65962 -3.30066,-1.65463 -4.80327,-2.7152c-4.18328,-2.95263 -6.189,-8.23654 -8.39373,-12.63813c0,0 -2.01246,-4.02492 2.01246,-6.03738c4.02492,-2.01246 6.03738,2.01246 6.03738,2.01246c1.36933,2.74394 2.87257,7.68498 5.60627,9.36187c2.53697,1.55621 5.55556,2.80195 7.19673,5.2848c0.66167,1.001 0.68058,2.31411 1.21449,3.38871c1.1994,2.41404 3.87746,6.74821 6.32337,8.14915c1.03866,0.59491 2.49349,0.43198 3.36568,1.25175c4.74659,4.46128 3.44068,10.87258 7.01275,16.08003l0.75577,3.49615c0,0 0,4.5 -4.5,4.5z" fill="#6c6c6c"/><path d="M231.92121,31.01236c-4.47248,-0.49694 -3.97553,-4.96942 -3.97553,-4.96942l0.00612,-0.05505c0.45271,-4.04537 0.33984,-8.15619 1.02447,-12.16883c1.27644,-7.48133 18.18613,-14.78303 18.18613,-14.78303c-3.24026,4.86039 -8.34483,10.26978 -9.30233,16.22467c-0.62235,3.87048 -0.53329,7.82453 -0.9633,11.72108l-0.00612,0.05505c0,0 -0.49694,4.47248 -4.96942,3.97553z" fill="#6c6c6c"/><path d="M188.40569,25.5648c-4.02492,-2.01246 -2.01246,-6.03738 -2.01246,-6.03738l0.52492,0.01246c0,-6.19377 1,-11.74914 1,-18c0,0 0,-4.5 4.5,-4.5c4.5,0 4.5,4.5 4.5,4.5c0,6.24591 -1,11.872 -1,18l-1.47508,4.01246c0,0 -2.01246,4.02492 -6.03738,2.01246z" fill="#6c6c6c"/><path d="M168.84117,1.27081c0,0 4.26907,1.42302 2.84605,5.6921c-1.42302,4.26907 -5.6921,2.84605 -5.6921,2.84605c-6.52388,-2.17463 -12.4416,-5.17023 -18.58944,-8.24415l-2,-1c0,0 17.31896,-1.33285 23.43549,0.706z" fill="#6c6c6c"/><path d="M357.91815,-1.46012c0,4.5 -4.5,4.5 -4.5,4.5l1.18198,-1.31802c-3.85022,3.61747 -8.50515,4.49484 -13.16952,6.84294c0,0 -4.02492,2.01246 -6.03738,-2.01246c-2.01246,-4.02492 2.01246,-6.03738 2.01246,-6.03738c3.17491,-1.57809 20.51246,-6.47508 20.51246,-1.97508z" fill="#6c6c6c"/><path d="M17.23617,156.3579c3.18198,-3.18198 6.36396,0 6.36396,0l1,1c1.51168,1.51168 3.50798,4.45308 5.37421,5.47849c4.68952,2.57666 9.78908,4.32423 14.66857,6.52c8.20729,3.69328 16.41459,7.38656 24.62188,11.07985c0,0 4.10365,1.84664 2.25701,5.95029c-1.84664,4.10365 -5.95029,2.25701 -5.95029,2.25701c-8.20729,-3.69328 -16.41459,-7.38656 -24.62188,-11.07985c-0.67616,-0.30427 -15.28302,-6.8494 -16.08767,-7.32031c-2.32745,-1.3621 -4.69623,-4.59195 -6.62579,-6.52151l-1,-1c0,0 -3.18198,-3.18198 0,-6.36396z" fill="#6c6c6c"/><path d="M-2.76383,177.3579c3.18198,-3.18198 6.36396,0 6.36396,0l1,1c1.09001,1.09001 1.841,2.59701 3.18381,3.35405c0.7918,0.44639 1.80355,0.36865 2.61129,0.78551c2.02641,1.04579 3.42562,3.05418 5.38871,4.21449c0.78249,0.4625 1.79713,0.38135 2.61129,0.78551c3.06407,1.52104 5.14849,2.67419 8.44594,3.77334c0,0 4.26907,1.42302 2.84605,5.6921c-1.42302,4.26907 -5.6921,2.84605 -5.6921,2.84605c-3.54033,-1.18011 -6.28127,-2.57995 -9.55406,-4.22666c-1.07189,-0.53932 -2.36263,-0.59241 -3.38871,-1.21449c-1.70057,-1.03101 -2.81919,-2.92337 -4.61129,-3.78551c-1.0813,-0.52019 -2.36988,-0.58061 -3.38871,-1.21449c-0.5605,-0.34872 -4.0594,-3.88916 -4.81619,-4.64595l-1,-1c0,0 -3.18198,-3.18198 0,-6.36396z" fill="#6c6c6c"/><path d="M3.39323,207.52742c2.01246,-4.02492 6.03738,-2.01246 6.03738,-2.01246l1.41056,0.75585c3.26358,1.1264 5.75482,2.97396 9,4c0,0 4.26907,1.42302 2.84605,5.6921c-1.42302,4.26907 -5.6921,2.84605 -5.6921,2.84605c-3.26358,-1.1264 -5.75482,-2.97396 -9,-4l-2.58944,-1.24415c0,0 -4.02492,-2.01246 -2.01246,-6.03738z" fill="#6c6c6c"/><path d="M33.91815,214.53988c0,-4.29602 4.10129,-4.49075 4.4731,-4.49958c1.25553,-2.04178 0.05221,-3.97635 -0.41499,-6.7796c-0.52961,-3.17766 -1.00717,-6.45943 -1.05811,-9.72082c0,0 0,-4.5 4.5,-4.5c4.5,0 4.5,4.5 4.5,4.5c-0.18471,7.24527 4.42819,14.18426 0.32793,21.36579c-0.63865,1.11859 -1.76397,1.87746 -2.64595,2.81619l-5.18198,1.31802c0,0 -4.5,0 -4.5,-4.5zM38.32714,210.14136l-1.09097,1.21654c0.47468,-0.415 0.83047,-0.81811 1.09097,-1.21654z" fill="#6c6c6c"/><path d="M-8.08185,142.53988c0,-4.5 4.5,-4.5 4.5,-4.5h2c3.24858,0.05073 5.83819,1.08061 9,1c0,0 4.5,0 4.5,4.5c0,4.5 -4.5,4.5 -4.5,4.5c-3.24858,-0.05073 -5.83819,-1.08061 -9,-1h-2c0,0 -4.5,0 -4.5,-4.5z" fill="#6c6c6c"/><path d="M3.41815,307.03988c-4.5,0 -4.5,-4.5 -4.5,-4.5v-3c0,-4.37817 -0.5608,-9.20774 0.03372,-13.54982c0.82958,-6.05889 1.79254,-12.79252 0.98818,-19.00676c-0.21818,-1.68561 -0.84965,-3.30699 -1,-5c-0.16491,-1.85694 0.39526,-3.75871 0.0593,-5.59244c-0.3235,-1.76566 -1.58912,-3.2526 -2,-5c-0.29389,-1.24986 -0.05413,-2.56732 -0.0812,-3.85098c0,0 0,-4.5 4.5,-4.5c4.5,0 4.5,4.5 4.5,4.5c-0.09316,2.46559 1.48048,4.72091 1.9188,7.14902c0.37945,2.10197 -0.1382,4.28077 0.0593,6.40756c0.15715,1.69239 0.79578,3.31264 1,5c0.82775,6.83929 -0.013,14.3259 -1.01182,20.99324c-0.59075,3.9434 0.03372,8.4619 0.03372,12.45018v3c0,0 0,4.5 -4.5,4.5z" fill="#6c6c6c"/><path d="M54.91815,349.53988c0,4.5 -4.5,4.5 -4.5,4.5l-3.42302,-0.23093c-1.68168,-0.60539 -3.53479,-0.53335 -5.2978,-0.82718c-1.03975,-0.17329 -1.96229,-0.81486 -3,-1c-1.73247,-0.3091 -3.51935,0.05811 -5.27918,0.05811c-2.91411,0 -6.41406,-0.48788 -9.27918,-0.05811c-1.04243,0.15637 -1.95567,0.85688 -3,1c-2.36821,0.32455 -4.80703,-0.32975 -7.171,0.02439c-2.51206,0.37632 -5.00985,1.00959 -7.54982,1.03372c0,0 -4.5,0 -4.5,-4.5c0,-4.5 4.5,-4.5 4.5,-4.5c2.17384,0.02991 4.29622,-0.67137 6.45018,-0.96628c2.25531,-0.30879 4.57784,0.36207 6.829,0.02439c1.04243,-0.15637 1.95567,-0.85688 3,-1c8.56214,-1.17341 19.05642,-0.38919 27.14385,2.17282l0.57698,-0.23093c0,0 4.5,0 4.5,4.5z" fill="#6c6c6c"/></g></g></svg>