<svg version="1.1" xmlns="http://www.w3.org/2000/svg" xmlns:xlink="http://www.w3.org/1999/xlink" width="512.76805" height="435.38295" viewBox="0,0,512.76805,435.38295"><defs><linearGradient x1="243.77203" y1="-62.29207" x2="243.77203" y2="361.70795" gradientUnits="userSpaceOnUse" id="color-1"><stop offset="0" stop-color="#a60020"/><stop offset="1" stop-color="#ffeb00"/></linearGradient><radialGradient cx="240" cy="72.00001" r="64.5" gradientUnits="userSpaceOnUse" id="color-2"><stop offset="0" stop-color="#ffffff"/><stop offset="1" stop-color="#f6ff6d"/></radialGradient><linearGradient x1="231.5" y1="235.50003" x2="231.5" y2="360.50003" gradientUnits="userSpaceOnUse" id="color-3"><stop offset="0" stop-color="#000000" stop-opacity="0"/><stop offset="1" stop-color="#000000"/></linearGradient><linearGradient x1="239.392" y1="146.50003" x2="239.392" y2="360.50003" gradientUnits="userSpaceOnUse" id="color-4"><stop offset="0" stop-color="#000000" stop-opacity="0"/><stop offset="1" stop-color="#000000"/></linearGradient></defs><g transform="translate(11.57193,62.29206)"><g data-paper-data="{&quot;isPaintingLayer&quot;:true}" fill-rule="nonzero" stroke="none" stroke-linecap="butt" stroke-linejoin="miter" stroke-miterlimit="10" stroke-dasharray="" stroke-dashoffset="0" style="mix-blend-mode: normal"><g><path d="M-3.97798,361.70795v-424h495.5v424z" fill="url(#color-1)" stroke-width="0"/><path d="M175.5,72.00001c0,-35.62237 28.87763,-64.5 64.5,-64.5c35.62237,0 64.5,28.87763 64.5,64.5c0,35.62237 -28.87763,64.5 -64.5,64.5c-35.62237,0 -64.5,-28.87763 -64.5,-64.5z" fill="url(#color-2)" stroke-width="0"/><path d="M30.07926,338.63388c-0.35443,-0.35929 -0.70949,-0.75221 -1.06454,-1.18101c-8.48528,-10.24783 0,-20.49567 0,-20.49567c3.93079,-4.56949 6.29477,-9.39364 10.62286,-13.98559c0.662,-0.70236 1.83548,-0.61598 2.33782,-1.49032c0.86696,-1.509 0.73411,-3.61883 1.50651,-5.20098c1.8785,-3.84783 5.43313,-6.96658 7.55963,-10.60263c1.12133,-1.91734 1.80015,-4.19187 3,-6.03859c2.12858,-3.27616 5.2922,-5.35519 7.74102,-8.28693c0.6544,-0.78346 0.80682,-2.04024 1.43734,-2.85177c2.18964,-2.81824 4.42631,-5.62818 6.97133,-7.97088c0.83835,-0.7717 2.03963,-0.68295 3,-1.20772c1.81461,-0.99155 4.25082,-6.79005 6.02867,-8.93719c3.06439,-5.85215 6.32557,-11.64133 10,-16.90806c2.41557,-3.46234 5.6137,-6.18889 8,-9.66175c3.62613,-5.27722 6.33704,-11.65424 10,-16.90806c1.115,-1.59926 2.3183,-3.13227 3.67224,-4.43503c0.34405,-0.33105 1.0635,0.1167 1.28946,-0.33912c0.7275,-1.46757 0.59614,-3.40114 1.30032,-4.88521c0.67339,-1.41917 1.89882,-2.34168 2.73799,-3.62554c3.73467,-5.71371 7.9064,-10.87348 10.0723,-17.75456c1.25463,-1.70003 3.13929,-2.80467 4,-4.83088c0.65612,-1.54458 0.78602,-3.43323 1.67133,-4.80086c0.74023,-1.14351 2.18508,-1.34857 3,-2.41544c0.23004,-0.30116 -0.39862,-0.8293 -0.2433,-1.19358c0.97374,-2.28381 2.22379,-4.38864 3.49968,-6.44396c1.28032,-2.06246 2.57963,-4.11453 4,-6.03859c0.49992,-0.6772 1.46586,-0.78718 1.83771,-1.57549c0.37269,-0.79011 -0.09619,-1.87637 0.18778,-2.71854c0.96856,-2.87244 2.16104,-5.64484 3.51971,-8.2767c0.49881,-0.96623 1.47702,-1.46803 2,-2.41544c0.8269,-1.49799 1.14278,-3.35796 2,-4.83088c2.83807,-4.87651 7.34597,-8.21767 10.4548,-12.79137c3.06169,-4.50436 4.4524,-8.60785 7.79482,-13.13686c1.57326,1.20868 -0.85306,-0.5007 1.9488,-4.58769c1.34884,-1.96752 3.30661,-3.18692 4.92861,-4.82626c1.48059,-1.49642 2.29843,-3.75103 3.54242,-5.53415c2.02898,-2.90832 3.82241,-5.18326 5.78534,-8.1466c3.05863,-4.61746 6.30576,-8.92305 9.79482,-13.13686c1.54737,-1.86878 3.44665,-3.34984 4.75038,-5.47247c1.42633,-2.32225 2.20901,-5.22595 3.87249,-7.3054c0.55908,-0.69889 1.81176,0.18442 2.37714,-0.50704c0.74066,-0.90582 0.22677,-2.75795 1,-3.62316c1.43013,-1.60024 3.50474,-2.07663 5.17651,-3.28805c1.84273,-1.3353 2.95473,-3.88453 4.82349,-5.16598c0.82883,-1.76299 2.34393,-2.93278 3.27747,-4.6177c0.43254,-0.78069 0.19257,-1.91448 0.57846,-2.73006c0.96672,-2.04318 2.39011,-3.72748 3.42154,-5.72398c1.32951,-2.57348 2.42095,-5.40791 4.10927,-7.64119l1.24915,-3.01726c1.92413,-4.90207 6.05895,-8.29215 10.84939,-8.29215c5.34065,0 9.86643,4.21355 11.42254,10.03825c1.04384,1.24128 1.99059,2.58317 2.78527,4.08147c2.01019,3.79001 3.06978,8.22702 5,12.07719c1.77993,3.55038 4.38208,6.43255 6.16026,9.98421c0.96083,1.91912 1.19145,4.27451 2.0931,6.23506c0.86575,1.88248 2.37284,3.27779 3.16818,5.20505c2.66702,6.46272 1.55766,8.05482 4.47867,13.4079c1.22414,2.24338 3.0529,3.97665 4.14427,6.31784c2.84916,6.11201 3.9882,13.20969 6.60383,19.47211c1.34177,3.2125 3.37407,5.94877 4.77812,9.1222c1.90059,4.29569 3.1002,9.05759 5.32393,13.12072c1.24265,2.27053 2.89816,4.23756 3.87707,6.68908c2.00523,5.02179 2.66338,11.67186 4.43257,16.94402c1.38519,5.08901 2.12124,10.40419 3.28833,15.57236c0.45543,2.01677 1.45645,3.80913 1.94637,5.81408c0.97442,3.98774 1.00999,8.25976 2.03648,12.2284c3.84742,14.87497 9.78564,28.72443 14.54755,43.11792c3.43533,10.38374 5.85904,21.26236 9.09714,31.69287c1.49242,4.80735 4.15398,8.28953 5.90286,12.99273c1.00101,2.69197 1.53225,5.68172 2.88762,8.13708c0.87184,3.74256 1.15608,7.77353 2.65518,11.21411c0.84657,1.94296 2.39745,3.36199 3.2059,5.32848c0.70167,1.70676 0.61649,3.76879 1.2513,5.51331c1.63527,4.49386 4.4675,8.36891 5.59243,13.08584c0.3031,1.27093 -0.45493,2.6764 -0.19388,3.96087c0.14055,0.69155 1.02674,0.82123 1.29468,1.45553c2.2063,5.22301 0.86718,42.08128 -1.40086,45.88791c-7.16537,12.02621 -216.19284,3.29192 -223.71532,3.93515c-8.80039,0.75251 -17.82715,0.02218 -26.6636,0.02218c-7.46398,0 -15.52595,0.94314 -22.92219,-0.18714c-5.61081,-0.85743 -11.4531,-3.73064 -17,-4.83088c-3.04005,-0.603 -6.16279,-0.63441 -9.15783,-1.50609c-3.59787,-1.04713 -7.24596,-3.77583 -10.84217,-4.5325c-9.45779,-1.98999 -13.80645,1.14024 -17.49855,-13.74611z" fill="#636363" stroke-width="0.5"/><path d="M164.55131,246.70708c-2.84605,-1.03215 -1.89737,-4.1286 -1.89737,-4.1286l1,-3.26394c1.03071,-3.33927 1.47106,-5.32409 3.41232,-8.49218c0.40109,-0.65457 1.40245,-0.78233 1.66209,-1.51656c0.30468,-0.86159 -0.37925,-1.87654 -0.14811,-2.76479c0.40608,-1.56053 1.59087,-2.79234 2,-4.35192c0.29418,-1.12141 0.03954,-2.33198 0.05931,-3.49798c3.18087,-5.14226 3.7605,-10.5049 5.82237,-16.28517c2.04496,-5.73286 4.53486,-11.49325 6.16244,-17.38836c0.51177,-1.85364 0.41727,-3.88958 1.07746,-5.68682c0.75441,-2.05373 2.20563,-3.72682 3.1084,-5.70843c1.74319,-3.82633 2.26777,-8.22245 4.03242,-12.03712c0.72186,-1.56046 2.26101,-2.57562 2.91862,-4.16935c0.76252,-1.84799 0.30932,-4.17324 1.24605,-5.92385c0.68732,-1.2845 2.43249,-1.48361 3.32148,-2.61217c1.15566,-1.46711 1.69865,-3.39955 2.68164,-5.00875c0.84153,-1.37762 2.09675,-2.45616 2.78073,-3.93343c1.66275,-3.59123 -0.19644,-4.69356 2.32469,-8.19431c0.942,-1.30803 2.48001,-1.94036 3.72002,-2.91053c0,0 2.49615,-1.81051 4.16025,0.90526c1.6641,2.71577 -0.83205,4.52628 -0.83205,4.52628c-4.00967,2.53489 -1.82381,3.81251 -3.95529,8.47882c-0.80694,1.76659 -2.21168,3.13034 -3.21927,4.77042c-1.17344,1.91004 -1.94401,4.12683 -3.31836,5.87106c-0.67678,0.85892 -2.17201,0.75171 -2.67852,1.73975c-0.74967,1.46239 -0.13449,3.42312 -0.75395,4.95596c-0.6954,1.72076 -2.29964,2.85818 -3.08138,4.5345c-1.75463,3.76251 -2.24894,8.11635 -3.96758,11.89847c-0.82191,1.80874 -2.20227,3.29823 -2.8916,5.17138c-0.60232,1.63672 -0.45745,3.50413 -0.92254,5.19299c-1.67034,6.06541 -4.20986,12.00167 -6.32186,17.89479c-1.98356,5.53473 -2.43401,11.08696 -5.69333,15.88651c0.01977,1.00997 0.31465,2.05866 0.05931,3.02991c-0.40995,1.55933 -1.58745,2.7934 -2,4.35192c-0.31936,1.20648 0.28957,2.60139 -0.14811,3.7631c-0.44263,1.17483 -1.69056,1.77891 -2.33791,2.83537c-1.35054,2.20405 -1.84749,4.30285 -2.58768,6.73956l-1,3.26394c0,0 -0.94868,3.09645 -3.79473,2.0643z" fill="#333333" stroke-width="0.5"/><path d="M209.15836,286.7853c-2.68328,-1.45968 -1.34164,-4.37904 -1.34164,-4.37904l0.68328,-0.71628c0.05421,-5.29924 2.02712,-9.72221 3.07309,-14.85982c0.73332,-3.60193 1.51673,-7.19402 2.12838,-10.82274c0.76257,-4.52404 0.51913,-8.61725 1.83727,-12.9196c-0.0187,-3.21634 0.64331,-6.39464 0.97586,-9.59063c0.5232,-5.02822 -0.63229,-10.29096 0.00788,-15.30891c1.19465,-9.36421 2.00862,-18.69654 2.98774,-28.15792c1.08409,-10.47566 -0.01022,-21.81236 -0.01022,-32.37022c0,0 0,-3.26394 3,-3.26394c3,0 3,3.26394 3,3.26394c0,10.75811 1.05734,22.22566 -0.01022,32.90865c-0.95431,9.54971 -1.73363,18.97696 -3.01226,28.4171c-0.66777,4.93013 0.50599,10.18946 0.00788,15.15456c-0.33426,3.33187 -1.00637,6.64144 -1.02414,9.99303c-1.33422,4.35483 -1.09234,8.43135 -1.85979,13.06073c-0.6155,3.71281 -1.42011,7.38576 -2.17456,11.0681c-0.92689,4.524 -2.99234,8.79797 -2.92691,13.42768l-1.31672,3.63564c0,0 -1.34164,2.91936 -4.02492,1.45968z" fill="#333333" stroke-width="0.5"/><path d="M277.84164,265.02566c-2.68328,1.45968 -4.02492,-1.45968 -4.02492,-1.45968l-1.31672,-3.63564c0,-12.02724 1.0769,-24.64917 0.02248,-36.59256c-0.22181,-2.51242 -2.09687,-4.52293 -2.83093,-6.91722c-0.62286,-2.0316 -0.2466,-4.34092 -0.94965,-6.3413c-0.48543,-1.38117 -1.67217,-2.33161 -2.50826,-3.49741c-3.53782,-3.82693 -5.98029,-7.86751 -9.05366,-12.03703c-2.53803,-3.44324 -4.91743,-6.75576 -5.64124,-11.33831c-0.42232,-2.67374 -0.03874,-5.42576 -0.03874,-8.13869c0,-4.18445 -0.50339,-9.41421 0.03874,-13.5786c0.37889,-2.91046 1.68193,-5.62971 1.98062,-8.5512c0.72659,-7.10675 0.98064,-14.22952 0.98064,-21.38944c0,0 0,-3.26394 3,-3.26394c3,0 3,3.26394 3,3.26394c0,7.39615 -0.22784,14.7925 -1.01936,22.1298c-0.32588,3.02091 -1.61988,5.84606 -2.01938,8.85649c-0.50451,3.80168 0.03874,8.74442 0.03874,12.53295c0,2.36439 -0.38007,4.758 -0.03874,7.09304c0.50212,3.43503 2.50368,5.71652 4.35876,8.24535c3.05041,4.15829 5.45402,8.08007 8.94634,11.89855c1.16391,1.73548 2.72975,3.22448 3.49174,5.20644c0.78397,2.03911 0.3811,4.4398 1.02314,6.53683c0.3754,1.22614 1.51773,2.03638 1.96787,3.23237c0.63008,1.67405 1.02604,3.46426 1.22841,5.25978c0.02946,0.26137 0.02248,10.77822 0.02248,11.27861c0,8.70385 0,17.4077 0,26.11155l0.68328,0.71628c0,0 1.34164,2.91936 -1.34164,4.37904z" fill="#333333" stroke-width="0.5"/><path d="M303.5,202.26735c-3,0 -3,-3.26394 -3,-3.26394l0.15395,-1.14381c-0.18453,-0.6023 -2.05915,-6.68239 -2.11521,-7.03721c-0.36683,-2.32174 -0.07065,-4.80938 -0.85239,-7.00628c-2.17178,-6.10325 -4.61747,-12.35792 -6.08584,-18.79034c-0.3846,-1.68482 -0.33209,-3.49353 -0.90351,-5.1144c-0.58418,-1.65705 -1.77938,-2.98375 -2.51068,-4.57017c-3.00669,-6.52242 -4.81665,-11.69768 -9.02892,-17.40173c0,0 -1.87409,-2.54871 0.46852,-4.58768c2.34261,-2.03897 4.21669,0.50974 4.21669,0.50974c4.45269,6.07939 6.53403,11.62868 9.69811,18.53401c0.81971,1.78894 2.1048,3.32277 2.76228,5.18931c0.64551,1.83255 0.65639,3.86221 1.09649,5.76541c1.44621,6.25398 3.91116,12.2263 5.91416,18.20102c0.87343,2.60533 0.74414,5.48719 1.14761,8.22545c0.30835,2.09272 1.26876,4.00789 1.88479,6.01856l0.15395,3.20811c0,0 0,3.26394 -3,3.26394z" fill="#333333" stroke-width="0.5"/><path d="M136.5,215.32312c-3,0 -3,-3.26394 -3,-3.26394l0.50385,-2.89849c1.17148,-1.8964 2.84877,-3.39589 3.9442,-5.34535c1.09963,-1.95693 0.92566,-4.5544 2,-6.52789c1.03818,-1.90706 2.95445,-3.17091 3.85701,-5.15797c1.50738,-3.31863 1.57623,-7.27488 2.92331,-10.69485c1.57468,-3.99781 4.44353,-7.09289 6.0281,-10.95119c0.68879,-1.67715 0.43147,-3.86584 1.54238,-5.24917c1.01342,-1.26194 2.83499,-1.31116 4.25248,-1.96674c0,0 2.84605,-1.03215 3.79473,2.0643c0.94868,3.09645 -1.89737,4.1286 -1.89737,4.1286c-0.58251,0.06974 -1.42649,-0.32418 -1.74752,0.20922c-0.58582,0.97335 -0.05343,2.37753 -0.45762,3.45468c-0.28342,0.75528 -3.63132,5.86554 -4.14881,6.84571c-2.53357,4.79871 -2.6619,10.19723 -4.89978,15.02749c-1.00451,2.16814 -2.97896,3.65029 -4.14299,5.72184c-1.09963,1.95693 -0.92566,4.5544 -2,6.52789c-1.10514,2.03006 -2.86084,3.56555 -4.0558,5.53446l0.50385,-0.72253c0,0 0,3.26394 -3,3.26394z" fill="#333333" stroke-width="0.5"/><path d="M151.5,148.95627c-3,0 -3,-3.26394 -3,-3.26394l0.22836,-4.513c0.7399,-0.88095 1.6602,-1.61643 2.21969,-2.64286c0.53768,-0.98642 0.43458,-2.29606 1,-3.26394c1.79912,-3.07976 3.18607,-3.01556 5.64999,-5.16011c2.60255,-2.26522 5.35991,-4.28978 8,-6.52789c2.55565,-2.16651 2.12644,-3.61854 4.52853,-7.08804c0.97154,-1.40326 2.31631,-2.45373 3.38032,-3.77522c2.12916,-2.6444 3.52806,-5.95438 5.81376,-8.43929c1.0877,-1.18249 2.72549,-1.67764 3.74563,-2.92937c0.50242,-0.61648 0.39178,-1.59175 0.58768,-2.38763c0,0 0.94868,-3.09645 3.79473,-2.0643c2.84605,1.03215 1.89737,4.1286 1.89737,4.1286c-0.47077,1.38009 -0.56925,2.9889 -1.41232,4.14026c-1.11927,1.52854 -2.98469,2.21609 -4.25437,3.59851c-0.76088,0.82845 -1.11384,2.0089 -1.75771,2.94746c-2.13538,3.11273 -4.90531,5.66701 -7.04822,8.77361c-1.16952,1.69548 -1.85902,3.7409 -3.00882,5.45226c-2.19586,3.26831 -5.66383,4.59825 -8.46265,7.04336c-1.66425,1.45392 -3.29149,2.96009 -5,4.35192c-2.17466,1.77159 -2.02655,4.3212 -4.13033,6.34078l0.22836,2.01489c0,0 0,3.26394 -3,3.26394z" fill="#333333" stroke-width="0.5"/><path d="M194.00968,100.48816c-0.40905,-0.74105 -0.81407,-1.48167 -0.47095,-2.14417l0.21958,-0.52283h-0.25832v-3.26394v0c0,-0.66441 0.18247,-1.28245 0.49586,-1.79805c0.06251,-0.61125 0.12009,-1.21631 0.07042,-1.73339c-0.09609,-1.00034 -0.7554,1.90555 -1.44495,2.57546c-1.24992,1.21432 -2.45014,3.26589 -4.12132,3.13195c-1.92872,-0.15458 -3.4543,-2.14517 -4.6106,-3.83176c-0.63238,-0.9224 -0.81316,-2.12024 -0.91717,-3.30224c-0.78833,1.17971 -2.22054,0.47125 -4.47223,0.60612c0,0 -1.38754,0 -2.27533,-1.02666c-0.57753,-0.04986 -1.21176,-0.32728 -1.84599,-1.01731c-2.12132,-2.30796 0,-4.61591 0,-4.61591l1,-1.08798c0.53971,-0.5872 4.16663,-4.5663 4.54413,-4.82044c0.89636,-0.60346 2.08684,-0.51511 3,-1.08798c1.90732,-1.19657 3.89094,-4.35675 5.45587,-6.05937c1.56684,-1.7047 4.466,-3.85956 5.56937,-5.93589c0.47912,-0.90161 0.42143,-2.05461 0.85701,-2.982c1.86676,-3.9746 4.0336,-5.42699 5.57363,-9.57779c1.18138,-0.51883 2.46077,-0.82715 3.54413,-1.5565c0.80173,-0.53975 1.19155,-1.64821 2,-2.17596c0.90388,-0.59004 2.08684,-0.51511 3,-1.08798c1.32539,-0.83149 4.26099,-4.02537 5.02524,-5.46737c0.52655,-0.9935 0.45307,-2.28357 1,-3.26394c1.17638,-2.10866 2.81082,-3.87127 4.23193,-5.79325c1.78808,-2.4183 4.17952,-4.56971 6.19871,-6.76654c1.0641,-1.15772 2.87356,-1.73987 3.34968,-3.29303c0.28719,-0.93684 -0.38577,-2.0235 -0.09964,-2.96073c0.37885,-1.24093 1.65993,-2.00979 2,-3.26394c0.42933,-1.58331 -0.57799,-3.54641 0.22625,-4.9462c3.19826,-5.56663 10.19719,-3.91732 15.12557,-3.85764c1.61958,0.56661 7.01219,2.27977 7.95318,3.4893c0.77999,1.00258 -0.09954,2.69909 0.33791,3.92335c0.24005,0.67181 1.13068,0.79624 1.54839,1.35572c1.49272,1.99938 2.0099,4.67502 3.23193,6.88123c0.48663,0.87856 1.51493,1.29638 2,2.17596c0.54233,0.9834 0.45767,2.28054 1,3.26394c0.48507,0.87958 1.51493,1.29638 2,2.17596c0.54233,0.9834 0.45767,2.28054 1,3.26394c0.48507,0.87958 1.51634,1.29546 2,2.17596c0.59059,1.07517 0.63831,2.42011 1.14299,3.54588c1.61847,3.6102 4.85496,5.23154 6.17633,9.19203c0.30972,0.9283 -0.35277,2.01233 -0.09964,2.96073c0.57062,2.13788 3.78646,2.17473 4.87339,4.06086c0.57901,1.00474 -0.27306,2.45171 0.12661,3.555c0.29019,0.80108 1.37053,0.97243 1.78031,1.70906c0.5961,1.07156 0.762,2.36392 1.14299,3.54588c0.72544,1.25071 1.75226,2.34701 2.17633,3.75212c0.66906,2.21686 -0.2571,4.88739 0.73932,6.95357c1.09085,2.26196 3.55288,3.66664 4.26068,6.10221c0.37408,1.28724 -0.44707,2.75265 -0.09964,4.04871c0.18549,0.69197 1.13068,0.79624 1.54839,1.35572c2.60436,3.48832 4.38052,7.78523 3.64124,12.38396c-0.2488,1.54765 -0.70105,3.08787 -1.40931,4.45707c-0.38816,0.75038 -1.49308,0.90672 -1.78031,1.70906c-0.36293,1.0138 0.39198,2.26303 0,3.26394c-0.48175,1.23015 -1.66983,1.96446 -2.45161,2.99621c-1.00457,1.32576 -1.52645,3.23304 -2.90445,4.07238c-0.99635,0.60687 -8.90967,0.37492 -9.56362,0.13775c-0.62165,-0.22545 -0.36248,-1.45351 -0.85195,-1.92751c-0.28083,-0.27195 0.42459,0.97824 0.12132,1.21998l-1.13001,1.22943c-0.02046,1.42725 0.31752,2.95004 -0.21967,4.23956c-1.16675,2.80077 -5.2543,5.75565 -8.16984,5.24995c-6.26602,-1.08685 -5.59635,-8.37445 -10.17899,-11.3384c-0.83092,-0.53742 -4.46664,-1.08212 -6.14638,-2.23936l-0.75447,1.23127c-0.36228,0.61031 -0.90661,1.0807 -1.54943,1.32023c-1.24195,2.90915 -2.94452,6.56306 -6.26815,6.68733c-0.63138,0.02361 -1.01882,-0.5483 -1.31412,-1.27025c-0.24322,1.4408 -0.61697,2.88137 -1.54403,3.85879c-0.8906,0.93898 -2.53576,-0.02738 -3.69819,0.44283c-2.08144,0.84196 -2.9274,4.60038 -5.14805,4.60038c-2.34892,0 -3.41903,-3.60892 -5.50187,-4.79039c-1.48329,-0.84138 -3.7311,-0.35406 -4.7345,-1.81025c-1.34258,-1.94841 -0.60563,-4.87411 -1.43113,-7.13758c-0.32,-0.87742 -1.46109,-1.12955 -1.88445,-1.95353c-0.38185,-0.74318 -0.82458,-1.53317 -1.11709,-2.34842c-0.77754,-0.46136 -1.5831,-0.88728 -2.30255,-1.42213c-1.47902,1.20479 -7.02837,5.31854 -7.02841,5.31854c-0.92482,0.09155 -1.40391,-1.27538 -2.14968,-1.94512l-1.8352,0.66556c-0.31704,0.12401 -0.65883,0.19159 -1.01512,0.19159c-0.35064,0 -0.68722,-0.06545 -1,-0.18572c-0.31278,0.12028 -0.64936,0.18572 -1,0.18572c-1.65685,0 -3,-1.46132 -3,-3.26394v-2.35996c-0.40942,-1.15787 -0.75253,-2.33502 -0.94705,-3.55419c-0.00776,-0.04439 -0.0147,-0.0891 -0.02079,-0.13412c-0.21709,-1.43524 -0.30305,-2.90592 -0.52248,-4.34052zM204.56424,95.98391c-0.06021,-0.04361 -0.12073,-0.09656 -0.18142,-0.15706c0.01581,0.05963 0.0301,0.11997 0.04282,0.18096l0.04763,0.20728c0.0331,-0.07757 0.06348,-0.15465 0.09097,-0.23117zM202.5,93.46925c-0.10654,-0.01952 -0.17162,0.02617 -0.21099,0.11406c0.26529,0.07847 0.51596,0.19556 0.7466,0.34537c-0.19163,-0.25119 -0.37218,-0.4295 -0.53562,-0.45943z" fill="#85a3b4" stroke-width="0.5"/><path d="M245.84164,282.18331c-2.68328,1.34164 -4.02492,-1.34164 -4.02492,-1.34164l-1.16277,-2.39296c-1.17975,-3.66883 -1.72022,-7.81306 -2.13935,-11.65307c-0.41978,-3.84594 0.68484,-8.02137 0.02414,-11.81507c-0.18086,-1.03846 -0.83317,-1.95919 -1,-3c-0.94204,-5.87726 -0.03874,-12.52302 -0.03874,-18.48055c0,0 0,-3 3,-3c3,0 3,3 3,3c0,5.58391 -0.9923,12.04422 -0.03874,17.51945c0.18086,1.03846 0.83317,1.95919 1,3c1.20048,7.48962 -0.67559,15.20523 1.88479,22.53186l0.83723,1.60704c0,0 1.34164,2.68328 -1.34164,4.02492z" fill="#333333" stroke-width="0.5"/><path d="M303.84164,274.18331c-2.68328,1.34164 -4.02492,-1.34164 -4.02492,-1.34164l-1.31672,-3.34164c0,-13.33333 0,-26.66667 0,-40c0,0 0,-3 3,-3c3,0 3,3 3,3c0,13.33333 0,26.66667 0,40l0.68328,0.65836c0,0 1.34164,2.68328 -1.34164,4.02492z" fill="#333333" stroke-width="0.5"/><path d="M170.15836,290.18331c-2.68328,-1.34164 -1.34164,-4.02492 -1.34164,-4.02492l1.56196,-2.77968c3.48538,-3.23332 2.59489,-6.98898 3.16006,-11.35923c0.44959,-3.47655 2.10422,-7.4412 3.21785,-10.77604c2.98739,-8.94594 6.68208,-16.97107 12.32176,-24.51417c2.85037,-3.81238 4.92703,-7.94557 8.30034,-11.35056c0,0 2.12132,-2.12132 4.24264,0c2.12132,2.12132 0,4.24264 0,4.24264c-3.16262,3.12637 -5.04849,7.10625 -7.69966,10.64944c-5.85453,7.82435 -9.82723,16.62278 -12.5413,26.06801c-0.63644,2.21487 -1.64391,4.35378 -1.9191,6.64178c-0.19902,1.65474 0.21761,3.3476 0,5c-0.4983,3.78374 -2.29452,6.9765 -4.83994,9.64077l-0.43804,1.22032c0,0 -1.34164,2.68328 -4.02492,1.34164z" fill="#333333" stroke-width="0.5"/><path d="M80.5,360.50003v-125h302v125z" fill="url(#color-3)" stroke-width="0"/><path d="M122.31763,369.94164c-2.55019,-0.29597 -4.9728,-1.29251 -7.4775,-1.85589c-2.96208,0.95163 -5.79774,2.40814 -8.87385,2.82438c-4.04259,0.54701 -8.58298,-0.72424 -12.54401,-0.06504c-5.52344,0.91921 -25.51277,-0.65116 -29.91196,-0.88594c-5.3034,-0.28303 -10.62249,-0.01021 -15.93242,-0.11406c-4.30199,-1.434 -8.13218,-0.33029 -12.54401,-0.93496c-2.51701,-0.34497 -5.45535,-1.29034 -8,-2c-1.02809,-0.28672 -2.04424,0.6262 -3.09025,0.83849c-2.14351,0.43501 -4.3125,0.73353 -6.47077,1.08815c-6.01476,0.98826 -10.91947,1.16327 -16.97279,1.16327c-4.8888,0 -9.88826,-227.20769 -6.97822,-223.91249c4.40759,4.99096 10.39468,8.73307 14.83928,13.82042c1.97251,2.25776 3.97382,4.50041 5.75425,6.91253c1.03447,1.4015 1.44814,3.24904 2.6657,4.49479c0.89154,0.91218 2.34006,1.03971 3.41485,1.72656c2.73536,1.74804 5.37156,3.65719 7.912,5.67808c2.39028,1.90143 4.98076,3.64358 6.92861,5.99618c1.15251,1.39198 1.23094,3.68729 2.74363,4.67606c0.69162,1.03742 1.4203,1.99663 2.15838,2.92899c1.29726,4.54159 4.15823,8.95698 7.49039,12.24994c0.55649,0.54995 1.63525,0.38793 2.124,0.99887c0.9202,1.15025 0.81451,2.97982 1.876,4.00113c1.29585,1.2468 3.27176,1.51024 4.81376,2.43544c2.05887,1.23532 3.29107,3.64238 5.43048,4.73229c0.6386,0.32533 1.48548,-0.77674 2.10826,-0.42205c0.48749,0.27764 -0.32735,1.31722 0.10055,1.68004c1.63358,1.38508 3.74778,2.07486 5.59876,3.15232c1.56206,0.90928 2.67368,2.45268 4.17217,3.46332c1.23589,0.83354 2.73274,1.21496 4,2c1.14965,0.71218 1.81977,2.00238 2.77604,2.95865c1.85795,1.82368 4.17389,3.14444 6,5c0.84301,0.85661 1.14505,2.15531 2,3c2.08574,2.06069 4.47873,3.78532 6.73118,5.66235c1.13946,0.94955 2.73765,1.40431 3.60647,2.60647c1.94801,2.69538 3.88899,5.43727 6,8c0.32468,0.39416 0.97455,0.47348 1.22691,0.91742c0.52093,0.91638 0.42494,2.11659 1,3c1.0287,1.5803 3.16889,2.30743 4,4c0.46461,0.94618 0.42494,2.11659 1,3c1.0287,1.5803 3.16889,2.30743 4,4c0.46461,0.94618 0.45767,2.09612 1,3c0.25153,0.41922 0.63714,0.73203 1.02421,1.04465c0.45341,1.11645 1.03894,2.04126 1.51945,2.69539c0.01964,0.7288 0.04883,1.314 0.09197,1.60447c0.15487,1.04265 0.82671,1.96025 1,3c0.1644,0.98639 -0.20993,2.02228 0,3c0.42627,1.98527 1.06652,3.93464 1.88772,5.79169c0.51783,1.17102 2.0675,1.92869 2.11228,3.20831c0.07091,2.02635 0.35882,4.07646 1,6c-0.49864,5.39933 -0.12913,10.9754 -0.12913,16.39818c0,1.46669 0.41401,2.95942 0.12913,4.39818c-2.62663,13.26529 -1.12913,27.98755 -1.12913,41.60182c0.07805,2.78148 0.4551,6.3722 1.39718,9.7562c-1.1988,-0.07249 -2.39276,-0.17685 -3.57956,-0.31459z" fill="#643c2c" stroke-width="0.5"/><path d="M17.7427,174.65851c-4.24264,4.24264 -8.48528,0 -8.48528,0l-2.44946,-3.34528c-0.2273,-0.96205 -0.71449,-1.9423 -1.46671,-2.58536c-0.70806,0.44721 -1.47794,0.90793 -2.31359,1.38492l0.16451,0.40571c0,0 1.89737,5.6921 -3.79474,7.58946c-5.6921,1.89737 -7.58947,-3.79473 -7.58947,-3.79473l-0.07614,-1.2554c-2.76642,-1.36155 6.58207,-42.71262 10.04833,-38.24986c3.63243,4.6767 3.43018,5.2407 5.66678,10.692c0.47735,0.96425 1.04869,1.88742 1.43204,2.89275c1.78591,4.68345 3.45747,7.97615 3.62332,10.84771c0.77566,0.46803 1.2404,0.93277 1.2404,0.93277c1.94553,2.09987 3.44886,4.66324 4.44946,7.34528l-0.44946,-1.34528c0,0 4.24264,4.24265 0,8.48529z" fill="#85a3b4" stroke-width="0.5"/><path d="M114.5,319.50003c-2.45379,0 -2.90055,-2.00703 -2.98189,-2.73787c-1.23789,-1.23698 -3.3426,-3.34672 -3.45183,-3.508c-0.83595,-1.23426 -1.17703,-2.75704 -2,-4c-2.43064,-3.67105 -6.81538,-6.45539 -9.11823,-10.17694c-0.55466,-0.89636 -0.47345,-2.08684 -1,-3c-0.87644,-1.51995 -2.66942,-2.30725 -3.76807,-3.67523c-1.77821,-2.21412 -3.12581,-4.7569 -4.94634,-6.93636c-2.57095,-3.07783 -5.03547,-5.45459 -6.28559,-9.38841c-2.88324,-2.67473 -6.82233,-5.78354 -9,-9c-0.59096,-0.87286 -0.46297,-2.09297 -1,-3c-0.41363,-0.69862 -1.25918,-1.04262 -1.76807,-1.67523c-3.00092,-3.73046 -5.4242,-8.40355 -8.80129,-11.78065c-3.43083,-3.43083 -8.04885,-5.70154 -11.78065,-8.80129c-0.50963,-0.42331 -0.62497,-1.31789 -1.24608,-1.54839c-1.0219,-0.37923 -2.33911,0.44447 -3.26752,-0.12661c-1.28484,-0.79034 -1.68544,-2.52857 -2.76379,-3.58338c-0.20596,-0.20147 -0.42199,-0.39108 -0.64519,-0.57225c-0.06572,0.03747 -0.13418,0.07407 -0.20549,0.10972c-2.68328,1.34164 -4.02492,-1.34164 -4.02492,-1.34164c-1.64879,-3.31089 -2.69601,-7.5045 -4.75045,-10.58751c-2.44619,-3.6709 -6.7866,-6.33546 -9.11822,-10.17694c-0.54693,-0.9011 -0.46297,-2.09296 -1,-3c-0.41363,-0.69862 -1.25981,-1.04211 -1.76807,-1.67522c-1.50477,-1.87442 -2.45998,-4.15444 -4,-6c-2.0704,-2.48116 -5.51884,-4.55631 -7.23193,-7.32478c-0.90217,-1.45798 -1.31241,-3.28982 -2.56937,-4.45587l-1.56196,-2.77968c0,0 -1.34164,-2.68328 1.34164,-4.02492l-0.00001,-0.00001c2.68328,-1.34164 4.02492,1.34164 4.02492,1.34164l0.43804,1.22033c0.81021,0.84804 1.81347,1.54676 2.43063,2.54413c0.55465,0.89637 0.47345,2.08684 1,3c1.36202,2.36205 5.07557,4.64187 6.76808,6.67522c1.53777,1.84744 2.50152,4.12055 4,6c0.66969,0.83995 1.67453,1.40645 2.23192,2.32478c0.54693,0.9011 0.46297,2.09296 1,3c2.20324,3.72124 6.49958,6.2509 8.88178,9.82306c1.59813,2.39643 2.62048,5.20832 3.71978,7.93945c0.60818,0.19135 1.01818,0.49885 1.01818,0.49885c1.45979,1.11278 3.09744,2.02461 4.37936,3.33835c0.63191,0.6476 0.4525,1.96441 1.23621,2.41662c0.78976,0.4557 1.89295,-0.48239 2.73248,-0.12661c1.13161,0.47955 1.78253,1.69869 2.75392,2.45161c3.98875,3.09168 8.64736,5.62672 12.21935,9.19871c3.5253,3.5253 6.09677,8.32163 9.19871,12.21935c0.66894,0.84055 1.67454,1.40645 2.23193,2.32477c0.54693,0.9011 0.42291,2.11791 1,3c2.0915,3.19691 6.33425,6.20977 9,9c1.29469,3.7303 3.25998,5.65979 5.71441,8.61159c1.85099,2.22608 3.25015,4.79892 5.05366,7.06364c1.16147,1.45848 3.26563,2.76318 4.23193,4.32477c0.55466,0.89636 0.47345,2.08684 1,3c0.86265,1.49603 2.60692,2.28655 3.71441,3.61159c1.72722,2.06651 3.66683,3.97492 5.16736,6.21147c0.83053,1.23792 1.1835,2.75279 2,4c0.9451,1.44364 2.46749,2.41271 3.68759,3.63281l0.87868,3.12132c0,0 0,3 -3,3z" fill="#341f17" stroke-width="0.5"/><path d="M97.18328,340.84167c-1.34164,2.68328 -4.02492,1.34164 -4.02492,1.34164l-2.77968,-1.56196c-1.50216,-1.51627 -2.48886,-3.49268 -4,-5c-0.89384,-0.89158 -2.31815,-1.16717 -3.12771,-2.13591c-0.95592,-1.14387 -1.04588,-2.85463 -2,-4c-0.81278,-0.9757 -2.34416,-1.17092 -3.13509,-2.16443c-0.581,-0.72981 -0.08538,-2.03234 -0.7372,-2.69966c-0.58718,-0.60115 -1.74143,-0.12694 -2.45587,-0.56937c-1.08083,-0.66931 -1.82856,-1.76666 -2.74283,-2.64999c-2.4592,-3.66081 -5.20698,-6.64879 -8,-10c-1.25233,-1.50261 -2.0909,-3.40015 -3.623,-4.61622c-3.00463,-2.38485 -6.2264,-4.50682 -9.07998,-7.07048c-3.10248,-2.78726 -5.71239,-6.18604 -8.87895,-8.89524c-3.6081,-3.08697 -7.90879,-5.88449 -11.27739,-9.25838c-3.30401,-3.3092 -5.57164,-7.59485 -8.94196,-10.94033c0,0 -0.75466,-0.75466 -0.91363,-1.81387c-2.47428,-4.12529 -3.0147,-9.86131 -5.82095,-13.70975c-1.7986,-2.46656 -4.18812,-4.46678 -5.96482,-6.94917c-2.7083,-3.78403 -4.44417,-8.16341 -6.98471,-11.97859c-1.27612,-1.91638 -3.29857,-3.34459 -4.26122,-5.43608c-2.09714,-4.55633 -2.86621,-10.33289 -5.73878,-14.56392c-0.52958,-0.78002 -1.49703,-1.20256 -2,-2c-2.50391,-3.96979 -2.49939,-18.13976 -2.01432,-17.33131c0.99334,1.65555 1.6099,3.60611 2.97935,4.96706c1.10097,2.89867 2.22442,6.24063 3.90243,8.856c0.50913,0.79352 1.4825,1.21192 2,2c3.08258,4.69438 4.06232,10.37127 6.26122,15.43608c0.78318,1.80393 2.64716,2.9281 3.73878,4.56392c2.56109,3.83786 4.30385,8.21693 7.01529,12.02141c1.79551,2.51933 4.25201,4.52277 6.03519,7.05083c3.73161,5.2904 3.84142,11.90408 8.63712,16.56057c0,0 1.00711,1.00711 0.93956,2.32741c1.77106,2.35352 3.44633,4.77619 5.49018,6.81644c3.20036,3.1947 7.30198,5.80459 10.72261,8.74162c3.25187,2.79213 5.93537,6.23849 9.12105,9.10476c2.79896,2.51832 6.00698,4.54409 8.92002,6.92952c1.78943,1.46533 2.89646,3.60691 4.377,5.38378c2.77654,3.33227 5.57897,6.3371 8,10c1.26039,1.35348 3.48316,1.48334 4.80129,2.78065c0.8395,0.82624 0.52491,2.38222 1.2628,3.30034c0.7105,0.88404 2.13867,0.96442 2.86491,1.83557c0.95455,1.14501 1.04734,2.85341 2,4c0.72942,0.8779 2.06619,1.05602 2.87229,1.86409c1.50738,1.51108 2.48209,3.49949 4,5l1.22032,0.43804c0,0 2.68328,1.34164 1.34164,4.02492z" fill="#341f17" stroke-width="0.5"/><path d="M61.44868,354.34608c-2.84605,0.94868 -3.79473,-1.89737 -3.79473,-1.89737l-0.7059,-2.37149c-1.85188,-1.74082 -3.45073,-3.7545 -4.89707,-5.84448c-0.51594,-0.74554 -0.65461,-1.79413 -1.37196,-2.3486c-0.93195,-0.72034 -2.4741,-0.4233 -3.30034,-1.2628c-0.89365,-0.90799 -0.69014,-2.50744 -1.43063,-3.54413c-2.37412,-3.32377 -5.82654,-4.71304 -8.56937,-7.45587c-0.91889,-0.91889 -1.38691,-2.20461 -2.19871,-3.21935c-2.89198,-3.61498 -7.0109,-7.70161 -10.58194,-10.58194c-1.05879,-0.854 -2.47925,-1.28711 -3.34707,-2.33462c-1.08235,-1.30647 -1.59259,-2.99379 -2.36378,-4.5074c-2.99379,-2.99485 -5.56731,-5.91358 -8.18484,-9.20549c-1.13004,-1.42118 -3.30928,-2.81498 -4.23192,-4.32477c-2.86995,-4.6963 -3.04374,-9.8807 -8.11215,-13.08105c0,0 -2.49615,-1.6641 -0.83205,-4.16025c1.6641,-2.49615 4.16025,-0.83205 4.16025,-0.83205c1.16903,0.80863 2.57714,1.35086 3.50708,2.4259c3.30274,3.81804 3.99729,8.40841 6.38076,12.49306c0.88428,1.51541 2.66832,2.30813 3.76808,3.67523c2.52282,3.13608 4.92914,5.90849 7.80129,8.78065l1,1c0,0 1.15194,1.15194 0.90921,2.60694c0.18547,0.41584 0.40396,0.81062 0.69614,1.15842c0.67161,0.79944 1.83486,1.01659 2.65293,1.66538c3.33068,2.64148 6.213,6.17757 9.21935,9.19871c1.50552,1.51293 2.49077,3.49077 4,5c3.12414,3.12414 6.66092,4.66653 9.43063,8.54413c0.48844,0.68381 -0.03178,1.86869 0.56937,2.45587c0.66732,0.65182 1.97965,0.1441 2.69966,0.7372c2.9632,2.44089 4.99438,6.94723 7.73097,9.80693l1.2941,3.62851c0,0 0.94868,2.84605 -1.89737,3.79473z" fill="#341f17" stroke-width="0.5"/><path d="M494.42224,365.84509c-1.97333,0.32553 -27.04161,2.59416 -29,3c-2.9974,0.62116 -6.28515,1.09614 -9.61453,1.32573c-0.03233,0.04652 -0.06559,0.09253 -0.09984,0.138c-4.80149,6.37338 -31.30672,0.12784 -33.94363,-2.2528c-0.62412,0.03603 -1.23799,0.06723 -1.83844,0.09037l-47.96454,1.84479c0,0 -10.40736,0.40028 -12.20352,-9.24071c-3.86833,-0.35639 -8.54547,0.24958 -12.25767,0.24958c-2.82696,0 -5.65393,0 -8.48089,0c-0.74028,0.48985 -1.46189,1.00376 -2.13304,1.58335c-0.79925,0.69022 -1.06492,1.84518 -1.78606,2.61665c-0.30808,0.32959 -1.0849,1.02648 -1.2158,0.59473c-0.22179,-0.73155 -0.11834,-1.50219 -0.00606,-2.27722c-0.95367,-0.73525 -1.91309,-1.46364 -2.87655,-2.18719c-1.49692,1.93746 -3.57326,3.40446 -5.96937,4.14137l-2.73749,0.9125c-0.15612,0.0488 -0.31251,0.09723 -0.46918,0.14527c0.01281,-3.12848 -0.32563,-6.46011 -0.32563,-9.02948c0,-3.40932 0.3694,-7.2455 -0.12913,-10.60182c-0.15487,-1.04265 -0.83212,-1.95936 -1,-3c-0.28667,-1.77693 0.12913,-3.59827 0.12913,-5.39818c0,-3.45451 0,-6.90902 0,-10.36352c0.33473,-0.999 0.62114,-2.01482 0.87087,-3.03465c0.23785,-0.9713 -0.13743,-2.00949 0,-3c0.55404,-3.99326 3.26266,-7.97219 4,-12c0.18007,-0.98365 -0.1644,-2.01361 0,-3c0.50556,-3.03338 1.49444,-5.96662 2,-9c0.1644,-0.98639 -0.1644,-2.01361 0,-3c0.17329,-1.03975 0.84484,-1.95739 1,-3c0.08489,-0.57044 -0.49598,-1.16159 -0.29995,-1.70398c0.4085,-1.1303 1.63866,-1.85375 2,-3c0.82607,-2.62048 0.14025,-4.99648 1.41223,-7.50433c1.0873,-2.14373 2.70275,-3.97641 4,-6c0.60467,-2.46809 3.13707,-4.00658 4.52336,-6.1362c0.57506,-0.88341 0.45767,-2.09612 1,-3c0.48507,-0.80845 1.53871,-1.17774 2,-2c1.03147,-1.83862 1.00492,-4.14143 2,-6c0.89002,-1.66235 3.0205,-2.38875 4,-4c0.6749,-1.11019 1.02891,-2.37012 1.37601,-3.63564c2.65097,-0.9366 5.28403,-1.88347 7.62239,-3.27326c1.53884,-0.9146 2.13133,-3.08253 3.7524,-3.8419c2.12826,-0.99695 4.31114,-1.91763 6.28969,-3.18601c1.58736,-1.05824 6.59281,-4.34485 7.52407,-5.24944c2.07392,-2.01453 3.8737,-4.8737 6,-7c1.09609,-1.09609 6.47071,-6.33174 7.43544,-7.81376c0.57506,-0.88341 0.53539,-2.05382 1,-3c0.24972,-0.50857 0.69787,-0.85821 1.18268,-1.18179c0.3969,0.56606 0.77509,1.13461 1.12758,1.69523c2.17526,-3.59464 4.49856,-7.10787 7.24178,-10.2738c2.15459,-2.4866 5.01503,-4.43718 6.73373,-7.30572c2.46245,-4.10988 4.80064,-8.46624 8.31111,-11.72683c2.94681,-2.73705 6.90507,-4.21455 9.89365,-6.90594c3.8557,-3.47229 7.31774,-7.33939 10.51669,-11.40753c1.34148,-1.70598 2.40253,-3.66838 4.00109,-5.13621c4.05646,-3.72474 9.32314,-6.24055 13.20518,-10.12259c2.08849,-3.30246 4.48221,-7.88726 7.33847,-10.38827c1.82492,-1.59795 5.12879,-2.66986 7.33376,-4.28397c1.69356,-1.23974 3.05005,-3.0706 5.01567,-3.80645c0.71073,-0.26607 24.2029,-13.67835 24.4699,15.38138c0.62979,68.54509 0.00679,215.22652 -1.95556,215.55024z" fill="#643c2c" stroke-width="0.5"/><path d="M402.00701,359.71929c-2.12132,-2.12132 0,-4.24264 0,-4.24264l0.27528,0.17263c1.18255,-3.31572 1.02233,-4.50447 4.26885,-6.60327c2.12918,-1.37646 4.10498,-1.06273 6.25914,-2.14299c1.94194,-0.97384 3.71805,-2.27004 5.41609,-3.62508c3.85513,-3.07642 6.5802,-7.08025 10.78064,-9.80129c0.76678,-1.0876 1.2608,-2.43204 2.30034,-3.2628c0.89774,-0.71744 2.25074,-0.58946 3.24379,-1.16783c2.36935,-1.37997 4.62712,-5.06328 6.67523,-6.76807c1.84744,-1.53776 4.12056,-2.50151 6,-4c0.83995,-0.66969 1.40644,-1.67454 2.32477,-2.23193c0.9011,-0.54693 2.11791,-0.42291 3,-1c3.82509,-2.50247 6.33168,-7.44517 9.45587,-10.56937c4.60793,-4.60793 9.95538,-7.98513 13.62517,-13.54278c0,0 1.6641,-2.49615 4.16025,-0.83205c2.49615,1.6641 0.83205,4.16025 0.83205,4.16025c-2.87269,4.27429 -6.60778,8.23989 -10.53055,11.60226c-1.21189,1.03876 -2.71564,1.72631 -3.84429,2.85496c-3.5906,3.5906 -6.20286,8.49142 -10.54413,11.43063c-0.87286,0.59096 -2.09296,0.46297 -3,1c-0.69862,0.41363 -1.04211,1.25981 -1.67523,1.76807c-1.87442,1.50477 -4.15444,2.45997 -6,4c-2.47623,2.06628 -4.55751,5.52845 -7.32477,7.23193c-0.81727,0.50309 -2.0072,0.23217 -2.75621,0.83217c-0.83821,0.67145 -1.13311,1.8248 -1.69966,2.7372c-6.38623,4.36157 -10.74175,11.05108 -17.80327,14.57362c-3.94565,1.96823 -6.12317,0.72233 -7.472,5.25374l-1.72473,2.17264c0,0 -2.12132,2.12132 -4.24264,0z" fill="#341f17" stroke-width="0.5"/><path d="M437.00701,292.71925c-2.12132,-2.12132 0,-4.24264 0,-4.24264l0.27528,0.17263c0.57491,-1.39088 0.69374,-3.07621 1.72472,-4.17263c0.87273,-0.92812 2.46077,-0.76027 3.54413,-1.43063c0.80173,-0.4961 1.1907,-1.51635 2,-2c2.6886,-1.60678 3.35104,-0.38344 5.45587,-2.56937c2.33779,-2.42786 2.88366,-5.78842 4.56937,-8.45587c2.47099,-3.91006 7.47057,-4.79251 10.23192,-8.32477c3.65627,-4.67703 7.01148,-9.99281 11.19871,-14.21936c0,0 2.12132,-2.12132 4.24264,0c2.12132,2.12132 0,4.24264 0,4.24264c-4.90933,4.85306 -7.80539,11.80106 -13.21936,16.1987c-1.92113,1.56049 -6.08118,2.95867 -7.35001,5.25717c-1.73845,3.14922 -2.68399,6.86296 -5.43063,9.54413c-1.76244,1.72044 -4.43463,2.15937 -6.54413,3.43063c-0.80751,0.48663 -1.18324,1.52904 -2,2c-0.72798,0.41977 -1.82425,0.01509 -2.45587,0.56937c-0.46299,0.4063 -0.18351,1.21824 -0.27527,1.82736l-1.72473,2.17264c0,0 -2.12132,2.12132 -4.24264,0z" fill="#341f17" stroke-width="0.5"/><path d="M376.4945,331.62384c-0.03944,0.56559 -0.36168,2.87618 -2.9945,2.87618c-3,0 -3,-3 -3,-3l0.87868,-3.12132c2.42461,-2.24927 2.85318,-5.4367 4.52659,-8.38446c1.37537,-2.42275 2.61746,-4.92911 4.161,-7.24835c0.49973,-0.75086 1.46516,-1.12392 1.9292,-1.89734c1.89233,-3.15394 1.57044,-3.38627 1.50452,-6.34853c0,0 0,-2.61855 2.44642,-2.96281l3.06058,-3.06058c0.84804,-0.81021 1.53992,-1.82467 2.54413,-2.43063c3.87671,-2.33931 9.47535,-1.61487 12.02524,-6.02524c1.18502,-2.04965 1.77177,-4.4611 3.23192,-6.32477c2.60397,-3.32356 5.28913,-6.75691 8,-10c1.51166,-1.80843 3.53305,-3.15511 5,-5c3.16523,-3.9807 6.09449,-8.12486 9.76808,-11.67523c1.01162,-3.3443 2.42048,-7.65658 3.82641,-10.67638c1.51414,-3.25221 4.14467,-5.86306 6.40551,-8.64839c3.17201,-3.90788 5.70135,-8.57861 8.49568,-12.76983c2.84942,-4.27384 5.454,-9.0568 8.47662,-13.19585c1.89137,-2.58996 4.11053,-4.77876 5.753,-7.63813c1.27815,-2.22511 1.71844,-4.87347 3.04278,-7.07142c1.38979,-2.30657 3.5396,-4.06593 5.15195,-6.2228c0,0 1.8,-2.4 4.2,-0.6c2.4,1.8 0.6,4.2 0.6,4.2c-1.51128,2.00897 -3.56023,3.61815 -4.84805,5.7772c-1.28636,2.1566 -1.71562,4.74592 -2.95722,6.92858c-1.76774,3.10757 -4.19218,5.55247 -6.24699,8.36187c-2.92498,3.99911 -5.42775,8.66041 -8.17979,12.78875c-2.9059,4.35913 -5.55913,9.17104 -8.84792,13.24557c-1.93412,2.39622 -4.3322,4.54281 -5.59449,7.35161c-1.53744,3.42102 -2.88999,7.71869 -4.17359,11.32362c-3.75856,3.86654 -6.87192,8.14799 -10.23192,12.32477c-1.4774,1.83654 -3.49402,3.18683 -5,5c-2.72229,3.27758 -5.29543,6.70527 -8,10c-2.30232,2.80469 -2.54579,5.56644 -5.19871,8.21936c-0.82934,0.82934 -1.53992,1.82466 -2.54413,2.43063c-3.45731,2.08623 -7.6431,1.53733 -10.45587,4.56937l-3.91209,3.91209c-0.87339,6.3049 -5.04764,10.82308 -8.24283,16.37443c-1.85252,3.21858 -2.44045,5.91668 -4.60023,8.61804z" fill="#341f17" stroke-width="0.5"/><path d="M334.55132,338.34608c-2.84605,-0.94868 -1.89737,-3.79473 -1.89737,-3.79473l1.1511,-3.36937c1.23274,-1.86029 3.00602,-3.33882 4.14299,-5.25914c0.53703,-0.90703 0.44534,-2.10364 1,-3c1.94923,-3.15008 5.92475,-5.25218 8.11823,-8.17694c0.82135,-1.09518 1.20261,-2.45966 1.80391,-3.6895c3.16587,-5.27916 7.23847,-10.46226 9.97475,-15.95302c0.81294,-1.63128 1.14643,-3.48446 2.03977,-5.07313c0.72648,-1.29192 2.18146,-2.11827 2.76924,-3.47891c0.36855,-0.85315 -0.30045,-1.88905 -0.06226,-2.78735c0.82534,-3.11259 3.74826,-5.38141 5.3813,-7.88083c2.80029,-4.28593 4.38729,-9.43825 6.93228,-13.88892c3.20247,-5.60048 7.98397,-10.5516 10.98768,-16.29844c-0.43786,-0.44441 -0.76463,-1.10775 -0.76463,-2.09787l0.00001,0.00001c0,-3 3,-3 3,-3l0.02404,0.03606c0.46704,-0.63333 1.29531,-1.33036 2.62034,-1.14248c1.48038,-1.10769 2.86993,-2.33484 4.03558,-3.79554c2.23645,-2.80254 3.47429,-6.4326 6.5659,-8.53176c2.15794,-1.46521 4.94047,-1.77596 7.17694,-3.11823c2.56032,-1.53663 4.81763,-4.11201 6.45587,-6.56937c4.0007,-2.74815 8.40298,-5.20661 12.21936,-8.1987c3.45484,-2.70865 4.84576,-7.25338 8.23145,-10.18093c3.07702,-2.66065 7.86253,-5.72191 10.23679,-9.25318c2.53578,-3.77149 2.63306,-8.54272 4.74619,-12.57896c1.09981,-2.10072 2.14641,-4.3177 3.81036,-6.00704c0.8223,-0.83486 2.3206,-0.56844 3.29999,-1.21183c0.99021,-0.6505 1.63725,-1.71291 2.45587,-2.56937c0,0 2.12132,-2.12132 4.24264,0c2.12132,2.12132 0,4.24264 0,4.24264c-1.18138,1.14354 -2.18176,2.51015 -3.54413,3.43063c-0.77687,0.52489 -2.02965,0.13269 -2.70001,0.78817c-4.44797,4.34925 -4.07961,12.33814 -7.44346,17.41401c-2.60067,3.92427 -7.6752,7.30726 -11.13363,10.24316c-2.65862,2.25693 -3.81822,5.24321 -5.98007,7.90467c-3.52616,4.34107 -9.53244,7.23701 -14.19871,10.21936c-1.86937,2.80406 -4.61465,5.67331 -7.54413,7.43063c-2.11717,1.27004 -4.75149,1.53864 -6.82306,2.88178c-2.4567,1.59284 -3.67699,5.27639 -5.4341,7.46824c-1.9592,2.44393 -4.38886,4.35402 -6.93777,6.10627c-3.05703,7.06935 -8.59689,12.71143 -12.41585,19.39962c-2.58935,4.53476 -4.22744,9.73105 -7.06772,14.11108c-1.39042,2.14417 -4.12524,3.61174 -4.6187,6.11917c-0.20682,1.05093 0.35735,2.22718 -0.06226,3.21265c-0.72565,1.70421 -2.33883,2.89771 -3.23076,4.52109c-0.85111,1.54909 -1.16775,3.34698 -1.96023,4.92687c-2.77683,5.53593 -6.82789,10.72097 -10.02525,16.04698c-0.73203,1.43683 -1.22853,3.02047 -2.19609,4.3105c-1.79913,2.39875 -6.28371,5.05166 -7.88177,7.82306c-0.52655,0.91316 -0.45307,2.0989 -1,3c-1.05704,1.74153 -2.72002,3.05044 -3.85701,4.74086l-0.8489,2.63063c0,0 -0.94868,2.84605 -3.79473,1.89737z" fill="#341f17" stroke-width="0.5"/><path d="M497.82327,230.77053c-1.27929,2.52275 -4.55953,6.78918 -6.57362,8.80327c-2.00198,2.00198 -5.03408,3.15145 -6.68759,5.63281c-1.35113,2.02758 -1.84703,3.95352 -2.58767,6.19455c0,0 -0.94869,2.84605 -3.79474,1.89737c-2.84605,-0.94869 -1.89736,-3.79473 -1.89736,-3.79473c1.0303,-3.06803 1.47168,-4.89541 3.41232,-7.80545c1.88786,-2.8309 5.04449,-4.09927 7.31241,-6.36719c0.78091,-0.7809 1.11397,-1.91624 1.80129,-2.78065c1.18529,-1.49067 2.78679,-2.70603 3.62508,-4.41608c2.50903,-5.11822 3.41606,-10.92378 4.6374,-16.36643c0.7441,-3.31593 2.60539,-6.25033 3.08002,-9.68207c0.55255,-3.99512 0.41483,23.27668 -2.32754,28.6846z" fill="#341f17" stroke-width="0.5"/><path d="M499.50007,140.41583c-0.91505,0 -1.84701,0.16746 -2.74946,0.04268c-1.90939,1.23727 -3.91111,2.43256 -6.09616,3.06122l-0.91174,1.13874c0,0 -4.24264,4.24264 -8.48528,0c-0.80316,-0.80317 -1.30224,-1.60634 -1.58357,-2.38072c-1.97465,-0.3015 -3.79098,-1.08432 -5.32548,-2.22495c-2.45641,2.45641 -5.37949,5.3795 -7.60566,7.60567c0,0 -4.24264,4.24264 -8.48528,0c-4.24264,-4.24264 0,-8.48529 0,-8.48529c2.66667,-2.66666 5.33333,-5.33334 8,-8l1,-1c0,0 0.93522,-0.93521 2.36657,-1.48839c0.79921,-5.53164 5.3716,-9.84252 11.02371,-10.23916c0.93905,-1.75062 4.42193,-4.58593 5.36708,-5.51508c3.22367,-3.16908 3.63564,-3.82355 8.21306,-6.2945c2.10677,-1.13726 2.46206,-0.35283 3.66435,-1.50033c3.9782,-3.79689 4.17139,35.28011 1.60786,35.28011z" fill="#87a5b6" stroke-width="0.5"/><path d="M-4.5,360.50003v-214h487.784v214z" fill="url(#color-4)" stroke-width="0"/><text transform="translate(16.5,79.07277) scale(0.45276,0.45276)" font-size="40" xml:space="preserve" fill="#ffffff" fill-rule="nonzero" stroke="none" stroke-width="1" stroke-linecap="butt" stroke-linejoin="miter" stroke-miterlimit="10" stroke-dasharray="" stroke-dashoffset="0" font-family="Sans Serif" font-weight="normal" text-anchor="start" style="mix-blend-mode: normal"><tspan x="0" dy="0">Between the border of Minnesota and Manitoba,</tspan><tspan x="0" dy="46.150000000000006px">near Two Harbors, A most strange mountain has</tspan><tspan x="0" dy="46.150000000000006px">appeared from nowhere. </tspan><tspan x="0" dy="46.150000000000006px"> </tspan><tspan x="0" dy="46.150000000000006px">It's rock looks nothing</tspan><tspan x="0" dy="46.150000000000006px">like those around it, it's placement aligns with no</tspan><tspan x="0" dy="46.150000000000006px">other mountain range, and it stands far taller than</tspan><tspan x="0" dy="46.150000000000006px">all others around it.</tspan><tspan x="0" dy="46.150000000000006px"> </tspan><tspan x="0" dy="46.150000000000006px">Many people have taken to this montain, yet none</tspan><tspan x="0" dy="46.150000000000006px">have returned, nor have their bodies been found.</tspan><tspan x="0" dy="46.150000000000006px"> </tspan><tspan x="0" dy="46.150000000000006px">It's secrets are still yet to be known.</tspan></text></g></g></g></svg>