<svg version="1.1" xmlns="http://www.w3.org/2000/svg" xmlns:xlink="http://www.w3.org/1999/xlink" width="359.33774" height="376.00001" viewBox="0,0,359.33774,376.00001"><g transform="translate(-127.15524,6.66854)"><g data-paper-data="{&quot;isPaintingLayer&quot;:true}" fill-rule="nonzero" stroke="none" stroke-width="0.5" stroke-linecap="butt" stroke-linejoin="miter" stroke-miterlimit="10" stroke-dasharray="" stroke-dashoffset="0" style="mix-blend-mode: normal"><path d="M432.02591,22.75363c0.27605,0.25442 0.50491,0.56412 0.66089,0.89191c0.423,0.88897 -0.39742,2.53762 -0.52393,3.43273c-0.17355,1.22791 0.11763,2.75806 0.39197,3.95154c0.07253,0.31548 0.76866,2.4722 0.73695,2.56307c-0.05507,0.15784 -0.13777,0.29881 -0.23861,0.42873c0.24787,0.33585 0.45796,0.68497 0.59881,1.05445c0.43771,1.14826 0.54174,4.91628 -0.79094,5.6901c-0.58539,0.3399 -3.1815,-0.50715 -3.83613,-0.70812c-2.16851,-0.6811 -4.76942,-0.67244 -7.02967,-0.97211l-0.98585,-0.13437c-0.05992,-0.00709 -0.12002,-0.01973 -0.17972,-0.03824c-0.52751,-0.16353 -0.82258,-0.72377 -0.65904,-1.25127c0.1332,-0.42968 0.52959,-0.70513 0.95709,-0.70416l1.0308,-0.02179l0.00029,0.01394c2.30703,-1.02212 4.67685,-1.85156 7.19964,-2.26589c0.02859,-0.0047 0.06711,-0.00878 0.11406,-0.01228c-2.4425,-0.55774 -4.9523,-1.21969 -7.24503,-1.95592c-0.96885,-0.31111 -2.57204,-0.62446 -2.44718,-2.21879c0.0483,-0.61667 1.00138,-0.72659 1.50839,-1.08095c0.74496,-0.52066 3.02987,-1.30234 4.99997,-1.59732c-0.59542,-0.36963 -1.19491,-0.74238 -1.85082,-1.0607c-0.62183,-0.30179 -2.38179,-0.82404 -2.8357,-1.24379c-0.54642,-0.5053 -1.38611,-1.09236 -1.28049,-1.82909c0.14376,-1.00275 2.23425,-1.29752 2.98567,-1.3734c2.55748,-0.25827 5.06095,-0.15381 7.62277,-0.42373c0,0 0.9778,-0.10231 1.09582,0.86548zM428.47521,28.66316c0.0138,0.00637 0.02758,0.01277 0.04132,0.01925c0.00448,-0.01897 0.00928,-0.03768 0.01441,-0.05606c-0.01881,0.01252 -0.03744,0.02482 -0.05573,0.03682z" data-paper-data="{&quot;index&quot;:null}" fill="#d0d0d0"/><path d="M472.32688,206.89135c0.88944,0.3993 0.50217,1.30295 0.50217,1.30295c-1.0164,2.36699 -1.65794,4.78913 -2.66193,7.15543c-0.29499,0.69525 -1.19554,2.60471 -2.1959,2.44509c-0.73496,-0.11727 -1.04705,-1.09314 -1.3679,-1.76468c-0.26652,-0.55784 -0.2442,-2.39353 -0.34832,-3.07683c-0.10982,-0.72075 -0.28834,-1.40374 -0.46508,-2.0819c-0.86513,1.79441 -2.28834,3.74537 -3.00624,4.30275c-0.4886,0.37934 -0.8758,1.25714 -1.47912,1.12066c-1.5598,-0.35284 -1.38438,-1.97692 -1.39465,-2.99444c-0.02431,-2.40791 0.08663,-5.00117 0.27715,-7.49929c-0.01725,0.04381 -0.03255,0.07939 -0.0455,0.10531c-1.14278,2.28696 -2.63677,4.30489 -4.29618,6.2058l0.01322,0.00441l-0.32604,0.97812c-0.12567,0.40862 -0.50614,0.70565 -0.95598,0.70565c-0.55228,0 -1,-0.44772 -1,-1c0,-0.0625 0.00573,-0.12366 0.0167,-0.18298l0.16357,-0.98142c0.38306,-2.24762 1.1615,-4.72932 1.15306,-7.00227c0.00187,-0.68478 -0.03844,-3.41529 0.45956,-3.87377c1.13373,-1.04378 4.70197,0.17135 5.66912,0.92944c0.31121,0.24394 0.58246,0.54799 0.82985,0.88419c0.15394,-0.05784 0.31309,-0.0951 0.48016,-0.10096c0.09618,-0.00337 1.95004,1.30017 2.22991,1.46286c1.05872,0.61544 2.43403,1.34666 3.65826,1.54449c0.89243,0.14422 2.71007,-0.15124 3.43392,0.51603c0.26691,0.24605 0.49494,0.55636 0.65621,0.89536zM464.10274,208.05916c0.01688,-0.01392 0.03414,-0.02807 0.05167,-0.04233c-0.01908,-0.00054 -0.03836,-0.0015 -0.05781,-0.00284c0.00211,0.01505 0.00416,0.0301 0.00615,0.04517z" data-paper-data="{&quot;index&quot;:null}" fill="#d0d0d0"/><path d="M155.2572,303.7091c-0.9738,-0.04746 -0.94273,-1.0301 -0.94273,-1.0301c0.08326,-2.57465 -0.20266,-5.06394 -0.13071,-7.63342c0.02114,-0.75494 0.16338,-2.86132 1.15305,-3.07748c0.72712,-0.15882 1.37358,0.63604 1.91721,1.14434c0.45158,0.42224 1.10022,2.13966 1.44635,2.73794c0.36509,0.63108 0.78037,1.20192 1.19225,1.76894c0.1512,-1.98632 0.76497,-4.32194 1.23018,-5.10272c0.31662,-0.5314 0.35706,-1.48994 0.9686,-1.58287c1.58106,-0.24026 2.00997,1.33596 2.39058,2.27967c0.90071,2.23324 1.74309,4.68837 2.47665,7.08395c0.00009,-0.04709 0.00135,-0.0858 0.00396,-0.11465c0.23012,-2.54621 0.88536,-4.96999 1.73732,-7.34512l-0.01392,0.00072l-0.05309,-1.02966c-0.03199,-0.42631 0.21396,-0.84163 0.63283,-1.00567c0.51425,-0.20139 1.09442,0.05223 1.29581,0.56648c0.02279,0.0582 0.03976,0.11722 0.05118,0.17647l0.20557,0.97349c0.46294,2.23254 0.6431,4.82721 1.47982,6.94056c0.24797,0.63831 1.28123,3.16609 0.98471,3.77461c-0.67504,1.38534 -4.44068,1.55508 -5.61768,1.20189c-0.37874,-0.11365 -0.74219,-0.29785 -1.09514,-0.52068c-0.12225,0.11 -0.25685,0.20271 -0.41028,0.2691c-0.08832,0.03822 -2.28988,-0.49953 -2.6098,-0.54896c-1.21024,-0.18698 -2.75749,-0.36632 -3.96957,-0.1041c-0.88356,0.19115 -2.46831,1.12908 -3.38565,0.77172c-0.33826,-0.13177 -0.66374,-0.33756 -0.93752,-0.59441zM162.48915,299.62267c-0.01064,0.01911 -0.02155,0.03859 -0.03267,0.05826c0.01797,-0.00645 0.03627,-0.01259 0.05487,-0.01844c-0.00745,-0.01324 -0.01484,-0.02651 -0.0222,-0.03981z" fill="#d0d0d0"/><path d="M174.59053,305.04243c-0.9738,-0.04746 -0.94273,-1.0301 -0.94273,-1.0301c0.08326,-2.57465 -0.20266,-5.06394 -0.13071,-7.63342c0.02114,-0.75494 0.16338,-2.86132 1.15305,-3.07748c0.72712,-0.15882 1.37358,0.63604 1.91721,1.14434c0.45158,0.42224 1.10022,2.13966 1.44635,2.73794c0.36509,0.63108 0.78037,1.20192 1.19225,1.76894c0.1512,-1.98632 0.76497,-4.32194 1.23018,-5.10272c0.31662,-0.5314 0.35706,-1.48994 0.9686,-1.58287c1.58106,-0.24026 2.00997,1.33596 2.39058,2.27967c0.90071,2.23324 1.74309,4.68837 2.47665,7.08395c0.00009,-0.04709 0.00135,-0.0858 0.00396,-0.11465c0.23012,-2.54621 0.88536,-4.96999 1.73732,-7.34512l-0.01392,0.00072l-0.05309,-1.02966c-0.03199,-0.42631 0.21396,-0.84163 0.63283,-1.00567c0.51425,-0.20139 1.09442,0.05223 1.29581,0.56648c0.02279,0.0582 0.03976,0.11722 0.05118,0.17647l0.20557,0.97349c0.46294,2.23254 0.6431,4.82721 1.47982,6.94056c0.24797,0.63831 1.28123,3.16609 0.98471,3.77461c-0.67504,1.38534 -4.44068,1.55508 -5.61768,1.20189c-0.37874,-0.11365 -0.74219,-0.29785 -1.09514,-0.52068c-0.12225,0.11 -0.25685,0.20271 -0.41028,0.2691c-0.08832,0.03822 -2.28988,-0.49953 -2.6098,-0.54896c-1.21024,-0.18698 -2.75749,-0.36632 -3.96957,-0.1041c-0.88356,0.19115 -2.46831,1.12908 -3.38565,0.77172c-0.33826,-0.13177 -0.66374,-0.33756 -0.93752,-0.59441zM181.82248,300.956c-0.01064,0.01911 -0.02155,0.03859 -0.03267,0.05826c0.01797,-0.00645 0.03627,-0.01259 0.05487,-0.01844c-0.00745,-0.01324 -0.01484,-0.02651 -0.0222,-0.03981z" fill="#d0d0d0"/><path d="M193.92386,305.20909c-0.9738,-0.04746 -0.94273,-1.0301 -0.94273,-1.0301c0.08326,-2.57465 -0.20266,-5.06394 -0.13071,-7.63342c0.02114,-0.75494 0.16338,-2.86132 1.15305,-3.07748c0.72712,-0.15882 1.37358,0.63604 1.91721,1.14434c0.45158,0.42224 1.10022,2.13966 1.44635,2.73794c0.36509,0.63108 0.78037,1.20192 1.19225,1.76894c0.1512,-1.98632 0.76497,-4.32194 1.23018,-5.10272c0.31662,-0.5314 0.35706,-1.48994 0.9686,-1.58287c1.58106,-0.24026 2.00997,1.33596 2.39058,2.27967c0.90071,2.23324 1.74309,4.68837 2.47665,7.08395c0.00009,-0.04709 0.00135,-0.0858 0.00396,-0.11465c0.23012,-2.54621 0.88536,-4.96999 1.73732,-7.34512l-0.01392,0.00072l-0.05309,-1.02966c-0.03199,-0.42631 0.21396,-0.84163 0.63283,-1.00567c0.51425,-0.20139 1.09442,0.05223 1.29581,0.56648c0.02279,0.0582 0.03976,0.11722 0.05118,0.17647l0.20557,0.97349c0.46294,2.23254 0.6431,4.82721 1.47982,6.94056c0.24797,0.63831 1.28123,3.16609 0.98471,3.77461c-0.67504,1.38534 -4.44068,1.55508 -5.61768,1.20189c-0.37874,-0.11365 -0.74219,-0.29785 -1.09514,-0.52068c-0.12225,0.11 -0.25685,0.20271 -0.41028,0.2691c-0.08832,0.03822 -2.28988,-0.49953 -2.6098,-0.54896c-1.21024,-0.18698 -2.75749,-0.36632 -3.96957,-0.1041c-0.88356,0.19115 -2.46831,1.12908 -3.38565,0.77172c-0.33826,-0.13177 -0.66374,-0.33756 -0.93752,-0.59441zM201.15581,301.12266c-0.01064,0.01911 -0.02155,0.03859 -0.03267,0.05826c0.01797,-0.00645 0.03627,-0.01259 0.05487,-0.01844c-0.00745,-0.01324 -0.01484,-0.02651 -0.0222,-0.03981z" fill="#d0d0d0"/><path d="M212.2572,301.04243c-0.9738,-0.04746 -0.94273,-1.0301 -0.94273,-1.0301c0.08326,-2.57465 -0.20266,-5.06394 -0.13071,-7.63342c0.02114,-0.75494 0.16338,-2.86132 1.15305,-3.07748c0.72712,-0.15882 1.37358,0.63604 1.91721,1.14434c0.45158,0.42224 1.10022,2.13966 1.44635,2.73794c0.36509,0.63108 0.78037,1.20192 1.19225,1.76894c0.1512,-1.98632 0.76497,-4.32194 1.23018,-5.10272c0.31662,-0.5314 0.35706,-1.48994 0.9686,-1.58287c1.58106,-0.24026 2.00997,1.33596 2.39058,2.27967c0.90071,2.23324 1.74309,4.68837 2.47665,7.08395c0.00009,-0.04709 0.00135,-0.0858 0.00396,-0.11465c0.23012,-2.54621 0.88536,-4.96999 1.73732,-7.34512l-0.01392,0.00072l-0.05309,-1.02966c-0.03199,-0.42631 0.21396,-0.84163 0.63283,-1.00567c0.51425,-0.20139 1.09442,0.05223 1.29581,0.56648c0.02279,0.0582 0.03976,0.11722 0.05118,0.17647l0.20557,0.97349c0.46294,2.23254 0.6431,4.82721 1.47982,6.94056c0.24797,0.63831 1.28123,3.16609 0.98471,3.77461c-0.67504,1.38534 -4.44068,1.55508 -5.61768,1.20189c-0.37874,-0.11365 -0.74219,-0.29785 -1.09514,-0.52068c-0.12225,0.11 -0.25685,0.20271 -0.41028,0.2691c-0.08832,0.03822 -2.28988,-0.49953 -2.6098,-0.54896c-1.21024,-0.18698 -2.75749,-0.36632 -3.96957,-0.1041c-0.88356,0.19115 -2.46831,1.12908 -3.38565,0.77172c-0.33826,-0.13177 -0.66374,-0.33756 -0.93752,-0.59441zM219.48915,296.956c-0.01064,0.01911 -0.02155,0.03859 -0.03267,0.05826c0.01797,-0.00645 0.03627,-0.01259 0.05487,-0.01844c-0.00745,-0.01324 -0.01484,-0.02651 -0.0222,-0.03981z" fill="#d0d0d0"/><path d="M231.7572,300.87576c-0.9738,-0.04746 -0.94273,-1.0301 -0.94273,-1.0301c0.08326,-2.57465 -0.20266,-5.06394 -0.13071,-7.63342c0.02114,-0.75494 0.16338,-2.86132 1.15305,-3.07748c0.72712,-0.15882 1.37358,0.63604 1.91721,1.14434c0.45158,0.42224 1.10022,2.13966 1.44635,2.73794c0.36509,0.63108 0.78037,1.20192 1.19225,1.76894c0.1512,-1.98632 0.76497,-4.32194 1.23018,-5.10272c0.31662,-0.5314 0.35706,-1.48994 0.9686,-1.58287c1.58106,-0.24026 2.00997,1.33596 2.39058,2.27967c0.90071,2.23324 1.74309,4.68837 2.47665,7.08395c0.00009,-0.04709 0.00135,-0.0858 0.00396,-0.11465c0.23012,-2.54621 0.88536,-4.96999 1.73732,-7.34512l-0.01392,0.00072l-0.05309,-1.02966c-0.03199,-0.42631 0.21396,-0.84163 0.63283,-1.00567c0.51425,-0.20139 1.09442,0.05223 1.29581,0.56648c0.02279,0.0582 0.03976,0.11722 0.05118,0.17647l0.20557,0.97349c0.46294,2.23254 0.6431,4.82721 1.47982,6.94056c0.24797,0.63831 1.28123,3.16609 0.98471,3.77461c-0.67504,1.38534 -4.44068,1.55508 -5.61768,1.20189c-0.37874,-0.11365 -0.74219,-0.29785 -1.09514,-0.52068c-0.12225,0.11 -0.25685,0.20271 -0.41028,0.2691c-0.08832,0.03822 -2.28988,-0.49953 -2.6098,-0.54896c-1.21024,-0.18698 -2.75749,-0.36632 -3.96957,-0.1041c-0.88356,0.19115 -2.46831,1.12908 -3.38565,0.77172c-0.33826,-0.13177 -0.66374,-0.33756 -0.93752,-0.59441zM238.98915,296.78933c-0.01064,0.01911 -0.02155,0.03859 -0.03267,0.05826c0.01797,-0.00645 0.03627,-0.01259 0.05487,-0.01844c-0.00745,-0.01324 -0.01484,-0.02651 -0.0222,-0.03981z" fill="#d0d0d0"/><path d="M250.92386,300.04243c-0.9738,-0.04746 -0.94273,-1.0301 -0.94273,-1.0301c0.08326,-2.57465 -0.20266,-5.06394 -0.13071,-7.63342c0.02114,-0.75494 0.16338,-2.86132 1.15305,-3.07748c0.72712,-0.15882 1.37358,0.63604 1.91721,1.14434c0.45158,0.42224 1.10022,2.13966 1.44635,2.73794c0.36509,0.63108 0.78037,1.20192 1.19225,1.76894c0.1512,-1.98632 0.76497,-4.32194 1.23018,-5.10272c0.31662,-0.5314 0.35706,-1.48994 0.9686,-1.58287c1.58106,-0.24026 2.00997,1.33596 2.39058,2.27967c0.90071,2.23324 1.74309,4.68837 2.47665,7.08395c0.00009,-0.04709 0.00135,-0.0858 0.00396,-0.11465c0.23012,-2.54621 0.88536,-4.96999 1.73732,-7.34512l-0.01392,0.00072l-0.05309,-1.02966c-0.03199,-0.42631 0.21396,-0.84163 0.63283,-1.00567c0.51425,-0.20139 1.09442,0.05223 1.29581,0.56648c0.02279,0.0582 0.03976,0.11722 0.05118,0.17647l0.20557,0.97349c0.46294,2.23254 0.6431,4.82721 1.47982,6.94056c0.24797,0.63831 1.28123,3.16609 0.98471,3.77461c-0.67504,1.38534 -4.44068,1.55508 -5.61768,1.20189c-0.37874,-0.11365 -0.74219,-0.29785 -1.09514,-0.52068c-0.12225,0.11 -0.25685,0.20271 -0.41028,0.2691c-0.08832,0.03822 -2.28988,-0.49953 -2.6098,-0.54896c-1.21024,-0.18698 -2.75749,-0.36632 -3.96957,-0.1041c-0.88356,0.19115 -2.46831,1.12908 -3.38565,0.77172c-0.33826,-0.13177 -0.66374,-0.33756 -0.93752,-0.59441zM258.15581,295.956c-0.01064,0.01911 -0.02155,0.03859 -0.03267,0.05826c0.01797,-0.00645 0.03627,-0.01259 0.05487,-0.01844c-0.00745,-0.01324 -0.01484,-0.02651 -0.0222,-0.03981z" fill="#d0d0d0"/><path d="M270.09053,300.2091c-0.9738,-0.04746 -0.94273,-1.0301 -0.94273,-1.0301c0.08326,-2.57465 -0.20266,-5.06394 -0.13071,-7.63342c0.02114,-0.75494 0.16338,-2.86132 1.15305,-3.07748c0.72712,-0.15882 1.37358,0.63604 1.91721,1.14434c0.45158,0.42224 1.10022,2.13966 1.44635,2.73794c0.36509,0.63108 0.78037,1.20192 1.19225,1.76894c0.1512,-1.98632 0.76497,-4.32194 1.23018,-5.10272c0.31662,-0.5314 0.35706,-1.48994 0.9686,-1.58287c1.58106,-0.24026 2.00997,1.33596 2.39058,2.27967c0.90071,2.23324 1.74309,4.68837 2.47665,7.08395c0.00009,-0.04709 0.00135,-0.0858 0.00396,-0.11465c0.23012,-2.54621 0.88536,-4.96999 1.73732,-7.34512l-0.01392,0.00072l-0.05309,-1.02966c-0.03199,-0.42631 0.21396,-0.84163 0.63283,-1.00567c0.51425,-0.20139 1.09442,0.05223 1.29581,0.56648c0.02279,0.0582 0.03976,0.11722 0.05118,0.17647l0.20557,0.97349c0.46294,2.23254 0.6431,4.82721 1.47982,6.94056c0.24797,0.63831 1.28123,3.16609 0.98471,3.77461c-0.67504,1.38534 -4.44068,1.55508 -5.61768,1.20189c-0.37874,-0.11365 -0.74219,-0.29785 -1.09514,-0.52068c-0.12225,0.11 -0.25685,0.20271 -0.41028,0.2691c-0.08832,0.03822 -2.28988,-0.49953 -2.6098,-0.54896c-1.21024,-0.18698 -2.75749,-0.36632 -3.96957,-0.1041c-0.88356,0.19115 -2.46831,1.12908 -3.38565,0.77172c-0.33826,-0.13177 -0.66374,-0.33756 -0.93752,-0.59441zM277.32248,296.12267c-0.01064,0.01911 -0.02155,0.03859 -0.03267,0.05826c0.01797,-0.00645 0.03627,-0.01259 0.05487,-0.01844c-0.00745,-0.01324 -0.01484,-0.02651 -0.0222,-0.03981z" fill="#d0d0d0"/><path d="M292.94128,89.53732c-0.57013,-0.8866 -0.30902,-2.20398 -1,-3c-3.09485,-3.56533 -6.82697,-6.52431 -10.16536,-9.8627c-3.12928,-3.12928 -5.9127,-6.61473 -9.23529,-9.53794c-0.59823,-0.52632 -1.60273,-0.24972 -2.30896,-0.61868c-0.69869,-0.36502 -1.09208,-1.19015 -1.80346,-1.52979c-0.85348,-0.40748 -4.94839,1.17149 -5.40027,1.23996c-1.41146,0.21387 -2.85403,0.08305 -4.28146,0.1033c-6.26741,0.08891 -12.5641,-0.57487 -18.52982,-2.41053c-5.449,-2.15506 -11.07975,-0.75484 -16.75164,-1.69277c-5.16989,-0.85492 -9.92764,-3.83157 -15,-5c-0.72027,-0.16591 -1.47944,0.15358 -2.21564,0.08784c-0.70892,-0.0633 -8.07005,-1.32996 -10.7146,-1.02347c-1.54286,0.17881 -3.28979,-0.01692 -4.58245,0.84414c-1.1294,0.75231 -1.86236,2.14092 -3.14438,2.58583c-2.55159,0.8855 -5.41544,0.13249 -8.084,0.54902c-4.20144,0.65581 -6.67149,8.05994 -10.97747,8.05994c-3.07795,0 -7.60033,4.76918 -10.06147,3.39104c-2.60341,-1.45782 -4.87175,-3.72616 -6.32957,-6.32957c-0.99214,-1.77179 -0.4728,-4.03538 -0.60896,-6.06147c-0.27939,-4.15732 0.73373,-6.93111 3.34315,-9.85685c1.71017,-1.9175 4.92285,-1.47401 7.3754,-2.23985c1.00618,-0.31419 5.2602,-7.60728 10.56292,-9.6c5.30272,-1.99272 3.22334,2.64817 6,2c2.77666,-0.64817 11.45836,-7.3033 16.71854,-7.3033c10.33333,0 20.66667,0 31,0c3.75263,0 8.74426,-0.71355 12.31827,0.34326c1.55657,0.46027 2.74112,1.75153 4.19654,2.47021c1.85639,0.91669 4.73413,1.94457 6.76665,2.28982c3.90891,0.66399 8.71517,-0.10335 12.69601,-0.04336c2.38595,0.59649 4.88302,0.61042 7.30399,1.04336c2.07526,0.37112 3.92159,1.64695 6,2c1.55101,0.26346 3.14532,-0.1033 4.71854,-0.1033c4.33333,0 8.66667,0 13,0c2.97026,0 6.03717,-0.19911 9,0c2.02609,0.13616 4.31469,-0.42657 6.06147,0.60896c2.97217,1.76197 5.47807,4.41233 7.32957,7.32957c0.91339,1.43914 0.27177,3.40218 0.54902,5.084c0.71145,4.31568 2.20385,7.86272 5.24668,10.90555c2.60031,3.95025 5.97393,9.23518 5.09875,14.40313c1.84809,0.54996 3.41633,1.74976 4.43974,3.33442l0.24258,0.36387c1.66986,-0.01943 3.34621,-0.02951 5.03219,-0.02951c2.34818,0 7.45221,-0.09996 9.06147,0.60896c4.77012,2.10138 4.57142,4.06984 7.12527,7.31913c3.52972,4.4909 9.32142,6.00341 12.61847,10.86606c0.59155,0.87245 0.45767,2.09612 1,3c0.48507,0.80845 1.51493,1.19155 2,2c0.17137,0.28561 0.28013,0.60001 0.36586,0.92501c0.36001,0.1271 0.70902,0.27692 1.03479,0.47564c1.40449,0.85673 2.65896,2.85652 4.30896,3.61868c1.2048,0.55652 2.53254,0.80174 3.76665,1.28982c6.73231,-0.40467 17.0224,-1.62442 22.3754,3.23985c1.36282,1.23839 3.15926,6.69749 3.93261,9.12703c0.44941,1.41185 1.0655,2.78657 1.30723,4.24836c0.3263,1.9732 -0.37339,4.03516 0,6c0.1968,1.03556 0.84208,1.9578 1,3c0.30287,1.99887 0.34218,4.12272 0.29957,6.25897h0.2172l1.33333,-0.33333h0.16718l0.16823,-0.03738l0.05608,0.03738h1.20321l0.61675,-0.15419h0.73863l0.71658,-0.17914h1.02633l0.0763,-0.02543l0.59585,-0.04583l0.55731,-0.21573l2.66667,-0.33333l0.37639,0.04562l0.36782,-0.09196h0.18335l0.48845,-0.32564l0.35705,-0.12752l0.28787,-0.24674l0.66667,-0.33333l0.42157,-0.09368l0.36434,-0.23185l1,-0.33333l0.86667,-0.06667l0.39547,-0.13182l2.28528,-1.14264l0.42157,-0.09368l0.28608,-0.18205l0.18205,-0.28608l0.09368,-0.42157l0.03878,-0.07757l0.17359,-0.69437l0.11071,-0.20758l0.01804,-0.23457l0.88187,-2.64562l0.26007,-1.30037l0.16231,-0.34264l0.02908,-0.37803l0.45511,-1.36533l0.23699,-2.36989v-5.97593l-0.03738,-0.05608l0.03738,-0.16823v-0.16718l0.33437,-1.33747l0.17811,-0.80149v-0.64958l0.15419,-0.61675v-1.5947l0.10474,-0.41896l-0.04444,-0.42956l0.27303,-1.91121v-2.24026l0.23393,-0.9357l0.07397,-0.96166l0.02543,-0.0763v-1.02633l0.23393,-0.9357l0.07397,-0.96166l0.02543,-0.0763v-4.96818l-0.03738,-0.05608l0.03738,-0.16823v-0.16718c0,0 0.76388,-4.31927 0.77838,-8.83359c0.01069,-3.32784 -0.7558,-9.96193 -0.78779,-18.25013c-0.02319,-6.00684 1.22848,-12.88252 1.2456,-19.99808c0.01033,-4.2947 -0.7558,-8.67679 -0.79019,-13.00799c-0.04955,-6.24143 0.91971,-12.37716 0.90118,-17.99339c-0.021,-6.36492 -0.96107,-12.06259 -1.17099,-16.49067c-0.27845,-5.87377 0.15818,-9.51361 0.15818,-9.51361l0.29907,-1.34581l0.07477,-0.14953l0.0418,-0.16718l0.05851,-0.03344l55.19148,0.70011l-1.67702,115.76899l-0.01663,0.05304l0.00931,0.0548l-0.66667,8.66667l-0.06319,0.18958l0.02056,0.19877l-0.62875,4.40124l-0.31095,5.90802v32.9822l0.6285,9.74172l0.18173,0.90864c0,0 1.16141,36.58712 1.18977,37.54348c0.11563,3.89954 1.30218,95.20131 1.24217,95.99374c0.01418,0.09737 0.02954,0.19638 0.0462,0.29709c0.98547,5.95621 -0.02722,53.53935 -2.20956,55.06811c-1.46714,1.02775 -46.99044,0.75762 -50.9652,-4.8788c-1.81371,-2.57194 -0.47959,-4.83645 -0.7496,-7.36497c-0.31204,-2.92209 -0.47124,-5.63401 -1.60006,-8.36288c0,0 -2.22834,-5.57086 3.34252,-7.7992c1.186,-0.4744 2.22051,-0.59531 3.11427,-0.49174l0.00003,-0.00013c-0.15757,-1.05794 -0.37086,-2.11702 0.00922,-3.07881c0.60358,-1.52733 2.28558,-2.3611 3.36221,-3.60123c2.53182,-2.91631 3.87247,-6.6389 6.79429,-9.27516c2.34477,-2.11561 4.58562,-6.15267 7.11448,-8.12902c2.5643,-1.13468 6.30202,-9.1057 9.75652,-9.75594c3.3915,-0.63839 7.27747,-1.9165 10.82502,-2.06331c0.02536,-6.53471 -1.38534,-13.30883 -1.41584,-19.83409c-0.01622,-3.46957 1.26751,-7.07423 1.33333,-10.55473c0.11091,-5.86424 0.51478,-12.13222 0.33333,-17.99377c-0.21006,-6.78585 0.00397,-13.71864 -0.66667,-20.43768c-0.57395,-5.7503 -1.6072,-11.60395 -1.66667,-17.4053c-0.00803,-0.78351 -0.10337,-2.67946 -0.10845,-4.66617h-2.55822l-0.9357,-0.23393l-0.96166,-0.07397l-0.10288,-0.03429l-0.08245,0.04122l-1.2728,-0.45457l-13.89192,-6.44179l-1.26261,-0.25252l-0.08188,-0.03878l-0.09058,0.00165l-4.15306,-0.9584l-1.81751,-0.30292l-0.82195,-0.35737l-0.87494,-0.19443l-0.66667,-0.33333l-0.28787,-0.24674l-0.35705,-0.12752l-1.23125,-0.82083l-1.14106,-0.16301l-0.07149,0.01787l-1.53553,0.51184l-0.0258,0.04516l-0.16718,0.0418l-0.14953,0.07477l-1.34581,0.29907l-1.33747,0.33437h-0.16718l-0.16823,0.03738l-0.05608,-0.03738h-0.60851l-0.71658,-0.17914h-0.73863l-1.33333,-0.33333l-0.906,-0.4832l-0.96698,-0.34535l-0.68919,-0.45946l-21.86077,-9.01831l-0.78335,-0.52223l-0.40199,-0.44219l-0.51244,-0.30747l-0.24028,-0.24028l-1.07876,-0.4315l-0.5088,-0.36747l-0.59106,-0.21109l-2,-1.33333l-0.40199,-0.44219l-0.51244,-0.30747l-0.66667,-0.66667l-0.22219,-0.37031l-0.33517,-0.27233l-5.67419,-6.01578c-0.92029,-0.04266 -1.82214,-0.15948 -2.66742,-0.50397c-5.70934,-2.32681 -8.71139,-8.91457 -11.12505,-13.87622c-1.09578,-2.25253 -3.10881,-3.99089 -4.12959,-6.27838c-0.56007,-1.25507 -0.46024,-2.73606 -1,-4c-1.45263,-3.40162 -3.66806,-6.65145 -5.07492,-10.17496c-0.61945,-1.55142 -1.18826,-3.13993 -1.50566,-4.78001c-0.36129,-1.86685 0.11371,-4.2819 -0.90851,-6.07561c-0.81693,-1.43349 -4.253,-3.98085 -5.38153,-5.13394c-0.47627,-0.72352 -0.98704,-1.42667 -1.48301,-2.13855c-3.60156,2.37526 -7.90797,0.22206 -7.90797,0.22206l-0.95211,-0.56595c-1.5951,-0.5317 -3.094,-1.41119 -4.75164,-1.69277c-5.7761,-0.98116 -12.21415,1.24426 -18,0c-2.04744,-0.44031 -4.06354,-1.13071 -5.92439,-2.09149c-0.83774,-0.43254 -1.21551,-1.47706 -2,-2c-2.94123,-1.9606 -7.86474,0.05379 -10.85562,-1.41417c-7.63459,-3.74716 -8.80437,-12.32299 -8.92644,-19.80584c-3.05132,-1.96389 -5.84931,-4.31896 -7.8173,-7.37934zM465.82659,130.27012v-0.06845l-0.09167,0.00733z" fill="#999999"/><path d="" data-paper-data="{&quot;index&quot;:null}" fill="#b3cedd"/><path d="" data-paper-data="{&quot;index&quot;:null}" fill="#999999"/><path d="M445.40572,128.56482c-4.02492,-2.01246 -2.01246,-6.03738 -2.01246,-6.03738l3.6019,-4.25662c0.75245,-0.25082 6.26349,-2.10446 6.7022,-2.17282c0.66494,-0.10362 1.36597,0.5135 1.99874,0.28444c0.49603,-0.17956 0.46891,-0.9789 0.86912,-1.32258c2.55975,-2.19816 5.55367,-4.37345 8.3568,-6.26418c0,0 3.74423,-2.49615 6.24038,1.24808c2.49615,3.74423 -1.24808,6.24038 -1.24808,6.24038c-2.67594,1.75732 -5.09756,3.79368 -7.6432,5.73582c-1.09175,0.83292 -1.86269,2.15076 -3.13088,2.67742c-1.23487,0.51282 -2.68448,0.05206 -4.00126,0.28444c-1.83958,0.32464 -3.52564,1.23646 -5.2978,1.82718l1.6019,-0.25661c0,0 -2.01246,4.02492 -6.03738,2.01246z" data-paper-data="{&quot;index&quot;:null}" fill="#6c6c6c"/><path d="M475.41818,134.03991c4.5,0 4.5,4.5 4.5,4.5l-0.23093,3.42302c-0.8793,1.74252 -1.06511,4.07173 -2.63788,5.22756c-1.97596,1.45214 -5.03467,-0.21406 -7.32717,0.65632c-0.86406,0.32805 -1.37794,1.2714 -2.20906,1.67569c-2.00905,0.97728 -4.16266,1.62413 -6.24399,2.43621c-1.28366,0.02706 -2.5687,0.14654 -3.85098,0.0812c-0.44044,-0.02245 -0.88412,-0.54106 -1.27792,-0.34254c-0.64047,0.32287 -0.74479,1.29561 -1.35629,1.67047c-1.27813,0.78351 -3.04873,0.93487 -3.96625,2.12048c-0.7858,1.01541 -5.55239,7.58548 -6.27618,8.01913c-1.99329,1.19425 -4.75007,0.08203 -6.90621,0.94836c-1.66049,0.66718 -1.55813,3.23698 -2.56655,4.71529c-0.66679,0.97747 -1.63562,1.71043 -2.46861,2.55078c-2.41651,2.43785 -4.49469,4.8927 -7.87795,6.12493c-0.90531,0.32973 -1.91571,0.35683 -2.88914,0.24108c0.29063,1.40388 -1.10118,3.73411 -1.14582,3.87503c0,0 -1.42302,4.26907 -5.6921,2.84605c-4.26907,-1.42302 -2.84605,-5.6921 -2.84605,-5.6921c0.83409,-2.31698 0.00164,-5.35076 1.61849,-7.20817c1.43619,-1.64987 3.84679,-2.14294 5.92977,-2.8107c0.76833,-0.24631 1.63753,0.34414 2.4168,0.13498c1.82137,-0.48886 2.78041,-2.54978 4.12204,-3.87507c2.78156,-2.74766 3.19484,-6.73099 6.96483,-8.73392c1.72958,-0.91889 3.72998,-1.26318 5.66732,-1.55038c0.49827,-0.07387 0.99525,0.7591 1.42647,0.49875c0.48294,-0.29157 0.15166,-1.15264 0.44984,-1.63154c0.95911,-1.54044 2.08092,-2.98206 3.27398,-4.34934c0.91667,-1.05053 1.861,-2.12547 3.03375,-2.87952c0.88664,-0.57008 2.09213,-0.46439 3,-1c1.01162,-0.5968 1.53958,-1.92899 2.64371,-2.32953c1.49752,-0.54325 4.9345,-0.33452 6.8711,-0.26135c2.6125,-1.0877 4.84473,-3.04776 7.54696,-3.88811c1.27006,-0.39497 2.6595,-0.39529 3.98756,-0.23451l-0.18354,-0.45858c0,0 0,-4.5 4.5,-4.5z" data-paper-data="{&quot;index&quot;:null}" fill="#6c6c6c"/><path d="M478.44311,171.52745c2.01246,4.02492 -2.01246,6.03738 -2.01246,6.03738l-0.26824,-0.52877c-1.00425,1.36001 -1.65446,3.07346 -3.01276,4.08003c-1.43192,1.06113 -3.27211,1.47351 -5.01065,1.86571c-0.65647,0.1481 -1.37677,-0.54138 -1.99874,-0.28444c-0.66291,0.27386 -0.74479,1.29561 -1.35629,1.67047c-0.89868,0.5509 -2.09213,0.46439 -3,1c-1.01162,0.5968 -1.53958,1.92899 -2.64371,2.32953c-1.48356,0.53818 -3.14522,0.27848 -4.72208,0.34254c-0.61065,0.02481 -1.25214,0.1426 -1.85066,0.0507c0.67616,1.77453 -0.94879,2.56317 -2.4051,4.94545c0,0 -2.49616,3.74423 -6.24038,1.24808c-3.74422,-2.49615 -1.24807,-6.24037 -1.24807,-6.24037c0.47911,-0.60262 1.18866,-1.07927 1.43731,-1.80788c0.47118,-1.38071 -0.33299,-3.25497 0.65633,-4.32717c2.61921,-2.83864 6.25562,-3.06198 9.65059,-2.8688c0.4403,0.02506 0.88412,0.54106 1.27792,0.34254c0.64047,-0.32287 0.74479,-1.29561 1.35629,-1.67047c0.89868,-0.5509 2.09213,-0.46439 3,-1c1.01162,-0.5968 1.5507,-1.89956 2.64371,-2.32953c1.5535,-0.61111 3.83314,0.78423 4.99061,-0.41872c0.49896,-0.51857 0.65817,-1.27998 0.98725,-1.91997l3.73176,-2.52878c0,0 4.02492,-2.01245 6.03738,2.01247z" data-paper-data="{&quot;index&quot;:null}" fill="#6c6c6c"/><path d="" data-paper-data="{&quot;index&quot;:null}" fill="#6c6c6c"/><path d="" data-paper-data="{&quot;index&quot;:null}" fill="#6c6c6c"/><path d="" data-paper-data="{&quot;index&quot;:null}" fill="#6c6c6c"/><path d="" data-paper-data="{&quot;index&quot;:null}" fill="#6c6c6c"/><path d="" data-paper-data="{&quot;index&quot;:null}" fill="#6c6c6c"/><path d="" data-paper-data="{&quot;index&quot;:null}" fill="#6c6c6c"/><path d="" data-paper-data="{&quot;index&quot;:null}" fill="#6c6c6c"/><path d="M441.67557,88.52309c2.30997,-5.10562 4.89486,-14.55006 11.28489,-15.97006c2.94338,-0.65408 6.01933,2.55091 9.06956,2.75606c1.26137,0.08484 4.10514,0.41867 5.13128,-1.03268c1.368,-1.93486 1.07967,-2.8954 1.8802,-4.79846c0.94079,-2.23649 1.15025,-4.64469 2.02128,-6.90493c2.00502,-5.20287 11.0405,-10.657 13.25329,-2.54344c0.74298,2.72428 -3.13565,5.59853 -4.24684,7.56626c-4.0941,7.24997 -1.64921,14.49111 -12.45318,17.45667c-2.99077,0.82093 -6.55403,0.36694 -9.56172,-0.34051c-0.74704,-0.17572 -2.92494,-1.26477 -3.05034,-1.08346c-4.35185,6.29182 -6.10075,14.21368 -10.87786,20.41125c-1.15641,1.50027 -6.02747,4.63086 -7.62889,1.82838c-1.47371,-0.86976 -2.46233,-2.47396 -2.46233,-4.30908c0,-1.93531 1.09952,-3.6138 2.70797,-4.44489c1.78189,-2.81412 3.59868,-5.64264 4.93268,-8.59111z" fill="#6c6c6c"/><path d="M474.65993,18.05907c2.28774,4.06703 -1.79338,8.34858 -4.01573,11.2118c-5.54524,7.14432 -9.20057,16.06593 -18.02813,20.03162c-5.26001,2.36301 -8.42771,-3.17061 -6.08634,-7.85334c0.48929,-0.97857 4.33515,-2.57496 5.23861,-3.44455c2.17373,-2.09224 3.94941,-4.31356 5.79048,-6.72929c2.50527,-3.28725 4.31965,-6.8428 6.72958,-10.13857c0.69709,-0.95332 0.66206,-2.52939 1.68745,-3.11533c0.86976,-1.47371 2.47396,-2.46233 4.30908,-2.46233c1.62714,0 3.07275,0.77725 3.98581,1.98072c0.14902,0.15393 0.28022,0.32556 0.38919,0.51928z" fill="#6c6c6c"/><path d="M451.78493,10.55907c1.26536,0.72306 3.00867,0.97138 3.98581,1.98072c0.14902,0.15393 0.28022,0.32556 0.38919,0.51928c0.19865,0.35315 0.34056,0.72711 0.43177,1.11875c0.12583,0.4387 0.19323,0.90211 0.19323,1.38125c0,0.69585 -0.14215,1.3585 -0.39899,1.9605c-1.43091,5.05808 -7.0616,11.25744 -8.95803,14.46759c-1.19517,2.02309 -0.16557,4.83406 -2.84789,6.26454c-3.03509,1.61861 -7.19471,-0.74864 -7.82624,-3.91312c-0.68888,-3.45182 5.5519,-13.84465 7.78599,-16.10542c0.54654,-0.55306 2.52453,-4.97659 2.93608,-5.21176z" fill="#6c6c6c"/><path d="M445.22037,66.9447c-2.84846,2.62714 -8.83318,7.74926 -11.90758,1.60045c-0.75116,-1.50231 -0.25164,-3.43771 0.27951,-5.03115c0.14762,-0.44287 2.96525,-2.6242 5.40844,-4.22305c0.75572,-0.87428 1.80932,-1.48393 3.00306,-1.6712c0.23488,-0.07837 0.4086,-0.10055 0.50353,-0.05308c0.09189,-0.00503 0.18445,-0.00758 0.2776,-0.00758c2.76142,0 5,2.23858 5,5c0,0.86565 -0.21998,1.67992 -0.6071,2.38995c-0.44284,0.81225 -1.10439,1.48809 -1.90552,1.94841c-0.0192,0.0173 -0.03656,0.03308 -0.05193,0.04726z" fill="#6c6c6c"/><path d="M461.53493,93.68408c0.10833,-0.06094 0.23039,-0.1084 0.362,-0.14614c0.64823,-0.30708 1.37306,-0.47886 2.138,-0.47886c0.13641,0 0.27155,0.00546 0.40521,0.01618c0.00804,-0.00529 0.01595,-0.01068 0.02372,-0.01618c1.84843,-1.30704 3.13585,-3.20659 5.34037,-4.09122c4.95063,-1.98659 8.19666,1.85867 6.82191,6.89943c-0.33505,1.2285 -2.27914,1.91797 -3.2284,2.56464c-3.5444,2.4146 -3.81386,5.48938 -8.64257,4.6822c-0.17732,-0.02964 -0.38215,-0.04541 -0.6015,-0.05644c-0.03947,0.00092 -0.07905,0.00138 -0.11875,0.00138c-0.1782,0 -0.35423,-0.00932 -0.52762,-0.02751c-2.51341,-0.26359 -4.47238,-2.38927 -4.47238,-4.97249c0,-1.62714 0.77725,-3.07275 1.98072,-3.98581c0.15393,-0.14902 0.32556,-0.28022 0.51928,-0.38919z" fill="#6c6c6c"/><path d="M479.49545,301.81703c0,5 -5,5 -5,5l-2.19909,-0.06456c-1,0.33333 -1.95608,0.85391 -3,1c-0.63176,0.08841 -1.29838,-0.56077 -1.88749,-0.31604c-0.63981,0.26579 -0.67578,1.30349 -1.28476,1.63386c-1.49791,0.81262 -2.48991,2.25418 -5.32625,2.68218c-1.0423,0.15728 -1.95608,0.85391 -3,1c-0.63176,0.08841 -1.27084,-0.47939 -1.88749,-0.31604c-0.31932,0.08459 -0.16747,0.66149 -0.37788,0.91614c-0.99502,1.20425 -1.45018,2.77105 -2.28228,4.09312c-1.00441,1.59584 -3.04372,2.37486 -4,4c-1.1495,1.95351 -0.93252,4.58351 -2.27972,6.40632c-0.71434,0.96652 -2.24361,1.06603 -3,2c-0.56471,0.69729 -0.24471,1.8328 -0.72028,2.59368c-0.70306,1.12484 -1.73368,2.01738 -2.71772,2.90688c-0.24506,0.22152 -0.80268,0.06763 -0.91613,0.37788c-0.1318,0.36043 0.34501,0.70447 0.3806,1.08658c0.09274,0.99569 0,2 0,3c0,0 0,5 -5,5c-5,0 -5,-5 -5,-5c0,-1.7314 -0.07723,-6.78544 0.38061,-7.91342c0.80561,-1.98482 3.30621,-2.85377 4.36614,-4.71524c0.60017,-1.05403 0.52688,-2.45531 1.27972,-3.40632c0.74596,-0.94233 2.19068,-1.11149 3,-2c0.35089,-0.38522 0.07695,-1.04813 0.23012,-1.54617c0.42262,-1.37419 0.74589,-2.81745 1.49016,-4.04751c0.97615,-1.61329 3.0817,-2.35309 4,-4c0.51335,-0.92064 0.43852,-2.10789 1,-3c0.695,-1.10424 5.42028,-5.58654 6.33984,-5.99075c1.25865,-0.55326 2.76058,-0.06589 4.1125,-0.31604c1.0365,-0.19178 1.95559,-0.85748 3,-1c3.40364,-0.46448 3.26861,-3.24501 4.386,-3.68396c2.24413,-0.88157 4.82515,-0.55359 7.1125,-1.31604l3.80091,-0.06456c0,0 5,0 5,5z" fill="#b3cedd"/><path d="M470.89295,318.30395c1.52161,1.42033 4.32246,2.25486 4.91992,4.10386c0.06262,0.19379 0.10103,0.39872 0.11124,0.61663c0.00467,0.09978 -0.0063,0.2175 -0.03166,0.35156c-0.02019,1.42936 -0.64016,2.71366 -1.61956,3.61256c-2.54646,4.57816 -7.19228,11.21558 -7.71015,11.88158c-1.11113,1.42897 -2.80561,3.6703 -4.36979,4.60881c-2.79951,1.67971 -6.31401,0.85327 -9.31484,1.625c-0.98622,0.25363 -0.24191,2.03274 -0.537,3.00735c-0.55901,1.84628 -2.03684,7.12111 -4.92234,6.85401c-1.67249,-0.15482 -3.67368,-0.13814 -4.86136,-1.32583c-3.05305,-3.05305 1.24427,-13.78179 4.2,-16.67107c2.8815,-2.81671 7.88969,-0.05222 10.43189,-2.43371c3.55768,-3.3328 5.07802,-8.43852 8.11189,-12.13925c0.59623,-0.72728 2.1248,-3.2468 2.87289,-3.28836z" fill="#6c6c6c"/><path d="M355.74648,364.33147c-12.33333,0 -28.66667,0 -41,0c-16,0 -32,0 -48,0c-0.46469,0 -24.09335,0.00314 -24.34081,-0.00969c-14.13474,-0.73268 -28.13442,-2.86354 -42.36031,-1.99776c-7.7585,0.47218 -15.41531,2.11401 -22.98255,3.86128c-5.60241,1.29359 -10.58973,3.07721 -16.31633,3.14617c0,0 -5.53968,0 -5.97316,-5.32294c-2.02684,-1.76682 -2.02684,-4.67706 -2.02684,-4.67706c0,-8 0,-17 0,-25c0,-2.85474 0.58672,-6.25738 0.07748,-9.03891c-0.59864,-3.2698 -1.7968,-6.69495 -1,-9.92219c0.61557,-2.49321 1.49441,-5.20074 3.41426,-6.90636c1.40711,-1.25009 3.71683,-0.61626 5.54717,-1.05507c3.13011,-0.75042 6.71045,-3.25048 9.96109,-3.07748c2.14358,0.11409 4.10292,1.26406 6.15439,1.8961c0.66667,0.66667 1.25558,1.42144 2,2c0.74944,0.58247 1.89656,0.1185 2.84561,0.1039c2.99516,-0.04605 6.00465,-0.03334 9,0c2.34785,0.02613 4.65149,0.65463 6.96109,1.07748c2.88685,0.52853 5.36357,-0.57988 8.07781,-1c4.90038,-0.75851 10.13065,0.71422 15,0c3.47889,-0.51027 6.00613,-3.93859 9.22239,-4.82003c4.10506,-1.12502 5.86019,-0.12983 9.41623,0.98183c3.26686,0.81671 6.71913,2.32881 10.05557,2.80568c3.23757,0.46273 6.99617,-0.04495 10.2669,-0.04495c2.71011,0 6.33283,0.53398 9.03891,0.07748c2.07881,-0.35069 3.92383,-1.634 6,-2c3.32512,-0.58617 6.88049,-0.57085 10.22799,-1.03252c3.04008,-0.41927 5.9958,-1.88366 8.98724,-2.62532c-0.14784,-1.27091 0.15529,-2.74275 -0.09921,-3.99748c-0.20953,-1.03306 -0.84793,-1.95693 -1,-3c-0.31047,-2.12959 0.2842,-4.33241 -0.06504,-6.45599c-0.22303,-1.35615 -0.89657,-2.62953 -1,-4c-0.21043,-2.78828 -0.19532,-5.60432 0.06504,-8.38839c0.12926,-1.38212 1.04258,-2.70379 0.84505,-4.07781c0,-8.66667 0,-17.33333 0,-26c0,-3.62624 0.42039,-7.48154 0.15495,-11.07781c-0.12636,-1.71191 -1.35079,-3.17338 -1.75295,-4.84217c-0.54877,-2.27721 -1.07356,-4.57078 -1.3436,-6.89756c-0.67995,-5.85858 -0.24857,-12.03464 2.16182,-17.45467c0.23958,-0.53873 1.05214,-0.66779 1.29468,-1.20519c0.1006,-0.2229 -0.49876,-0.27858 -0.5149,-0.52259c-0.10828,-1.63797 -0.13687,-3.30679 0.15495,-4.92219c0.35177,-1.9473 1.17233,-3.78001 1.7585,-5.67001c1.11722,-2.14144 1.89543,-4.49731 3.35165,-6.42432c1.50916,-1.99706 3.40896,-3.70912 5.42613,-5.19129c0.84944,-0.62415 2.09502,-0.45951 3,-1c1.01711,-0.60745 1.53184,-1.97093 2.64648,-2.37229c3.42897,-1.23469 7.02966,-2.12629 10.6623,-2.4199c1.78959,-0.14465 7.51501,0.90587 10.07781,1.15495c3.97799,0.38663 8.84537,-1.4207 11.93871,1.11014c3.52806,2.88652 3.68249,8.36608 4.98348,12.73491c0.38054,1.27788 0,2.66667 0,4c0,3.84937 -0.4444,7.99629 -0.0584,11.81755c0.14671,1.45237 0.41344,2.80746 0.7077,4.13658c1.79141,-0.11337 3.68479,0.07078 5.42852,0.20082c2.17166,-0.34959 4.37112,-1.5409 6.51498,-1.04877c6.24951,1.43458 10.70418,5.7099 14.68731,10.28595c2.11131,2.4256 3.10846,5.68436 5.20518,8.12259c0.53049,0.6169 1.48725,0.69691 2.12259,1.20518c1.51073,1.20859 4.95242,5.08149 6.25455,6.21466c1.56512,1.36202 3.58467,2.39681 4.73304,4.09344c1.32229,-0.59017 2.94103,-0.028 4.40454,-0.028c2.2698,0 9.48063,-0.00813 10.18245,0.0584c7.35138,0.6969 14.65293,3.24768 21.61228,5.5574c0,0 11.3842,3.79473 7.58947,15.17893c-0.12394,0.37183 -0.25598,0.72747 -0.39546,1.06757c1.12814,7.27399 -3.24283,15.0627 -5.78093,21.44647l-0.00002,0.00001c-2.16346,2.4273 -5.13027,6.07704 -7.89904,7.89904c-0.88054,0.57944 -2.08718,0.47286 -3,1c-1.357,0.78365 -2.23086,2.38054 -3.71657,2.87874c-2.75052,0.92234 -5.82933,0.16982 -8.67001,0.7585c-3.23498,0.67039 -3.44174,1.89651 -6.71881,1.38896c-1.0385,0.53665 -2.21047,0.8539 -3.18686,1.50089c-1.14453,0.75841 -1.88569,2.07463 -3.10414,2.70749c-1.56325,0.81195 -3.4258,0.86861 -5.05774,1.53177c-2.96581,1.2052 -5.0394,4.17536 -8.48144,4.78837c-1.99748,2.99791 -3.30112,6.76154 -6.35008,8.61638c-1.78421,1.08543 -3.87532,1.39016 -6.02311,1.4898v0.6313c0,6.44834 -0.93192,12.70396 -2.07748,18.96109c-0.30252,1.65237 0.07748,3.35907 0.07748,5.03891c0,5.78964 0.43204,11.33109 -1.3079,16.89737c0,0 -1.3934,4.18021 -5.37431,4.18195c-1.59807,0.92068 -3.31779,0.92068 -3.31779,0.92068z" fill="#999999"/><path d="M349.46022,214.73323c-0.19584,-0.08795 -0.39879,-0.15952 -0.61111,-0.20968zM349.65926,214.82928c-0.73817,-0.02835 -5.91278,-0.42578 -5.91278,-5.99782c0,-6 6,-6 6,-6l2.89737,0.3079c1.41901,0.5294 2.94318,0.83475 4.25702,1.58819c0.81787,0.46902 1.20747,1.48933 2,2c3.3488,2.15781 8.58717,1.69705 12,4c2.52,1.70048 3.88519,4.74407 5.2355,7.4678c1.27538,2.57258 3.3643,4.91074 4.85275,7.39347c2.9423,1.76398 7.21106,3.6865 9.72817,5.74457c0.82597,0.67534 0.90103,1.99144 1.67115,2.72983c0.30261,0.29015 0.85406,-0.04504 1.2554,0.07614c1.4499,0.43776 2.94318,0.83475 4.25702,1.58819c0.81787,0.46902 1.25558,1.42144 2,2c0.74944,0.58247 1.89652,0.11608 2.84561,0.1039c3.66244,-0.04699 7.33723,-0.04077 11,0c6.89748,0.07677 14.34303,3.1326 20.89737,5.3079c0,0 5.6921,1.89737 3.79473,7.58947c-1.89737,5.6921 -7.58947,3.79473 -7.58947,3.79473c-4.69422,-1.57261 -10.19713,-3.9486 -15.06373,-4.76958c-5.46979,-0.92273 -11.5264,1.13371 -17,0c-1.79605,-0.37201 -3.57324,-0.9586 -5.19329,-1.81862c-0.83274,-0.44207 -1.20747,-1.48933 -2,-2c-1.93205,-1.24493 -4.63498,-0.97531 -6.48758,-2.33566c-1.07865,-0.79205 -1.31058,-2.40186 -2.32885,-3.27017c-0.83964,-0.71598 -2.07447,-0.77576 -3.04075,-1.30861c-1.23002,-0.67829 -6.33885,-4.32008 -7.23108,-4.94682c-2.8959,-4.12263 -6.39716,-8.23876 -7.86126,-13.08825c-0.17843,-0.59101 -1.20176,-0.28616 -1.79346,-0.46229c-1.01029,-0.30072 -2,-0.66667 -3,-1c-1.39079,-0.4636 -6.38901,-2.09042 -7.25702,-2.58819c-1.0334,-0.59262 -1.88863,-1.56776 -2.93283,-2.10608z" fill="#b3cedd"/><path d="M291.84911,237.02357c-5.6921,-1.89737 -3.79473,-7.58946 -3.79473,-7.58946l0.76958,-2.06373c-0.26137,-6.87833 -2.16233,-13.98159 -1,-21c0.68244,-4.1207 3.31157,-7.91913 4,-12c0.27943,-1.65643 -0.07748,-3.35907 -0.07748,-5.0389c0,0 0,-3.12096 2.2509,-4.86107l0.057,-0.53632c1.93857,-5.19618 6.20795,-11.09328 11.95339,-12.84519c2.78614,-0.84955 5.82042,0.38016 8.6998,0.82003c5.2556,0.80286 10.73837,0.15069 16,1c4.08075,0.6587 7.87503,3.08075 12.03891,2.92252c0,0 6,0 6,6c0,6 -6,6 -6,6c-5.06361,-0.09904 -9.09379,-2.22087 -13.96109,-3.07748c-1.96973,-0.34666 -4.02354,0.30593 -6,0c-1.68746,-0.26119 -3.33135,-0.92252 -5.03891,-0.92252c-1.6539,0 -3.32214,0.14435 -4.96109,-0.07748c-1.15771,-0.15669 -2.29005,-1.76688 -3.3002,-1.17997c-1.83035,1.06345 -3.58516,3.20173 -4.04661,5.15481l0.3079,-0.89737c0,0 0,2.88309 -1.99854,4.6522c-0.00151,1.92833 -0.01457,4.42034 -0.07893,4.80894c-0.68244,4.1207 -3.31157,7.91913 -4,12c-0.73248,4.34202 0.35787,8.92934 1,13.07781c0.18342,1.18501 0.02318,6.73718 0,7.92219l-1.23042,3.93627c0,0 -1.89737,5.6921 -7.58947,3.79473z" fill="#b3cedd"/><path d="M299.87577,235.81107c-3,-4 1,-7 1,-7l1.43902,-1.07622c4.72565,-3.78052 8.97542,-7.9086 11.99191,-13.29037c2.02438,-3.61174 0.80225,-8.24491 2.68903,-12.02221c3.08082,-6.16776 8.8975,-6.78245 13.66135,-10.39862c0,0 4.06867,-2.90619 6.97486,1.16248c2.90619,4.06867 -1.16248,6.97486 -1.16248,6.97486c-1.15633,0.79609 -2.21675,1.75367 -3.469,2.38827c-2.66679,1.35144 -5.52846,1.28883 -7.0884,4.40061c-0.70187,1.40009 -0.46036,3.09838 -0.67428,4.64987c-0.44017,3.19242 -0.4981,4.44491 -2.10544,7.54668c-3.39916,6.55951 -8.91679,11.87409 -14.57059,16.39713l-1.68598,1.26753c0,0 -4,3 -7,-1z" fill="#6c6c6c"/><path d="M295.65272,284.74428c2.02093,-2.02093 4.04186,-1.73151 5.40248,-1.11266c0.35717,-0.25695 0.72545,-0.70001 1.03213,-0.94378c1.15956,-0.9217 2.42999,-1.72051 3.76867,-2.35459c0.39154,-0.18546 0.94652,0.20626 1.29892,-0.04576c0.19788,-0.14151 -0.33747,-0.41719 -0.31309,-0.65923c0.23005,-2.28373 0.81873,-4.52325 1.02344,-6.8094c0.33474,-5.68297 -0.93737,-8.54275 5.68358,-11.52282c2.93622,-1.32159 6.51619,1.6851 9.03907,0.52226c3.53436,-1.62905 5.1521,-8.14707 7.67771,-10.89877c3.01619,-3.2862 8.42088,-4.97465 10.84218,-8.75155c1.22186,-1.90594 0.23333,-4.59166 1.01856,-6.71508c1.54088,-4.16681 5.54524,-5.71275 9.1227,-7.5046c0,0 4.47214,-2.23607 6.7082,2.23607c2.23607,4.47214 -2.23607,6.7082 -2.23607,6.7082c-0.74018,0.36937 -1.48281,0.73385 -2.22053,1.10811c-0.61907,0.31407 -1.96047,0.06847 -1.93802,0.76229c0.09867,3.05025 -0.56567,6.27557 -2.10644,8.90992c-2.67717,4.57734 -8.35844,6.29201 -11.81407,9.99845c-2.96623,3.18151 -3.88622,6.99631 -7.16809,10.29992c-3.2577,3.27928 -4.41914,3.6193 -9.06403,3.82398c-1.14106,0.05028 -2.64727,0.18674 -3.669,-0.28015c0.05041,0.58248 0.04178,1.17998 0.11397,1.75692c-0.35311,3.83955 -0.50863,10.46574 -3.1959,13.62512c-1.02824,1.20889 -2.79627,1.50299 -4.16983,2.29799c-2.37406,1.37409 -4.16139,3.84357 -6.77807,4.66654c-1.54074,0.48458 -3.22628,-0.16099 -4.83942,-0.24148l-3.21905,-1.80484c0,0 -3.53553,-3.53553 0,-7.07107zM300.54613,283.82992l-0.26014,-0.10923c0.08212,0.07044 0.16934,0.10414 0.26014,0.10923z" fill="#6c6c6c"/><path d="M244.74648,349.33147c0,-6 6,-6 6,-6l2.03891,0.07748c2.33888,-0.825 3.23855,-2.24001 5.15716,-3.71753c3.02819,-2.33201 5.99796,-2.9516 9,-5c3.24074,-3.29299 6.47645,-6.08387 10,-9c4.47149,-3.70065 7.80397,-8.07919 13.16782,-10.74984c3.22468,-1.60556 6.92005,-1.82901 10.20879,-3.09719c3.32043,-1.28041 5.31974,-5.76295 8.27293,-7.61682c0.39347,-0.247 4.0391,-1.16888 4.91175,-2.13874c0.54215,-0.60254 0.83356,-1.39037 1.25034,-2.08556c0,0 2.38521,-3.57781 6.14601,-2.65654c1.25392,-0.24126 2.52474,-0.41417 3.75035,-0.76842c3.36814,-0.97353 5.90002,-3.86701 8.62708,-5.85297c2.04369,-1.4883 4.20395,-2.81181 6.25,-4.29687c2.91882,-2.11853 4.38353,-4.54221 7.9338,-6.40396c2.0456,-1.07271 4.71196,-0.59938 6.69661,-1.78106c4.67488,-2.78346 7.12199,-6.0071 12.62929,-8.45727c1.70642,-0.75918 3.74145,-0.48135 5.48184,-1.15903c0.44246,-0.17229 0.34409,-0.92203 0.69213,-1.24502c1.81789,-1.68707 3.64907,-3.40186 5.74456,-4.72846c1.32787,-0.84064 2.93334,-1.12921 4.40001,-1.69381c5.17818,-0.77886 10.45907,-0.2224 15.22357,-2.45928l2.42132,-0.43094c0,0 5,0 5,5l0.00002,-0.00002c0,3.76327 -2.83244,4.6941 -4.23363,4.92434c-5.30627,2.04486 -10.22187,1.91208 -15.93399,2.65419c-2.08556,0.73271 -3.87584,2.21356 -5.48043,3.73398c-0.87244,0.82668 -1.35341,2.13272 -2.43287,2.66123c-2.18196,1.06828 -4.79228,0.99251 -7.01816,1.96597c-4.67354,2.04391 -7.31381,5.56153 -11.58946,7.94898c-2.23118,1.24585 -5.0966,0.95018 -7.36589,2.12519c-2.40127,1.24335 -3.94327,3.72234 -6.1287,5.31479c-5.27734,3.84542 -11.55342,9.69065 -17.93542,11.72515c-0.9681,0.30862 -1.97228,0.48008 -2.97621,0.6536c-1.93916,2.73855 -4.33054,5.34121 -7.27342,6.94432c-0.75592,0.41178 -1.7262,0.30152 -2.48172,0.71401c-1.25258,0.68388 -1.89792,2.13434 -2.91175,3.13874c-2.33874,2.31698 -3.53063,3.76137 -6.81532,5.24445c-3.00977,1.35894 -6.79664,1.39528 -9.79121,2.90281c-4.4135,2.22184 -7.13961,6.15478 -10.83218,9.25016c-3.51449,2.94611 -6.68476,5.72457 -10,9c-2.25074,1.48499 -4.72338,2.61155 -7.16782,3.74984c-2.24669,1.0462 -1.77389,1.66508 -3.83218,3.25016c-2.59482,1.99827 -5.73073,3.26221 -8.84284,4.28247l-3.96109,0.07748c0,0 -6,0 -6,-6z" fill="#6c6c6c"/><path d="M304.74647,349.33147c0,-5 5,-5 5,-5h1c3.80516,0.11172 8.7461,-1.74557 11.46447,-4.53553c1.60287,-1.64509 2.58863,-3.87586 4.36559,-5.33118c4.32422,-3.54152 8.88157,-5.13419 12.00969,-9.90679c0.45826,-0.55847 1.17057,-0.98246 1.37479,-1.67542c0.29517,-1.00158 -0.38967,-2.18148 0.04204,-3.13222c0.95643,-2.10631 2.49889,-3.90644 3.96615,-5.69487c3.29994,-4.02227 8.44542,-4.48851 12.145,-8.16007c3.06559,-3.04238 3.897,-6.87438 7.70872,-9.62013c2.97733,-2.1447 8.40922,-4.23102 12.12264,-4.87923c0.87118,-0.15207 1.80189,0.31238 2.65215,0.06919c1.17931,-0.33731 2.10351,-1.28039 3.23535,-1.75315c2.86423,-1.19639 5.09348,-0.66181 7.29858,-1.95256c1.05227,-2.12866 3.60728,-2.63967 3.60728,-2.63967l1.17809,-0.16937c2.53664,-0.9489 6.5589,-1.37838 8.7181,-2.97432c4.64096,-3.4303 9.396,-7.48043 12.86564,-12.14091c0,0 3,-4 7,-1c4,3 1,7 1,7c-3.65883,4.84855 -7.88729,7.8356 -12.44274,11.71477c-0.9914,0.84422 -1.73363,1.98382 -2.81661,2.70682c-3.13655,2.09395 -7.31971,2.74333 -10.81315,4.05693l-0.82649,0.18537c-0.55417,0.64085 -1.08179,0.99259 -1.08179,0.99259c-1.44153,0.87507 -2.73197,2.07083 -4.32458,2.62521c-1.14939,0.40009 -2.44456,-0.03133 -3.64801,0.14998c-2.39602,0.36097 -4.32218,2.26563 -6.65215,2.93081c-1.07331,0.30642 -2.24526,-0.10452 -3.34785,0.06919c-2.28233,0.35958 -6.02986,1.82099 -7.87736,3.12077c-2.95698,2.08034 -3.82236,5.89879 -6.29128,8.37987c-3.37068,3.38728 -7.04326,4.7505 -11.00361,6.81718c-1.30159,0.67923 -2.35769,1.95778 -2.88524,3.32788c-0.34353,0.89218 0.3652,1.96802 0.04204,2.86778c-0.57001,1.58708 -1.75014,2.88305 -2.62521,4.32458c-3.85146,5.70352 -8.70444,8.02111 -13.99031,12.09321c-1.56236,1.20361 -2.22802,3.28618 -3.63441,4.66882c-4.82086,4.73944 -11.93561,7.35236 -18.53553,7.46447h-1c0,0 -5,0 -5,-5z" fill="#6c6c6c"/><path d="M267.9543,126.42034c2.5381,6.38377 6.90907,14.17248 5.78093,21.44647c0.13948,0.3401 0.27152,0.69574 0.39546,1.06757c3.79473,11.3842 -37.1144,20.79473 -39.3842,20.79473c-1.46351,0 -3.08225,0.56217 -4.40454,-0.028c-1.14837,1.69663 -3.16792,2.73142 -4.73304,4.09344c-1.30213,1.13317 -4.74382,5.00607 -6.25455,6.21466c-0.63534,0.50827 -1.5921,0.58828 -2.12259,1.20518c-2.09672,2.43823 -3.09387,5.69699 -5.20518,8.12259c-3.98313,4.57605 -8.4378,8.85137 -14.68731,10.28595c-2.14386,0.49213 -4.34332,-0.69918 -6.51498,-1.04877c-1.74373,0.13004 -3.63711,0.31419 -5.42852,0.20082c-0.29426,1.32912 -0.56099,2.68421 -0.7077,4.13658c-0.386,3.82126 0.0584,7.96818 0.0584,11.81755c0,1.33333 0.38054,2.72212 0,4c-1.30099,4.36883 -1.45542,9.84839 -4.98348,12.73491c-3.09334,2.53084 -29.24985,1.07988 -32.67882,-0.15481c-1.11464,-0.40136 -1.62937,-1.76484 -2.64648,-2.37229c-0.90498,-0.54049 -2.15056,-0.37585 -3,-1c-2.01717,-1.48217 -3.91697,-3.19423 -5.42613,-5.19129c-1.45622,-1.92701 -2.23443,-4.28288 -3.35165,-6.42432c-0.58617,-1.89 -1.40673,-3.72271 -1.7585,-5.67001c-0.29182,-1.6154 -0.26323,-3.28422 -0.15495,-4.92219c0.01614,-0.24401 0.6155,-0.29969 0.5149,-0.52259c-0.24254,-0.5374 -1.0551,-0.66646 -1.29468,-1.20519c-2.41039,-5.42003 0.77978,-36.64597 0.77978,-40.27221c0,-8.66667 0,-17.33333 0,-26c0.19753,-1.37402 -0.71579,-2.69569 -0.84505,-4.07781c-0.26036,-2.78407 -0.27547,-5.60011 -0.06504,-8.38839c0.10343,-1.37047 0.77697,-2.64385 1,-4c0.34924,-2.12358 -0.24543,-4.3264 0.06504,-6.45599c0.15207,-1.04307 0.79047,-1.96694 1,-3c0.37904,-1.86878 -0.47888,-4.21918 0.7585,-5.67001c3.57806,-4.19528 7.91428,-8.00321 12.9041,-10.3494c1.60036,-0.75248 3.16496,2.10163 4.9281,1.96479c0.99408,-0.07715 0.73529,-2.14784 1.67634,-2.47735c3.09719,-1.08448 6.46922,-1.124 9.72734,-1.51565c0.01056,-0.00126 2.6036,0.24266 3.25847,-0.11674c3.92032,-2.15152 5.81362,-4.38994 10.67001,-4.7585c3.1724,-0.24075 6.42041,0.01728 9.51439,0.7585c0.91687,0.21965 1.14064,1.6122 2,2c0.30393,0.13715 0.11082,-0.76182 0.4078,-0.91345c0.32327,-0.16505 0.71593,0.18301 1.07781,0.15495c2.56708,-0.19904 5.11948,-0.55596 7.67922,-0.83394c1.27839,0.86414 2.40037,2.02466 3.83517,2.59243c0.31006,0.12269 0.07499,-0.93405 0.4078,-0.91345c3.7068,0.22947 7.85023,-0.30915 11.02312,1.62108c3.04896,1.85484 4.3526,5.61847 6.35008,8.61638c3.44204,0.61301 5.51563,3.58317 8.48144,4.78837c1.63194,0.66316 3.49449,0.71982 5.05774,1.53177c1.21845,0.63286 1.95961,1.94908 3.10414,2.70749c0.97639,0.64699 2.14836,0.96424 3.18686,1.50089c3.27707,-0.50755 3.48383,0.71857 6.71881,1.38896c2.84068,0.58868 5.91949,-0.16384 8.67001,0.7585c1.48571,0.4982 2.35957,2.09509 3.71657,2.87874c0.91282,0.52714 2.11946,0.42056 3,1c2.76877,1.822 5.73558,5.47174 7.89904,7.89904z" data-paper-data="{&quot;index&quot;:null}" fill="#999999"/><path d="M137.87577,172.74947c3,-4 7,-1 7,-1l1.68598,1.26753c5.6538,4.52304 11.17143,9.83762 14.57059,16.39713c1.60734,3.10177 1.66527,4.35426 2.10544,7.54668c0.21392,1.55149 -0.02759,3.24978 0.67428,4.64987c1.55994,3.11178 4.42161,3.04917 7.0884,4.40061c1.25225,0.6346 2.31267,1.59218 3.469,2.38827c0,0 4.06867,2.90619 1.16248,6.97486c-2.90619,4.06867 -6.97486,1.16248 -6.97486,1.16248c-4.76385,-3.61617 -10.58053,-4.23086 -13.66135,-10.39862c-1.88678,-3.7773 -0.66465,-8.41047 -2.68903,-12.02221c-3.01649,-5.38177 -7.26626,-9.50985 -11.99191,-13.29037l-1.43902,-1.07622c0,0 -4,-3 -1,-7z" data-paper-data="{&quot;index&quot;:null}" fill="#6c6c6c"/><path d="M133.65273,125.81628c-3.53553,-3.53554 0,-7.07107 0,-7.07107l3.21905,-1.80484c1.61314,-0.08049 3.29868,-0.72606 4.83942,-0.24148c2.61668,0.82297 4.40401,3.29245 6.77807,4.66654c1.37356,0.795 3.14159,1.0891 4.16983,2.29799c2.68727,3.15938 2.84279,9.78557 3.1959,13.62512c-0.07219,0.57694 -0.06356,1.17444 -0.11397,1.75692c1.02173,-0.46689 2.52794,-0.33043 3.669,-0.28015c4.64489,0.20468 5.80633,0.5447 9.06403,3.82398c3.28187,3.30361 4.20186,7.11841 7.16809,10.29992c3.45563,3.70644 9.1369,5.42111 11.81407,9.99845c1.54077,2.63435 2.20511,5.85967 2.10644,8.90992c-0.02245,0.69382 1.31895,0.44822 1.93802,0.76229c0.73772,0.37426 1.48035,0.73874 2.22053,1.10811c0,0 4.47214,2.23606 2.23607,6.7082c-2.23606,4.47214 -6.7082,2.23607 -6.7082,2.23607c-3.57746,-1.79185 -7.58182,-3.33779 -9.1227,-7.5046c-0.78523,-2.12342 0.2033,-4.80914 -1.01856,-6.71508c-2.4213,-3.7769 -7.82599,-5.46535 -10.84218,-8.75155c-2.52561,-2.7517 -4.14335,-9.26972 -7.67771,-10.89877c-2.52288,-1.16284 -6.10285,1.84385 -9.03907,0.52226c-6.62095,-2.98007 -5.34884,-5.83985 -5.68358,-11.52282c-0.20471,-2.28615 -0.79339,-4.52567 -1.02344,-6.8094c-0.02438,-0.24204 0.51097,-0.51772 0.31309,-0.65923c-0.3524,-0.25202 -0.90738,0.1397 -1.29892,-0.04576c-1.33868,-0.63408 -2.60911,-1.43289 -3.76867,-2.35459c-0.30668,-0.24377 -0.67496,-0.68683 -1.03213,-0.94378c-1.36062,0.61885 -3.38155,0.90827 -5.40248,-1.11266zM138.28599,126.83987l0.26014,-0.10923c-0.0908,0.00509 -0.17802,0.03879 -0.26014,0.10923z" data-paper-data="{&quot;index&quot;:null}" fill="#6c6c6c"/><path d="M243.75074,147.49092c0,5 -5,5 -5,5l-2.42132,-0.43094c-4.7645,-2.23688 -10.04539,-1.68042 -15.22357,-2.45928c-1.46667,-0.5646 -3.07214,-0.85317 -4.40001,-1.69381c-2.09549,-1.3266 -3.92667,-3.04139 -5.74456,-4.72846c-0.34804,-0.32299 -0.24967,-1.07273 -0.69213,-1.24502c-1.74039,-0.67768 -3.77542,-0.39985 -5.48184,-1.15903c-5.5073,-2.45017 -7.95441,-5.67381 -12.62929,-8.45727c-1.98465,-1.18168 -4.65101,-0.70835 -6.69661,-1.78106c-3.55027,-1.86175 -5.01498,-4.28543 -7.9338,-6.40396c-2.04605,-1.48506 -4.20631,-2.80857 -6.25,-4.29687c-2.72706,-1.98596 -5.25894,-4.87944 -8.62708,-5.85297c-1.75193,-0.50638 -3.59623,-0.64223 -5.35152,-1.13682c0,0 -4.80762,-1.37361 -3.43401,-6.18123c1.37361,-4.80762 6.18123,-3.43401 6.18123,-3.43401c1.82921,0.53184 3.77101,0.62834 5.58598,1.20693c6.382,2.0345 12.65808,7.87973 17.93542,11.72515c2.18543,1.59245 3.72743,4.07144 6.1287,5.31479c2.26929,1.17501 5.13471,0.87934 7.36589,2.12519c4.27565,2.38745 6.91592,5.90507 11.58946,7.94898c2.22588,0.97346 4.8362,0.89769 7.01816,1.96597c1.07946,0.52851 1.56043,1.83455 2.43287,2.66123c1.60459,1.52042 3.39487,3.00127 5.48043,3.73398c5.71212,0.74211 10.62772,0.60933 15.93399,2.65419c1.40119,0.23024 4.23363,1.16107 4.23363,4.92434z" data-paper-data="{&quot;index&quot;:null}" fill="#6c6c6c"/><path d="M226.81662,121.55724c0.98058,-4.9029 5.88348,-3.92232 5.88348,-3.92232l2.72816,0.61188c3.49344,1.3136 7.6766,1.96298 10.81315,4.05693c1.08298,0.723 1.82521,1.8626 2.81661,2.70682c4.55545,3.87917 8.78391,6.86622 12.44274,11.71477c0,0 3,4 -1,7c-4,3 -7,-1 -7,-1c-3.46964,-4.66048 -8.22468,-8.71061 -12.86564,-12.14091c-2.1592,-1.59594 -6.18146,-2.02542 -8.7181,-2.97432l-1.17809,-0.16937c0,0 -4.9029,-0.98058 -3.92232,-5.88348z" data-paper-data="{&quot;index&quot;:null}" fill="#6c6c6c"/><path d="M174.47295,88.70353c4.77355,-1.43088 9.08652,-1.81152 14.12958,-1.66667c5.12761,0.14728 10.71146,1.23505 15.65916,2.47197c1.84003,0.46001 9.00019,4.26841 11.25908,5.23031c2.67493,1.13906 6.58428,1.14004 8.87684,3.10509c0.87384,0.74901 1.55575,2.72589 2.50708,3.24511c3.29642,1.79914 7.36344,3.76398 10.95723,4.82038c1.94826,0.57269 9.07063,3.64969 11.10902,3.79381c8.20147,0.57987 12.78407,3.91089 17.84092,9.79066c1.48986,1.73231 6.88787,6.29069 5.82182,9.48884c-1.1602,3.48059 -4.33377,5.25823 -7.82624,3.91312c-1.62871,-0.62729 -2.60375,-2.82442 -2.98995,-4.33278c-0.0276,-0.10778 -6.7603,-7.15249 -7.02425,-7.26c-2.86793,-1.1681 -6.07251,-1.37248 -9.09345,-2.12771c-6.76895,-1.69224 -13.68677,-5.14311 -20.08976,-7.27744c-3.16052,-1.05351 -5.50184,-3.79716 -7.63593,-6.0854c-1.4074,-1.50906 -4.01193,-0.99823 -5.95272,-1.69921c-5.51467,-1.99181 -10.44752,-5.33841 -16.19862,-6.27169c-12.92235,-2.09701 -23.77978,1.93161 -35.97244,4.60502c-3.99244,0.8754 -9.15136,1.51639 -12.88713,2.99975c-2.92339,1.16078 -6.18467,3.27027 -8.4218,5.52905c-0.74232,0.7495 -1.25884,1.78851 -1.85578,2.74072c-0.21639,0.40647 -0.48726,0.77954 -0.80286,1.10947c-0.24459,0.27894 -0.51335,0.52958 -0.8185,0.73689c-0.24934,0.1694 -0.54359,0.31092 -0.86938,0.42307c-0.5927,0.24757 -1.24324,0.3843 -1.92571,0.3843c-0.45523,0 -0.89625,-0.06084 -1.31537,-0.17482c-2.2623,-0.38235 -4.31364,-1.85528 -3.68293,-4.69351c-0.00113,-0.04375 -0.0017,-0.08764 -0.0017,-0.13167c0,-1.18293 0.41079,-2.26991 1.09751,-3.12608c6.79569,-14.59451 32.88364,-15.57708 46.10625,-19.54059z" fill="#b3cedd"/><path d="M429.43858,140.43411c1.89737,5.6921 -3.79473,7.58947 -3.79473,7.58947l-1.74298,0.41181c-4.11374,4.11374 -8.72895,3.8961 -14.15439,3.8961c0,0 -6,0 -6,-6c0,-6 6,-6 6,-6c4.00489,0 5.01903,0.72268 7.84561,-2.1039l4.25702,-1.58819c0,0 5.6921,-1.89737 7.58947,3.79473z" fill="#b3cedd"/><path d="M322.74647,85.33147c0,-6 6,-6 6,-6h3c3.93828,0 10.04967,-1.00684 13.7387,0.25745c1.87301,0.64191 3.46828,1.93204 5.06523,3.1025c0.91942,0.67387 1.72403,1.50935 2.43871,2.39741c0.14658,0.18214 -0.17357,0.6435 0.05346,0.69936c1.05736,0.2602 2.41787,-0.56749 3.26462,0.11716c2.91241,2.35488 13.43774,15.41081 16.02081,18.55106l2.31584,0.18296c4.76516,1.58839 9.21246,2.8814 14.06373,3.76958c1.9673,0.36017 4.02688,-0.32677 6,0c1.35623,0.22461 2.62418,0.82028 3.93627,1.23042c0,0 5.6921,1.89737 3.79473,7.58947c-1.89737,5.6921 -7.58947,3.79473 -7.58947,3.79473c-2.95419,-1.10163 -4.87923,-0.27666 -8.06373,-0.76958c-5.42872,-0.84029 -10.64251,-2.46584 -15.93627,-4.23042l-0.10263,0.3079c0,0 -3.09165,0 -4.83641,-2.21927c-1.71234,-0.65163 -2.79517,-1.96649 -2.79517,-1.96649c-2.54283,-3.08772 -5.17777,-6.10183 -7.62849,-9.26316c-1.52844,-1.97162 -2.40348,-4.50504 -4.30065,-6.12497c-0.69404,-0.59262 -1.91148,0.50969 -2.73538,0.11716c-1.41421,-0.67378 -4.58939,-5.2606 -6.4426,-5.80073c-0.41196,-0.12007 -0.83298,0.23157 -1.2613,0.25745c-2.96989,0.17943 -6.02409,0 -9,0h-3c0,0 -6,0 -6,-6z" fill="#b3cedd"/><path d="M152.05438,51.02884c-1.89737,-5.6921 3.79473,-7.58947 3.79473,-7.58947l3.21984,-1.06862c1.64814,-0.39811 7.89943,-6.64194 12.71644,-9.7618c4.81701,-3.11986 14.59016,-8.17619 19.92219,-7.2c2.42156,0.44334 5.56972,-0.07748 8.03891,-0.07748c3.40932,0 7.59119,-0.48062 10.96109,0.07748c3.08463,0.51085 5.94993,2.50419 9,3c1.2443,0.20227 2.57753,-0.20603 3.77761,0.17997c1.14412,0.368 6.07168,0.50013 6.9652,0.19927c2.51191,-0.8458 9.45648,-0.90141 12.25719,-0.37925c4.71779,0.87958 9.56451,3.99832 13.19329,6.81862c0.85586,0.66517 5.11003,0.1039 5.84561,0.1039c2.34755,0.04592 4.65149,0.65463 6.96109,1.07748c4.60308,0.84273 10.35466,-0.07748 15.03891,-0.07748c11.33333,0 18.66667,0 30,0c0,0 6,0 6,6c0,6 -6,6 -6,6c-15.66321,0 -27.33788,0.17432 -43,0c-3.25388,-0.03621 -5.86673,-1.11906 -9,-1c-4.42424,0 -8.01334,0.30221 -12.15439,-1.8961c-0.83274,-0.44207 -1.19354,-1.51163 -2,-2c-0.73631,-0.44589 -1.7103,-0.33208 -2.48172,-0.71401c-0.98312,-0.48674 -2.80437,-2.29112 -4.32498,-2.46737c-1.66866,-0.19341 -19.64272,0.21555 -20.77762,-0.17997c-0.70182,-0.24459 -1.48975,0.30494 -2.22239,0.17997c-3.08548,-0.52628 -5.94851,-2.48523 -9,-3c-2.70608,-0.45651 -6.32879,0.07748 -9.03891,0.07748c-3.17728,0 -6.83234,0.40681 -9.96109,-0.07748c-4.11391,-0.63677 -14.59775,6.35502 -16.07781,7.2c-1.48006,0.84498 -6.185,8.09384 -11.28357,9.4382l-2.78016,0.93138c0,0 -5.6921,1.89737 -7.58947,-3.79473z" fill="#b3cedd"/><path d="M357.54648,-1.66853c3.12791,0 7.0956,0.53288 10.19909,0.06456c1.04229,-0.15728 1.95859,-0.83699 3,-1c1.97594,-0.3093 4.03161,0.35416 6,0c1.03743,-0.18666 1.95859,-0.83699 3,-1c1.97594,-0.3093 4.03161,0.35416 6,0c2.25831,-0.40632 4.50667,-1.02559 6.80091,-1.06456h1.63782c0.2125,-0.00622 0.433,-0.00395 0.6618,0.00749c5.99251,0.29963 5.69289,6.29214 5.69289,6.29214c-0.43204,8.64081 1.93926,39.57026 2.00748,45.70037c0.03479,3.12558 0.70842,10.23593 -1.13255,12.50826c-4.23234,5.22404 -14.01011,3.49174 -19.86745,3.49174c-5.45181,0 -12.72302,1.27248 -16.86745,-3.49174c-1.97585,-2.27133 -1.03442,-5.94538 -1.89327,-8.83074c-1.46703,-4.92858 -3.47905,-9.81543 -4.19432,-14.94443c-0.41076,-2.94537 -1.04048,-7.39297 -3.92209,-10.33477c-2.88161,-2.9418 -9.6222,-3.66564 -15.36551,-9.35569c-5.74331,-5.69005 -1.65248,-6.59618 -3.67988,-13.08155l-0.01218,-0.62256c-0.14922,-0.58736 -0.18328,-1.2627 -0.0398,-2.03495l-0.0255,-1.30358c0,0 0,-6 6,-6c4.51471,0 5.63232,3.39709 5.90898,5.07899c3.12797,0.40611 6.95879,-0.07899 10.09102,-0.07899z" fill="#999999"/><path d="M179.74648,353.33147c0,-5 5,-5 5,-5h1c5.99734,0.09404 10.81741,-3.65422 16.26527,-5.68943c1.90475,-0.71157 7.50159,-1.1485 9.1992,-2.84611c1.5336,-1.5336 1.1816,-4.22433 2.28228,-6.09312c0.47847,-0.81238 1.51493,-1.19155 2,-2c0.54233,-0.90388 0.43852,-2.1079 1,-3c2.15297,-3.42073 5.84032,-5.70791 8.093,-9.14485c0,0 2.7735,-4.16025 6.93375,-1.38675c4.16025,2.7735 1.38675,6.93375 1.38675,6.93375c-1.37827,2.04104 -2.89015,4.01368 -4.62472,5.76203c-1.05882,1.06723 -2.55015,1.78009 -3.28228,3.09312c-0.51334,0.92065 -0.45767,2.09612 -1,3c-0.48507,0.80845 -1.50627,1.1968 -2,2c-1.52517,2.48115 -1.65832,5.84748 -3.71772,7.90688c-3.54023,3.54023 -8.50299,3.53526 -12.8008,5.15389c-6.78657,2.55594 -12.19183,6.23232 -19.73473,6.31057h-1c0,0 -5,0 -5,-5z" fill="#6c6c6c"/><path d="M164.16534,346.07489c-4.74342,-1.58114 -3.16228,-6.32456 -3.16228,-6.32456l0.80798,-2.21977c0.10535,-1.37084 -0.30815,-2.88749 0.31604,-4.11251c3.38918,-6.65149 14.22041,-7.45369 20.38333,-10.55872c0,0 4.47214,-2.23607 6.7082,2.23607c2.23607,4.47214 -2.23607,6.7082 -2.23607,6.7082c-3.56289,1.76985 -6.90325,3.02072 -10.65493,4.27128c-1,0.33333 -1.99172,0.69261 -3,1c-0.62619,0.1909 -1.24814,0.43812 -1.89874,0.50475c0.09248,0.51609 0.16644,1.03557 0.25304,1.55274l-1.19202,3.78023c0,0 -1.58114,4.74342 -6.32456,3.16228z" fill="#6c6c6c"/><path d="M378.64872,136.19264c-1.47188,-0.31964 -3.90224,-1.37523 -3.90224,-4.86117c0,-5 5,-5 5,-5l4.53553,1.46447c3.19273,3.19273 7.14802,6.30054 9.03704,10.51277c0.90177,2.01082 0.47875,4.54696 1.68068,6.39411c0.51421,0.79024 1.52873,1.18342 2,2c0.71864,1.24521 0.99344,2.69834 1.49016,4.04752c0,0 1.58114,4.74342 -3.16228,6.32456c-4.74342,1.58114 -6.32456,-3.16228 -6.32456,-3.16228c-0.39431,-1.51004 -1.73767,-2.59621 -2.50984,-3.95248c-1.3114,-2.3034 -1.34513,-5.14086 -2.31932,-7.60589c-0.89144,-2.25565 -3.46253,-4.34864 -5.52519,-6.1616z" fill="#6c6c6c"/><path d="M320.74647,104.33147c-4.74819,0 -4.98732,-4.50906 -4.99936,-4.96323c-3.15376,-3.31658 -5.73581,-6.68356 -7.57321,-11.014c-1.29951,-3.06274 -1.4191,-6.80247 -2.919,-9.82601c-0.65091,-1.31212 -1.83433,-2.35709 -2.29388,-3.74784c-0.6218,-1.88175 -0.2801,-4.00549 -0.95796,-5.86778c0,0 -1.58114,-4.74342 3.16228,-6.32456c4.74342,-1.58114 6.32456,3.16228 6.32456,3.16228c0.39734,1.26008 0.97068,2.47766 1.19202,3.78023c0.13161,0.77449 -0.40152,1.60776 -0.14998,2.35199c0.30156,0.89223 1.28217,1.41117 1.70612,2.25216c1.60561,3.1851 1.69571,6.98168 3.081,10.17399c1.70703,3.93373 3.95366,6.47793 6.96296,9.48723l1.46447,5.53553c0,0 0,5 -5,5z" fill="#6c6c6c"/><path d="M296.4899,299.75032c1.58114,4.74342 -3.16228,6.32456 -3.16228,6.32456l-3.78023,1.19202c-5.26677,0.08946 -10.53346,0.06456 -15.80091,0.06456c-1.7964,0 -3.61075,-0.29161 -5.38908,-0.03746c-2.33957,0.33435 -4.47712,1.59468 -6.81001,1.9729c-5.84186,0.94712 -12.21283,-1.04125 -18,0c-1.03743,0.18666 -1.95859,0.83699 -3,1c-3.4362,0.53788 -7.31925,0.06456 -10.80091,0.06456c-7,0 -14,0 -21,0c-1.92947,-0.05665 -4.66213,0.20013 -6.37134,1.25325c-1.02208,0.62975 -1.58571,1.95945 -2.71524,2.36614c-1.54558,0.5565 -3.2726,0.30169 -4.91342,0.3806c-2.98725,0.14367 -6.87444,0.4205 -9.80091,-0.06456c-2.07981,-0.34473 -3.92103,-1.65024 -6,-2c-2.51148,-0.42252 -5.6468,0.06456 -8.19909,0.06456c-5,0 -10,0 -15,0c0,0 -5,0 -5,-5c0,-5 5,-5 5,-5c5,0 10,0 15,0c3.10069,0 6.75343,-0.44056 9.80091,0.06456c2.07981,0.34473 3.92103,1.65024 6,2c1.70914,0.28754 3.46593,-0.06456 5.19909,-0.06456c1,0 2.00431,-0.09273 3,0c0.38212,0.03559 0.74728,0.55992 1.08658,0.3806c0.61254,-0.32373 0.68697,-1.28363 1.28476,-1.63386c3.46665,-2.031 7.72878,-2.6805 11.62866,-2.74675c7,0 14,0 21,0c2.91387,0 6.35267,0.5767 9.19909,0.06456c1.03743,-0.18666 1.95859,-0.83699 3,-1c5.85219,-0.91606 12.20043,1.00893 18,0c2.45325,-0.42678 4.72491,-1.67504 7.18999,-2.0271c0.33494,-0.04784 5.95952,-0.03746 6.61092,-0.03746c4.73166,0 9.46935,-0.0743 14.19909,0.06456l2.21977,-0.80798c0,0 4.74342,-1.58114 6.32456,3.16228z" fill="#b3cedd"/><path d="M371.2899,-1.24967c1.58114,4.74342 -3.16228,6.32456 -3.16228,6.32456l-1.95248,0.50984c-2.11634,2.48256 -5.31127,6.60197 -8.16516,8.09775c-2.43201,1.27466 -5.27853,1.52089 -7.88236,2.39242c0,0 -4.74342,1.58114 -6.32456,-3.16228c-1.58114,-4.74342 3.16228,-6.32456 3.16228,-6.32456c2.00098,-0.66455 4.19432,-0.74366 6.11764,-1.60758c1.31539,-0.59085 1.90831,-2.16489 2.92796,-3.18453c1.60441,-1.60441 3.24945,-3.16814 4.90688,-4.71772l4.04752,-1.49016c0,0 4.74342,-1.58114 6.32456,3.16228z" fill="#6c6c6c"/><path d="M387.54648,1.33147c2.97703,0 4.18152,1.77255 4.66885,3.20687c0.33115,0.97466 0.33115,1.79313 0.33115,1.79313v2c0,4.73999 0.918,10.3844 -1.74675,14.62866c-2.32228,3.6988 -3.97237,3.82724 -7.67212,5.11476c-0.35167,0.12238 -0.93102,0.26032 -1.4801,0.33208c0.30209,0.73657 0.39562,1.58013 0.64237,2.34337c0.40644,1.25717 0.97597,2.47677 1.19202,3.78023c0.22253,1.34256 -0.00619,7.85378 -0.31604,8.71433c-0.40669,1.12953 -1.75689,1.68081 -2.36614,2.71524c-0.53495,0.90826 -0.43852,2.1079 -1,3c-0.70657,1.12263 -1.81181,1.93792 -2.71772,2.90688c0,0 -3.53553,3.53553 -7.07107,0c-3.53553,-3.53553 0,-7.07107 0,-7.07107c1.1888,-1.01343 1.46423,-2.76231 2.28228,-4.09312c0.36282,-0.59023 1.31013,-0.67222 1.63386,-1.28476c0.17932,-0.3393 -0.34386,-0.70458 -0.3806,-1.08658c-0.26875,-2.79399 -1.14194,-4.63136 -1.74342,-7.41886c-0.44164,-2.04679 -1.7813,-4.26686 -0.98595,-6.20382c0.93314,-2.27252 3.49082,-3.50281 5.53261,-4.86889c1.06002,-0.70922 2.39963,-0.86712 3.61562,-1.25184c0.1042,-0.03297 2.00816,-0.17142 2.32788,-0.88524c1.11111,-2.48063 0.25325,-6.72177 0.25325,-9.37134v-2c0,-0.63195 0.11724,-1.23651 0.33115,-1.79313c0.48733,-1.43432 1.69182,-3.20687 4.66885,-3.20687z" fill="#6c6c6c"/><path d="M388.96534,54.07489c-4.74342,-1.58114 -3.16228,-6.32456 -3.16228,-6.32456l1.25184,-3.61562c1.47841,-2.23783 3.07346,-4.42841 4.95604,-6.33878c0,0 3.53553,-3.53553 7.07107,0c3.53553,3.53553 0,7.07107 0,7.07107c-1.13389,1.1105 -2.15288,2.34787 -3.04396,3.66122l-0.74816,2.38438c0,0 -1.58114,4.74342 -6.32456,3.16228z" fill="#6c6c6c"/><path d="M291.74647,72.33147c-5,0 -5,-5 -5,-5v-1c0.03302,-1.12478 -0.27333,-2.24125 -0.25335,-3.36629c-2.30352,0.03052 -4.54086,-1.27195 -6.52015,-2.47346c0,0 -4.16025,-2.7735 -1.38675,-6.93375c2.7735,-4.16025 6.93375,-1.38675 6.93375,-1.38675c0.55847,0.45826 0.98342,1.16734 1.67542,1.37479c1.10746,0.332 2.44406,-0.37745 3.4645,0.16606c5.21619,2.77829 5.99787,7.39701 6.08658,12.6194v1c0,0 0,5 -5,5z" fill="#6c6c6c"/><path d="M345.32762,116.07489c-4.74342,1.58114 -6.32456,-3.16228 -6.32456,-3.16228l-0.87598,-2.66772c-0.64996,-1.49935 -1.7327,-2.94686 -3.1541,-3.75317c0,0 -4.16025,-2.7735 -1.38675,-6.93375c2.7735,-4.16025 6.93375,-1.38675 6.93375,-1.38675c1.32496,0.95041 2.93339,1.59661 3.97489,2.85124c1.30127,1.56756 1.914,3.59706 2.87101,5.3956l1.12402,3.33228c0,0 1.58114,4.74342 -3.16228,6.32456z" fill="#6c6c6c"/><path d="M203.74648,47.33147c0,5 -5,5 -5,5h-1c-5.21964,0 -9.81223,-0.0868 -14.98058,-1.0971c0,0 -4.9029,-0.98058 -3.92232,-5.88348c0.98058,-4.9029 5.88348,-3.92232 5.88348,-3.92232c4.49403,0.92352 8.4571,0.9029 13.01942,0.9029h1c0,0 5,0 5,5z" fill="#6c6c6c"/><path d="M226.71974,56.33147c-1.13511,0.82547 -3.82195,2.22238 -6.50879,-0.46447c-3.53553,-3.53553 0,-7.07107 0,-7.07107l4.53553,-2.46447c3,0 6,0 9,0v0c0.63195,0 1.23651,0.11724 1.79313,0.33115c1.43432,0.48733 3.20687,1.69182 3.20687,4.66885c0,2.97703 -1.77255,4.18152 -3.20687,4.66885c-0.97466,0.33115 -1.79313,0.33115 -1.79313,0.33115c-2.34225,0 -4.68449,0 -7.02674,0z" fill="#6c6c6c"/><path d="M292.74647,279.33146c6,0 6,6 6,6v2c-0.06407,5.32035 -1.644,9.90566 -3.3079,14.89737c0,0 -1.89737,5.6921 -7.58947,3.79473c-5.6921,-1.89737 -3.79473,-7.58947 -3.79473,-7.58947c1.22609,-3.67828 2.76979,-7.18479 2.6921,-11.10263v-2c0,0 0,-6 6,-6z" fill="#b3cedd"/></g></g></svg>