<svg version="1.1" xmlns="http://www.w3.org/2000/svg" xmlns:xlink="http://www.w3.org/1999/xlink" width="572.79553" height="387.66771" viewBox="0,0,572.79553,387.66771"><defs><linearGradient x1="243.77204" y1="-0.73051" x2="243.77204" y2="362.26953" gradientUnits="userSpaceOnUse" id="color-1"><stop offset="0" stop-color="#a60020"/><stop offset="1" stop-color="#ffeb00"/></linearGradient><linearGradient x1="239.392" y1="146.50003" x2="239.392" y2="360.50003" gradientUnits="userSpaceOnUse" id="color-2"><stop offset="0" stop-color="#000000" stop-opacity="0"/><stop offset="1" stop-color="#000000"/></linearGradient></defs><g transform="translate(70.8526,0.73047)"><g data-paper-data="{&quot;isPaintingLayer&quot;:true}" fill-rule="nonzero" stroke="none" stroke-linecap="butt" stroke-linejoin="miter" stroke-miterlimit="10" stroke-dasharray="" stroke-dashoffset="0" style="mix-blend-mode: normal"><path d="M-3.97797,362.26953v-363h495.5v363z" fill="url(#color-1)" stroke-width="0"/><path d="M122.31764,369.94164c-2.55019,-0.29597 -4.9728,-1.29251 -7.4775,-1.85589c-2.96208,0.95163 -5.79774,2.40814 -8.87385,2.82438c-4.04259,0.54701 -8.58298,-0.72424 -12.54401,-0.06504c-5.52344,0.91921 -25.51277,-0.65116 -29.91196,-0.88594c-5.3034,-0.28303 -10.62249,-0.01021 -15.93242,-0.11406c-4.30199,-1.434 -8.13218,-0.33029 -12.54401,-0.93496c-2.51701,-0.34497 -5.45535,-1.29034 -8,-2c-1.02809,-0.28672 -2.04424,0.6262 -3.09025,0.83849c-2.14351,0.43501 -4.3125,0.73353 -6.47077,1.08815c-6.01476,0.98826 -10.91947,1.16327 -16.97279,1.16327c-4.8888,0 -9.88826,-227.20769 -6.97822,-223.91249c4.40759,4.99096 10.39468,8.73307 14.83928,13.82042c1.97251,2.25776 3.97382,4.50041 5.75425,6.91253c1.03447,1.4015 1.44814,3.24904 2.6657,4.49479c0.89154,0.91218 2.34006,1.03971 3.41485,1.72656c2.73536,1.74804 5.37156,3.65719 7.912,5.67808c2.39028,1.90143 4.98076,3.64358 6.92861,5.99618c1.15251,1.39198 1.23094,3.68729 2.74363,4.67606c0.69162,1.03742 1.4203,1.99663 2.15838,2.92899c1.29726,4.54159 4.15823,8.95698 7.49039,12.24994c0.55649,0.54995 1.63525,0.38793 2.124,0.99887c0.9202,1.15025 0.81451,2.97982 1.876,4.00113c1.29585,1.2468 3.27176,1.51024 4.81376,2.43544c2.05887,1.23532 3.29107,3.64238 5.43048,4.73229c0.6386,0.32533 1.48548,-0.77674 2.10826,-0.42205c0.48749,0.27764 -0.32735,1.31722 0.10055,1.68004c1.63358,1.38508 3.74778,2.07486 5.59876,3.15232c1.56206,0.90928 2.67368,2.45268 4.17217,3.46332c1.23589,0.83354 2.73274,1.21496 4,2c1.14965,0.71218 1.81977,2.00238 2.77604,2.95865c1.85795,1.82368 4.17389,3.14444 6,5c0.84301,0.85661 1.14505,2.15531 2,3c2.08574,2.06069 4.47873,3.78532 6.73118,5.66235c1.13946,0.94955 2.73765,1.40431 3.60647,2.60647c1.94801,2.69538 3.88899,5.43727 6,8c0.32468,0.39416 0.97455,0.47348 1.22691,0.91742c0.52093,0.91638 0.42494,2.11659 1,3c1.0287,1.5803 3.16889,2.30743 4,4c0.46461,0.94618 0.42494,2.11659 1,3c1.0287,1.5803 3.16889,2.30743 4,4c0.46461,0.94618 0.45767,2.09612 1,3c0.25153,0.41922 0.63714,0.73203 1.02421,1.04465c0.45341,1.11645 1.03894,2.04126 1.51945,2.69539c0.01964,0.7288 0.04883,1.314 0.09197,1.60447c0.15487,1.04265 0.82671,1.96025 1,3c0.1644,0.98639 -0.20993,2.02228 0,3c0.42627,1.98527 1.06652,3.93464 1.88772,5.79169c0.51783,1.17102 2.0675,1.92869 2.11228,3.20831c0.07091,2.02635 0.35882,4.07646 1,6c-0.49864,5.39933 -0.12913,10.9754 -0.12913,16.39818c0,1.46669 0.41401,2.95942 0.12913,4.39818c-2.62663,13.26529 -1.12913,27.98755 -1.12913,41.60182c0.07805,2.78148 0.4551,6.3722 1.39718,9.7562c-1.1988,-0.07249 -2.39276,-0.17685 -3.57956,-0.31459z" fill="#643c2c" stroke-width="0.5"/><path d="M17.74271,174.65851c-4.24264,4.24264 -8.48528,0 -8.48528,0l-2.44946,-3.34528c-0.2273,-0.96205 -0.71449,-1.9423 -1.46671,-2.58536c-0.70806,0.44721 -1.47794,0.90793 -2.31359,1.38492l0.16451,0.40571c0,0 1.89737,5.6921 -3.79474,7.58946c-5.6921,1.89737 -7.58947,-3.79473 -7.58947,-3.79473l-0.07614,-1.2554c-2.76642,-1.36155 6.58207,-42.71262 10.04833,-38.24986c3.63243,4.6767 3.43018,5.2407 5.66678,10.692c0.47735,0.96425 1.04869,1.88742 1.43204,2.89275c1.78591,4.68345 3.45747,7.97615 3.62332,10.84771c0.77566,0.46803 1.2404,0.93277 1.2404,0.93277c1.94553,2.09987 3.44886,4.66324 4.44946,7.34528l-0.44946,-1.34528c0,0 4.24264,4.24265 0,8.48529z" fill="#85a3b4" stroke-width="0.5"/><path d="M114.50001,319.50002c-2.45379,0 -2.90055,-2.00703 -2.98189,-2.73787c-1.23789,-1.23698 -3.3426,-3.34672 -3.45183,-3.508c-0.83595,-1.23426 -1.17703,-2.75704 -2,-4c-2.43064,-3.67105 -6.81538,-6.45539 -9.11823,-10.17694c-0.55466,-0.89636 -0.47345,-2.08684 -1,-3c-0.87644,-1.51995 -2.66942,-2.30725 -3.76807,-3.67523c-1.77821,-2.21412 -3.12581,-4.7569 -4.94634,-6.93636c-2.57095,-3.07783 -5.03547,-5.45459 -6.28559,-9.38841c-2.88324,-2.67473 -6.82233,-5.78354 -9,-9c-0.59096,-0.87286 -0.46297,-2.09297 -1,-3c-0.41363,-0.69862 -1.25918,-1.04262 -1.76807,-1.67523c-3.00092,-3.73046 -5.4242,-8.40355 -8.80129,-11.78065c-3.43083,-3.43083 -8.04885,-5.70154 -11.78065,-8.80129c-0.50963,-0.42331 -0.62497,-1.31789 -1.24608,-1.54839c-1.0219,-0.37923 -2.33911,0.44447 -3.26752,-0.12661c-1.28484,-0.79034 -1.68544,-2.52857 -2.76379,-3.58338c-0.20596,-0.20147 -0.42199,-0.39108 -0.64519,-0.57225c-0.06572,0.03747 -0.13418,0.07407 -0.20549,0.10972c-2.68328,1.34164 -4.02492,-1.34164 -4.02492,-1.34164c-1.64879,-3.31089 -2.69601,-7.5045 -4.75045,-10.58751c-2.44619,-3.6709 -6.7866,-6.33546 -9.11822,-10.17694c-0.54693,-0.9011 -0.46297,-2.09296 -1,-3c-0.41363,-0.69862 -1.25981,-1.04211 -1.76807,-1.67522c-1.50477,-1.87442 -2.45998,-4.15444 -4,-6c-2.0704,-2.48116 -5.51884,-4.55631 -7.23193,-7.32478c-0.90217,-1.45798 -1.31241,-3.28982 -2.56937,-4.45587l-1.56196,-2.77968c0,0 -1.34164,-2.68328 1.34164,-4.02492l-0.00001,-0.00001c2.68328,-1.34164 4.02492,1.34164 4.02492,1.34164l0.43804,1.22033c0.81021,0.84804 1.81347,1.54676 2.43063,2.54413c0.55465,0.89637 0.47345,2.08684 1,3c1.36202,2.36205 5.07557,4.64187 6.76808,6.67522c1.53777,1.84744 2.50152,4.12055 4,6c0.66969,0.83995 1.67453,1.40645 2.23192,2.32478c0.54693,0.9011 0.46297,2.09296 1,3c2.20324,3.72124 6.49958,6.2509 8.88178,9.82306c1.59813,2.39643 2.62048,5.20832 3.71978,7.93945c0.60818,0.19135 1.01818,0.49885 1.01818,0.49885c1.45979,1.11278 3.09744,2.02461 4.37936,3.33835c0.63191,0.6476 0.4525,1.96441 1.23621,2.41662c0.78976,0.4557 1.89295,-0.48239 2.73248,-0.12661c1.13161,0.47955 1.78253,1.69869 2.75392,2.45161c3.98875,3.09168 8.64736,5.62672 12.21935,9.19871c3.5253,3.5253 6.09677,8.32163 9.19871,12.21935c0.66894,0.84055 1.67454,1.40645 2.23193,2.32477c0.54693,0.9011 0.42291,2.11791 1,3c2.0915,3.19691 6.33425,6.20977 9,9c1.29469,3.7303 3.25998,5.65979 5.71441,8.61159c1.85099,2.22608 3.25015,4.79892 5.05366,7.06364c1.16147,1.45848 3.26563,2.76318 4.23193,4.32477c0.55466,0.89636 0.47345,2.08684 1,3c0.86265,1.49603 2.60692,2.28655 3.71441,3.61159c1.72722,2.06651 3.66683,3.97492 5.16736,6.21147c0.83053,1.23792 1.1835,2.75279 2,4c0.9451,1.44364 2.46749,2.41271 3.68759,3.63281l0.87868,3.12132c0,0 0,3 -3,3z" fill="#341f17" stroke-width="0.5"/><path d="M97.18329,340.84169c-1.34164,2.68328 -4.02492,1.34164 -4.02492,1.34164l-2.77968,-1.56196c-1.50216,-1.51627 -2.48886,-3.49268 -4,-5c-0.89384,-0.89158 -2.31815,-1.16717 -3.12771,-2.13591c-0.95592,-1.14387 -1.04588,-2.85463 -2,-4c-0.81278,-0.9757 -2.34416,-1.17092 -3.13509,-2.16443c-0.581,-0.72981 -0.08538,-2.03234 -0.7372,-2.69966c-0.58718,-0.60115 -1.74143,-0.12694 -2.45587,-0.56937c-1.08083,-0.66931 -1.82856,-1.76666 -2.74283,-2.64999c-2.4592,-3.66081 -5.20698,-6.64879 -8,-10c-1.25233,-1.50261 -2.0909,-3.40015 -3.623,-4.61622c-3.00463,-2.38485 -6.2264,-4.50682 -9.07998,-7.07048c-3.10248,-2.78726 -5.71239,-6.18604 -8.87895,-8.89524c-3.6081,-3.08697 -7.90879,-5.88449 -11.27739,-9.25838c-3.30401,-3.3092 -5.57164,-7.59485 -8.94196,-10.94033c0,0 -0.75466,-0.75466 -0.91363,-1.81387c-2.47428,-4.12529 -3.0147,-9.86131 -5.82095,-13.70975c-1.7986,-2.46656 -4.18812,-4.46678 -5.96482,-6.94917c-2.7083,-3.78403 -4.44417,-8.16341 -6.98471,-11.97859c-1.27612,-1.91638 -3.29857,-3.34459 -4.26122,-5.43608c-2.09714,-4.55633 -2.86621,-10.33289 -5.73878,-14.56392c-0.52958,-0.78002 -1.49703,-1.20256 -2,-2c-2.50391,-3.96979 -2.49939,-18.13976 -2.01432,-17.33131c0.99334,1.65555 1.6099,3.60611 2.97935,4.96706c1.10097,2.89867 2.22442,6.24063 3.90243,8.856c0.50913,0.79352 1.4825,1.21192 2,2c3.08258,4.69438 4.06232,10.37127 6.26122,15.43608c0.78318,1.80393 2.64716,2.9281 3.73878,4.56392c2.56109,3.83786 4.30385,8.21693 7.01529,12.02141c1.79551,2.51933 4.25201,4.52277 6.03519,7.05083c3.73161,5.2904 3.84142,11.90408 8.63712,16.56057c0,0 1.00711,1.00711 0.93956,2.32741c1.77106,2.35352 3.44633,4.77619 5.49018,6.81644c3.20036,3.1947 7.30198,5.80459 10.72261,8.74162c3.25187,2.79213 5.93537,6.23849 9.12105,9.10476c2.79896,2.51832 6.00698,4.54409 8.92002,6.92952c1.78943,1.46533 2.89646,3.60691 4.377,5.38378c2.77654,3.33227 5.57897,6.3371 8,10c1.26039,1.35348 3.48316,1.48334 4.80129,2.78065c0.8395,0.82624 0.52491,2.38222 1.2628,3.30034c0.7105,0.88404 2.13867,0.96442 2.86491,1.83557c0.95455,1.14501 1.04734,2.85341 2,4c0.72942,0.8779 2.06619,1.05602 2.87229,1.86409c1.50738,1.51108 2.48209,3.49949 4,5l1.22032,0.43804c0,0 2.68328,1.34164 1.34164,4.02492z" fill="#341f17" stroke-width="0.5"/><path d="M11.84165,345.18331c-2.68328,1.34164 -4.02492,-1.34164 -4.02492,-1.34164l-1.16277,-2.39296c-1.3557,-4.5545 -5.6125,-8.18588 -7.83723,-12.60704c0,0 -0.4708,-0.9416 -0.29683,-1.98813l-0.23762,-0.48903c-0.37174,-1.15605 -0.91328,-2.2707 -1.11522,-3.46813c-0.14482,-0.85879 0.33776,-1.77627 0.08999,-2.6112c-0.39689,-1.33738 -3.11238,-3.35189 -3.68068,-4.29216c-0.5955,-0.98527 -0.62637,-2.23032 -1.14299,-3.25914c-0.53932,-1.07405 -1.46857,-1.92203 -2,-3c-1.22666,-2.48818 -1.40355,-5.31268 -2.41846,-7.8659c-1.1495,-2.89179 -0.09021,-12.5495 0.80833,-10.77021c1.47868,2.92805 3.561,5.55572 4.78503,8.59904c0.9609,2.3891 1.04851,5.10521 2.21497,7.40096c0.54441,1.07148 1.46453,1.92403 2,3c0.42649,0.85698 0.36788,1.91802 0.857,2.74086c1.21918,2.05097 3.51933,3.45997 4.31933,5.70784c0.67063,1.88434 0.31494,4.03252 0.97477,5.92067l0.83723,1.60704c0,0 0.41965,0.83931 0.32015,1.81382c2.40487,4.02148 5.63076,7.22317 7.21434,11.66334l0.83723,1.60704c0,0 1.34164,2.68328 -1.34164,4.02492z" fill="#341f17" stroke-width="0.5"/><path d="M61.44869,354.34609c-2.84605,0.94868 -3.79473,-1.89737 -3.79473,-1.89737l-0.7059,-2.37149c-1.85188,-1.74082 -3.45073,-3.7545 -4.89707,-5.84448c-0.51594,-0.74554 -0.65461,-1.79413 -1.37196,-2.3486c-0.93195,-0.72034 -2.4741,-0.4233 -3.30034,-1.2628c-0.89365,-0.90799 -0.69014,-2.50744 -1.43063,-3.54413c-2.37412,-3.32377 -5.82654,-4.71304 -8.56937,-7.45587c-0.91889,-0.91889 -1.38691,-2.20461 -2.19871,-3.21935c-2.89198,-3.61498 -7.0109,-7.70161 -10.58194,-10.58194c-1.05879,-0.854 -2.47925,-1.28711 -3.34707,-2.33462c-1.08235,-1.30647 -1.59259,-2.99379 -2.36378,-4.5074c-2.99379,-2.99485 -5.56731,-5.91358 -8.18484,-9.20549c-1.13004,-1.42118 -3.30928,-2.81498 -4.23192,-4.32477c-2.86995,-4.6963 -3.04374,-9.8807 -8.11215,-13.08105c0,0 -2.49615,-1.6641 -0.83205,-4.16025c1.6641,-2.49615 4.16025,-0.83205 4.16025,-0.83205c1.16903,0.80863 2.57714,1.35086 3.50708,2.4259c3.30274,3.81804 3.99729,8.40841 6.38076,12.49306c0.88428,1.51541 2.66832,2.30813 3.76808,3.67523c2.52282,3.13608 4.92914,5.90849 7.80129,8.78065l1,1c0,0 1.15194,1.15194 0.90921,2.60694c0.18547,0.41584 0.40396,0.81062 0.69614,1.15842c0.67161,0.79944 1.83486,1.01659 2.65293,1.66538c3.33068,2.64148 6.213,6.17757 9.21935,9.19871c1.50552,1.51293 2.49077,3.49077 4,5c3.12414,3.12414 6.66092,4.66653 9.43063,8.54413c0.48844,0.68381 -0.03178,1.86869 0.56937,2.45587c0.66732,0.65182 1.97965,0.1441 2.69966,0.7372c2.9632,2.44089 4.99438,6.94723 7.73097,9.80693l1.2941,3.62851c0,0 0.94868,2.84605 -1.89737,3.79473z" fill="#341f17" stroke-width="0.5"/><path d="M494.42225,365.84511c-1.97333,0.32553 -27.04161,2.59416 -29,3c-2.9974,0.62116 -6.28515,1.09614 -9.61453,1.32573c-0.03233,0.04652 -0.06559,0.09253 -0.09984,0.138c-4.80149,6.37338 -31.30672,0.12784 -33.94363,-2.2528c-0.62412,0.03603 -1.23799,0.06723 -1.83844,0.09037l-47.96454,1.84479c0,0 -10.40736,0.40028 -12.20352,-9.24071c-3.86833,-0.35639 -8.54547,0.24958 -12.25767,0.24958c-2.82696,0 -5.65393,0 -8.48089,0c-0.74028,0.48985 -1.46189,1.00376 -2.13304,1.58335c-0.79925,0.69022 -1.06492,1.84518 -1.78606,2.61665c-0.30808,0.32959 -1.0849,1.02648 -1.2158,0.59473c-0.22179,-0.73155 -0.11834,-1.50219 -0.00606,-2.27722c-0.95367,-0.73525 -1.91309,-1.46364 -2.87655,-2.18719c-1.49692,1.93746 -3.57326,3.40446 -5.96937,4.14137l-2.73749,0.9125c-0.15612,0.0488 -0.31251,0.09723 -0.46918,0.14527c0.01281,-3.12848 -0.32563,-6.46011 -0.32563,-9.02948c0,-3.40932 0.3694,-7.2455 -0.12913,-10.60182c-0.15487,-1.04265 -0.83212,-1.95936 -1,-3c-0.28667,-1.77693 0.12913,-3.59827 0.12913,-5.39818c0,-3.45451 0,-6.90902 0,-10.36352c0.33473,-0.999 0.62114,-2.01482 0.87087,-3.03465c0.23785,-0.9713 -0.13743,-2.00949 0,-3c0.55404,-3.99326 3.26266,-7.97219 4,-12c0.18007,-0.98365 -0.1644,-2.01361 0,-3c0.50556,-3.03338 1.49444,-5.96662 2,-9c0.1644,-0.98639 -0.1644,-2.01361 0,-3c0.17329,-1.03975 0.84484,-1.95739 1,-3c0.08489,-0.57044 -0.49598,-1.16159 -0.29995,-1.70398c0.4085,-1.1303 1.63866,-1.85375 2,-3c0.82607,-2.62048 0.14025,-4.99648 1.41223,-7.50433c1.0873,-2.14373 2.70275,-3.97641 4,-6c0.60467,-2.46809 3.13707,-4.00658 4.52336,-6.1362c0.57506,-0.88341 0.45767,-2.09612 1,-3c0.48507,-0.80845 1.53871,-1.17774 2,-2c1.03147,-1.83862 1.00492,-4.14143 2,-6c0.89002,-1.66235 3.0205,-2.38875 4,-4c0.6749,-1.11019 1.02891,-2.37012 1.37601,-3.63564c2.65097,-0.9366 5.28403,-1.88347 7.62239,-3.27326c1.53884,-0.9146 2.13133,-3.08253 3.7524,-3.8419c2.12826,-0.99695 4.31114,-1.91763 6.28969,-3.18601c1.58736,-1.05824 6.59281,-4.34485 7.52407,-5.24944c2.07392,-2.01453 3.8737,-4.8737 6,-7c1.09609,-1.09609 6.47071,-6.33174 7.43544,-7.81376c0.57506,-0.88341 0.53539,-2.05382 1,-3c0.24972,-0.50857 0.69787,-0.85821 1.18268,-1.18179c0.3969,0.56606 0.77509,1.13461 1.12758,1.69523c2.17526,-3.59464 4.49856,-7.10787 7.24178,-10.2738c2.15459,-2.4866 5.01503,-4.43718 6.73373,-7.30572c2.46245,-4.10988 4.80064,-8.46624 8.31111,-11.72683c2.94681,-2.73705 6.90507,-4.21455 9.89365,-6.90594c3.8557,-3.47229 7.31774,-7.33939 10.51669,-11.40753c1.34148,-1.70598 2.40253,-3.66838 4.00109,-5.13621c4.05646,-3.72474 9.32314,-6.24055 13.20518,-10.12259c2.08849,-3.30246 4.48221,-7.88726 7.33847,-10.38827c1.82492,-1.59795 5.12879,-2.66986 7.33376,-4.28397c1.69356,-1.23974 3.05005,-3.0706 5.01567,-3.80645c0.71073,-0.26607 24.2029,-13.67835 24.4699,15.38138c0.62979,68.54509 0.00679,215.22652 -1.95556,215.55024z" fill="#643c2c" stroke-width="0.5"/><path d="M402.00702,359.71931c-2.12132,-2.12132 0,-4.24264 0,-4.24264l0.27528,0.17263c1.18255,-3.31572 1.02233,-4.50447 4.26885,-6.60327c2.12918,-1.37646 4.10498,-1.06273 6.25914,-2.14299c1.94194,-0.97384 3.71805,-2.27004 5.41609,-3.62508c3.85513,-3.07642 6.5802,-7.08025 10.78064,-9.80129c0.76678,-1.0876 1.2608,-2.43204 2.30034,-3.2628c0.89774,-0.71744 2.25074,-0.58946 3.24379,-1.16783c2.36935,-1.37997 4.62712,-5.06328 6.67523,-6.76807c1.84744,-1.53776 4.12056,-2.50151 6,-4c0.83995,-0.66969 1.40644,-1.67454 2.32477,-2.23193c0.9011,-0.54693 2.11791,-0.42291 3,-1c3.82509,-2.50247 6.33168,-7.44517 9.45587,-10.56937c4.60793,-4.60793 9.95538,-7.98513 13.62517,-13.54278c0,0 1.6641,-2.49615 4.16025,-0.83205c2.49615,1.6641 0.83205,4.16025 0.83205,4.16025c-2.87269,4.27429 -6.60778,8.23989 -10.53055,11.60226c-1.21189,1.03876 -2.71564,1.72631 -3.84429,2.85496c-3.5906,3.5906 -6.20286,8.49142 -10.54413,11.43063c-0.87286,0.59096 -2.09296,0.46297 -3,1c-0.69862,0.41363 -1.04211,1.25981 -1.67523,1.76807c-1.87442,1.50477 -4.15444,2.45997 -6,4c-2.47623,2.06628 -4.55751,5.52845 -7.32477,7.23193c-0.81727,0.50309 -2.0072,0.23217 -2.75621,0.83217c-0.83821,0.67145 -1.13311,1.8248 -1.69966,2.7372c-6.38623,4.36157 -10.74175,11.05108 -17.80327,14.57362c-3.94565,1.96823 -6.12317,0.72233 -7.472,5.25374l-1.72473,2.17264c0,0 -2.12132,2.12132 -4.24264,0z" fill="#341f17" stroke-width="0.5"/><path d="M437.00702,292.71925c-2.12132,-2.12132 0,-4.24264 0,-4.24264l0.27528,0.17263c0.57491,-1.39088 0.69374,-3.07621 1.72472,-4.17263c0.87273,-0.92812 2.46077,-0.76027 3.54413,-1.43063c0.80173,-0.4961 1.1907,-1.51635 2,-2c2.6886,-1.60678 3.35104,-0.38344 5.45587,-2.56937c2.33779,-2.42786 2.88366,-5.78842 4.56937,-8.45587c2.47099,-3.91006 7.47057,-4.79251 10.23192,-8.32477c3.65627,-4.67703 7.01148,-9.99281 11.19871,-14.21936c0,0 2.12132,-2.12132 4.24264,0c2.12132,2.12132 0,4.24264 0,4.24264c-4.90933,4.85306 -7.80539,11.80106 -13.21936,16.1987c-1.92113,1.56049 -6.08118,2.95867 -7.35001,5.25717c-1.73845,3.14922 -2.68399,6.86296 -5.43063,9.54413c-1.76244,1.72044 -4.43463,2.15937 -6.54413,3.43063c-0.80751,0.48663 -1.18324,1.52904 -2,2c-0.72798,0.41977 -1.82425,0.01509 -2.45587,0.56937c-0.46299,0.4063 -0.18351,1.21824 -0.27527,1.82736l-1.72473,2.17264c0,0 -2.12132,2.12132 -4.24264,0z" fill="#341f17" stroke-width="0.5"/><path d="M376.49451,331.62385c-0.03944,0.56559 -0.36168,2.87618 -2.9945,2.87618c-3,0 -3,-3 -3,-3l0.87868,-3.12132c2.42461,-2.24927 2.85318,-5.4367 4.52659,-8.38446c1.37537,-2.42275 2.61746,-4.92911 4.161,-7.24835c0.49973,-0.75086 1.46516,-1.12392 1.9292,-1.89734c1.89233,-3.15394 1.57044,-3.38627 1.50452,-6.34853c0,0 0,-2.61855 2.44642,-2.96281l3.06058,-3.06058c0.84804,-0.81021 1.53992,-1.82467 2.54413,-2.43063c3.87671,-2.33931 9.47535,-1.61487 12.02524,-6.02524c1.18502,-2.04965 1.77177,-4.4611 3.23192,-6.32477c2.60397,-3.32356 5.28913,-6.75691 8,-10c1.51166,-1.80843 3.53305,-3.15511 5,-5c3.16523,-3.9807 6.09449,-8.12486 9.76808,-11.67523c1.01162,-3.3443 2.42048,-7.65658 3.82641,-10.67638c1.51414,-3.25221 4.14467,-5.86306 6.40551,-8.64839c3.17201,-3.90788 5.70135,-8.57861 8.49568,-12.76983c2.84942,-4.27384 5.454,-9.0568 8.47662,-13.19585c1.89137,-2.58996 4.11053,-4.77876 5.753,-7.63813c1.27815,-2.22511 1.71844,-4.87347 3.04278,-7.07142c1.38979,-2.30657 3.5396,-4.06593 5.15195,-6.2228c0,0 1.8,-2.4 4.2,-0.6c2.4,1.8 0.6,4.2 0.6,4.2c-1.51128,2.00897 -3.56023,3.61815 -4.84805,5.7772c-1.28636,2.1566 -1.71562,4.74592 -2.95722,6.92858c-1.76774,3.10757 -4.19218,5.55247 -6.24699,8.36187c-2.92498,3.99911 -5.42775,8.66041 -8.17979,12.78875c-2.9059,4.35913 -5.55913,9.17104 -8.84792,13.24557c-1.93412,2.39622 -4.3322,4.54281 -5.59449,7.35161c-1.53744,3.42102 -2.88999,7.71869 -4.17359,11.32362c-3.75856,3.86654 -6.87192,8.14799 -10.23192,12.32477c-1.4774,1.83654 -3.49402,3.18683 -5,5c-2.72229,3.27758 -5.29543,6.70527 -8,10c-2.30232,2.80469 -2.54579,5.56644 -5.19871,8.21936c-0.82934,0.82934 -1.53992,1.82466 -2.54413,2.43063c-3.45731,2.08623 -7.6431,1.53733 -10.45587,4.56937l-3.91209,3.91209c-0.87339,6.3049 -5.04764,10.82308 -8.24283,16.37443c-1.85252,3.21858 -2.44045,5.91668 -4.60023,8.61804z" fill="#341f17" stroke-width="0.5"/><path d="M334.55133,338.34609c-2.84605,-0.94868 -1.89737,-3.79473 -1.89737,-3.79473l1.1511,-3.36937c1.23274,-1.86029 3.00602,-3.33882 4.14299,-5.25914c0.53703,-0.90703 0.44534,-2.10364 1,-3c1.94923,-3.15008 5.92475,-5.25218 8.11823,-8.17694c0.82135,-1.09518 1.20261,-2.45966 1.80391,-3.6895c3.16587,-5.27916 7.23847,-10.46226 9.97475,-15.95302c0.81294,-1.63128 1.14643,-3.48446 2.03977,-5.07313c0.72648,-1.29192 2.18146,-2.11827 2.76924,-3.47891c0.36855,-0.85315 -0.30045,-1.88905 -0.06226,-2.78735c0.82534,-3.11259 3.74826,-5.38141 5.3813,-7.88083c2.80029,-4.28593 4.38729,-9.43825 6.93228,-13.88892c3.20247,-5.60048 7.98397,-10.5516 10.98768,-16.29844c-0.43786,-0.44441 -0.76463,-1.10775 -0.76463,-2.09787l0.00001,0.00001c0,-3 3,-3 3,-3l0.02404,0.03606c0.46704,-0.63333 1.29531,-1.33036 2.62034,-1.14248c1.48038,-1.10769 2.86993,-2.33484 4.03558,-3.79554c2.23645,-2.80254 3.47429,-6.4326 6.5659,-8.53176c2.15794,-1.46521 4.94047,-1.77596 7.17694,-3.11823c2.56032,-1.53663 4.81763,-4.11201 6.45587,-6.56937c4.0007,-2.74815 8.40298,-5.20661 12.21936,-8.1987c3.45484,-2.70865 4.84576,-7.25338 8.23145,-10.18093c3.07702,-2.66065 7.86253,-5.72191 10.23679,-9.25318c2.53578,-3.77149 2.63306,-8.54272 4.74619,-12.57896c1.09981,-2.10072 2.14641,-4.3177 3.81036,-6.00704c0.8223,-0.83486 2.3206,-0.56844 3.29999,-1.21183c0.99021,-0.6505 1.63725,-1.71291 2.45587,-2.56937c0,0 2.12132,-2.12132 4.24264,0c2.12132,2.12132 0,4.24264 0,4.24264c-1.18138,1.14354 -2.18176,2.51015 -3.54413,3.43063c-0.77687,0.52489 -2.02965,0.13269 -2.70001,0.78817c-4.44797,4.34925 -4.07961,12.33814 -7.44346,17.41401c-2.60067,3.92427 -7.6752,7.30726 -11.13363,10.24316c-2.65862,2.25693 -3.81822,5.24321 -5.98007,7.90467c-3.52616,4.34107 -9.53244,7.23701 -14.19871,10.21936c-1.86937,2.80406 -4.61465,5.67331 -7.54413,7.43063c-2.11717,1.27004 -4.75149,1.53864 -6.82306,2.88178c-2.4567,1.59284 -3.67699,5.27639 -5.4341,7.46824c-1.9592,2.44393 -4.38886,4.35402 -6.93777,6.10627c-3.05703,7.06935 -8.59689,12.71143 -12.41585,19.39962c-2.58935,4.53476 -4.22744,9.73105 -7.06772,14.11108c-1.39042,2.14417 -4.12524,3.61174 -4.6187,6.11917c-0.20682,1.05093 0.35735,2.22718 -0.06226,3.21265c-0.72565,1.70421 -2.33883,2.89771 -3.23076,4.52109c-0.85111,1.54909 -1.16775,3.34698 -1.96023,4.92687c-2.77683,5.53593 -6.82789,10.72097 -10.02525,16.04698c-0.73203,1.43683 -1.22853,3.02047 -2.19609,4.3105c-1.79913,2.39875 -6.28371,5.05166 -7.88177,7.82306c-0.52655,0.91316 -0.45307,2.0989 -1,3c-1.05704,1.74153 -2.72002,3.05044 -3.85701,4.74086l-0.8489,2.63063c0,0 -0.94868,2.84605 -3.79473,1.89737z" fill="#341f17" stroke-width="0.5"/><path d="M497.82328,230.77054c-1.27929,2.52275 -4.55953,6.78918 -6.57362,8.80327c-2.00198,2.00198 -5.03408,3.15145 -6.68759,5.63281c-1.35113,2.02758 -1.84703,3.95352 -2.58767,6.19455c0,0 -0.94869,2.84605 -3.79474,1.89737c-2.84605,-0.94869 -1.89736,-3.79473 -1.89736,-3.79473c1.0303,-3.06803 1.47168,-4.89541 3.41232,-7.80545c1.88786,-2.8309 5.04449,-4.09927 7.31241,-6.36719c0.78091,-0.7809 1.11397,-1.91624 1.80129,-2.78065c1.18529,-1.49067 2.78679,-2.70603 3.62508,-4.41608c2.50903,-5.11822 3.41606,-10.92378 4.6374,-16.36643c0.7441,-3.31593 2.60539,-6.25033 3.08002,-9.68207c0.55255,-3.99512 0.41483,23.27668 -2.32754,28.6846z" fill="#341f17" stroke-width="0.5"/><path d="M499.88245,332.88617c-4.12153,2.78697 -8.97423,4.6397 -12.85217,7.8863c-5.86187,4.90755 -12.34912,9.35732 -17.78064,14.80129c0,0 -2.12132,2.12132 -4.24264,0c-2.12132,-2.12132 0,-4.24264 0,-4.24264c5.58318,-5.57158 12.18574,-10.19212 18.21936,-15.1987c3.99637,-3.3161 8.87478,-5.31503 13.14783,-8.1137c1.92019,-1.25765 3.09102,-3.41417 4.85217,-4.8863c1.38984,-1.16175 0.65969,8.39892 -1.34391,9.75375z" fill="#341f17" stroke-width="0.5"/><path d="M499.50008,140.41583c-0.91505,0 -1.84701,0.16746 -2.74946,0.04268c-1.90939,1.23727 -3.91111,2.43256 -6.09616,3.06122l-0.91174,1.13874c0,0 -4.24264,4.24264 -8.48528,0c-0.80316,-0.80317 -1.30224,-1.60634 -1.58357,-2.38072c-1.97465,-0.3015 -3.79098,-1.08432 -5.32548,-2.22495c-2.45641,2.45641 -5.37949,5.3795 -7.60566,7.60567c0,0 -4.24264,4.24264 -8.48528,0c-4.24264,-4.24264 0,-8.48529 0,-8.48529c2.66667,-2.66666 5.33333,-5.33334 8,-8l1,-1c0,0 0.93522,-0.93521 2.36657,-1.48839c0.79921,-5.53164 5.3716,-9.84252 11.02371,-10.23916c0.93905,-1.75062 4.42193,-4.58593 5.36708,-5.51508c3.22367,-3.16908 3.63564,-3.82355 8.21306,-6.2945c2.10677,-1.13726 2.46206,-0.35283 3.66435,-1.50033c3.9782,-3.79689 4.17139,35.28011 1.60786,35.28011z" fill="#87a5b6" stroke-width="0.5"/><path d="M-62.63485,360.60145c-0.60231,-0.34729 -1.20568,-0.72709 -1.80904,-1.14157c-14.4196,-9.9056 0,-19.81121 0,-19.81121c6.67985,-4.41689 10.69712,-9.07993 18.05213,-13.51853c1.12498,-0.6789 3.11915,-0.59541 3.97281,-1.44055c1.47328,-1.45861 1.24752,-3.49798 2.56011,-5.02729c3.19226,-3.71933 9.23288,-6.73393 12.84658,-10.24855c1.90555,-1.85331 3.05911,-4.05188 5.0981,-5.83693c3.61724,-3.16675 8.99339,-5.17635 13.15483,-8.01018c1.11207,-0.7573 1.37108,-1.97211 2.44257,-2.75653c3.721,-2.72412 7.52192,-5.44022 11.84685,-7.70469c1.42466,-0.74593 3.46608,-0.66014 5.0981,-1.16739c3.08369,-0.95844 7.2237,-6.56329 10.24492,-8.63873c5.20752,-5.65671 10.74946,-11.25256 16.99367,-16.34341c4.10494,-3.34671 9.53973,-5.98221 13.59493,-9.33909c6.16212,-5.10098 10.76895,-11.26504 16.99367,-16.34341c1.89479,-1.54585 3.93964,-3.02767 6.24048,-4.28692c0.58467,-0.31999 1.80728,0.1128 2.19127,-0.32779c1.23629,-1.41856 1.01306,-3.28756 2.20972,-4.72207c1.14434,-1.37178 3.22679,-2.26348 4.65285,-3.50446c6.34657,-5.5229 13.43587,-10.51035 17.11653,-17.16164c2.13208,-1.64326 5.3348,-2.71101 6.79747,-4.66955c1.11499,-1.493 1.33574,-3.31858 2.8402,-4.64053c1.25792,-1.10532 3.71325,-1.30353 5.0981,-2.33478c0.39092,-0.2911 -0.6774,-0.80161 -0.41346,-1.15372c1.65474,-2.20754 3.77903,-4.24208 5.94724,-6.22876c2.17573,-1.99358 4.38374,-3.97712 6.79747,-5.83693c0.84955,-0.65458 2.49103,-0.76089 3.12294,-1.52288c0.63334,-0.76372 -0.16346,-1.81371 0.31911,-2.62775c1.64594,-2.77651 3.6724,-5.45633 5.98128,-8.0003c0.84766,-0.93396 2.51,-1.419 3.39873,-2.33478c1.40521,-1.44796 1.942,-3.24582 3.39873,-4.66955c4.82292,-4.71366 12.4835,-7.94324 17.76654,-12.3642c5.20293,-4.35393 7.56626,-8.32039 13.24626,-12.69815c2.67355,1.16832 -1.44966,-0.48398 3.31173,-4.43448c2.29217,-1.90181 5.61914,-3.08049 8.37552,-4.66508c2.51607,-1.44645 3.90588,-3.62576 6.01987,-5.34933c3.44798,-2.8112 6.49568,-5.01016 9.83141,-7.87454c5.19773,-4.46326 10.7158,-8.62506 16.64499,-12.69815c2.62955,-1.80637 5.85712,-3.23797 8.07264,-5.28971c2.42386,-2.2447 3.75392,-5.05143 6.58078,-7.06143c0.95008,-0.67555 3.07884,0.17826 4.03963,-0.49011c1.25865,-0.87557 0.38537,-2.66585 1.69937,-3.50216c2.43032,-1.5468 5.95584,-2.00728 8.79679,-3.17824c3.13147,-1.29071 5.02117,-3.7548 8.19688,-4.99346c1.40849,-1.70411 3.9832,-2.83484 5.56962,-4.46349c0.73504,-0.75462 0.32725,-1.85055 0.98302,-2.63889c1.64281,-1.97495 4.06167,-3.603 5.81445,-5.53282c2.25932,-2.48754 4.11408,-5.22731 6.98316,-7.38601l2.12276,-2.9165c3.2698,-4.73836 10.29638,-8.01523 18.43709,-8.01523c9.07572,0 16.76668,4.07284 19.41108,9.70302c1.77387,1.19983 3.38274,2.4969 4.73319,3.94517c3.41605,3.66344 5.21668,7.95227 8.49683,11.67387c3.02475,3.43181 7.44676,6.21773 10.46854,9.65078c1.6328,1.85503 2.02471,4.13176 3.55694,6.02684c1.47123,1.81961 4.03233,3.16833 5.3839,5.03122c4.53224,6.24689 2.64704,7.78583 7.6109,12.96014c2.08026,2.16846 5.188,3.84385 7.04263,6.10685c4.84177,5.9079 6.77741,12.76855 11.22233,18.82183c2.28016,3.10522 5.73378,5.75011 8.11978,8.81756c3.2298,4.15223 5.26838,8.75511 9.04731,12.68255c2.11172,2.1947 4.92504,4.09604 6.58856,6.46569c3.40762,4.85408 4.52606,11.28207 7.53256,16.37817c2.35395,4.91906 3.60476,10.05674 5.58808,15.05231c0.77394,1.94942 2.47504,3.68192 3.3076,5.61992c1.6559,3.85457 1.71634,7.98392 3.46073,11.82003c6.53818,14.37821 16.62939,27.76516 24.72162,41.67798c5.83789,10.03697 9.95666,20.55229 15.45938,30.63447c2.53617,4.64681 7.05914,8.0127 10.03112,12.55883c1.70108,2.60207 2.60385,5.49198 4.90713,7.86534c1.48158,3.61758 1.9646,7.51393 4.51212,10.83961c1.43863,1.87807 4.07415,3.24971 5.448,5.15053c1.19239,1.64976 1.04764,3.64293 2.12642,5.32919c2.77892,4.34379 7.59192,8.08943 9.50359,12.64883c0.51508,1.22849 -0.77309,2.58702 -0.32947,3.82859c0.23885,0.66846 1.74481,0.7938 2.20014,1.40692c3.74931,5.04859 1.47366,40.67596 -2.38057,44.35546c-12.17659,11.62459 -367.3909,3.18198 -380.17435,3.80373c-14.95509,0.72738 -30.29486,0.02144 -45.31123,0.02144c-12.68404,0 -26.38428,0.91164 -38.95321,-0.18089c-9.53482,-0.8288 -19.46302,-3.60605 -28.88923,-4.66955c-5.16616,-0.58286 -10.47284,-0.61322 -15.56251,-1.45579c-6.1141,-1.01216 -12.31354,-3.64973 -18.42482,-4.38113c-16.07225,-1.92353 -23.46222,1.10216 -29.73645,-13.28705z" fill="#636363" stroke-width="0.5"/><path d="M165.88247,271.74457c-4.83648,-0.99768 -3.22433,-3.99072 -3.22433,-3.99072l1.69937,-3.15494c1.75155,-3.22775 2.49987,-5.14629 5.79878,-8.20858c0.6816,-0.63271 2.38328,-0.7562 2.8245,-1.46591c0.51776,-0.83282 -0.64448,-1.81387 -0.25169,-2.67246c0.69008,-1.50842 2.70347,-2.69909 3.39873,-4.20659c0.49992,-1.08396 0.06719,-2.2541 0.10079,-3.38116c5.40546,-4.97053 6.39047,-10.15408 9.89434,-15.74132c3.47514,-5.54141 7.70639,-11.10943 10.47224,-16.80767c0.86968,-1.79174 0.70909,-3.75969 1.831,-5.49691c1.28202,-1.98514 3.74817,-3.60236 5.28231,-5.51779c2.96232,-3.69855 3.85377,-7.94786 6.85256,-11.63513c1.2267,-1.50835 3.84228,-2.48961 4.95981,-4.03011c1.2958,-1.78628 0.52565,-4.03387 2.1175,-5.72602c1.16801,-1.2416 4.13369,-1.43406 5.64441,-2.52494c1.96389,-1.41812 2.88663,-3.28602 4.55709,-4.84148c1.43007,-1.33161 3.56315,-2.37414 4.72548,-3.80207c2.82562,-3.4713 -0.33382,-4.53682 3.9505,-7.92066c1.6008,-1.26435 4.21445,-1.87556 6.32168,-2.81333c0,0 4.24187,-1.75005 7.06979,0.87503c2.82792,2.62508 -1.41396,4.37512 -1.41396,4.37512c-6.8139,2.45024 -3.09932,3.68519 -6.72149,8.19567c-1.37129,1.70759 -3.75846,3.0258 -5.47072,4.61111c-1.9941,1.84625 -3.30359,3.98901 -5.63911,5.67499c-1.1501,0.83024 -3.69104,0.72661 -4.55179,1.68165c-1.27396,1.41355 -0.22855,3.3088 -1.28124,4.79045c-1.18174,1.66329 -3.90793,2.76273 -5.23639,4.38307c-2.98176,3.63686 -3.82177,7.8453 -6.74237,11.50111c-1.39673,1.74834 -3.74246,3.18808 -4.91389,4.99868c-1.02356,1.58206 -0.77738,3.38711 -1.56773,5.01957c-2.83852,5.86285 -7.1541,11.60087 -10.74316,17.29718c-3.3708,5.3499 -4.13628,10.71671 -9.67506,15.35597c0.0336,0.97624 0.53471,1.98991 0.10079,2.92872c-0.69666,1.50726 -2.69766,2.70011 -3.39873,4.20659c-0.54271,1.16619 0.49209,2.51452 -0.25169,3.63743c-0.75219,1.1356 -2.87288,1.7195 -3.97297,2.74068c-2.29506,2.13044 -3.13956,4.15915 -4.39742,6.51449l-1.69937,3.15494c0,0 -1.61216,2.99304 -6.44864,1.99536z" fill="#333333" stroke-width="0.5"/><path d="M241.6862,310.48436c-4.55988,-1.41093 -2.27994,-4.2328 -2.27994,-4.2328l1.16114,-0.69236c0.09212,-5.12227 3.44482,-9.39753 5.22231,-14.36357c1.24618,-3.48164 2.57748,-6.95377 3.6169,-10.46131c1.29589,-4.37296 0.88219,-8.32947 3.1222,-12.48814c-0.03178,-3.10893 1.09322,-6.18109 1.65834,-9.27035c0.88911,-4.8603 -1.07449,-9.94729 0.01339,-14.79766c2.03015,-9.05149 3.41338,-18.07216 5.07727,-27.21757c1.84227,-10.12582 -0.01737,-21.08393 -0.01737,-31.2892c0,0 0,-3.15494 5.0981,-3.15494c5.0981,0 5.0981,3.15494 5.0981,3.15494c0,10.39884 1.79681,21.48342 -0.01737,31.80965c-1.62172,9.23079 -2.94607,18.34322 -5.11893,27.4681c-1.13479,4.76549 0.85986,9.84918 0.01339,14.64847c-0.56803,3.2206 -1.71019,6.41965 -1.74039,9.65931c-2.26733,4.2094 -1.85629,8.14978 -3.16047,12.62456c-1.04596,3.58882 -2.41329,7.13911 -3.69537,10.69848c-1.57513,4.37292 -5.08508,8.50416 -4.97389,12.97926l-2.23759,3.51423c0,0 -2.27994,2.82187 -6.83981,1.41093z" fill="#333333" stroke-width="0.5"/><path d="M358.40427,289.4514c-4.55988,1.41093 -6.83981,-1.41093 -6.83981,-1.41093l-2.23759,-3.51423c0,-11.62558 1.83005,-23.826 0.0382,-35.37053c-0.37694,-2.42852 -3.56335,-4.37188 -4.81079,-6.68622c-1.05847,-1.96375 -0.41906,-4.19595 -1.6138,-6.12953c-0.82492,-1.33505 -2.84163,-2.25374 -4.26245,-3.38061c-6.01205,-3.69913 -10.16271,-7.60477 -15.38549,-11.63505c-4.31304,-3.32825 -8.35652,-6.53015 -9.58654,-10.95966c-0.71768,-2.58445 -0.06583,-5.24456 -0.06583,-7.86689c0,-4.04471 -0.85544,-9.09982 0.06583,-13.12514c0.64387,-2.81326 2.85822,-5.4417 3.3658,-8.26563c1.23474,-6.86942 1.66647,-13.75432 1.66647,-20.67513c0,0 0,-3.15494 5.0981,-3.15494c5.0981,0 5.0981,3.15494 5.0981,3.15494c0,7.14915 -0.38718,14.2985 -1.73227,21.39076c-0.55379,2.92003 -2.75277,5.65083 -3.43167,8.56072c-0.85735,3.67472 0.06583,8.4524 0.06583,12.11441c0,2.28543 -0.64588,4.5991 -0.06583,6.85616c0.85329,3.32032 4.25467,5.52561 7.40713,7.96999c5.18377,4.01942 9.26838,7.81023 15.20311,11.50119c1.97791,1.67752 4.63885,3.1168 5.93375,5.03257c1.33225,1.97101 0.64763,4.29153 1.73869,6.31853c0.63794,1.18519 2.57918,1.96837 3.34413,3.12442c1.07074,1.61814 1.74362,3.34857 2.08752,5.08413c0.05006,0.25264 0.0382,10.41828 0.0382,10.90196c0,8.41318 0,16.82636 0,25.23954l1.16114,0.69236c0,0 2.27994,2.82187 -2.27994,4.2328z" fill="#333333" stroke-width="0.5"/><path d="M402.00723,228.78893c-5.0981,0 -5.0981,-3.15494 -5.0981,-3.15494l0.26162,-1.10561c-0.31358,-0.58219 -3.49925,-6.45923 -3.59452,-6.8022c-0.62338,-2.2442 -0.12006,-4.64877 -1.44852,-6.7723c-3.69065,-5.89943 -7.84677,-11.94522 -10.34207,-18.16283c-0.65358,-1.62855 -0.56434,-3.37686 -1.53539,-4.9436c-0.99274,-1.60171 -3.02382,-2.88411 -4.26657,-4.41755c-5.10947,-6.3046 -8.18525,-11.30703 -15.34345,-16.82059c0,0 -3.18477,-2.46359 0.79619,-4.43447c3.98095,-1.97088 7.1657,0.49272 7.1657,0.49272c7.56675,5.87637 11.10371,11.24033 16.48064,17.91506c1.39299,1.7292 3.57683,3.2118 4.69413,5.01601c1.09696,1.77135 1.11545,3.73323 1.86334,5.57287c2.45764,6.04513 6.64649,11.818 10.05033,17.59319c1.48428,2.51832 1.26457,5.30394 1.95021,7.95076c0.524,2.02283 2.15609,3.87404 3.20295,5.81757l0.26162,3.10097c0,0 0,3.15494 -5.0981,3.15494z" fill="#333333" stroke-width="0.5"/><path d="M118.213,241.40871c-5.0981,0 -5.0981,-3.15494 -5.0981,-3.15494l0.85623,-2.80169c1.99077,-1.83307 4.8411,-3.28248 6.70264,-5.16684c1.86867,-1.89158 1.57304,-4.4023 3.39873,-6.30989c1.76425,-1.84337 5.02069,-3.06502 6.55447,-4.98572c2.56159,-3.2078 2.67859,-7.03193 4.96778,-10.33769c2.67596,-3.8643 7.55119,-6.85602 10.24395,-10.58547c1.17051,-1.62114 0.73323,-3.73674 2.62107,-5.07387c1.72217,-1.2198 4.81769,-1.26737 7.22652,-1.90106c0,0 4.83648,-0.99768 6.44864,1.99536c1.61216,2.99304 -3.22433,3.99072 -3.22433,3.99072c-0.9899,0.06741 -2.42413,-0.31335 -2.96968,0.20223c-0.99552,0.94084 -0.0908,2.29813 -0.77766,3.33931c-0.48163,0.73006 -6.17094,5.66966 -7.05035,6.61709c-4.30546,4.63845 -4.52354,9.85669 -8.32652,14.52564c-1.70703,2.09573 -5.06235,3.52839 -7.04046,5.53076c-1.86867,1.89158 -1.57304,4.4023 -3.39873,6.30989c-1.87804,1.96227 -4.86162,3.44648 -6.89229,5.34963l0.85623,-0.6984c0,0 0,3.15494 -5.0981,3.15494z" fill="#333333" stroke-width="0.5"/><path d="M143.7035,177.2582c-5.0981,0 -5.0981,-3.15494 -5.0981,-3.15494l0.38807,-4.36229c1.25736,-0.85153 2.82129,-1.56245 3.77207,-2.5546c0.91372,-0.95348 0.73851,-2.21938 1.69937,-3.15494c3.05736,-2.97691 5.4143,-2.91485 9.6014,-4.98779c4.42269,-2.18957 9.10845,-4.14652 13.59493,-6.30989c4.34299,-2.09416 3.6136,-3.4977 7.69563,-6.85133c1.651,-1.3564 3.93626,-2.37179 5.7444,-3.64914c3.61822,-2.55609 5.99547,-5.75553 9.87971,-8.15746c1.8484,-1.143 4.63161,-1.62161 6.3652,-2.83154c0.8538,-0.59589 0.66578,-1.53859 0.99868,-2.30789c0,0 1.61216,-2.99304 6.44864,-1.99536c4.83648,0.99768 3.22433,3.99072 3.22433,3.99072c-0.80001,1.334 -0.96736,2.88908 -2.40005,4.00199c-1.90205,1.47749 -5.07208,2.14208 -7.22973,3.47834c-1.29301,0.80078 -1.89282,1.94181 -2.98699,2.84903c-3.62879,3.00878 -8.33592,5.47776 -11.97751,8.48061c-1.98744,1.63886 -3.15916,3.61597 -5.11309,5.27018c-3.73157,3.15916 -9.62492,4.44469 -14.38115,6.80814c-2.82817,1.40537 -5.59345,2.86124 -8.49683,4.20659c-3.69554,1.71243 -3.44385,4.17689 -7.01895,6.12903l0.38807,1.9476c0,0 0,3.15494 -5.0981,3.15494z" fill="#333333" stroke-width="0.5"/><path d="M215.94304,130.40869c-0.69513,-0.7163 -1.3834,-1.43219 -0.80032,-2.07256l0.37315,-0.50537h-0.43898v-3.15494v0c0,-0.64222 0.31008,-1.23962 0.84265,-1.738c0.10623,-0.59084 0.20408,-1.17569 0.11967,-1.6755c-0.16329,-0.96693 -1.2837,1.84191 -2.4555,2.48945c-2.12407,1.17377 -4.16369,3.15682 -7.00363,3.02736c-3.2776,-0.14942 -5.87012,-2.07353 -7.8351,-3.7038c-1.07465,-0.8916 -1.38186,-2.04943 -1.55861,-3.19196c-1.33966,1.14031 -3.77351,0.45551 -7.59996,0.58588c0,0 -2.35794,0 -3.86662,-0.99237c-0.98144,-0.04819 -2.05922,-0.31635 -3.13701,-0.98334c-3.6049,-2.23088 0,-4.46176 0,-4.46176l1.69937,-1.05165c0.91717,-0.56759 7.08063,-4.41381 7.72214,-4.65946c1.52324,-0.58331 3.54631,-0.49791 5.0981,-1.05165c3.24124,-1.15661 6.61213,-4.21125 9.27152,-5.85701c2.66264,-1.64777 7.58937,-3.73067 9.4644,-5.73766c0.8142,-0.8715 0.71616,-1.986 1.45637,-2.88241c3.17231,-3.84187 6.85457,-5.24575 9.47164,-9.25794c2.0076,-0.5015 4.18175,-0.79953 6.02278,-1.50452c1.36243,-0.52172 2.02488,-1.59317 3.39873,-2.10329c1.53602,-0.57034 3.54631,-0.49791 5.0981,-1.05165c2.25232,-0.80372 7.24098,-3.89094 8.53973,-5.28478c0.8948,-0.96032 0.76993,-2.20731 1.69937,-3.15494c1.9991,-2.03824 4.77661,-3.74199 7.1916,-5.59978c3.0386,-2.33754 7.10254,-4.4171 10.53388,-6.54057c1.8083,-1.11906 4.88323,-1.68177 5.69233,-3.18306c0.48804,-0.90555 -0.65556,-1.95592 -0.16932,-2.86186c0.64381,-1.19949 2.82083,-1.94267 3.39873,-3.15494c0.72959,-1.53043 -0.98222,-3.42798 0.38448,-4.78102c5.43502,-5.38073 17.32876,-3.7865 25.70389,-3.72881c2.75226,0.54769 11.91628,2.20364 13.51537,3.37277c1.32549,0.9691 -0.16915,2.60895 0.57423,3.79233c0.40793,0.64937 1.92144,0.76965 2.63128,1.31045c2.53668,1.93261 3.41556,4.5189 5.49223,6.65143c0.82696,0.84922 2.57442,1.25309 3.39873,2.10329c0.92162,0.95056 0.77775,2.20438 1.69937,3.15494c0.82431,0.85021 2.57442,1.25309 3.39873,2.10329c0.92162,0.95056 0.77775,2.20438 1.69937,3.15494c0.82431,0.85021 2.57682,1.2522 3.39873,2.10329c1.00363,1.03926 1.08472,2.33929 1.94236,3.42746c2.75037,3.48964 8.25036,5.05683 10.49585,8.88506c0.52633,0.8973 -0.59949,1.94513 -0.16932,2.86186c0.96969,2.06648 6.43458,2.1021 8.28168,3.92525c0.98395,0.97119 -0.46403,2.36983 0.21516,3.43628c0.49314,0.77433 2.32903,0.93996 3.0254,1.65199c1.01299,1.03577 1.29492,2.28498 1.94236,3.42746c1.23279,1.20894 2.97773,2.26863 3.69838,3.62682c1.13698,2.14283 -0.43691,4.72417 1.25638,6.72135c1.85375,2.18642 6.03765,3.54419 7.24046,5.89842c0.6357,1.24425 -0.75974,2.66072 -0.16932,3.9135c0.31522,0.66886 1.92144,0.76965 2.63128,1.31045c4.42576,3.37183 7.44411,7.52524 6.1878,11.97039c-0.4228,1.49597 -1.19134,2.98475 -2.39493,4.30822c-0.65963,0.72532 -2.53729,0.87644 -3.0254,1.65199c-0.61675,0.97994 0.66612,2.18746 0,3.15494c-0.81867,1.18907 -2.83765,1.89886 -4.16618,2.89615c-1.70713,1.28149 -2.594,3.12507 -4.93573,3.93638c-1.69316,0.5866 -15.1408,0.3624 -16.2521,0.13315c-1.05641,-0.21792 -0.61599,-1.40497 -1.44778,-1.86314c-0.47723,-0.26287 0.72153,0.94557 0.20617,1.17924l-1.9203,1.18837c-0.03477,1.37959 0.53958,2.85152 -0.3733,4.09798c-1.98274,2.70724 -8.92898,5.56344 -13.88355,5.07463c-10.64827,-1.05055 -9.51025,-8.09478 -17.29784,-10.95975c-1.41204,-0.51947 -7.59046,-1.04598 -10.44495,-2.16458l-1.28212,1.19015c-0.61565,0.58993 -1.54066,1.04461 -2.63305,1.27614c-2.11053,2.812 -5.00382,6.34388 -10.65189,6.464c-1.07295,0.02282 -1.73135,-0.52999 -2.23317,-1.22783c-0.41332,1.39268 -1.04846,2.78515 -2.62387,3.72992c-1.51346,0.90762 -4.30919,-0.02647 -6.28458,0.42804c-3.53713,0.81384 -4.97473,4.44675 -8.74842,4.44675c-3.99168,0 -5.81019,-3.4884 -9.34969,-4.63041c-2.52065,-0.81328 -6.34051,-0.34224 -8.04565,-1.7498c-2.28154,-1.88334 -1.02919,-4.71134 -2.43201,-6.89922c-0.5438,-0.84812 -2.48293,-1.09183 -3.20237,-1.88829c-0.6489,-0.71836 -1.40126,-1.48197 -1.89835,-2.26999c-1.32133,-0.44595 -2.69027,-0.85765 -3.91288,-1.37464c-2.5134,1.16456 -11.94378,5.14092 -11.94385,5.14092c-1.57161,0.08849 -2.38576,-1.23279 -3.65309,-1.88016l-3.11868,0.64333c-0.53877,0.11987 -1.11959,0.18519 -1.72506,0.18519c-0.59587,0 -1.16784,-0.06326 -1.69937,-0.17952c-0.53153,0.11626 -1.1035,0.17952 -1.69937,0.17952c-2.8156,0 -5.0981,-1.41252 -5.0981,-3.15494v-2.28115c-0.69575,-1.1192 -1.27882,-2.25704 -1.60939,-3.4355c-0.01319,-0.04291 -0.02498,-0.08612 -0.03533,-0.12964c-0.36892,-1.38731 -0.51499,-2.80888 -0.88789,-4.19557zM233.8791,126.05487c-0.10232,-0.04215 -0.20516,-0.09334 -0.3083,-0.15181c0.02687,0.05764 0.05115,0.11596 0.07277,0.17492l0.08094,0.20036c0.05625,-0.07498 0.10788,-0.14949 0.15459,-0.22345zM230.3712,123.62418c-0.18105,-0.01887 -0.29165,0.0253 -0.35855,0.11025c0.45082,0.07585 0.87681,0.18903 1.26875,0.33384c-0.32565,-0.2428 -0.63247,-0.41516 -0.91021,-0.44409z" fill="#85a3b4" stroke-width="0.5"/><path d="M304.02454,306.03606c-4.55988,1.29684 -6.83981,-1.29684 -6.83981,-1.29684l-1.97597,-2.31305c-2.00483,-3.54631 -2.92328,-7.55214 -3.63554,-11.26391c-0.71336,-3.7175 1.16379,-7.75349 0.04102,-11.4205c-0.30735,-1.00378 -1.41586,-1.89376 -1.69937,-2.89981c-1.60087,-5.68099 -0.06583,-12.10481 -0.06583,-17.86338c0,0 0,-2.89981 5.0981,-2.89981c5.0981,0 5.0981,2.89981 5.0981,2.89981c0,5.39743 -1.68628,11.642 -0.06583,16.93438c0.30735,1.00378 1.41586,1.89376 1.69937,2.89981c2.04006,7.2395 -1.14808,14.69744 3.20295,21.7794l1.42276,1.55337c0,0 2.27994,2.59367 -2.27994,3.89051z" fill="#333333" stroke-width="0.5"/><path d="M402.58781,298.30322c-4.55988,1.29684 -6.83981,-1.29684 -6.83981,-1.29684l-2.23759,-3.23004c0,-12.88806 0,-25.77612 0,-38.66418c0,0 0,-2.89981 5.0981,-2.89981c5.0981,0 5.0981,2.89981 5.0981,2.89981c0,12.88806 0,25.77612 0,38.66418l1.16114,0.63637c0,0 2.27994,2.59367 -2.27994,3.89051z" fill="#333333" stroke-width="0.5"/><path d="M175.4109,313.76889c-4.55988,-1.29684 -2.27994,-3.89051 -2.27994,-3.89051l2.65434,-2.68685c5.92294,-3.12534 4.40967,-6.75558 5.3701,-10.97988c0.76402,-3.36045 3.57584,-7.1927 5.46831,-10.41617c5.07667,-8.64719 11.3553,-16.40431 20.93919,-23.69551c4.84382,-3.68506 8.37283,-7.68022 14.10532,-10.9715c0,0 3.6049,-2.05048 7.2098,0c3.6049,2.05048 0,4.10096 0,4.10096c-5.37445,3.02196 -8.57924,6.86893 -13.08455,10.2938c-9.94899,7.56305 -16.70007,16.06765 -21.31227,25.19746c-1.08154,2.1409 -2.79361,4.20838 -3.26125,6.41997c-0.33821,1.59948 0.3698,3.23581 0,4.83302c-0.84679,3.65738 -3.89923,6.74352 -8.22483,9.31881l-0.74439,1.17957c0,0 -2.27994,2.59367 -6.83981,1.29684z" fill="#333333" stroke-width="0.5"/><path d="M-4.5,360.50003v-214h487.784v214z" fill="url(#color-2)" stroke-width="0"/><text transform="translate(10.5,79.07277) scale(0.45276,0.45276)" font-size="40" xml:space="preserve" fill="#ffffff" fill-rule="nonzero" stroke="none" stroke-width="1" stroke-linecap="butt" stroke-linejoin="miter" stroke-miterlimit="10" stroke-dasharray="" stroke-dashoffset="0" font-family="Sans Serif" font-weight="normal" text-anchor="start" style="mix-blend-mode: normal"><tspan x="0" dy="0">Ŝtalatov, in spite of the wishes of local townsfolk, a</tspan><tspan x="0" dy="46.150000000000006px">man who liver close to the mountain, as well as a</tspan><tspan x="0" dy="46.150000000000006px">comrade who knows how much Ŝtalatov contributed </tspan><tspan x="0" dy="46.150000000000006px">to their cause, has decided to climb this mountain.</tspan><tspan x="0" dy="46.150000000000006px"> </tspan><tspan x="0" dy="46.150000000000006px">Goyamna, the comrade in question, threw a research</tspan><tspan x="0" dy="46.150000000000006px">kit to Stalatov.</tspan><tspan x="0" dy="46.150000000000006px"> </tspan><tspan x="0" dy="46.150000000000006px">"If you're going to kill yourself, tell us what you find!"</tspan></text></g></g></svg>