<svg version="1.1" xmlns="http://www.w3.org/2000/svg" xmlns:xlink="http://www.w3.org/1999/xlink" width="513.86646" height="241.71031" viewBox="0,0,513.86646,241.71031"><defs><linearGradient x1="253.78607" y1="352.25042" x2="253.78607" y2="446.75042" gradientUnits="userSpaceOnUse" id="color-1"><stop offset="0" stop-color="#73a95b" stop-opacity="0"/><stop offset="1" stop-color="#73a95b"/></linearGradient></defs><g transform="translate(23.5295,-205.04012)"><g data-paper-data="{&quot;isPaintingLayer&quot;:true}" fill-rule="nonzero" stroke-linecap="butt" stroke-linejoin="miter" stroke-miterlimit="10" stroke-dasharray="" stroke-dashoffset="0" style="mix-blend-mode: normal"><path d="M88.78607,446.75042v-94.5h330v94.5z" fill="url(#color-1)" stroke="#000000" stroke-width="0"/><path d="M435.3249,343.94347c-0.9738,-0.04746 -0.94273,-1.0301 -0.94273,-1.0301c0.08326,-2.57465 -0.20266,-5.06394 -0.13071,-7.63342c0.02114,-0.75494 0.16338,-2.86132 1.15305,-3.07748c0.72712,-0.15882 1.37358,0.63604 1.91721,1.14434c0.45158,0.42224 1.10022,2.13966 1.44635,2.73794c0.36509,0.63108 0.78037,1.20192 1.19225,1.76894c0.1512,-1.98632 0.76497,-4.32194 1.23018,-5.10272c0.31662,-0.5314 0.35706,-1.48994 0.9686,-1.58287c1.58106,-0.24026 2.00997,1.33596 2.39058,2.27967c0.90071,2.23324 1.74309,4.68837 2.47665,7.08395c0.00009,-0.04709 0.00135,-0.0858 0.00396,-0.11465c0.23012,-2.54621 0.88536,-4.96999 1.73732,-7.34512l-0.01392,0.00072l-0.05309,-1.02966c-0.03199,-0.42631 0.21396,-0.84163 0.63283,-1.00567c0.51425,-0.20139 1.09442,0.05223 1.29581,0.56648c0.02279,0.0582 0.03976,0.11722 0.05118,0.17647l0.20557,0.97349c0.46294,2.23254 0.6431,4.82721 1.47982,6.94056c0.24797,0.63831 1.28123,3.16609 0.98471,3.77461c-0.67504,1.38534 -4.44068,1.55508 -5.61768,1.20189c-0.37874,-0.11365 -0.74219,-0.29785 -1.09514,-0.52068c-0.12225,0.11 -0.25685,0.20271 -0.41028,0.2691c-0.08832,0.03822 -2.28988,-0.49953 -2.6098,-0.54896c-1.21024,-0.18698 -2.75749,-0.36632 -3.96957,-0.1041c-0.88356,0.19115 -2.46831,1.12908 -3.38565,0.77172c-0.33826,-0.13177 -0.66374,-0.33756 -0.93752,-0.59441zM442.55685,339.85704c-0.01064,0.01911 -0.02155,0.03859 -0.03267,0.05826c0.01797,-0.00645 0.03627,-0.01259 0.05487,-0.01844c-0.00745,-0.01324 -0.01484,-0.02651 -0.0222,-0.03981z" fill="#d0d0d0" stroke="none" stroke-width="0.5"/><path d="M300.65824,358.94347c-0.9738,-0.04746 -0.94273,-1.0301 -0.94273,-1.0301c0.08326,-2.57465 -0.20266,-5.06394 -0.13071,-7.63342c0.02114,-0.75494 0.16338,-2.86132 1.15305,-3.07748c0.72712,-0.15882 1.37358,0.63604 1.91721,1.14434c0.45158,0.42224 1.10022,2.13966 1.44635,2.73794c0.36509,0.63108 0.78037,1.20192 1.19225,1.76894c0.1512,-1.98632 0.76497,-4.32194 1.23018,-5.10272c0.31662,-0.5314 0.35706,-1.48994 0.9686,-1.58287c1.58106,-0.24026 2.00997,1.33596 2.39058,2.27967c0.90071,2.23324 1.74309,4.68837 2.47665,7.08395c0.00009,-0.04709 0.00135,-0.0858 0.00396,-0.11465c0.23012,-2.54621 0.88536,-4.96999 1.73732,-7.34512l-0.01392,0.00072l-0.05309,-1.02966c-0.03199,-0.42631 0.21396,-0.84163 0.63283,-1.00567c0.51425,-0.20139 1.09442,0.05223 1.29581,0.56648c0.02279,0.0582 0.03976,0.11722 0.05118,0.17647l0.20557,0.97349c0.46294,2.23254 0.6431,4.82721 1.47982,6.94056c0.24797,0.63831 1.28123,3.16609 0.98471,3.77461c-0.67504,1.38534 -4.44068,1.55508 -5.61768,1.20189c-0.37874,-0.11365 -0.74219,-0.29785 -1.09514,-0.52068c-0.12225,0.11 -0.25685,0.20271 -0.41028,0.2691c-0.08832,0.03822 -2.28988,-0.49953 -2.6098,-0.54896c-1.21024,-0.18698 -2.75749,-0.36632 -3.96957,-0.1041c-0.88356,0.19115 -2.46831,1.12908 -3.38565,0.77172c-0.33826,-0.13177 -0.66374,-0.33756 -0.93752,-0.59441zM307.89019,354.85704c-0.01064,0.01911 -0.02155,0.03859 -0.03267,0.05826c0.01797,-0.00645 0.03627,-0.01259 0.05487,-0.01844c-0.00745,-0.01324 -0.01484,-0.02651 -0.0222,-0.03981z" fill="#d0d0d0" stroke="none" stroke-width="0.5"/><path d="M318.65824,359.27681c-0.9738,-0.04746 -0.94273,-1.0301 -0.94273,-1.0301c0.08326,-2.57465 -0.20266,-5.06394 -0.13071,-7.63342c0.02114,-0.75494 0.16338,-2.86132 1.15305,-3.07748c0.72712,-0.15882 1.37358,0.63604 1.91721,1.14434c0.45158,0.42224 1.10022,2.13966 1.44635,2.73794c0.36509,0.63108 0.78037,1.20192 1.19225,1.76894c0.1512,-1.98632 0.76497,-4.32194 1.23018,-5.10272c0.31662,-0.5314 0.35706,-1.48994 0.9686,-1.58287c1.58106,-0.24026 2.00997,1.33596 2.39058,2.27967c0.90071,2.23324 1.74309,4.68837 2.47665,7.08395c0.00009,-0.04709 0.00135,-0.0858 0.00396,-0.11465c0.23012,-2.54621 0.88536,-4.96999 1.73732,-7.34512l-0.01392,0.00072l-0.05309,-1.02966c-0.03199,-0.42631 0.21396,-0.84163 0.63283,-1.00567c0.51425,-0.20139 1.09442,0.05223 1.29581,0.56648c0.02279,0.0582 0.03976,0.11722 0.05118,0.17647l0.20557,0.97349c0.46294,2.23254 0.6431,4.82721 1.47982,6.94056c0.24797,0.63831 1.28123,3.16609 0.98471,3.77461c-0.67504,1.38534 -4.44068,1.55508 -5.61768,1.20189c-0.37874,-0.11365 -0.74219,-0.29785 -1.09514,-0.52068c-0.12225,0.11 -0.25685,0.20271 -0.41028,0.2691c-0.08832,0.03822 -2.28988,-0.49953 -2.6098,-0.54896c-1.21024,-0.18698 -2.75749,-0.36632 -3.96957,-0.1041c-0.88356,0.19115 -2.46831,1.12908 -3.38565,0.77172c-0.33826,-0.13177 -0.66374,-0.33756 -0.93752,-0.59441zM325.89019,355.19038c-0.01064,0.01911 -0.02155,0.03859 -0.03267,0.05826c0.01797,-0.00645 0.03627,-0.01259 0.05487,-0.01844c-0.00745,-0.01324 -0.01484,-0.02651 -0.0222,-0.03981z" fill="#d0d0d0" stroke="none" stroke-width="0.5"/><path d="M211.32491,359.2768c-0.9738,-0.04746 -0.94273,-1.0301 -0.94273,-1.0301c0.08326,-2.57465 -0.20266,-5.06394 -0.13071,-7.63342c0.02114,-0.75494 0.16338,-2.86132 1.15305,-3.07748c0.72712,-0.15882 1.37358,0.63604 1.91721,1.14434c0.45158,0.42224 1.10022,2.13966 1.44635,2.73794c0.36509,0.63108 0.78037,1.20192 1.19225,1.76894c0.1512,-1.98632 0.76497,-4.32194 1.23018,-5.10272c0.31662,-0.5314 0.35706,-1.48994 0.9686,-1.58287c1.58106,-0.24026 2.00997,1.33596 2.39058,2.27967c0.90071,2.23324 1.74309,4.68837 2.47665,7.08395c0.00009,-0.04709 0.00135,-0.0858 0.00396,-0.11465c0.23012,-2.54621 0.88536,-4.96999 1.73732,-7.34512l-0.01392,0.00072l-0.05309,-1.02966c-0.03199,-0.42631 0.21396,-0.84163 0.63283,-1.00567c0.51425,-0.20139 1.09442,0.05223 1.29581,0.56648c0.02279,0.0582 0.03976,0.11722 0.05118,0.17647l0.20557,0.97349c0.46294,2.23254 0.6431,4.82721 1.47982,6.94056c0.24797,0.63831 1.28123,3.16609 0.98471,3.77461c-0.67504,1.38534 -4.44068,1.55508 -5.61768,1.20189c-0.37874,-0.11365 -0.74219,-0.29785 -1.09514,-0.52068c-0.12225,0.11 -0.25685,0.20271 -0.41028,0.2691c-0.08832,0.03822 -2.28988,-0.49953 -2.6098,-0.54896c-1.21024,-0.18698 -2.75749,-0.36632 -3.96957,-0.1041c-0.88356,0.19115 -2.46831,1.12908 -3.38565,0.77172c-0.33826,-0.13177 -0.66374,-0.33756 -0.93752,-0.59441zM218.55686,355.19037c-0.01064,0.01911 -0.02155,0.03859 -0.03267,0.05826c0.01797,-0.00645 0.03627,-0.01259 0.05487,-0.01844c-0.00745,-0.01324 -0.01484,-0.02651 -0.0222,-0.03981z" fill="#d0d0d0" stroke="none" stroke-width="0.5"/><path d="M229.32491,359.61014c-0.9738,-0.04746 -0.94273,-1.0301 -0.94273,-1.0301c0.08326,-2.57465 -0.20266,-5.06394 -0.13071,-7.63342c0.02114,-0.75494 0.16338,-2.86132 1.15305,-3.07748c0.72712,-0.15882 1.37358,0.63604 1.91721,1.14434c0.45158,0.42224 1.10022,2.13966 1.44635,2.73794c0.36509,0.63108 0.78037,1.20192 1.19225,1.76894c0.1512,-1.98632 0.76497,-4.32194 1.23018,-5.10272c0.31662,-0.5314 0.35706,-1.48994 0.9686,-1.58287c1.58106,-0.24026 2.00997,1.33596 2.39058,2.27967c0.90071,2.23324 1.74309,4.68837 2.47665,7.08395c0.00009,-0.04709 0.00135,-0.0858 0.00396,-0.11465c0.23012,-2.54621 0.88536,-4.96999 1.73732,-7.34512l-0.01392,0.00072l-0.05309,-1.02966c-0.03199,-0.42631 0.21396,-0.84163 0.63283,-1.00567c0.51425,-0.20139 1.09442,0.05223 1.29581,0.56648c0.02279,0.0582 0.03976,0.11722 0.05118,0.17647l0.20557,0.97349c0.46294,2.23254 0.6431,4.82721 1.47982,6.94056c0.24797,0.63831 1.28123,3.16609 0.98471,3.77461c-0.67504,1.38534 -4.44068,1.55508 -5.61768,1.20189c-0.37874,-0.11365 -0.74219,-0.29785 -1.09514,-0.52068c-0.12225,0.11 -0.25685,0.20271 -0.41028,0.2691c-0.08832,0.03822 -2.28988,-0.49953 -2.6098,-0.54896c-1.21024,-0.18698 -2.75749,-0.36632 -3.96957,-0.1041c-0.88356,0.19115 -2.46831,1.12908 -3.38565,0.77172c-0.33826,-0.13177 -0.66374,-0.33756 -0.93752,-0.59441zM236.55686,355.52371c-0.01064,0.01911 -0.02155,0.03859 -0.03267,0.05826c0.01797,-0.00645 0.03627,-0.01259 0.05487,-0.01844c-0.00745,-0.01324 -0.01484,-0.02651 -0.0222,-0.03981z" fill="#d0d0d0" stroke="none" stroke-width="0.5"/><path d="M117.32491,358.94347c-0.9738,-0.04746 -0.94273,-1.0301 -0.94273,-1.0301c0.08326,-2.57465 -0.20266,-5.06394 -0.13071,-7.63342c0.02114,-0.75494 0.16338,-2.86132 1.15305,-3.07748c0.72712,-0.15882 1.37358,0.63604 1.91721,1.14434c0.45158,0.42224 1.10022,2.13966 1.44635,2.73794c0.36509,0.63108 0.78037,1.20192 1.19225,1.76894c0.1512,-1.98632 0.76497,-4.32194 1.23018,-5.10272c0.31662,-0.5314 0.35706,-1.48994 0.9686,-1.58287c1.58106,-0.24026 2.00997,1.33596 2.39058,2.27967c0.90071,2.23324 1.74309,4.68837 2.47665,7.08395c0.00009,-0.04709 0.00135,-0.0858 0.00396,-0.11465c0.23012,-2.54621 0.88536,-4.96999 1.73732,-7.34512l-0.01392,0.00072l-0.05309,-1.02966c-0.03199,-0.42631 0.21396,-0.84163 0.63283,-1.00567c0.51425,-0.20139 1.09442,0.05223 1.29581,0.56648c0.02279,0.0582 0.03976,0.11722 0.05118,0.17647l0.20557,0.97349c0.46294,2.23254 0.6431,4.82721 1.47982,6.94056c0.24797,0.63831 1.28123,3.16609 0.98471,3.77461c-0.67504,1.38534 -4.44068,1.55508 -5.61768,1.20189c-0.37874,-0.11365 -0.74219,-0.29785 -1.09514,-0.52068c-0.12225,0.11 -0.25685,0.20271 -0.41028,0.2691c-0.08832,0.03822 -2.28988,-0.49953 -2.6098,-0.54896c-1.21024,-0.18698 -2.75749,-0.36632 -3.96957,-0.1041c-0.88356,0.19115 -2.46831,1.12908 -3.38565,0.77172c-0.33826,-0.13177 -0.66374,-0.33756 -0.93752,-0.59441zM124.55686,354.85704c-0.01064,0.01911 -0.02155,0.03859 -0.03267,0.05826c0.01797,-0.00645 0.03627,-0.01259 0.05487,-0.01844c-0.00745,-0.01324 -0.01484,-0.02651 -0.0222,-0.03981z" fill="#d0d0d0" stroke="none" stroke-width="0.5"/><path d="M135.3249,359.27681c-0.9738,-0.04746 -0.94273,-1.0301 -0.94273,-1.0301c0.08326,-2.57465 -0.20266,-5.06394 -0.13071,-7.63342c0.02114,-0.75494 0.16338,-2.86132 1.15305,-3.07748c0.72712,-0.15882 1.37358,0.63604 1.91721,1.14434c0.45158,0.42224 1.10022,2.13966 1.44635,2.73794c0.36509,0.63108 0.78037,1.20192 1.19225,1.76894c0.1512,-1.98632 0.76497,-4.32194 1.23018,-5.10272c0.31662,-0.5314 0.35706,-1.48994 0.9686,-1.58287c1.58106,-0.24026 2.00997,1.33596 2.39058,2.27967c0.90071,2.23324 1.74309,4.68837 2.47665,7.08395c0.00009,-0.04709 0.00135,-0.0858 0.00396,-0.11465c0.23012,-2.54621 0.88536,-4.96999 1.73732,-7.34512l-0.01392,0.00072l-0.05309,-1.02966c-0.03199,-0.42631 0.21396,-0.84163 0.63283,-1.00567c0.51425,-0.20139 1.09442,0.05223 1.29581,0.56648c0.02279,0.0582 0.03976,0.11722 0.05118,0.17647l0.20557,0.97349c0.46294,2.23254 0.6431,4.82721 1.47982,6.94056c0.24797,0.63831 1.28123,3.16609 0.98471,3.77461c-0.67504,1.38534 -4.44068,1.55508 -5.61768,1.20189c-0.37874,-0.11365 -0.74219,-0.29785 -1.09514,-0.52068c-0.12225,0.11 -0.25685,0.20271 -0.41028,0.2691c-0.08832,0.03822 -2.28988,-0.49953 -2.6098,-0.54896c-1.21024,-0.18698 -2.75749,-0.36632 -3.96957,-0.1041c-0.88356,0.19115 -2.46831,1.12908 -3.38565,0.77172c-0.33826,-0.13177 -0.66374,-0.33756 -0.93752,-0.59441zM142.55685,355.19037c-0.01064,0.01911 -0.02155,0.03859 -0.03267,0.05826c0.01797,-0.00645 0.03627,-0.01259 0.05487,-0.01844c-0.00745,-0.01324 -0.01484,-0.02651 -0.0222,-0.03981z" fill="#d0d0d0" stroke="none" stroke-width="0.5"/><path d="M88.53607,363.25042v-8.5h330v8.5z" fill="#a76634" stroke="none" stroke-width="0"/><path d="" fill="#999999" stroke="none" stroke-width="0.5"/><path d="M447.42124,353.86972c4.47248,0.49695 -4.4725,-0.49694 -0.00002,0z" fill="#6c6c6c" stroke="none" stroke-width="0.5"/><path d="" fill="#6c6c6c" stroke="none" stroke-width="0.5"/><path d="" fill="#6c6c6c" stroke="none" stroke-width="0.5"/><path d="M412.08916,380.45408c0.66953,-5.00387 1.09385,-10.28373 1.47611,-15.29482c0.14066,-1.84393 -0.37604,-7.01122 0.30903,-8.39482c3.70601,-7.48481 5.12606,-5.92706 12.16177,-6.51395c11.83333,0 23.66667,0 35.5,0c4.99145,0 11.51584,-0.55315 15.75437,2.81975c3.70038,2.94467 2.40536,3.86658 4.05577,6.88696c1.34052,2.45326 2.63565,4.93106 3.94638,7.40036c1.54257,2.90609 2.63641,2.94783 3.87398,6.31987c0.81768,2.22794 0.58419,4.72279 1.166,7.02362c0.68342,2.70266 -78.68362,3.04306 -78.24341,-0.24697z" fill="#999999" stroke="none" stroke-width="0.5"/><path d="" data-paper-data="{&quot;index&quot;:null}" fill="#b3cedd" stroke="none" stroke-width="0.5"/><path d="" data-paper-data="{&quot;index&quot;:null}" fill="#6c6c6c" stroke="none" stroke-width="0.5"/><path d="" data-paper-data="{&quot;index&quot;:null}" fill="#6c6c6c" stroke="none" stroke-width="0.5"/><path d="" data-paper-data="{&quot;index&quot;:null}" fill="#6c6c6c" stroke="none" stroke-width="0.5"/><path d="" data-paper-data="{&quot;index&quot;:null}" fill="#6c6c6c" stroke="none" stroke-width="0.5"/><path d="" data-paper-data="{&quot;index&quot;:null}" fill="#6c6c6c" stroke="none" stroke-width="0.5"/><path d="" fill="#6c6c6c" stroke="none" stroke-width="0.5"/><path d="" fill="#999999" stroke="none" stroke-width="0.5"/><path d="" fill="#b3cedd" stroke="none" stroke-width="0.5"/><path d="" fill="#b3cedd" stroke="none" stroke-width="0.5"/><path d="" fill="#b3cedd" stroke="none" stroke-width="0.5"/><path d="M-7.97952,375.67247c0.35541,-30.82466 2.12776,-60.46902 3.06119,-90.79247c0.59066,-19.18816 0.98113,-43.35777 4.32353,-55.90102c0.9539,-3.57978 5.09859,-3.36986 8.58035,-2.76702c0.10892,-0.42392 0.21933,-0.83467 0.33121,-1.23172c1.60213,-5.68582 3.78281,-2.67744 5.68328,-3.48734c3.0808,-1.31287 6.5226,3.36501 9.53891,0.4265c1.55695,-1.51679 2.95264,-6.46841 4.5,-8.25811c1.76083,-2.03656 3.60555,-1.07581 5.36987,-3.01845c4.38749,-0.22814 8.71021,0.93168 13.02921,4.56756l2.81279,-1.7206c0.24545,-0.16836 0.4955,-0.25501 0.74923,-0.25501c3.31371,0 6,14.78912 6,33.03244c0,0.17623 -0.00025,0.35213 -0.00075,0.52775c4.75075,4.23327 4.75075,92.56481 4.75075,92.56481l-0.11651,9.23092c-1.29257,35.58073 -68.6397,29.39272 -68.61306,27.08177z" fill="#999999" stroke="none" stroke-width="0.5"/><path d="" fill="#999999" stroke="none" stroke-width="0.5"/><path d="" fill="#b3cedd" stroke="none" stroke-width="0.5"/><path d="" fill="#b3cedd" stroke="none" stroke-width="0.5"/><path d="" fill="#b3cedd" stroke="none" stroke-width="0.5"/><path d="" fill="#b3cedd" stroke="none" stroke-width="0.5"/><path d="" fill="#b3cedd" stroke="none" stroke-width="0.5"/><path d="" fill="#b3cedd" stroke="none" stroke-width="0.5"/><path d="" fill="#b3cedd" stroke="none" stroke-width="0.5"/><path d="" fill="#b3cedd" stroke="none" stroke-width="0.5"/><path d="" fill="#b3cedd" stroke="none" stroke-width="0.5"/><path d="" fill="#6c6c6c" stroke="none" stroke-width="0.5"/><path d="" fill="#6c6c6c" stroke="none" stroke-width="0.5"/><path d="" fill="#6c6c6c" stroke="none" stroke-width="0.5"/><path d="" fill="#6c6c6c" stroke="none" stroke-width="0.5"/><path d="" fill="#6c6c6c" stroke="none" stroke-width="0.5"/><path d="" fill="#6c6c6c" stroke="none" stroke-width="0.5"/><path d="" fill="#6c6c6c" stroke="none" stroke-width="0.5"/><path d="" fill="#6c6c6c" stroke="none" stroke-width="0.5"/><path d="" fill="#6c6c6c" stroke="none" stroke-width="0.5"/><path d="" fill="#6c6c6c" stroke="none" stroke-width="0.5"/><path d="" fill="#6c6c6c" stroke="none" stroke-width="0.5"/><path d="" fill="#6c6c6c" stroke="none" stroke-width="0.5"/><path d="" fill="#6c6c6c" stroke="none" stroke-width="0.5"/><path d="" fill="#6c6c6c" stroke="none" stroke-width="0.5"/><path d="" fill="#6c6c6c" stroke="none" stroke-width="0.5"/><path d="" fill="#6c6c6c" stroke="none" stroke-width="0.5"/><path d="" fill="#6c6c6c" stroke="none" stroke-width="0.5"/><path d="" fill="#6c6c6c" stroke="none" stroke-width="0.5"/><path d="" fill="#6c6c6c" stroke="none" stroke-width="0.5"/><path d="" fill="#6c6c6c" stroke="none" stroke-width="0.5"/><path d="" fill="#6c6c6c" stroke="none" stroke-width="0.5"/><path d="" fill="#6c6c6c" stroke="none" stroke-width="0.5"/><path d="M39.18653,243.56718c3.4551,5.36656 -3.4551,8.04985 -3.4551,8.04985l-4.51523,1.51693c-8.58255,0.9376 -34.24302,8.38198 -31.08317,5.60622c8.10065,-7.116 15.40096,-15.15509 28.05286,-17.3732l0.63535,-0.48308c0,0 6.91021,-2.68328 10.36531,2.68328z" fill="#6c6c6c" stroke="none" stroke-width="0.5"/><path d="M478.53607,376.75047c6,0 -4.24405,0 0,0z" fill="#6c6c6c" stroke="none" stroke-width="0.5"/><path d="" fill="#b3cedd" stroke="none" stroke-width="0.5"/><path d="" fill="#6c6c6c" stroke="none" stroke-width="0.5"/><path d="" fill="#6c6c6c" stroke="none" stroke-width="0.5"/><path d="" fill="#6c6c6c" stroke="none" stroke-width="0.5"/><path d="" fill="#b3cedd" stroke="none" stroke-width="0.5"/><path d="M-23.5295,226.06342c0,-6 6,-6 6,-6h3.003c1.5704,0 4.06588,0.42178 6.02009,0.36989c-0.00535,-0.12261 -0.00808,-0.24788 -0.00808,-0.37589c0,-6 6,-6 6,-6l1.62449,0.16051c4.34037,-2.17019 8.63297,-1.66201 13.39053,-1.66201c1.54342,0 3.13418,0.55063 4.62749,0.16051c2.16562,-0.56577 3.82174,-2.51411 6.00601,-3.003c0.46539,-0.10417 0.86034,1.04038 1.22713,0.73559c0.86076,-0.71526 0.53984,-2.43054 1.5015,-3.003c1.38491,-0.82441 3.22989,-0.2903 4.77887,-0.73559c1.07559,-0.3092 1.91116,-1.25576 3.003,-1.5015c1.37022,-0.30839 8.72768,-0.18534 9.68062,0.29622c2.14051,1.08167 5.74758,3.37482 5.70592,5.44383c0.81524,-0.10124 1.67772,0.10546 2.50849,0.10546c0,0 6,0 6,6c0,6 -6,6 -6,6c-2.48363,0 -7.38611,0.14416 -9.16039,-0.8961c-1.61341,-0.94594 -2.18979,-3.03413 -3.21457,-4.59865c-0.19358,-0.29553 -0.10936,-0.82327 -0.43165,-0.96799c-0.25592,-0.11492 -0.4286,0.42136 -0.7069,0.45672c-0.53979,0.06858 -1.10186,-0.31196 -1.62449,-0.16051c-1.07493,0.3115 -1.90176,1.30211 -3.003,1.5015c-0.46928,0.08497 -0.86034,-1.04038 -1.22713,-0.73559c-0.86076,0.71526 -0.53984,2.43054 -1.5015,3.003c-1.38491,0.82441 -3.2238,0.31204 -4.77887,0.73559c-2.15963,0.58822 -3.83235,2.46894 -6.00601,3.003c-1.96118,0.48186 -3.93166,0.51339 -5.89294,0.42934c-0.17261,5.73717 -5.99609,5.73717 -5.99609,5.73717c-2.70671,0 -6.65062,-0.87958 -9.13199,-0.16051c-1.07493,0.3115 -1.91116,1.25576 -3.003,1.5015c-3.0836,0.69401 -7.197,0.16051 -10.38753,0.16051h-3.003c0,0 -6,0 -6,-6z" fill="#b3cedd" stroke="none" stroke-width="0.5"/><path d="M486.969,347.68504c0,6 -6,6 -6,6l-4.18478,-0.63344c-0.97916,-0.59304 -2.18352,-0.98062 -3.32272,-0.86806c-2.05464,0 -5.69286,-0.72201 -7.63049,-0.16051c-1.07493,0.3115 -1.91116,1.25576 -3.003,1.5015c-3.0836,0.69401 -7.197,0.16051 -10.38753,0.16051c-1.54342,0 -3.14506,-0.5901 -4.62749,-0.16051c-1.07493,0.3115 -1.91116,1.25576 -3.003,1.5015c-0.87597,0.19715 -6.0062,0.16051 -7.38452,0.16051c-6.00601,0 -12.01201,0 -18.01802,0c0,0 -6,0 -6,-6c0,-6 6,-6 6,-6c5.00501,0 10.01001,0 15.01502,0c2.05464,0 5.69286,0.72201 7.63049,0.16051c1.07493,-0.3115 1.91116,-1.25576 3.003,-1.5015c0.87597,-0.19715 6.0062,-0.16051 7.38452,-0.16051c2.05464,0 5.69286,0.72201 7.63049,0.16051c1.07493,-0.3115 1.91116,-1.25576 3.003,-1.5015c3.0836,-0.69401 7.197,-0.16051 10.38753,-0.16051c2.98057,0.10919 5.97794,0.89221 8.68929,2.13494l-1.18178,-0.63344c0,0 6,0 6,6z" fill="#b3cedd" stroke="none" stroke-width="0.5"/><path d="M10.95258,290.00249c-3.8839,-5.36656 3.8839,-8.04985 3.8839,-8.04985l5.07559,-1.51693c9.64767,-0.9376 38.4927,-8.38198 34.94071,-5.60622c-9.10597,7.116 -17.31228,15.15509 -31.53432,17.3732l-0.7142,0.48308c0,0 -7.76779,2.68328 -11.65169,-2.68328z" data-paper-data="{&quot;index&quot;:null}" fill="#6c6c6c" stroke="none" stroke-width="0.5"/><path d="M40.09048,307.56718c3.79814,5.36656 -3.79814,8.04985 -3.79814,8.04985l-4.96352,1.51693c-9.43465,0.9376 -37.64276,8.38198 -34.1692,5.60622c8.9049,-7.116 16.93001,-15.15509 30.83803,-17.3732l0.69843,-0.48308c0,0 7.59628,-2.68328 11.39441,2.68328z" fill="#6c6c6c" stroke="none" stroke-width="0.5"/><path d="M10.92857,350.00249c-3.79814,-5.36656 3.79814,-8.04985 3.79814,-8.04985l4.96352,-1.51693c9.43465,-0.9376 37.64276,-8.38198 34.1692,-5.60622c-8.9049,7.116 -16.93001,15.15509 -30.83803,17.3732l-0.69843,0.48308c0,0 -7.59628,2.68328 -11.39441,-2.68328z" data-paper-data="{&quot;index&quot;:null}" fill="#6c6c6c" stroke="none" stroke-width="0.5"/></g></g></svg>