<svg version="1.1" xmlns="http://www.w3.org/2000/svg" xmlns:xlink="http://www.w3.org/1999/xlink" width="554.22335" height="439.10643" viewBox="0,0,554.22335,439.10643"><defs><linearGradient x1="219.27201" y1="-62.29206" x2="219.27201" y2="361.70794" gradientUnits="userSpaceOnUse" id="color-1"><stop offset="0" stop-color="#a60020"/><stop offset="1" stop-color="#ffeb00"/></linearGradient><radialGradient cx="240.00003" cy="226.00005" r="64.5" gradientUnits="userSpaceOnUse" id="color-2"><stop offset="0" stop-color="#ffffff"/><stop offset="1" stop-color="#f6ff6d"/></radialGradient></defs><g transform="translate(43.23791,62.29207)"><g data-paper-data="{&quot;isPaintingLayer&quot;:true}" fill-rule="nonzero" stroke="none" stroke-linecap="butt" stroke-linejoin="miter" stroke-miterlimit="10" stroke-dasharray="" stroke-dashoffset="0" style="mix-blend-mode: normal"><path d="M-41.97799,361.70794v-424h522.5v424z" fill="url(#color-1)" stroke-width="0"/><path d="M175.50001,226.00005c0,-35.62237 28.87763,-64.5 64.5,-64.5c35.62237,0 64.5,28.87763 64.5,64.5c0,35.62237 -28.87763,64.5 -64.5,64.5c-35.62237,0 -64.5,-28.87763 -64.5,-64.5z" fill="url(#color-2)" stroke-width="0"/><path d="M510.27983,363.27225c-0.35255,0.63737 -0.5548,1.33244 -0.70291,2.04926l1.40841,0.19324c0.28731,5.68988 -558.39199,0.38867 -553.76538,-5.12261c5.01886,-5.97853 -3.96801,-11.34147 1.21466,-17.25455c4.87155,-5.55811 8.59219,-11.67528 14.45758,-16.41768c3.20706,-2.59304 6.9296,-4.6376 9.66633,-7.72295c3.25184,-3.66609 5.62225,-7.56517 9.07912,-11.06239c3.91728,-2.92183 8.10257,-5.52731 12.49586,-7.66768c1.56325,-0.7616 4.56015,-2.18066 5.68182,-3.54789c1.23279,-1.50267 1.63191,-3.61938 3,-5c1.83787,-1.85471 4.16192,-3.17495 6.41252,-4.49876c0.57738,-0.33962 1.39225,-0.07811 1.96344,-0.42803c0.80395,-0.4925 1.15472,-1.58241 2,-2c2.24168,-1.10745 4.62825,-1.94308 7.05423,-2.55488c0.21596,-0.15888 0.39469,-0.32789 0.47476,-0.50953c0.58245,-1.32126 0.75582,-2.84539 1.57197,-4.03656c1.27608,-1.86244 2.93621,-3.44521 4.59994,-4.97133c0.99758,-0.91506 2.55184,-1.21851 3.32776,-2.32776c0.68888,-0.98483 1.04844,-2.26584 2,-3c3.14577,-2.42707 6.13597,-6.03106 10.09765,-6.33373c4.21384,-0.32194 7.86021,3.10766 11.79032,4.66149c4.74884,4.77255 8.37627,10.59112 11.83453,16.36772c1.01721,1.69913 1.95361,3.46414 2.64416,5.32018c0.07329,0.197 -0.70306,0.16414 -0.55007,0.30828c0.87475,0.82417 2.28628,1.03302 3,2c1.14342,1.54915 1.47846,3.5608 2.36567,5.26964c2.02572,3.90167 4.2096,7.80661 7.11964,11.10181c4.40759,4.99096 10.39468,8.73307 14.83928,13.82042c1.97251,2.25776 3.97382,4.50041 5.75425,6.91253c1.03447,1.4015 1.44814,3.24904 2.6657,4.49479c0.89154,0.91218 2.34006,1.03971 3.41485,1.72656c2.73536,1.74804 5.37156,3.65719 7.912,5.67808c2.39028,1.90143 4.98076,3.64358 6.92861,5.99618c1.15251,1.39198 1.23094,3.68729 2.74363,4.67606c2.44412,3.66617 5.35113,6.35547 7.49968,10.33565c0.01718,0.03182 0.03379,0.06387 0.04989,0.09615c0.31917,0.1281 0.64182,0.24223 0.97607,0.30958c3.15544,-3.12121 6.43934,-6.12359 9.46339,-9.36589c1.58245,-1.69666 10.02194,-11.73504 13.22214,-14.12813c6.36662,-4.76092 13.53695,-8.45514 19.5671,-13.63564c6.02456,-5.1757 11.22114,-11.17545 17.35197,-16.29887c4.37325,-3.47278 9.58626,-6.08519 13.72724,-9.77044c1.72317,-1.53353 2.91676,-3.75646 4.77822,-5.0623c-0.01481,-0.9543 0.0842,-1.91687 0.0842,-2.87225c0,-4.42953 -0.57734,-10.67642 0.91345,-14.5922c1.55362,-4.08082 10.48991,-11.85555 14.42295,-11.38944c5.6956,0.675 10.61446,4.736 14.9956,8.43751c2.24733,1.89871 2.74424,5.20579 4.18728,7.76962c4.58041,8.13801 9.64602,15.93095 14.85965,23.75139c0.78533,1.66887 1.29528,3.49771 2.35599,5.0066c1.24485,1.77084 3.21475,2.94634 4.4729,4.70775c0.4557,0.63799 0.01745,1.69647 0.5271,2.29225c1.08339,1.26651 3.12692,1.58031 4,3c1.81198,2.94642 2.63908,6.39834 3.78654,9.66147c1.08083,3.07366 3.02873,6.82165 3.91372,10.23369c0.40566,0.39606 0.79922,0.84031 1.22124,1.13676c1.62663,1.14261 3.40032,2.11704 4.82888,3.49932c1.91617,1.8541 2.95776,4.52209 5.12259,6.20518c6.87607,5.34592 12.71806,10.32224 14.3663,19.42546c2.29631,1.85228 11.34107,1.01752 14.08429,-2.14841c2.15459,-2.4866 5.01503,-4.43718 6.73373,-7.30572c2.46245,-4.10988 4.80064,-8.46624 8.31111,-11.72683c2.94681,-2.73705 6.90507,-4.21455 9.89365,-6.90594c3.8557,-3.47229 7.31774,-7.33939 10.51669,-11.40753c1.34148,-1.70598 2.40253,-3.66838 4.00109,-5.13621c4.05646,-3.72474 9.32314,-6.24055 13.20518,-10.12259c2.08849,-3.30246 4.48221,-7.88726 7.33847,-10.38827c1.82492,-1.59795 5.12879,-2.66986 7.33376,-4.28397c1.69356,-1.23974 3.05005,-3.0706 5.01567,-3.80645c2.38719,-0.89367 99.06147,-0.60896 101.5922,-0.91345h1c0,0 7.11901,66.851 5.77974,69.27224z" fill="#643c2c" stroke-width="0.5"/><path d="M114.74266,334.65852c-4.24264,4.24264 -8.48528,0 -8.48528,0l-2.44946,-3.34528c-0.2273,-0.96205 -0.71449,-1.9423 -1.46671,-2.58536c-0.70806,0.44721 -1.47794,0.90793 -2.31359,1.38492l0.16451,0.40571c0,0 1.89737,5.6921 -3.79474,7.58946c-5.6921,1.89737 -7.58947,-3.79473 -7.58947,-3.79473l-0.07614,-1.2554c-2.76642,-1.36155 -4.38593,-3.2397 -6.01605,-5.5513c-0.38255,-0.11447 -0.76223,-0.20058 -1.1379,-0.24561c-3.61885,-0.43377 -7.12054,0.76745 -10.83485,-0.16606c-0.04594,-0.01155 -0.09208,-0.02365 -0.13842,-0.03628c-0.11103,1.13024 -0.62706,2.36509 -1.86191,3.59994c-4.24264,4.24264 -8.48528,0 -8.48528,0l-2.39742,-2.43871c-1.14848,-1.72273 -2.77698,-3.11888 -3.95063,-4.81289c-0.29844,-0.01442 -0.59086,-0.0403 -0.87552,-0.08095c-1.99654,-0.28508 -3.94116,-0.86526 -5.88885,-1.38865c-2.39535,-0.64369 -4.83314,-1.22649 -7.16215,-2.07634c-0.35398,0.16985 -0.58543,0.24699 -0.58543,0.24699c-0.60082,0.14195 -1.61503,-0.12873 -1.79346,0.46229c-0.24879,0.82406 -0.32659,1.71303 -0.71402,2.48172c-0.66044,1.3104 -1.59839,2.46139 -2.39759,3.69209l-1.74966,1.91444c0,0 -4.24264,4.24264 -8.48528,0c-1.64198,-1.64198 -2.01301,-3.28395 -1.85091,-4.67999c-2.65408,0.51537 -6.34292,0.43734 -8.90645,0.43734c-0.91505,0 -1.84701,0.16746 -2.74945,0.04268c-1.90939,1.23727 -3.9111,2.43256 -6.09616,3.06122l-0.91175,1.13874c0,0 -4.24264,4.24264 -8.48528,0c-0.80317,-0.80317 -1.30224,-1.60634 -1.58358,-2.38072c-1.97465,-0.3015 -3.79097,-1.08432 -5.32548,-2.22495c-2.45641,2.45641 -5.37949,5.3795 -7.60567,7.60567c0,0 -4.24264,4.24264 -8.48528,0c-4.24264,-4.24264 0,-8.48529 0,-8.48529c2.66667,-2.66666 5.33333,-5.33334 8,-8l1,-1c0,0 0.93522,-0.93521 2.36657,-1.48839c0.79921,-5.53164 5.37159,-9.84252 11.02371,-10.23916c0.93905,-1.75062 4.42193,-4.58594 5.36708,-5.51508c3.22367,-3.16908 3.63564,-3.82355 8.21307,-6.2945c2.10677,-1.13726 2.46206,-0.35283 3.66435,-1.50033c3.97819,-3.79689 7.68468,-8.94988 12.29909,-11.9277c1.44551,-0.93283 3.13269,-1.41741 4.78216,-1.93955c-0.07089,-1.21248 -0.13305,-2.42817 0.44006,-3.44485c4.10318,-7.27882 5.15547,-6.98382 10.81434,-9.18758c1.73667,-1.15778 3.44556,-2.38514 5.24636,-3.30358c3.40615,-4.91663 10.02586,-4.91664 10.02586,-4.91664c2.53073,0.30448 5.19004,0.06084 7.5922,0.91345c1.7436,0.61886 2.86263,2.35956 4.42433,3.35164c1.25829,0.79934 2.78041,1.14278 4,2c2.54036,1.78556 6.93282,6.17803 8.71838,8.71838c0.85722,1.21959 1.17297,2.75974 2,4c0.67815,1.01698 1.8548,1.6532 2.4729,2.70775c1.14294,1.94997 1.18847,4.47104 2.5271,6.29225c3.3417,4.5464 8.07894,7.94589 11.5452,12.40865c3.63243,4.6767 3.43018,5.2407 5.66678,10.692c0.47735,0.96425 1.04869,1.88742 1.43204,2.89275c1.78591,4.68345 3.45747,7.97615 3.62332,10.84771c0.77566,0.46803 1.2404,0.93277 1.2404,0.93277c1.94553,2.09987 3.44886,4.66324 4.44946,7.34528l-0.44946,-1.34528c0,0 4.24264,4.24265 0,8.48529zM29.02227,276.72346c-0.01861,0.24103 -0.01568,0.38623 -0.00736,0.21498c0.00347,-0.07131 0.00587,-0.14299 0.00736,-0.21498z" fill="#85a3b4" stroke-width="0.5"/><path d="M245.43539,320.33026c-0.41171,-0.26802 -0.80807,-0.60221 -1.15641,-1.01891c-1.07828,0.08372 -2.15875,0.19096 -3.21772,0.02704c-1.68746,-0.26119 -3.33258,-0.98737 -5.0389,-0.92253c-0.49055,0 -0.98111,0 -1.47166,0c-1.50155,2.13046 -3.0473,3.90726 -4.79509,5.72546c-0.48624,1.77264 -1.85879,4.27454 -5.73325,4.27454c-6,0 -6,-6 -6,-6l1.34082,-4c-0.71857,0 -1.43715,0 -2.15573,0c-0.11453,0.2108 -0.19279,0.3282 -0.19279,0.3282c-0.41658,0.47017 -1.07385,0.80746 -1.24975,1.41051c-0.33256,1.14015 0.30274,2.48105 -0.19928,3.55739c-0.7249,1.55421 -2.20042,2.63102 -3.30063,3.94654l-2,2c0,0 -4.24264,4.24264 -8.48528,0c-4.24264,-4.24264 0,-8.48528 0,-8.48528l2,-2c0.3623,-0.02769 0.45296,-0.34309 0.4609,-0.75736c-0.40609,0 -0.81217,0 -1.21826,0l-0.87396,-0.3789c-2.00094,1.83058 -4.63734,3.14681 -7.22868,4.071c-1.68858,0.60223 -5.34402,1.05698 -6.65472,2.55054c-0.66429,0.75697 -0.96289,1.78343 -1.60259,2.56129c-1.50277,1.82735 -3.17126,3.20252 -5.01364,4.30841c-0.07654,0.18681 -0.16295,0.37712 -0.25985,0.57094c-2.68328,5.36657 -8.04985,2.68328 -8.04985,2.68328l-1.21408,-12.05866c5.6294,-1.73716 7.05935,-6.92429 12.26125,-9.6978c2.5061,-1.33618 6.08475,-1.31402 8.48173,-2.71401c0.41989,-0.24524 0.52087,-0.8495 0.91174,-1.13874c0.18794,-0.13907 0.64716,0.17444 0.69937,-0.05346c0.22326,-0.97476 0,-2 0,-3c1.33492,-1.59615 3.87039,-4.88783 5.73934,-6.34395c1.31295,-1.02294 2.6837,-1.99641 4.16782,-2.74984c0.60329,-0.30626 1.46731,0.04615 1.99415,-0.37834c0.58891,-0.47451 0.54439,-1.43348 1.00191,-2.0357c0.9823,-1.29296 2.54695,-2.06277 3.53615,-3.35046c1.0503,-1.36721 -0.10499,-3.55132 0.56063,-5.14171c0.87062,-2.08019 3.20145,-3.29575 4.15338,-5.34c1.13828,-2.44445 2.02158,-5.09802 3.74984,-7.16783c1.02549,-1.22814 2.15215,-2.41585 3.48567,-3.29997c1.03944,-0.68914 5.18893,-1.30166 4.15438,-2.8961c0,0 0,-4.76603 4.24775,-5.80258c1.70322,-1.19742 3.75225,-1.19742 3.75225,-1.19742c1.97406,0 6.96127,-0.08592 8.2961,0.45672c1.24944,0.50793 4.61425,3.95583 5.94654,5.30064c2.26124,2.28248 4.84686,5.07985 6.62482,7.73438c2.09594,3.12928 3.39351,6.7139 5.7726,9.70433c2.17441,2.73315 5.60721,4.65063 7.46385,7.64954c2.96064,4.78213 3.31267,10.15041 7.42882,14.22318c1.27074,1.68627 4.80885,6.16813 5.85717,8.2951c0.2991,0.60686 -0.05858,1.47758 0.37835,1.99415c0.77615,0.91762 2.4573,0.92765 3,2c3.08031,6.0865 3.75072,11.45415 -4.38972,14.48146c-5.01171,1.86378 -9.26702,-3.53592 -13.01463,-5.4496c-1.28296,-0.65513 -2.8642,-0.74312 -4.00585,-1.62165c-0.95248,-0.73296 -1.12645,-2.17455 -2,-3c-0.30471,-0.28794 -0.84915,0.02737 -1.2554,-0.07614c-1.03562,-0.26388 -1.96308,-0.3736 -2.8655,-0.4278c0.4341,1.83603 0.72341,3.71801 0.76287,5.7357c0,0 0,6 -6,6c-6,0 -6,-6 -6,-6c0.09172,-2.4137 -0.7176,-4.77009 -1.58697,-7.0856z" fill="#86a5b6" stroke-width="0.5"/><path d="M504.80797,310.3132l-0.07614,-1.2554c-2.76642,-1.36155 -4.38593,-3.2397 -6.01605,-5.5513c-0.38255,-0.11447 -0.76222,-0.20058 -1.13789,-0.24561c-3.61885,-0.43377 -7.12054,0.76745 -10.83485,-0.16606c-0.04594,-0.01155 -0.09208,-0.02365 -0.13842,-0.03628c-0.11104,1.13024 -0.62707,2.36509 -1.86191,3.59994c-4.24264,4.24264 -8.48528,0 -8.48528,0l-2.39741,-2.43871c-1.14849,-1.72273 -2.77698,-3.11888 -3.95063,-4.81289c-0.29844,-0.01442 -0.59086,-0.0403 -0.87551,-0.08095c-1.99654,-0.28508 -3.94116,-0.86526 -5.88885,-1.38865c-2.39535,-0.64369 -4.83314,-1.22649 -7.16215,-2.07634c-0.35398,0.16985 -0.58543,0.24699 -0.58543,0.24699c-0.60082,0.14195 -1.61503,-0.12873 -1.79346,0.46229c-0.24879,0.82406 -0.32659,1.71303 -0.71402,2.48172c-0.66044,1.3104 -1.59839,2.46139 -2.39759,3.69209l-1.74966,1.91444c0,0 -4.24264,4.24264 -8.48528,0c-1.64198,-1.64198 -2.01301,-3.28395 -1.85091,-4.67999c-2.65408,0.51537 -6.34292,0.43734 -8.90645,0.43734c-0.91505,0 -1.84701,0.16746 -2.74946,0.04268c-1.90939,1.23727 -3.91111,2.43256 -6.09616,3.06122l-0.91174,1.13874c0,0 -4.24264,4.24264 -8.48528,0c-0.80316,-0.80317 -1.30224,-1.60634 -1.58357,-2.38072c-1.97465,-0.3015 -3.79098,-1.08432 -5.32548,-2.22495c-2.45641,2.45641 -5.37949,5.3795 -7.60566,7.60567c0,0 -4.24264,4.24264 -8.48528,0c-4.24264,-4.24264 0,-8.48529 0,-8.48529c2.66667,-2.66666 5.33333,-5.33334 8,-8l1,-1c0,0 0.93522,-0.93521 2.36657,-1.48839c0.79921,-5.53164 5.3716,-9.84252 11.02371,-10.23916c0.93905,-1.75062 4.42193,-4.58593 5.36708,-5.51508c3.22367,-3.16908 3.63564,-3.82355 8.21306,-6.2945c2.10677,-1.13726 2.46206,-0.35283 3.66435,-1.50033c3.9782,-3.79689 7.68467,-8.94988 12.29909,-11.9277c1.44551,-0.93283 3.1327,-1.41741 4.78216,-1.93955c-0.07089,-1.21248 -0.13306,-2.42817 0.44006,-3.44485c4.10319,-7.27882 5.15548,-6.98382 10.81434,-9.18758c1.73667,-1.15778 3.44556,-2.38514 5.24635,-3.30358c3.40616,-4.91663 10.02586,-4.91664 10.02586,-4.91664c2.53074,0.30448 5.19004,0.06084 7.5922,0.91345c1.7436,0.61886 2.86263,2.35956 4.42432,3.35164c1.25829,0.79934 2.78041,1.14278 4,2c2.54035,1.78556 6.93282,6.17803 8.71838,8.71838c0.85722,1.21959 1.17296,2.75974 2,4c0.67815,1.01698 1.8548,1.6532 2.4729,2.70775c1.14295,1.94997 1.18847,4.47104 2.5271,6.29225c3.3417,4.5464 1.57299,51.91391 1.57299,51.91391zM445.0223,252.72349c-0.01862,0.24103 -0.01568,0.38623 -0.00736,0.21498c0.00347,-0.07131 0.00587,-0.14299 0.00736,-0.21498z" fill="#87a5b6" stroke-width="0.5"/><path d="M169.38474,361.2022c1.88566,-4.23468 5.42224,-6.38751 8.84158,-9.10637c1.89315,-1.50532 3.18028,-3.70702 5.14783,-5.1137c1.34302,-0.96017 2.94166,-1.4997 4.41249,-2.24955c0,0 2.68329,-1.34164 4.02492,1.34164c1.34164,2.68328 -1.34164,4.02492 -1.34164,4.02492c-3.76334,1.83623 -5.29197,4.10458 -8.43967,6.63675c-2.55059,2.05182 -5.82112,3.6176 -7.15842,6.89363c-2.14964,5.26604 -7.73719,2.62581 -5.48709,-2.42732z" fill="#341f17" stroke-width="0.5"/><path d="M202.25265,368.56103c0.88353,-2.93761 1.15333,-6.03412 1.99527,-8.98392c1.23924,-4.34182 2.8746,-8.49722 3.96993,-12.88885c0,0 0.7276,-2.91043 3.63804,-2.18282c2.91043,0.72761 2.18282,3.63804 2.18282,3.63804c-1.11898,4.46603 -2.76736,8.69662 -4.03006,13.11115c-0.84668,2.96005 -8.27553,9.03375 -7.756,7.3064z" fill="#341f17" stroke-width="0.5"/><path d="M231.16316,350.95971c0,0 0.45617,-2.96511 3.42129,-2.50894c2.96512,0.45617 2.50894,3.42129 2.50894,3.42129c-1.316,8.55401 -7.22916,7.5307 -5.93023,-0.91235z" fill="#341f17" stroke-width="0.5"/><path d="M288.13138,355.5521c0,0 -0.13622,-2.9969 2.86068,-3.13313c2.99691,-0.13622 3.13313,2.86068 3.13313,2.86068c0.87955,19.35026 -5.11489,19.60877 -5.99381,0.27245z" fill="#341f17" stroke-width="0.5"/><path d="M102.78666,344.7326c2.68328,-1.34164 4.02492,1.34164 4.02492,1.34164l0.43804,1.22033c0.81021,0.84804 1.81347,1.54676 2.43063,2.54413c0.55465,0.89637 0.47345,2.08684 1,3c1.36202,2.36205 5.07557,4.64187 6.76808,6.67522c1.53777,1.84744 2.50152,4.12055 4,6c0.66969,0.83995 1.67453,1.40645 2.23192,2.32478c0.54693,0.9011 -6.3637,2.11227 -6.87196,1.47916c-1.50477,-1.87442 -2.45998,-4.15444 -4,-6c-2.0704,-2.48116 -5.51884,-4.55631 -7.23193,-7.32478c-0.90217,-1.45798 -1.31241,-3.28982 -2.56937,-4.45587l-1.56196,-2.77968c0,0 -1.34164,-2.68328 1.34164,-4.02492z" fill="#341f17" stroke-width="0.5"/><path d="M73.12829,336.41588c1.63693,0 2.38067,0.89318 2.7186,1.70482c0.89487,0.25054 1.7658,0.53695 2.40272,1.17386c0.61769,0.61769 2.30618,5.91698 2.72473,7.17264c0.81587,2.44762 1.35364,6.18687 2.7059,8.37149c0.49622,0.80166 1.51493,1.19155 2,2c0.99334,1.65555 1.6099,3.60611 2.97935,4.96706c1.10097,2.89867 -3.77183,7.01298 -5.0626,3.22025c-0.67355,-0.67765 -1.52898,-1.21372 -2.02066,-2.03294c-0.54244,-0.90381 -0.45767,-2.09613 -1,-3c-0.48507,-0.80845 -1.52378,-1.1863 -2,-2c-0.2503,-0.42768 -2.0355,-5.85272 -2.29409,-6.62851c-0.66666,-2 -1.46154,-3.96174 -2,-6c-0.15733,-0.59556 0.1603,-1.39178 -0.27527,-1.82736c-0.43558,-0.43558 -1.21824,-0.18351 -1.82736,-0.27527l-2.05131,-3.84605c0,0 0,-3 3,-3z" fill="#341f17" stroke-width="0.5"/><path d="M57.14038,355.68527c-0.4197,-3.61268 -1.31313,-7.15445 -1.96373,-10.73276c0,0 -0.53666,-2.95161 2.41495,-3.48826c2.95161,-0.53665 3.48827,2.41495 3.48827,2.41495c0.68273,3.75502 1.60794,7.47476 2.03627,11.26724c0.7732,6.84605 -5.15472,7.60605 -5.97576,0.53883z" fill="#341f17" stroke-width="0.5"/><path d="M37.12829,350.41589c0,0 0,-3 3,-3c3,0 3,3 3,3c0,11.23525 -6,11.06026 -6,0z" fill="#341f17" stroke-width="0.5"/><path d="M17.03691,357.575c0.39552,-4.80275 1.90909,-9.76445 3.07497,-14.43199c0,0 0.7276,-2.91043 3.63804,-2.18283c2.91043,0.72761 2.18282,3.63804 2.18282,3.63804c-1.09724,4.38504 -2.56278,9.0565 -2.92503,13.56801c-0.44536,5.54676 -6.43783,5.07995 -5.9708,-0.59123z" fill="#341f17" stroke-width="0.5"/><path d="M-6.71441,361.64161c2.0108,-4.6291 4.57539,-8.99612 7.16424,-13.31451c0,0 1.54349,-2.57248 4.11597,-1.02899c2.57248,1.54349 1.02899,4.11596 1.02899,4.11596c-2.47077,4.11434 -13.43087,12.80975 -12.3092,10.22754z" fill="#341f17" stroke-width="0.5"/><path d="" fill="#341f17" stroke-width="0.5"/><path d="M386.78058,371.73034c1.89137,-2.58996 4.11053,-4.77876 5.753,-7.63813c1.27815,-2.22511 1.71844,-4.87347 3.04278,-7.07142c1.38979,-2.30657 3.5396,-4.06593 5.15195,-6.2228c0,0 1.8,-2.4 4.2,-0.6c2.4,1.8 0.6,4.2 0.6,4.2c-1.51128,2.00897 -3.56023,3.61815 -4.84805,5.7772c-1.28636,2.1566 -1.71562,4.74592 -2.95722,6.92858c-1.76774,3.10757 -13.96508,8.76562 -10.94246,4.62657z" fill="#341f17" stroke-width="0.5"/><path d="M308.17243,371.9284c-0.89375,-5.3719 -0.59241,-10.37936 -1.95454,-15.78494c0,0 -0.72761,-2.91043 2.18282,-3.63804c2.91043,-0.72761 3.63804,2.18282 3.63804,2.18282c1.00723,4.05853 1.77333,8.20951 1.99524,12.38527c0.12971,2.4409 -0.39919,3.92616 0.78928,6.02429c0.97533,1.72186 -5.86013,3.58321 -6.65084,-1.1694z" fill="#341f17" stroke-width="0.5"/><path d="M358.22635,369.27795c3.45484,-2.70865 4.84576,-7.25338 8.23145,-10.18093c3.07702,-2.66065 7.86253,-5.72191 10.23679,-9.25318c2.53578,-3.77149 2.63306,-8.54272 4.74619,-12.57896c1.09981,-2.10072 2.14641,-4.3177 3.81036,-6.00704c0.8223,-0.83486 2.3206,-0.56844 3.29999,-1.21183c0.99021,-0.6505 1.63725,-1.71291 2.45587,-2.56937c0,0 2.12132,-2.12132 4.24264,0c2.12132,2.12132 0,4.24264 0,4.24264c-1.18138,1.14354 -2.18176,2.51015 -3.54413,3.43063c-0.77687,0.52489 -2.02965,0.13269 -2.70001,0.78817c-4.44797,4.34925 -4.07961,12.33814 -7.44346,17.41401c-2.60067,3.92427 -7.6752,7.30726 -11.13363,10.24316c-2.65862,2.25693 -3.81822,5.24321 -5.98007,7.90467c-3.52616,4.34107 -10.03837,0.77012 -6.22199,-2.22197z" fill="#341f17" stroke-width="0.5"/><path d="M441.1283,327.45243c3,0 3,3 3,3l-0.15395,1.94868c-0.61604,1.76285 -0.5675,3.69163 -0.88479,5.53187c-0.82957,4.81142 -2.99725,10.25959 -5.1476,14.56029c-1.21418,4.956 -1.56338,9.93252 -2.93329,14.79792c-0.5722,2.03222 -1.67227,3.90437 -2.12576,5.96633c-1.27265,5.78666 -7.03348,3.95308 -5.81214,-1.48957c0.7441,-3.31593 2.60539,-6.25033 3.08002,-9.68207c0.55255,-3.99512 1.1499,-7.68669 2.16387,-11.67428c1.96526,-3.93052 4.14686,-9.02864 4.85239,-13.43971c0.34554,-2.1604 0.44547,-4.38531 1.11522,-6.46813l-0.15395,-0.05132c0,0 0,-3 3,-3z" fill="#341f17" stroke-width="0.5"/><path d="M501.46994,373.13576c-2.68328,1.34164 -4.02492,-1.34164 -4.02492,-1.34164l-0.43804,-1.22032c-3.19567,-3.34489 -3.15475,-5.3568 -3.83994,-9.64077c-0.31373,-1.96149 -1.39648,-3.72535 -1.9191,-5.64178c-0.3016,-1.10598 -0.21579,-2.33622 -0.73024,-3.36067c-0.37534,-0.74743 -1.36062,-1.02709 -1.82313,-1.72397c-2.45654,-3.70136 -3.53905,-8.31903 -6,-12c-1.24084,-1.85598 -3.04724,-3.31344 -4.161,-5.24835c-1.9518,-3.39081 -2.71562,-5.70894 -4.1907,-9.39161c0,0 -1.11417,-2.78543 1.67126,-3.8996c2.78543,-1.11417 3.8996,1.67126 3.8996,1.67126c1.38811,3.47524 2.02075,5.45037 3.8093,8.60839c1.00346,1.7718 2.71134,3.05618 3.839,4.75165c2.45993,3.69861 3.53622,8.32154 6,12c0.58422,0.87225 1.70858,1.33645 2.17687,2.27603c1.17962,2.36681 2.87353,8.2302 3.35066,10.99755c0.57613,3.3415 -0.43481,3.95201 2.16006,6.35923l1.56196,2.77968c0,0 1.34164,2.68328 -1.34164,4.02492z" fill="#341f17" stroke-width="0.5"/></g></g></svg>