<svg version="1.1" xmlns="http://www.w3.org/2000/svg" xmlns:xlink="http://www.w3.org/1999/xlink" width="625.49969" height="446.10789" viewBox="0,0,625.49969,446.10789"><defs><linearGradient x1="298.272" y1="-62.29209" x2="298.272" y2="361.70792" gradientUnits="userSpaceOnUse" id="color-1"><stop offset="0" stop-color="#a60020"/><stop offset="1" stop-color="#ffeb00"/></linearGradient><radialGradient cx="240.00002" cy="178.00001" r="64.5" gradientUnits="userSpaceOnUse" id="color-2"><stop offset="0" stop-color="#ffffff"/><stop offset="1" stop-color="#f6ff6d"/></radialGradient></defs><g transform="translate(24.97768,62.29208)"><g data-paper-data="{&quot;isPaintingLayer&quot;:true}" fill-rule="nonzero" stroke="none" stroke-linecap="butt" stroke-linejoin="miter" stroke-miterlimit="10" stroke-dasharray="" stroke-dashoffset="0" style="mix-blend-mode: normal"><path d="M-3.97799,361.70792v-424h604.5v424z" fill="url(#color-1)" stroke-width="0"/><path d="M175.50001,178.00001c0,-35.62237 28.87763,-64.5 64.5,-64.5c35.62237,0 64.5,28.87763 64.5,64.5c0,35.62237 -28.87763,64.5 -64.5,64.5c-35.62237,0 -64.5,-28.87763 -64.5,-64.5z" fill="url(#color-2)" stroke-width="0"/><path d="M555.50004,289.00001c0,3.31371 -1.34315,6.31371 -3.51472,8.48528l-0.07658,0.07658c0.55304,-0.06634 1.11171,-0.06373 1.67785,0.03034c1.97638,0.32839 -1.45783,4.33002 -3.29984,6.31816c0.23917,0.91343 0.47562,1.82773 0.73473,2.73459c1.15648,4.04767 2.51978,5.65367 2.46972,10.81557c-0.02113,2.17819 -1.07131,4.22281 -1.60696,6.33421c-0.93337,2.60478 -2.26515,5.05624 -3.60442,7.47748c-0.35255,0.63737 -0.5548,1.33244 -0.70291,2.04926l1.40841,0.19324c0.28731,5.68988 2.67852,11.68103 1.02541,17.09306c2.10226,7.06659 -0.53065,15.17525 -0.51069,22.39222c0,3.83779 -572.15629,14.99079 -572,6.99998c0.07735,-3.95471 -2.90671,-48.09659 1.7199,-53.60787c5.01886,-5.97853 12.03199,-9.34147 17.21466,-15.25455c4.87155,-5.55811 8.59219,-11.67528 14.45758,-16.41768c3.20706,-2.59304 6.9296,-4.6376 9.66633,-7.72295c3.25184,-3.66609 5.62225,-7.56517 9.07912,-11.06239c3.91728,-2.92183 8.10257,-5.52731 12.49586,-7.66768c1.56325,-0.7616 4.56015,-2.18066 5.68182,-3.54789c1.23279,-1.50267 1.63191,-3.61938 3,-5c1.83787,-1.85471 4.16192,-3.17495 6.41252,-4.49876c0.57738,-0.33962 1.39225,-0.07811 1.96344,-0.42803c0.80395,-0.4925 1.15472,-1.58241 2,-2c2.24168,-1.10745 4.62825,-1.94308 7.05423,-2.55488c0.21596,-0.15888 0.39469,-0.32789 0.47476,-0.50953c0.58245,-1.32126 0.75582,-2.84539 1.57197,-4.03656c1.27608,-1.86244 2.93621,-3.44521 4.59994,-4.97133c0.99758,-0.91506 2.55184,-1.21851 3.32776,-2.32776c0.68888,-0.98483 1.04844,-2.26584 2,-3c3.14577,-2.42707 6.13597,-6.03106 10.09765,-6.33373c4.21384,-0.32194 7.86021,3.10766 11.79032,4.66149c4.74884,4.77255 8.37627,10.59112 11.83453,16.36772c1.01721,1.69913 1.95361,3.46414 2.64416,5.32018c0.07329,0.197 -0.70306,0.16414 -0.55007,0.30828c0.87475,0.82417 2.28628,1.03302 3,2c1.14342,1.54915 1.47846,3.5608 2.36567,5.26964c2.02572,3.90167 4.2096,7.80661 7.11964,11.10181c4.40759,4.99096 10.39468,8.73307 14.83928,13.82042c1.97251,2.25776 3.97382,4.50041 5.75425,6.91253c1.03447,1.4015 1.44814,3.24904 2.6657,4.49479c0.89154,0.91218 2.34006,1.03971 3.41485,1.72656c2.73536,1.74804 5.37156,3.65719 7.912,5.67808c2.39028,1.90143 4.98076,3.64358 6.92861,5.99618c1.15251,1.39198 1.23094,3.68729 2.74363,4.67606c2.44412,3.66617 5.35113,6.35547 7.49968,10.33565c0.01718,0.03182 0.03379,0.06387 0.04989,0.09615c0.31917,0.1281 0.64182,0.24223 0.97607,0.30958c3.15544,-3.12121 6.43934,-6.12359 9.46339,-9.36589c1.58245,-1.69666 10.02194,-11.73504 13.22214,-14.12813c6.36662,-4.76092 13.53695,-8.45514 19.5671,-13.63564c6.02456,-5.1757 11.22114,-11.17545 17.35197,-16.29887c4.37325,-3.47278 9.58626,-6.08519 13.72724,-9.77044c1.72317,-1.53353 2.91676,-3.75646 4.77822,-5.0623c-0.01481,-0.9543 0.0842,-1.91687 0.0842,-2.87225c0,-4.42953 -0.57734,-10.67642 0.91345,-14.5922c1.55362,-4.08082 10.48991,-11.85555 14.42295,-11.38944c5.6956,0.675 10.61446,4.736 14.9956,8.43751c2.24733,1.89871 2.74424,5.20579 4.18728,7.76962c4.58041,8.13801 9.64602,15.93095 14.85965,23.75139c0.78533,1.66887 1.29528,3.49771 2.35599,5.0066c1.24485,1.77084 3.21475,2.94634 4.4729,4.70775c0.4557,0.63799 0.01745,1.69647 0.5271,2.29225c1.08339,1.26651 3.12692,1.58031 4,3c1.81198,2.94642 2.63908,6.39834 3.78654,9.66147c1.08083,3.07366 3.02873,6.82165 3.91372,10.23369c0.40566,0.39606 0.79922,0.84031 1.22124,1.13676c1.62663,1.14261 3.40032,2.11704 4.82888,3.49932c1.91617,1.8541 2.95776,4.52209 5.12259,6.20518c6.87607,5.34592 12.71806,10.32224 14.3663,19.42546c2.29631,1.85228 4.9428,5.10395 6.84251,8.12539c2.17526,-3.59464 4.49856,-7.10787 7.24178,-10.2738c2.15459,-2.4866 5.01503,-4.43718 6.73373,-7.30572c2.46245,-4.10988 4.80064,-8.46624 8.31111,-11.72683c2.94681,-2.73705 6.90507,-4.21455 9.89365,-6.90594c3.8557,-3.47229 7.31774,-7.33939 10.51669,-11.40753c1.34148,-1.70598 2.40253,-3.66838 4.00109,-5.13621c4.05646,-3.72474 9.32314,-6.24055 13.20518,-10.12259c2.08849,-3.30246 4.48221,-7.88726 7.33847,-10.38827c1.82492,-1.59795 5.12879,-2.66986 7.33376,-4.28397c1.69356,-1.23974 3.05005,-3.0706 5.01567,-3.80645c2.38719,-0.89367 99.06147,-0.60896 101.5922,-0.91345h1c0,0 12,0 12,12c0,3.09017 -0.79576,5.38458 -1.97745,7.08815c1.85366,2.11219 2.97745,4.88078 2.97745,7.91185zM245.84998,350.97535c-0.30842,0.51986 -0.59658,1.07716 -0.86996,1.63383c0.51329,-0.49467 1.01975,-0.99676 1.51867,-1.50697c-0.19062,-0.03211 -0.38093,-0.06862 -0.57093,-0.10982c-0.02595,-0.00563 -0.05187,-0.01131 -0.07778,-0.01704z" fill="#643c2c" stroke-width="0.5"/><path d="M152.74266,302.65849c-4.24264,4.24264 -8.48528,0 -8.48528,0l-2.44946,-3.34528c-0.2273,-0.96205 -0.71449,-1.9423 -1.46671,-2.58536c-0.70806,0.44721 -1.47794,0.90793 -2.31359,1.38492l0.16451,0.40571c0,0 1.89737,5.6921 -3.79474,7.58946c-5.6921,1.89737 -7.58947,-3.79473 -7.58947,-3.79473l-0.07614,-1.2554c-2.76642,-1.36155 -4.38593,-3.2397 -6.01605,-5.5513c-0.38255,-0.11447 -0.76223,-0.20058 -1.1379,-0.24561c-3.61885,-0.43377 -7.12054,0.76745 -10.83485,-0.16606c-0.04594,-0.01155 -0.09208,-0.02365 -0.13842,-0.03628c-0.11103,1.13024 -0.62706,2.36509 -1.86191,3.59994c-4.24264,4.24264 -8.48528,0 -8.48528,0l-2.39742,-2.43871c-1.14848,-1.72273 -2.77698,-3.11888 -3.95063,-4.81289c-0.29844,-0.01442 -0.59086,-0.0403 -0.87552,-0.08095c-1.99654,-0.28508 -3.94116,-0.86526 -5.88885,-1.38865c-2.39535,-0.64369 -4.83314,-1.22649 -7.16215,-2.07634c-0.35398,0.16985 -0.58543,0.24699 -0.58543,0.24699c-0.60082,0.14195 -1.61503,-0.12873 -1.79346,0.46229c-0.24879,0.82406 -0.32659,1.71303 -0.71402,2.48172c-0.66044,1.3104 -1.59839,2.46139 -2.39759,3.69209l-1.74966,1.91444c0,0 -4.24264,4.24264 -8.48528,0c-1.64198,-1.64198 -2.01301,-3.28395 -1.85091,-4.67999c-2.65408,0.51537 -6.34292,0.43734 -8.90645,0.43734c-0.91505,0 -1.84701,0.16746 -2.74945,0.04268c-1.90939,1.23727 -3.9111,2.43256 -6.09616,3.06122l-0.91175,1.13874c0,0 -4.24264,4.24264 -8.48528,0c-0.80317,-0.80317 -1.30224,-1.60634 -1.58358,-2.38072c-1.97465,-0.3015 -3.79097,-1.08432 -5.32548,-2.22495c-2.45641,2.45641 -5.37949,5.3795 -7.60567,7.60567c0,0 -4.24264,4.24264 -8.48528,0c-4.24264,-4.24264 0,-8.48529 0,-8.48529c2.66667,-2.66666 5.33333,-5.33334 8,-8l1,-1c0,0 0.93522,-0.93521 2.36657,-1.48839c0.79921,-5.53164 5.37159,-9.84252 11.02371,-10.23916c0.93905,-1.75062 4.42193,-4.58594 5.36708,-5.51508c3.22367,-3.16908 3.63564,-3.82355 8.21307,-6.2945c2.10677,-1.13726 2.46206,-0.35283 3.66435,-1.50033c3.97819,-3.79689 7.68468,-8.94988 12.29909,-11.9277c1.44551,-0.93283 3.13269,-1.41741 4.78216,-1.93955c-0.07089,-1.21248 -0.13305,-2.42817 0.44006,-3.44485c4.10318,-7.27882 5.15547,-6.98382 10.81434,-9.18758c1.73667,-1.15778 3.44556,-2.38514 5.24636,-3.30358c3.40615,-4.91663 10.02586,-4.91664 10.02586,-4.91664c2.53073,0.30448 5.19004,0.06084 7.5922,0.91345c1.7436,0.61886 2.86263,2.35956 4.42433,3.35164c1.25829,0.79934 2.78041,1.14278 4,2c2.54036,1.78556 6.93282,6.17803 8.71838,8.71838c0.85722,1.21959 1.17297,2.75974 2,4c0.67815,1.01698 1.8548,1.6532 2.4729,2.70775c1.14294,1.94997 1.18847,4.47104 2.5271,6.29225c3.3417,4.5464 8.07894,7.94589 11.5452,12.40865c3.63243,4.6767 3.43018,5.2407 5.66678,10.692c0.47735,0.96425 1.04869,1.88742 1.43204,2.89275c1.78591,4.68345 3.45747,7.97615 3.62332,10.84771c0.77566,0.46803 1.2404,0.93277 1.2404,0.93277c1.94553,2.09987 3.44886,4.66324 4.44946,7.34528l-0.44946,-1.34528c0,0 4.24264,4.24265 0,8.48529zM67.02228,244.72344c-0.01861,0.24103 -0.01568,0.38623 -0.00736,0.21498c0.00347,-0.07131 0.00587,-0.14299 0.00736,-0.21498z" fill="#85a3b4" stroke-width="0.5"/><path d="M283.43539,288.33023c-0.41171,-0.26802 -0.80807,-0.60221 -1.15641,-1.01891c-1.07828,0.08372 -2.15875,0.19096 -3.21772,0.02704c-1.68746,-0.26119 -3.33258,-0.98737 -5.0389,-0.92253c-0.49055,0 -0.98111,0 -1.47166,0c-1.50155,2.13046 -3.0473,3.90726 -4.79509,5.72546c-0.48624,1.77264 -1.85879,4.27454 -5.73325,4.27454c-6,0 -6,-6 -6,-6l1.34082,-4c-0.71857,0 -1.43715,0 -2.15573,0c-0.11453,0.2108 -0.19279,0.3282 -0.19279,0.3282c-0.41658,0.47017 -1.07385,0.80746 -1.24975,1.41051c-0.33256,1.14015 0.30274,2.48105 -0.19928,3.55739c-0.7249,1.55421 -2.20042,2.63102 -3.30063,3.94654l-2,2c0,0 -4.24264,4.24264 -8.48528,0c-4.24264,-4.24264 0,-8.48528 0,-8.48528l2,-2c0.3623,-0.02769 0.45296,-0.34309 0.4609,-0.75736c-0.40609,0 -0.81217,0 -1.21826,0l-0.87396,-0.3789c-2.00094,1.83058 -4.63734,3.14681 -7.22868,4.071c-1.68858,0.60223 -5.34402,1.05698 -6.65472,2.55054c-0.66429,0.75697 -0.96289,1.78343 -1.60259,2.56129c-1.50277,1.82735 -3.17126,3.20252 -5.01364,4.30841c-0.07654,0.18681 -0.16295,0.37712 -0.25985,0.57094c-2.68328,5.36657 -8.04985,2.68328 -8.04985,2.68328l-1.21408,-12.05866c5.6294,-1.73716 7.05935,-6.92429 12.26125,-9.6978c2.5061,-1.33618 6.08475,-1.31402 8.48173,-2.71401c0.41989,-0.24524 0.52087,-0.8495 0.91174,-1.13874c0.18794,-0.13907 0.64716,0.17444 0.69937,-0.05346c0.22326,-0.97476 0,-2 0,-3c1.33492,-1.59615 3.87039,-4.88783 5.73934,-6.34395c1.31295,-1.02294 2.6837,-1.99641 4.16782,-2.74984c0.60329,-0.30626 1.46731,0.04615 1.99415,-0.37834c0.58891,-0.47451 0.54439,-1.43348 1.00191,-2.0357c0.9823,-1.29296 2.54695,-2.06277 3.53615,-3.35046c1.0503,-1.36721 -0.10499,-3.55132 0.56063,-5.14171c0.87062,-2.08019 3.20145,-3.29575 4.15338,-5.34c1.13828,-2.44445 2.02158,-5.09802 3.74984,-7.16783c1.02549,-1.22814 2.15215,-2.41585 3.48567,-3.29997c1.03944,-0.68914 5.18893,-1.30166 4.15438,-2.8961c0,0 0,-4.76603 4.24775,-5.80258c1.70322,-1.19742 3.75225,-1.19742 3.75225,-1.19742c1.97406,0 6.96127,-0.08592 8.2961,0.45672c1.24944,0.50793 4.61425,3.95583 5.94654,5.30064c2.26124,2.28248 4.84686,5.07985 6.62482,7.73438c2.09594,3.12928 3.39351,6.7139 5.7726,9.70433c2.17441,2.73315 5.60721,4.65063 7.46385,7.64954c2.96064,4.78213 3.31267,10.15041 7.42882,14.22318c1.27074,1.68627 4.80885,6.16813 5.85717,8.2951c0.2991,0.60686 -0.05858,1.47758 0.37835,1.99415c0.77615,0.91762 2.4573,0.92765 3,2c3.08031,6.0865 3.75072,11.45415 -4.38972,14.48146c-5.01171,1.86378 -9.26702,-3.53592 -13.01463,-5.4496c-1.28296,-0.65513 -2.8642,-0.74312 -4.00585,-1.62165c-0.95248,-0.73296 -1.12645,-2.17455 -2,-3c-0.30471,-0.28794 -0.84915,0.02737 -1.2554,-0.07614c-1.03562,-0.26388 -1.96308,-0.3736 -2.8655,-0.4278c0.4341,1.83603 0.72341,3.71801 0.76287,5.7357c0,0 0,6 -6,6c-6,0 -6,-6 -6,-6c0.09172,-2.4137 -0.7176,-4.77009 -1.58697,-7.0856z" fill="#86a5b6" stroke-width="0.5"/><path d="M568.7427,278.65848c-4.24264,4.24264 -8.48528,0 -8.48528,0l-2.44946,-3.34528c-0.2273,-0.96205 -0.71449,-1.9423 -1.46672,-2.58536c-0.70805,0.44721 -1.47794,0.90793 -2.31359,1.38492l0.16451,0.40571c0,0 1.89737,5.6921 -3.79473,7.58946c-5.6921,1.89737 -7.58947,-3.79473 -7.58947,-3.79473l-0.07614,-1.2554c-2.76642,-1.36155 -4.38593,-3.2397 -6.01605,-5.5513c-0.38255,-0.11447 -0.76222,-0.20058 -1.13789,-0.24561c-3.61885,-0.43377 -7.12054,0.76745 -10.83485,-0.16606c-0.04594,-0.01155 -0.09208,-0.02365 -0.13842,-0.03628c-0.11104,1.13024 -0.62707,2.36509 -1.86191,3.59994c-4.24264,4.24264 -8.48528,0 -8.48528,0l-2.39741,-2.43871c-1.14849,-1.72273 -2.77698,-3.11888 -3.95063,-4.81289c-0.29844,-0.01442 -0.59086,-0.0403 -0.87551,-0.08095c-1.99654,-0.28508 -3.94116,-0.86526 -5.88885,-1.38865c-2.39535,-0.64369 -4.83314,-1.22649 -7.16215,-2.07634c-0.35398,0.16985 -0.58543,0.24699 -0.58543,0.24699c-0.60082,0.14195 -1.61503,-0.12873 -1.79346,0.46229c-0.24879,0.82406 -0.32659,1.71303 -0.71402,2.48172c-0.66044,1.3104 -1.59839,2.46139 -2.39759,3.69209l-1.74966,1.91444c0,0 -4.24264,4.24264 -8.48528,0c-1.64198,-1.64198 -2.01301,-3.28395 -1.85091,-4.67999c-2.65408,0.51537 -6.34292,0.43734 -8.90645,0.43734c-0.91505,0 -1.84701,0.16746 -2.74946,0.04268c-1.90939,1.23727 -3.91111,2.43256 -6.09616,3.06122l-0.91174,1.13874c0,0 -4.24264,4.24264 -8.48528,0c-0.80316,-0.80317 -1.30224,-1.60634 -1.58357,-2.38072c-1.97465,-0.3015 -3.79098,-1.08432 -5.32548,-2.22495c-2.45641,2.45641 -5.37949,5.3795 -7.60566,7.60567c0,0 -4.24264,4.24264 -8.48528,0c-4.24264,-4.24264 0,-8.48529 0,-8.48529c2.66667,-2.66666 5.33333,-5.33334 8,-8l1,-1c0,0 0.93522,-0.93521 2.36657,-1.48839c0.79921,-5.53164 5.3716,-9.84252 11.02371,-10.23916c0.93905,-1.75062 4.42193,-4.58593 5.36708,-5.51508c3.22367,-3.16908 3.63564,-3.82355 8.21306,-6.2945c2.10677,-1.13726 2.46206,-0.35283 3.66435,-1.50033c3.9782,-3.79689 7.68467,-8.94988 12.29909,-11.9277c1.44551,-0.93283 3.1327,-1.41741 4.78216,-1.93955c-0.07089,-1.21248 -0.13306,-2.42817 0.44006,-3.44485c4.10319,-7.27882 5.15548,-6.98382 10.81434,-9.18758c1.73667,-1.15778 3.44556,-2.38514 5.24635,-3.30358c3.40616,-4.91663 10.02586,-4.91664 10.02586,-4.91664c2.53074,0.30448 5.19004,0.06084 7.5922,0.91345c1.7436,0.61886 2.86263,2.35956 4.42432,3.35164c1.25829,0.79934 2.78041,1.14278 4,2c2.54035,1.78556 6.93282,6.17803 8.71838,8.71838c0.85722,1.21959 1.17296,2.75974 2,4c0.67815,1.01698 1.8548,1.6532 2.4729,2.70775c1.14295,1.94997 1.18847,4.47104 2.5271,6.29225c3.3417,4.5464 8.07894,7.9459 11.5452,12.40866c3.63243,4.6767 3.43018,5.24069 5.66677,10.69199c0.47735,0.96425 1.04868,1.88742 1.43204,2.89275c1.78592,4.68345 3.45748,7.97615 3.62333,10.84771c0.77566,0.46803 1.2404,0.93277 1.2404,0.93277c1.94552,2.09987 3.44885,4.66324 4.44946,7.34528l-0.44946,-1.34528c0,0 4.24264,4.24265 0,8.48529zM483.0223,220.72344c-0.01862,0.24103 -0.01568,0.38623 -0.00736,0.21498c0.00347,-0.07131 0.00587,-0.14299 0.00736,-0.21498z" fill="#87a5b6" stroke-width="0.5"/><path d="M196.00696,349.53714c-2.12132,-2.12132 0,-4.24264 0,-4.24264l2.17264,-1.72473c6.07587,-1.80856 6.95504,-9.31448 9.20514,-14.36761c1.88566,-4.23468 5.42224,-6.38751 8.84158,-9.10637c1.89315,-1.50532 3.18028,-3.70702 5.14783,-5.1137c1.34302,-0.96017 2.94166,-1.4997 4.41249,-2.24955c0,0 2.68329,-1.34164 4.02492,1.34164c1.34164,2.68328 -1.34164,4.02492 -1.34164,4.02492c-3.76334,1.83623 -5.29197,4.10458 -8.43967,6.63675c-2.55059,2.05182 -5.82112,3.6176 -7.15842,6.89363c-2.14964,5.26604 -3.82567,13.03223 -9.16635,16.33829c-1.09185,0.67589 -2.419,0.86274 -3.62851,1.2941l0.17264,0.27527c0,0 -2.12133,2.12132 -4.24265,0z" fill="#341f17" stroke-width="0.5"/><path d="M234.43333,358.09778c2.56541,-5.07035 2.31108,-11.1638 3.81193,-16.51154c0.4874,-1.73668 1.48786,-3.2979 2.00739,-5.02525c0.88353,-2.93761 1.15333,-6.03412 1.99527,-8.98392c1.23924,-4.34182 2.8746,-8.49722 3.96993,-12.88885c0,0 0.7276,-2.91043 3.63804,-2.18282c2.91043,0.72761 2.18282,3.63804 2.18282,3.63804c-1.11898,4.46603 -2.76736,8.69662 -4.03006,13.11115c-0.84668,2.96005 -1.12206,6.06656 -2.00473,9.01608c-0.51214,1.71133 -1.50592,3.256 -1.99262,4.97475c-1.63128,5.76085 -1.47217,11.99877 -4.18807,17.48846c-3.76272,7.60563 -9.38997,5.26974 -5.3899,-2.6361z" fill="#341f17" stroke-width="0.5"/><path d="M258.30776,375.43321c1.19961,-5.19854 3.25842,-9.92403 3.83511,-15.31298c0.595,-5.56 0.88429,-10.77327 2.05283,-16.33685c1.74527,-8.30947 3.66853,-16.38066 4.96746,-24.82371c0,0 0.45617,-2.96511 3.42129,-2.50894c2.96512,0.45617 2.50894,3.42129 2.50894,3.42129c-1.316,8.55401 -3.2754,16.75445 -5.03254,25.17629c-1.11921,5.36428 -1.36271,10.30889 -1.94717,15.66315c-0.6183,5.66429 -2.6996,10.61398 -3.95963,16.07121c-0.44103,1.91013 -6.3049,0.63793 -5.84629,-1.34946z" fill="#341f17" stroke-width="0.5"/><path d="M288.13138,323.55206c0,0 -0.13622,-2.9969 2.86068,-3.13313c2.99691,-0.13622 3.13313,2.86068 3.13313,2.86068c0.87955,19.35026 -5.11489,19.60877 -5.99381,0.27245z" fill="#341f17" stroke-width="0.5"/><path d="M140.78666,312.73256c2.68328,-1.34164 4.02492,1.34164 4.02492,1.34164l0.43804,1.22033c0.81021,0.84804 1.81347,1.54676 2.43063,2.54413c0.55465,0.89637 0.47345,2.08684 1,3c1.36202,2.36205 5.07557,4.64187 6.76808,6.67522c1.53777,1.84744 2.50152,4.12055 4,6c0.66969,0.83995 1.67453,1.40645 2.23192,2.32478c0.54693,0.9011 0.46297,2.09296 1,3c2.20324,3.72124 6.49958,6.2509 8.88178,9.82306c2.29241,3.43751 3.4001,7.72989 5.24956,11.41249c0,0 1.34164,2.68328 -1.34164,4.02492c-2.68328,1.34164 -4.02492,-1.34164 -4.02492,-1.34164c-1.64879,-3.31089 -2.69601,-7.5045 -4.75045,-10.58751c-2.44619,-3.6709 -6.7866,-6.33546 -9.11822,-10.17694c-0.54693,-0.9011 -0.46297,-2.09296 -1,-3c-0.41363,-0.69862 -1.25981,-1.04211 -1.76807,-1.67522c-1.50477,-1.87442 -2.45998,-4.15444 -4,-6c-2.0704,-2.48116 -5.51884,-4.55631 -7.23193,-7.32478c-0.90217,-1.45798 -1.31241,-3.28982 -2.56937,-4.45587l-1.56196,-2.77968c0,0 -1.34164,-2.68328 1.34164,-4.02492z" fill="#341f17" stroke-width="0.5"/><path d="M111.12829,304.41584c1.63693,0 2.38067,0.89318 2.7186,1.70482c0.89487,0.25054 1.7658,0.53695 2.40272,1.17386c0.61769,0.61769 2.30618,5.91698 2.72473,7.17264c0.81587,2.44762 1.35364,6.18687 2.7059,8.37149c0.49622,0.80166 1.51493,1.19155 2,2c0.99334,1.65555 1.6099,3.60611 2.97935,4.96706c1.10097,2.89867 2.22442,6.24063 3.90243,8.856c0.50913,0.79352 1.4825,1.21192 2,2c3.08258,4.69438 4.06232,10.37127 6.26122,15.43608c0.78318,1.80393 2.64716,2.9281 3.73878,4.56392c2.56109,3.83786 4.30385,8.21693 7.01529,12.02141c1.79551,2.51933 4.25201,4.52277 6.03519,7.05083c3.73161,5.2904 -9.15653,-1.10301 -10.93323,-3.5854c-2.7083,-3.78403 -4.44417,-8.16341 -6.98471,-11.97859c-1.27612,-1.91638 -3.29857,-3.34459 -4.26122,-5.43608c-2.09714,-4.55633 -2.86621,-10.33289 -5.73878,-14.56392c-0.52958,-0.78002 -1.49703,-1.20256 -2,-2c-2.50391,-3.96979 -2.8068,-5.35127 -4.09757,-9.144c-0.67355,-0.67765 -1.52898,-1.21372 -2.02066,-2.03294c-0.54244,-0.90381 -0.45767,-2.09613 -1,-3c-0.48507,-0.80845 -1.52378,-1.1863 -2,-2c-0.2503,-0.42768 -2.0355,-5.85272 -2.29409,-6.62851c-0.66666,-2 -1.46154,-3.96174 -2,-6c-0.15733,-0.59556 0.1603,-1.39178 -0.27527,-1.82736c-0.43558,-0.43558 -1.21824,-0.18351 -1.82736,-0.27527l-2.05131,-3.84605c0,0 0,-3 3,-3z" fill="#341f17" stroke-width="0.5"/><path d="M107.14754,379.75528c-0.17605,-1.27422 0.18246,-2.58297 0.01947,-3.85892c-0.21846,-1.71017 -2.47555,-5.43431 -2.85239,-6.43971c-2.92665,-7.8083 -5.22306,-16.27714 -7.12161,-24.42098c-1.64237,-7.04497 -1.23158,-14.28322 -2.05262,-21.35044c-0.4197,-3.61268 -1.31313,-7.15445 -1.96373,-10.73276c0,0 -0.53666,-2.95161 2.41495,-3.48826c2.95161,-0.53665 3.48827,2.41495 3.48827,2.41495c0.68273,3.75502 1.60794,7.47476 2.03627,11.26724c0.7732,6.84605 0.34019,13.82928 1.94738,20.64956c1.85192,7.85882 4.05069,16.04247 6.87839,23.57902c1.34096,3.57398 2.56678,3.80918 3.1476,7.56029c0.21122,1.36412 -0.16632,2.77326 0.01947,4.14108c0.78633,5.78909 -5.1465,6.57725 -5.96145,0.67893z" fill="#341f17" stroke-width="0.5"/><path d="M71.14281,374.121c0.6168,-7.3529 3.2559,-14.57859 3.9957,-21.9526c1.10228,-10.9872 -0.01022,-22.69229 -0.01022,-33.75255c0,0 0,-3 3,-3c3,0 3,3 3,3c0,11.23525 1.09139,23.0818 -0.01022,34.24744c-0.73038,7.40293 -3.39901,14.67335 -4.0043,22.0474c-0.97845,11.9201 -7.00577,11.7463 -5.97096,-0.58969z" fill="#341f17" stroke-width="0.5"/><path d="M54.02789,372.65928c0.34937,-5.96096 -0.18594,-11.98534 0.07697,-17.95614c0.17571,-3.99048 0.76637,-7.95629 0.91966,-11.94769c0.2184,-5.68673 -0.45464,-11.50931 0.01239,-17.18049c0.39552,-4.80275 1.90909,-9.76445 3.07497,-14.43199c0,0 0.7276,-2.91043 3.63804,-2.18283c2.91043,0.72761 2.18282,3.63804 2.18282,3.63804c-1.09724,4.38504 -2.56278,9.0565 -2.92503,13.56801c-0.44536,5.54676 0.22601,11.25709 0.01239,16.81951c-0.06654,1.73251 -0.84117,10.17062 -0.92106,11.98162c-0.26473,6.00052 0.26985,12.05149 -0.08143,18.04307c-0.7935,13.53405 -6.76208,12.82709 -5.98972,-0.35111z" fill="#341f17" stroke-width="0.5"/><path d="M8.32737,373.5525c1.38105,-2.68881 4.17934,-4.39109 5.96618,-6.82916c1.06707,-1.45596 1.58593,-3.24331 2.36372,-4.87229c3.87501,-8.1157 7.65568,-16.3277 11.6701,-24.29856c1.26635,-2.51442 1.83655,-5.32871 2.95822,-7.91092c2.0108,-4.6291 4.57539,-8.99612 7.16424,-13.31451c0,0 1.54349,-2.57248 4.11597,-1.02899c2.57248,1.54349 1.02899,4.11596 1.02899,4.11596c-2.47077,4.11434 -4.9182,8.27349 -6.83576,12.68549c-1.14826,2.64195 -1.76014,5.5092 -3.04177,8.08909c-3.96507,7.98156 -7.71192,16.2086 -11.6586,24.27491c-0.96469,1.97167 -1.69087,4.09473 -2.97596,5.87424c-1.54922,2.14526 -4.21623,3.46725 -5.36545,5.85085c-1.92215,3.98675 -7.47507,1.42362 -5.38988,-2.63611z" fill="#341f17" stroke-width="0.5"/><path d="M-21.97768,377.87058c-3,0 -3,-3 -3,-3l0.22836,-4.14805c3.78223,-4.2486 6.01267,-9.19065 9.40702,-13.69818c0.11367,-0.15094 6.28291,-6.32655 6.46265,-6.47379c0.75587,-0.61918 1.90915,-0.73663 2.51785,-1.50096c0.55614,-0.69833 0.29631,-1.79637 0.72968,-2.57684c0.72712,-1.30951 1.96952,-2.28485 2.69686,-3.59423c1.62586,-2.92693 2.55649,-6.28702 4.63756,-8.90991c2.7111,-3.41694 6.50536,-5.60367 9.51087,-8.59282c2.89567,-2.8799 5.05546,-6.78301 7.313,-10.16932c0,0 1.6641,-2.49615 4.16025,-0.83205c2.49615,1.6641 0.83205,4.16025 0.83205,4.16025c-2.53663,3.80495 -4.94045,7.94284 -8.18335,11.2011c-2.81923,2.83259 -6.40948,4.84231 -8.99278,8.03676c-1.90559,2.35641 -2.61758,5.47078 -4.08948,8.11983c-0.68752,1.23737 -1.87911,2.14397 -2.5761,3.37602c-0.59928,1.05933 -0.50858,2.47392 -1.27032,3.42316c-0.89419,1.11427 -2.39159,1.57608 -3.48215,2.49904c-1.99053,1.68462 -3.97736,3.43658 -5.53735,5.52621c-2.98053,3.99248 -4.62912,9.11185 -8.59297,12.30182l0.22836,1.85195c0,0 0,3 -3,3z" fill="#341f17" stroke-width="0.5"/><path d="M444.00699,375.47662c0,0 2.12132,-2.12132 4.24264,0c2.12132,2.12132 0,4.24264 0,4.24264c-4.90933,4.85306 -8.42987,-0.01609 -4.24264,-4.24264z" fill="#341f17" stroke-width="0.5"/><path d="M175.15262,366.10526c0.96785,-6.13986 -0.02433,-13.27147 -0.02433,-19.50731c0,-5.8664 1,-11.17555 1,-17c0,0 0,-5 5,-5c5,0 5,5 5,5c0,1.33312 0.01344,7.22927 -0.06457,7.80091c-0.14253,1.04441 -0.81334,1.96257 -1,3c-0.36593,2.03382 0.06457,4.13261 0.06457,6.19909c0,6.59765 0.94814,13.97899 -0.02434,20.49269c-0.09412,0.63044 -10.96384,5.43775 -9.95133,-0.98538z" fill="#121529" stroke-width="0.5"/><path d="M350.19287,374.79704c0.84011,-4.82916 -0.80739,-10.12886 0,-15c0.70288,-4.24054 2.8309,-8.69687 4.19202,-12.78023c0,0 1.58114,-4.74342 6.32455,-3.16228c4.74342,1.58114 3.16228,6.32456 3.16228,6.32456c-1.18813,3.5644 -3.18696,7.52848 -3.80798,11.21977c-0.81414,4.83926 0.79091,10.12165 0,15c-0.37822,2.33288 -10.29765,0.85143 -9.87087,-1.60182z" fill="#121529" stroke-width="0.5"/><path d="M401.40277,374.34437c1.51414,-3.25221 4.14467,-5.86306 6.40551,-8.64839c3.17201,-3.90788 5.70135,-8.57861 8.49568,-12.76983c2.84942,-4.27384 5.454,-9.0568 8.47662,-13.19585c1.89137,-2.58996 4.11053,-4.77876 5.753,-7.63813c1.27815,-2.22511 1.71844,-4.87347 3.04278,-7.07142c1.38979,-2.30657 3.5396,-4.06593 5.15195,-6.2228c0,0 1.8,-2.4 4.2,-0.6c2.4,1.8 0.6,4.2 0.6,4.2c-1.51128,2.00897 -3.56023,3.61815 -4.84805,5.7772c-1.28636,2.1566 -1.71562,4.74592 -2.95722,6.92858c-1.76774,3.10757 -4.19218,5.55247 -6.24699,8.36187c-2.92498,3.99911 -5.42775,8.66041 -8.17979,12.78875c-2.9059,4.35913 -5.55913,9.17104 -8.84792,13.24557c-1.93412,2.39622 -4.3322,4.54281 -5.59449,7.35161c-1.53744,3.42102 -6.85701,0.51264 -5.45108,-2.50716z" fill="#341f17" stroke-width="0.5"/><path d="M330.53358,379.9216c-1.60955,-2.79622 -2.31982,-6.04691 -3.90979,-8.85431c-0.41417,-0.73129 -1.28916,-1.09431 -1.81551,-1.7495c-2.28577,-2.8453 -5.42291,-6.26507 -7.2514,-9.35673c-2.062,-3.48649 -2.90779,-7.57904 -4.7667,-11.17792c-2.42401,-4.69291 -3.82705,-4.10217 -4.61776,-8.85478c-0.89375,-5.3719 -0.59241,-10.37936 -1.95454,-15.78494c0,0 -0.72761,-2.91043 2.18282,-3.63804c2.91043,-0.72761 3.63804,2.18282 3.63804,2.18282c1.00723,4.05853 1.77333,8.20951 1.99524,12.38527c0.12971,2.4409 -0.39919,3.92616 0.78928,6.02429c0.97533,1.72186 2.39369,3.17594 3.29959,4.93533c1.79514,3.48642 2.59578,7.45328 4.57689,10.83748c2.3497,4.01382 6.64651,6.92135 8.9331,10.89377c1.66601,2.89431 2.44446,6.23981 4.09021,9.14569c2.38189,4.20568 -2.7139,7.31231 -5.18947,3.01157z" fill="#341f17" stroke-width="0.5"/><path d="M354.12831,371.59793c0,-3 3,-3 3,-3l0.33589,0.50385c2.31961,-1.53167 4.5864,-3.20323 6.34407,-5.40581c2.23645,-2.80254 3.47429,-6.4326 6.5659,-8.53176c2.15794,-1.46521 4.94047,-1.77596 7.17694,-3.11823c2.56032,-1.53663 4.81763,-4.11201 6.45587,-6.56937c4.0007,-2.74815 8.40298,-5.20661 12.21936,-8.1987c3.45484,-2.70865 4.84576,-7.25338 8.23145,-10.18093c3.07702,-2.66065 7.86253,-5.72191 10.23679,-9.25318c2.53578,-3.77149 2.63306,-8.54272 4.74619,-12.57896c1.09981,-2.10072 2.14641,-4.3177 3.81036,-6.00704c0.8223,-0.83486 2.3206,-0.56844 3.29999,-1.21183c0.99021,-0.6505 1.63725,-1.71291 2.45587,-2.56937c0,0 2.12132,-2.12132 4.24264,0c2.12132,2.12132 0,4.24264 0,4.24264c-1.18138,1.14354 -2.18176,2.51015 -3.54413,3.43063c-0.77687,0.52489 -2.02965,0.13269 -2.70001,0.78817c-4.44797,4.34925 -4.07961,12.33814 -7.44346,17.41401c-2.60067,3.92427 -7.6752,7.30726 -11.13363,10.24316c-2.65862,2.25693 -3.81822,5.24321 -5.98007,7.90467c-3.52616,4.34107 -9.53244,7.23701 -14.19871,10.21936c-1.86937,2.80406 -4.61465,5.67331 -7.54413,7.43063c-2.11717,1.27004 -4.75149,1.53864 -6.82306,2.88178c-2.4567,1.59284 -3.67699,5.27639 -5.4341,7.46824c-2.14247,2.67255 -4.84754,4.70671 -7.65593,6.59418l-3.6641,0.50385c0,0 -3,0 -3,-3z" fill="#341f17" stroke-width="0.5"/><path d="M479.1283,295.45243c3,0 3,3 3,3l-0.15395,1.94868c-0.61604,1.76285 -0.5675,3.69163 -0.88479,5.53187c-0.82957,4.81142 -2.99725,10.25959 -5.1476,14.56029c-1.21418,4.956 -1.56338,9.93252 -2.93329,14.79792c-0.5722,2.03222 -1.67227,3.90437 -2.12576,5.96633c-1.27265,5.78666 -2.31729,12.10504 -5.05966,17.51296c-1.27929,2.52275 -4.55953,6.78918 -6.57362,8.80327c-2.00198,2.00198 -5.03408,3.15145 -6.68759,5.63281c-1.35113,2.02758 -1.84703,3.95352 -2.58767,6.19455l-5.6921,-1.89736c1.0303,-3.06803 1.47168,-4.89541 3.41232,-7.80545c1.88786,-2.8309 5.04449,-4.09927 7.31241,-6.36719c0.78091,-0.7809 1.11397,-1.91624 1.80129,-2.78065c1.18529,-1.49067 2.78679,-2.70603 3.62508,-4.41608c2.50903,-5.11822 3.41606,-10.92378 4.6374,-16.36643c0.7441,-3.31593 2.60539,-6.25033 3.08002,-9.68207c0.55255,-3.99512 1.1499,-7.68669 2.16387,-11.67428c1.96526,-3.93052 4.14686,-9.02864 4.85239,-13.43971c0.34554,-2.1604 0.44547,-4.38531 1.11522,-6.46813l-0.15395,-0.05132c0,0 0,-3 3,-3z" fill="#341f17" stroke-width="0.5"/><path d="M539.46994,341.13573c-2.68328,1.34164 -4.02492,-1.34164 -4.02492,-1.34164l-0.43804,-1.22032c-3.19567,-3.34489 -3.15475,-5.3568 -3.83994,-9.64077c-0.31373,-1.96149 -1.39648,-3.72535 -1.9191,-5.64178c-0.3016,-1.10598 -0.21579,-2.33622 -0.73024,-3.36067c-0.37534,-0.74743 -1.36062,-1.02709 -1.82313,-1.72397c-2.45654,-3.70136 -3.53905,-8.31903 -6,-12c-1.24084,-1.85598 -3.04724,-3.31344 -4.161,-5.24835c-1.9518,-3.39081 -2.71562,-5.70894 -4.1907,-9.39161c0,0 -1.11417,-2.78543 1.67126,-3.8996c2.78543,-1.11417 3.8996,1.67126 3.8996,1.67126c1.38811,3.47524 2.02075,5.45037 3.8093,8.60839c1.00346,1.7718 2.71134,3.05618 3.839,4.75165c2.45993,3.69861 3.53622,8.32154 6,12c0.58422,0.87225 1.70858,1.33645 2.17687,2.27603c1.17962,2.36681 2.87353,8.2302 3.35066,10.99755c0.57613,3.3415 -0.43481,3.95201 2.16006,6.35923l1.56196,2.77968c0,0 1.34164,2.68328 -1.34164,4.02492z" fill="#341f17" stroke-width="0.5"/><path d="M520.31466,376.49327c-1.0463,-2.79666 -1.17234,-6.82946 -2.7383,-9.46365c-1.12333,-1.88961 -3.28836,-2.93861 -4.71441,-4.61159c-3.19245,-3.74524 -6.56455,-9.31936 -8.50528,-13.81755c-1.18336,-2.74279 -0.91633,-5.90654 -1.21624,-8.87863c-0.36515,-3.6186 -1.31313,-7.15445 -1.96373,-10.73276c0,0 -0.53666,-2.95161 2.41495,-3.48827c2.95161,-0.53666 3.48827,2.41495 3.48827,2.41495c0.68273,3.75503 1.64599,7.47066 2.03627,11.26724c0.34192,3.32622 -0.62371,4.06814 0.78376,7.12137c1.82395,3.95669 4.62536,8.85636 7.49472,12.18245c0.17604,0.20406 4.99143,4.90093 5.28559,5.38841c1.867,3.094 2.01854,7.22958 3.2617,10.53635c2.05304,5.46102 -3.51369,7.73114 -5.6273,2.08168z" fill="#341f17" stroke-width="0.5"/></g></g></svg>