<svg version="1.1" xmlns="http://www.w3.org/2000/svg" xmlns:xlink="http://www.w3.org/1999/xlink" width="495.00885" height="248.50002" viewBox="0,0,495.00885,248.50002"><g transform="translate(7.5,-117.33332)"><g data-paper-data="{&quot;isPaintingLayer&quot;:true}" fill-rule="nonzero" stroke-linejoin="miter" stroke-miterlimit="10" stroke-dasharray="" stroke-dashoffset="0" style="mix-blend-mode: normal"><path d="M179.69213,259.60786c-0.10965,0.96877 -1.0883,0.87491 -1.0883,0.87491c-2.56405,-0.24777 -5.06652,-0.12167 -7.62614,-0.35784c-0.75205,-0.06939 -2.84501,-0.34606 -2.99743,-1.34754c-0.11198,-0.73578 0.7226,-1.33008 1.26463,-1.84009c0.45025,-0.42365 2.20566,-0.9611 2.82485,-1.26825c0.65313,-0.32398 1.24939,-0.70189 1.84159,-1.07665c-1.97259,-0.27794 -4.26416,-1.03985 -5.0136,-1.55404c-0.51005,-0.34996 -1.46405,-0.45163 -1.51768,-1.06787c-0.13863,-1.59319 1.46179,-1.92039 2.42791,-2.23986c2.28627,-0.75601 4.79027,-1.43963 7.22786,-2.01847c-0.04699,-0.0031 -0.08553,-0.00684 -0.11416,-0.01129c-2.52627,-0.39251 -4.90318,-1.20145 -7.21896,-2.20358l-0.00017,0.01394l-1.03095,-0.01288c-0.42748,0.00466 -0.82622,-0.26736 -0.96313,-0.69585c-0.16809,-0.52608 0.12212,-1.08883 0.6482,-1.25692c0.05954,-0.01902 0.11953,-0.03217 0.17939,-0.03979l0.98465,-0.14289c2.25757,-0.31919 4.85847,-0.333 7.02101,-1.03283c0.65286,-0.20663 3.24157,-1.07609 3.82986,-0.74126c1.33933,0.76227 1.26786,4.53106 0.8401,5.68306c-0.13764,0.37069 -0.34472,0.72161 -0.58966,1.05958c0.10195,0.12904 0.18588,0.26929 0.24231,0.42665c0.03249,0.09059 -0.64498,2.25323 -0.71477,2.56934c-0.26402,1.19581 -0.54196,2.72843 -0.3578,3.95478c0.13424,0.89399 0.96889,2.53547 0.5536,3.42807c-0.15314,0.32913 -0.37933,0.64079 -0.65315,0.89759zM176.07665,252.12932c0.0184,0.01185 0.03713,0.02398 0.05604,0.03633c-0.00529,-0.01833 -0.01024,-0.03699 -0.01489,-0.05593c-0.0137,0.00659 -0.0274,0.01312 -0.04116,0.0196z" fill="#d0d0d0" stroke="none" stroke-width="0.5" stroke-linecap="butt"/><path d="M179.52547,241.94119c-0.10965,0.96877 -1.0883,0.87491 -1.0883,0.87491c-2.56405,-0.24777 -5.06652,-0.12167 -7.62614,-0.35784c-0.75205,-0.06939 -2.84501,-0.34606 -2.99743,-1.34754c-0.11198,-0.73578 0.7226,-1.33008 1.26463,-1.84009c0.45025,-0.42365 2.20566,-0.9611 2.82485,-1.26825c0.65313,-0.32398 1.24939,-0.70189 1.84159,-1.07665c-1.97259,-0.27794 -4.26416,-1.03985 -5.0136,-1.55404c-0.51005,-0.34996 -1.46405,-0.45163 -1.51768,-1.06787c-0.13863,-1.59319 1.46179,-1.92039 2.42791,-2.23986c2.28627,-0.75601 4.79027,-1.43963 7.22786,-2.01847c-0.04699,-0.0031 -0.08553,-0.00684 -0.11416,-0.01129c-2.52627,-0.39251 -4.90318,-1.20145 -7.21896,-2.20358l-0.00017,0.01394l-1.03095,-0.01288c-0.42748,0.00466 -0.82622,-0.26736 -0.96313,-0.69585c-0.16809,-0.52608 0.12212,-1.08883 0.6482,-1.25692c0.05954,-0.01902 0.11953,-0.03217 0.17939,-0.03979l0.98465,-0.14289c2.25757,-0.31919 4.85847,-0.333 7.02101,-1.03283c0.65286,-0.20663 3.24157,-1.07609 3.82986,-0.74126c1.33933,0.76227 1.26786,4.53106 0.8401,5.68306c-0.13764,0.37069 -0.34472,0.72161 -0.58966,1.05958c0.10195,0.12904 0.18588,0.26929 0.24231,0.42665c0.03249,0.09059 -0.64498,2.25323 -0.71477,2.56934c-0.26402,1.19581 -0.54196,2.72842 -0.3578,3.95478c0.13424,0.89399 0.96889,2.53547 0.5536,3.42807c-0.15314,0.32913 -0.37933,0.64079 -0.65315,0.89759zM175.90998,234.46265c0.0184,0.01185 0.03713,0.02398 0.05604,0.03633c-0.00529,-0.01834 -0.01024,-0.03699 -0.01489,-0.05593c-0.0137,0.00659 -0.0274,0.01312 -0.04116,0.0196z" fill="#d0d0d0" stroke="none" stroke-width="0.5" stroke-linecap="butt"/><path d="M179.8588,224.44119c-0.10965,0.96877 -1.08829,0.87491 -1.08829,0.87491c-2.56405,-0.24777 -5.06653,-0.12167 -7.62614,-0.35784c-0.75204,-0.06939 -2.845,-0.34606 -2.99743,-1.34754c-0.11198,-0.73578 0.7226,-1.33008 1.26463,-1.84009c0.45025,-0.42365 2.20566,-0.96111 2.82485,-1.26825c0.65313,-0.32398 1.24938,-0.70189 1.84158,-1.07665c-1.97259,-0.27795 -4.26415,-1.03985 -5.01359,-1.55404c-0.51006,-0.34997 -1.46405,-0.45163 -1.51768,-1.06788c-0.13864,-1.59319 1.46178,-1.92039 2.42791,-2.23986c2.28627,-0.75602 4.79027,-1.43963 7.22786,-2.01847c-0.04699,-0.0031 -0.08553,-0.00684 -0.11416,-0.01129c-2.52627,-0.39251 -4.90318,-1.20145 -7.21896,-2.20358l-0.00017,0.01394l-1.03095,-0.01288c-0.42749,0.00467 -0.82622,-0.26736 -0.96313,-0.69585c-0.16809,-0.52608 0.12212,-1.08883 0.6482,-1.25692c0.05954,-0.01902 0.11953,-0.03218 0.17939,-0.03979l0.98465,-0.14289c2.25757,-0.31919 4.85846,-0.33301 7.02101,-1.03284c0.65286,-0.20663 3.24157,-1.07608 3.82986,-0.74125c1.33932,0.76227 1.26785,4.53105 0.84009,5.68305c-0.13764,0.37069 -0.34471,0.72161 -0.58966,1.05958c0.10195,0.12904 0.18588,0.26929 0.24231,0.42665c0.03249,0.09059 -0.64498,2.25324 -0.71477,2.56935c-0.26402,1.19581 -0.54196,2.72842 -0.3578,3.95478c0.13424,0.89399 0.96889,2.53547 0.55359,3.42807c-0.15314,0.32913 -0.37933,0.64079 -0.65315,0.89759zM176.24332,216.96266c0.0184,0.01185 0.03713,0.02398 0.05604,0.03633c-0.00529,-0.01833 -0.01025,-0.03699 -0.01489,-0.05593c-0.0137,0.00659 -0.0274,0.01313 -0.04116,0.0196z" fill="#d0d0d0" stroke="none" stroke-width="0.5" stroke-linecap="butt"/><path d="M300.04238,215.81117l-1.52697,-14.25176l64.42265,-6.68814l1.52697,14.25177z" fill="#a76634" stroke="none" stroke-width="0" stroke-linecap="butt"/><path d="M266.5,239.33334c0,0.44613 0.00988,0.91174 0.02531,1.39288l-3.09638,-1.46394c-0.48516,0.4977 -2.70615,2.49388 -3.61502,4.01767c-1.08325,-0.13293 -2.71376,0.94452 -3.91573,1.18252c-1.96191,0.38847 -4.0217,-0.29385 -6,0c-3.47558,0.51624 -7.17126,1.31533 -10.56046,2.38404c-1.86235,0.58725 -6.97217,2.32764 -8.09503,2.98032c-1.19492,0.69457 -1.99877,1.91541 -3.08258,2.77309c-2.94571,2.3311 -6.62184,4.25075 -9.80507,6.15849c0,0 -0.906,0.5436 -1.95231,1.5719c-4.66645,-0.02536 -9.18233,-0.18984 -13.82491,-1.15193c-1.51449,-0.31385 -2.93053,-0.12418 -4.35384,0.0735c-1.76168,2.08146 -4.72397,2.08146 -4.72397,2.08146h-3c-1.85931,0 -7.1646,0.08591 -8.2961,-0.45673c-10.28134,-4.9307 -5.7039,-17.09412 -5.7039,-25.54328c0,0 0,-0.38313 0.09681,-0.95576c-0.2918,-1.23619 -0.38443,-2.46332 0.00937,-3.63704c0.46813,-1.39525 1.09732,-2.72991 1.84179,-4.00881c0.14682,-1.37712 0.05203,-2.72368 0.05203,-4.39839v-1c0,0 0,-6 6,-6c2.65734,0 4.13778,1.17692 4.96254,2.48826c0.47393,-0.5461 0.77189,-1.36057 1.44526,-1.57481c2.13234,-0.67844 4.46845,-0.35814 6.67001,-0.75849c1.03708,-0.18859 1.95693,-0.84794 3,-1c1.97908,-0.28852 4.02968,0.34327 6,0c2.69008,-0.46866 5.86216,-2.00015 8.56714,-2.67639c2.4114,-0.72002 4.9505,-0.90989 7.43286,-1.32361c3.46954,-0.57826 3.64041,-2.43202 7.92219,-1.15495c1.71895,0.51269 3.87031,0.76568 5.93496,1.13298c1.33579,-1.14794 5.70162,-4.40919 10.86079,-3.07375c1.715,-1.22661 4.04331,-2.05924 7.20425,-2.05924c0.51207,0 1.00229,0.02185 1.47159,0.06369c1.10002,-1.26441 2.72087,-2.06369 4.52841,-2.06369c3.31371,0 6,2.68629 6,6c0,1.19735 -0.35073,2.3128 -0.95506,3.24919c0.95506,2.5305 0.95506,4.75081 0.95506,4.75081c0,6.59056 0.85548,14.41985 -0.022,21.61602c0.022,0.24132 0.022,0.38398 0.022,0.38398z" fill="#999999" stroke="none" stroke-width="0.5" stroke-linecap="butt"/><path d="M54.5,365.33334c-2.10168,-0.10326 -4.40963,0.47544 -6.2961,-0.45672c-2.21758,-1.09578 -3.49812,-3.49812 -5.24718,-5.24718c-0.30325,-4.18038 -0.45672,-8.13276 -0.45672,-12.2961c0,-2.46918 0.52081,-5.61735 0.07748,-8.03891c-1.1501,-6.28192 -2.07748,-12.45974 -2.07748,-18.96109c0,-1.97406 -0.08592,-6.96127 0.45672,-8.2961c0.63983,-1.57391 3.43747,-4.03042 4.90322,-5.50783c2.69196,-2.71337 4.35124,-7.19892 8.04883,-8.16687c7.9763,-2.08802 6.00942,5.83607 9.89417,7.96175c0.54241,0.2968 1.12522,0.51913 1.72957,0.68074c0.63325,-3.5228 4.51227,-4.49255 4.51227,-4.49255c2.51766,-0.62638 4.93286,-1.68824 7.49412,-2.10167c4.03627,-0.65152 9.00028,-0.22388 13.09735,-0.07593c12.0352,0.43462 24.06842,1.09153 36.09906,1.63932c5.11153,0.23274 12.80114,1.55624 17.86732,-0.33296l5.67729,4.81084c0.08642,-0.01415 0.17275,-0.02791 0.25899,-0.04126c1.97646,-0.30593 4.0327,0.36017 6,0c3.0256,-0.55393 5.965,-1.53023 9,-2c6.63264,-1.02663 14.24443,-0.07748 20.96109,-0.07748c3.35803,0 8.16894,-0.59625 11.2961,0.45672c0.89352,0.30086 1.12971,1.63738 2,2c0.54279,0.22616 1.11864,-0.3999 1.7039,-0.45672c0.99532,-0.09664 2,0 3,0c6.71708,0.25524 12.60136,-4.79215 19.03891,-5.92252c4.86898,-0.85495 10.16717,0.81528 15,0c2.07881,-0.35069 3.92422,-1.63178 6,-2c1.42776,-0.25327 3.04907,0.22161 4.32498,-0.46737c1.33525,-0.72102 2.4327,-1.95592 3.8974,-2.35266c3.58593,-0.97131 7.26237,0.4636 10.77761,-0.17997c2.06993,-0.37896 4.12377,-1.01132 6.22799,-1.03252c7.55321,-1.99508 13.35364,-6.13171 20.43033,-9.43485c3.88882,-1.81515 7.63033,-4.04526 11.66666,-6c4.86356,-2.35536 8.82952,-0.64552 13.67502,-1.53263c3.04882,-0.55818 6.28278,-0.94499 9.28357,-1.8382c3.39418,-1.0103 6.12779,-2.1618 9.71643,-2.1618c1.72234,-0.64227 3.37596,-1.17692 5.03127,-1.62275c0.25388,-0.87091 0.77396,-1.78414 1.68719,-2.69737c4.24264,-4.24264 8.48528,0 8.48528,0l0.00265,0.03465c1.0945,-0.63063 2.17697,-1.31458 3.37619,-1.6315c3.68419,-0.97364 9.69908,-0.33562 13.01463,1.4496c1.86514,1.00427 4.02624,1.94119 5.13213,3.74793c0.81678,1.3344 1.43921,2.74529 1.80068,4.14756c0.17003,-0.06973 0.34782,-0.13574 0.53371,-0.1977c5.6921,-1.89737 7.58947,3.79473 7.58947,3.79473c1.69786,5.18879 3.93747,6.89168 8.11183,10.25731c2.15551,1.73791 5.53356,2.88199 7.10056,5.18376c0.98515,1.44709 2.22875,7.54131 2.85623,9.77876c0.35047,1.24972 0.9783,2.43154 1.1618,3.71643c0.38759,2.71392 -0.86763,5.56858 -0.17997,8.22239c0.22333,0.86189 1.23963,1.31107 1.64734,2.1026c0.39417,0.76525 0.27102,1.74366 0.71401,2.48172c0.41383,0.68948 1.31753,0.97701 1.76355,1.64612c0.82682,1.2404 1.18905,2.74917 2,4c0.75809,1.16931 2.12453,1.93229 2.67582,3.21216c0.3956,0.91842 0,2 0,3c1.74184,1.27429 2.57404,3.55852 3.21744,5.61857c1.22912,3.93542 2.68223,8.50646 2.23928,12.67753c-0.23254,2.18971 0.25363,4.79729 -1.13255,6.50826c-1.6166,1.99539 -353.56415,6.75231 -358.86744,6.49176z" fill="#7d5342" stroke="none" stroke-width="0.5" stroke-linecap="butt"/><path d="M445.81914,219.6048c0.05588,-0.09284 0.11147,-0.18349 0.16691,-0.27227c-0.03286,-0.0001 -0.06571,-0.00022 -0.09856,-0.00034c-0.13878,0.04465 -0.27771,0.08881 -0.41679,0.13245c0.11614,0.04668 0.23228,0.0934 0.34843,0.14016zM445.99064,235.48231c-0.05221,0.00626 -0.10465,0.01138 -0.1573,0.0154c0.09959,0.15189 0.19795,0.30796 0.29499,0.46781c-0.04757,-0.16504 -0.09361,-0.32655 -0.13768,-0.48321zM397.22882,190.2487c0.98586,-0.96068 1.91422,-2.05646 3.02854,-3.15801c1.701,-1.6815 3.97622,-3.9176 5.13874,-5.91175c0.53087,-0.91065 0.44903,-2.10137 1,-3c1.04412,-1.70296 2.92324,-2.84102 3.79377,-4.63891c0.86737,-1.79135 1.29868,-3.79022 2.30109,-5.50965c3.43909,-5.89911 9.45938,-9.01817 15.85466,-10.80096c1.03593,-0.28878 0.48836,-2.13366 1.05048,-3.05048c1.79056,-2.92041 4.88028,-6.06597 7.29997,-8.48567c4.46942,-2.94882 8.84869,-4.42564 13.90657,-6.05205c3.55449,-1.14298 6.93302,-0.73771 9.65473,-3.55054c2.71483,-2.80573 4.60028,-6.64914 8.08825,-8.86126c0.89016,-0.56455 2.04296,-0.55819 3,-1c1.86059,-0.85893 3.55541,-3.72627 5.42627,-2.88993c4.37361,1.95515 7.58205,6.05515 10.36974,9.95129c0.39231,0.5483 0.3803,6.61647 0.35837,8.04255c-0.02625,1.70735 -1,130.55203 -1,137c0,2.80061 0.05618,5.60895 -0.0292,8.40877c-0.09551,3.1322 1.79351,7.09139 -0.33075,9.39516c-2.27933,2.47194 -6.57454,1.81275 -9.93615,1.73934c-0.94258,-0.02058 -1.13774,-1.61869 -2,-2c-0.52058,-0.23021 -1.10792,0.49616 -1.66499,0.37925c-1.79506,-0.37674 -3.57324,-0.9586 -5.19329,-1.81862c-0.83274,-0.44207 -1.19155,-1.51493 -2,-2c-0.90388,-0.54233 -2,-0.66667 -3,-1c-3.4436,-3.20225 -7.48615,-5.59018 -10.48567,-9.29997c-1.50902,-1.86635 -3.21703,-3.59874 -4.46385,-5.64955c-1.02532,-1.68648 -1.23484,-3.86651 -2.53615,-5.35045c-3.3523,-3.82278 -7.69467,-6.12831 -11,-10c-1.38583,-1.62328 -2.72614,-3.28745 -4,-5c-0.45138,-0.60683 -0.41299,-1.56118 -1.00191,-2.03569c-0.52684,-0.42449 -1.39737,-0.05959 -1.99415,-0.37835c-1.64034,-0.87615 -3.24508,-1.88044 -4.60653,-3.14725c-0.87987,-0.8187 -1.15592,-2.14445 -2,-3c-1.02563,-1.03956 -2.6144,-1.45949 -3.5256,-2.60068c-0.77675,-0.9728 -0.68905,-2.42382 -1.33566,-3.48758c-0.48972,-0.80565 -1.33333,-1.33333 -2,-2c-0.04625,-0.63725 0.16599,-1.35017 -0.13874,-1.91175c-0.12625,-0.23267 -0.39296,0.48889 -0.65473,0.44946c-1.04233,-0.15701 -2,-0.66667 -3,-1c-4.03177,-1.34392 -7.4859,-2.32391 -10.90657,-5.05205c-2.52998,-2.01777 -4.91542,-5.25398 -6.83612,-7.83612c-0.45138,-0.60683 -0.40218,-1.57493 -1.00191,-2.03569c-0.68693,-0.52776 -1.77159,-0.21538 -2.51242,-0.66434c-1.03142,-0.62505 -1.70535,-1.71351 -2.64955,-2.46385c-1.72756,-1.37289 -3.74778,-2.3388 -5.52427,-3.64775c-0.50572,-0.37262 -0.8096,-1.06669 -1.4105,-1.24975c-0.63954,-0.19483 -1.33279,0.30871 -1.99439,0.21249c-4.26083,-0.61964 -6.48445,-1.79092 -10.49524,-3.38419c0,0 -5.57086,-2.22834 -3.34252,-7.7992c2.22834,-5.57086 7.7992,-3.34252 7.7992,-3.34252c0.35863,0.1446 0.74342,0.30645 1.14709,0.47711c0.64694,-1.7372 2.07567,-3.09381 3.85845,-3.6421l2.86874,-0.95625c0.08778,-0.02744 0.17536,-0.05571 0.26278,-0.08464c1.30198,-1.04691 2.67416,-2.05347 4.20727,-2.71035c2.63102,-1.1273 5.64326,-0.96226 8.46623,-1.43544c1.87778,-0.31475 3.80167,-1.02176 5.68991,-1.16211z" fill="#999999" stroke="none" stroke-width="0.5" stroke-linecap="butt"/><path d="M-2.5,299v-103l18,9v94z" fill="#825c39" stroke="none" stroke-width="0" stroke-linecap="butt"/><path d="M-7.5,365.83334v-73.33333h56v73.33333z" data-paper-data="{&quot;index&quot;:null}" fill="#838383" stroke="none" stroke-width="0" stroke-linecap="butt"/><path d="M-2.75,196.22794v-4l22.5,10.75v4z" fill="#3d3d3d" stroke="none" stroke-width="0" stroke-linecap="butt"/><path d="M374.18328,276.6999c-5.36656,2.68328 -8.04984,-2.68328 -8.04984,-2.68328l1.03836,0.30902c-0.71108,-0.63004 -1.74095,-1.1823 -2.6718,-0.9923c-5.17147,0 -10.39421,0.70313 -15.15439,-1.8961c-1.70289,-0.92984 -2.77739,-2.78684 -4.48172,-3.71401c-0.24041,-0.13078 -0.53356,-0.16111 -0.84663,-0.14654c-0.97981,3.08833 -3.58063,6.03359 -6.22116,7.29993c-2.27276,1.08997 -8.53928,0.62328 -11.2961,0.45672c-0.42832,-0.02588 -0.86471,-0.42131 -1.2613,-0.25745c-0.82288,0.34 -1.31227,1.2373 -2.1026,1.64734c-0.93566,0.48544 -2.04443,0.55503 -3,1c-1.63099,0.75949 -2.62148,2.49378 -4.12785,3.47756c-1.63515,1.06788 -3.47477,1.78388 -5.21216,2.67582c-2.82351,0.95439 -9.52848,3.27332 -11.2961,3.45672c-1.36103,0.14122 -2.61137,-0.85252 -3.96109,-1.07748c-2.3905,-0.39842 -6.65764,0.11861 -8.70478,1.41263c-7.44167,4.70397 -7.32062,7.14913 -14.37304,8.58737c-0.97983,0.19982 -2.01361,-0.1644 -3,0c-1.03975,0.17329 -1.94604,1.01681 -3,1c-0.38267,-0.0061 -0.35374,-1.42473 -0.45283,-1.05507c-0.15479,0.57743 0.65548,1.32622 0.25998,1.77451c-2.41794,2.74066 -6.24575,4.61658 -9.80715,5.28056c-0.58685,0.10941 -7.33534,0.09719 -7.92219,0c-2.07986,-0.34445 -3.92119,-1.64931 -6,-2c-1.65643,-0.27943 -3.35907,0.07748 -5.03891,0.07748c-1.18873,-0.24264 -2.28089,0.84303 -3.36389,1.38989c-1.88188,0.95024 -4.11696,1.05204 -6,2c-4.02668,2.0271 -6.6923,5.07097 -11.25759,6.4496c-1.09083,0.32941 -2.29383,-0.10659 -3.41742,0.08303c-1.03939,0.17541 -1.95831,0.83876 -3,1c-4.1374,0.64041 -7.70615,-0.36347 -11.69419,-0.96748c-1.322,-0.20022 -2.73384,0.2003 -4.00561,-0.21249c-2.65751,-0.86257 -2.97274,-2.38245 -5.22239,-2.82003c-1.71882,-0.33433 -4.66182,1.27634 -6.14154,1.76958c-3.41781,1.13927 -6.308,2.23042 -9.93627,2.23042c-7.37247,2.45749 -14.99898,-0.23352 -21.5972,-3.53263c-2.83693,-1.41846 -7.06338,-4.68544 -10.62519,-3.64734c-1.57253,0.45832 -2.18473,2.51045 -3.58432,3.36135c-1.06694,0.64866 -2.4033,0.7239 -3.51828,1.28599c-1.07319,0.54102 -1.92076,1.47114 -3,2c-1.00973,0.4948 -7.67491,2.58573 -8.40585,2.60569c-1.68979,0.04614 -3.28874,-0.80995 -4.96336,-1.04053c-2.88736,-0.39758 -6.37503,0.04495 -9.2669,0.04495c-4.90972,-0.09603 -7.4235,-1.45003 -11.63611,-3.61011c-2.65416,-1.36096 -5.37674,-1.16212 -7.3815,-3.499c-0.00232,0.01308 -0.00909,0.02387 -0.0213,0.03163c-0.61952,0.39397 -1.37031,0.52833 -2.06373,0.76958c-1.06805,0.37158 -2.1326,0.75763 -3.21984,1.06862c-0.58789,0.16816 -8.61721,2.15604 -8.94443,2.19432c-2.57019,0.3007 -5.14482,-0.58868 -7.69419,-1.03252c-1.24195,-0.21622 -2.57913,0.21097 -3.77761,-0.17997c-1.37013,-0.44693 -2.36452,-1.68646 -3.68862,-2.25547c-2.84641,-1.22319 -6.47952,-1.79814 -9.47005,-2.79499c0,0 -5.6921,-1.89737 -3.79473,-7.58947c1.89737,-5.6921 7.58947,-3.79473 7.58947,-3.79473c3.32555,1.10852 7.36943,1.8541 10.52995,3.20501c0.8876,0.37939 1.39891,1.42965 2.31138,1.74453c0.70256,0.24245 1.48816,-0.29526 2.22239,-0.17997c2.3493,0.36889 2.38563,1.3438 4.30581,0.96748c6.34645,-1.2438 13.4722,-5.61574 20.0292,-3.58823c1.19667,0.37002 1.79356,1.77961 2.85829,2.43937c1.62738,1.0084 3.76256,0.87157 5.48172,1.71401c2.03477,0.99711 4.09958,2.47593 6.36389,2.38989c3.36956,0 7.39188,-0.45078 10.7331,0.04495c1.05004,0.15579 1.97702,0.8957 3.03664,0.95947c1.89244,0.11388 5.2089,-2.70847 6.59415,-3.39431c0.77143,-0.38194 1.73943,-0.27816 2.48172,-0.71401c2.27568,-1.33623 3.91924,-3.78308 6.41568,-4.63865c0.71327,-0.24445 7.61853,-0.35904 8.6998,-0.17997c9.07271,1.50255 15.74953,10.10943 25.07781,7c6.9057,0 12.81719,-5.13464 19.92219,-4c1.61942,0.25862 3.19036,0.83605 4.67502,1.53263c0.80605,0.37819 1.26228,1.35304 2.1026,1.64734c0.63098,0.22098 1.33153,-0.29958 1.99439,-0.21249c2.71996,0.35733 5.46486,1.55264 8.30581,1.03252c1.03686,-0.18983 1.95985,-0.82915 3,-1c0.84991,-0.1396 1.74817,0.29661 2.58258,0.08303c3.0769,-0.7876 5.96987,-4.16996 8.74241,-5.5504c1.8872,-0.93963 4.11085,-1.06428 6,-2c1.35982,-0.67353 2.44481,-1.91364 3.8974,-2.35266c1.51425,-0.45765 3.15914,-0.17163 4.7387,-0.25745c1.00776,0 6.3752,-0.01956 6.96109,0.07748c3.73475,0.61852 6.19678,2.44983 10.07781,2c0.76417,-0.08857 1.75231,-0.08879 2.19285,-0.71944c0.91473,-1.30944 0.9369,-3.3306 2.25998,-4.22549c1.55907,-1.05452 3.71712,-0.61506 5.54717,-1.05507c1.02488,-0.24642 1.96025,-0.82671 3,-1c1.17493,-0.19582 3.01706,0.40512 4.2156,-0.41248c3.33969,-2.27821 6.35591,-5.03379 9.82103,-7.11627c4.13976,-2.48793 11.19063,-3.25373 15.88556,-2.47125c0.73582,0.12264 1.29873,1.01527 2.03891,0.92252c2.37149,-0.29716 4.43238,-1.8 6.7039,-2.54328c3.39895,-1.61444 5.23216,-4.05335 8.65999,-5.84661c0.934,-0.48862 2.05197,-0.53919 3,-1c1.36479,-0.66339 2.44481,-1.91364 3.8974,-2.35266c1.03132,-0.3117 6.13166,-0.25745 7.7387,-0.25745c1,0 2.00752,-0.12238 3,0c0.0266,0.00328 0.05488,0.00758 0.08424,0.01291c0.53977,-2.09292 0.0695,-4.81074 1.67312,-6.25555c1.84565,-1.66287 4.78584,-1.38899 7.24264,-1.75736c5.95363,-0.89269 9.93253,2.53466 14.15439,5.8961c0.74255,0.59122 1.89656,0.1185 2.84561,0.1039c1.99976,-0.03075 4,0 6,0c1.57957,0.08582 3.23313,-0.22799 4.7387,0.25745c1.69743,0.5473 3.05966,1.8335 4.5895,2.75025l3.03836,4.30902c0,0 2.68328,5.36656 -2.68328,8.04984z" fill="#b4d0df" stroke="none" stroke-width="0.5" stroke-linecap="butt"/><path d="M485.5,123.33334c0,6 -6,6 -6,6l-2.03891,-0.07748c-3.02243,1.13322 -9.63103,3.60453 -10.65815,4.08652c-1.75899,0.82544 -2.45694,3.13893 -4.14856,4.09486c-1.59684,0.90237 -3.4622,1.21241 -5.19329,1.81862c-2.02759,0 -3.99013,0.73255 -6,1c-0.56424,0.07508 -1.10541,-0.48349 -1.66499,-0.37925c-0.22985,0.04282 0.09312,0.51722 -0.05346,0.69936c-0.71468,0.88807 -1.5499,1.68365 -2.43871,2.39741c-1.09077,0.87596 -2.2935,1.60431 -3.47573,2.35225c-1.50718,0.95353 -2.90625,2.16076 -4.5895,2.75025c-1.28886,0.45137 -3.24335,-1.04043 -4.09674,0.02569c-0.96821,1.20955 -0.68935,3.08995 -1.53806,4.38615c-2.95995,4.52061 -8.69449,6.69708 -12,11c-1.05029,1.36721 0.13945,3.56619 -0.56063,5.14171c-1.64387,3.69952 -5.75429,6.59627 -9.38889,7.8078c-1.29349,1.47136 -4.3116,2.55036 -5.05048,4.05048c-1.91048,3.87878 -1.45761,6.45955 -5.29997,9.48567c-1.55547,1.22504 -3.19221,2.46059 -5.06523,3.1025c-0.30731,0.10532 -6.58982,-0.40262 -7.58432,0.36135c-3.06522,2.35471 -5.1016,6.91219 -8.85829,8.43937c-3.86248,1.57019 -11.11928,0.45672 -15.2961,0.45672c0,0 -6,0 -6,-6c0,-6 6,-6 6,-6c2.33333,0 4.66667,0 7,0c1,0 2.00752,-0.12238 3,0c0.27759,0.03423 0.43754,0.54206 0.7039,0.45672c0.22265,-0.07133 -0.08809,-0.51328 0.05346,-0.69936c0.57082,-0.75037 1.33333,-1.33333 2,-2c0.88205,-0.88205 4.44944,-4.50027 5.08825,-4.86126c1.59684,-0.90237 3.39724,-1.44661 5.19329,-1.81862c1.77208,-0.36704 5.71368,1.08975 6.85719,-1.23186c0.93152,-1.89122 0.87457,-4.21735 2,-6c2.10801,-3.33902 6.1125,-5.31134 8.94952,-7.94952c1.40982,-0.46994 2.71716,-1.25476 3.91175,-2.13874c0.18794,-0.13907 0.65655,0.17639 0.69936,-0.05346c0.10424,-0.55959 -0.49616,-1.10792 -0.37925,-1.66499c1.05445,-5.02422 1.51159,-4.99055 4.67988,-8.28155c1.77141,-1.84001 3.45258,-3.79155 5.43871,-5.39741c1.15956,-0.93755 3.06357,-1.16582 3.70003,-2.51433c1.25555,-2.66024 2.13432,-5.81511 4.46194,-7.61385c1.60247,-1.23836 3.71604,-1.66345 5.68087,-2.15428c0.72106,-0.18013 1.50944,0.38992 2.22239,0.17997c0.60259,-0.17744 0.90468,-0.87727 1.4105,-1.24975c2.1799,-1.60524 5.84704,-5.58005 8.0321,-6.55098c1.32555,-0.58901 2.90947,-0.11119 4.33501,-0.37925c1.99267,-0.37469 3.97241,-1 6,-1c1.92371,-0.43253 2.91274,-3.17666 4.65815,-4.08652c5.90667,-3.07907 9.73001,-4.15084 15.34185,-5.91348l3.96109,-0.07748c0,0 6,0 6,6z" fill="#b3cedd" stroke="none" stroke-width="0.5" stroke-linecap="butt"/><path d="M180.25736,208.0907c4.24264,-4.24264 8.48528,0 8.48528,0l-1.31368,-0.4389c3.38914,1.13491 7.51121,3.34655 11.03213,3.75902c2.32307,0.27214 5.32015,-1.16675 7.19314,-0.05807l1.44931,-0.96621c0.96573,-0.66434 2.13568,-1.0532 3.39646,-1.0532c0.24871,0 0.49389,0.01513 0.73466,0.04453c1.14293,-0.67829 2.266,-1.40608 3.52663,-1.78708c0.76436,-0.23102 7.91061,0.61779 8.97046,-0.89941c0.91473,-1.30944 0.89701,-3.39262 2.25998,-4.22549c1.98432,-1.21257 6.80809,-1.17406 9.50826,-1.13255c0.1034,0.00159 2.2713,0.26166 2.84561,-0.1039c1.31114,-0.83459 2.24069,-2.49303 3.77587,-2.73559c1.53973,-0.24328 7.11987,1.25816 9.27588,2.14739c0.40117,0.16546 0.66985,0.72384 1.10263,0.6921c0.74397,-0.05457 1.30084,-0.81427 2.03891,-0.92252c0.5765,-0.08456 1.67404,0.26086 1.71845,-0.32012c0,0 4.24264,-4.24264 8.48528,0c4.24264,4.24264 0,8.48528 0,8.48528c-1.31551,1.10021 -2.37935,2.60426 -3.94654,3.30064c-1.32555,0.58901 -2.90634,0.12839 -4.33501,0.37925c-1.34772,0.23665 -2.59322,1.11306 -3.96109,1.07748c-1.6891,-0.04394 -3.27553,-0.83394 -4.89737,-1.3079c-0.9358,-0.27348 -1.96128,-0.38944 -2.79966,-0.87433c-0.87078,2.71496 -7.35609,2.16056 -9.30297,2.18223c-0.60338,0.00672 -1.23944,0.15599 -1.84906,0.18242c-0.10976,0.14123 -0.23679,0.29416 -0.3827,0.45954c-1.40144,1.58848 -3.26699,2.74366 -5.13213,3.74793c-1.44394,0.77747 -3.06285,1.23206 -4.67502,1.53263c-1.71232,0.31924 -3.61256,-0.84512 -5.22239,-0.17997c-0.82288,0.34 -1.30781,1.24602 -2.1026,1.64734c-1.17802,0.59483 -2.49249,0.86814 -3.73874,1.30221l-0.8703,0.2901c-0.22155,0.20516 -0.46427,0.39295 -0.73096,0.56108c-7.23958,4.56395 -19.75785,-1.37264 -27.19347,-3.85118l-3.34527,-2.44946c0,0 -4.24264,-4.24264 0,-8.48528z" fill="#b4d0df" stroke="none" stroke-width="0.5" stroke-linecap="butt"/><path d="" fill="#999999" stroke="none" stroke-width="0.5" stroke-linecap="butt"/><path d="M357.59901,200.19672l0.80788,5.65517" fill="none" stroke="#814e28" stroke-width="1.5" stroke-linecap="round"/><path d="M357.69999,203.22628l-2.12069,0.20197" fill="none" stroke="#814e28" stroke-width="1.5" stroke-linecap="round"/><path d="M354.97339,200.39869l0.50493,5.75616" fill="none" stroke="#814e28" stroke-width="1.5" stroke-linecap="round"/><path d="M351.33793,206.86175l0.80788,-5.75616l1.81773,5.4532" fill="none" stroke="#814e28" stroke-width="1.5" stroke-linecap="round"/><path d="M347.19753,201.40854l1.81773,-0.40394l0.80788,6.1601" fill="none" stroke="#814e28" stroke-width="1.5" stroke-linecap="round"/><path d="M345.37979,201.81248l0.50493,5.25123l-2.42365,0.20197" fill="none" stroke="#814e28" stroke-width="1.5" stroke-linecap="round"/><path d="M345.37979,204.33711l-2.0197,0.10099l-0.50493,-2.0197" fill="none" stroke="#814e28" stroke-width="1.5" stroke-linecap="round"/><path d="M341.03743,202.11544l0.7069,5.35222" fill="none" stroke="#814e28" stroke-width="1.5" stroke-linecap="round"/><path d="M337.90688,208.17456l0.7069,-5.75616l1.71675,5.25123" fill="none" stroke="#814e28" stroke-width="1.5" stroke-linecap="round"/><path d="M332.98279,203.07452l0.66667,4.83333" fill="none" stroke="#814e28" stroke-width="1.5" stroke-linecap="round"/><path d="M330.81613,204.40786l2.16667,1.66667l-2,1.83333" fill="none" stroke="#814e28" stroke-width="1.5" stroke-linecap="round"/><path d="M328.46799,206.72726c-0.06854,-0.16725 -0.06854,-0.31941 -0.06854,-0.31941c0,-0.44454 0.25066,-0.92113 0.07918,-1.33126c-0.22729,-0.54362 -1.18868,-0.56709 -1.25938,0.13975c-0.05393,0.53921 0.41044,3.36329 0.99687,1.90817l-0.15,0.28333c0,0 0,-0.49478 0.40187,-0.68059zM329.49759,207.08845c0.06854,0.16725 0.06854,0.31941 0.06854,0.31941l-0.15,0.61667c-2.20775,2.43308 -4.27784,-0.67616 -3.6698,-3.09183c0.48711,-1.93521 3.06455,-2.43866 4.07395,-0.52691c0.09796,0.18552 0.07918,1.67488 0.07918,2.00208c0,0 0,0.49478 -0.40187,0.68059z" fill="#814e28" stroke="none" stroke-width="0.5" stroke-linecap="butt"/><path d="M321.64945,209.74119l-1,-5.16667l2.16667,1.66667l1.16667,-2l0.66667,4.66667" fill="none" stroke="#814e28" stroke-width="1.5" stroke-linecap="round"/><path d="M310.30133,209.89393c-0.06853,-0.16725 -0.06853,-0.3194 -0.06853,-0.3194c0,-0.44454 0.25066,-0.92112 0.07918,-1.33125c-0.2273,-0.54362 -1.18867,-0.5671 -1.25938,0.13975c-0.05394,0.53921 0.41043,3.36329 0.99686,1.90817l-0.15,0.28333c0,0 0,-0.49478 0.40187,-0.6806zM311.33092,210.25512c0.06853,0.16725 0.06853,0.31941 0.06853,0.31941l-0.15,0.61667c-2.20775,2.43308 -4.27785,-0.67617 -3.6698,-3.09183c0.48711,-1.9352 3.06455,-2.43866 4.07396,-0.52692c0.09796,0.18552 0.07918,1.67488 0.07918,2.00208c0,0 0,0.49478 -0.40187,0.68059z" fill="#814e28" stroke="none" stroke-width="0.5" stroke-linecap="butt"/><path d="M313.98279,207.74119l-2.5,-1.33333l2.66667,-1.66667l0.33333,6" fill="none" stroke="#814e28" stroke-width="1.5" stroke-linecap="round"/><path d="M316.50459,210.19508l0.80788,-5.75616l1.81773,5.4532" fill="none" stroke="#814e28" stroke-width="1.5" stroke-linecap="round"/><path d="M303.40688,211.50789l2.04023,-5.75616l1.71675,5.25123" fill="none" stroke="#814e28" stroke-width="1.5" stroke-linecap="round"/><path d="M305.31613,210.57452l-2.16667,-1.5" fill="none" stroke="#814e28" stroke-width="1.5" stroke-linecap="round"/><path d="M133.57991,356.78485c-4.26907,1.42302 -5.6921,-2.84605 -5.6921,-2.84605l-0.55885,-2.05724c-1.95063,-1.78619 -2.94737,-4.27751 -5.02502,-5.88575c-3.83125,-2.96563 -8.49258,-4.79239 -11.62709,-8.62709c-4.10206,-5.01838 -7.01136,-9.99609 -11.70194,-14.67097c0,0 -3.18198,-3.18198 0,-6.36396c3.18198,-3.18198 6.36396,0 6.36396,0c4.88169,4.89668 8.1479,9.96749 12.29806,15.32903c2.52944,3.26774 7.22357,4.79862 10.37291,7.37291c2.80862,2.29579 4.50117,5.4937 6.97498,8.11425l1.44115,3.94276c0,0 1.42302,4.26908 -2.84605,5.6921z" fill="#5c3d31" stroke="none" stroke-width="0.5" stroke-linecap="butt"/><path d="M196.15689,359.01577c-1.86032,0 -2.95157,-0.76906 -3.5917,-1.67132c-1.40082,-0.14326 -2.83805,-0.1492 -4.13038,-0.67122c-1.1869,-0.47942 -1.83698,-1.8075 -2.90912,-2.50687c-1.24856,-0.81444 -2.76853,-1.15995 -4,-2c-2.53812,-1.73138 -2.1142,-2.49114 -4.22176,-4.17055c-1.87986,-1.49797 -4.12689,-2.4936 -6,-4c-0.58188,-0.46796 -0.86907,-1.27378 -1.51284,-1.65211c-0.90878,-0.53407 -2.10688,-0.44013 -3,-1c-0.35691,-0.22373 -4.66687,-4.41237 -5.11425,-4.97498c-2.54018,-3.19446 -4.00216,-6.9829 -6.26418,-10.35679c0,0 -2.49615,-3.74423 1.24808,-6.24038c3.74423,-2.49615 6.24038,1.24807 6.24038,1.24807c2.06029,3.10548 3.40149,6.75061 5.73581,9.6432c0.87518,1.08448 1.67123,2.34166 2.88575,3.02502c0.91866,0.51689 2.10017,0.45099 3,1c0.97325,0.59382 1.59515,1.63786 2.48716,2.34789c1.88065,1.49698 4.12521,2.49569 6,4c1.39862,1.12223 2.27342,2.85424 3.77825,3.82945c1.25099,0.81071 2.77082,1.15659 4,2c0.50825,0.34874 0.51685,1.26857 1.09088,1.49313c0.62671,0.24518 1.33381,-0.38805 1.99874,-0.28444c1.27908,0.19932 2.46814,0.78188 3.70221,1.17282l3.07697,5.26907c0,0 0,4.5 -4.5,4.5z" fill="#5c3d31" stroke="none" stroke-width="0.5" stroke-linecap="butt"/><path d="M270.33887,354.69776c-3.18198,3.18198 -6.36396,0 -6.36396,0l0.75896,0.08709c-3.50799,-1.17365 -7.71489,-1.59531 -10.94276,-3.44115c-0.81844,-0.46802 -1.19155,-1.51493 -2,-2c-0.90387,-0.54233 -2.09613,-0.45767 -3,-1c-0.80845,-0.48507 -1.19953,-1.50187 -2,-2c-2.30085,-1.43183 -5.21016,-1.58425 -7.63384,-2.79662c-1.89899,-0.94991 -3.69822,-2.09447 -5.46774,-3.26806c-3.52373,-2.33702 -7.14673,-4.56509 -10.38558,-7.28322c-1.42612,-1.19683 -2.77341,-2.72289 -4.57008,-3.21096c0,0 -4.26907,-1.42303 -2.84605,-5.6921c1.42302,-4.26907 5.6921,-2.84605 5.6921,-2.84605c6.19081,2.26285 11.51805,7.80074 17.04434,11.50582c4.12734,2.76715 8.75381,3.51501 12.89842,5.93533c0.81415,0.47544 1.19155,1.51493 2,2c0.90387,0.54233 2.09613,0.45767 3,1c0.80845,0.48507 1.20741,1.48942 2,2c2.30237,1.48314 6.3986,1.67557 9.05723,2.55885l2.75896,2.08709c0,0 3.18198,3.18198 0,6.36396z" fill="#5c3d31" stroke="none" stroke-width="0.5" stroke-linecap="butt"/><path d="M370.15689,358.01577c-2.89405,0 -3.92687,-1.86123 -4.29546,-3.18969c-1.42649,-1.20443 -2.83614,-2.44202 -4.52503,-3.195c-3.66748,-1.63511 -6.75655,-0.00076 -10.5453,-2.28738c-1.21079,-0.73075 -1.82331,-2.21553 -3,-3c-0.87706,-0.5847 -2.09749,-0.4554 -3,-1c-2.02243,-1.22041 -3.76734,-2.90543 -5.89288,-3.93583c-3.14934,-2.0894 -6.64686,-4.04708 -9.59428,-6.41206c-0.85066,-0.68255 -1.61622,-1.47259 -2.32903,-2.29806c-0.25232,-0.29219 -0.16836,-0.92033 -0.54009,-1.02452c-0.8301,-0.23266 -1.76739,0.43176 -2.58195,0.14945c-5.72176,-1.98297 -10.06439,-6.82896 -15.51647,-9.1916c-9.1554,-3.96747 -19.34254,-3.7254 -28.19197,-8.09039c0,0 -4.02492,-2.01247 -2.01246,-6.03739c2.01246,-4.02492 6.03739,-2.01246 6.03739,-2.01246c3.7773,1.92062 5.57302,1.96939 9.53736,2.55864c4.68301,0.69607 9.22087,2.7846 13.70832,4.14574c1.50523,0.45657 3.11455,0.59037 4.56235,1.20523c1.15864,0.49205 2.03171,1.50792 3.15659,2.0729c1.07227,0.53855 2.35973,0.59722 3.38871,1.21449c0.89816,0.53879 1.39444,1.59562 2.26541,2.17734c1.11743,0.74633 2.46985,1.07617 3.62748,1.75849c0.74309,0.438 1.22322,1.32416 2.04535,1.58519c1.08697,0.34512 2.37975,-0.32229 3.41805,0.14945c2.63998,1.19945 3.13783,3.08926 5.13088,4.67742c2.58866,2.06278 5.65374,3.74287 8.40573,5.58794c1.45751,0.74717 3.00899,1.33411 4.37252,2.24151c0.69823,0.46466 1.01419,1.39317 1.73459,1.82266c0.9054,0.53978 2.12294,0.4153 3,1c1.17669,0.78447 1.88353,2.13195 3,3c0.90785,0.70585 3.60443,0.26672 4.18403,0.36165c1.78983,0.29314 3.59796,0.6499 5.27067,1.35097c1.6295,0.68297 6.66107,4.60213 7.8795,5.51531l1.8,4.6c0,0 0,4.5 -4.5,4.5z" fill="#5c3d31" stroke="none" stroke-width="0.5" stroke-linecap="butt"/><path d="M397.15689,336.01577c-4.5,0 -4.5,-4.5 -4.5,-4.5l1.31802,1.18198c-0.66667,-0.66667 -1.33333,-1.33333 -2,-2c-1.54894,-1.56982 -3.34722,-5.39693 -5.18381,-6.35405c-0.93477,-0.48714 -2.10688,-0.44013 -3,-1c-2.26114,-1.41742 -3.74124,-4.72658 -6,-6c-0.79179,-0.44639 -1.79928,-0.37705 -2.61129,-0.78551c-3.20509,-1.61223 -7.07621,-4.31081 -9.87587,-6.56238c-0.58188,-0.46796 -0.87802,-1.25896 -1.51284,-1.65211c-2.8313,-1.75344 -6.87941,-2.16354 -9.89288,-3.93583c-3.74781,-2.20418 -4.99135,-4.83151 -7.92331,-7.71012c0,0 -3.18198,-3.18198 0,-6.36396c3.18198,-3.18198 6.36396,0 6.36396,0c1.4991,1.5193 2.52671,3.45567 4,5c3.13344,3.28454 8.50241,3.18467 12.18381,5.35405c3.66787,2.16141 6.67363,5.82911 10.61129,7.78551c1.07459,0.53391 2.36988,0.58061 3.38871,1.21449c2.26909,1.41174 3.73826,4.72742 6,6c0.91866,0.51689 2.11625,0.42546 3,1c2.99232,1.94536 4.34679,5.22148 6.81619,7.64595c0.66667,0.66667 1.33333,1.33333 2,2l1.31802,5.18198c0,0 0,4.5 -4.5,4.5z" fill="#5c3d31" stroke="none" stroke-width="0.5" stroke-linecap="butt"/><path d="M422.97491,218.69775c-3.18198,-3.18198 0,-6.36396 0,-6.36396l1.70194,-1.67097c0.39104,-0.48369 1.01461,-0.84963 1.17313,-1.45108c0.25486,-0.96698 -0.31874,-2.05216 0,-3c0.43994,-1.30827 1.60468,-2.26416 2.19048,-3.51394c1.76099,-3.75699 2.41654,-7.99313 4.35964,-11.65924c0.26427,-0.49861 4.97747,-5.10066 5.39099,-5.35072c1.80401,-1.09087 4.18445,-0.92844 6,-2c3.8033,-2.24476 6.32816,-8.03788 8.53786,-11.53786c2.13735,-3.38538 4.91853,-5.83336 7.0837,-9.13036c0,0 2.49615,-3.74423 6.24038,-1.24808c3.74423,2.49615 1.24808,6.24038 1.24808,6.24038c-2.12369,3.1485 -4.92374,5.6461 -6.9163,8.86964c-2.62628,4.24876 -5.00117,8.27067 -8.64595,11.81619c-0.92328,0.89814 -1.71397,1.97945 -2.81619,2.64595c-2.74051,1.65716 -6.95759,1.31829 -8.60901,4.64928c-1.62316,3.274 -2.07762,7.03749 -3.64036,10.34076c-0.43832,0.92651 -1.48846,1.51269 -1.80952,2.48606c-0.31324,0.94967 0.35069,2.06351 0,3c-0.62607,1.67187 -1.88458,3.03261 -2.82687,4.54892l-2.29806,2.32903c0,0 -3.18198,3.18198 -6.36396,0z" fill="#6c6c6c" stroke="none" stroke-width="0.5" stroke-linecap="butt"/><path d="M448.73386,252.78485c-4.26907,-1.42302 -2.84605,-5.6921 -2.84605,-5.6921l0.82718,-2.2978c-0.11966,-4.69347 0.1739,-9.43104 2.61396,-13.64497c0.47244,-0.8159 1.51252,-1.193 2,-2c0.46998,-0.77803 0.37222,-1.80172 0.78551,-2.61129c0.43996,-0.86182 1.3891,-1.42345 1.7355,-2.32695c0.6801,-1.77384 -0.19309,-3.79622 -0.19309,-5.69597c0,0 0,-4.5 4.5,-4.5c4.5,0 4.5,4.5 4.5,4.5c0,0.96544 0.05976,7.48333 -0.19309,8.30403c-0.42348,1.37458 -1.62885,2.3828 -2.2645,3.67305c-0.53028,1.07639 -0.59977,2.35821 -1.21449,3.38871c-0.483,0.80969 -1.49705,1.20255 -2,2c-1.8283,2.89889 -1.336,7.15132 -1.38604,10.35503l-1.17282,3.7022c0,0 -1.42302,4.26907 -5.6921,2.84605z" fill="#6c6c6c" stroke="none" stroke-width="0.5" stroke-linecap="butt"/></g></g></svg>