<svg version="1.1" xmlns="http://www.w3.org/2000/svg" xmlns:xlink="http://www.w3.org/1999/xlink" width="187.83772" height="194.29583" viewBox="0,0,187.83772,194.29583"><g transform="translate(-298.65522,-171.50814)"><g data-paper-data="{&quot;isPaintingLayer&quot;:true}" fill-rule="nonzero" stroke="none" stroke-width="0.5" stroke-linecap="butt" stroke-linejoin="miter" stroke-miterlimit="10" stroke-dasharray="" stroke-dashoffset="0" style="mix-blend-mode: normal"><path d="M437.04734,336.43741c-0.15757,-1.05794 -0.37086,-2.11702 0.00922,-3.07881c0.60358,-1.52733 2.28558,-2.3611 3.36221,-3.60123c2.53182,-2.91631 3.87247,-6.6389 6.79429,-9.27516c2.34477,-2.11561 4.58562,-6.15267 7.11448,-8.12902c2.5643,-1.13468 6.30202,-9.1057 9.75652,-9.75594c3.3915,-0.63839 7.27747,-1.9165 10.82502,-2.06331c0.02536,-6.53471 11.21967,8.64356 11.15966,9.43599c0.01418,0.09737 0.02954,0.19638 0.0462,0.29709c0.98547,5.95621 -0.02722,53.53935 -2.20956,55.06811c-1.46714,1.02775 -46.99044,0.75762 -50.9652,-4.8788c-1.81371,-2.57194 -0.47959,-4.83645 -0.7496,-7.36497c-0.31204,-2.92209 -0.47124,-5.63401 -1.60006,-8.36288c0,0 -2.22834,-5.57086 3.34252,-7.7992c1.186,-0.4744 2.22051,-0.59531 3.11427,-0.49174z" data-paper-data="{&quot;index&quot;:null}" fill="#999999"/><path d="" data-paper-data="{&quot;index&quot;:null}" fill="#b3cedd"/><path d="" data-paper-data="{&quot;index&quot;:null}" fill="#999999"/><path d="" data-paper-data="{&quot;index&quot;:null}" fill="#b3cedd"/><path d="" data-paper-data="{&quot;index&quot;:null}" fill="#6c6c6c"/><path d="" data-paper-data="{&quot;index&quot;:null}" fill="#6c6c6c"/><path d="" data-paper-data="{&quot;index&quot;:null}" fill="#6c6c6c"/><path d="" data-paper-data="{&quot;index&quot;:null}" fill="#6c6c6c"/><path d="" data-paper-data="{&quot;index&quot;:null}" fill="#6c6c6c"/><path d="" data-paper-data="{&quot;index&quot;:null}" fill="#6c6c6c"/><path d="" data-paper-data="{&quot;index&quot;:null}" fill="#6c6c6c"/><path d="" data-paper-data="{&quot;index&quot;:null}" fill="#6c6c6c"/><path d="" data-paper-data="{&quot;index&quot;:null}" fill="#6c6c6c"/><path d="" data-paper-data="{&quot;index&quot;:null}" fill="#6c6c6c"/><path d="" fill="#6c6c6c"/><path d="" fill="#6c6c6c"/><path d="" fill="#6c6c6c"/><path d="" fill="#6c6c6c"/><path d="" fill="#6c6c6c"/><path d="M484.82878,306.81701l-11.86576,-0.06456c-1,0.33333 -1.95608,0.85391 -3,1c-0.63176,0.08841 -1.29838,-0.56077 -1.88749,-0.31604c-0.63981,0.26579 -0.67578,1.30349 -1.28476,1.63386c-1.49791,0.81262 -2.48991,2.25418 -5.32625,2.68218c-1.0423,0.15728 -1.95608,0.85391 -3,1c-0.63176,0.08841 -1.27084,-0.47939 -1.88749,-0.31604c-0.31932,0.08459 -0.16747,0.66149 -0.37788,0.91614c-0.99502,1.20425 -1.45018,2.77105 -2.28228,4.09312c-1.00441,1.59584 -3.04372,2.37486 -4,4c-1.1495,1.95351 -0.93252,4.58351 -2.27972,6.40632c-0.71434,0.96652 -2.24361,1.06603 -3,2c-0.56471,0.69729 -0.24471,1.8328 -0.72028,2.59368c-0.70306,1.12484 -1.73368,2.01738 -2.71772,2.90688c-0.24506,0.22152 -0.80268,0.06763 -0.91613,0.37788c-0.1318,0.36043 0.34501,0.70447 0.3806,1.08658c0.09274,0.99569 0,2 0,3c0,0 0,5 -5,5c-5,0 -5,-5 -5,-5c0,-1.7314 -0.07723,-6.78544 0.38061,-7.91342c0.80561,-1.98482 3.30621,-2.85377 4.36614,-4.71524c0.60017,-1.05403 0.52688,-2.45531 1.27972,-3.40632c0.74596,-0.94233 2.19068,-1.11149 3,-2c0.35089,-0.38522 0.07695,-1.04813 0.23012,-1.54617c0.42262,-1.37419 0.74589,-2.81745 1.49016,-4.04751c0.97615,-1.61329 3.0817,-2.35309 4,-4c0.51335,-0.92064 0.43852,-2.10789 1,-3c0.695,-1.10424 5.42028,-5.58654 6.33984,-5.99075c1.25865,-0.55326 2.76058,-0.06589 4.1125,-0.31604c1.0365,-0.19178 1.95559,-0.85748 3,-1c3.40364,-0.46448 3.26861,-3.24501 4.386,-3.68396c2.24413,-0.88157 4.82515,-0.55359 7.1125,-1.31604l13.13424,-0.06456z" fill="#b3cedd"/><path d="M470.89294,318.30395c1.52161,1.42033 4.32246,2.25486 4.91992,4.10386c0.06262,0.19379 0.10103,0.39872 0.11124,0.61663c0.00467,0.09978 -0.0063,0.2175 -0.03166,0.35156c-0.02019,1.42936 -0.64016,2.71366 -1.61956,3.61256c-2.54646,4.57816 -7.19228,11.21558 -7.71015,11.88158c-1.11113,1.42897 -2.80561,3.6703 -4.36979,4.60881c-2.79951,1.67971 -6.31401,0.85327 -9.31484,1.625c-0.98622,0.25363 -0.24191,2.03274 -0.537,3.00735c-0.55901,1.84628 -2.03684,7.12111 -4.92234,6.85401c-1.67249,-0.15482 -3.67368,-0.13814 -4.86136,-1.32583c-3.05305,-3.05305 1.24427,-13.78179 4.2,-16.67107c2.8815,-2.81671 7.88969,-0.05222 10.43189,-2.43371c3.55768,-3.3328 5.07802,-8.43852 8.11189,-12.13925c0.59623,-0.72728 2.1248,-3.2468 2.87289,-3.28836z" fill="#6c6c6c"/><path d="M439.45429,213.92032c2.5381,6.38377 6.90907,14.17248 5.78093,21.44647c0.13948,0.3401 0.27152,0.69574 0.39546,1.06757c3.79473,11.3842 -37.1144,20.79473 -39.3842,20.79473c-1.46351,0 -3.08225,0.56217 -4.40454,-0.028c-1.14837,1.69663 -3.16792,2.73142 -4.73304,4.09344c-1.30213,1.13317 -4.74382,5.00607 -6.25455,6.21466c-0.63534,0.50827 -1.5921,0.58828 -2.12259,1.20518c-2.09672,2.43823 -3.09387,5.69699 -5.20518,8.12259c-3.98313,4.57605 -8.4378,8.85137 -14.68731,10.28595c-2.14386,0.49213 -4.34332,-0.69918 -6.51498,-1.04877c-1.74373,0.13004 -3.63711,0.31419 -5.42852,0.20082c-0.29426,1.32912 -0.56099,2.68421 -0.7077,4.13658c-0.386,3.82126 0.0584,7.96818 0.0584,11.81755c0,1.33333 0.38054,2.72212 0,4c-1.30099,4.36883 -1.45542,9.84839 -4.98348,12.73491c-3.09334,2.53084 -29.24985,1.07988 -32.67882,-0.15481c-1.11464,-0.40136 -1.62937,-1.76484 -2.64648,-2.37229c-0.90498,-0.54049 -2.15056,-0.37585 -3,-1c-2.01717,-1.48217 -3.91697,-3.19423 -5.42613,-5.19129c-1.45622,-1.92701 -2.23443,-4.28288 -3.35165,-6.42432c-0.58617,-1.89 -1.40673,-3.72271 -1.7585,-5.67001c-0.29182,-1.6154 -0.26323,-3.28422 -0.15495,-4.92219c0.01614,-0.24401 0.6155,-0.29969 0.5149,-0.52259c-0.24254,-0.5374 -1.0551,-0.66646 -1.29468,-1.20519c-2.41039,-5.42003 0.77978,-36.64597 0.77978,-40.27221c0,-8.66667 0,-17.33333 0,-26c0.19753,-1.37402 -0.71579,-2.69569 -0.84505,-4.07781c-0.26036,-2.78407 -0.27547,-5.60011 -0.06504,-8.38839c0.10343,-1.37047 0.77697,-2.64385 1,-4c0.34924,-2.12358 -0.24543,-4.3264 0.06504,-6.45599c0.15207,-1.04307 0.79047,-1.96694 1,-3c0.37904,-1.86878 -0.47888,-4.21918 0.7585,-5.67001c3.57806,-4.19528 7.91428,-8.00321 12.9041,-10.3494c1.60036,-0.75248 3.16496,2.10163 4.9281,1.96479c0.99408,-0.07715 0.73529,-2.14784 1.67634,-2.47735c3.09719,-1.08448 6.46922,-1.124 9.72734,-1.51565c0.01056,-0.00126 2.6036,0.24266 3.25847,-0.11674c3.92032,-2.15152 5.81362,-4.38994 10.67001,-4.7585c3.1724,-0.24075 6.42041,0.01728 9.51439,0.7585c0.91687,0.21965 1.14064,1.6122 2,2c0.30393,0.13715 0.11082,-0.76182 0.4078,-0.91345c0.32327,-0.16505 0.71593,0.18301 1.07781,0.15495c2.56708,-0.19904 5.11948,-0.55596 7.67922,-0.83394c1.27839,0.86414 2.40037,2.02466 3.83517,2.59243c0.31006,0.12269 0.07499,-0.93405 0.4078,-0.91345c3.7068,0.22947 7.85023,-0.30915 11.02312,1.62108c3.04896,1.85484 4.3526,5.61847 6.35008,8.61638c3.44204,0.61301 5.51563,3.58317 8.48144,4.78837c1.63194,0.66316 3.49449,0.71982 5.05774,1.53177c1.21845,0.63286 1.95961,1.94908 3.10414,2.70749c0.97639,0.64699 2.14836,0.96424 3.18686,1.50089c3.27707,-0.50755 3.48383,0.71857 6.71881,1.38896c2.84068,0.58868 5.91949,-0.16384 8.67001,0.7585c1.48571,0.4982 2.35957,2.09509 3.71657,2.87874c0.91282,0.52714 2.11946,0.42056 3,1c2.76877,1.822 5.73558,5.47174 7.89904,7.89904z" data-paper-data="{&quot;index&quot;:null}" fill="#999999"/><path d="M309.37576,261.24946c3,-4 7,-1 7,-1l1.68598,1.26753c5.6538,4.52304 11.17143,9.83762 14.57059,16.39713c1.60734,3.10177 1.66527,4.35426 2.10544,7.54668c0.21392,1.55149 -0.02759,3.24978 0.67428,4.64987c1.55994,3.11178 4.42161,3.04917 7.0884,4.40061c1.25225,0.6346 2.31267,1.59218 3.469,2.38827c0,0 4.06867,2.90619 1.16248,6.97486c-2.90619,4.06867 -6.97486,1.16248 -6.97486,1.16248c-4.76385,-3.61617 -10.58053,-4.23086 -13.66135,-10.39862c-1.88678,-3.7773 -0.66465,-8.41047 -2.68903,-12.02221c-3.01649,-5.38177 -7.26626,-9.50985 -11.99191,-13.29037l-1.43902,-1.07622c0,0 -4,-3 -1,-7z" data-paper-data="{&quot;index&quot;:null}" fill="#6c6c6c"/><path d="M305.15272,212.31627c-3.53553,-3.53554 0,-7.07107 0,-7.07107l3.21905,-1.80484c1.61314,-0.08049 3.29868,-0.72606 4.83942,-0.24148c2.61668,0.82297 4.40401,3.29245 6.77807,4.66654c1.37356,0.795 3.14159,1.0891 4.16983,2.29799c2.68727,3.15938 2.84279,9.78557 3.1959,13.62512c-0.07219,0.57694 -0.06356,1.17444 -0.11397,1.75692c1.02173,-0.46689 2.52794,-0.33043 3.669,-0.28015c4.64489,0.20468 5.80633,0.5447 9.06403,3.82398c3.28187,3.30361 4.20186,7.11841 7.16809,10.29992c3.45563,3.70644 9.1369,5.42111 11.81407,9.99845c1.54077,2.63435 2.20511,5.85967 2.10644,8.90992c-0.02245,0.69382 1.31895,0.44822 1.93802,0.76229c0.73772,0.37426 1.48035,0.73874 2.22053,1.10811c0,0 4.47214,2.23606 2.23607,6.7082c-2.23606,4.47214 -6.7082,2.23607 -6.7082,2.23607c-3.57746,-1.79185 -7.58182,-3.33779 -9.1227,-7.5046c-0.78523,-2.12342 0.2033,-4.80914 -1.01856,-6.71508c-2.4213,-3.7769 -7.82599,-5.46535 -10.84218,-8.75155c-2.52561,-2.7517 -4.14335,-9.26972 -7.67771,-10.89877c-2.52288,-1.16284 -6.10285,1.84385 -9.03907,0.52226c-6.62095,-2.98007 -5.34884,-5.83985 -5.68358,-11.52282c-0.20471,-2.28615 -0.79339,-4.52567 -1.02344,-6.8094c-0.02438,-0.24204 0.51097,-0.51772 0.31309,-0.65923c-0.3524,-0.25202 -0.90738,0.1397 -1.29892,-0.04576c-1.33868,-0.63408 -2.60911,-1.43289 -3.76867,-2.35459c-0.30668,-0.24377 -0.67496,-0.68683 -1.03213,-0.94378c-1.36062,0.61885 -3.38155,0.90827 -5.40248,-1.11266zM309.78598,213.33985l0.26014,-0.10923c-0.0908,0.00509 -0.17802,0.03879 -0.26014,0.10923z" data-paper-data="{&quot;index&quot;:null}" fill="#6c6c6c"/><path d="M415.25074,233.9909c0,5 -5,5 -5,5l-2.42132,-0.43094c-4.7645,-2.23688 -10.04539,-1.68042 -15.22357,-2.45928c-1.46667,-0.5646 -3.07214,-0.85317 -4.40001,-1.69381c-2.09549,-1.3266 -3.92667,-3.04139 -5.74456,-4.72846c-0.34804,-0.32299 -0.24967,-1.07273 -0.69213,-1.24502c-1.74039,-0.67768 -3.77542,-0.39985 -5.48184,-1.15903c-5.5073,-2.45017 -7.95441,-5.67381 -12.62929,-8.45727c-1.98465,-1.18168 -4.65101,-0.70835 -6.69661,-1.78106c-3.55027,-1.86175 -5.01498,-4.28543 -7.9338,-6.40396c-2.04605,-1.48506 -4.20631,-2.80857 -6.25,-4.29687c-2.72706,-1.98596 -5.25894,-4.87944 -8.62708,-5.85297c-1.75193,-0.50638 -3.59623,-0.64223 -5.35152,-1.13682c0,0 -4.80762,-1.37361 -3.43401,-6.18123c1.37361,-4.80762 6.18123,-3.43401 6.18123,-3.43401c1.82921,0.53184 3.77101,0.62834 5.58598,1.20693c6.382,2.0345 12.65808,7.87973 17.93542,11.72515c2.18543,1.59245 3.72743,4.07144 6.1287,5.31479c2.26929,1.17501 5.13471,0.87934 7.36589,2.12519c4.27565,2.38745 6.91592,5.90507 11.58946,7.94898c2.22588,0.97346 4.8362,0.89769 7.01816,1.96597c1.07946,0.52851 1.56043,1.83455 2.43287,2.66123c1.60459,1.52042 3.39487,3.00127 5.48043,3.73398c5.71212,0.74211 10.62772,0.60933 15.93399,2.65419c1.40119,0.23024 4.23363,1.16107 4.23363,4.92434z" data-paper-data="{&quot;index&quot;:null}" fill="#6c6c6c"/><path d="M398.31661,206.05722c0.98058,-4.9029 5.88348,-3.92232 5.88348,-3.92232l2.72816,0.61188c3.49344,1.3136 7.6766,1.96298 10.81315,4.05693c1.08298,0.723 1.82521,1.8626 2.81661,2.70682c4.55545,3.87917 8.78391,6.86622 12.44274,11.71477c0,0 3,4 -1,7c-4,3 -7,-1 -7,-1c-3.46964,-4.66048 -8.22468,-8.71061 -12.86564,-12.14091c-2.1592,-1.59594 -6.18146,-2.02542 -8.7181,-2.97432l-1.17809,-0.16937c0,0 -4.9029,-0.98058 -3.92232,-5.88348z" data-paper-data="{&quot;index&quot;:null}" fill="#6c6c6c"/><path d="M345.97294,173.20351c4.77355,-1.43088 9.08652,-1.81152 14.12958,-1.66667c5.12761,0.14728 10.71146,1.23505 15.65916,2.47197c1.84003,0.46001 9.00019,4.26841 11.25908,5.23031c2.67493,1.13906 6.58428,1.14004 8.87684,3.10509c0.87384,0.74901 1.55575,2.72589 2.50708,3.24511c3.29642,1.79914 7.36344,3.76398 10.95723,4.82038c1.94826,0.57269 9.07063,3.64969 11.10902,3.79381c8.20147,0.57987 12.78407,3.91089 17.84092,9.79066c1.48986,1.73231 6.88787,6.29069 5.82182,9.48884c-1.1602,3.48059 -4.33377,5.25823 -7.82624,3.91312c-1.62871,-0.62729 -2.60375,-2.82442 -2.98995,-4.33278c-0.0276,-0.10778 -6.7603,-7.15249 -7.02425,-7.26c-2.86793,-1.1681 -6.07251,-1.37248 -9.09345,-2.12771c-6.76895,-1.69224 -13.68677,-5.14311 -20.08976,-7.27744c-3.16052,-1.05351 -5.50184,-3.79716 -7.63593,-6.0854c-1.4074,-1.50906 -4.01193,-0.99823 -5.95272,-1.69921c-5.51467,-1.99181 -10.44752,-5.33841 -16.19862,-6.27169c-12.92235,-2.09701 -23.77978,1.93161 -35.97244,4.60502c-3.99244,0.8754 -9.15136,1.51639 -12.88713,2.99975c-2.92339,1.16078 -6.18467,3.27027 -8.4218,5.52905c-0.74232,0.7495 -1.25884,1.78851 -1.85578,2.74072c-0.21639,0.40647 -0.48726,0.77954 -0.80286,1.10947c-0.24459,0.27894 -0.51335,0.52958 -0.8185,0.73689c-0.24934,0.1694 -0.54359,0.31092 -0.86938,0.42307c-0.5927,0.24757 -1.24324,0.3843 -1.92571,0.3843c-0.45523,0 -0.89625,-0.06084 -1.31537,-0.17482c-2.2623,-0.38235 -4.31364,-1.85528 -3.68293,-4.69351c-0.00113,-0.04375 -0.0017,-0.08764 -0.0017,-0.13167c0,-1.18293 0.41079,-2.26991 1.09751,-3.12608c6.79569,-14.59451 32.88364,-15.57708 46.10625,-19.54059z" fill="#b3cedd"/><path d="M357.54647,360.1069c-3.13223,0 -6.96305,-0.4851 -10.09102,-0.07899c-0.27666,1.6819 -1.39427,5.07899 -5.90898,5.07899c-6,0 -6,-6 -6,-6l0.0255,-1.30358c-0.14348,-0.77225 -0.10942,-1.44759 0.0398,-2.03495l0.01218,-0.62256c2.0274,-6.48537 -2.06343,-7.3915 3.67988,-13.08155c5.74331,-5.69005 12.4839,-6.41389 15.36551,-9.35569c2.88161,-2.9418 3.51133,-7.3894 3.92209,-10.33477c0.71527,-5.129 2.72729,-10.01585 4.19432,-14.94443c0.85885,-2.88536 -0.08258,-6.55941 1.89327,-8.83074c4.14443,-4.76422 11.41564,-3.49174 16.86745,-3.49174c5.85734,0 15.63511,-1.7323 19.86745,3.49174c1.84097,2.27233 1.16734,9.38268 1.13255,12.50826c-0.06822,6.13011 -2.43952,37.05956 -2.00748,45.70037c0,0 0.29962,5.99251 -5.69289,6.29214c-0.2288,0.01144 -0.4493,0.01371 -0.6618,0.00749h-1.63782c-2.29424,-0.03897 -4.5426,-0.65824 -6.80091,-1.06456c-1.96839,-0.35416 -4.02406,0.3093 -6,0c-1.04141,-0.16301 -1.96257,-0.81334 -3,-1c-1.96839,-0.35416 -4.02406,0.3093 -6,0c-1.04141,-0.16301 -1.95771,-0.84272 -3,-1c-3.10349,-0.46832 -7.07118,0.06456 -10.19909,0.06456z" data-paper-data="{&quot;index&quot;:null}" fill="#999999"/><path d="M371.2899,359.68801c-1.58114,4.74342 -6.32456,3.16228 -6.32456,3.16228l-4.04752,-1.49016c-1.65743,-1.54958 -3.30247,-3.11331 -4.90688,-4.71772c-1.01965,-1.01964 -1.61257,-2.59368 -2.92796,-3.18453c-1.92332,-0.86392 -4.11666,-0.94303 -6.11764,-1.60758c0,0 -4.74342,-1.58114 -3.16228,-6.32456c1.58114,-4.74342 6.32456,-3.16228 6.32456,-3.16228c2.60383,0.87153 5.45035,1.11776 7.88236,2.39242c2.85389,1.49578 6.04882,5.61519 8.16516,8.09775l1.95248,0.50984c0,0 4.74342,1.58114 3.16228,6.32456z" data-paper-data="{&quot;index&quot;:null}" fill="#6c6c6c"/><path d="M387.54646,357.10686c-2.97703,0 -4.18152,-1.77255 -4.66885,-3.20687c-0.21391,-0.55662 -0.33115,-1.16118 -0.33115,-1.79313v-2c0,-2.64957 0.85786,-6.89071 -0.25325,-9.37134c-0.31972,-0.71382 -2.22368,-0.85227 -2.32788,-0.88524c-1.21599,-0.38472 -2.5556,-0.54262 -3.61562,-1.25184c-2.04179,-1.36608 -4.59947,-2.59637 -5.53261,-4.86889c-0.79535,-1.93696 0.54431,-4.15703 0.98595,-6.20382c0.60148,-2.7875 1.47467,-4.62487 1.74342,-7.41886c0.03674,-0.382 0.55992,-0.74728 0.3806,-1.08658c-0.32373,-0.61254 -1.27104,-0.69453 -1.63386,-1.28476c-0.81805,-1.33081 -1.09348,-3.07969 -2.28228,-4.09312c0,0 -3.53553,-3.53554 0,-7.07107c3.53554,-3.53553 7.07107,0 7.07107,0c0.90591,0.96896 2.01115,1.78425 2.71772,2.90688c0.56148,0.8921 0.46505,2.09174 1,3c0.60925,1.03443 1.95945,1.58571 2.36614,2.71524c0.30985,0.86055 0.53857,7.37177 0.31604,8.71433c-0.21605,1.30346 -0.78558,2.52306 -1.19202,3.78023c-0.24675,0.76324 -0.34028,1.6068 -0.64237,2.34337c0.54908,0.07176 1.12843,0.2097 1.4801,0.33208c3.69975,1.28752 5.34984,1.41596 7.67212,5.11476c2.66475,4.24426 1.74675,9.88867 1.74675,14.62866v2c0,0 0,0.81847 -0.33115,1.79313c-0.48733,1.43432 -1.69182,3.20687 -4.66885,3.20687z" data-paper-data="{&quot;index&quot;:null}" fill="#6c6c6c"/><path d="M388.96533,304.36348c4.74342,-1.58114 6.32456,3.16228 6.32456,3.16228l0.74816,2.38438c0.89108,1.31335 1.91007,2.55072 3.04396,3.66122c0,0 3.53553,3.53554 0,7.07107c-3.53554,3.53553 -7.07107,0 -7.07107,0c-1.88258,-1.91037 -3.47763,-4.10095 -4.95604,-6.33878l-1.25184,-3.61562c0,0 -1.58114,-4.74342 3.16228,-6.32456z" data-paper-data="{&quot;index&quot;:null}" fill="#6c6c6c"/><path d="M363.24294,297.6069c0,-5 5,-5 5,-5c9.16667,0 20.83333,0 30,0c0,0 5,0 5,5c0,5 -5,5 -5,5c-9.16667,0 -18.33333,0 -27.5,0h-2.5c0,0 -5,0 -5,-5z" fill="#b3cedd"/><path d="M342.4921,342.05727c-0.73318,0.61405 -1.77337,1.04964 -3.24916,1.04964c-5,0 -5,-5 -5,-5l4.01942,-5.4029c5.36663,-1.07195 10.7602,-2.12818 16.15859,-3.02907c0,0 4.93197,-0.82199 5.75396,4.10997c0.82199,4.93197 -4.10997,5.75396 -4.10997,5.75396c-4.53222,0.75435 -9.06162,1.62285 -13.57283,2.51839z" fill="#b3cedd"/></g></g></svg>