<svg version="1.1" xmlns="http://www.w3.org/2000/svg" xmlns:xlink="http://www.w3.org/1999/xlink" width="493.78875" height="396.61703" viewBox="0,0,493.78875,396.61703"><g transform="translate(7.29583,16.04208)"><g data-paper-data="{&quot;isPaintingLayer&quot;:true}" fill-rule="nonzero" stroke="none" stroke-width="0.5" stroke-linecap="butt" stroke-linejoin="miter" stroke-miterlimit="10" stroke-dasharray="" stroke-dashoffset="0" style="mix-blend-mode: normal"><path d="M333.95412,15.80196c0.11802,-0.96778 1.09582,-0.86547 1.09582,-0.86547c2.56181,0.26993 5.06528,0.16546 7.62275,0.42373c0.75142,0.07588 2.84192,0.37064 2.98568,1.3734c0.10562,0.73673 -0.73406,1.32379 -1.28049,1.8291c-0.45391,0.41974 -2.21387,0.94201 -2.8357,1.24379c-0.65591,0.31832 -1.2554,0.69106 -1.85082,1.06069c1.9701,0.29498 4.25501,1.07667 4.99997,1.59733c0.50701,0.35436 1.46009,0.46428 1.50839,1.08095c0.12486,1.59433 -1.47834,1.90768 -2.44718,2.21878c-2.29273,0.73623 -4.80253,1.39817 -7.24503,1.95591c0.04695,0.0035 0.08547,0.00758 0.11406,0.01228c2.52279,0.41434 4.89261,1.24378 7.19964,2.2659l0.00029,-0.01394l1.0308,0.02179c0.4275,-0.00097 0.82389,0.27448 0.95709,0.70416c0.16354,0.5275 -0.13153,1.08774 -0.65904,1.25127c-0.0597,0.01851 -0.1198,0.03114 -0.17972,0.03823l-0.98585,0.13437c-2.26025,0.29967 -4.86115,0.29101 -7.02967,0.97212c-0.65463,0.20097 -3.25074,1.04803 -3.83613,0.70812c-1.33268,-0.77381 -1.22865,-4.54185 -0.79094,-5.6901c0.14085,-0.36948 0.35094,-0.71861 0.59881,-1.05445c-0.10084,-0.12991 -0.18354,-0.27088 -0.23861,-0.42873c-0.03171,-0.09087 0.66442,-2.24759 0.73695,-2.56307c0.27434,-1.19347 0.56552,-2.72362 0.39197,-3.95154c-0.12651,-0.89511 -0.94693,-2.54375 -0.52393,-3.43273c0.15598,-0.3278 0.38484,-0.63748 0.66089,-0.89191zM337.50484,23.31146c-0.01829,-0.012 -0.03692,-0.02429 -0.05573,-0.03681c0.00513,0.01839 0.00992,0.03708 0.0144,0.05606c0.01374,-0.00648 0.02753,-0.01288 0.04133,-0.01924z" data-paper-data="{&quot;index&quot;:null}" fill="#d0d0d0"/><path d="M333.63104,53.15366c0.11802,-0.96779 1.09582,-0.86548 1.09582,-0.86548c2.56182,0.26992 5.06529,0.16546 7.62277,0.42373c0.75142,0.07588 2.84191,0.37065 2.98567,1.3734c0.10562,0.73673 -0.73407,1.32379 -1.28049,1.82909c-0.45391,0.41975 -2.21387,0.942 -2.8357,1.24379c-0.65591,0.31832 -1.2554,0.69107 -1.85082,1.0607c1.9701,0.29498 4.25501,1.07666 4.99997,1.59732c0.50701,0.35436 1.46009,0.46428 1.50839,1.08095c0.12486,1.59433 -1.47833,1.90768 -2.44718,2.21879c-2.29273,0.73623 -4.80253,1.39818 -7.24503,1.95592c0.04695,0.0035 0.08547,0.00758 0.11406,0.01228c2.52279,0.41433 4.89261,1.24377 7.19964,2.26589l0.00029,-0.01394l1.0308,0.02179c0.4275,-0.00097 0.82389,0.27448 0.95709,0.70416c0.16354,0.5275 -0.13153,1.08774 -0.65904,1.25127c-0.0597,0.01851 -0.1198,0.03115 -0.17972,0.03824l-0.98585,0.13437c-2.26025,0.29967 -4.86116,0.29101 -7.02967,0.97211c-0.65463,0.20097 -3.25074,1.04802 -3.83613,0.70812c-1.33268,-0.77382 -1.22865,-4.54184 -0.79094,-5.6901c0.14085,-0.36948 0.35094,-0.7186 0.59881,-1.05445c-0.10084,-0.12992 -0.18354,-0.27089 -0.23861,-0.42873c-0.03171,-0.09087 0.66442,-2.24759 0.73695,-2.56307c0.27434,-1.19348 0.56552,-2.72363 0.39197,-3.95154c-0.12651,-0.89511 -0.94693,-2.54376 -0.52393,-3.43273c0.15598,-0.32779 0.38484,-0.63749 0.66089,-0.89191zM337.18175,60.66317c-0.01829,-0.012 -0.03692,-0.0243 -0.05573,-0.03682c0.00513,0.01838 0.00993,0.03709 0.01441,0.05606c0.01374,-0.00648 0.02752,-0.01288 0.04132,-0.01925z" data-paper-data="{&quot;index&quot;:null}" fill="#d0d0d0"/><path d="M332.6208,34.80196c0.11802,-0.96779 1.09583,-0.86547 1.09583,-0.86547c2.56181,0.26993 5.06528,0.16545 7.62275,0.42373c0.75142,0.07588 2.84192,0.37064 2.98568,1.3734c0.10562,0.73673 -0.73407,1.32379 -1.28049,1.8291c-0.45391,0.41975 -2.21387,0.942 -2.8357,1.24379c-0.65591,0.31832 -1.2554,0.69107 -1.85082,1.0607c1.9701,0.29498 4.25502,1.07667 4.99997,1.59732c0.50701,0.35436 1.46009,0.46428 1.50838,1.08095c0.12486,1.59433 -1.47834,1.90768 -2.44718,2.21878c-2.29273,0.73623 -4.80253,1.39818 -7.24503,1.95592c0.04695,0.00351 0.08547,0.00758 0.11406,0.01228c2.52279,0.41433 4.89261,1.24378 7.19964,2.2659l0.00029,-0.01394l1.0308,0.02179c0.4275,-0.00096 0.82389,0.27448 0.95709,0.70416c0.16354,0.52751 -0.13153,1.08774 -0.65904,1.25127c-0.0597,0.01851 -0.1198,0.03114 -0.17972,0.03823l-0.98585,0.13437c-2.26025,0.29967 -4.86115,0.29101 -7.02967,0.97212c-0.65463,0.20097 -3.25074,1.04803 -3.83613,0.70812c-1.33268,-0.77381 -1.22864,-4.54184 -0.79094,-5.6901c0.14085,-0.36948 0.35093,-0.71861 0.5988,-1.05445c-0.10084,-0.12991 -0.18354,-0.27089 -0.23861,-0.42873c-0.03171,-0.09087 0.66442,-2.24759 0.73695,-2.56307c0.27434,-1.19348 0.56552,-2.72363 0.39197,-3.95154c-0.12651,-0.89511 -0.94693,-2.54375 -0.52393,-3.43273c0.15598,-0.32779 0.38484,-0.63749 0.66089,-0.89191zM336.17151,42.31146c-0.01829,-0.012 -0.03693,-0.0243 -0.05574,-0.03682c0.00513,0.01838 0.00992,0.03708 0.0144,0.05606c0.01374,-0.00648 0.02752,-0.01287 0.04132,-0.01924z" data-paper-data="{&quot;index&quot;:null}" fill="#d0d0d0"/><path d="M332.95075,71.57206c0.24552,-0.94353 1.20107,-0.71225 1.20107,-0.71225c2.50326,0.60781 4.99842,0.83679 7.49894,1.43247c0.73468,0.17502 2.7675,0.74483 2.7768,1.7578c0.00683,0.74423 -0.90339,1.21456 -1.51209,1.64281c-0.50563,0.35574 -2.31938,0.6396 -2.97578,0.85612c-0.69238,0.22838 -1.33607,0.51819 -1.97531,0.80546c1.91347,0.55405 4.07431,1.6323 4.74351,2.24729c0.45545,0.41857 1.38549,0.6541 1.35145,1.27172c-0.08801,1.59679 -1.71862,1.69442 -2.72021,1.87408c-2.3702,0.42517 -4.94569,0.74789 -7.44063,0.97627c0.04607,0.00971 0.08371,0.01887 0.11142,0.02732c2.4454,0.74575 4.68406,1.88262 6.83488,3.20211l0.00214,-0.01378l1.01878,0.15851c0.42385,0.05582 0.78012,0.38148 0.85507,0.82504c0.09202,0.54455 -0.27484,1.06064 -0.8194,1.15265c-0.06163,0.01041 -0.12288,0.01495 -0.1832,0.01402l-0.99496,0.00224c-2.28003,-0.00321 -4.85674,-0.35725 -7.09651,0.02979c-0.67552,0.11225 -3.36114,0.60696 -3.89619,0.19232c-1.21809,-0.94397 -0.61449,-4.66479 -0.02814,-5.74474c0.18867,-0.34751 0.44328,-0.66563 0.73356,-0.96558c-0.08269,-0.14216 -0.14593,-0.29287 -0.17955,-0.45663c-0.01936,-0.09428 0.95707,-2.13942 1.07086,-2.44248c0.43043,-1.14646 0.92227,-2.62438 0.91336,-3.86446c-0.00649,-0.90398 -0.60067,-2.64699 -0.06334,-3.47191c0.19813,-0.30417 0.46611,-0.58072 0.7735,-0.79622zM335.47255,79.48665c-0.01653,-0.01433 -0.03338,-0.02899 -0.05036,-0.04389c0.00264,0.0189 0.00491,0.03807 0.00683,0.05747c0.01448,-0.00459 0.02899,-0.00911 0.04352,-0.01359z" data-paper-data="{&quot;index&quot;:null}" fill="#d0d0d0"/><path d="M332.96437,109.82032c0.11802,-0.96779 1.09582,-0.86548 1.09582,-0.86548c2.56182,0.26992 5.06529,0.16546 7.62276,0.42373c0.75142,0.07589 2.84191,0.37064 2.98567,1.3734c0.10562,0.73673 -0.73407,1.32379 -1.28049,1.82909c-0.4539,0.41974 -2.21387,0.942 -2.8357,1.24379c-0.65591,0.31832 -1.2554,0.69107 -1.85082,1.0607c1.97011,0.29498 4.25501,1.07666 4.99997,1.59732c0.50701,0.35436 1.46009,0.46428 1.50839,1.08095c0.12486,1.59433 -1.47833,1.90769 -2.44718,2.21879c-2.29273,0.73623 -4.80253,1.39817 -7.24503,1.95591c0.04695,0.0035 0.08547,0.00758 0.11406,0.01228c2.52279,0.41433 4.89261,1.24378 7.19964,2.26589l0.00029,-0.01394l1.0308,0.02179c0.4275,-0.00097 0.82388,0.27449 0.95708,0.70415c0.16353,0.5275 -0.13153,1.08774 -0.65904,1.25127c-0.0597,0.01851 -0.1198,0.03114 -0.17972,0.03823l-0.98585,0.13437c-2.26025,0.29967 -4.86116,0.29101 -7.02968,0.97212c-0.65463,0.20098 -3.25074,1.04802 -3.83613,0.70812c-1.33268,-0.77381 -1.22864,-4.54184 -0.79094,-5.6901c0.14085,-0.36949 0.35094,-0.71861 0.5988,-1.05445c-0.10083,-0.12991 -0.18354,-0.27089 -0.23861,-0.42873c-0.03171,-0.09087 0.66442,-2.24759 0.73695,-2.56308c0.27434,-1.19347 0.56552,-2.72363 0.39197,-3.95154c-0.1265,-0.8951 -0.94693,-2.54375 -0.52393,-3.43273c0.15597,-0.3278 0.38485,-0.63749 0.66089,-0.89191zM336.51508,117.32983c-0.01829,-0.012 -0.03692,-0.0243 -0.05573,-0.03681c0.00513,0.01839 0.00992,0.03709 0.0144,0.05606c0.01375,-0.00648 0.02752,-0.01288 0.04132,-0.01925z" data-paper-data="{&quot;index&quot;:null}" fill="#d0d0d0"/><path d="M331.95414,91.46862c0.11802,-0.96779 1.09582,-0.86547 1.09582,-0.86547c2.56181,0.26993 5.06528,0.16546 7.62276,0.42373c0.75142,0.07589 2.84192,0.37064 2.98568,1.3734c0.10562,0.73673 -0.73407,1.32379 -1.28049,1.82909c-0.4539,0.41974 -2.21387,0.94201 -2.8357,1.2438c-0.65591,0.31832 -1.2554,0.69107 -1.85082,1.0607c1.97011,0.29498 4.25501,1.07667 4.99997,1.59732c0.50701,0.35436 1.46009,0.46428 1.50839,1.08095c0.12486,1.59433 -1.47833,1.90769 -2.44718,2.21879c-2.29273,0.73623 -4.80253,1.39817 -7.24503,1.95591c0.04695,0.0035 0.08547,0.00758 0.11406,0.01228c2.52279,0.41433 4.89262,1.24378 7.19964,2.2659l0.00029,-0.01394l1.0308,0.02179c0.4275,-0.00097 0.82388,0.27449 0.95708,0.70415c0.16353,0.5275 -0.13153,1.08774 -0.65904,1.25127c-0.0597,0.01851 -0.11981,0.03114 -0.17972,0.03823l-0.98585,0.13437c-2.26025,0.29967 -4.86115,0.29101 -7.02967,0.97212c-0.65463,0.20098 -3.25074,1.04802 -3.83613,0.70812c-1.33268,-0.77381 -1.22864,-4.54184 -0.79094,-5.6901c0.14085,-0.36949 0.35094,-0.71861 0.5988,-1.05445c-0.10083,-0.12991 -0.18354,-0.27089 -0.23861,-0.42873c-0.03171,-0.09087 0.66442,-2.24759 0.73695,-2.56308c0.27434,-1.19347 0.56552,-2.72363 0.39197,-3.95154c-0.1265,-0.8951 -0.94693,-2.54375 -0.52393,-3.43273c0.15597,-0.3278 0.38485,-0.63749 0.66089,-0.8919zM335.50484,98.97813c-0.01829,-0.012 -0.03693,-0.0243 -0.05574,-0.03681c0.00513,0.01839 0.00992,0.03708 0.0144,0.05605c0.01375,-0.00648 0.02752,-0.01287 0.04133,-0.01924z" data-paper-data="{&quot;index&quot;:null}" fill="#d0d0d0"/><path d="M329.84781,146.89535c0.24552,-0.94353 1.20107,-0.71225 1.20107,-0.71225c2.50326,0.6078 4.99843,0.83679 7.49894,1.43247c0.73468,0.17502 2.7675,0.74483 2.77679,1.7578c0.00683,0.74423 -0.90339,1.21456 -1.51209,1.64281c-0.50563,0.35574 -2.31938,0.6396 -2.97578,0.85612c-0.69238,0.22838 -1.33607,0.5182 -1.9753,0.80547c1.91347,0.55405 4.0743,1.63229 4.7435,2.24729c0.45545,0.41857 1.38549,0.6541 1.35145,1.27172c-0.08801,1.59679 -1.71862,1.69443 -2.72021,1.87409c-2.3702,0.42517 -4.94569,0.74789 -7.44063,0.97626c0.04607,0.00971 0.08371,0.01887 0.11142,0.02732c2.4454,0.74575 4.68406,1.88262 6.83488,3.20211l0.00214,-0.01378l1.01877,0.15851c0.42384,0.05582 0.78012,0.38148 0.85507,0.82504c0.09202,0.54455 -0.27484,1.06064 -0.8194,1.15265c-0.06163,0.01041 -0.12288,0.01496 -0.18321,0.01403l-0.99496,0.00223c-2.28003,-0.00321 -4.85674,-0.35725 -7.09651,0.02979c-0.67552,0.11225 -3.36114,0.60695 -3.8962,0.19231c-1.21809,-0.94397 -0.61449,-4.66479 -0.02814,-5.74474c0.18867,-0.34751 0.44328,-0.66562 0.73356,-0.96557c-0.08269,-0.14216 -0.14593,-0.29287 -0.17955,-0.45663c-0.01936,-0.09428 0.95707,-2.13942 1.07086,-2.44248c0.43043,-1.14646 0.92227,-2.62438 0.91336,-3.86446c-0.00649,-0.90398 -0.60067,-2.64699 -0.06334,-3.4719c0.19813,-0.30417 0.46611,-0.58073 0.7735,-0.79622zM332.3696,154.80994c-0.01653,-0.01433 -0.03337,-0.02899 -0.05035,-0.04389c0.00264,0.0189 0.00491,0.03807 0.00683,0.05747c0.01448,-0.00459 0.02899,-0.00911 0.04352,-0.01359z" data-paper-data="{&quot;index&quot;:null}" fill="#d0d0d0"/><path d="M332.28407,128.23873c0.24552,-0.94353 1.20107,-0.71225 1.20107,-0.71225c2.50326,0.60781 4.99842,0.83679 7.49893,1.43247c0.73468,0.17502 2.76751,0.74483 2.7768,1.7578c0.00683,0.74423 -0.9034,1.21455 -1.5121,1.6428c-0.50563,0.35574 -2.31938,0.63961 -2.97578,0.85613c-0.69238,0.22838 -1.33607,0.51819 -1.9753,0.80546c1.91347,0.55405 4.07431,1.6323 4.74351,2.24729c0.45545,0.41857 1.38548,0.6541 1.35144,1.27172c-0.08801,1.59679 -1.71862,1.69442 -2.7202,1.87409c-2.3702,0.42517 -4.94569,0.74789 -7.44063,0.97627c0.04607,0.00971 0.0837,0.01887 0.11142,0.02732c2.4454,0.74575 4.68406,1.88262 6.83489,3.20211l0.00214,-0.01377l1.01877,0.15851c0.42385,0.05582 0.78012,0.38148 0.85507,0.82504c0.09202,0.54455 -0.27484,1.06064 -0.8194,1.15265c-0.06163,0.01041 -0.12288,0.01495 -0.1832,0.01402l-0.99497,0.00224c-2.28003,-0.00321 -4.85673,-0.35725 -7.0965,0.02979c-0.67552,0.11225 -3.36114,0.60696 -3.89619,0.19232c-1.21809,-0.94397 -0.61449,-4.66479 -0.02814,-5.74474c0.18867,-0.34751 0.44327,-0.66563 0.73355,-0.96558c-0.08269,-0.14216 -0.14593,-0.29287 -0.17955,-0.45663c-0.01936,-0.09428 0.95707,-2.13942 1.07086,-2.44248c0.43043,-1.14646 0.92227,-2.62438 0.91335,-3.86446c-0.00649,-0.90398 -0.60067,-2.64699 -0.06334,-3.47191c0.19813,-0.30417 0.46611,-0.58072 0.7735,-0.79622zM334.80588,136.15332c-0.01653,-0.01433 -0.03337,-0.02899 -0.05035,-0.04389c0.00264,0.0189 0.00491,0.03807 0.00683,0.05747c0.01448,-0.00459 0.02899,-0.0091 0.04352,-0.01358z" data-paper-data="{&quot;index&quot;:null}" fill="#d0d0d0"/><path d="M320.29487,185.00365c0.0202,-0.97475 1.00334,-0.97118 1.00334,-0.97118c2.57597,0.01121 5.05629,-0.34421 7.62677,-0.34416c0.75524,0.00002 2.86477,0.08328 3.10853,1.06652c0.1791,0.72239 -0.59737,1.39083 -1.09027,1.94847c-0.40944,0.46322 -2.10805,1.15964 -2.69641,1.52236c-0.62062,0.3826 -1.17962,0.81368 -1.7349,1.24126c1.98978,0.09558 4.34165,0.64378 5.13514,1.08697c0.54004,0.30164 1.49934,0.31526 1.60934,0.92395c0.28439,1.57372 -1.27921,2.04654 -2.21191,2.4534c-2.20717,0.96282 -4.63779,1.87354 -7.0119,2.67382c0.04707,-0.00123 0.0858,-0.00105 0.11472,0.00076c2.55165,0.15881 4.99281,0.746 7.39085,1.53119l-0.00111,-0.0139l1.02778,-0.08187c0.42524,-0.04391 0.84729,0.19033 1.02298,0.60445c0.2157,0.50841 -0.02159,1.09545 -0.53001,1.31114c-0.05754,0.02441 -0.11607,0.04302 -0.17497,0.05609l-0.96736,0.23273c-2.21871,0.52521 -4.80733,0.77786 -6.89646,1.67337c-0.63112,0.26572 -3.12902,1.36928 -3.74559,1.0899c-1.40367,-0.63602 -1.67868,-4.39545 -1.35854,-5.58186c0.10302,-0.38177 0.27697,-0.75022 0.48985,-1.10927c-0.11338,-0.11913 -0.20982,-0.25108 -0.28047,-0.40259c-0.04068,-0.08722 0.43528,-2.30296 0.47575,-2.62414c0.15306,-1.215 0.28906,-2.76666 -0.00697,-3.97093c-0.21578,-0.87787 -1.19768,-2.43576 -0.86612,-3.36273c0.12226,-0.34181 0.31887,-0.67292 0.56795,-0.95378zM324.58198,192.11848c-0.0194,-0.0101 -0.03918,-0.02046 -0.05915,-0.03103c0.00695,0.01778 0.0136,0.0359 0.01996,0.05432c0.01303,-0.00782 0.02609,-0.01558 0.03918,-0.0233z" data-paper-data="{&quot;index&quot;:null}" fill="#d0d0d0"/><path d="M326.61015,165.02046c0.41643,-0.88155 1.31243,-0.47686 1.31243,-0.47686c2.34688,1.06202 4.75615,1.75031 7.10258,2.7999c0.68941,0.30839 2.58108,1.24573 2.40214,2.24281c-0.13147,0.73256 -1.11319,1.0257 -1.79082,1.33349c-0.56289,0.25566 -2.39781,0.19784 -3.083,0.28872c-0.72274,0.09585 -1.40905,0.26112 -2.09051,0.4247c1.77733,0.89969 3.70039,2.3604 4.24377,3.08895c0.36981,0.49585 1.23995,0.89997 1.09182,1.50053c-0.38296,1.55268 -2.00334,1.34586 -3.02087,1.33643c-2.40793,-0.0223 -4.99856,-0.18339 -7.49252,-0.42223c0.04347,0.0181 0.07875,0.03408 0.10441,0.04753c2.26442,1.18683 4.25306,2.71958 6.1215,4.41548l0.00466,-0.01314l0.97163,0.34492c0.40611,0.13355 0.69573,0.5197 0.68702,0.96946c-0.01069,0.55217 -0.46699,0.99116 -1.01917,0.98046c-0.06249,-0.00121 -0.12352,-0.00812 -0.18262,-0.02024l-0.97808,-0.18254c-2.23978,-0.42648 -4.70596,-1.2528 -6.97864,-1.28835c-0.68461,-0.01513 -3.41539,-0.02766 -3.86415,-0.53444c-1.02164,-1.15372 0.26232,-4.69778 1.03898,-5.65008c0.24992,-0.30643 0.55915,-0.57175 0.90008,-0.81258c-0.05485,-0.15504 -0.08901,-0.31487 -0.09165,-0.48202c-0.00152,-0.09623 1.33766,-1.92452 1.50574,-2.20118c0.63581,-1.04661 1.39351,-2.40751 1.615,-3.62768c0.16146,-0.88946 -0.09876,-2.71249 0.58239,-3.4233c0.25116,-0.2621 0.56583,-0.48408 0.90789,-0.63876zM327.61858,173.26565c-0.01359,-0.01715 -0.02741,-0.03467 -0.04133,-0.05247c-0.00091,0.01907 -0.00224,0.03832 -0.00396,0.05774c0.01508,-0.00182 0.03018,-0.00357 0.04528,-0.00527z" data-paper-data="{&quot;index&quot;:null}" fill="#d0d0d0"/><path d="M472.32688,204.89135c0.88944,0.3993 0.50217,1.30295 0.50217,1.30295c-1.0164,2.36699 -1.65794,4.78913 -2.66193,7.15543c-0.29499,0.69525 -1.19554,2.60471 -2.1959,2.44509c-0.73496,-0.11727 -1.04705,-1.09314 -1.3679,-1.76468c-0.26652,-0.55784 -0.2442,-2.39353 -0.34832,-3.07683c-0.10982,-0.72075 -0.28834,-1.40374 -0.46508,-2.0819c-0.86513,1.79441 -2.28834,3.74537 -3.00624,4.30275c-0.4886,0.37934 -0.8758,1.25714 -1.47912,1.12066c-1.5598,-0.35284 -1.38438,-1.97692 -1.39465,-2.99444c-0.02431,-2.40791 0.08663,-5.00117 0.27715,-7.49929c-0.01725,0.04381 -0.03255,0.07939 -0.0455,0.10531c-1.14278,2.28696 -2.63677,4.30489 -4.29618,6.2058l0.01322,0.00441l-0.32604,0.97812c-0.12567,0.40862 -0.50614,0.70565 -0.95598,0.70565c-0.55228,0 -1,-0.44772 -1,-1c0,-0.0625 0.00573,-0.12366 0.0167,-0.18298l0.16357,-0.98142c0.38306,-2.24762 1.1615,-4.72932 1.15306,-7.00227c0.00187,-0.68478 -0.03844,-3.41529 0.45956,-3.87377c1.13373,-1.04378 4.70197,0.17135 5.66912,0.92944c0.31121,0.24394 0.58246,0.54799 0.82985,0.88419c0.15394,-0.05784 0.31309,-0.0951 0.48016,-0.10096c0.09618,-0.00337 1.95004,1.30017 2.22991,1.46286c1.05872,0.61544 2.43403,1.34666 3.65826,1.54449c0.89243,0.14422 2.71007,-0.15124 3.43392,0.51603c0.26691,0.24605 0.49494,0.55636 0.65621,0.89536zM464.10274,206.05916c0.01688,-0.01392 0.03414,-0.02807 0.05167,-0.04233c-0.01908,-0.00054 -0.03836,-0.0015 -0.05781,-0.00284c0.00211,0.01505 0.00416,0.0301 0.00615,0.04517z" data-paper-data="{&quot;index&quot;:null}" fill="#d0d0d0"/><path d="M327.54186,331.94553c-0.9394,0.26092 -1.21864,-0.68173 -1.21864,-0.68173c-0.72992,-2.47042 -1.78348,-4.74381 -2.52249,-7.20577c-0.21713,-0.72335 -0.74393,-2.76774 0.12771,-3.28392c0.64039,-0.37923 1.50386,0.17225 2.17967,0.484c0.56138,0.25896 1.71678,1.68561 2.23336,2.14484c0.54489,0.4844 1.1185,0.89587 1.68767,1.30476c-0.48056,-1.93324 -0.63172,-4.34341 -0.43541,-5.23083c0.13363,-0.60397 -0.12916,-1.52667 0.42222,-1.80705c1.4255,-0.72486 2.32793,0.63677 2.98578,1.4131c1.55677,1.83713 3.1279,3.90326 4.57701,5.94703c-0.01471,-0.04473 -0.02567,-0.08188 -0.03226,-0.11009c-0.58156,-2.48956 -0.72105,-4.99647 -0.65851,-7.51901l-0.01299,0.00506l-0.37393,-0.96084c-0.16433,-0.39467 -0.06131,-0.86623 0.28479,-1.15357c0.42493,-0.35278 1.0554,-0.29428 1.40817,0.13065c0.03992,0.04809 0.07458,0.0988 0.10404,0.15146l0.50104,0.8596c1.14096,1.97401 2.12724,4.38069 3.5856,6.12412c0.43597,0.52807 2.21112,2.6032 2.12082,3.27406c-0.20558,1.52728 -3.72718,2.87159 -4.95555,2.90609c-0.39526,0.0111 -0.79818,-0.04957 -1.20327,-0.15022c-0.0815,0.14284 -0.18015,0.27316 -0.30495,0.38438c-0.07185,0.06404 -2.33087,0.24525 -2.65012,0.29884c-1.20771,0.20274 -2.73295,0.51863 -3.80125,1.14841c-0.77877,0.45909 -1.98855,1.84745 -2.9717,1.79642c-0.36253,-0.01883 -0.73619,-0.11192 -1.07681,-0.26973zM333.12361,325.79377c-0.0041,0.0215 -0.00834,0.04341 -0.01271,0.06556c0.01502,-0.01177 0.03047,-0.02335 0.04629,-0.03474c-0.01123,-0.01023 -0.02243,-0.0205 -0.03358,-0.03083z" data-paper-data="{&quot;index&quot;:null}" fill="#d0d0d0"/><path d="M349.41815,327.03988c4.54857,0 11.54679,-1.01807 15.72208,0.34254c0.45001,0.14665 0.85793,0.37932 1.23657,0.66477c1.37677,-0.0525 3.41148,0.37282 4.31043,3.06967c0.26617,0.7985 0.33319,1.49743 0.26627,2.1061c1.90227,2.72576 1.36616,4.38273 -2.80387,8.8931c-1.04751,1.133 -2.86057,1.15941 -4.30845,1.69289c-0.61587,0.22692 -6.43121,2.13379 -6.7022,2.17282c-3.24913,0.46792 -6.17804,-0.0321 -9.08661,-1.61396c-0.82824,-0.45045 -1.19155,-1.51493 -2,-2c-0.90388,-0.54233 -2.09612,-0.45767 -3,-1c-0.80845,-0.48507 -1.193,-1.51252 -2,-2c-0.77803,-0.46998 -1.79713,-0.38135 -2.61129,-0.78551c-1.82469,-0.9058 -3.50357,-2.15922 -5.44594,-2.77334c0,0 -4.26907,-1.42302 -2.84605,-5.6921c1.42302,-4.26907 5.6921,-2.84605 5.6921,-2.84605c1.35552,0.46785 2.67424,1.00214 3.96128,1.58966c0.81999,-1.1047 2.13424,-1.82058 3.6157,-1.82058c1,0 5,0 6,0z" data-paper-data="{&quot;index&quot;:null}" fill="#999999"/><path d="M293.60013,309.76739l-3.45991,2.97548c-3.56807,0.25883 -7.14052,0.50142 -10.72208,0.34254c-1.57661,-0.06994 -3.25959,0.25053 -4.72208,-0.34254c-1.40963,-0.57164 -2.3066,-1.98365 -3.45991,-2.97548c0,0 -3.18198,-3.18198 0,-6.36396c3.18198,-3.18198 6.36396,0 6.36396,0c1.05129,1.99423 6.65444,0.37009 9.09594,1.02452l0.54009,-1.02452c0,0 3.18198,-3.18198 6.36396,0c3.18198,3.18198 0,6.36396 0,6.36396z" data-paper-data="{&quot;index&quot;:null}" fill="#999999"/><path d="M198.16776,335.87855c1.42302,-4.26907 5.6921,-2.84605 5.6921,-2.84605l3,1c0.96086,0.3459 2.02786,1.71071 2.8549,1.11162c0.58086,-0.42077 0.73555,-1.31113 1.35629,-1.67047c1.87091,-1.08307 6.21601,-2.02143 8.27438,-2.53771c0,0 4.36564,-1.09141 5.45705,3.27423c1.09141,4.36564 -3.27423,5.45705 -3.27423,5.45705c-1.91139,0.47614 -4.05554,0.4178 -5.72562,1.46229c-0.99582,0.6228 -1.52611,1.96827 -2.64371,2.32953c-3.8838,1.25542 -5.74298,0.18937 -9.1451,-0.88838l-3,-1c0,0 -4.26907,-1.42302 -2.84605,-5.6921z" data-paper-data="{&quot;index&quot;:null}" fill="#999999"/><path d="M142.91815,310.53988c0,4.5 -4.5,4.5 -4.5,4.5l-2.27918,-0.05811c-4.20249,1.40083 -8.32724,1.05811 -12.72082,1.05811c0,0 -4.5,0 -4.5,-4.5c0,-4.5 4.5,-4.5 4.5,-4.5c3.98779,0 7.48763,0.32196 11.27918,-0.94189l3.72082,-0.05811c0,0 4.5,0 4.5,4.5z" data-paper-data="{&quot;index&quot;:null}" fill="#999999"/><path d="M403.90343,10.3585c-6.12284,6.12284 -12.24568,3.4094 -15.18046,1.42385c-1.03742,-0.0686 -2.10622,0.09087 -3.30482,0.09087c-1.08627,0 -2.23021,-0.71385 -3.24296,-0.32101c-1.69445,0.65726 -2.82259,2.36584 -4.48482,3.1008c-2.0357,0.90009 -4.16617,1.63513 -6.35003,2.06527c-4.05627,0.79894 -8.44199,-0.5951 -12.45599,0.06504c-2.68099,0.44092 -5.37815,0.8868 -8.0899,1.03922c-0.07374,0.05299 -0.14771,0.10453 -0.22191,0.1546c-0.44579,0.30081 -6.16009,2.26168 -7.25702,2.58819c-0.5917,0.17613 -1.63226,-0.13366 -1.79346,0.46229c-0.24784,0.91624 -0.13995,1.89713 -0.1039,2.84561c0,4.23083 -0.50309,7.61004 -1.04495,11.7331c-0.55144,4.19588 0.40864,8.80277 0,13c-0.13318,1.3679 -0.84653,2.63423 -1,4c-0.54333,4.83542 -0.74018,9.70501 -0.96249,14.56578c-0.78377,17.13623 0.00745,34.53663 0.00745,51.70112c-0.04592,2.34755 -0.65463,4.65149 -1.07748,6.96109c-0.61535,3.36107 0.71941,7.00781 -0.08303,10.41742c-0.60326,2.5633 -2.67648,4.72948 -2.88445,7.35458c-0.39315,4.96254 0.76216,10.29144 -0.03252,15.22799c-0.75676,4.70099 -2.09753,9.30541 -3.60295,13.82268c-1.50069,4.5031 -4.65223,8.48955 -5.39705,13.17732c-0.26359,1.65902 0.07748,3.35907 0.07748,5.03891c0,5.33333 0,10.66667 0,16c0,0.99191 2.0585,2.98952 3,3c4.02664,0.04482 7.12716,0.96327 10.89737,2.3079c1.42653,0.50877 16.2672,-1.33752 17.52995,-0.79499c1.11461,0.47888 2.11424,9.3495 3.31138,9.74453c1.44105,0.47552 2.53759,1.67913 3.8974,2.35266c2.06328,1.02196 4.54892,1.09303 6.51828,2.28599c2.70587,1.63911 4.94137,4.6584 7.64955,6.46385c0.97805,1.11253 2.51842,1.5658 3.83218,2.25016c2.06561,1.07601 3.54741,3.04492 5.51828,4.28599c1.39585,0.87898 3.18201,0.87852 4.74298,1.41181c3.69785,1.26332 13.70085,12.61284 14.20653,13.53772c1.05238,1.92479 14.02848,-1.53865 14.7727,0.52496c2.55218,7.0768 4.49887,14.86216 -1.74688,20.90967c-6.24575,6.04751 -15.35071,-0.02387 -22.09082,-1.35772c-6.74011,-1.33386 -8.67937,-1.41409 -13,-3c-3.81611,0 -6.8543,-1.46519 -10.63013,-1.95172c-1.37323,-0.17695 -2.82564,0.18384 -4.14748,-0.22825c-1.14739,-0.3577 -1.88757,-1.5451 -3,-2c-1.31715,-0.53862 -2.83827,0.25745 -4.2613,0.25745c-4.03272,0 -58.01561,-13.11205 -62.10216,-14.57093c-1.35193,-0.48263 -2.88278,-0.04815 -4.29602,-0.29995c-5.65268,-1.00716 -10.69783,-2.12913 -16.60182,-2.12913c-6.33333,0 -12.66667,0 -19,0c-2.43324,0 -5.96203,0.53515 -8.39818,0.12913c-1.55795,-0.25966 -2.77068,-0.86646 -4.60182,-1.12913c-61.31976,-8.79626 -60.06576,-62.34395 -60.08656,-62.40778c-1.23019,-3.77343 -1.61332,-12.67142 -0.69692,-16.86149c0.20931,-0.95703 0.48061,-1.90214 0.78348,-2.84204c0,-2.62956 0,-5.25911 0,-7.88867c0,-3.21871 0.53037,-6.8702 0.07748,-10.03891c-0.46139,-3.22817 -2.02122,-6.86902 -3,-10c-0.17571,-8.98381 -0.07748,-17.97562 -0.07748,-26.96109c0,-3.05186 -0.47653,-6.74103 0.04495,-9.7331c0.47196,-2.70792 1.65085,-5.27353 2,-8c0.74389,-5.80899 -0.02167,-12.63096 -0.96748,-18.30581c-0.17329,-1.03975 -0.87416,-1.95345 -1,-3c-0.63689,-5.29686 -0.11081,-11.08761 -0.07896,-16.4677c-0.68458,-5.46302 -1.09948,-10.95904 -1.61141,-16.4416c-0.07659,-0.82026 -0.18836,-1.6953 -0.3233,-2.61577c-0.30803,-0.7336 -0.66329,-1.44626 -1.07285,-2.13307c-0.55059,-0.92331 -1.76254,-1.37028 -2.21215,-2.34675c-0.90064,-1.95598 -1.37277,-4.10021 -1.73385,-6.22309c-0.02129,-0.12517 -0.03449,-0.25103 -0.04138,-0.37741c-1.55616,-0.93771 1.404,-39.77359 5.26332,-40.31074c0.7783,-0.10833 1.60148,0.33989 2.35458,0.11555c1.27366,-0.3794 2.24617,-1.49801 3.52305,-1.8664c2.39241,-0.69024 14.48174,0.50844 15.59417,0.96334c1.31715,0.53862 2.83827,-0.25745 4.2613,-0.25745c3.85642,0 95.42427,1.80605 115.14966,5.10885c4.9662,0.83153 9.8305,2.23044 14.81143,2.96863c4.69742,0.69617 9.86139,-0.99346 13.89961,0.6763c1.22431,-0.21224 2.44463,-0.50571 3.67309,-0.66386c0.85474,-0.11004 10.22878,-0.21489 11.33923,0.01407c8.31127,-6.59041 36.61225,0.41074 36.61225,0.41074c0,0 8.48528,8.48528 0,16.97056zM208.21789,74.03914c-0.00311,0.09656 -0.00611,0.19315 -0.00901,0.28977c0.01537,-0.04251 0.03088,-0.0849 0.04654,-0.12717c-0.01251,-0.0542 -0.02502,-0.1084 -0.03752,-0.1626z" data-paper-data="{&quot;index&quot;:null}" fill="#999999"/><path d="M411.54582,336.4374c-0.15757,-1.05794 -0.37086,-2.11702 0.00922,-3.07881c0.60358,-1.52733 2.28558,-2.3611 3.36221,-3.60123c2.53182,-2.91631 3.87247,-6.6389 6.79429,-9.27516c2.34477,-2.11561 4.58562,-6.15267 7.11448,-8.12902c2.5643,-1.13468 6.24776,-0.08006 8.88665,-1.02842c1.9767,-0.71038 4.17717,-0.65006 6.15112,-1.36804c3.58624,-1.3044 5.75044,-4.58629 9.67937,-5.7348c3.38453,-0.98937 7.08638,-0.97444 10.54088,-1.62468c3.3915,-0.63839 7.27747,-1.9165 10.82502,-2.06331c0.02536,-6.53471 -1.38534,-13.30883 -1.41584,-19.83409c-0.01622,-3.46957 1.26751,-7.07423 1.33333,-10.55473c0.11091,-5.86424 0.51478,-12.13222 0.33333,-17.99377c-0.21006,-6.78585 0.00397,-13.71864 -0.66667,-20.43768c-0.57395,-5.7503 -1.6072,-11.60395 -1.66667,-17.4053c-0.00803,-0.78351 -0.10337,-2.67946 -0.10845,-4.66617h-2.55822l-0.9357,-0.23393l-0.96166,-0.07397l-0.10288,-0.03429l-0.08245,0.04122l-1.2728,-0.45457l-1.31118,-0.32779l-0.10086,-0.1765l-0.22734,-0.08119l-1,-0.66667l-0.06681,-0.0735l-0.09241,-0.03641l-2.18279,-1.55913l-2.46353,-1.53971l-1.6199,-0.97194l-0.10345,-0.10345l-0.11622,-0.04151h-1.36002l-0.9357,-0.23393l-0.96166,-0.07397l-1,-0.33333l-0.35005,-0.22276l-1.26261,-0.25252l-0.08188,-0.03878l-0.09058,0.00165l-4.15306,-0.9584l-1.81751,-0.30292l-0.82195,-0.35737l-0.87494,-0.19443l-0.66667,-0.33333l-0.28787,-0.24674l-0.35705,-0.12752l-1.23125,-0.82083l-1.14106,-0.16301l-0.07149,0.01787l-1.53553,0.51184l-0.0258,0.04516l-0.16718,0.0418l-0.14953,0.07477l-1.34581,0.29907l-1.33747,0.33437h-0.16718l-0.16823,0.03738l-0.05608,-0.03738h-0.60851l-0.71658,-0.17914h-0.73863l-1.33333,-0.33333l-0.906,-0.4832l-0.96698,-0.34535l-0.68919,-0.45946l-1.66589,-0.83294l-0.71821,-0.61561l-1.05372,-0.26343l-0.58303,-0.31095l-0.64504,-0.14334l-0.28528,-0.14264l-1.67177,-0.55726h-0.02633l-0.9357,-0.23393l-0.96166,-0.07397l-2,-0.66667l-0.36434,-0.23185l-0.42157,-0.09368l-0.58556,-0.29278l-0.62852,-0.04835l-0.7814,-0.26047l-1.10978,-0.27745l-0.0635,-0.03387l-0.48543,-0.12136l-0.84108,-0.18691l-0.0791,0.02157l-0.10364,-0.06218l-0.32199,-0.07155l-0.14953,-0.07477l-0.16718,-0.0418l-0.03344,-0.05851l-0.31651,-0.15826l-0.61059,-0.52336l-1.03946,-0.25986l-0.10086,-0.1765l-0.22734,-0.08119l-1,-0.66667l-0.1786,-0.19646l-0.24137,-0.11063l-1.46335,-1.17068l-0.78335,-0.52223l-0.40199,-0.44219l-0.51244,-0.30747l-0.24028,-0.24028l-1.07876,-0.4315l-0.5088,-0.36747l-0.59106,-0.21109l-2,-1.33333l-0.40199,-0.44219l-0.51244,-0.30747l-0.66667,-0.66667l-0.22219,-0.37031l-0.33517,-0.27233l-1,-1.33333l-0.06616,-0.15712l-0.12615,-0.11468l-0.31879,-0.47819l-0.95557,-0.71668l-0.27233,-0.33517l-0.37031,-0.22219l-2.66667,-2.66667l-0.30747,-0.51244l-0.44219,-0.40199l-0.33711,-0.50566l-0.24656,-0.24656l-0.49623,-0.82705l-0.01507,-0.01758l-0.01979,-0.01979l-0.24703,-0.01372l-0.75,-0.875l-0.24585,-0.12292l-0.7323,-0.62769l-0.82705,-0.49623l-0.5799,-0.5799l-0.43974,-0.29316l-0.09183,-0.0051l-1.01013,-1.17849l-1.04409,-1.1485l0.00633,-0.09175l-0.12282,-0.24564l-0.05851,-0.03344l-0.0418,-0.16718l-0.07477,-0.14953l-0.29907,-1.34581l-0.33437,-1.33747v-0.16718l-0.03738,-0.16823l0.03738,-0.05608v-1.27518l0.23393,-0.9357l0.07397,-0.96166l0.25832,-0.77495c-0.15165,-0.52748 -0.23288,-1.08476 -0.23288,-1.66102c0,-2.38699 1.39388,-4.44843 3.4121,-5.41474l-0.00803,-0.10444l0.58088,-0.64922l-0.05994,-0.86909l2.08013,-2.28814l2,-1.33333l0.35705,-0.12752l0.28787,-0.24674l1.33333,-0.66667l0.42157,-0.09368l0.36434,-0.23185l2.83273,-0.94424l1.27124,-0.5085l1.11011,-0.55506l0.42157,-0.09368l0.36434,-0.23185l2,-0.66667l0.23457,-0.01804l0.20758,-0.11071l1.33333,-0.33333h0.73863l0.71658,-0.17914h0.33333l1.33333,-0.33333h0.16718l0.16823,-0.03738l0.05608,0.03738h1.20321l0.61675,-0.15419h0.73863l0.71658,-0.17914h1.02633l0.0763,-0.02543l0.59585,-0.04583l0.55731,-0.21573l2.66667,-0.33333l0.37639,0.04562l0.36782,-0.09196h0.18335l0.48845,-0.32564l0.35705,-0.12752l0.28787,-0.24674l0.66667,-0.33333l0.42157,-0.09368l0.36434,-0.23185l1,-0.33333l0.86667,-0.06667l0.39547,-0.13182l2.28528,-1.14264l0.42157,-0.09368l0.28608,-0.18205l0.18205,-0.28608l0.09368,-0.42157l0.03878,-0.07757l0.17359,-0.69437l0.11071,-0.20758l0.01804,-0.23457l0.88187,-2.64562l0.26007,-1.30037l0.16231,-0.34264l0.02908,-0.37803l0.45511,-1.36533l0.23699,-2.36989v-5.97593l-0.03738,-0.05608l0.03738,-0.16823v-0.16718l0.33437,-1.33747l0.17811,-0.80149v-0.64958l0.15419,-0.61675v-1.5947l0.10474,-0.41896l-0.04444,-0.42956l0.27303,-1.91121v-2.24026l0.23393,-0.9357l0.07397,-0.96166l0.02543,-0.0763v-1.02633l0.23393,-0.9357l0.07397,-0.96166l0.02543,-0.0763v-4.96818l-0.03738,-0.05608l0.03738,-0.16823v-0.16718c0,0 0.76388,-4.31927 0.77838,-8.83359c0.01069,-3.32784 -0.7558,-9.96193 -0.78779,-18.25013c-0.02319,-6.00684 1.22848,-12.88252 1.2456,-19.99808c0.01033,-4.2947 -0.7558,-8.67679 -0.79019,-13.00799c-0.04955,-6.24143 0.91971,-12.37716 0.90118,-17.99339c-0.021,-6.36492 -0.96107,-12.06259 -1.17099,-16.49067c-0.27845,-5.87377 0.15818,-9.51361 0.15818,-9.51361l0.29907,-1.34581l0.07477,-0.14953l0.0418,-0.16718l0.05851,-0.03344l55.19148,0.70011l-1.67702,115.76899l-0.01663,0.05304l0.00931,0.0548l-0.66667,8.66667l-0.06319,0.18958l0.02056,0.19877l-0.62875,4.40124l-0.31095,5.90802v32.9822l0.6285,9.74172l0.18173,0.90864c0,0 1.16141,36.58712 1.18977,37.54348c0.11563,3.89954 1.30218,95.20131 1.24217,95.99374c0.01418,0.09737 0.02954,0.19638 0.0462,0.29709c0.98547,5.95621 -0.02722,53.53935 -2.20956,55.06811c-1.46714,1.02775 -72.49194,0.75762 -76.4667,-4.8788c-1.81371,-2.57194 -0.47959,-4.83645 -0.7496,-7.36497c-0.31204,-2.92209 -0.47124,-5.63401 -1.60006,-8.36288c0,0 -2.22834,-5.57086 3.34252,-7.7992c1.186,-0.4744 2.22051,-0.59531 3.11427,-0.49174zM465.82656,130.27009v-0.06845l-0.09167,0.00733z" data-paper-data="{&quot;index&quot;:null}" fill="#999999"/><path d="" data-paper-data="{&quot;index&quot;:null}" fill="#b3cedd"/><path d="" data-paper-data="{&quot;index&quot;:null}" fill="#999999"/><path d="M146.81606,303.87613c0,6 -6,6 -6,6h-1.5015c-1.54342,0 -3.14506,-0.5901 -4.62749,-0.16051c-1.07493,0.3115 -1.90293,1.29575 -3.003,1.5015c-1.00412,0.18781 -6.92139,0.16051 -8.88603,0.16051c0,0 -6,0 -6,-6c0,-6 6,-6 6,-6c2.0437,0 4.13252,0.59732 6.12899,0.16051c1.09329,-0.23921 1.91116,-1.25576 3.003,-1.5015c0.87597,-0.19715 6.0062,-0.16051 7.38452,-0.16051h1.5015c0,0 6,0 6,6z" data-paper-data="{&quot;index&quot;:null}" fill="#b3cedd"/><path d="M227.89714,327.90015c0,6 -6,6 -6,6h-3.003c-1.54342,0 -3.14506,-0.5901 -4.62749,-0.16051c-1.07493,0.3115 -1.91726,1.23007 -3.003,1.5015c-0.97111,0.24278 -2.03189,-0.24278 -3.003,0c-1.08574,0.27143 -1.91116,1.25576 -3.003,1.5015c-1.42582,0.3209 -2.92101,0.107 -4.38152,0.16051c0,0 -6,0 -6,-6c0,-6 6,-6 6,-6c1.59818,0.15791 3.06948,-0.95149 4.62749,-1.341c0.97111,-0.24278 2.03189,0.24278 3.003,0c1.08574,-0.27143 1.91116,-1.25576 3.003,-1.5015c0.87597,-0.19715 6.0062,-0.16051 7.38452,-0.16051h3.003c0,0 6,0 6,6z" data-paper-data="{&quot;index&quot;:null}" fill="#b3cedd"/><path d="M298.46771,299.37162c0,6 -6,6 -6,6h-1.5015c-2.05464,0 -5.69286,-0.72201 -7.63049,-0.16051c-1.07493,0.3115 -1.91116,1.25576 -3.003,1.5015c-0.87597,0.19715 -6.0062,0.16051 -7.38452,0.16051c0,0 -6,0 -6,-6c0,-6 6,-6 6,-6c1.54342,0 3.14506,0.5901 4.62749,0.16051c1.07493,-0.3115 1.91116,-1.25576 3.003,-1.5015c3.0836,-0.69401 7.197,-0.16051 10.38753,-0.16051h1.5015c0,0 6,0 6,6z" data-paper-data="{&quot;index&quot;:null}" fill="#b3cedd"/><path d="M375.04428,323.90015c0,6 -6,6 -6,6l-1.62449,-0.16051c-3.58479,1.79239 -6.43694,1.66201 -10.38753,1.66201c-7.00701,0 -14.01401,0 -21.02102,0c0,0 -6,0 -6,-6c0,-6 6,-6 6,-6c5.50551,0 11.01101,0 16.51652,0c4.54871,0 8.11734,0.66783 12.135,-1.341l4.38152,-0.16051c0,0 6,0 6,6z" data-paper-data="{&quot;index&quot;:null}" fill="#b3cedd"/><path d="M323.66207,212.28303c-0.88861,0.86173 -2.20808,1.5015 -4.16733,1.5015c-6,0 -6,-6 -6,-6l6,-7.5015c6.00601,0 12.01201,0 18.01802,0c1.4663,0 6.93655,-0.05427 7.74471,0.25745c4.27384,1.64847 9.13475,-0.74823 12.10267,1.5363c1.39655,1.07499 0.42751,6.88475 2.35542,7.84869c4.57749,2.28875 9.33217,4.38291 13.71025,7.03458c1.59296,0.2452 3.39396,-0.08882 4.77887,0.73559c0.96166,0.57246 0.58075,2.36682 1.5015,3.003c1.14657,0.79222 3.1058,-0.12419 4.09126,0.86126c0.98545,0.98545 0.15778,2.8882 0.86126,4.09126c0.23946,0.40952 1.00651,-0.46527 1.40736,-0.21156c1.19617,0.75709 1.88303,2.13717 3.003,3.003c2.86793,2.21717 6.98494,2.56895 9.74339,5.12932c0.82026,0.76136 0.71014,2.21164 1.5015,3.003c0.79136,0.79136 2.21164,0.71014 3.003,1.5015c0.79136,0.79136 0.71014,2.21164 1.5015,3.003c0.79136,0.79136 2.23748,0.68512 3.003,1.5015c0.49734,0.53038 -0.13878,1.66854 0.41325,2.14174c0.36208,0.31038 0.75786,-0.82056 1.22713,-0.73559c1.10125,0.19939 1.92808,1.19 3.003,1.5015c1.48243,0.42959 3.08406,-0.16051 4.62749,-0.16051c0,0 6,0 6,6c0,6 -6,6 -6,6c-1.37832,0 -6.50856,0.03664 -7.38452,-0.16051c-1.09184,-0.24574 -1.92741,-1.1923 -3.003,-1.5015c-1.54898,-0.44529 -3.41168,0.11788 -4.77887,-0.73559c-1.31535,-0.82111 -1.47084,-2.79077 -2.58976,-3.86427c-0.80758,-0.7748 -2.21164,-0.71014 -3.003,-1.5015c-0.79136,-0.79136 -0.71014,-2.21164 -1.5015,-3.003c-0.79136,-0.79136 -2.21164,-0.71014 -3.003,-1.5015c-0.79136,-0.79136 -0.76635,-2.15917 -1.5015,-3.003c-0.32673,-0.37504 -0.98547,-0.18396 -1.44364,-0.37758c-0.68179,-0.28811 -6.65394,-3.37243 -6.83099,-3.50211c-1.14203,-0.83652 -1.90723,-2.10674 -3.003,-3.003c-1.44769,-1.1841 -3.49727,-1.703 -4.59865,-3.21457c-0.41213,-0.56562 1.35613,-1.41988 0.86126,-1.91475c-0.49486,-0.49486 -1.3218,1.233 -1.91475,0.86126c-0.94822,-0.59446 -0.64074,-2.28774 -1.5015,-3.003c-0.36679,-0.3048 -0.81809,0.49039 -1.22713,0.73559c-5.50797,-2.52454 -7.65087,-5.27098 -13.06978,-7.98044c-0.90646,-0.45323 -1.58099,-8.00211 -1.58099,-8.00211c0,0 -15.07295,0.2673 -15.50225,0.29321c-1.99837,0.12056 -4.004,-0.66666 -6.00601,-0.66666c-3.61589,0 -7.23179,0 -10.84768,0z" data-paper-data="{&quot;index&quot;:null}" fill="#b3cedd"/><path d="M443.60885,137.71396c0,6 -6,6 -6,6h-3.003c-2.05464,0 -5.69286,-0.72201 -7.63049,-0.16051c-1.07493,0.3115 -1.91726,1.23007 -3.003,1.5015c-0.97111,0.24278 -2.02513,-0.21395 -3.003,0c-1.8768,0.41062 -3.30635,1.98903 -5.08842,2.70679c-2.79762,1.12679 -5.50588,2.54124 -8.42509,3.29922c-0.96887,0.25157 -2.02513,-0.21395 -3.003,0c-4.75451,1.04023 -6.94461,6.78525 -11.09443,8.71279c-1.60793,0.74686 -3.53274,0.30448 -5.2991,0.45672c0,0 -6,0 -6,-6c0,-6 6,-6 6,-6c0.60446,0.39054 1.28213,-0.71057 1.76337,-1.24564c3.05735,-3.39941 7.37339,-6.38761 11.87313,-7.60286c0.96638,-0.26099 2.02895,0.23072 3.003,0c0.78127,-0.18506 1.34274,-0.90023 2.08542,-1.20528c3.26975,-1.34304 8.04694,-3.88757 11.42809,-4.80072c0.96638,-0.26099 2.03189,0.24278 3.003,0c1.08574,-0.27143 1.91116,-1.25576 3.003,-1.5015c3.0836,-0.69401 7.197,-0.16051 10.38753,-0.16051h3.003c0,0 6,0 6,6z" data-paper-data="{&quot;index&quot;:null}" fill="#b3cedd"/><path d="M445.40569,128.5648c-4.02492,-2.01246 -2.01246,-6.03738 -2.01246,-6.03738l3.6019,-4.25662c0.75245,-0.25082 6.26349,-2.10446 6.7022,-2.17282c0.66494,-0.10362 1.36597,0.5135 1.99874,0.28444c0.49603,-0.17956 0.46891,-0.9789 0.86912,-1.32258c2.55975,-2.19816 5.55367,-4.37345 8.3568,-6.26418c0,0 3.74423,-2.49615 6.24038,1.24808c2.49615,3.74423 -1.24808,6.24038 -1.24808,6.24038c-2.67594,1.75732 -5.09756,3.79368 -7.6432,5.73582c-1.09175,0.83292 -1.86269,2.15076 -3.13088,2.67742c-1.23487,0.51282 -2.68448,0.05206 -4.00126,0.28444c-1.83958,0.32464 -3.52564,1.23646 -5.2978,1.82718l1.6019,-0.25661c0,0 -2.01246,4.02492 -6.03738,2.01246z" data-paper-data="{&quot;index&quot;:null}" fill="#6c6c6c"/><path d="M475.41815,134.03988c4.5,0 4.5,4.5 4.5,4.5l-0.23093,3.42302c-0.8793,1.74252 -1.06511,4.07173 -2.63788,5.22756c-1.97596,1.45214 -5.03467,-0.21406 -7.32717,0.65632c-0.86406,0.32805 -1.37794,1.2714 -2.20906,1.67569c-2.00905,0.97728 -4.16266,1.62413 -6.24399,2.43621c-1.28366,0.02706 -2.5687,0.14654 -3.85098,0.0812c-0.44044,-0.02245 -0.88412,-0.54106 -1.27792,-0.34254c-0.64047,0.32287 -0.74479,1.29561 -1.35629,1.67047c-1.27813,0.78351 -3.04873,0.93487 -3.96625,2.12048c-0.7858,1.01541 -5.55239,7.58548 -6.27618,8.01913c-1.99329,1.19425 -4.75007,0.08203 -6.90621,0.94836c-1.66049,0.66718 -1.55813,3.23698 -2.56655,4.71529c-0.66679,0.97747 -1.63562,1.71043 -2.46861,2.55078c-2.41651,2.43785 -4.49469,4.8927 -7.87795,6.12493c-0.90531,0.32973 -1.91571,0.35683 -2.88914,0.24108c0.29063,1.40388 -1.10118,3.73411 -1.14582,3.87503c0,0 -1.42302,4.26907 -5.6921,2.84605c-4.26907,-1.42302 -2.84605,-5.6921 -2.84605,-5.6921c0.83409,-2.31698 0.00164,-5.35076 1.61849,-7.20817c1.43619,-1.64987 3.84679,-2.14294 5.92977,-2.8107c0.76833,-0.24631 1.63753,0.34414 2.4168,0.13498c1.82137,-0.48886 2.78041,-2.54978 4.12204,-3.87507c2.78156,-2.74766 3.19484,-6.73099 6.96483,-8.73392c1.72958,-0.91889 3.72998,-1.26318 5.66732,-1.55038c0.49827,-0.07387 0.99525,0.7591 1.42647,0.49875c0.48294,-0.29157 0.15166,-1.15264 0.44984,-1.63154c0.95911,-1.54044 2.08092,-2.98206 3.27398,-4.34934c0.91667,-1.05053 1.861,-2.12547 3.03375,-2.87952c0.88664,-0.57008 2.09213,-0.46439 3,-1c1.01162,-0.5968 1.53958,-1.92899 2.64371,-2.32953c1.49752,-0.54325 4.9345,-0.33452 6.8711,-0.26135c2.6125,-1.0877 4.84473,-3.04776 7.54696,-3.88811c1.27006,-0.39497 2.6595,-0.39529 3.98756,-0.23451l-0.18354,-0.45858c0,0 0,-4.5 4.5,-4.5z" data-paper-data="{&quot;index&quot;:null}" fill="#6c6c6c"/><path d="M478.44308,171.52742c2.01246,4.02492 -2.01246,6.03738 -2.01246,6.03738l-0.26824,-0.52877c-1.00425,1.36001 -1.65446,3.07346 -3.01276,4.08003c-1.43192,1.06113 -3.27211,1.47351 -5.01065,1.86571c-0.65647,0.1481 -1.37677,-0.54138 -1.99874,-0.28444c-0.66291,0.27386 -0.74479,1.29561 -1.35629,1.67047c-0.89868,0.5509 -2.09213,0.46439 -3,1c-1.01162,0.5968 -1.53958,1.92899 -2.64371,2.32953c-1.48356,0.53818 -3.14522,0.27848 -4.72208,0.34254c-0.61065,0.02481 -1.25214,0.1426 -1.85066,0.0507c0.67616,1.77453 -0.94879,2.56317 -2.4051,4.94545c0,0 -2.49616,3.74423 -6.24038,1.24808c-3.74422,-2.49615 -1.24807,-6.24037 -1.24807,-6.24037c0.47911,-0.60262 1.18866,-1.07927 1.43731,-1.80788c0.47118,-1.38071 -0.33299,-3.25497 0.65633,-4.32717c2.61921,-2.83864 6.25562,-3.06198 9.65059,-2.8688c0.4403,0.02506 0.88412,0.54106 1.27792,0.34254c0.64047,-0.32287 0.74479,-1.29561 1.35629,-1.67047c0.89868,-0.5509 2.09213,-0.46439 3,-1c1.01162,-0.5968 1.5507,-1.89956 2.64371,-2.32953c1.5535,-0.61111 3.83314,0.78423 4.99061,-0.41872c0.49896,-0.51857 0.65817,-1.27998 0.98725,-1.91997l3.73176,-2.52878c0,0 4.02492,-2.01245 6.03738,2.01247z" data-paper-data="{&quot;index&quot;:null}" fill="#6c6c6c"/><path d="M471.91815,327.53988c0,3.45018 -2.64529,4.25509 -3.87953,4.44287c-1.44583,1.01526 -3.0621,1.8139 -4.64338,2.59955c-3.19403,1.58693 -5.79439,4.40251 -9,6c-2.53559,1.2636 -6.23715,1.3152 -8.61129,2.78551c-3.17306,1.96509 -5.87518,5.33085 -9.27731,7.15807c-1.35198,0.72613 -2.85922,1.17354 -4.36766,1.45589c-1.21925,0.22822 -2.50299,0.29374 -3.72082,0.0581c-0.30305,-0.05864 -0.30863,-1.15216 -0.3688,-0.84941c-0.11218,0.56444 0.47037,1.20893 0.19673,1.7152c-0.61246,1.13313 -1.76396,1.87746 -2.64595,2.81619c0,0 -3.18198,3.18198 -6.36396,0c-3.18198,-3.18198 0,-6.36396 0,-6.36396c1.63626,-1.43053 1.7334,-4.27661 3.55079,-5.46861c3.26268,-2.13994 6.61104,0.51436 9.54271,-1.33542c3.02038,-1.90575 5.70697,-5.06482 8.72269,-6.84193c2.84289,-1.67526 6.47381,-1.75011 9.38871,-3.21449c3.18912,-1.60214 5.79868,-4.38966 9,-6c1.29733,-0.65258 2.83925,-1.04626 3.7951,-2.13956l4.18198,-1.31802c0,0 4.5,0 4.5,4.5z" data-paper-data="{&quot;index&quot;:null}" fill="#6c6c6c"/><path d="M465.99513,355.80896c-4.26907,-1.42302 -2.84605,-5.6921 -2.84605,-5.6921l1.44115,-3.94277c1.20236,-1.27972 4.60417,-5.09999 6.10585,-5.79167c1.11579,-0.51394 2.96722,0.06218 3.5401,-1.02452c0,0 3.18198,-3.18198 6.36396,0c3.18198,3.18198 0,6.36396 0,6.36396c-1.1533,0.99183 -2.07829,2.3391 -3.4599,2.97548c-0.90828,0.41836 -2.03942,-0.278 -3,0c-0.93157,0.2696 -1.16404,1.57002 -1.89415,2.20833l-0.55885,2.05723c0,0 -1.42302,4.26908 -5.6921,2.84605z" data-paper-data="{&quot;index&quot;:null}" fill="#6c6c6c"/><path d="M297.91943,215.35094c-0.71739,-0.92855 -2.21551,-3.46079 0.31674,-5.99304c3.18198,-3.18198 6.36396,0 6.36396,0l2.31802,4.18198c-0.01124,0.81673 0.00731,1.6344 -0.03372,2.45018c-0.02513,0.49982 -0.5188,1.13883 -0.16453,1.4923c0.39534,0.39445 1.16247,-0.20594 1.67533,0.0151c1.1037,0.4757 1.92503,1.46252 3,2c3.15803,1.57902 6.01938,2.95543 9,5c1.12957,0.40483 2.36342,0.59111 3.38871,1.21449c0.61286,0.37262 0.69338,1.39661 1.35629,1.67047c0.62197,0.25695 1.33887,-0.41649 1.99874,-0.28444c1.60726,0.32164 3.20503,0.83083 4.64497,1.61396c0.82824,0.45045 1.20741,1.48943 2,2c1.87135,1.20549 4.40804,0.83723 6.4547,1.71261c0.94155,0.40271 1.51443,1.47746 2.48354,1.8084c0.76356,0.26075 1.62258,-0.27722 2.41679,-0.13498c2.71788,0.48676 6.23855,2.24452 8.53785,3.5498c3.14656,1.78626 6.79399,4.12648 9.59428,6.41206c0.51008,0.41633 0.65819,1.27023 1.27041,1.5125c1.4473,0.57274 3.14009,0.26681 4.59871,0.81008c1.99633,0.74353 3.66976,2.24617 5.70095,2.88838c0,0 4.26907,1.42302 2.84605,5.6921c-1.42302,4.26907 -5.6921,2.84605 -5.6921,2.84605c-2.21375,-0.76406 -4.10804,-2.2846 -6.29905,-3.11162c-1.72482,-0.65105 -3.7215,-0.43019 -5.40129,-1.18992c-1.12162,-0.50728 -1.76179,-1.72675 -2.72959,-2.4875c-2.53867,-1.99554 -5.60827,-3.97632 -8.40572,-5.58794c-0.52248,-0.301 -4.20641,-2.25886 -5.46215,-2.4502c-1.18161,-0.18005 -2.44739,0.23723 -3.58321,-0.13498c-1.31249,-0.43011 -2.24737,-1.6466 -3.51646,-2.1916c-2.41487,-1.03704 -5.26385,-0.98276 -7.5453,-2.28739c-0.81844,-0.46802 -1.23168,-1.45358 -2,-2c-1.46635,-1.04284 -3.68182,-0.01178 -5.35629,-0.67047c-1.09301,-0.42996 -1.63335,-1.73061 -2.64371,-2.32953c-0.78191,-0.4635 -1.74086,-0.52367 -2.61129,-0.78551c-3.98779,-2.6043 -7.86647,-4.7512 -12,-7c-1.39329,-0.758 -3.36165,-0.72457 -4.32467,-1.9849c-2.06826,-2.70679 -2.19503,-5.37624 -2.19697,-8.24646z" data-paper-data="{&quot;index&quot;:null}" fill="#6c6c6c"/><path d="M314.32822,174.54474c1.54415,4.22677 -2.68262,5.77093 -2.68262,5.77093l-0.93928,0.34314c-4.83959,1.62947 -8.41968,5.89084 -12.62279,8.70952c-1.24746,0.83657 -2.71504,1.34014 -3.88644,2.28027c-1.66458,1.33595 -1.75326,4.02757 -3.32384,5.47285c-0.98392,0.90542 -2.50819,0.96226 -3.66071,1.64018c-5.37649,3.1625 -11.79232,6.72881 -13.18204,13.39065c0,0 -1.05978,4.37343 -5.4332,3.31365c-4.37343,-1.05978 -3.31366,-5.4332 -3.31366,-5.4332c1.73589,-6.59947 6.20071,-12.57391 12.23382,-16.12264c0.86194,-0.507 1.94776,-0.53655 2.81785,-1.02944c0.91715,-0.51955 1.54585,-1.47036 2.4747,-1.96872c0.593,-0.31816 1.45923,0.0136 1.97499,-0.41869c0.40429,-0.33887 0.08867,-1.08962 0.36252,-1.54051c0.85178,-1.4025 1.73844,-2.83823 2.96131,-3.93234c1.41429,-1.26538 3.2532,-1.95911 4.82009,-3.02974c4.954,-3.38497 9.01558,-7.61168 14.6891,-9.78537l0.93928,-0.34314c0,0 4.22677,-1.54415 5.77092,2.68262z" data-paper-data="{&quot;index&quot;:null}" fill="#6c6c6c"/><path d="M295.51891,143.18022c0.05356,-4.79068 0.71123,-8.26658 2.92245,-12.75515c2.50608,-2.64195 5.35257,-5.4229 7.40675,-8.44166c2.58722,-3.80212 4.28226,-8.89646 6.28136,-13.01359c1.77062,-3.64659 2.46621,-6.02191 3.69529,-9.82267c0.25819,-0.79843 1.03526,-1.39829 1.1769,-2.2254c0.86311,-5.04047 -0.65232,-10.47632 0.7984,-15.52345c1.28082,-4.45604 4.36959,-9.13216 6.37763,-13.2677c0,0 1.96555,-4.04803 6.01358,-2.08249c4.04804,1.96555 2.08249,6.01359 2.08249,6.01359c-1.79752,3.70198 -4.62918,7.95893 -5.85248,11.92009c-1.40289,4.54269 0.19617,10.23971 -0.63693,14.9058c-0.20419,1.14363 -1.09185,2.06488 -1.44385,3.17199c-1.25511,3.94757 -2.27898,7.06015 -4.11494,10.84132c-4.10357,8.45127 -7.61196,16.01694 -14.42234,22.70133c-1.38081,2.94888 -1.34706,5.30695 -1.28722,8.56468l-0.88845,2.91741c0,0 -1.96555,4.04803 -6.01359,2.08248c-3.85493,-1.87178 -2.25634,-5.6321 -2.09504,-5.98661z" data-paper-data="{&quot;index&quot;:null}" fill="#6c6c6c"/><path d="M292.94039,92.10251c0.11747,-1.08325 0.77657,-4.1221 4.47452,-4.1221c4.5,0 4.5,4.5 4.5,4.5l-0.75577,3.49615c-0.56727,0.82698 -1.13454,1.65395 -1.70181,2.48093c-1.46322,4.6279 -4.07722,9.7301 -4.57613,14.57274c-0.58809,5.70822 -0.17694,9.48243 -3.98624,14.30313c-3.56911,4.51673 -9.25308,7.26772 -13.29806,11.32903c-1.99597,2.00403 -3.96797,4.03255 -6,6c-0.39164,0.37919 -1.04325,0.53766 -1.26608,1.03516c-0.46541,1.03908 -0.30263,2.27546 -0.69542,3.34411c-0.85897,2.337 -2.17346,4.49656 -2.95141,6.86177c0,0 -1.17464,3.52391 -4.59112,3.10127c0.06142,1.73586 0.14316,3.47297 0.25188,5.21253c0.32742,5.23865 1.52797,12.65547 0.49298,18.0931c-0.23976,1.25966 -1.02761,2.36247 -1.33826,3.60655c-0.72851,2.91754 -0.97047,5.94721 -1.7711,8.84579c-1.32326,4.79064 -4.0721,8.4198 -6.27103,12.69482c-0.47428,0.92207 -1.66974,6.10739 -1.72188,6.28106c-1.52801,5.09004 -3.37003,10.12057 -5.05147,15.16488c0,0 -1.42302,4.26907 -5.6921,2.84605c-4.26907,-1.42302 -2.84605,-5.6921 -2.84605,-5.6921c1.64488,-4.93464 3.45557,-9.85518 4.94853,-14.83512c0.78168,-2.60738 1.06474,-5.24134 2.27812,-7.71894c1.16043,-2.36949 2.86263,-4.45679 3.93734,-6.86637c1.86169,-4.17404 2.44079,-8.80988 3.55062,-13.24347c0.24018,-0.95949 0.9241,-1.77593 1.13165,-2.743c0.92989,-4.33269 -0.38623,-11.97423 -0.62983,-15.87185c-0.50196,-8.03142 -0.44868,-16.00448 -0.44047,-24.04938c-0.67071,-6.03611 -0.99934,-12.11883 -1.0042,-18.19209c-0.00314,-3.9259 -0.51222,-7.89293 0.05542,-11.77758c0.69148,-4.7322 3.93786,-8.13954 5.12135,-12.53732c0.65172,-2.42176 1.44864,-4.81678 1.85426,-7.29168c0.22487,-1.37205 -0.19548,-2.79814 0.02439,-4.171c0.44118,-2.75473 2.30402,-5.09267 3.18546,-7.73959c0.50356,-1.51217 0.52123,-3.14822 0.90718,-4.69459c0.71046,-2.84655 2.42313,-5.68404 2.90735,-8.56581c0.4862,-2.89354 -0.46061,-6.07431 0,-9c0.278,-1.76577 0.98745,-3.49225 0.94189,-5.27918c0,-2.25316 -0.06786,-9.38311 0.34254,-10.72208c0.81569,-2.66128 4.93327,-5.0933 6.24156,-7.49507c0.775,-1.42276 0.3357,-5.53549 0.47401,-6.50368c0.25278,-1.76955 0.98745,-3.49225 0.94189,-5.27918v-3c0,0 0,-4.5 4.5,-4.5c4.5,0 4.5,4.5 4.5,4.5v3c-0.03541,2.26759 -0.73737,4.47575 -1.05811,6.72082c-0.45342,3.17383 -0.13843,6.6061 -1.52599,9.49632c-0.51777,1.07848 -1.69594,1.69573 -2.43586,2.63581c-0.74333,0.94441 -1.21701,2.08821 -2,3c-0.34368,0.40021 -1.20126,0.35574 -1.32258,0.86913c-0.55856,2.36356 0.34254,4.84926 0.34254,7.27792c-0.03541,2.26759 -0.65977,4.48821 -1.05811,6.72082c-0.51412,2.88155 0.4836,6.08367 0,9c-0.53486,3.22545 -2.29972,6.26769 -3.09265,9.43419c-0.4386,1.75152 -0.52139,3.59262 -1.09282,5.30541c-0.72409,2.17039 -2.54507,3.98833 -2.81454,6.26041c-0.49919,4.20901 -0.99554,8.45107 -2.12135,12.53732c-1.11901,4.06154 -4.29656,7.24227 -4.87865,11.46268c-0.47058,3.41193 0.06097,6.88828 0.06079,10.33251c-0.00031,5.9085 0.33797,11.82545 0.99043,17.69782c0.00086,0.9085 0.00071,1.81615 0.00049,2.72312c0.13614,-0.58772 0.30916,-1.16054 0.59049,-1.69141c0.62947,-1.18783 1.79583,-2.00194 2.73392,-2.96484c2.7348,-2.8071 5.27852,-5.83771 8.32903,-8.29806c2.02645,-1.63441 4,-3.33333 6,-5c2.10692,-1.75577 4.57567,-2.63028 5.73764,-5.34045c1.26136,-2.94199 0.2449,-4.30502 0.64903,-7.72933c0.68735,-5.82422 3.51808,-11.90552 5.42387,-17.42726c0.52263,-0.80027 1.04527,-1.60054 1.5679,-2.40082z" data-paper-data="{&quot;index&quot;:null}" fill="#6c6c6c"/><path d="M322.91814,9.53988c0,2.63797 -1.54642,3.72952 -2.82619,4.18119c-0.3678,0.58009 -0.75018,1.14912 -1.19377,1.67176c-0.34136,0.40219 -1.15012,0.37058 -1.32258,0.86913c-0.2531,0.73161 0.43312,1.56696 0.22216,2.31181c-0.45561,1.60868 -1.57626,2.96031 -2.15914,4.52737c-1.33445,3.58763 -0.36349,4.25623 -2.39255,7.80453c-0.46802,0.81844 -1.48389,1.211 -2,2c-1.2679,1.93827 -0.8504,4.55993 -1.47868,6.78922c-0.66235,2.35017 -1.2879,4.7413 -2.36324,6.93347c-0.734,1.49633 -2.17196,2.55358 -3,4c-1.09026,1.90445 -1.95726,3.92831 -2.94359,5.8886c-2.95214,5.8673 -5.96062,11.83035 -11.54627,15.76714c0,0 -3.74423,2.49615 -6.24038,-1.24808c-2.49615,-3.74423 1.24808,-6.24038 1.24808,-6.24038c2.84034,-1.70732 4.09755,-5.21935 5.91997,-7.98725c0.43869,-0.66628 1.33944,-0.9493 1.74825,-1.63432c1.5566,-2.60826 2.32482,-6.06301 3.84192,-8.72269c0.82579,-1.44771 2.24112,-2.51613 3,-4c2.30265,-4.50251 1.65906,-9.86963 4.15808,-14.27731c0.465,-0.82016 1.48943,-1.20741 2,-2c1.15541,-1.7936 0.85269,-4.1999 1.60745,-6.19547c0.46347,-1.22541 1.47817,-2.21371 1.84086,-3.47263c0.34096,-1.18349 -0.25978,-2.55477 0.22216,-3.68819c0.94795,-2.22933 3.08346,-3.74918 4.41323,-5.77408l4.74423,-2.00385c0,0 4.5,0 4.5,4.5z" data-paper-data="{&quot;index&quot;:null}" fill="#6c6c6c"/><path d="M209.40569,139.5648c-4.02492,-2.01246 -2.01246,-6.03738 -2.01246,-6.03738l0.65928,-1.07895c0.90913,-3.49599 0.86737,-6.0196 0.92375,-9.62941c0.64118,-1.92354 0.6505,-4.00276 1,-6c0.36339,-2.07663 1.67477,-3.91705 2,-6c0.40179,-2.57331 0.3226,-5.38317 1.61396,-7.64497c0.31763,-0.55631 4.91752,-5.13281 5.46214,-5.46214c1.23425,-0.74634 7.01438,-1.46136 7.91008,-3.20932c2.54634,-4.96918 3.89064,-10.46804 5.91865,-15.67032c5.44812,-13.97562 10.89625,-27.95124 16.34437,-41.92686c0,0 1.63444,-4.19269 5.82712,-2.55825c4.19269,1.63444 2.55825,5.82712 2.55825,5.82712c-5.44812,13.97562 -10.89625,27.95124 -16.34437,41.92686c-0.63455,1.62777 -6.54558,16.93354 -7.15684,17.87116c-3.24137,4.97196 -9.73364,3.36669 -12.86355,7.93333c-0.72482,1.05753 -0.24807,3.56659 -0.38604,4.35503c-0.36339,2.07663 -1.67477,3.91705 -2,6c-0.31279,2.00332 -0.35882,4.07646 -1,6c0.09679,3.79634 -0.16659,6.61704 -1.07625,10.37059l-1.34072,2.92105c0,0 -2.01246,4.02492 -6.03738,2.01246z" data-paper-data="{&quot;index&quot;:null}" fill="#6c6c6c"/><path d="M210.36884,85.42082c-4.46513,0.55912 -5.02425,-3.90601 -5.02425,-3.90601l-0.07192,-2.43294c0.68197,-3.36087 1.48144,-7.18066 1.52578,-10.56928c0.04143,-3.16548 -0.45644,-6.35261 -0.08801,-9.49685c0.22824,-1.94786 1.17658,-3.79863 1.20102,-5.75966c0.06571,-5.271 -2.17779,-10.58074 -1.98798,-15.87602c0.07552,-2.10683 1.07993,-4.09983 1.239,-6.202c0.34534,-4.56355 -1.24527,-9.77682 -0.72435,-14.33414c0.23678,-2.07157 1.50879,-4.10421 1.12377,-6.15342c0,0 -0.55912,-4.46513 3.90601,-5.02425c4.46513,-0.55912 5.02425,3.90601 5.02425,3.90601c0.12725,1.3392 0.56078,2.68432 0.38176,4.01759c-0.19839,1.47746 -1.29696,2.73902 -1.48751,4.2175c-0.14226,1.10385 0.4866,2.18586 0.51889,3.29836c0.05883,2.02673 -0.29572,4.05076 -0.24675,6.07776c0.03502,1.44953 0.59985,2.87489 0.498,4.32127c-0.14809,2.10298 -1.14222,4.09604 -1.239,6.20201c-0.24024,5.22751 2.09607,10.61491 1.98799,15.87602c-0.07725,3.76044 -1.68188,7.15645 -1.60855,11.00776c0.1053,5.53045 -0.10738,10.719 -1.19871,16.25451l0.17658,-0.44844c0,0 0.55912,4.46513 -3.906,5.02425z" data-paper-data="{&quot;index&quot;:null}" fill="#6c6c6c"/><path d="M206.4378,200.0672c-1.89275,-3.22364 0.46477,-5.34169 1.3172,-5.96641c1.62324,-3.07572 3.58068,-6.01232 6.29088,-8.29012c0.80584,-0.67727 2.65064,-0.79274 2.56514,-1.84192c-0.07414,-0.90982 -0.71234,-1.73801 -0.68857,-2.65055c0.15836,-6.07782 3.98625,-11.62732 7.17413,-16.34447c1.02982,-1.52385 -0.24434,-3.68408 -0.09057,-5.51684c0.4281,-5.10241 3.9691,-9.50739 6.64849,-13.63725c0,0 2.45191,-3.77334 6.22525,-1.32143c3.77334,2.45191 1.32143,6.22525 1.32143,6.22525c-1.6729,2.57015 -5.17265,6.36822 -5.23458,9.57466c-0.05746,2.97569 0.39666,6.2095 -0.91345,8.88187c-0.52819,1.07742 -1.65097,1.75858 -2.30731,2.76309c-1.47445,2.25658 -3.85604,6.76047 -3.82571,9.57902c0.01288,1.1969 0.88999,2.36897 0.62468,3.53616c-1.44385,6.35204 -7.63381,8.47208 -10.31581,14.18908l-2.63222,2.42191c0,0 -3.88055,2.27845 -6.159,-1.6021z" data-paper-data="{&quot;index&quot;:null}" fill="#6c6c6c"/><path d="M238.98549,31.01236c-4.47248,0.49695 -4.96942,-3.97553 -4.96942,-3.97553l-0.00612,-0.05505c-0.43001,-3.89655 -0.34095,-7.8506 -0.9633,-11.72108c-0.9575,-5.95489 -6.06207,-11.36428 -9.30233,-16.22467c0,0 -2.49615,-3.74423 1.24808,-6.24038c3.74423,-2.49615 6.24038,1.24808 6.24038,1.24808c4.08918,6.13376 9.42123,12.294 10.69767,19.77533c0.68463,4.01264 0.57176,8.12346 1.02447,12.16883l0.00612,0.05505c0,0 0.49695,4.47248 -3.97553,4.96942z" data-paper-data="{&quot;index&quot;:null}" fill="#6c6c6c"/><path d="M194.44307,-0.38417l1.47508,4.01246c0,6.128 1,11.75409 1,18c0,0 0,4.5 -4.5,4.5c-4.5,0 -4.5,-4.5 -4.5,-4.5c0,-6.25086 -1,-11.80623 -1,-18l-0.52492,0.01246c0,0 -2.01246,-4.02492 2.01246,-6.03738c4.02492,-2.01246 6.03738,2.01246 6.03738,2.01246z" data-paper-data="{&quot;index&quot;:null}" fill="#6c6c6c"/><path d="" data-paper-data="{&quot;index&quot;:null}" fill="#6c6c6c"/><path d="M357.91815,-1.46012c0,4.5 -4.5,4.5 -4.5,4.5l1.18198,-1.31802c-3.85022,3.61747 -8.50515,4.49484 -13.16952,6.84294c0,0 -4.02492,2.01246 -6.03738,-2.01246c-2.01246,-4.02492 2.01246,-6.03738 2.01246,-6.03738c3.17491,-1.57809 8.50686,-2.49928 10.83048,-5.15706l5.18198,-1.31802c0,0 4.5,0 4.5,4.5z" data-paper-data="{&quot;index&quot;:null}" fill="#6c6c6c"/><path d="" data-paper-data="{&quot;index&quot;:null}" fill="#6c6c6c"/><path d="" data-paper-data="{&quot;index&quot;:null}" fill="#6c6c6c"/><path d="" data-paper-data="{&quot;index&quot;:null}" fill="#6c6c6c"/><path d="" data-paper-data="{&quot;index&quot;:null}" fill="#6c6c6c"/><path d="" data-paper-data="{&quot;index&quot;:null}" fill="#6c6c6c"/><path d="" data-paper-data="{&quot;index&quot;:null}" fill="#6c6c6c"/><path d="M38.75308,351.61972c4.47248,-0.49694 -4.4725,0.49695 -0.00002,0z" data-paper-data="{&quot;index&quot;:null}" fill="#6c6c6c"/><path d="M-4.15827,378.45105c0.58181,-2.30083 -5.65825,-24.68614 -1.95787,-27.63081c4.23853,-3.3729 25.76292,-2.81975 30.75437,-2.81975c11.83333,0 23.66667,-25.5 35.5,-25.5c7.03571,0.58689 8.45576,-0.97086 12.16177,6.51395c0.68507,1.3836 0.16837,32.05089 0.30903,33.89482c0.38226,5.01109 0.80658,10.29095 1.47611,15.29482c0.44021,3.29003 -78.92683,2.94963 -78.24341,0.24697z" data-paper-data="{&quot;index&quot;:null}" fill="#999999"/><path d="M-0.79471,345.43504c0,-6 6,-6 6,-6l-1.18178,0.63344c2.71135,-1.24273 5.70872,-2.02575 8.68929,-2.13494c3.19053,0 7.30393,-0.5335 10.38753,0.16051c1.09184,0.24574 1.92807,1.19 3.003,1.5015c1.93763,0.5615 5.57585,-0.16051 7.63049,-0.16051c1.37832,0 18.01801,-14.7485 18.01801,-14.7485c0,0 10.01001,-9.25 15.01502,-9.25c0,0 6,0 6,6c0,6 -6,6 -6,6c-6.00601,0 -18.01802,12.25 -18.01802,12.25c0,0 -5.94062,5.38539 -12.76501,8.4985c-6.82439,3.11311 -7.54285,2.70669 -12.63753,3.08949c-5.09468,0.3828 -8.57885,-1.34099 -10.63349,-1.34099c-1.1392,-0.11256 -2.34356,0.27502 -3.32272,0.86806l-4.18478,0.63344c0,0 -6,0 -6,-6z" data-paper-data="{&quot;index&quot;:null}" fill="#b3cedd"/><path d="M441.67554,88.52306c2.30997,-5.10562 4.89486,-14.55006 11.28489,-15.97006c2.94338,-0.65408 6.01933,2.55091 9.06956,2.75606c1.26137,0.08484 4.10514,0.41867 5.13128,-1.03268c1.368,-1.93486 1.07967,-2.8954 1.8802,-4.79846c0.94079,-2.23649 1.15025,-4.64469 2.02128,-6.90493c2.00502,-5.20287 11.0405,-10.657 13.25329,-2.54344c0.74298,2.72428 -3.13565,5.59853 -4.24684,7.56626c-4.0941,7.24997 -1.64921,14.49111 -12.45318,17.45667c-2.99077,0.82093 -6.55403,0.36694 -9.56172,-0.34051c-0.74704,-0.17572 -2.92494,-1.26477 -3.05034,-1.08346c-4.35185,6.29182 -6.10075,14.21368 -10.87786,20.41125c-1.15641,1.50027 -6.02747,4.63086 -7.62889,1.82838c-1.47371,-0.86976 -2.46233,-2.47396 -2.46233,-4.30908c0,-1.93531 1.09952,-3.6138 2.70797,-4.44489c1.78189,-2.81412 3.59868,-5.64264 4.93268,-8.59111z" fill="#6c6c6c"/><path d="M474.6599,18.05905c2.28774,4.06703 -1.79338,8.34858 -4.01573,11.2118c-5.54524,7.14432 -9.20057,16.06593 -18.02813,20.03162c-5.26001,2.36301 -8.42771,-3.17061 -6.08634,-7.85334c0.48929,-0.97857 4.33515,-2.57496 5.23861,-3.44455c2.17373,-2.09224 3.94941,-4.31356 5.79048,-6.72929c2.50527,-3.28725 4.31965,-6.8428 6.72958,-10.13857c0.69709,-0.95332 0.66206,-2.52939 1.68745,-3.11533c0.86976,-1.47371 2.47396,-2.46233 4.30908,-2.46233c1.62714,0 3.07275,0.77725 3.98581,1.98072c0.14902,0.15393 0.28022,0.32556 0.38919,0.51928z" fill="#6c6c6c"/><path d="M451.7849,10.55905c1.26536,0.72306 3.00867,0.97138 3.98581,1.98072c0.14902,0.15393 0.28022,0.32556 0.38919,0.51928c0.19865,0.35315 0.34056,0.72711 0.43177,1.11875c0.12583,0.4387 0.19323,0.90211 0.19323,1.38125c0,0.69585 -0.14215,1.3585 -0.39899,1.9605c-1.43091,5.05808 -7.0616,11.25744 -8.95803,14.46759c-1.19517,2.02309 -0.16557,4.83406 -2.84789,6.26454c-3.03509,1.61861 -7.19471,-0.74864 -7.82624,-3.91312c-0.68888,-3.45182 5.5519,-13.84465 7.78599,-16.10542c0.54654,-0.55306 2.52453,-4.97659 2.93608,-5.21176z" fill="#6c6c6c"/><path d="M445.22034,66.94467c-2.84846,2.62714 -8.83318,7.74926 -11.90758,1.60045c-0.75116,-1.50231 -0.25164,-3.43771 0.27951,-5.03115c0.14762,-0.44287 2.96525,-2.6242 5.40844,-4.22305c0.75572,-0.87428 1.80932,-1.48393 3.00306,-1.6712c0.23488,-0.07837 0.4086,-0.10055 0.50353,-0.05308c0.09189,-0.00503 0.18445,-0.00758 0.2776,-0.00758c2.76142,0 5,2.23858 5,5c0,0.86565 -0.21998,1.67992 -0.6071,2.38995c-0.44284,0.81225 -1.10439,1.48809 -1.90552,1.94841c-0.0192,0.0173 -0.03656,0.03308 -0.05193,0.04726z" fill="#6c6c6c"/><path d="M461.5349,93.68405c0.10833,-0.06094 0.23039,-0.1084 0.362,-0.14614c0.64823,-0.30708 1.37306,-0.47886 2.138,-0.47886c0.13641,0 0.27155,0.00546 0.40521,0.01618c0.00804,-0.00529 0.01595,-0.01068 0.02372,-0.01618c1.84843,-1.30704 3.13585,-3.20659 5.34037,-4.09122c4.95063,-1.98659 8.19666,1.85867 6.82191,6.89943c-0.33505,1.2285 -2.27914,1.91797 -3.2284,2.56464c-3.5444,2.4146 -3.81386,5.48938 -8.64257,4.6822c-0.17732,-0.02964 -0.38215,-0.04541 -0.6015,-0.05644c-0.03947,0.00092 -0.07905,0.00138 -0.11875,0.00138c-0.1782,0 -0.35423,-0.00932 -0.52762,-0.02751c-2.51341,-0.26359 -4.47238,-2.38927 -4.47238,-4.97249c0,-1.62714 0.77725,-3.07275 1.98072,-3.98581c0.15393,-0.14902 0.32556,-0.28022 0.51928,-0.38919z" fill="#6c6c6c"/><path d="M477.49542,301.81701c0,5 -5,5 -5,5l-2.19909,-0.06456c-1,0.33333 -1.95608,0.85391 -3,1c-0.63176,0.08841 -1.29838,-0.56077 -1.88749,-0.31604c-0.63981,0.26579 -0.67578,1.30349 -1.28476,1.63386c-1.49791,0.81262 -3.16106,1.32686 -4.82774,1.68218c-1.04,0.22172 -2.13731,-0.12328 -3.19,0.0271c-4.67692,0.66811 -8.84032,1.03746 -13.61092,1.03746c-2.88508,0 -6.36275,-0.49256 -9.19909,-0.06456c-1.0423,0.15728 -1.95608,0.85391 -3,1c-0.63176,0.08841 -1.27084,-0.47939 -1.88749,-0.31604c-0.31932,0.08459 -0.16747,0.66149 -0.37788,0.91614c-0.99502,1.20425 -1.45018,2.77105 -2.28228,4.09312c-1.00441,1.59584 -3.04372,2.37486 -4,4c-1.1495,1.95351 -0.93252,4.58351 -2.27972,6.40632c-0.71434,0.96652 -2.24361,1.06603 -3,2c-0.56471,0.69729 -0.24471,1.8328 -0.72028,2.59368c-0.70306,1.12484 -1.73368,2.01738 -2.71772,2.90688c-0.24506,0.22152 -0.80268,0.06763 -0.91613,0.37788c-0.1318,0.36043 0.34501,0.70447 0.3806,1.08658c0.09274,0.99569 0,2 0,3c0,0 0,5 -5,5c-5,0 -5,-5 -5,-5c0,-1.7314 -0.07723,-6.78544 0.38061,-7.91342c0.80561,-1.98482 3.30621,-2.85377 4.36614,-4.71524c0.60017,-1.05403 0.52688,-2.45531 1.27972,-3.40632c0.74596,-0.94233 2.19068,-1.11149 3,-2c0.35089,-0.38522 0.07695,-1.04813 0.23012,-1.54617c0.42262,-1.37419 0.74589,-2.81745 1.49016,-4.04751c0.97615,-1.61329 3.0817,-2.35309 4,-4c0.51335,-0.92064 0.43852,-2.10789 1,-3c0.695,-1.10424 5.42028,-5.58654 6.33984,-5.99075c1.25865,-0.55326 2.76058,-0.06589 4.1125,-0.31604c1.0365,-0.19178 1.95559,-0.85748 3,-1c3.40364,-0.46448 7.33783,-0.06456 10.80091,-0.06456c4.43144,0 8.05697,-0.34364 12.38909,-0.96254c0.43155,-0.06165 3.1089,0.31226 3.98226,-0.29071c0.98793,-0.68207 1.59785,-1.9272 2.71524,-2.36615c2.24413,-0.88157 4.82515,-0.55359 7.1125,-1.31604l3.80091,-0.06456c0,0 5,0 5,5z" fill="#b3cedd"/></g></g></svg>