<svg version="1.1" xmlns="http://www.w3.org/2000/svg" xmlns:xlink="http://www.w3.org/1999/xlink" width="548.94785" height="419.54213" viewBox="0,0,548.94785,419.54213"><g transform="translate(28.48099,48.84493)"><g data-paper-data="{&quot;isPaintingLayer&quot;:true}" fill-rule="nonzero" stroke="none" stroke-width="0.5" stroke-linecap="butt" stroke-linejoin="miter" stroke-miterlimit="10" stroke-dasharray="" stroke-dashoffset="0" style="mix-blend-mode: normal"><path d="M-7.42252,362.9611c-0.90412,-5.84108 1.05614,-12.23129 0,-18c-0.18983,-1.03686 -0.83876,-1.95831 -1,-3c-0.63562,-4.10646 -0.07747,-8.80034 -0.07747,-12.96109c0,-2.08302 -0.08591,-6.76821 0.45673,-8.2961c0.4192,-1.18034 1.77961,-1.79356 2.43937,-2.85828c0.957,-1.54442 1.87231,-4.97458 2.18138,-6.80671c0.94042,-5.57461 -0.35449,-11.85897 -1.03252,-17.30581c-0.15533,-1.24775 0.19008,-2.52453 0.03252,-3.772c-0.38099,-3.01655 -2.49741,-5.96526 -3,-9c-0.83277,-5.02846 -0.07747,-10.8588 -0.07747,-15.96109c0,-6.33333 0,-12.66666 0,-19c0,-3.15532 -0.43585,-6.86157 0.07747,-9.96109c0.34445,-2.07986 1.64931,-3.92119 2,-6c0.33269,-1.97214 -0.30593,-4.02354 0,-6c0.16124,-1.04169 0.81017,-1.96314 1,-3c0.57742,-3.15388 -0.84158,-6.60932 0.17998,-9.77761c0.45742,-1.41867 1.43096,-2.60318 2.27359,-3.8471c-0.05202,-0.13781 -0.07388,-0.27844 -0.06211,-0.42147l-2.29548,-4.01709l2.33846,-4.09231l-1.58846,-0.90769l-0.2277,-0.9108l-0.2144,-0.19183l0.07397,-0.36987l-0.38187,-1.5275v-3.33333l0.23393,-0.9357l0.07397,-0.96166l0.21521,-0.64562l0.26007,-1.30037l0.06263,-0.13222v-0.1463l0.33333,-1.33333l0.11071,-0.20758l0.01804,-0.23457l0.02543,-0.0763v-0.02633l0.33437,-1.33747l0.29907,-1.34581l0.07477,-0.14953l0.0418,-0.16718l0.05851,-0.03344l0.03196,-0.06392l0.20586,-1.64685l0.27855,-0.71959l0.10426,-0.76455l0.34119,-0.85297l0.13026,-0.52105l0.07397,-0.96166l0.21521,-0.64562l0.18173,-0.90864l0.6285,-9.74172v-32.9822l-0.31095,-5.90802l-0.62875,-4.40124l0.02056,-0.19877l-0.06319,-0.18958l-0.66667,-8.66667l0.00931,-0.0548l-0.01663,-0.05304l-0.3051,-5.18673l-0.49523,-2.22854l-0.56879,-1.70636l-0.07397,-0.96166l-0.23393,-0.9357v-2l0.28709,-1.14835l-0.12072,-0.44264l0.39665,-0.66108l0.18698,-0.74793l0.39835,-0.22763l0.60901,-1.01501l1.33333,-1.33333l1.01501,-0.60901l0.22763,-0.39835l0.74793,-0.18698l0.66108,-0.39665l0.44264,0.12072l1.14835,-0.28709h1.60851l0.05608,-0.03738l0.16823,0.03738h0.16718l1.33747,0.33437l1.34581,0.29907l0.14953,0.07477l0.16718,0.0418l0.03344,0.05851l1.64984,0.82492l0.28787,0.24674l0.35705,0.12752l1.2207,0.8138l1.10602,0.31601l1.66481,0.27747l0.22427,0.09751h0.24455l0.34721,0.0868l2.27139,-0.20649l2.6246,-0.58325l0.28836,0.00759l0.26901,-0.10413l2.66667,-0.33333l0.10302,0.01249l0.09798,-0.03418l3.66667,-0.33333l0.02295,0.00357l0.02199,-0.00749l4,-0.33333l0.25127,0.04102l0.247,-0.06175h5.40588l2.38446,-0.47689l0.64562,-0.21521l1.18021,-0.09079l0.38175,-0.2545l0.75259,0.16724l0.76868,-0.05913l0.34192,0.30593l1.15551,0.25678l0.28528,0.14264l0.59547,0.19849l0.31907,0.20304l0.04122,-0.01124l0.10364,0.06218l0.32199,0.07155l0.66667,0.33333l0.7323,0.62769l0.82705,0.49623l0.66667,0.66667l0.49623,0.82705l0.62769,0.7323l0.49159,0.98318l0.05851,0.03344l0.0418,0.16718l0.07477,0.14953l0.29907,1.34581l0.33437,1.33747v0.16718l0.03738,0.16823l-0.03738,0.05608v4.96818l0.02543,0.0763l0.07397,0.96166l0.23393,0.9357v1.02633l0.02543,0.0763l0.07397,0.96166l0.23393,0.9357v2.24026l0.27303,1.91121l-0.04444,0.42956l0.10474,0.41896v1.5947l0.15419,0.61675v0.64958l0.17811,0.80149l0.33437,1.33747v0.16718l0.03738,0.16823l-0.03738,0.05608v5.97593l0.23699,2.36989l0.45511,1.36533l0.02908,0.37803l0.16231,0.34264l0.26007,1.30037l0.88187,2.64562l0.01804,0.23457l0.11071,0.20758l0.17359,0.69437l0.03878,0.07757l0.09368,0.42157l0.18205,0.28608l0.28608,0.18205l0.42157,0.09368l2.28528,1.14264l0.39547,0.13182l0.86667,0.06667l1,0.33333l0.36434,0.23185l0.42157,0.09368l0.66667,0.33333l0.28787,0.24674l0.35705,0.12752l0.48845,0.32564h0.18335l0.36782,0.09196l0.37639,-0.04562l2.66667,0.33333l0.55731,0.21573l0.59585,0.04583l0.0763,0.02543h1.02633l0.71658,0.17914h0.73863l0.61675,0.15419h1.20321l0.05608,-0.03738l0.16823,0.03738h0.16718l1.33333,0.33333h0.33333l0.71658,0.17914h0.73863l1.33333,0.33333l0.20758,0.11071l0.23457,0.01804l2,0.66667l0.36434,0.23185l0.42157,0.09368l1.11011,0.55506l1.27124,0.5085l2.83273,0.94424l0.36434,0.23185l0.42157,0.09368l1.33333,0.66667l0.28787,0.24674l0.35705,0.12752l2,1.33333l2.08013,2.28814l-0.05994,0.86909l0.58088,0.64922l-0.00803,0.10444c2.01822,0.96631 3.4121,3.02775 3.4121,5.41474c0,0.57626 -0.08123,1.13354 -0.23288,1.66102l0.25832,0.77495l0.07397,0.96166l0.23393,0.9357v1.27518l0.03738,0.05608l-0.03738,0.16823v0.16718l-0.33437,1.33747l-0.29907,1.34581l-0.07477,0.14953l-0.0418,0.16718l-0.05851,0.03344l-0.12282,0.24564l0.00633,0.09175l-1.04409,1.1485l-1.01013,1.17849l-0.09183,0.0051l-0.43974,0.29316l-0.5799,0.5799l-0.82705,0.49623l-0.7323,0.62769l-0.24585,0.12292l-0.75,0.875l-0.24703,0.01372l-0.01979,0.01979l-0.01507,0.01758l-0.49623,0.82705l-0.24656,0.24656l-0.33711,0.50566l-0.44219,0.40199l-0.30747,0.51244l-2.66667,2.66667l-0.37031,0.22219l-0.27233,0.33517l-0.95557,0.71668l-0.31879,0.47819l-0.12615,0.11468l-0.06616,0.15712l-1,1.33333l-0.33517,0.27233l-0.22219,0.37031l-0.66667,0.66667l-0.51244,0.30747l-0.40199,0.44219l-2,1.33333l-0.59106,0.21109l-0.5088,0.36747l-1.07876,0.4315l-0.24028,0.24028l-0.51244,0.30747l-0.40199,0.44219l-0.78335,0.52223l-1.46335,1.17068l-0.24137,0.11063l-0.1786,0.19646l-1,0.66667l-0.22734,0.08119l-0.10086,0.1765l-1.03946,0.25986l-0.61059,0.52336l-0.31651,0.15826l-0.03344,0.05851l-0.16718,0.0418l-0.14953,0.07477l-0.32199,0.07155l-0.10364,0.06218l-0.0791,-0.02157l-0.84108,0.18691l-0.48543,0.12136l-0.0635,0.03387l-1.10978,0.27745l-0.7814,0.26047l-0.62852,0.04835l-0.58556,0.29278l-0.42157,0.09368l-0.36434,0.23185l-2,0.66667l-0.96166,0.07397l-0.9357,0.23393h-0.02633l-1.67177,0.55726l-0.28528,0.14264l-0.64504,0.14334l-0.58303,0.31095l-1.05372,0.26343l-0.71821,0.61561l-1.66589,0.83294l-0.68919,0.45946l-0.96698,0.34535l-0.906,0.4832l-1.33333,0.33333h-0.73863l-0.71658,0.17914h-0.60851l-0.05608,0.03738l-0.16823,-0.03738h-0.16718l-1.33747,-0.33437l-1.34581,-0.29907l-0.14953,-0.07477l-0.16718,-0.0418l-0.0258,-0.04516l-1.53553,-0.51184l-0.07149,-0.01787l-1.14106,0.16301l-1.23125,0.82083l-0.35705,0.12752l-0.28787,0.24674l-0.66667,0.33333l-0.87494,0.19443l-0.82195,0.35737l-1.81751,0.30292l-4.15306,0.9584l-0.09058,-0.00165l-0.08188,0.03878l-1.26261,0.25252l-0.35005,0.22276l-1,0.33333l-0.96166,0.07397l-0.9357,0.23393h-1.36002l-0.11622,0.04151l-0.10345,0.10345l-1.6199,0.97194l-2.46353,1.53971l-2.18279,1.55913l-0.09241,0.03641l-0.06681,0.0735l-1,0.66667l-0.22734,0.08119l-0.10086,0.1765l-1.31118,0.32779l-1.2728,0.45457l-0.08245,-0.04122l-0.10288,0.03429l-0.96166,0.07397l-0.9357,0.23393h-2.55822c-0.00066,0.25538 -0.20561,0.44709 -0.56185,0.58137c-0.16426,1.7594 -1.06109,3.10464 -1.06109,3.10464c-2.23411,2.52149 -0.55534,6.30939 -1.06977,9.63289c-0.16124,1.04169 -0.81017,1.96314 -1,3c-0.36017,1.9673 0.32677,4.02687 0,6c-0.34445,2.07986 -1.64931,3.92119 -2,6c-0.4139,2.45356 0.07747,5.54339 0.07747,8.03891c0,6.33334 0,12.66667 0,19c0,4.42494 -0.80978,9.69795 -0.07747,14.03891c0.51566,3.05672 2.52026,5.89875 3,9c0.21546,1.39281 -0.14297,2.82959 0.03252,4.228c0.82115,6.54361 2.07554,14.00353 0.96748,20.69419c-0.4969,3.00041 -2.30651,8.60075 -3.81862,11.19329c-0.32474,0.55678 -1.22977,0.58856 -1.56063,1.14172c-0.14357,0.24003 0.4225,0.4263 0.45673,0.7039c0.12238,0.99248 0,2 0,3c0,3.43566 -0.69266,7.67874 -0.07748,11.03891c0.42285,2.30961 1.05135,4.61325 1.07748,6.9611c0.04911,4.41258 -0.86752,9.72359 -0.07747,14.03891c0.36514,1.99444 -11.5349,3.92591 -11.84505,1.92219zM17.09844,130.20897l-0.09167,-0.00733v0.06845z" fill="#999999"/><path d="" fill="#999999"/><path d="M43.22447,137.71396c0,-6 6,-6 6,-6h3.003c3.19053,0 7.30393,-0.5335 10.38753,0.16051c1.09184,0.24574 1.91726,1.23007 3.003,1.5015c0.97111,0.24278 2.03662,-0.26099 3.003,0c3.38115,0.91315 8.15834,3.45768 11.42809,4.80072c0.74268,0.30505 1.30415,1.02022 2.08542,1.20528c0.97405,0.23072 2.03662,-0.26099 3.003,0c4.49974,1.21525 8.81578,4.20345 11.87313,7.60286c0.48124,0.53507 1.15891,1.63618 1.76337,1.24564c0,0 6,0 6,6c0,6 -6,6 -6,6c-1.76636,-0.15224 -3.69117,0.29014 -5.2991,-0.45672c-4.14982,-1.92754 -6.33992,-7.67256 -11.09443,-8.71279c-0.97787,-0.21395 -2.03413,0.25157 -3.003,0c-2.91921,-0.75798 -5.62747,-2.17243 -8.42509,-3.29922c-1.78207,-0.71776 -3.21162,-2.29617 -5.08842,-2.70679c-0.97787,-0.21395 -2.03189,0.24278 -3.003,0c-1.08574,-0.27143 -1.92807,-1.19 -3.003,-1.5015c-1.93763,-0.5615 -5.57585,0.16051 -7.63049,0.16051h-3.003c0,0 -6,0 -6,-6z" data-paper-data="{&quot;index&quot;:null}" fill="#b3cedd"/><path d="M-1.82657,86.66892h1.5015c9.00901,0 18.01802,0 27.02703,0c3.66432,0 7.87366,-0.59336 11.4716,0.07748c1.5559,0.2901 2.95795,1.16508 4.5045,1.5015c2.34193,0.50943 5.64372,-0.07748 8.04792,-0.07748c0,0 6,0 6,6c0,6 -6,6 -6,6c-3.11263,0 -6.92838,0.48965 -9.9701,-0.07748c-1.5559,-0.2901 -2.95795,-1.16508 -4.5045,-1.5015c-3.72357,-0.80998 -8.66996,0.07748 -12.55242,0.07748c-8.00801,0 -17.51752,0 -25.52553,0c0,0 -6,0 -6,-6c0,-6 6,-6 6,-6z" data-paper-data="{&quot;index&quot;:null}" fill="#b3cedd"/><path d="M0.3879,146.11541c-3.53553,-3.53553 0,-7.07107 0,-7.07107l1.03553,-0.96447c2.55937,-3.4125 4.82383,-7.33534 8.70655,-9.44298c0.98756,-0.53608 2.27944,-0.3137 3.25781,-0.86637c0.76617,-0.4328 1.11104,-1.37322 1.75963,-1.96792c0.27963,-0.25639 3.81534,-2.83406 4.18568,-3.20261c2.05713,-2.04721 3.77421,-5.19927 5.11109,-7.74193c0.60455,-1.14983 0.78698,-2.56964 1.67261,-3.52004c1.82934,-1.96314 5.85426,-3.7659 8.50572,-4.19359c0.93121,-0.15021 2.40571,0.27188 2.76538,-0.6001c0,0 3.53553,-3.53553 7.07107,0c3.53553,3.53553 0,7.07107 0,7.07107c-1.20737,1.02795 -2.15643,2.47871 -3.62212,3.08386c-2.21678,0.91526 -5.78426,-0.87823 -7.10679,1.12245c-0.27862,0.42148 -0.11389,1.02204 -0.32739,1.47996c-1.59917,3.42985 -4.19943,7.56054 -6.88891,10.25807c-1.59344,1.5982 -6.23218,5.74219 -8.05469,6.82947c-1.11932,0.66777 -2.54871,0.6098 -3.74219,1.13363c-2.12901,0.93443 -3.97041,4.79297 -5.29345,6.55702l-1.96447,2.03553c0,0 -3.53553,3.53553 -7.07107,0z" fill="#6c6c6c"/><path d="M3.14993,196.74013c-4.16025,-2.7735 -1.38675,-6.93375 -1.38675,-6.93375l2.58777,-3.01396c2.75955,-1.48163 4.18654,-4.12241 5.99606,-6.60785c2.31972,-3.18622 4.29271,-5.96427 5.99967,-9.618c0.50481,-1.08053 0.6099,-2.33109 1.18463,-3.37611c1.40113,-2.54768 2.69065,-2.87143 3.90053,-5.30733c0.58096,-1.16967 0.61089,-2.61507 1.3902,-3.66308c3.51073,-4.7212 11.66927,-8.15045 16.62069,-10.98138c0,0 4.34122,-2.48069 6.82191,1.86052c2.48069,4.34122 -1.86052,6.82191 -1.86052,6.82191c-3.34903,1.91263 -6.59803,3.96912 -9.90822,5.94625c-1.15691,0.691 -2.77562,0.91815 -3.4711,2.07238c-0.41549,0.68955 -0.24792,1.61778 -0.6098,2.33692c-1.05112,2.08882 -2.98984,3.63433 -4.09947,5.69267c-0.43461,0.8062 -0.42841,1.79376 -0.81537,2.62389c-3.56152,7.64044 -8.78983,16.20601 -16.00426,20.77415l0.58777,-0.01396c0,0 -2.7735,4.16025 -6.93375,1.38675z" fill="#6c6c6c"/><path d="M51.26318,187.35337c-2.7735,-4.16025 1.38675,-6.93375 1.38675,-6.93375l1.70102,-1.12721c6.12042,-3.53825 9.61178,-10.80309 14.53694,-15.74807c0,0 3.53553,-3.53553 7.07107,0c3.53553,3.53553 0,7.07107 0,7.07107c-5.71376,5.687 -9.44445,12.93872 -16.46306,17.25193l-1.29898,0.87279c0,0 -4.16025,2.7735 -6.93375,-1.38675z" fill="#6c6c6c"/><path d="M285.58468,194.28273c-0.9394,0.26092 -1.21864,-0.68173 -1.21864,-0.68173c-0.72992,-2.47042 -1.78348,-4.74381 -2.52249,-7.20577c-0.21713,-0.72335 -0.74393,-2.76774 0.12771,-3.28392c0.64039,-0.37923 1.50386,0.17225 2.17967,0.484c0.56138,0.25896 1.71678,1.68561 2.23336,2.14484c0.54489,0.4844 1.1185,0.89587 1.68767,1.30476c-0.48056,-1.93324 -0.63172,-4.34341 -0.43541,-5.23083c0.13363,-0.60397 -0.12916,-1.52667 0.42222,-1.80705c1.4255,-0.72486 2.32793,0.63677 2.98578,1.4131c1.55677,1.83713 3.1279,3.90326 4.57701,5.94703c-0.01471,-0.04473 -0.02567,-0.08188 -0.03226,-0.11009c-0.58156,-2.48956 -0.72105,-4.99647 -0.65851,-7.51901l-0.01299,0.00506l-0.37393,-0.96084c-0.16433,-0.39467 -0.06131,-0.86623 0.28479,-1.15357c0.42493,-0.35278 1.0554,-0.29428 1.40817,0.13065c0.03992,0.04809 0.07458,0.0988 0.10404,0.15146l0.50104,0.8596c1.14096,1.97401 2.12724,4.38069 3.5856,6.12412c0.43597,0.52807 2.21112,2.6032 2.12082,3.27406c-0.20558,1.52728 -3.72718,2.87159 -4.95555,2.90609c-0.39526,0.0111 -0.79818,-0.04957 -1.20327,-0.15022c-0.0815,0.14284 -0.18015,0.27316 -0.30495,0.38438c-0.07185,0.06404 -2.33087,0.24525 -2.65012,0.29884c-1.20771,0.20274 -2.73295,0.51863 -3.80125,1.14841c-0.77877,0.45909 -1.98855,1.84745 -2.9717,1.79642c-0.36253,-0.01883 -0.73619,-0.11192 -1.07681,-0.26973zM291.16643,188.13097c-0.0041,0.0215 -0.00834,0.04341 -0.01271,0.06556c0.01502,-0.01177 0.03047,-0.02335 0.04629,-0.03474c-0.01123,-0.01023 -0.02243,-0.0205 -0.03358,-0.03083z" fill="#d0d0d0"/><path d="M304.45795,189.37708c4.54857,0 11.54679,-1.01807 15.72208,0.34254c0.45001,0.14665 0.85793,0.37932 1.23657,0.66477c1.37677,-0.0525 3.41148,0.37282 4.31043,3.06967c0.26617,0.7985 0.33319,1.49743 0.26627,2.1061c1.90227,2.72576 1.36616,4.38273 -2.80387,8.8931c-1.04751,1.133 -2.86057,1.15941 -4.30845,1.69289c-0.61587,0.22692 -6.43121,2.13379 -6.7022,2.17282c-3.24913,0.46792 -6.17804,-0.0321 -9.08661,-1.61396c-0.82824,-0.45045 -1.19155,-1.51493 -2,-2c-0.90388,-0.54233 -2.09612,-0.45767 -3,-1c-0.80845,-0.48507 -1.193,-1.51252 -2,-2c-0.77803,-0.46998 -1.79713,-0.38135 -2.61129,-0.78551c-1.82469,-0.9058 -3.50357,-2.15922 -5.44594,-2.77334c0,0 -4.26907,-1.42302 -2.84605,-5.6921c1.42302,-4.26907 5.6921,-2.84605 5.6921,-2.84605c1.35552,0.46785 2.67424,1.00214 3.96128,1.58966c0.81999,-1.1047 2.13424,-1.82058 3.6157,-1.82058c1,0 5,0 6,0z" fill="#999999"/><path d="M248.63993,168.10459l-3.45991,2.97548c-3.56807,0.25883 -7.14052,0.50142 -10.72208,0.34254c-1.57661,-0.06994 -3.25959,0.25053 -4.72208,-0.34254c-1.40963,-0.57164 -2.3066,-1.98365 -3.45991,-2.97548c0,0 -3.18198,-3.18198 0,-6.36396c3.18198,-3.18198 6.36396,0 6.36396,0c1.05129,1.99423 6.65444,0.37009 9.09594,1.02452l0.54009,-1.02452c0,0 3.18198,-3.18198 6.36396,0c3.18198,3.18198 0,6.36396 0,6.36396z" data-paper-data="{&quot;index&quot;:null}" fill="#999999"/><path d="M153.20755,194.21575c1.42302,-4.26907 5.6921,-2.84605 5.6921,-2.84605l3,1c0.96086,0.3459 2.02786,1.71071 2.8549,1.11162c0.58086,-0.42077 0.73555,-1.31113 1.35629,-1.67047c1.87091,-1.08307 6.21601,-2.02143 8.27438,-2.53771c0,0 4.36564,-1.09141 5.45705,3.27423c1.09141,4.36564 -3.27423,5.45705 -3.27423,5.45705c-1.91139,0.47614 -4.05554,0.4178 -5.72562,1.46229c-0.99582,0.6228 -1.52611,1.96827 -2.64371,2.32953c-3.8838,1.25542 -5.74298,0.18937 -9.1451,-0.88838l-3,-1c0,0 -4.26907,-1.42302 -2.84605,-5.6921z" data-paper-data="{&quot;index&quot;:null}" fill="#999999"/><path d="M182.93694,186.23735c0,6 -6,6 -6,6h-3.003c-1.54342,0 -3.14506,-0.5901 -4.62749,-0.16051c-1.07493,0.3115 -1.91726,1.23007 -3.003,1.5015c-0.97111,0.24278 -2.03189,-0.24278 -3.003,0c-1.08574,0.27143 -1.91116,1.25576 -3.003,1.5015c-1.42582,0.3209 -2.92101,0.107 -4.38152,0.16051c0,0 -6,0 -6,-6c0,-6 6,-6 6,-6c1.59818,0.15791 3.06948,-0.95149 4.62749,-1.341c0.97111,-0.24278 2.03189,0.24278 3.003,0c1.08574,-0.27143 1.91116,-1.25576 3.003,-1.5015c0.87597,-0.19715 6.0062,-0.16051 7.38452,-0.16051h3.003c0,0 6,0 6,6z" fill="#b3cedd"/><path d="M253.50751,157.70881c0,6 -6,6 -6,6h-1.5015c-2.05464,0 -5.69286,-0.72201 -7.63049,-0.16051c-1.07493,0.3115 -1.91116,1.25576 -3.003,1.5015c-0.87597,0.19715 -6.0062,0.16051 -7.38452,0.16051c0,0 -6,0 -6,-6c0,-6 6,-6 6,-6c1.54342,0 3.14506,0.5901 4.62749,0.16051c1.07493,-0.3115 1.91116,-1.25576 3.003,-1.5015c3.0836,-0.69401 7.197,-0.16051 10.38753,-0.16051h1.5015c0,0 6,0 6,6z" fill="#b3cedd"/><path d="M330.08408,186.23735c0,6 -6,6 -6,6l-1.62449,-0.16051c-3.58479,1.79239 -6.43694,1.66201 -10.38753,1.66201c-7.00701,0 -14.01401,0 -21.02102,0c0,0 -6,0 -6,-6c0,-6 6,-6 6,-6c5.50551,0 11.01101,0 16.51652,0c4.54871,0 8.11734,0.66783 12.135,-1.341l4.38152,-0.16051c0,0 6,0 6,6z" fill="#b3cedd"/><path d="M470.11011,300.21543c-0.00509,-0.01048 -0.0102,-0.02094 -0.01535,-0.03138c-0.10513,0.37912 -0.18637,0.7541 -0.05148,1.09917c0.11472,0.29347 0.39142,0.46423 0.69264,0.61803c-0.16393,-0.57853 -0.36292,-1.14398 -0.6258,-1.68582zM495.18328,369.94588c-5.36656,2.68328 -8.04985,-2.68328 -8.04985,-2.68328l-1.63344,-4.68329c0.1015,-2.67122 -0.84016,-4.54681 -1.6921,-7.10263c-0.67551,-2.18905 -2.31088,-3.99042 -3.05045,-6.15866c-0.32283,-0.94646 0.31205,-2.04994 0,-3c-0.30122,-0.91708 -1.3596,-1.42618 -1.74453,-2.31138c-0.54807,-1.26036 -0.46413,-2.7344 -1,-4c-0.56192,-1.32712 -1.85619,-2.30385 -2.25547,-3.68862c-0.31845,-1.10446 0.5265,-2.3407 0.19928,-3.4426c-0.18349,-0.61789 -1.22463,-0.59167 -1.56063,-1.14172c-0.65091,-1.06556 -0.72497,-2.40276 -1.28598,-3.51828c-0.5741,-1.14155 -1.59855,-2.03232 -2.09719,-3.20878c-0.46152,-1.08886 -0.23488,-2.39904 -0.73412,-3.47113c-0.2572,-0.55232 -1.03159,-0.68192 -1.41886,-1.15226c-0.76394,-0.92782 -1.25508,-2.05685 -2,-3c-1.77535,-2.2478 -2.85857,-1.69298 -4.58114,-4.84774c-0.65864,-1.20626 -0.38654,-2.77014 -1,-4c-0.52537,-1.05325 -1.87975,-1.56935 -2.32207,-2.66009c-0.44633,-1.1006 0.17838,-2.43139 -0.19928,-3.5574c-0.38216,-1.13947 -1.632,-1.85588 -2,-3c-0.70216,-2.18304 -0.45481,-4.6021 -1.17998,-6.77761c0,-4.57206 -1.87477,-7.56249 -3.62075,-11.66499c-0.77715,-1.82605 -0.95426,-3.8874 -1.84661,-5.66c-1.22246,-2.42831 -3.42556,-4.34171 -4.35266,-6.8974c-0.27858,-0.76794 0.48933,-1.67892 0.19928,-2.4426c-0.22886,-0.60256 -1.22901,-0.58902 -1.56063,-1.14172c-1.33439,-2.22399 -1.81169,-4.88362 -3.08555,-7.14282c-1.28897,-2.28601 -3.70869,-3.78891 -5.03174,-6.05537c-0.69288,-1.18694 -0.41593,-2.75591 -1,-4c-0.25892,-0.55151 -1.03433,-0.67966 -1.41886,-1.15226c-0.63561,-0.7812 -0.88724,-1.85237 -1.60258,-2.56129c-0.85366,-0.846 -2.15341,-1.14693 -3,-2c-0.98428,-0.9918 -1.52555,-2.34677 -2.39742,-3.43871c-0.75252,-0.94246 -2.22791,-1.46682 -2.46385,-2.64955c-0.09152,-0.45874 -0.16001,-0.91992 -0.21015,-1.38303l-0.37805,0.12601l-0.43822,-1.31466c-6.06685,-7.6123 -20.63852,-18.50625 -22.22558,-34.19659c-1.63717,-16.18568 -1.25928,-196.99997 -1.22743,-202.38006c-0.68458,-5.46302 69.48542,-63.97674 101.23835,-0.55796c29.95213,59.82211 16.64462,247.98303 14.66098,247.27488c-1.35193,-0.48263 -2.88278,-0.04815 -4.29602,-0.29995c-5.29543,-0.94351 -10.0577,-1.98777 -15.49236,-2.11599c0.3211,1.49794 0.26745,3.20418 0.47238,4.69297c0.62682,4.55367 -1.52346,6.87653 -2.07747,10.9611c-0.4201,3.09726 0.07747,6.92328 0.07747,10.03891c0,6.66667 0,13.33333 0,20c0,2.86285 0.87402,5.86928 0.11987,8.60825c0.69904,1.03951 1.49309,2.17833 2.27002,3.75565c1.21568,2.46808 1.62749,5.34905 2.37083,7.95858c0.43712,1.5345 1.94923,5.43291 2.16181,6.71643c0.10355,0.62525 0.07747,7.35435 0.07747,7.96109c0,7.19969 -0.43767,13.64639 -2.201,20.54001c-0.95977,3.75214 -0.13566,7.75559 -1.799,11.26178v3.19822c0,0.73391 -0.13177,1.43705 -0.37294,2.08704c0.21353,1.22994 0.34547,2.50859 0.37294,3.91296l0.36656,-0.68328c0,0 2.68328,5.36656 -2.68328,8.04985zM418.60937,238.33207c-0.13754,0.10382 -0.65275,-0.21973 -0.48596,-0.17639c0.17738,0.04609 0.35479,0.09205 0.53223,0.13794c-0.01475,0.01345 -0.03015,0.02628 -0.04627,0.03845zM423.71789,65.03914c-0.00311,0.09656 -0.00611,0.19315 -0.00901,0.28977c0.01537,-0.04251 0.03088,-0.0849 0.04654,-0.12717c-0.01251,-0.0542 -0.02502,-0.1084 -0.03752,-0.1626z" fill="#999999"/><path d="M449.39267,144.91778c-0.11747,1.08325 -0.77657,4.1221 -4.47452,4.1221c-4.5,0 -4.5,-4.5 -4.5,-4.5l0.75577,-3.49615c0.56727,-0.82698 1.13454,-1.65395 1.70181,-2.48093c1.46322,-4.6279 4.07722,-9.7301 4.57613,-14.57274c0.58809,-5.70822 0.17694,-9.48243 3.98624,-14.30313c3.56911,-4.51673 9.25308,-7.26772 13.29806,-11.32903c1.99597,-2.00403 3.96797,-4.03255 6,-6c0.39164,-0.37919 1.04325,-0.53766 1.26608,-1.03516c0.46541,-1.03908 0.30263,-2.27546 0.69542,-3.34411c0.85897,-2.337 2.17346,-4.49656 2.95141,-6.86177c0,0 1.17464,-3.52391 4.59112,-3.10127c-0.06142,-1.73586 -0.14316,-3.47297 -0.25188,-5.21253c-0.32742,-5.23865 -1.52797,-12.65547 -0.49298,-18.0931c0.23976,-1.25966 1.02761,-2.36247 1.33826,-3.60655c0.72851,-2.91754 0.97047,-5.94721 1.7711,-8.84579c1.32326,-4.79064 4.0721,-33.9198 6.27103,-38.19482c0.47428,-0.92207 1.66974,-6.10739 1.72188,-6.28106c1.52801,-5.09004 10.13405,-2.46365 8.64109,2.51629c-0.78168,2.60738 -1.06474,5.24134 -2.27812,7.71894c-1.16043,2.36949 -2.86263,29.95679 -3.93734,32.36637c-1.86169,4.17404 -2.44079,8.80988 -3.55062,13.24347c-0.24018,0.95949 -0.9241,1.77593 -1.13165,2.743c-0.92989,4.33269 0.38623,11.97423 0.62983,15.87185c0.50196,8.03142 0.44868,16.00448 0.44047,24.04938c0.67071,6.03611 0.99934,12.11883 1.0042,18.19209c0.00314,3.9259 0.51222,7.89293 -0.05542,11.77758c-0.69148,4.7322 -3.93786,8.13954 -5.12135,12.53732c-0.65172,2.42176 -1.44864,4.81678 -1.85426,7.29168c-0.22487,1.37205 0.19548,2.79814 -0.02439,4.171c-0.44118,2.75473 -2.30402,5.09267 -3.18546,7.73959c-0.50356,1.51217 -0.52123,3.14822 -0.90718,4.69459c-0.71046,2.84655 -2.42313,5.68404 -2.90735,8.56581c-0.4862,2.89354 0.46061,6.07431 0,9c-0.278,1.76577 -0.98745,3.49225 -0.94189,5.27918c0,2.25316 0.06786,9.38311 -0.34254,10.72208c-0.81569,2.66128 -4.93327,5.0933 -6.24156,7.49507c-0.775,1.42276 -0.3357,5.53549 -0.47401,6.50368c-0.25278,1.76955 -0.98745,3.49225 -0.94189,5.27918v3c0,0 0,4.5 -4.5,4.5c-4.5,0 -4.5,-4.5 -4.5,-4.5v-3c0.03541,-2.26759 0.73737,-4.47575 1.05811,-6.72082c0.45342,-3.17383 0.13843,-6.6061 1.52599,-9.49632c0.51777,-1.07848 1.69594,-1.69573 2.43586,-2.63581c0.74333,-0.94441 1.21701,-2.08821 2,-3c0.34368,-0.40021 1.20126,-0.35574 1.32258,-0.86913c0.55856,-2.36356 -0.34254,-4.84926 -0.34254,-7.27792c0.03541,-2.26759 0.65977,-4.48821 1.05811,-6.72082c0.51412,-2.88155 -0.4836,-6.08367 0,-9c0.53486,-3.22545 2.29972,-6.26769 3.09265,-9.43419c0.4386,-1.75152 0.52139,-3.59262 1.09282,-5.30541c0.72409,-2.17039 2.54507,-3.98833 2.81454,-6.26041c0.49919,-4.20901 0.99554,-8.45107 2.12135,-12.53732c1.11901,-4.06154 4.29656,-7.24227 4.87865,-11.46268c0.47058,-3.41193 -0.06097,-6.88828 -0.06079,-10.33251c0.00031,-5.9085 -0.33797,-11.82545 -0.99043,-17.69782c-0.00086,-0.9085 -0.00071,-1.81615 -0.00049,-2.72312c-0.13614,0.58772 -0.30916,1.16054 -0.59049,1.69141c-0.62947,1.18783 -1.79583,2.00194 -2.73392,2.96484c-2.7348,2.8071 -5.27852,5.83771 -8.32903,8.29806c-2.02645,1.63441 -4,3.33333 -6,5c-2.10692,1.75577 -4.57567,2.63028 -5.73764,5.34045c-1.26136,2.94199 -0.2449,4.30502 -0.64903,7.72933c-0.68735,5.82422 -3.51808,11.90552 -5.42387,17.42726c-0.52263,0.80027 -1.04527,1.60054 -1.5679,2.40082z" fill="#6c6c6c"/><path d="M430.90569,118.5648c-4.02492,-2.01246 -2.01246,-6.03738 -2.01246,-6.03738l0.65928,-1.07895c0.90913,-3.49599 0.86737,-6.0196 0.92375,-9.62941c0.64118,-1.92354 0.6505,-4.00276 1,-6c0.36339,-2.07663 1.67477,-3.91705 2,-6c0.40179,-2.57331 0.3226,-5.38317 1.61396,-7.64497c0.31763,-0.55631 4.91752,-5.13281 5.46214,-5.46214c1.23425,-0.74634 7.01438,-1.46136 7.91008,-3.20932c2.54634,-4.96918 3.89064,-10.46804 5.91865,-15.67032c1.73686,-4.45543 15.85548,-61.1067 15.85548,-61.1067l8.87426,-3.05129c-5.44812,13.97562 -10.89625,53.45124 -16.34437,67.42686c-0.63455,1.62777 -6.54558,16.93354 -7.15684,17.87116c-3.24137,4.97196 -9.73364,3.36669 -12.86355,7.93333c-0.72482,1.05753 -0.24807,3.56659 -0.38604,4.35503c-0.36339,2.07663 -1.67477,3.91705 -2,6c-0.31279,2.00332 -0.35882,4.07646 -1,6c0.09679,3.79634 -0.16659,6.61704 -1.07625,10.37059l-1.34072,2.92105c0,0 -2.01246,4.02492 -6.03738,2.01246z" fill="#6c6c6c"/><path d="M415.91815,97.03988c-4.5,0 -4.5,-4.5 -4.5,-4.5l0.23093,-2.42302c1.09427,-3.25009 2.36215,-6.94095 2.82718,-10.2978c0.43441,-3.1358 0.3364,-6.36009 1.09265,-9.43419c0.46849,-1.90441 1.63944,-3.62301 1.90735,-5.56581c0.72012,-5.22199 -0.84627,-10.76934 0,-16c0.33671,-2.08112 1.58096,-3.93388 2,-6c0.90968,-4.48528 -0.02085,-35.35579 1.06227,-39.81307c0.49234,-2.0261 2.00704,-3.88494 1.87962,-5.96611h9c-0.04013,1.34463 0.22291,2.7332 -0.12038,4.03389c-0.38042,1.44136 -1.62723,2.55665 -2,4c-0.27831,1.07762 0.21124,2.22938 0.10505,3.33727c-0.19345,2.01834 -0.79674,29.48263 -1,31.5c-0.14535,1.44265 0.238,2.92715 -0.04277,4.34966c-0.40823,2.06828 -1.6423,3.92238 -2,6c-0.88789,5.15715 0.76093,10.79308 0,16c-0.54388,3.72171 -2.55803,6.89202 -2.96379,10.7226c-0.58267,5.50068 -1.43838,10.62259 -3.20903,15.97961l0.23093,-0.42302c0,0 0,4.5 -4.5,4.5z" fill="#6c6c6c"/><path d="M442.91815,178.03988c-3.73823,0 -4.37105,-3.10541 -4.47817,-4.1568c-1.83045,-2.9571 -3.37171,-6.13195 -3.96372,-9.62238c-0.17603,-1.03783 0.65846,-2.68715 -0.28958,-3.14464c-0.82212,-0.39673 -1.85944,-0.26571 -2.63432,-0.74825c-5.16099,-3.2139 -8.00843,-9.32469 -10.46214,-14.46214c-0.79266,-1.65962 -3.30066,-1.65463 -4.80327,-2.7152c-4.18328,-2.95263 -6.189,-8.23654 -8.39373,-12.63813c0,0 -2.01246,-4.02492 2.01246,-6.03738c4.02492,-2.01246 6.03738,2.01246 6.03738,2.01246c1.36933,2.74394 2.87257,7.68498 5.60627,9.36187c2.53697,1.55621 5.55556,2.80195 7.19673,5.2848c0.66167,1.001 0.68058,2.31411 1.21449,3.38871c1.1994,2.41404 3.87746,6.74821 6.32337,8.14915c1.03866,0.59491 2.49349,0.43198 3.36568,1.25175c4.74659,4.46128 3.44068,10.87258 7.01275,16.08003l0.75577,3.49615c0,0 0,4.5 -4.5,4.5z" fill="#6c6c6c"/><path d="M447.42123,-3.48764c4.47248,0.49695 -4.4725,-0.49694 -0.00002,0z" fill="#6c6c6c"/><path d="" fill="#6c6c6c"/><path d="" fill="#6c6c6c"/><path d="M90.27092,-45.97568c2.62597,1.63214 6.11494,1.73417 9.06079,2.28235c5.32794,0.99143 8.6466,2.15675 14.17411,1.44802c0,0 2.33766,-0.29221 4.26647,0.95439c3.53948,0.02116 7.45749,0.50133 10.93161,0.05728c4.80683,-0.6144 11.11572,-3.9884 14.28893,-7.35409c0.11437,-0.12131 -0.43528,-0.03856 -0.45673,-0.2039c-0.13259,-1.02189 199.33075,12.88357 199.99083,21.66819c0.77374,10.29728 -1.11169,20.51497 -3.10733,30.5085c0,0 -0.20499,1.02498 -0.87167,2.13375c-1.04616,4.22864 -5.79788,4.22864 -5.79788,4.22864c-9.05913,0 -18.17768,-0.31446 -27.22812,-0.00617c-3.2411,0.11041 -6.40195,1.04703 -9.61719,1.47034c-4.04044,0.53195 -8.2921,0.32808 -12.35582,0.52837c-3.34589,0.16491 -6.653,0.85924 -10,1c-11.88601,0.49987 -23.90307,0.00745 -35.79888,0.00745c-29.34974,0 -58.84248,0.88313 -88.17624,-0.00259c-15.79508,-0.47692 -31.51248,-0.99741 -47.32376,-0.99741c-14.66666,0 -29.33334,0 -44,0c-15.21695,0 -29.97331,0.06239 -45.013,-2.08614c-3.28269,-0.69986 -6.13445,-0.72509 -9.50404,-1.60882c-1.60201,-0.42016 -3.21699,-0.80858 -4.77935,-1.35814c-0.02206,-0.00776 -0.02157,-0.02804 -0.00812,-0.05417c-3.44655,3.31837 -8.26953,2.60726 -12.69548,2.60726h-1c0,0 -2.40025,0 -4.16449,-1.51813c-4.5075,-0.44748 -5.04881,-5.31928 -5.04881,-5.31928c-0.86445,-7.91627 -1.1516,-15.87891 -1.52752,-23.83079c-0.12954,-2.74027 -1.1055,-5.37892 -1.46422,-8.0987c-0.60768,-4.6073 -1.10676,-9.57946 -1.52451,-14.23822c-0.4789,-5.34066 115.01648,-4.53878 118.75042,-2.21799z" fill="#999999"/><path d="M476.03553,265.11485c-3.53553,3.53553 -7.07107,0 -7.07107,0l-2,-2c-5.00448,-5.00448 -9.93329,-9.86823 -14.33118,-15.36559c-1.57306,-1.96632 -3.47931,-3.73072 -4.62487,-5.97319c-2.10113,-4.11304 -1.75527,-8.50406 -3.25184,-12.61562c-1.33333,-4 -2.66667,-8 -4,-12c-0.64554,-1.93662 -1.15155,-5.56031 -2.79212,-7.0456c-0.89095,-0.80663 -2.1529,-1.14743 -3,-2c-0.96188,-0.96809 -1.47866,-2.29994 -2.33118,-3.36559c-2.50431,-3.13038 -5.49794,-5.83944 -8,-9c-2.99663,-3.78531 -7.34298,-6.85264 -8.91875,-11.72102c-0.4572,-1.41255 -0.14303,-2.96595 -0.21454,-4.44892c0,0 0,-5 5,-5c5,0 5,5 5,5c-0.38607,2.79124 2.6049,5.53383 4.53553,7.46447c1.6253,1.6253 2.9045,3.56343 4.33118,5.36559c1.7401,2.19807 4.24351,3.80439 6,6c0.64937,0.81172 0.93107,1.9021 1.66882,2.63441c0.85297,0.84669 2.17702,1.12413 3,2c5.24351,5.58046 6.82922,15.81842 9.20788,22.9544c1.20298,3.81498 0.99234,7.73662 2.74816,11.38438c0.75961,1.5781 2.28104,2.6592 3.37513,4.02681c4.18867,5.23584 8.89673,9.86231 13.66882,14.63441l2,2c0,0 3.53553,3.53553 0,7.07107z" fill="#6c6c6c"/><path d="M488.54856,302.5233c1.04267,0.70152 1.95144,1.92438 1.95144,4.05601c0,5 -5,5 -5,5l-5.74342,-3.41886c-0.66455,-2.00098 -0.64333,-4.24261 -1.60758,-6.11764c-0.4029,-0.78346 -1.46213,-1.07167 -1.90225,-1.83484c-1.05322,-1.82625 -0.86989,-4.22031 -2,-6c-0.5054,-0.7959 -1.51493,-1.19155 -2,-2c-0.54233,-0.90388 -0.60224,-2.02384 -1,-3c-0.51924,-1.27429 -2.72755,-0.77072 -3.78171,-1.65512c-1.3369,-1.12161 -2.08352,-2.80002 -3.12528,-4.20003c0,0 -2.7735,-4.16025 1.38675,-6.93375c4.16025,-2.7735 6.93375,1.38675 6.93375,1.38675c0.29157,0.59999 0.33506,1.40783 0.87472,1.79997c0.72589,0.52745 1.85817,0.20635 2.59369,0.72028c1.40062,0.97865 2.64654,2.22356 3.6246,3.6246c0.60338,0.86432 0.45767,2.09612 1,3c0.48507,0.80845 1.52873,1.18342 2,2c1.05378,1.82592 0.87209,4.21891 2,6c0.53764,0.84898 1.65514,1.26298 2.09775,2.16516c0.83304,1.69802 1.24007,3.56129 1.69756,5.40748z" fill="#6c6c6c"/></g></g></svg>