<svg version="1.1" xmlns="http://www.w3.org/2000/svg" xmlns:xlink="http://www.w3.org/1999/xlink" width="516.37092" height="380.74611" viewBox="0,0,516.37092,380.74611"><g transform="translate(29.84808,11.60694)"><g data-paper-data="{&quot;isPaintingLayer&quot;:true}" fill-rule="nonzero" stroke="none" stroke-linecap="butt" stroke-linejoin="miter" stroke-miterlimit="10" stroke-dasharray="" stroke-dashoffset="0" style="mix-blend-mode: normal"><path d="M260.99157,54.2768c-0.9738,-0.04746 -0.94273,-1.0301 -0.94273,-1.0301c0.08326,-2.57465 -0.20266,-5.06394 -0.13071,-7.63342c0.02114,-0.75494 0.16338,-2.86132 1.15305,-3.07748c0.72712,-0.15882 1.37358,0.63604 1.91721,1.14434c0.45158,0.42224 1.10022,2.13966 1.44635,2.73794c0.36509,0.63108 0.78037,1.20192 1.19225,1.76894c0.1512,-1.98632 0.76497,-4.32194 1.23018,-5.10272c0.31662,-0.5314 0.35706,-1.48994 0.9686,-1.58287c1.58106,-0.24026 2.00997,1.33596 2.39058,2.27967c0.90071,2.23324 1.74309,4.68837 2.47665,7.08395c0.00009,-0.04709 0.00135,-0.0858 0.00396,-0.11465c0.23012,-2.54621 0.88536,-4.96999 1.73732,-7.34512l-0.01392,0.00072l-0.05309,-1.02966c-0.03199,-0.42631 0.21396,-0.84163 0.63283,-1.00567c0.51425,-0.20139 1.09442,0.05223 1.29581,0.56648c0.02279,0.0582 0.03976,0.11722 0.05118,0.17647l0.20557,0.97349c0.46294,2.23254 0.6431,4.82721 1.47982,6.94056c0.24797,0.63831 1.28123,3.16609 0.98471,3.77461c-0.67504,1.38534 -4.44068,1.55508 -5.61768,1.20189c-0.37874,-0.11365 -0.74219,-0.29785 -1.09514,-0.52068c-0.12225,0.11 -0.25685,0.20271 -0.41028,0.2691c-0.08832,0.03822 -2.28988,-0.49953 -2.6098,-0.54896c-1.21024,-0.18698 -2.75749,-0.36632 -3.96957,-0.1041c-0.88356,0.19115 -2.46831,1.12908 -3.38565,0.77172c-0.33826,-0.13177 -0.66374,-0.33756 -0.93752,-0.59441zM268.22352,50.19037c-0.01064,0.01911 -0.02155,0.03859 -0.03267,0.05826c0.01797,-0.00645 0.03627,-0.01259 0.05487,-0.01844c-0.00745,-0.01324 -0.01484,-0.02651 -0.0222,-0.03981z" fill="#d0d0d0" stroke-width="0.5"/><path d="M336.09657,83.33902c-0.31493,-0.20434 -0.59264,-0.47111 -0.80156,-0.76797c-0.56657,-0.80511 -0.03529,-2.56831 -0.06121,-3.47194c-0.03556,-1.2396 -0.58009,-2.69893 -1.05136,-3.82922c-0.12459,-0.29878 -1.17373,-2.30759 -1.15776,-2.4025c0.02772,-0.16486 0.08552,-0.31773 0.16306,-0.46277c-0.30085,-0.28935 -0.5667,-0.59813 -0.76772,-0.93864c-0.6247,-1.05822 -1.36134,-4.755 -0.17789,-5.74205c0.51984,-0.43356 3.22147,-0.03548 3.90059,0.05246c2.2522,0.30646 4.81456,-0.13976 7.09301,-0.22473l0.9944,-0.03345c0.06026,-0.00309 0.12163,-0.00075 0.18359,0.00745c0.54751,0.07243 0.93265,0.57502 0.86021,1.12252c-0.05899,0.44597 -0.40338,0.7842 -0.82494,0.85518l-1.01243,0.19495l-0.00263,-0.01369c-2.10212,1.39578 -4.29856,2.61219 -6.71565,3.44516c-0.02739,0.00944 -0.06468,0.01995 -0.11037,0.0313c2.50153,0.13875 5.08693,0.36891 7.47086,0.70881c1.00739,0.14363 2.64045,0.18272 2.78567,1.77533c0.05616,0.616 -0.86483,0.88474 -1.30497,1.31937c-0.64672,0.6386 -2.7675,1.79364 -4.65986,2.41595c0.64913,0.26416 1.3028,0.53071 2.00292,0.73411c0.66375,0.19284 2.48649,0.41147 3.00457,0.74885c0.62366,0.40614 1.55017,0.84352 1.57003,1.58752c0.02704,1.01264 -1.98404,1.655 -2.71197,1.85625c-2.47754,0.68497 -4.96289,1.00329 -7.44275,1.70047c0,0 -0.94664,0.2654 -1.22584,-0.66873zM338.33291,75.33907c-0.01468,-0.00396 -0.02934,-0.00795 -0.04397,-0.01202c-0.00122,0.01945 -0.00281,0.0387 -0.00477,0.05769c0.01643,-0.01551 0.03273,-0.03077 0.04874,-0.04567z" data-paper-data="{&quot;index&quot;:null}" fill="#d0d0d0" stroke-width="0.5"/><path d="M238.3249,144.2768c-0.9738,-0.04746 -0.94273,-1.0301 -0.94273,-1.0301c0.08326,-2.57465 -0.20266,-5.06394 -0.13071,-7.63342c0.02114,-0.75494 0.16338,-2.86132 1.15305,-3.07748c0.72712,-0.15882 1.37358,0.63604 1.91721,1.14434c0.45158,0.42224 1.10022,2.13966 1.44635,2.73794c0.36509,0.63108 0.78037,1.20192 1.19225,1.76894c0.1512,-1.98632 0.76497,-4.32194 1.23018,-5.10272c0.31662,-0.5314 0.35706,-1.48994 0.9686,-1.58287c1.58106,-0.24026 2.00997,1.33596 2.39058,2.27967c0.90071,2.23324 1.74309,4.68837 2.47665,7.08395c0.00009,-0.04709 0.00135,-0.0858 0.00396,-0.11465c0.23012,-2.54621 0.88536,-4.96999 1.73732,-7.34512l-0.01392,0.00072l-0.05309,-1.02966c-0.03199,-0.42631 0.21396,-0.84163 0.63283,-1.00567c0.51425,-0.20139 1.09442,0.05223 1.29581,0.56648c0.02279,0.0582 0.03976,0.11722 0.05118,0.17647l0.20557,0.97349c0.46294,2.23254 0.6431,4.82721 1.47982,6.94056c0.24797,0.63831 1.28123,3.16609 0.98471,3.77461c-0.67504,1.38534 -4.44068,1.55508 -5.61768,1.20189c-0.37874,-0.11365 -0.74219,-0.29785 -1.09514,-0.52068c-0.12225,0.11 -0.25685,0.20271 -0.41028,0.2691c-0.08832,0.03822 -2.28988,-0.49953 -2.6098,-0.54896c-1.21024,-0.18698 -2.75749,-0.36632 -3.96957,-0.1041c-0.88356,0.19115 -2.46831,1.12908 -3.38565,0.77172c-0.33826,-0.13177 -0.66374,-0.33756 -0.93752,-0.59441zM245.55685,140.19037c-0.01064,0.01911 -0.02155,0.03859 -0.03267,0.05826c0.01797,-0.00645 0.03627,-0.01259 0.05487,-0.01844c-0.00745,-0.01324 -0.01484,-0.02651 -0.0222,-0.03981z" fill="#d0d0d0" stroke-width="0.5"/><path d="M143.09053,136.54243c-0.9738,-0.04746 -0.94273,-1.0301 -0.94273,-1.0301c0.08326,-2.57465 -0.20266,-5.06394 -0.13071,-7.63342c0.02114,-0.75494 0.16338,-2.86132 1.15305,-3.07748c0.72712,-0.15882 1.37358,0.63604 1.91721,1.14434c0.45158,0.42224 1.10022,2.13966 1.44635,2.73794c0.36509,0.63108 0.78037,1.20192 1.19225,1.76894c0.1512,-1.98632 0.76497,-4.32194 1.23018,-5.10272c0.31662,-0.5314 0.35706,-1.48994 0.9686,-1.58287c1.58106,-0.24026 2.00997,1.33596 2.39058,2.27967c0.90071,2.23324 1.74309,4.68837 2.47665,7.08395c0.00009,-0.04709 0.00135,-0.0858 0.00396,-0.11465c0.23012,-2.54621 0.88536,-4.96999 1.73732,-7.34512l-0.01392,0.00072l-0.05309,-1.02966c-0.03199,-0.42631 0.21396,-0.84163 0.63283,-1.00567c0.51425,-0.20139 1.09442,0.05223 1.29581,0.56648c0.02279,0.0582 0.03976,0.11722 0.05118,0.17647l0.20557,0.97349c0.46294,2.23254 0.6431,4.82721 1.47982,6.94056c0.24797,0.63831 1.28123,3.16609 0.98471,3.77461c-0.67504,1.38534 -4.44068,1.55508 -5.61768,1.20189c-0.37874,-0.11365 -0.74219,-0.29785 -1.09514,-0.52068c-0.12225,0.11 -0.25685,0.20271 -0.41028,0.2691c-0.08832,0.03822 -2.28988,-0.49953 -2.6098,-0.54896c-1.21024,-0.18698 -2.75749,-0.36632 -3.96957,-0.1041c-0.88356,0.19115 -2.46831,1.12908 -3.38565,0.77172c-0.33826,-0.13177 -0.66374,-0.33756 -0.93752,-0.59441zM150.32248,132.456c-0.01064,0.01911 -0.02155,0.03859 -0.03267,0.05826c0.01797,-0.00645 0.03627,-0.01259 0.05487,-0.01844c-0.00745,-0.01324 -0.01484,-0.02651 -0.0222,-0.03981z" fill="#d0d0d0" stroke-width="0.5"/><path d="M10.63104,208.40366c0.11802,-0.96779 1.09582,-0.86548 1.09582,-0.86548c2.56182,0.26992 5.06529,0.16546 7.62277,0.42373c0.75142,0.07588 2.84191,0.37065 2.98567,1.3734c0.10562,0.73673 -0.73407,1.32379 -1.28049,1.82909c-0.45391,0.41975 -2.21387,0.942 -2.8357,1.24379c-0.65591,0.31832 -1.2554,0.69107 -1.85082,1.0607c1.9701,0.29498 4.25501,1.07666 4.99997,1.59732c0.50701,0.35436 1.46009,0.46428 1.50839,1.08095c0.12486,1.59433 -1.47833,1.90768 -2.44718,2.21879c-2.29273,0.73623 -4.80253,1.39818 -7.24503,1.95592c0.04695,0.0035 0.08547,0.00758 0.11406,0.01228c2.52279,0.41433 4.89261,1.24377 7.19964,2.26589l0.00029,-0.01394l1.0308,0.02179c0.4275,-0.00097 0.82389,0.27448 0.95709,0.70416c0.16354,0.5275 -0.13153,1.08774 -0.65904,1.25127c-0.0597,0.01851 -0.1198,0.03115 -0.17972,0.03824l-0.98585,0.13437c-2.26025,0.29967 -4.86116,0.29101 -7.02967,0.97211c-0.65463,0.20097 -3.25074,1.04802 -3.83613,0.70812c-1.33268,-0.77382 -1.22865,-4.54184 -0.79094,-5.6901c0.14085,-0.36948 0.35094,-0.7186 0.59881,-1.05445c-0.10084,-0.12992 -0.18354,-0.27089 -0.23861,-0.42873c-0.03171,-0.09087 0.66442,-2.24759 0.73695,-2.56307c0.27434,-1.19348 0.56552,-2.72363 0.39197,-3.95154c-0.12651,-0.89511 -0.94693,-2.54376 -0.52393,-3.43273c0.15598,-0.32779 0.38484,-0.63749 0.66089,-0.89191zM14.18175,215.91317c-0.01829,-0.012 -0.03692,-0.0243 -0.05573,-0.03682c0.00513,0.01838 0.00993,0.03709 0.01441,0.05606c0.01374,-0.00648 0.02752,-0.01288 0.04132,-0.01925z" fill="#d0d0d0" stroke-width="0.5"/><path d="M18.37384,196.26729c0.41776,-0.88091 1.31314,-0.47489 1.31314,-0.47489c2.34528,1.06554 4.75351,1.75743 7.09837,2.81054c0.68894,0.30942 2.57922,1.24959 2.39878,2.24641c-0.13257,0.73236 -1.11473,1.02404 -1.79282,1.33081c-0.56327,0.25483 -2.3981,0.19424 -3.08342,0.2841c-0.72288,0.09477 -1.40944,0.25899 -2.09115,0.42156c1.77597,0.90236 3.69685,2.36594 4.23914,3.0953c0.36907,0.49641 1.2386,0.90183 1.08958,1.50217c-0.38529,1.55211 -2.00535,1.34285 -3.02287,1.3319c-2.40789,-0.02591 -4.99828,-0.19088 -7.49188,-0.43345c0.04344,0.01816 0.0787,0.0342 0.10434,0.04769c2.26263,1.19021 4.24898,2.72595 6.11487,4.42464l0.00468,-0.01314l0.97112,0.34637c0.40592,0.13415 0.69495,0.52074 0.68556,0.97048c-0.01152,0.55215 -0.46847,0.99047 -1.02063,0.97894c-0.06249,-0.00131 -0.12351,-0.00831 -0.18258,-0.02051l-0.97781,-0.184c-2.23915,-0.42985 -4.70408,-1.25985 -6.97671,-1.29881c-0.68459,-0.01615 -3.41534,-0.03278 -3.86334,-0.54022c-1.01991,-1.15525 0.26936,-4.69737 1.04745,-5.64851c0.25037,-0.30606 0.56001,-0.57091 0.9013,-0.81124c-0.05463,-0.15512 -0.08854,-0.315 -0.09092,-0.48216c-0.00137,-0.09624 1.34054,-1.92252 1.50904,-2.19893c0.63738,-1.04566 1.39711,-2.40542 1.62044,-3.62526c0.1628,-0.88923 -0.09469,-2.71263 0.58752,-3.42242c0.25155,-0.26172 0.56655,-0.48324 0.90884,-0.6374zM19.36992,204.51399c-0.01356,-0.01717 -0.02736,-0.03472 -0.04125,-0.05254c-0.00095,0.01906 -0.0023,0.03831 -0.00405,0.05773c0.01508,-0.0018 0.03019,-0.00352 0.0453,-0.0052z" fill="#d0d0d0" stroke-width="0.5"/><path d="M26.37384,179.51729c0.41776,-0.88091 1.31314,-0.47489 1.31314,-0.47489c2.34528,1.06554 4.75351,1.75743 7.09837,2.81054c0.68894,0.30942 2.57922,1.24959 2.39878,2.24641c-0.13257,0.73236 -1.11473,1.02404 -1.79282,1.33081c-0.56327,0.25483 -2.3981,0.19424 -3.08342,0.2841c-0.72288,0.09477 -1.40944,0.25899 -2.09115,0.42156c1.77598,0.90236 3.69685,2.36594 4.23914,3.0953c0.36907,0.49641 1.2386,0.90183 1.08958,1.50217c-0.38529,1.55211 -2.00535,1.34285 -3.02287,1.3319c-2.40789,-0.02591 -4.99828,-0.19088 -7.49188,-0.43345c0.04344,0.01816 0.0787,0.0342 0.10434,0.04769c2.26264,1.19021 4.24898,2.72595 6.11487,4.42464l0.00468,-0.01314l0.97112,0.34637c0.40592,0.13415 0.69495,0.52074 0.68556,0.97048c-0.01152,0.55215 -0.46847,0.99047 -1.02063,0.97894c-0.06249,-0.00131 -0.12351,-0.00831 -0.18259,-0.02051l-0.9778,-0.184c-2.23915,-0.42985 -4.70408,-1.25985 -6.97671,-1.29881c-0.68459,-0.01615 -3.41534,-0.03278 -3.86334,-0.54022c-1.01991,-1.15525 0.26935,-4.69737 1.04745,-5.64851c0.25037,-0.30606 0.56001,-0.57091 0.9013,-0.81124c-0.05463,-0.15512 -0.08854,-0.315 -0.09092,-0.48216c-0.00138,-0.09624 1.34054,-1.92252 1.50903,-2.19893c0.63738,-1.04566 1.39711,-2.40542 1.62044,-3.62526c0.1628,-0.88923 -0.09469,-2.71263 0.58752,-3.42242c0.25156,-0.26172 0.56655,-0.48324 0.90884,-0.6374zM27.36992,187.76399c-0.01355,-0.01717 -0.02736,-0.03472 -0.04125,-0.05254c-0.00095,0.01906 -0.0023,0.03831 -0.00404,0.05773c0.01508,-0.0018 0.03018,-0.00352 0.04529,-0.0052z" fill="#d0d0d0" stroke-width="0.5"/><path d="M34.37384,164.26728c0.41776,-0.88091 1.31314,-0.47489 1.31314,-0.47489c2.34528,1.06554 4.75351,1.75743 7.09837,2.81054c0.68894,0.30942 2.57922,1.24959 2.39878,2.24641c-0.13257,0.73236 -1.11473,1.02404 -1.79282,1.33081c-0.56327,0.25483 -2.3981,0.19424 -3.08342,0.2841c-0.72288,0.09477 -1.40944,0.25899 -2.09115,0.42156c1.77598,0.90236 3.69685,2.36594 4.23914,3.0953c0.36907,0.49641 1.2386,0.90183 1.08958,1.50217c-0.38529,1.55211 -2.00535,1.34285 -3.02287,1.3319c-2.40789,-0.02591 -4.99828,-0.19088 -7.49188,-0.43345c0.04344,0.01816 0.0787,0.0342 0.10434,0.04769c2.26264,1.19021 4.24898,2.72595 6.11487,4.42464l0.00468,-0.01314l0.97112,0.34637c0.40592,0.13415 0.69495,0.52074 0.68556,0.97048c-0.01152,0.55215 -0.46847,0.99047 -1.02063,0.97894c-0.06249,-0.00131 -0.12351,-0.00831 -0.18259,-0.02051l-0.9778,-0.184c-2.23915,-0.42985 -4.70408,-1.25985 -6.97671,-1.29881c-0.68459,-0.01615 -3.41534,-0.03278 -3.86334,-0.54022c-1.01991,-1.15525 0.26935,-4.69737 1.04745,-5.64851c0.25037,-0.30606 0.56001,-0.57091 0.9013,-0.81124c-0.05463,-0.15512 -0.08854,-0.315 -0.09092,-0.48216c-0.00138,-0.09624 1.34054,-1.92252 1.50903,-2.19893c0.63738,-1.04566 1.39711,-2.40542 1.62044,-3.62526c0.1628,-0.88923 -0.09469,-2.71263 0.58752,-3.42242c0.25156,-0.26172 0.56655,-0.48324 0.90884,-0.6374zM35.36992,172.51399c-0.01355,-0.01717 -0.02736,-0.03472 -0.04125,-0.05254c-0.00095,0.01906 -0.0023,0.03831 -0.00404,0.05773c0.01508,-0.0018 0.03018,-0.00352 0.04529,-0.0052z" fill="#d0d0d0" stroke-width="0.5"/><path d="M48.38104,73.15366c0.11802,-0.96779 1.09582,-0.86548 1.09582,-0.86548c2.56182,0.26992 5.06529,0.16546 7.62277,0.42373c0.75142,0.07588 2.84191,0.37065 2.98567,1.3734c0.10562,0.73673 -0.73407,1.32379 -1.28049,1.82909c-0.45391,0.41975 -2.21387,0.942 -2.8357,1.24379c-0.65591,0.31832 -1.2554,0.69107 -1.85082,1.0607c1.9701,0.29498 4.25501,1.07666 4.99997,1.59732c0.50701,0.35436 1.46009,0.46428 1.50839,1.08095c0.12486,1.59433 -1.47833,1.90768 -2.44718,2.21879c-2.29273,0.73623 -4.80253,1.39818 -7.24503,1.95592c0.04695,0.0035 0.08547,0.00758 0.11406,0.01228c2.52279,0.41433 4.89261,1.24377 7.19964,2.26589l0.00029,-0.01394l1.0308,0.02179c0.4275,-0.00097 0.82389,0.27448 0.95709,0.70416c0.16354,0.5275 -0.13153,1.08774 -0.65904,1.25127c-0.0597,0.01851 -0.1198,0.03115 -0.17972,0.03824l-0.98585,0.13437c-2.26025,0.29967 -4.86116,0.29101 -7.02967,0.97211c-0.65463,0.20097 -3.25074,1.04802 -3.83613,0.70812c-1.33268,-0.77382 -1.22865,-4.54184 -0.79094,-5.6901c0.14085,-0.36948 0.35094,-0.7186 0.59881,-1.05445c-0.10084,-0.12992 -0.18354,-0.27089 -0.23861,-0.42873c-0.03171,-0.09087 0.66442,-2.24759 0.73695,-2.56307c0.27434,-1.19348 0.56552,-2.72363 0.39197,-3.95154c-0.12651,-0.89511 -0.94693,-2.54376 -0.52393,-3.43273c0.15598,-0.32779 0.38484,-0.63749 0.66089,-0.89191zM51.93175,80.66317c-0.01829,-0.012 -0.03692,-0.0243 -0.05573,-0.03682c0.00513,0.01838 0.00993,0.03709 0.01441,0.05606c0.01374,-0.00648 0.02752,-0.01288 0.04132,-0.01925z" fill="#d0d0d0" stroke-width="0.5"/><path d="M47.70075,91.57206c0.24552,-0.94353 1.20107,-0.71225 1.20107,-0.71225c2.50326,0.60781 4.99842,0.83679 7.49894,1.43247c0.73468,0.17502 2.7675,0.74483 2.7768,1.7578c0.00683,0.74423 -0.90339,1.21456 -1.51209,1.64281c-0.50563,0.35574 -2.31938,0.6396 -2.97578,0.85612c-0.69238,0.22838 -1.33607,0.51819 -1.97531,0.80546c1.91347,0.55405 4.07431,1.6323 4.74351,2.24729c0.45545,0.41857 1.38549,0.6541 1.35145,1.27172c-0.08801,1.59679 -1.71862,1.69442 -2.72021,1.87408c-2.3702,0.42517 -4.94569,0.74789 -7.44063,0.97627c0.04607,0.00971 0.08371,0.01887 0.11142,0.02732c2.4454,0.74575 4.68406,1.88262 6.83488,3.20211l0.00214,-0.01378l1.01878,0.15851c0.42385,0.05582 0.78012,0.38148 0.85507,0.82504c0.09202,0.54455 -0.27484,1.06064 -0.8194,1.15265c-0.06163,0.01041 -0.12288,0.01495 -0.1832,0.01402l-0.99496,0.00224c-2.28003,-0.00321 -4.85674,-0.35725 -7.09651,0.02979c-0.67552,0.11225 -3.36114,0.60696 -3.89619,0.19232c-1.21809,-0.94397 -0.61449,-4.66479 -0.02814,-5.74474c0.18867,-0.34751 0.44328,-0.66563 0.73356,-0.96558c-0.08269,-0.14216 -0.14593,-0.29287 -0.17955,-0.45663c-0.01936,-0.09428 0.95707,-2.13942 1.07086,-2.44248c0.43043,-1.14646 0.92227,-2.62438 0.91336,-3.86446c-0.00649,-0.90398 -0.60067,-2.64699 -0.06334,-3.47191c0.19813,-0.30417 0.46611,-0.58072 0.7735,-0.79622zM50.22255,99.48665c-0.01653,-0.01433 -0.03338,-0.02899 -0.05036,-0.04389c0.00264,0.0189 0.00491,0.03807 0.00683,0.05747c0.01448,-0.00459 0.02899,-0.00911 0.04352,-0.01359z" fill="#d0d0d0" stroke-width="0.5"/><path d="M46.70414,111.46861c0.11802,-0.96779 1.09582,-0.86547 1.09582,-0.86547c2.56181,0.26993 5.06528,0.16546 7.62276,0.42373c0.75142,0.07589 2.84192,0.37064 2.98568,1.3734c0.10562,0.73673 -0.73407,1.32379 -1.28049,1.82909c-0.4539,0.41974 -2.21387,0.94201 -2.8357,1.2438c-0.65591,0.31832 -1.2554,0.69107 -1.85082,1.0607c1.97011,0.29498 4.25501,1.07667 4.99997,1.59732c0.50701,0.35436 1.46009,0.46428 1.50839,1.08095c0.12486,1.59433 -1.47833,1.90769 -2.44718,2.21879c-2.29273,0.73623 -4.80253,1.39817 -7.24503,1.95591c0.04695,0.0035 0.08547,0.00758 0.11406,0.01228c2.52279,0.41433 4.89262,1.24378 7.19964,2.2659l0.00029,-0.01394l1.0308,0.02179c0.4275,-0.00097 0.82388,0.27449 0.95708,0.70415c0.16353,0.5275 -0.13153,1.08774 -0.65904,1.25127c-0.0597,0.01851 -0.11981,0.03114 -0.17972,0.03823l-0.98585,0.13437c-2.26025,0.29967 -4.86115,0.29101 -7.02967,0.97212c-0.65463,0.20098 -3.25074,1.04802 -3.83613,0.70812c-1.33268,-0.77381 -1.22864,-4.54184 -0.79094,-5.6901c0.14085,-0.36949 0.35094,-0.71861 0.5988,-1.05445c-0.10083,-0.12991 -0.18354,-0.27089 -0.23861,-0.42873c-0.03171,-0.09087 0.66442,-2.24759 0.73695,-2.56308c0.27434,-1.19347 0.56552,-2.72363 0.39197,-3.95154c-0.1265,-0.8951 -0.94693,-2.54375 -0.52393,-3.43273c0.15597,-0.3278 0.38485,-0.63749 0.66089,-0.8919zM50.25484,118.97813c-0.01829,-0.012 -0.03693,-0.0243 -0.05574,-0.03681c0.00513,0.01839 0.00992,0.03708 0.0144,0.05605c0.01375,-0.00648 0.02752,-0.01287 0.04133,-0.01924z" fill="#d0d0d0" stroke-width="0.5"/><path d="M10.38104,227.40366c0.11802,-0.96779 1.09582,-0.86548 1.09582,-0.86548c2.56182,0.26992 5.06529,0.16546 7.62277,0.42373c0.75142,0.07588 2.84191,0.37065 2.98567,1.3734c0.10562,0.73673 -0.73407,1.32379 -1.28049,1.82909c-0.45391,0.41975 -2.21387,0.942 -2.8357,1.24379c-0.65591,0.31832 -1.2554,0.69107 -1.85082,1.0607c1.9701,0.29498 4.25501,1.07666 4.99997,1.59732c0.50701,0.35436 1.46009,0.46428 1.50839,1.08095c0.12486,1.59433 -1.47833,1.90768 -2.44718,2.21879c-2.29273,0.73623 -4.80253,1.39818 -7.24503,1.95592c0.04695,0.0035 0.08547,0.00758 0.11406,0.01228c2.52279,0.41433 4.89261,1.24377 7.19964,2.26589l0.00029,-0.01394l1.0308,0.02179c0.4275,-0.00097 0.82389,0.27448 0.95709,0.70416c0.16354,0.5275 -0.13153,1.08774 -0.65904,1.25127c-0.0597,0.01851 -0.1198,0.03115 -0.17972,0.03824l-0.98585,0.13437c-2.26025,0.29967 -4.86116,0.29101 -7.02967,0.97211c-0.65463,0.20097 -3.25074,1.04802 -3.83613,0.70812c-1.33268,-0.77382 -1.22865,-4.54184 -0.79094,-5.6901c0.14085,-0.36948 0.35094,-0.7186 0.59881,-1.05445c-0.10084,-0.12992 -0.18354,-0.27089 -0.23861,-0.42873c-0.03171,-0.09087 0.66442,-2.24759 0.73695,-2.56307c0.27434,-1.19348 0.56552,-2.72363 0.39197,-3.95154c-0.12651,-0.89511 -0.94693,-2.54376 -0.52393,-3.43273c0.15598,-0.32779 0.38484,-0.63749 0.66089,-0.89191zM13.93175,234.91317c-0.01829,-0.012 -0.03692,-0.0243 -0.05573,-0.03682c0.00513,0.01838 0.00993,0.03709 0.01441,0.05606c0.01374,-0.00648 0.02752,-0.01288 0.04132,-0.01925z" fill="#d0d0d0" stroke-width="0.5"/><path d="M9.70075,245.32206c0.24552,-0.94353 1.20107,-0.71225 1.20107,-0.71225c2.50326,0.60781 4.99842,0.83679 7.49894,1.43247c0.73468,0.17502 2.7675,0.74483 2.7768,1.7578c0.00683,0.74423 -0.90339,1.21456 -1.51209,1.64281c-0.50563,0.35574 -2.31938,0.6396 -2.97578,0.85612c-0.69238,0.22838 -1.33607,0.51819 -1.97531,0.80546c1.91347,0.55405 4.07431,1.6323 4.74351,2.24729c0.45545,0.41857 1.38549,0.6541 1.35145,1.27172c-0.08801,1.59679 -1.71862,1.69442 -2.72021,1.87408c-2.3702,0.42517 -4.94569,0.74789 -7.44063,0.97627c0.04607,0.00971 0.08371,0.01887 0.11142,0.02732c2.4454,0.74575 4.68406,1.88262 6.83488,3.20211l0.00214,-0.01378l1.01878,0.15851c0.42385,0.05582 0.78012,0.38148 0.85507,0.82504c0.09202,0.54455 -0.27484,1.06064 -0.8194,1.15265c-0.06163,0.01041 -0.12288,0.01495 -0.1832,0.01402l-0.99496,0.00224c-2.28003,-0.00321 -4.85674,-0.35725 -7.09651,0.02979c-0.67552,0.11225 -3.36114,0.60696 -3.89619,0.19232c-1.21809,-0.94397 -0.61449,-4.66479 -0.02814,-5.74474c0.18867,-0.34751 0.44328,-0.66563 0.73356,-0.96558c-0.08269,-0.14216 -0.14593,-0.29287 -0.17955,-0.45663c-0.01936,-0.09428 0.95707,-2.13942 1.07086,-2.44248c0.43043,-1.14646 0.92227,-2.62438 0.91336,-3.86446c-0.00649,-0.90398 -0.60067,-2.64699 -0.06334,-3.47191c0.19813,-0.30417 0.46611,-0.58072 0.7735,-0.79622zM12.22255,253.23665c-0.01653,-0.01433 -0.03338,-0.02899 -0.05036,-0.04389c0.00264,0.0189 0.00491,0.03807 0.00683,0.05747c0.01448,-0.00459 0.02899,-0.00911 0.04352,-0.01359z" fill="#d0d0d0" stroke-width="0.5"/><path d="M8.70414,264.21862c0.11802,-0.96779 1.09582,-0.86547 1.09582,-0.86547c2.56181,0.26993 5.06528,0.16546 7.62276,0.42373c0.75142,0.07589 2.84192,0.37064 2.98568,1.3734c0.10562,0.73673 -0.73407,1.32379 -1.28049,1.82909c-0.4539,0.41974 -2.21387,0.94201 -2.8357,1.2438c-0.65591,0.31832 -1.2554,0.69107 -1.85082,1.0607c1.97011,0.29498 4.25501,1.07667 4.99997,1.59732c0.50701,0.35436 1.46009,0.46428 1.50839,1.08095c0.12486,1.59433 -1.47833,1.90769 -2.44718,2.21879c-2.29273,0.73623 -4.80253,1.39817 -7.24503,1.95591c0.04695,0.0035 0.08547,0.00758 0.11406,0.01228c2.52279,0.41433 4.89262,1.24378 7.19964,2.2659l0.00029,-0.01394l1.0308,0.02179c0.4275,-0.00097 0.82388,0.27449 0.95708,0.70415c0.16353,0.5275 -0.13153,1.08774 -0.65904,1.25127c-0.0597,0.01851 -0.11981,0.03114 -0.17972,0.03823l-0.98585,0.13437c-2.26025,0.29967 -4.86115,0.29101 -7.02967,0.97212c-0.65463,0.20098 -3.25074,1.04802 -3.83613,0.70812c-1.33268,-0.77381 -1.22864,-4.54184 -0.79094,-5.6901c0.14085,-0.36949 0.35094,-0.71861 0.5988,-1.05445c-0.10083,-0.12991 -0.18354,-0.27089 -0.23861,-0.42873c-0.03171,-0.09087 0.66442,-2.24759 0.73695,-2.56308c0.27434,-1.19347 0.56552,-2.72363 0.39197,-3.95154c-0.1265,-0.8951 -0.94693,-2.54375 -0.52393,-3.43273c0.15597,-0.3278 0.38485,-0.63749 0.66089,-0.8919zM12.25484,271.72813c-0.01829,-0.012 -0.03693,-0.0243 -0.05574,-0.03681c0.00513,0.01839 0.00992,0.03708 0.0144,0.05605c0.01375,-0.00648 0.02752,-0.01287 0.04133,-0.01924z" fill="#d0d0d0" stroke-width="0.5"/><path d="M162.83011,274.55285c-0.9738,-0.04746 -0.94273,-1.0301 -0.94273,-1.0301c0.08326,-2.57464 -0.20266,-5.06394 -0.13071,-7.63342c0.02114,-0.75495 0.16338,-2.86132 1.15305,-3.07749c0.72712,-0.15882 1.37358,0.63604 1.91721,1.14435c0.45158,0.42224 1.10022,2.13966 1.44635,2.73793c0.36509,0.63108 0.78037,1.20193 1.19225,1.76894c0.1512,-1.98632 0.76497,-4.32194 1.23018,-5.10273c0.31662,-0.53139 0.35706,-1.48994 0.9686,-1.58287c1.58106,-0.24026 2.00997,1.33596 2.39058,2.27967c0.90071,2.23324 1.74309,4.68837 2.47665,7.08395c0.00009,-0.04709 0.00135,-0.0858 0.00396,-0.11465c0.23012,-2.54621 0.88536,-4.96999 1.73732,-7.34513l-0.01392,0.00072l-0.05309,-1.02966c-0.03199,-0.42631 0.21396,-0.84163 0.63283,-1.00567c0.51425,-0.20139 1.09442,0.05223 1.29581,0.56648c0.02279,0.0582 0.03976,0.11722 0.05118,0.17647l0.20557,0.97349c0.46294,2.23254 0.6431,4.82721 1.47982,6.94057c0.24797,0.63831 1.28123,3.16609 0.98471,3.7746c-0.67503,1.38534 -4.44068,1.55509 -5.61768,1.20189c-0.37874,-0.11365 -0.74219,-0.29785 -1.09514,-0.52069c-0.12225,0.11 -0.25685,0.20271 -0.41028,0.2691c-0.08832,0.03822 -2.28988,-0.49953 -2.6098,-0.54896c-1.21024,-0.18698 -2.75749,-0.36632 -3.96957,-0.1041c-0.88356,0.19115 -2.46831,1.12908 -3.38565,0.77173c-0.33826,-0.13177 -0.66374,-0.33757 -0.93752,-0.59441zM170.06206,270.46641c-0.01064,0.01911 -0.02155,0.03859 -0.03267,0.05826c0.01797,-0.00645 0.03627,-0.01259 0.05487,-0.01843c-0.00745,-0.01324 -0.01484,-0.02651 -0.0222,-0.03981z" fill="#d0d0d0" stroke-width="0.5"/><path d="M199.49678,253.88618c-0.9738,-0.04746 -0.94273,-1.0301 -0.94273,-1.0301c0.08326,-2.57465 -0.20266,-5.06394 -0.13071,-7.63342c0.02114,-0.75494 0.16338,-2.86132 1.15305,-3.07748c0.72712,-0.15882 1.37358,0.63604 1.91721,1.14434c0.45158,0.42224 1.10022,2.13966 1.44635,2.73794c0.36509,0.63108 0.78037,1.20192 1.19225,1.76894c0.1512,-1.98632 0.76497,-4.32194 1.23018,-5.10272c0.31662,-0.5314 0.35706,-1.48994 0.9686,-1.58287c1.58106,-0.24026 2.00997,1.33596 2.39058,2.27967c0.90071,2.23324 1.74309,4.68837 2.47665,7.08395c0.00009,-0.04709 0.00135,-0.0858 0.00396,-0.11465c0.23012,-2.54621 0.88536,-4.96999 1.73732,-7.34512l-0.01392,0.00072l-0.05309,-1.02966c-0.03199,-0.42631 0.21396,-0.84163 0.63283,-1.00567c0.51425,-0.20139 1.09442,0.05223 1.29581,0.56648c0.02279,0.0582 0.03976,0.11722 0.05118,0.17647l0.20557,0.97349c0.46294,2.23254 0.6431,4.82721 1.47982,6.94056c0.24797,0.63831 1.28123,3.16609 0.98471,3.77461c-0.67504,1.38534 -4.44068,1.55508 -5.61768,1.20189c-0.37874,-0.11365 -0.74219,-0.29785 -1.09514,-0.52068c-0.12225,0.11 -0.25685,0.20271 -0.41028,0.2691c-0.08832,0.03822 -2.28988,-0.49953 -2.6098,-0.54896c-1.21024,-0.18698 -2.75749,-0.36632 -3.96957,-0.1041c-0.88356,0.19115 -2.46831,1.12908 -3.38565,0.77172c-0.33826,-0.13177 -0.66374,-0.33756 -0.93752,-0.59441zM206.72873,249.79975c-0.01064,0.01911 -0.02155,0.03859 -0.03267,0.05826c0.01797,-0.00645 0.03627,-0.01259 0.05487,-0.01844c-0.00745,-0.01324 -0.01484,-0.02651 -0.0222,-0.03981z" fill="#d0d0d0" stroke-width="0.5"/><path d="M272.16345,248.21951c-0.9738,-0.04746 -0.94273,-1.03011 -0.94273,-1.03011c0.08326,-2.57464 -0.20266,-5.06394 -0.13071,-7.63341c0.02114,-0.75495 0.16338,-2.86132 1.15305,-3.07749c0.72712,-0.15882 1.37358,0.63604 1.91721,1.14434c0.45158,0.42224 1.10022,2.13966 1.44635,2.73793c0.36509,0.63108 0.78037,1.20193 1.19225,1.76894c0.1512,-1.98633 0.76497,-4.32194 1.23018,-5.10273c0.31662,-0.53139 0.35706,-1.48994 0.9686,-1.58287c1.58106,-0.24026 2.00997,1.33596 2.39058,2.27967c0.90071,2.23324 1.74309,4.68838 2.47665,7.08395c0.00009,-0.04708 0.00135,-0.0858 0.00396,-0.11466c0.23012,-2.54621 0.88536,-4.96999 1.73732,-7.34512l-0.01392,0.00072l-0.05309,-1.02967c-0.03199,-0.42631 0.21396,-0.84163 0.63283,-1.00567c0.51425,-0.20139 1.09442,0.05223 1.29581,0.56648c0.02279,0.0582 0.03976,0.11723 0.05118,0.17647l0.20557,0.9735c0.46294,2.23253 0.6431,4.82721 1.47982,6.94056c0.24797,0.63831 1.28123,3.16609 0.98471,3.77461c-0.67503,1.38533 -4.44068,1.55509 -5.61768,1.20189c-0.37874,-0.11365 -0.74219,-0.29785 -1.09514,-0.52069c-0.12225,0.11 -0.25685,0.20272 -0.41028,0.2691c-0.08832,0.03822 -2.28988,-0.49953 -2.6098,-0.54896c-1.21024,-0.18698 -2.75749,-0.36633 -3.96957,-0.1041c-0.88356,0.19115 -2.46831,1.12908 -3.38565,0.77173c-0.33826,-0.13177 -0.66374,-0.33756 -0.93752,-0.59441zM279.39539,244.13308c-0.01064,0.01911 -0.02155,0.03859 -0.03267,0.05826c0.01797,-0.00646 0.03627,-0.01259 0.05487,-0.01844c-0.00745,-0.01324 -0.01484,-0.02651 -0.0222,-0.03981z" fill="#d0d0d0" stroke-width="0.5"/><path d="M307.49678,272.88618c-0.9738,-0.04745 -0.94273,-1.03011 -0.94273,-1.03011c0.08326,-2.57464 -0.20265,-5.06394 -0.1307,-7.63341c0.02114,-0.75494 0.16338,-2.86132 1.15305,-3.07749c0.72712,-0.15882 1.37358,0.63604 1.91722,1.14434c0.45158,0.42224 1.10022,2.13966 1.44635,2.73794c0.36509,0.63107 0.78037,1.20192 1.19225,1.76894c0.1512,-1.98632 0.76497,-4.32194 1.23017,-5.10273c0.31662,-0.53139 0.35707,-1.48994 0.96861,-1.58287c1.58106,-0.24026 2.00996,1.33596 2.39057,2.27967c0.90071,2.23324 1.74309,4.68837 2.47665,7.08395c0.00009,-0.04708 0.00136,-0.0858 0.00397,-0.11465c0.23012,-2.54621 0.88536,-4.96999 1.73732,-7.34513l-0.01392,0.00072l-0.05309,-1.02966c-0.032,-0.4263 0.21396,-0.84163 0.63283,-1.00567c0.51424,-0.20139 1.09442,0.05223 1.2958,0.56648c0.02279,0.0582 0.03976,0.11723 0.05118,0.17647l0.20558,0.97349c0.46294,2.23253 0.6431,4.82721 1.47981,6.94057c0.24796,0.63831 1.28122,3.16609 0.98471,3.77461c-0.67504,1.38533 -4.44068,1.55508 -5.61768,1.20188c-0.37874,-0.11365 -0.74218,-0.29785 -1.09513,-0.52068c-0.12225,0.11 -0.25685,0.20271 -0.41028,0.2691c-0.08832,0.03822 -2.28988,-0.49953 -2.60981,-0.54896c-1.21024,-0.18698 -2.75749,-0.36633 -3.96957,-0.1041c-0.88356,0.19114 -2.46831,1.12908 -3.38564,0.77173c-0.33825,-0.13177 -0.66374,-0.33756 -0.93753,-0.59441zM314.72873,268.79975c-0.01064,0.01911 -0.02155,0.03859 -0.03267,0.05826c0.01797,-0.00645 0.03626,-0.01259 0.05486,-0.01843c-0.00746,-0.01324 -0.01484,-0.02651 -0.0222,-0.03982z" fill="#d0d0d0" stroke-width="0.5"/><path d="M88.53607,5.89306v-8.5h330v8.5z" fill="#a76634" stroke-width="0"/><path d="" fill="#999999" stroke-width="0.5"/><path d="M447.42124,-3.48764c4.47248,0.49695 -4.4725,-0.49694 -0.00002,0z" fill="#6c6c6c" stroke-width="0.5"/><path d="" fill="#6c6c6c" stroke-width="0.5"/><path d="" fill="#6c6c6c" stroke-width="0.5"/><path d="M485.26927,68.82654c0.1939,1.72988 0.2668,3.55605 0.2668,5.56657c0,4.38322 -0.44846,9.04379 -0.0292,13.40877c0.44453,4.62806 0.60831,270.01478 -1.07679,271.60545c-1.60129,1.51155 -22.32169,0.8721 -24.50826,1.13255c-3.18291,0.37912 -6.80723,0 -10,0c-11.66374,0 -23.337,0.12981 -35,0c-3.89515,-0.04335 -10.26502,5.34855 -12.69558,1.75826c-1.36834,-2.02124 -0.59741,-32.23039 -1.10335,-36.76079c-0.2582,-2.31207 6.07587,-6.19629 10.83784,-6.92c3.33148,-0.50631 6.4709,-1.02873 9.58258,-1.91697c1.09571,-0.31277 2.29383,0.10659 3.41742,-0.08303c2.31525,-0.39074 4.61309,-1.07748 6.96109,-1.07748c1.70756,0 3.35145,-0.66133 5.03891,-0.92252c2.78087,-0.43044 8.67876,1.17943 9.33378,-2.15915c1.36107,-5.36809 0.62731,-11.38663 0.62731,-16.91832c0,-4.33333 0,-8.66667 0,-13c0,-1.67984 0.38,-3.38654 0.07748,-5.03891c-0.18983,-1.03686 -0.83876,-1.95831 -1,-3c-0.37579,-2.42777 0.21334,-4.92717 -0.04828,-7.36987c-0.40555,-3.78656 -2.40875,-6.93643 -2.95172,-10.63013c-0.50325,-3.42345 -0.07748,-7.46566 -0.07748,-10.96109c0,-3.99825 -0.06147,-8.00229 0,-12c0.0146,-0.94905 0.48732,-2.10306 -0.1039,-2.84561c-2.86416,-3.59729 -6.51165,-6.63485 -9.42882,-10.22318c-0.72203,-0.88815 -0.8893,-2.22154 -1.78616,-2.93271c-0.5599,-0.44398 -1.44036,-0.01569 -2.13633,-0.17765c-1.85992,-0.43283 -3.78128,-0.76944 -5.50098,-1.59966c-0.91617,-0.4423 -1.3324,-1.58306 -2.19819,-2.11729c-2.58594,-1.59565 -6.28577,-2.33665 -9.14171,-3.56063c-2.62814,-1.12634 -5.39233,-1.99202 -7.85829,-3.43937c-0.74916,-0.4397 -1.03051,-1.48314 -1.80181,-1.88271c-0.81689,-0.42319 -1.81422,-0.30699 -2.72133,-0.46048c-2.9694,-1.00558 -6.18703,-1.11513 -9.17794,-2.05482c-5.32785,-1.67392 -8.95271,-5.88553 -13.78064,-8.316c-4.20316,-2.11594 -9.55246,-3.16713 -14.04142,-4.62917c-1.92372,-0.62655 -4.19662,-0.59523 -5.77876,-1.85623c-1.95742,-1.56011 -3.26067,-3.88246 -4.28626,-6.16579c-0.51652,-1.14995 0.0223,-2.53331 -0.17997,-3.77761c-0.74494,-4.58261 -2.98247,-8.1037 -3.07748,-12.96109c0,0 0,-6 6,-6c2.15031,0 3.52998,0.77064 4.4152,1.75955h0.00001c1.36501,-1.68042 3.10383,-3.09917 4.94869,-4.14944c3.3526,-1.90861 7.07816,-1.98599 10.67502,-2.53263c2.08425,-0.31676 3.9166,-1.67771 6,-2c1.3928,-0.21546 2.82958,0.14296 4.22799,-0.03252c1.36367,-0.17113 2.63801,-0.81596 4,-1c3.31029,-0.44732 6.92973,0.68235 10.09699,-0.43485c0.8498,-0.57986 2.07763,-0.8416 2.5322,-1.7645c2.09309,-4.24953 1.29455,-6.85242 5.94952,-9.94952c1.41818,-0.94356 6.68833,-2.29897 8.47686,-2.65682c0.33848,-0.06773 0.79034,0.23544 1.03556,-0.00752c0.85377,-0.84588 1.0293,-2.29135 2,-3c2.01387,-1.47022 4.7871,-1.48395 7.00585,-2.62165c2.50608,-1.28503 4.90417,-3.02855 7.67502,-3.53263c0.56002,-0.10188 1.14036,0.60007 1.66499,0.37925c0.59407,-0.25006 0.59347,-1.22168 1.14171,-1.56063c0.89658,-0.55431 2.09612,-0.45767 3,-1c0.80845,-0.48507 1.18213,-1.53098 2,-2c1.31384,-0.75344 2.83049,-1.07942 4.25702,-1.58819c0.99284,-0.35409 1.98125,-1.27065 3,-1l2.86713,-0.95571c0.63408,-0.22797 1.31765,-0.35219 2.03023,-0.35219c1.14342,0 2.21213,0.31984 3.12156,0.87494c2.20251,-2.43509 10.73526,-4.23195 18.58078,-3.89257c-0.06185,-1.52022 -0.08809,-3.05594 -0.08809,-4.62914c0,-2.25847 0.59791,-5.22084 0.10827,-7.36536c-1.08237,-4.74049 -2.57514,-9.61758 -3.07907,-14.54342c-0.48624,-4.75301 -0.0292,-9.81896 -0.0292,-14.59122c0,-4.30064 -0.20138,-6.94949 -2.23059,-10.56045c-0.46224,-0.82256 -0.09445,-2.2188 -0.91913,-2.67725c-0.9838,-0.54691 -2.29451,-0.6257 -3.04087,-1.46825c-1.74245,-1.96701 -2.756,-4.4783 -4.00376,-6.79094c-0.66196,-1.2269 -1.33089,-2.47734 -1.73665,-3.80972c-1.14305,-0.29892 -2.1324,-1.0583 -3.25606,-1.43545c-1.19145,-0.3999 -2.59807,-0.2629 -3.81294,-0.25794c-6.00026,0.02451 -12.00515,0.04073 -18.00511,-0.02044c-3.5976,0.62622 -7.46335,1.53002 -11.12953,0.91218c-0.88505,-0.14915 -1.6199,-0.82398 -2.5,-1c-2.94556,-0.58911 -6.48052,-0.81133 -8.47812,-3.05476c-1.86046,-2.08942 -1.26791,-5.45173 -1.77897,-8.20233c-0.16395,-0.88242 -0.84044,-1.61677 -1,-2.5c-0.60172,-3.33075 0.00461,-7.14101 0.44482,-10.43104c0.66953,-5.00387 1.09385,-10.28373 1.47611,-15.29482c0.14066,-1.84393 -0.37604,-7.01122 0.30903,-8.39482c3.70601,-7.48481 5.12606,-5.92706 12.16177,-6.51395c11.83333,0 23.66667,0 35.5,0c4.99145,0 11.51584,-0.55315 15.75437,2.81975c3.70038,2.94467 2.40536,3.86658 4.05577,6.88696c1.34052,2.45326 2.63565,4.93106 3.94638,7.40036c1.54257,2.90609 1.74349,57.04862 -0.02331,58.82637zM454.06218,198.96432c-0.01762,-0.14204 -0.03635,-0.28353 -0.05623,-0.42444h-0.54392c0.19039,0.14383 0.39204,0.28492 0.60014,0.42444zM453.90756,213.22483c0.00081,-0.02363 0.00164,-0.04726 0.00247,-0.07091l-0.01108,0.01939c0.00287,0.01718 0.00574,0.03435 0.00861,0.05153z" fill="#999999" stroke-width="0.5"/><path d="M345.55393,154.73798c0,-6 6,-6 6,-6h3.003c1.46051,0.05351 2.96224,-0.1882 4.38152,0.16051c2.17366,0.53406 3.84039,2.43723 6.00601,3.003c1.49331,0.39012 3.08407,-0.16051 4.62749,-0.16051c0.84997,0 4.6255,-0.02249 6.43639,0.06256c0.91945,-0.9545 2.48089,-1.13882 3.56886,-1.93301c1.50629,-1.09955 2.50483,-2.9354 4.21516,-3.67883c3.37417,-1.46665 6.9989,0.34841 10.34402,-0.37925c1.54655,-0.33642 2.94731,-1.21838 4.5045,-1.5015c0.561,-0.10199 1.1551,0.62834 1.668,0.37925c0.1535,-0.07455 0.27454,-0.18509 0.37556,-0.31784c-0.6961,-0.9574 -0.85143,-1.96013 0.03779,-2.6791c1.15956,-0.93755 3.06357,-1.16582 3.70003,-2.51433c1.25555,-2.66024 2.13432,-5.81511 4.46194,-7.61385c1.60247,-1.23836 3.71604,-1.66345 5.68087,-2.15428c0.72106,-0.18013 1.50944,0.38992 2.22239,0.17997c0.60259,-0.17744 0.90468,-0.87727 1.4105,-1.24975c2.1799,-1.60524 5.84704,-5.58005 8.0321,-6.55098c1.32555,-0.58901 2.90947,-0.11119 4.33501,-0.37925c1.99267,-0.37469 3.97241,-1 6,-1c1.92371,-0.43253 2.91274,-3.17666 4.65815,-4.08652c5.90667,-3.07907 9.73001,-4.15084 15.34185,-5.91348l17.96109,-0.07748c0,0 10,0 10,6l0.00002,0.00002c0,6 -9,6 -9,6l-17.03891,-0.07748c-3.02243,1.13322 -9.63103,3.60453 -10.65815,4.08652c-1.75899,0.82544 -2.45694,3.13893 -4.14856,4.09486c-1.59684,0.90237 -3.4622,1.21241 -5.19329,1.81862c-2.02759,0 -3.99013,0.73255 -6,1c-0.56424,0.07508 -1.10541,-0.48349 -1.66499,-0.37925c-0.22985,0.04282 0.09312,0.51722 -0.05346,0.69936c-0.71468,0.88807 -1.5499,1.68365 -2.43871,2.39741c-1.09077,0.87596 -2.2935,1.60431 -3.47573,2.35225c-1.50718,0.95353 -2.90625,2.16076 -4.5895,2.75025c-1.28886,0.45137 -3.24335,-1.04043 -4.09674,0.02569c-0.96821,1.20955 -0.68935,3.08995 -1.53806,4.38615c-0.91084,1.39111 -1.92625,2.15077 -2.97786,2.51344c-0.36586,2.03625 -1.80158,3.47197 -1.80158,3.47197c-1.64984,1.43455 -2.99735,3.31932 -4.94954,4.30364c-1.29609,0.6535 -2.91825,0.07728 -4.33801,0.37925c-1.54809,0.32927 -2.94859,1.2114 -4.5045,1.5015c-0.01723,0.00322 -6.38988,0.14854 -6.9671,0.07748c-0.27843,-0.03427 -0.48235,-0.62488 -0.7069,-0.45672c-0.78349,0.58672 -1.02249,1.72077 -1.79084,2.32718c-0.63638,0.50226 -1.65742,0.34407 -2.26862,0.87669c-1.47868,1.28857 -1.97127,3.87857 -3.84678,4.45246c-2.04738,0.62647 -4.16182,-1.03438 -6.27889,-1.35411c-3.84376,-0.5805 -8.14057,0.9512 -12.01201,0c-3.15323,-0.77474 -4.56353,-3.14553 -7.63049,-2.8425h-3.003c0,0 -6,0 -6,-6z" data-paper-data="{&quot;index&quot;:null}" fill="#b3cedd" stroke-width="0.5"/><path d="M445.10382,149.35791c3.18198,3.18198 0,6.36396 0,6.36396l-1,1c-1.92956,1.92956 -4.29834,5.15941 -6.62579,6.52151c-0.80465,0.47091 -15.41151,7.01604 -16.08767,7.32031c-8.20729,3.69329 -16.41459,7.38657 -24.62188,11.07985c0,0 -4.10365,1.84664 -5.95029,-2.25701c-1.84664,-4.10365 2.25701,-5.95029 2.25701,-5.95029c8.20729,-3.69329 16.41459,-7.38657 24.62188,-11.07985c4.87949,-2.19577 9.97905,-3.94334 14.66857,-6.52c1.86623,-1.02541 3.86253,-3.96681 5.37421,-5.47849l1,-1c0,0 3.18198,-3.18198 6.36396,0z" data-paper-data="{&quot;index&quot;:null}" fill="#6c6c6c" stroke-width="0.5"/><path d="M458.94677,200.52743c2.01246,4.02492 -2.01246,6.03738 -2.01246,6.03738l-2.58944,1.24415c-3.24518,1.02604 -5.73642,2.8736 -9,4c0,0 -4.26908,1.42302 -5.6921,-2.84605c-1.42302,-4.26908 2.84605,-5.6921 2.84605,-5.6921c3.24518,-1.02604 5.73642,-2.8736 9,-4l1.41056,-0.75585c0,0 4.02492,-2.01246 6.03738,2.01246z" data-paper-data="{&quot;index&quot;:null}" fill="#6c6c6c" stroke-width="0.5"/><path d="M423.92184,212.03988l-5.18198,-1.31802c-0.88198,-0.93873 -2.0073,-1.6976 -2.64595,-2.81619c-4.10026,-7.18153 0.51264,-14.12052 0.32793,-21.36579c0,0 0,-4.5 4.5,-4.5c4.5,0 4.5,4.5 4.5,4.5c-0.05094,3.26139 -0.5285,6.54316 -1.05811,9.72082c-0.4672,2.80325 -1.67052,4.73782 -0.41499,6.7796c0.37181,0.00883 4.4731,0.20356 4.4731,4.49958c0,4.5 -4.5,4.5 -4.5,4.5zM425.10382,204.3579l-1.09097,-1.21654c0.2605,0.39843 0.61629,0.80154 1.09097,1.21654z" data-paper-data="{&quot;index&quot;:null}" fill="#6c6c6c" stroke-width="0.5"/><path d="M454.42184,295.53988v-3c0,-3.98828 0.62447,-8.50678 0.03372,-12.45018c-0.99882,-6.66734 -1.83957,-14.15395 -1.01182,-20.99324c0.20422,-1.68736 0.84285,-3.30761 1,-5c0.1975,-2.12679 -0.32015,-4.30559 0.0593,-6.40756c0.43832,-2.42811 2.01196,-4.68343 1.9188,-7.14902c0,0 0,-4.5 4.5,-4.5c4.5,0 4.71269,7.10112 4.4188,8.35098c-0.41088,1.7474 -1.6765,3.23434 -2,5c-0.33596,1.83373 0.22421,3.7355 0.0593,5.59244c-0.15035,1.69301 -0.78182,3.31439 -1,5c-0.80436,6.21424 0.1586,12.94787 0.98818,19.00676c0.59452,4.34208 0.03372,9.17165 0.03372,13.54982v3c0,0 0,4.5 -4.5,4.5c-4.5,0 -4.5,-4.5 -4.5,-4.5z" data-paper-data="{&quot;index&quot;:null}" fill="#6c6c6c" stroke-width="0.5"/><path d="M407.42183,342.53988c0,-4.5 4.5,-4.5 4.5,-4.5l0.57698,0.23093c8.08743,-2.56201 18.58171,-3.34623 27.14385,-2.17282c1.04433,0.14312 1.95757,0.84363 3,1c2.25116,0.33768 4.57369,-0.33318 6.829,-0.02439c2.15396,0.29491 4.27634,0.99619 6.45018,0.96628c0,0 4.5,0 4.5,4.5c0,4.5 -4.5,4.5 -4.5,4.5c-2.53997,-0.02413 -5.03776,-0.6574 -7.54982,-1.03372c-2.36397,-0.35414 -4.80279,0.30016 -7.171,-0.02439c-1.04433,-0.14312 -1.95757,-0.84363 -3,-1c-2.86512,-0.42977 -6.36507,0.05811 -9.27918,0.05811c-1.75983,0 -3.54671,-0.36721 -5.27918,-0.05811c-1.03771,0.18514 -1.96025,0.82671 -3,1c-1.76301,0.29383 -3.61612,0.22179 -5.2978,0.82718l-3.42302,0.23093c0,0 -4.5,0 -4.5,-4.5z" data-paper-data="{&quot;index&quot;:null}" fill="#6c6c6c" stroke-width="0.5"/><path d="M476.82015,175.35447c0,5 -5,5 -5,5h-1c-0.36219,-0.12687 -0.74728,-0.55992 -1.08658,-0.3806c-0.61255,0.32373 -0.69453,1.27103 -1.28476,1.63385c-0.898,0.55201 -2.09174,0.46506 -3,1c-1.03443,0.60925 -1.59237,1.9414 -2.71524,2.36615c-2.94182,1.11281 -6.36404,0.20079 -9.3672,1.13551c-1.55255,0.48323 -2.8248,1.69819 -4.39746,2.11133c-1.33823,0.35155 -2.76584,0.08917 -4.14876,0.13375c0,0 -5,0 -5,-5c0,-5 5,-5 5,-5c1.90476,0.13762 3.61977,-1.2225 5.45378,-1.75491c2.31725,-0.67269 4.73291,-0.98763 7.13382,-1.22805c0.51159,-0.05123 1.03123,0.57701 1.49899,0.36356c0.63031,-0.28762 0.69453,-1.27104 1.28476,-1.63386c0.898,-0.55201 2.09174,-0.46506 3,-1c1.03443,-0.60925 1.58571,-1.95944 2.71524,-2.36614c1.54558,-0.5565 3.27561,-0.25374 4.91341,-0.38061h1c0,0 5,0 5,5z" fill="#6c6c6c" stroke-width="0.5"/><path d="M294.26186,145.76257c1.05007,-0.26123 2.23075,-0.4081 3.55829,-0.4081c12,0 12,12 12,12c0,6.55877 -0.67705,12.8432 -3.5576,18.91239c-0.17606,0.37097 -0.33216,0.67733 -0.47009,0.92661c-0.22328,6.73207 -1.91807,9.88358 -9.38011,14.24756c-4.93503,2.88612 -6.20402,0.38325 -10.126,0.82353c-2.78385,0.31251 -5.42553,2.14097 -7.874,3.17647c-5.52369,2.33604 -11.54662,3.55346 -17.23714,5.43489c-8.20758,2.0519 -17.23682,4.61438 -25.82126,3.38864c-2.553,-0.36453 -4.90309,-1.69982 -7.45598,-2.06504c-4.55369,-0.65144 -7.62905,0.9319 -12.67002,-0.7585c-1.48571,-0.49821 -2.39852,-2.0312 -3.71657,-2.87875c-1.00427,-0.64577 -2.35326,-0.44604 -3.48596,-0.82361c-2.27501,-0.75834 -6.89271,-2.2374 -8.51404,-3.17639c-1.51155,-0.87541 -2.43407,-2.58414 -3.96345,-3.42802c-2.05245,-1.1325 -4.72419,-1.48388 -6.21306,-3.2945c-4.87945,-5.93388 -4.3251,-8.46188 -4.51472,-14.48529c0,-4.06593 0.4365,-7.49317 1.08991,-11.4662c0.39506,-2.4022 -0.54943,-5.11372 -0.08991,-7.5338c0.66482,-3.50125 0.50082,-7.46326 2.54153,-10.38494c1.63536,-2.34133 5.13379,-2.5287 7.54608,-4.05746c0.44278,-0.28061 0.45322,-1.01168 0.89586,-1.29251c2.03952,-1.29394 4.22218,-2.35943 6.42432,-3.35165c0.39178,-0.17652 0.92249,0.11193 1.28343,-0.12125c0.79192,-0.51162 1.15472,-1.5824 2,-2c2.34398,-1.15799 4.78817,-2.34839 7.38658,-2.63724c0.12889,-0.01433 7.76864,-0.47102 11.39988,1.49492c2.05781,-1.65764 4.67419,-2.64987 7.52231,-2.64987c1.99769,0 3.88137,0.48815 5.53826,1.35167c0.04855,0.24996 0.06646,0.49453 0.04507,0.73166c-0.34545,3.82964 -3.71509,10.48019 -0.41666,14.16666c1.10208,1.23173 7.2963,5.29074 8.75,5c1.16115,-0.23223 2.00649,-1.27221 3.08437,-1.7625c0.90034,-0.40953 2.93617,0.02224 3.63547,-0.72709c0.73426,-0.7868 1.37797,-1.65435 2.03016,-2.51041c2.03412,-2.66999 0.64545,-7.7235 2.5769,-10.30759c0.29,-0.38799 0.57478,-0.77425 0.85017,-1.16098c1.3389,-0.19923 2.67424,-0.4044 3.90627,-0.78143c3.28165,0 9.87169,-0.19909 12.5922,0.91344c2.31874,0.94824 3.33526,4.1009 5.71657,4.87875c2.77994,0.90806 6.35249,1.12673 9,3c1.56016,1.1039 2.94994,2.3034 4.13294,3.61591z" fill="#999999" stroke-width="0.5"/><path d="M256.23682,132.37505c0.86768,-1.51843 1.16565,-3.61041 2.37686,-4.78297c0.18472,-0.17883 0.39068,-0.33627 0.62314,-0.46703c0.32025,-0.18014 0.67282,-0.32064 1.05097,-0.42634c0.6111,-0.20978 1.26677,-0.32366 1.94903,-0.32366c0.35953,0 0.71166,0.03162 1.05378,0.09224c3.00615,0.20305 6.42525,1.4015 8.38758,2.25358c9.48742,4.11961 20.35101,7.20424 30.14963,9.65389c4.33823,1.08455 11.21655,5.08551 9.76778,10.39766c-0.71027,2.60432 -5.73226,4.4532 -7.78309,3.7696c-5.58399,-1.86133 -10.94543,-4.43527 -16.5691,-6.20265c-2.60152,-0.8176 -5.68164,-0.91332 -7.84908,-2.52202c-2.70863,-2.01038 -7.45371,-1.33218 -10.08995,-3.32408c-1.79964,-1.35978 -9.28584,-1.50023 -10.11275,-2.94732z" fill="#b3cedd" stroke-width="0.5"/><path d="M238.73682,129.20838c-1.40329,2.45576 -3.19194,5.66121 -6,6c-7.38377,0.89084 -14.92559,1.78761 -22.00388,4.04348c-4.78171,1.52394 -11.84637,8.08203 -15.4795,8.98976c-3.43924,0.85928 -8.63155,-0.80195 -8.38734,-5.19782c0.26931,-4.84753 3.96004,-6.17529 7.28847,-8.57429c7.54602,-5.43886 18.36431,-9.50441 27.81159,-9.76112c2.96471,-0.08056 12.01725,-3.81847 13.81587,-0.6709z" fill="#b3cedd" stroke-width="0.5"/><path d="M245.59592,144.20838c1.74657,0.02398 6.23331,-1.32295 7.80965,-1.20405c0.81832,0.06172 1.30134,0.84946 1.82118,1.21412c1.05277,0.73851 2.49665,1.06999 3.20997,2.13998c1.57029,2.35543 -1.36469,7.18832 -2.84579,8.3811c-4.76186,3.83487 -16.09943,0.97521 -20.36035,-2.49925c-0.41597,-0.33919 -0.98334,-0.99314 -1.52711,-1.80194c-0.35802,-0.45053 -0.65263,-0.95371 -0.87033,-1.49606c-0.97786,-1.98019 -1.40241,-4.24947 0.39945,-5.27911c1.04371,-1.76845 2.96876,-2.95479 5.1709,-2.95479c2.19452,0 4.11388,1.17816 5.16004,2.93648c0.76598,0.33192 1.48087,0.55595 2.03239,0.56352z" fill="#b3cedd" stroke-width="0.5"/><path d="M341.49717,78.97058c1.03973,0.17339 1.96703,0.79005 3,1c1.9164,0.38951 4.08857,-0.41885 5.94768,-0.54828c3.46242,-0.24103 6.4332,0.49553 9.82433,0.51575c1.33333,0.33333 2.64132,0.79294 4,1c3.1925,0.48652 3.39293,-1.44014 7.45018,0.58848c7.68856,3.84428 8.51444,15.89807 0.45813,19.97141c-1.55707,0.78727 -3.48816,-0.10116 -5.23264,-0.13405c-4.36573,-0.0823 -8.13007,0.50995 -12.61219,-0.01218c-8.85357,-1.03136 -16.97277,-0.47136 -25.79658,-0.45862c0,0 -1.54633,0 -3.06895,-0.78501c-2.46255,0.01064 -5.18105,-0.44462 -6.92593,-0.73543c-7.25361,0.04935 -14.13774,-1.42726 -21.43045,-1.99465c-5.65302,-0.43982 -11.41399,0.45619 -17.06955,-0.00535c-6.14596,-0.50156 -12.09769,-2.09415 -18.15982,-3.01538c-2.88111,-0.43783 -5.14538,0.06139 -7.97994,-1.07244c-13.28163,0.50182 -26.19814,-0.38467 -39.36024,-1.41218c-5.90615,-0.46107 -11.92395,0.43332 -17.83692,0.01126c-3.40717,-0.2432 -6.67738,-1.45088 -10.03948,-2.05442c-2.01467,-0.36165 -4.10458,-0.12034 -6.1236,-0.45685c-7.57518,0 -16.8592,-1.35141 -24.15616,-3.21119c-1.13465,-0.28919 -7.47271,-3.25608 -8.51858,-3.67438c-2.66364,-1.06533 -3.61868,-0.90377 -6.26993,-2.3634c-2.68332,-1.47729 -5.02097,-3.41504 -7.72663,-4.85551c-0.53081,-0.2826 -0.8516,-0.94863 -1.43542,-1.09279c-0.84351,-0.20828 -1.75914,0.29458 -2.60479,0.09518c-1.36618,-0.32214 -4.7585,-2.16376 -6.62581,-2.43546c-3.52594,-0.51304 -7.60328,0.05799 -11.16779,0.05799c-6.26191,0 -12.22215,-0.5717 -18.42533,-1.01509c-5.12999,-0.36668 -10.42685,0.01509 -15.57467,0.01509c-8.17498,0 -16.1329,-0.06199 -24.25579,0.95367c0,0 -1.09274,0.13659 -2.40044,-0.17541c-0.45961,3.45557 -0.4379,6.90204 -0.63502,10.4469c-0.4209,7.56909 -1.49482,14.65796 -1.49482,22.25065c0,0 0,1.7779 -0.9678,3.3981c0.03591,3.30597 0.02154,6.59955 -0.60323,9.86188c-0.47566,4.24616 0.06365,8.60798 -0.47393,12.81259c-0.98425,7.6982 -2.425,16.34289 -5.41177,23.563c-4.63596,11.20682 -12.65773,20.75988 -17.23314,31.99719c-3.03683,4.60861 -4.38452,9.67009 -6.96344,14.42938c-0.60994,1.12563 -1.76429,1.91222 -2.30341,3.07343c-0.39408,0.8488 -0.09387,1.89716 -0.41279,2.77697c-0.32342,0.89221 -1.16477,1.53797 -1.47628,2.4344c-0.68645,1.97539 -0.98193,5.36765 -1.17465,7.48741c-0.20527,2.2578 0.28226,4.20583 0.49125,6.41389c0.62575,6.61131 0.80174,14.67377 -0.5,21.18245c0,5.44394 -1.63616,11.05712 -2.55694,16.42177c-0.76828,4.47616 -0.49339,9.08148 -0.94306,13.57822c-0.45852,4.58516 -1.26657,8.95632 -1.69157,13.43994c2.09347,-0.42214 4.10052,-1.3036 6.22588,-1.51072c6.20587,-0.60477 12.75914,-0.02044 18.99489,-0.02044c7.18442,0 14.14525,-0.29217 21.11674,1.72192c5.49068,1.58628 9.72915,5.61039 14.1259,9.03544c1.93031,3.15024 8.06642,5.17588 11.44064,6.87608c3.97401,2.00242 7.60367,4.36174 11.33761,6.68253c2.62597,1.63214 6.11494,1.73417 9.06079,2.28235c5.32794,0.99143 8.6466,2.15675 14.17411,1.44802c0,0 2.33766,-0.29221 4.26647,0.95439c3.53948,0.02116 7.45749,0.50133 10.93161,0.05728c4.80683,-0.6144 11.11572,-3.9884 14.28893,-7.35409c0.11437,-0.12131 -0.43528,-0.03856 -0.45673,-0.2039c-0.13259,-1.02189 -0.06789,-2.06535 0.0292,-3.09122c0.15783,-1.66753 0.5,-3.32502 0.5,-5c1.03887,-5.19438 -0.15846,-11.76585 4.46254,-15.77623c1.39173,-1.20783 3.61094,-0.73758 5.41703,-1.10335c3.33668,-0.67574 7.19442,-1.24984 10.59635,-1.50876c4.03304,-0.30695 8.07882,-0.70392 12.12206,-1.00885c0.9549,-0.07202 1.9152,-0.01317 2.87282,-0.01159c0.36918,0.00061 0.93225,-0.07381 1.46628,-0.11715c0.0086,-0.46082 0.03372,-0.92246 0.03372,-1.38285c0,-2.83333 0,-5.66667 0,-8.5c0.10615,-3.56369 -0.30085,-6.18442 2.75736,-9.24264c1.46187,-1.46188 3.62687,-2.05807 5.60799,-2.6491c2.30061,-0.68634 6.17566,-0.11442 8.63465,-0.10826c3.8443,0.00964 7.63484,-0.5 11.5,-0.5c2.99979,0 6.0002,-0.01295 9,-0.00204c0,-3.83265 0,-7.66531 0,-11.49796c0,-3.46813 -0.59682,-9.74998 1.75736,-12.24264c2.29026,-2.42497 8.85481,-1.58875 11.81731,-1.74227c6.61008,-0.34252 12.47741,-3.12052 18.79068,-4.40684c0.8733,-0.17793 1.80089,0.15022 2.67356,-0.03079c5.40121,-1.12027 7.02352,-4.1648 13.03921,1.04427c1.43919,1.24622 0.87546,3.706 1.36389,5.54604c1.38619,5.22221 2.32935,9.45273 5.12806,14.12372c0.29043,0.46995 0.72599,0.88765 1.01231,1.35909c0.58482,-0.0251 1.34672,0.03551 1.78298,-0.04233c1.76715,-0.31532 3.23768,-1.65877 5,-2c1.21427,-0.23512 2.47665,0.00825 3.70932,-0.09316c3.84063,-0.316 8.60688,-1.70321 12.42533,-1.0151c2.28581,0.41192 5.14787,0.06878 6.74264,1.75736c1.99316,2.1104 1.75736,7.21545 1.75736,10.24264c0,4.73635 1.02553,8.70127 1.88689,13.34047c0.38297,2.06266 0.4618,4.23651 1.30747,6.15642c0.0049,0.00828 0.01014,0.01652 0.01568,0.02471c2.10829,-1.07887 3.88938,-1.05663 6.37244,-1.45103c3.32786,-0.52859 6.9766,-0.83245 10.20784,-1.82183c2.22809,-0.68223 4.14952,-2.188 6.70968,-1.74874c2.5074,0.43021 5.45598,0.78924 7.14006,2.69607c3.22089,3.64692 1.16205,6.08205 0.83074,9.39516c-0.60966,6.09662 -0.4708,12.24752 -0.4708,18.40877c-0.09082,8.90731 3.33074,16.88358 3.99082,25.6682c0.77374,10.29728 -1.11169,20.51497 -3.10733,30.5085c0,0 -0.20499,1.02498 -0.87167,2.13375c-1.04616,4.22864 -5.79788,4.22864 -5.79788,4.22864c-9.05913,0 -18.17768,-0.31446 -27.22812,-0.00617c-3.2411,0.11041 -6.40195,1.04703 -9.61719,1.47034c-4.04044,0.53195 -8.2921,0.32808 -12.35582,0.52837c-3.34589,0.16491 -6.653,0.85924 -10,1c-11.88601,0.49987 -23.90307,0.00745 -35.79888,0.00745c-29.34974,0 -58.84248,0.88313 -88.17624,-0.00259c-15.79508,-0.47692 -31.51248,-0.99741 -47.32376,-0.99741c-14.66666,0 -29.33334,0 -44,0c-15.21695,0 -29.97331,0.06239 -45.013,-2.08614c-3.28269,-0.69986 -6.13445,-0.72509 -9.50404,-1.60882c-1.60201,-0.42016 -3.21699,-0.80858 -4.77935,-1.35814c-0.02206,-0.00776 -0.02157,-0.02804 -0.00812,-0.05417c-3.44655,3.31837 -8.26953,2.60726 -12.69548,2.60726h-1c0,0 -2.40025,0 -4.16449,-1.51813c-4.5075,-0.44748 -5.04881,-5.31928 -5.04881,-5.31928c-0.86445,-7.91627 -1.1516,-15.87891 -1.52752,-23.83079c-0.12954,-2.74027 -1.1055,-5.37892 -1.46422,-8.0987c-0.60768,-4.6073 -1.10676,-9.57946 -1.52451,-14.23822c-0.4789,-5.34066 -0.02626,-11.16069 -0.02044,-16.49489c0.00423,-3.87567 -0.48839,-7.62226 -0.5,-11.5c0,-15.36341 -1.52187,-31.00997 -0.48841,-46.37282c0.27533,-4.09292 1.08469,-8.16442 1.5176,-12.2184c0.27974,-2.61966 -0.16808,-5.27393 -0.00876,-7.90366c0.1973,-3.25655 0.99575,-6.20749 0.97956,-9.50512c0.01127,-7.06416 2.01471,-13.47952 2.51509,-20.42533c0.10684,-1.48301 -0.1817,-5.14146 0.06238,-6.53576c0.95794,-5.47226 3.96309,-10.71252 5.01881,-16.10945c0.21697,-1.10917 -0.19033,-2.27344 -0.01881,-3.39055c0.19376,-1.262 0.64979,-2.49999 0.84044,-3.75762c-0.32881,-0.90748 -0.39328,-1.61662 -0.39328,-1.61662c-0.90999,-10.63025 1.96135,-19.64294 3.54897,-29.98023c1.12595,-7.33131 2.0706,-14.69066 2.93532,-22.05735c0.58327,-4.96896 0.0735,-10.01665 0.51151,-15.00052c0.89305,-10.16152 3.50485,-20.27235 6.92752,-30.08003c-1.19725,-1.09692 -1.94796,-2.67333 -1.94796,-4.42509v-2.5c0,-7.89133 -1,-15.63552 -1,-23.5c0,-0.69709 -0.0062,-10.07512 0.02044,-10.49488c0.35541,-5.59898 2.12776,-10.98357 3.06119,-16.49151c0.59066,-3.48533 0.98113,-7.87549 4.32353,-10.15384c0.9539,-0.65023 5.09859,-0.6121 8.58035,-0.5026c0.10892,-0.077 0.21933,-0.15161 0.33121,-0.22373c1.60213,-1.03277 3.78281,-0.48633 5.68328,-0.63344c3.0808,-0.23847 6.5226,0.61122 9.53891,0.07747c1.55695,-0.27551 2.95264,-1.17492 4.5,-1.5c1.76083,-0.36992 3.60555,-0.19541 5.36987,-0.54827c4.38749,-0.04144 8.71021,0.16923 13.02921,0.82965l2.81279,-0.31253c0.24545,-0.03058 0.4955,-0.04632 0.74923,-0.04632c3.31371,0 6,2.68629 6,6c0,0.03201 -0.00025,0.06396 -0.00075,0.09586c4.75075,0.76893 4.75075,5.90415 4.75075,5.90415l-0.11651,1.6767c-1.29257,6.46287 -2.6339,28.47476 7.78667,40.24169c10.42057,11.76693 50.1985,-0.39621 62.04125,0.6209c11.03002,0.94731 22.18083,0.38267 33.08767,2.57104c4.07878,0.58038 8.18901,0.9114 12.2201,1.45882c4.61962,0.62735 9.06232,2.12134 13.76178,2.47549c5.12255,0.38604 10.23553,0.16986 15.37794,0.49115c9.86042,0.61607 19.77052,3.50885 29.62206,3.50885c6.93248,1.11427 13.67547,0.30074 20.59634,1.00876c4.81962,0.49306 9.45443,2.10174 14.33411,2.48589c10.92447,0.86003 22.09835,0.48491 33.07467,0.48491c10.25929,0 24.65955,0.23069 30.68404,9.97911c1.14782,1.85733 1.86722,4.14874 2.27222,6.61577c1.46772,1.03608 2.44977,2.71429 2.53736,4.62583c1.35337,0.00949 2.99784,-0.22155 3.46748,-0.14323z" fill="#999999" stroke-width="0.5"/><path d="M163.4068,190.42064c-2.13811,3.92939 -6.80513,2.59597 -6.80513,2.59597c-3.97005,-1.22352 -6.63516,0.26869 -10.81277,-0.34662c-0.738,-0.1087 -1.293,-0.93217 -2.0389,-0.92253c-0.76058,0.00984 -1.61437,0.52566 -2.5,0.96639c0,0.5112 0,1.0224 0,1.53361c0,7.72092 1.806,15.25351 0.33109,22.91367c-1.00716,3.51578 -2.45293,6.40616 -3.73924,9.76147c-1.29642,3.38171 -2.06179,7.05902 -3.86127,10.26441c-0.91694,1.63333 -2.58413,2.77206 -3.46005,4.42776c-1.622,3.06596 -2.82225,5.77912 -4.92722,8.67421c-2.58825,3.55976 -5.7163,8.72071 -10.04721,10.50176c-2.08934,0.85922 -5.90582,0.26191 -8.20488,0.42753c-4.60889,0.33202 -7.61458,1.52065 -12.25039,-0.20477c-2.79796,-0.50487 -6.09403,-1.22289 -9.00862,-0.82403c-2.19449,0.30031 -5.67101,2.54431 -7.33221,2.558c-2.14004,0.01763 -3.956,-1.88464 -6.09122,-2.0292c-3.92378,-0.26565 -5.81349,0.70966 -9.37718,-3.60702c-1.80472,-2.18604 -1.3282,-5.54006 -1.51115,-8.36889c-0.26283,-4.06382 0.59468,-7.62791 1.00876,-11.58611c0.7571,-7.23713 -0.12039,-14.59838 1.04137,-21.8263c0.75053,-5.23412 1.80294,-11.57731 4.11476,-16.36712c0.22902,-0.47449 0.96419,-0.61022 1.12257,-1.11272c0.19907,-0.63158 -0.32806,-1.34407 -0.1474,-1.98116c1.07313,-3.78423 3.28627,-7.69539 4.74317,-11.28506c0.72274,-1.78077 0.88539,-3.77204 1.72125,-5.50259c2.02344,-4.18929 3.92835,-8.32194 6,-12.5c1.27682,-2.57507 2.50773,-4.3787 3.04399,-7.2475c0.57894,-2.03299 1.5734,-3.96035 1.90856,-6.04743c0.73785,-4.59466 0.07135,-9.39621 0.44297,-14.03379c0.21752,-2.71449 0.72061,-5.39804 1.00876,-8.09634c0.19622,-1.83755 -0.24948,-3.72487 0.07906,-5.54342c0.15956,-0.88323 0.82036,-1.62063 1,-2.5c0.87163,-4.26695 -0.52959,-8.96034 0.41218,-13.36024c0.42195,-1.97134 -0.02408,-4.45784 1.40144,-5.88336c2.91058,-2.91058 6.59612,-2.59798 10.07812,-2.62175c4.56596,0.03911 8.90125,-1.05667 13.5,-1c1.212,0.01493 2.50386,-0.32816 3.63465,0.10826c2.34593,0.90541 5.29725,1.60626 6.51217,3.80787c1.55171,2.8119 0.42387,7.9107 -0.26334,11.26057c-0.22626,1.10292 -0.26194,2.23392 -0.33112,3.36032c2.98746,0.14781 5.87803,0.69917 8.87297,0.97809c2.65196,0.24698 7.09185,-0.82272 8.8786,0.84485c3.38961,3.16349 2.20375,7.45993 1.6255,11.05758c-0.19112,1.33284 -0.29382,2.92156 -0.43458,4.47637c4.19225,-0.65988 8.88408,0.60905 12.57571,1.70238c2.04292,0.60504 4.86671,-1.58121 6.97801,-1.07115c2.38581,0.57638 4.99435,1.3787 6.62546,3.21276c1.44477,1.62453 1.41552,4.12846 1.80553,6.26722c1.13073,6.20082 -2.52265,12.77007 -2.5,18.98977c-1.18782,7.12688 0.61336,14.37175 -1.90869,21.23346l-0.7043,1.45493c0,0 -0.73659,1.47317 -2.20977,2.4899z" fill="#999999" stroke-width="0.5"/><path d="M303.03607,276.63919c0,-6 6,-6 6,-6l-0.17669,0.11652c3.33049,-0.6661 6.76704,-1.94101 10.04205,-2.50826c1.98509,-0.34382 4.04016,0.13486 6.04342,-0.07906c3.38191,-0.36115 6.66068,-0.5292 10.09123,-0.5292c0,0 6,0 6,6c0,6 -6,6 -6,6c-3.05958,0 -5.89952,0.18598 -8.90877,0.4708c-1.64505,0.1557 -3.33571,-0.40033 -4.95659,-0.07907c-3.25243,0.64465 -6.62117,1.82439 -9.95794,2.49174l-2.1767,0.11652c0,0 -6,0 -6,-6z" fill="#b3cedd" stroke-width="0.5"/><path d="M271.03607,249.6392c0,-6 6,-6 6,-6h1.5c7.19164,0 14.29831,-0.5 21.5,-0.5c0,0 6,0 6,6c0,6 -6,6 -6,6c-7.20132,0 -14.30493,0.5 -21.5,0.5h-1.5c0,0 -6,0 -6,-6z" fill="#b3cedd" stroke-width="0.5"/><path d="M215.53607,231.6392c0,-6 6,-6 6,-6l-0.17669,0.11651c5.15784,-0.98179 10.83983,-2.06373 16.08547,-2.58731c4.00804,-0.40006 8.23885,-0.74737 12.25943,-1.02002c3.19586,-0.21672 5.11291,0.16799 8.18347,-0.77832c0,0 5.76914,-1.64833 7.41747,4.12082c1.64832,5.76915 -4.12081,7.41747 -4.12081,7.41747c-3.92687,1.06709 -6.86304,0.96392 -10.81652,1.22168c-8.75124,0.57056 -18.09501,1.54751 -26.6551,3.39266l-2.1767,0.11652c0,0 -6,0 -6,-6z" fill="#b3cedd" stroke-width="0.5"/><path d="M178.53607,260.13919c0,-6 6,-6 6,-6h0.5c2.63207,0.2087 5.15106,-0.95351 8,-1c7.2391,-0.11812 14.56769,0.46799 21.7558,-0.45367c0,0 5.95367,-0.7442 6.69788,5.20946c0.74421,5.95367 -5.20946,6.69787 -5.20946,6.69787c-5.90714,0.7226 -11.79877,0.54633 -17.74421,0.54633c-2.1307,0 -5.26953,-0.53639 -7.36535,-0.10826c-2.03594,0.41589 -4.05759,1.0464 -6.13465,1.10826h-0.5c0,0 -6,0 -6,-6z" fill="#b3cedd" stroke-width="0.5"/><path d="M141.46521,282.36753c-2.22834,-5.57086 3.34252,-7.7992 3.34252,-7.7992l4.08352,-1.39439c4.25241,0.49892 7.88659,0.38885 12.0536,-0.00555c6.13545,-0.58071 12.1032,-0.09112 18.2427,-0.9689c0,0 5.9397,-0.84853 6.78823,5.09117c0.84853,5.9397 -5.09117,6.78823 -5.09117,6.78823c-2.28751,0.32651 -4.54824,0.88359 -6.85364,1.03986c-3.92464,0.26603 -8.00014,-0.4256 -11.90366,-0.00875c-4.00336,0.4275 -7.95576,1.09773 -11.9464,-0.00555l-0.91648,0.60561c0,0 -5.57086,2.22834 -7.79921,-3.34252z" fill="#b3cedd" stroke-width="0.5"/><path d="M4.53607,287.63919c0,-6 6,-6 6,-6l-0.1767,0.11652c4.11798,-0.78386 7.66442,-0.52552 11.76793,-0.08732c2.46399,0.26312 5.02542,-0.247 7.5,0c4.34578,0.43376 8.79808,1.22984 13.08547,2.08732c5.01461,1.00292 10.06827,1.97385 14.95795,2.99174c1.06674,0.22206 2.25595,-0.21708 3.26272,0.19964c3.74962,1.55204 5.07684,5.23418 8.55165,6.71466c2.80882,1.19673 6.19218,1.69752 8.99053,3.24685c0.54506,0.30178 0.83983,0.98946 1.42084,1.21438c0.85174,0.32971 1.86209,0.05307 2.71268,0.38572c1.73561,0.67876 2.88744,2.53804 4.67432,3.06728c2.9594,0.87653 6.22666,0.74931 9.29261,1.76421c9.32722,1.81506 17.91805,6.799 27.45999,6.799c1.96579,0 6.34783,0.86646 8.13961,-0.01621c2.4931,-1.22815 5.11006,-2.55025 7.67711,-3.85036c0,0 5.36657,-2.68328 8.04985,2.68328c2.68328,5.36656 -2.68328,8.04985 -2.68328,8.04985c-1.90787,0.94443 -3.99535,1.49451 -5.89865,2.44811c-0.88267,0.44225 -1.497,1.36256 -2.42425,1.70153c-3.39266,1.24024 -6.85594,0.98379 -10.36039,0.98379c-2.65648,0 -5.86355,0.39166 -8.46109,-0.07747c-1.9767,-0.35701 -3.69744,-1.67052 -5.67355,-2.03079c-0.81982,-0.14947 -1.68558,0.17654 -2.5,0c-3.82586,-0.8293 -7.57672,-2.9271 -11.22082,-4.18584c-1.65828,-0.57281 -3.46543,-0.55667 -5.18454,-0.9069c-3.47338,-1.16634 -7.31476,-1.05266 -10.70739,-2.23579c-1.64489,-0.57364 -2.66855,-2.3955 -4.32568,-2.93272c-1.06041,-0.34377 -2.25557,-0.1922 -3.28731,-0.61428c-2.60174,-1.06434 -4.63133,-2.85017 -7.41929,-3.78623c-1.02935,-0.3456 -2.18039,-0.30424 -3.16934,-0.75255c-2.21048,-1.00207 -4.23431,-2.43354 -6.06942,-4.02186c-0.70706,-0.61197 -1.2377,-1.41434 -1.72421,-2.21293c-0.00686,-0.01127 -0.00623,-0.02079 0.0001,-0.0288c-1.30992,0.02691 -2.59794,-0.55467 -3.8921,-0.8221c-4.0232,-0.83138 -8.41989,-1.18382 -12.54205,-2.00826c-3.91304,-0.78261 -7.95495,-1.51553 -11.91453,-1.91268c-2.46788,-0.24754 -5.02239,0.2345 -7.5,0c-2.93973,-0.27824 -5.28066,-0.72351 -8.23207,-0.08732l-2.1767,0.11652c0,0 -6,0 -6,-6z" fill="#b3cedd" stroke-width="0.5"/><path d="M121.00727,97.97783c1.74899,0.54418 4.0288,1.96287 4.0288,5.66137c0,6 -6,6 -6,6l-4.1,-1.2c-1.97961,-1.91793 -4.43623,-0.21369 -6.69031,0.45126c-5.4721,1.61427 -10.20032,1.08156 -15.69608,0.1671c0,0 -5.91836,-0.98639 -4.93197,-6.90475c0.9864,-5.91836 6.90475,-4.93197 6.90475,-4.93197c1.87975,0.31377 4.45136,1.19923 6.42238,0.94756c6.26411,-0.79982 11.52473,-4.25801 18.04024,-1.50664c0.74272,0.31364 1.3851,0.81003 2.02218,1.31607z" fill="#b3cedd" stroke-width="0.5"/><path d="M143.27872,128.38184c-2.47758,2.47758 -4.95515,2.06149 -6.58782,1.28646c-3.56346,0.10679 -7.04821,0.4709 -10.65483,0.4709c0,0 -6,0 -6,-6c0,-6 6,-6 6,-6c4.21449,0 8.27357,-0.5 12.5,-0.5l4.74265,2.25736c0,0 4.24264,4.24264 0,8.48528z" fill="#b3cedd" stroke-width="0.5"/><path d="M166.53607,148.6392c-1.6392,0 -2.83056,-0.44783 -3.69645,-1.09879c-3.14195,-0.16473 -6.16785,-0.51838 -9.39477,-0.93041c-2.90357,-0.37074 -6.39863,0.5292 -9.40877,0.5292c0,0 -6,0 -6,-6c0,-6 6,-6 6,-6c3.53718,0 7.08435,-0.77513 10.59123,-0.4708c4.09971,0.35577 7.72883,0.9708 11.90877,0.9708l6,7c0,0 0,6 -6,6z" fill="#b3cedd" stroke-width="0.5"/><path d="M312.85279,353.00576c-4.58883,-2.29442 -3.29195,-6.55074 -2.81968,-7.73622c-0.03516,-1.23881 -0.10656,-2.48302 0.20396,-3.67036c0.38896,-1.48721 1.53649,-2.66785 2.17997,-4.06392c0.6984,-1.51522 0.01709,-5.13189 0.14823,-6.48729c0.20626,-2.13188 1.1469,-4.13348 1.5288,-6.24099c0.33688,-1.85908 -0.058,-3.77843 -0.058,-5.66779c0,-6.96413 -0.68854,-14.32054 0.61652,-21.1767c0,0 1.17669,-5.88348 7.06018,-4.70678c5.88349,1.17669 4.70679,7.06018 4.70679,7.06018c-1.82581,8.47029 0.90453,17.61867 -0.44148,26.15551c-0.30858,1.95715 -1.3112,3.78417 -1.47121,5.75902c-0.26857,3.3148 0.40679,6.23948 -0.85177,9.51271c-0.6169,1.60442 -1.79439,3.1861 -1.61903,4.89607l-1.13344,3.68328c0,0 -2.68328,5.36656 -8.04984,2.68328z" fill="#6c6c6c" stroke-width="0.5"/><path d="M262.20787,346.6315c-4.05376,-2.7025 -2.62142,-6.50223 -1.93959,-7.8354c-0.62509,-4.72642 -0.63038,-8.85483 -0.09951,-13.91182c1.91303,-5.81158 4.13537,-11.83114 6.32402,-17.54118c0.31969,-0.83405 1.10789,-1.4374 1.41279,-2.27697c0.32025,-0.88185 0.12625,-1.89289 0.42459,-2.7824c1.23141,-3.67145 3.58471,-7.22125 4.28337,-11.10563c0.22102,-1.22881 -0.22297,-2.52588 0.04506,-3.7453c0.33176,-1.50932 1.21467,-2.84459 1.72414,-4.30355c2.7158,-7.77718 5.90679,-13.99049 10.85332,-20.59005c0,0 3.6,-4.8 8.4,-1.2c4.8,3.6 1.2,8.4 1.2,8.4c-2.51846,3.35597 -5.06583,6.61665 -6.86883,10.44998c-1.03897,2.20893 -1.43727,4.66818 -2.27784,6.95997c-0.3424,0.93354 -1.07447,1.72271 -1.27586,2.69645c-0.21975,1.06252 0.25162,2.18953 0.04505,3.25469c-0.36203,1.8669 -1.13942,3.62877 -1.73043,5.43628c-3.20812,9.81163 -7.48695,19.04021 -10.8248,28.85755c-0.3997,4.31326 -0.15512,7.52158 0.55106,11.75869l-1.92606,5.81459c0,0 -3.3282,4.9923 -8.3205,1.6641z" fill="#6c6c6c" stroke-width="0.5"/><path d="M185.35279,348.00576c-5.36657,-2.68328 -2.68328,-8.04985 -2.68328,-8.04985l1.06656,-1.91672c4.01701,-5.31563 3.97041,-11.55565 7.04036,-17.28726c2.0667,-3.85852 4.83516,-6.95932 7.53041,-10.30522c1.78639,-2.21765 2.98651,-4.89353 4.92084,-6.98339c2.5026,-2.70381 6.17156,-4.60453 9.18291,-6.68078c1.75339,-2.27278 3.77813,-4.96209 5.88285,-6.886c3.07177,-2.80788 5.59015,-4.27143 8.27187,-7.25889c1.19155,-1.3274 2.89715,-2.27304 3.70023,-3.86579c5.21332,-10.33947 9.60925,-20.97303 14.28767,-31.56952c0,0 2.43683,-5.48287 7.9197,-3.04604c5.48287,2.43683 3.04603,7.9197 3.04603,7.9197c-1.04376,2.33513 -2.53419,4.46709 -3.43959,6.85927c-1.48571,3.92545 -2.29826,7.92496 -4.34892,11.707c-1.88616,3.47866 -4.08531,6.87488 -5.74328,10.50404c-0.49331,1.07983 -0.59338,2.32837 -1.18055,3.36017c-3.3502,5.88712 -9.18417,9.50513 -14.02789,13.87533c-2.18455,1.97098 -4.23596,4.82386 -6.11715,7.114c-2.523,1.84345 -6.64964,3.91582 -8.8171,6.31921c-1.62274,1.79937 -2.57109,4.1201 -4.07915,6.01662c-2.64026,3.32034 -6.04838,6.60879 -7.554,10.75475c-0.53199,1.46494 -0.46448,3.08962 -0.87624,4.59279c-1.23893,4.52289 -3.21113,8.32079 -5.999,12.06l0.06656,0.08328c0,0 -2.68328,5.36656 -8.04985,2.68328z" fill="#6c6c6c" stroke-width="0.5"/><path d="M221.93607,350.9392c-4.8,-3.6 -1.2,-8.4 -1.2,-8.4l1.5938,-2.12178c3.81564,-4.475 4.83806,-9.03959 5.78784,-14.76462c0,0 0.98639,-5.91837 6.90476,-4.93197c5.91836,0.9864 4.93197,6.90476 4.93197,6.90476c-1.29627,7.74557 -3.16573,14.07317 -8.21215,20.23539l-1.40621,1.87822c0,0 -3.6,4.8 -8.4,1.2z" fill="#6c6c6c" stroke-width="0.5"/><path d="M137.53607,351.6392c0,-3.61284 2.17543,-5.05024 3.90648,-5.62213c0.78168,-0.86192 1.61911,-1.66773 2.57162,-2.32152c2.74596,-5.37308 5.96124,-10.40019 10.21352,-14.73221c0.95151,-0.96936 2.51096,-1.45824 3.04617,-2.70667c3.76574,-8.78397 5.26924,-19.34662 11.83963,-26.67218c2.21689,-2.4717 5.31277,-4.30931 7.67995,-6.68793c0,0 4.24265,-4.24264 8.48529,0c4.24264,4.24264 0,8.48528 0,8.48528c-2.25208,2.24315 -5.22697,4.00075 -7.32005,6.31207c-2.20265,2.4323 -3.267,5.65298 -4.17133,8.65497c-1.52981,5.07828 -3.4792,10.99428 -5.98904,15.67285c-1.14239,2.12953 -3.2244,3.60542 -4.95383,5.29332c-1.72058,1.67927 -4.02133,4.47755 -5.44093,6.3324c-1.8329,2.39486 -2.82856,5.32892 -4.34555,7.93538c-1.40994,1.12068 -2.73925,2.37643 -3.83669,3.80453l-5.68521,2.25183c0,0 -6,0 -6,-6z" fill="#6c6c6c" stroke-width="0.5"/><path d="M17.44665,347.96005c-5.82085,-1.45522 -4.36564,-7.27607 -4.36564,-7.27607l0.62875,-2.44216c0.97929,-2.87234 1.13306,-5.61905 1.86903,-8.54895c0.57269,-2.27991 1.88019,-4.33616 2.41935,-6.62423c0.80244,-3.4053 0.92435,-7.89177 0.90372,-11.42945c0,0 0,-6 6,-6c6,0 6,6 6,6c-0.01919,4.21966 -0.15252,9.42634 -1.09628,13.57055c-0.57837,2.53971 -1.9529,4.84781 -2.58065,7.37577c-0.79478,3.20058 -1.09097,6.27759 -2.13097,9.45105l-0.37124,1.55784c0,0 -1.45522,5.82086 -7.27607,4.36565z" fill="#6c6c6c" stroke-width="0.5"/><path d="M55.86622,332.15831c-0.16116,1.45737 -1.051,5.48089 -5.96436,5.48089c-6,0 -6,-6 -6,-6l0.3079,-2.39737c1.34201,-3.90535 1.67045,-8.06565 2.9862,-11.9581c0.82196,-2.43162 2.1816,-4.64808 3.19102,-7.00805c0,0 2.36351,-5.51487 7.87839,-3.15136c5.51487,2.36352 3.15136,7.87838 3.15136,7.87838c-0.87026,2.02697 -2.12344,3.89528 -2.80898,5.99195c-1.18959,3.63828 -1.65019,7.46224 -2.74153,11.16364z" fill="#6c6c6c" stroke-width="0.5"/><path d="M54.40186,353.6392c0,-3.23411 1.74325,-4.72499 3.35046,-5.41224c1.64755,-1.87826 3.05813,-3.96245 4.79961,-5.72033c3.52743,-3.56065 6.49609,-4.90395 6.34993,-10.36743c0,0 0,-6 6,-6c6,0 6,6 6,6c-0.07855,5.19083 -1.11251,9.318 -4.23176,13.64196c-2.10061,2.9119 -2.99545,2.59839 -5.41832,4.99061c-2.18278,2.15517 -3.90477,4.89878 -6.10729,7.11007l-4.74264,1.75736c0,0 -6,0 -6,-6z" fill="#6c6c6c" stroke-width="0.5"/><path d="M119.1445,329.39655c4.24264,4.24264 0,8.48528 0,8.48528l-0.44264,0.35736c-1.45449,1.93932 -2.62297,4.78069 -4.0377,6.54972c-2.92537,3.65797 -7.88262,4.78756 -11.01966,8.09292c0,0 -4.24264,4.24264 -8.48528,0c-4.24264,-4.24264 0,-8.48528 0,-8.48528c1.95789,-1.90137 4.26719,-3.42557 6.58825,-4.86127c1.12296,-0.69461 2.70869,-0.916 3.39208,-2.04582c1.29036,-2.13329 2.38813,-4.35137 3.96231,-6.45027l1.55736,-1.64264c0,0 4.24264,-4.24264 8.48528,0z" fill="#6c6c6c" stroke-width="0.5"/><path d="M84.90956,186.4674c-3.3282,-4.9923 1.66411,-8.3205 1.66411,-8.3205l1.2282,-0.8077c0.81521,-0.6013 1.54835,-1.33375 2.44561,-1.8039c0.48846,-0.25595 1.31294,0.12964 1.62166,-0.3273c0.51023,-0.75519 0.1525,-1.83118 0.4244,-2.70108c0.95316,-3.04949 2.8845,-5.56152 4.13089,-8.31673c1.32565,-2.93043 1.43661,-7.64309 3.18739,-10.38213c4.48427,-7.0155 13.05389,-10.28326 17.90765,-17.15628c0,0 3.48743,-4.8824 8.36983,-1.39497c4.8824,3.48743 1.39497,8.36983 1.39497,8.36983c-3.37587,4.68388 -7.15125,8.18162 -11.66063,11.71878c-1.78883,1.40315 -4.22324,2.19924 -5.43173,4.12494c-0.24435,0.38937 0.08404,0.93555 -0.03879,1.37853c-0.6225,2.24513 -1.85083,6.14123 -2.77383,8.23934c-1.14687,2.60702 -2.73611,4.96131 -3.86911,7.68327c-0.8717,2.09421 -1.18594,4.50605 -2.5756,6.29893c-1.44634,1.866 -4.06166,2.42901 -5.93273,3.86879l-1.7718,1.1923c0,0 -4.99231,3.3282 -8.3205,-1.6641z" fill="#6c6c6c" stroke-width="0.5"/><path d="M88.90186,205.6392c0,-6 6,-6 6,-6l3.72835,0.42914c2.85884,1.38057 3.8774,-0.64166 6.91619,-1.63504c1.94567,-0.63605 5.43057,-0.35594 7.32119,-1.23262c1.66503,-0.77206 2.44468,-2.7386 3.63194,-4.13818c1.3171,-1.28236 3.67553,-3.44737 4.35905,-5.2194c0.60905,-1.57895 -0.07797,-3.38961 0.05487,-5.07673c0.36068,-4.58065 1.39265,-8.62824 4.25917,-12.31965c3.86918,-4.9826 9.10959,-6.84411 15.32046,-6.27832c1.53002,0.13938 2.96993,0.92269 4.50551,0.97158c2.63365,0.08385 4.31011,-2.07256 6.45425,-2.97822c1.19129,-0.50319 2.51488,-0.60403 3.77232,-0.90605c0,0 5.88349,-1.1767 7.06019,4.70678c1.17669,5.88349 -4.70679,7.06018 -4.70679,7.06018c-2.45319,0.18774 -5.80902,2.77722 -8.12285,3.41183c-1.51201,0.41469 -3.08282,0.68712 -4.65058,0.70391c-3.68687,0.0395 -7.45283,-2.79202 -10.17404,0.69325c-3.17551,4.06714 -1.03044,9.96471 -2.68596,14.60363c-1.10609,3.09938 -4.41306,6.50754 -6.64094,8.7806c-2.3846,2.7572 -3.99294,5.1435 -7.36806,6.86182c-2.66607,1.35733 -5.93958,0.82775 -8.67881,1.76738c-4.1057,1.40837 -6.78168,3.46297 -11.49011,2.68584c-1.25921,-0.20783 -2.3958,-0.88058 -3.5937,-1.32088l0.72835,0.42914c0,0 -6,0 -6,-6z" fill="#6c6c6c" stroke-width="0.5"/><path d="M88.21858,251.50576c-5.36656,-2.68328 -2.68328,-8.04985 -2.68328,-8.04985l1.56656,-2.91671c1.67105,-2.04602 3.8907,-3.62769 6.14561,-5.00391c4.86696,-2.9704 9.13303,-7.28442 14.49081,-9.49243c1.97139,-0.81244 4.08714,-1.28922 5.98029,-2.27023c0,0 5.36657,-2.68329 8.04985,2.68328c2.68328,5.36657 -2.68328,8.04985 -2.68328,8.04985c-2.25674,1.10009 -4.67341,1.83646 -7.0197,2.72977c-3.49002,1.32876 -7.14265,4.5898 -10.11962,6.74519c-1.59482,1.15468 -4.32388,2.07967 -5.24395,3.75848l-0.43344,1.08328c0,0 -2.68328,5.36656 -8.04985,2.68328z" fill="#6c6c6c" stroke-width="0.5"/><path d="M73.21858,237.00576c-5.36656,-2.68328 -2.68328,-8.04985 -2.68328,-8.04985l0.42686,-0.16524c0.76293,-5.12258 2.43087,-9.93877 3.59335,-15.00063c0,0 1.34916,-5.84634 7.1955,-4.49719c5.84635,1.34915 4.49719,7.1955 4.49719,7.1955c-1.08227,4.66914 -2.76955,9.26653 -3.40665,13.99937l-1.57313,3.83476c0,0 -2.68328,5.36656 -8.04985,2.68328z" fill="#6c6c6c" stroke-width="0.5"/><path d="M193.65922,183.88184c-3.39542,-3.39542 -1.35607,-6.79085 -0.40619,-8.01153c3.22469,-7.84746 7.10623,-15.09951 8.76534,-23.40781c0,0 1.17669,-5.88348 7.06018,-4.70678c5.88349,1.17669 4.70679,7.06018 4.70679,7.06018c-1.89688,9.46877 -6.23694,17.61243 -9.81262,26.55165l-1.82822,2.5143c0,0 -4.24264,4.24264 -8.48528,0z" fill="#6c6c6c" stroke-width="0.5"/><path d="M232.58514,190.50576c-5.36657,2.68328 -8.04985,-2.68328 -8.04985,-2.68328l0.12393,-0.44064c-6.142,-6.52674 -6.25736,-14.24915 -6.25736,-22.74264c0,0 0,-6 6,-6c6,0 6,6 6,6c0,4.47421 -1.02284,11.02084 2.74264,14.25736l2.12392,3.55935c0,0 2.68329,5.36657 -2.68328,8.04985z" fill="#6c6c6c" stroke-width="0.5"/><path d="M246.65922,197.38184c-4.24264,-4.24264 0,-8.48528 0,-8.48528l0.17178,0.5143c2.49835,-6.24587 2.8626,-12.82449 4.18738,-19.44836c0,0 1.17669,-5.88348 7.06018,-4.70678c5.88349,1.17669 4.70679,7.06018 4.70679,7.06018c-1.4747,7.37353 -2.01107,14.54776 -4.81263,21.55165l-2.82822,3.5143c0,0 -4.24264,4.24264 -8.48528,0z" fill="#6c6c6c" stroke-width="0.5"/><path d="M269.30186,186.4392c-4.8,-3.6 -1.2,-8.4 -1.2,-8.4l1.65375,-2.19638c2.29317,-2.58394 5.54811,-5.4225 6.96883,-8.64449c0.0512,-0.1161 0.09292,-0.24551 0.13481,-0.37656c-2.98071,-0.69448 -5.82056,-1.83705 -7.6786,-4.72638c-0.99369,-1.54523 -0.5192,-3.63746 -0.7788,-5.45619c0,0 0,-6 6,-6c4.09434,0 5.39475,2.79394 5.80777,4.5687c4.82785,0.65092 8.81249,5.41437 9.1844,10.12481c0.57824,7.32388 -6.05821,13.28741 -10.34593,18.10286l-1.34624,1.80363c0,0 -3.6,4.8 -8.4,1.2z" fill="#6c6c6c" stroke-width="0.5"/><path d="M7.40186,51.39311c-6,0 -6,-6 -6,-6v-1c0,-5.69565 -0.68353,-14.04542 5.2596,-17.54973c3.51371,-2.07183 8.59054,-0.14998 11.87663,-2.41868c3.88526,-2.68236 6.4965,-7.8735 9.90754,-11.04249c3.1744,-2.94913 7.15529,-5.88505 10.86926,-8.13406c0,0 5.14496,-3.08698 8.23193,2.05798c3.08698,5.14496 -2.05798,8.23193 -2.05798,8.23193c-3.14662,1.86501 -6.46073,4.42144 -9.13074,6.86594c-3.89541,3.5664 -6.48644,9.11247 -11.09246,11.95751c-3.45009,2.13105 -7.49213,3.37644 -11.48775,2.70463c0.10495,0.77799 -0.39802,1.54166 -0.37602,2.32697c0.04666,1.66602 0,3.33333 0,5v1c0,0 0,6 -6,6z" fill="#6c6c6c" stroke-width="0.5"/><path d="M4.58271,110.30066c-0.52947,1.75679 -1.93733,4.09245 -5.68085,4.09245c-6,0 -6,-6 -6,-6l1.2,-4.1c0.58909,-0.77707 1.17819,-1.55414 1.76727,-2.33121c0.94675,-0.93268 1.80249,-1.9678 2.84025,-2.79802c0.86928,-0.69543 1.90535,-1.15221 2.84454,-1.74985c0.37779,-0.2404 0.68423,-0.61117 1.10529,-0.76355c0.00047,-0.00017 0.00095,-0.00034 0.00142,-0.00049c-0.71582,-5.20089 -0.37431,-10.39448 3.15718,-14.62811c0.98427,-1.17996 2.45165,-1.87658 3.5,-3c1.62736,-1.74391 2.25082,-4.29058 3.94354,-5.97113c3.40369,-3.3792 9.03865,-5.24086 13.52697,-6.4366c1.98006,-0.52751 4.5278,-0.98761 5.46859,-2.80801c0,0 3.08698,-5.14496 8.23194,-2.05799c5.14496,3.08698 2.05798,8.23194 2.05798,8.23194c-1.94619,3.0503 -2.39612,4.63994 -6.00885,6.30291c-4.11021,1.89196 -11.47561,1.86727 -14.9956,5.45248c-1.37429,1.39974 -1.75217,3.56369 -3.05646,5.02887c-1.21967,1.37013 -3.37167,2.06452 -3.98771,3.79234c-1.10697,3.10474 0.61649,7.02417 -0.40423,10.23378c-1.54002,4.84252 -6.0797,5.84204 -9.15937,9.03385c-0.11729,0.15878 -0.23459,0.31756 -0.35188,0.47634z" fill="#6c6c6c" stroke-width="0.5"/><path d="M-15.69814,166.19311c-4.8,-3.6 -1.2,-8.4 -1.2,-8.4l2.65028,-3.16231c1.55007,-0.71764 3.10703,-1.42235 4.63129,-2.19327c2.09594,-3.41168 4.73539,-6.36284 6.91453,-9.69881c2.7411,-4.19624 2.64775,-10.08782 7.72148,-12.80134c2.45767,-1.3144 5.42877,-2.2669 8.17144,-1.77135c2.14829,0.38815 4.5611,2.45214 4.81107,4.62613c0.87795,-0.21279 1.79747,-0.25037 2.69651,-0.35767c4.63349,-0.553 5.63527,-0.21218 6.28505,-5.02777c0,0 0.98639,-5.91837 6.90476,-4.93197c5.91837,0.9864 4.93197,6.90476 4.93197,6.90476c-0.75515,4.10086 -2.03918,9.09865 -5.71085,11.73105c-4.02311,2.88437 -6.43824,2.70913 -11.0041,3.24117c-4.39695,0.51236 -8.53758,0.79738 -11.65373,-1.88948c-0.34498,0.96866 -0.64568,1.95624 -1.07624,2.88879c-2.63433,5.70562 -7.0365,11.07376 -10.955,15.99764c-1.71006,1.07404 -3.41212,2.30711 -5.36871,2.80672l-0.34972,0.8377c0,0 -3.6,4.8 -8.4,1.2z" fill="#6c6c6c" stroke-width="0.5"/><path d="M-9.3478,221.30129c-0.47081,1.77572 -1.82948,4.33791 -5.75034,4.33791c-6,0 -6,-6 -6,-6l1.31479,-4.24817c2.20136,-2.27094 1.9502,-5.5789 3.19679,-8.67612c1.1131,-2.76557 3.28526,-5.60554 4.84347,-8.16268c0.6329,-1.03865 1.05491,-2.24623 1.91573,-3.1055c1.76267,-1.7595 3.54214,-3.71251 5.85072,-4.64702c1.06702,-0.43193 2.17614,0.86118 3.32504,0.9327c0.25918,0.01613 -0.40506,-0.53914 -0.24135,-0.74071c0.68138,-0.83893 1.74663,-1.2874 2.50998,-2.0525c1.5604,-1.564 3.12408,-3.15243 4.40352,-4.95353c0.68687,-0.96692 0.26524,-2.36014 0.49785,-3.52316c0,0 1.17669,-5.88348 7.06018,-4.70678c5.88349,1.17669 4.70679,7.06018 4.70679,7.06018c-0.2538,1.26898 -1.11966,5.81252 -1.50215,6.47684c-1.11978,1.94483 -2.85711,3.4615 -4.27988,5.197c-2.72281,3.32132 -6.74249,7.86408 -11.04797,9.05625c-0.63339,0.17538 -1.23427,-0.22554 -1.83712,-0.60819c-0.22706,1.6367 -1.71549,2.86186 -2.5714,4.28838c-2.77882,4.63137 -3.68015,9.61451 -6.39461,14.07512z" fill="#6c6c6c" stroke-width="0.5"/><path d="M-10.55335,271.96005c-5.82085,-1.45522 -4.36564,-7.27607 -4.36564,-7.27607l0.32085,-0.54479c0.05568,-5.89448 1.4885,-12.01239 4.18533,-17.28464c2.21914,-4.33838 6.28352,-7.63305 8.66972,-11.80233c0,0 3.08698,-5.14496 8.23194,-2.05799c5.14496,3.08697 2.05798,8.23193 2.05798,8.23193c-2.36986,3.84169 -6.38347,7.13264 -8.33028,11.19767c-1.70878,3.56802 -2.87554,7.73643 -2.81467,11.71536l-0.67915,3.45521c0,0 -1.45521,5.82086 -7.27607,4.36565z" fill="#6c6c6c" stroke-width="0.5"/><path d="M-12.32648,332.21006c-5.57086,-2.22834 -3.34252,-7.79921 -3.34252,-7.79921l1.19578,-2.93784c1.04516,-1.74194 1.6212,-3.74848 2.74297,-5.4421c2.44551,-3.69218 5.71472,-6.64467 7.98716,-10.47869c0,0 3.08698,-5.14496 8.23194,-2.05798c5.14496,3.08697 2.05798,8.23194 2.05798,8.23194c-2.32641,3.84177 -5.54284,6.85064 -8.01284,10.5213c-0.94648,1.40657 -1.38477,3.10412 -2.25703,4.55789l-0.80422,2.06216c0,0 -2.22834,5.57087 -7.7992,3.34252z" fill="#6c6c6c" stroke-width="0.5"/><path d="M463.40264,4.20982c2.68328,5.36656 -2.68328,8.04985 -2.68328,8.04985l-3.50659,1.51693c-6.66532,0.9376 -11.08492,9.1717 -15.21378,13.6268c-2.76096,2.97912 -6.3723,4.84583 -9.22027,7.73235c0,0 -4.24264,4.24264 -8.48528,0c-4.24264,-4.24264 0,-8.48528 0,-8.48528c2.67797,-2.65094 6.32575,-4.49189 8.77973,-7.26765c6.29107,-7.116 11.96059,-15.15509 21.78622,-17.3732l0.49342,-0.48308c0,0 5.36656,-2.68328 8.04984,2.68328z" fill="#6c6c6c" stroke-width="0.5"/><path d="M472.68647,24.15222c0.3635,-1.75711 1.60555,-4.75911 5.8496,-4.75911c6,0 6,6 6,6l-1.2,4.6c-3.28693,4.34953 -6.47373,11.23813 -11.89868,13.23407c-1.95785,0.72033 -4.08644,-0.84213 -6.12966,-1.2632c0,0 -5.57086,-2.22835 -3.34252,-7.79921c1.57484,-3.93709 4.81916,-3.97874 6.58663,-3.66455c0.08832,-0.33467 0.24421,-0.67061 0.38278,-0.95764c0.84091,-1.74184 2.39925,-3.6732 3.75185,-5.39035z" fill="#6c6c6c" stroke-width="0.5"/><path d="M62.90186,35.3931c11.84826,0 13.63397,0.20324 25.42533,1.01509c3.22918,0.22233 5.85535,1.01722 9.07467,0.98491c12.83333,0 25.66667,0 38.5,0c6.73037,0 14.03707,0.89807 20.54479,-0.82086c0,0 2.18439,-0.5461 4.21142,0.36892c5.75143,0.29766 11.23702,1.89195 16.83909,3.02941c1.78511,0.36245 3.64756,-0.19527 5.46424,-0.06238c4.52039,0.33066 8.91162,1.72181 13.44749,1.9965c3.5228,0.21334 6.73854,0.27572 10.2184,1.01761c9.93029,0.06742 19.90869,3.77883 29.90366,4.49124c3.30408,0.23551 6.86153,-0.47504 10.13976,0.08782c3.30132,0.56683 6.53017,2.07726 9.95658,2.42094c5.52033,0.5537 10.10229,0.25244 15.46262,2.17549c2.70626,0.44023 5.29715,0.39411 8.02784,0.89362c2.34626,0.42919 4.66989,1.76184 7.00954,1.93089c7.6447,0.55237 15.41576,1.03324 22.86987,2.54828c1.4811,0.30103 3.02845,-0.19202 4.53379,-0.05703c3.19064,0.28611 7.03084,0.87345 10.12185,1.70148c1.79223,0.4801 3.51483,1.22079 5.33049,1.60284c2.05223,1.34028 4.71283,2.04012 6.15669,4.02085c1.12411,1.54209 0.71749,3.75445 0.8961,5.65439c0.02111,0.22459 -0.40355,0.39834 -0.3079,0.60263c0.19968,0.42649 0.79933,0.55215 1.03849,0.95782c1.13549,1.9261 1.53038,4.38353 3.93299,5.34322c2.34324,0.93598 5.96945,-0.18715 8.42765,0.12553c6.76331,0.86029 13.55402,2.01078 20.40877,1.9708c0,0 6,0 6,6c0,6 -6,6 -6,6c-7.25736,-0.03301 -14.4362,-1.0238 -21.59123,-2.0292c-5.86583,-0.82425 -10.28327,0.75718 -15.60125,-3.24157c-3.06608,-2.30548 -4.33105,-5.09508 -6.03811,-8.28968c-0.99086,-1.8543 -2.13172,-3.90916 -2.3131,-5.98572c-3.8173,-0.82232 -7.47307,-2.10555 -11.4512,-2.47428c-9.13773,-0.84697 -18.40507,-1.42785 -27.59634,-2.50876c-2.104,-0.24743 -4.0942,-1.09469 -6.11846,-1.71954c-3.44465,-1.06331 -7.31167,-0.86045 -10.84416,-1.45595c-4.6207,-1.82844 -8.6969,-1.34136 -13.53738,-1.82451c-3.78388,-0.37768 -7.42164,-1.85338 -11.04342,-2.57906c-2.57369,-0.51568 -6.31997,0.26957 -8.86024,0.08782c-6.80672,-0.487 -13.78365,-1.92705 -20.51812,-3.06569c-3.48115,-0.58858 -5.98136,-1.47062 -9.57822,-1.44307c-4.76029,-0.90738 -9.41347,-0.89136 -14.20517,-1.52389c-3.01681,-0.39823 -6.09184,-1.25206 -9.12894,-1.46201c-1.50937,-0.10434 -5.11178,0.17889 -6.53576,-0.06238c-5.49662,-0.9313 -10.85813,-2.98045 -16.53891,-2.92252h-0.5c0,0 -0.62515,0 -1.47188,-0.20179c-6.9343,1.23325 -14.10508,0.70179 -21.16234,0.70179c-12.83333,0 -25.66667,0 -38.5,0c-3.49288,-0.02493 -6.49548,-0.79627 -9.92533,-1.01509c-11.52646,-0.73538 -13.99756,-0.98491 -25.57467,-0.98491c0,0 -6.24307,-3.08314 -6,-6c0.24307,-2.91686 7.00001,-6 7.00001,-6z" fill="#b3cedd" stroke-width="0.5"/><path d="M273.66951,85.57639c-2.68328,-5.36656 2.68328,-8.04984 2.68328,-8.04984l0.08328,0.06656c2.99868,-2.24827 6.06286,-4.40403 9.11257,-6.5824c0,0 4.8824,-3.48743 8.36983,1.39497c3.48743,4.8824 -1.39497,8.36983 -1.39497,8.36983c-2.97395,2.12425 -5.96395,4.22423 -8.88743,6.4176l-1.91672,1.06656c0,0 -5.36656,2.68328 -8.04984,-2.68328z" fill="#6c6c6c" stroke-width="0.5"/><path d="M188.21522,84.34832c-1.45521,-5.82086 4.36564,-7.27607 4.36564,-7.27607l0.77193,-0.04571c4.38268,-2.1426 8.73403,-2.80459 13.33859,-4.34282c9.02744,-3.01578 18.25558,-6.16358 27.037,-9.82907c0,0 5.53846,-2.30769 7.84615,3.23077c2.30769,5.53846 -3.23077,7.84615 -3.23077,7.84615c-9.08287,3.77818 -18.62519,7.06461 -27.963,10.17093c-4.01164,1.33451 -7.92509,1.72662 -11.66141,3.65718l-3.22807,0.95429c0,0 -5.82086,1.45521 -7.27607,-4.36564z" fill="#6c6c6c" stroke-width="0.5"/><path d="M127.84397,68.79047c-1.89737,-5.6921 3.79473,-7.58947 3.79473,-7.58947l6.15866,-2.05045c4.94317,-1.30775 10.12551,-1.73623 15.2387,-1.75745c2.17992,-0.00904 9.6661,0.9512 9.75736,-0.24264c0,0 4.24264,-4.24264 8.48528,0c4.24264,4.24264 0,8.48528 0,8.48528c-1.31551,1.10021 -2.37094,2.62349 -3.94654,3.30064c-1.4671,0.63052 -9.07407,0.45672 -10.2961,0.45672c-5.51456,0 -10.41733,-0.27661 -15.7613,1.24255l-5.84134,1.94955c0,0 -5.6921,1.89737 -7.58947,-3.79473z" fill="#6c6c6c" stroke-width="0.5"/><path d="M453.22357,309.74855c0,6 -6,6 -6,6l0.72834,-0.42914c-2.59305,1.01397 -5.0284,2.05651 -7.56476,3.02547c-2.52643,0.96516 -5.38166,0.88139 -7.9539,1.65493c-4.32253,1.2999 -8.64244,3.75245 -13.07504,4.64048c-0.95708,0.19174 -1.9741,-0.22008 -2.92825,-0.01427c-2.86642,0.61829 -5.53345,2.38145 -8.5297,3.00602c0,0 -5.88348,1.1767 -7.06018,-4.70679c-1.1767,-5.88348 4.70679,-7.06018 4.70679,-7.06018c3.06605,-0.57326 5.4151,-2.25686 8.4703,-2.99398c0.99537,-0.24015 2.05988,0.14241 3.07175,-0.01427c1.58109,-0.24482 2.89441,-1.39348 4.42496,-1.85952c2.51074,-0.76451 4.98025,-1.74527 7.5,-2.5c2.13262,-0.63878 5.01264,-0.47717 7.0461,-1.34507c2.49744,-1.06594 4.90141,-1.92639 7.43524,-2.97453l3.72834,-0.42914c0,0 6,0 6,6z" fill="#b3cedd" stroke-width="0.5"/><path d="M46.38104,130.65366c0.11802,-0.96779 1.09582,-0.86548 1.09582,-0.86548c2.56182,0.26992 5.06529,0.16546 7.62277,0.42373c0.75142,0.07588 2.84191,0.37065 2.98567,1.3734c0.10562,0.73673 -0.73407,1.32379 -1.28049,1.82909c-0.45391,0.41975 -2.21387,0.942 -2.8357,1.24379c-0.65591,0.31832 -1.2554,0.69107 -1.85082,1.0607c1.9701,0.29498 4.25501,1.07666 4.99997,1.59732c0.50701,0.35436 1.46009,0.46428 1.50839,1.08095c0.12486,1.59433 -1.47833,1.90768 -2.44718,2.21879c-2.29273,0.73623 -4.80253,1.39818 -7.24503,1.95592c0.04695,0.0035 0.08547,0.00758 0.11406,0.01228c2.52279,0.41433 4.89261,1.24377 7.19964,2.26589l0.00029,-0.01394l1.0308,0.02179c0.4275,-0.00097 0.82389,0.27448 0.95709,0.70416c0.16354,0.5275 -0.13153,1.08774 -0.65904,1.25127c-0.0597,0.01851 -0.1198,0.03115 -0.17972,0.03824l-0.98585,0.13437c-2.26025,0.29967 -4.86116,0.29101 -7.02967,0.97211c-0.65463,0.20097 -3.25074,1.04802 -3.83613,0.70812c-1.33268,-0.77382 -1.22865,-4.54184 -0.79094,-5.6901c0.14085,-0.36948 0.35094,-0.7186 0.59881,-1.05445c-0.10084,-0.12992 -0.18354,-0.27089 -0.23861,-0.42873c-0.03171,-0.09087 0.66442,-2.24759 0.73695,-2.56307c0.27434,-1.19348 0.56552,-2.72363 0.39197,-3.95154c-0.12651,-0.89511 -0.94693,-2.54376 -0.52393,-3.43273c0.15598,-0.32779 0.38484,-0.63749 0.66089,-0.89191zM49.93175,138.16317c-0.01829,-0.012 -0.03692,-0.0243 -0.05573,-0.03682c0.00513,0.01838 0.00993,0.03709 0.01441,0.05606c0.01374,-0.00648 0.02752,-0.01288 0.04132,-0.01925z" fill="#d0d0d0" stroke-width="0.5"/><path d="M43.37384,148.01729c0.41776,-0.88091 1.31314,-0.47489 1.31314,-0.47489c2.34529,1.06554 4.75351,1.75743 7.09837,2.81054c0.68895,0.30942 2.57921,1.24959 2.39878,2.24641c-0.13257,0.73236 -1.11473,1.02404 -1.79282,1.33081c-0.56327,0.25483 -2.3981,0.19424 -3.08342,0.2841c-0.72289,0.09477 -1.40944,0.259 -2.09115,0.42156c1.77598,0.90236 3.69685,2.36594 4.23914,3.09531c0.36907,0.49641 1.2386,0.90183 1.08958,1.50217c-0.38528,1.55211 -2.00536,1.34285 -3.02287,1.3319c-2.40789,-0.02591 -4.99828,-0.19088 -7.49188,-0.43345c0.04344,0.01816 0.0787,0.0342 0.10434,0.04769c2.26263,1.19022 4.24898,2.72595 6.11487,4.42464l0.00468,-0.01314l0.97112,0.34637c0.40592,0.13415 0.69495,0.52073 0.68556,0.97048c-0.01152,0.55215 -0.46848,0.99047 -1.02063,0.97894c-0.06249,-0.00131 -0.12351,-0.00831 -0.18259,-0.02051l-0.9778,-0.184c-2.23915,-0.42985 -4.70408,-1.25985 -6.97671,-1.29881c-0.68459,-0.01615 -3.41535,-0.03278 -3.86335,-0.54023c-1.01991,-1.15525 0.26935,-4.69737 1.04745,-5.64851c0.25037,-0.30606 0.56002,-0.57091 0.9013,-0.81124c-0.05462,-0.15512 -0.08854,-0.31501 -0.09092,-0.48216c-0.00137,-0.09624 1.34054,-1.92251 1.50904,-2.19892c0.63738,-1.04565 1.39711,-2.40542 1.62043,-3.62525c0.1628,-0.88922 -0.09469,-2.71264 0.58753,-3.42242c0.25155,-0.26172 0.56655,-0.48323 0.90884,-0.6374zM44.36992,156.26398c-0.01356,-0.01717 -0.02736,-0.03472 -0.04126,-0.05254c-0.00094,0.01906 -0.0023,0.03832 -0.00405,0.05773c0.01508,-0.0018 0.03018,-0.00352 0.04529,-0.00521z" fill="#d0d0d0" stroke-width="0.5"/></g></g></svg>