<svg version="1.1" xmlns="http://www.w3.org/2000/svg" xmlns:xlink="http://www.w3.org/1999/xlink" width="284.10925" height="114.57022" viewBox="0,0,284.10925,114.57022"><g transform="translate(-40.08888,-220.918)"><g data-paper-data="{&quot;isPaintingLayer&quot;:true}" fill="#800000" fill-rule="nonzero" stroke="none" stroke-width="0.5" stroke-linecap="butt" stroke-linejoin="miter" stroke-miterlimit="10" stroke-dasharray="" stroke-dashoffset="0" style="mix-blend-mode: normal"><path d="M107.60584,294.00531c0.00142,-0.59666 0.15868,-1.0766 0.15868,-1.0766c1.22329,-3.61605 1.05526,-8.25794 2.44296,-11.88746c0.40159,-1.05037 0.67862,-2.71579 1.4091,-2.89727c0.81187,-0.20171 41.81964,-2.4715 43.47453,2.2123c0.10287,0.29116 0.12662,0.59449 0.09838,0.90583c1.46776,2.20753 2.05286,7.00502 2.62972,9.54346c0.25882,1.13892 0.89528,2.33106 0.66163,3.48551c-0.4891,2.41662 -2.15832,2.4064 -3.25603,2.59987c-3.6707,0.64696 -33.96848,0.21151 -37.65816,0.20777c-2.64278,0.32006 -5.29626,0.20127 -7.94529,0.20127l-1.51133,-1.37253c0,0 -0.63149,-0.76478 -0.5042,-1.92215z"/><path d="M40.10584,237.50531c0.00142,-0.59666 0.15868,-1.0766 0.15868,-1.0766c1.22329,-3.61605 1.05526,-8.25794 2.44296,-11.88746c0.40159,-1.05037 0.67862,-2.71579 1.4091,-2.89727c0.81187,-0.20171 41.31964,-2.4715 42.97453,2.2123c0.10287,0.29116 0.12662,0.59449 0.09838,0.90583c1.46776,2.20753 2.05286,7.00502 2.62972,9.54346c0.25882,1.13892 0.89528,2.33106 0.66163,3.48551c-0.4891,2.41662 -2.15832,2.4064 -3.25603,2.59987c-3.6707,0.64696 -33.46848,0.21151 -37.15816,0.20777c-2.64278,0.32006 -5.29626,0.20127 -7.94529,0.20127l-1.51133,-1.37253c0,0 -0.63149,-0.76478 -0.5042,-1.92215z"/><path d="M223.77252,332.17198c0.00142,-0.59666 0.15868,-1.0766 0.15868,-1.0766c1.22329,-3.61605 1.05526,-8.25794 2.44296,-11.88746c0.40159,-1.05037 0.67862,-2.71579 1.4091,-2.89727c0.81187,-0.20171 89.65297,-2.4715 91.30786,2.2123c0.10287,0.29116 0.12662,0.59449 0.09838,0.90583c1.46776,2.20753 3.71953,7.00502 4.29639,9.54346c0.25882,1.13892 0.89528,2.33106 0.66163,3.48551c-0.4891,2.41662 -2.15832,2.4064 -3.25603,2.59987c-3.6707,0.64696 -83.46848,0.21151 -87.15816,0.20777c-2.64278,0.32006 -5.29626,0.20127 -7.94529,0.20127l-1.51133,-1.37253c0,0 -0.63149,-0.76478 -0.5042,-1.92215z"/></g></g></svg>