<svg version="1.1" xmlns="http://www.w3.org/2000/svg" xmlns:xlink="http://www.w3.org/1999/xlink" width="526.26354" height="412.15289" viewBox="0,0,526.26354,412.15289"><g transform="translate(17.001,40.58927)"><g data-paper-data="{&quot;isPaintingLayer&quot;:true}" fill-rule="nonzero" stroke="none" stroke-width="0.5" stroke-linecap="butt" stroke-linejoin="miter" stroke-miterlimit="10" stroke-dasharray="" stroke-dashoffset="0" style="mix-blend-mode: normal"><path d="M82.10585,232.00531c0.00142,-0.59666 0.15868,-1.0766 0.15868,-1.0766c1.22329,-3.61605 1.05526,-8.25794 2.44296,-11.88746c0.40159,-1.05037 0.67862,-2.71579 1.4091,-2.89727c0.81187,-0.20171 1.57745,1.02633 2.15695,2.0113c0.36902,0.62722 0.33336,1.67936 0.50628,2.51537c0.33757,1.63206 0.67778,3.13021 0.97488,4.66968c0.50052,-2.04905 1.16245,-4.15015 1.7645,-5.98312c0.36159,-1.10088 0.48721,-2.93053 1.21717,-3.16721c2.44994,-0.79435 3.24369,5.83237 3.72179,8.5401c0.02648,0.14999 0.13281,0.66225 0.23989,1.30059c0.30622,-0.91578 0.63442,-1.71697 0.99438,-2.4404l0.43246,-1.83308l0.08824,0.05985l0.00114,-0.36187c0.77516,-1.53766 3.22196,-7.78271 4.87685,-3.09891c0.10287,0.29116 0.12662,0.59449 0.09838,0.90583c1.46776,2.20753 2.05286,7.00502 2.62972,9.54346c0.25882,1.13892 0.89528,2.33106 0.66163,3.48551c-0.4891,2.41662 -2.15832,2.4064 -3.25603,2.59987c-3.6707,0.64696 -7.46848,0.21151 -11.15816,0.20777c-2.64278,0.32006 -5.29626,0.20127 -7.94529,0.20127l-1.51133,-1.37253c0,0 -0.63149,-0.76478 -0.5042,-1.92215z" fill="#e0f4ff"/><path d="M58.10585,231.50531c0.00142,-0.59666 0.15868,-1.0766 0.15868,-1.0766c1.22329,-3.61605 1.05526,-8.25794 2.44296,-11.88746c0.40159,-1.05037 0.67862,-2.71579 1.4091,-2.89727c0.81187,-0.20171 1.57745,1.02633 2.15695,2.0113c0.36902,0.62722 0.33336,1.67936 0.50628,2.51537c0.33757,1.63206 0.67778,3.13021 0.97488,4.66968c0.50052,-2.04905 1.16245,-4.15015 1.7645,-5.98312c0.36159,-1.10088 0.48721,-2.93053 1.21717,-3.16721c2.44994,-0.79435 3.24369,5.83237 3.72179,8.5401c0.02648,0.14999 0.13281,0.66225 0.23989,1.30059c0.30622,-0.91578 0.63442,-1.71697 0.99438,-2.4404l0.43246,-1.83308l0.08824,0.05985l0.00114,-0.36187c0.77516,-1.53766 3.22196,-7.78271 4.87685,-3.09891c0.10287,0.29116 0.12662,0.59449 0.09838,0.90583c1.46776,2.20753 2.05286,7.00502 2.62972,9.54346c0.25882,1.13892 0.89528,2.33106 0.66163,3.48551c-0.4891,2.41662 -2.15832,2.4064 -3.25603,2.59987c-3.6707,0.64696 -7.46848,0.21151 -11.15816,0.20777c-2.64278,0.32006 -5.29626,0.20127 -7.94529,0.20127l-1.51133,-1.37253c0,0 -0.63149,-0.76478 -0.5042,-1.92215z" fill="#e0f4ff"/><path d="M130.10584,230.00531c0.00142,-0.59666 0.15868,-1.0766 0.15868,-1.0766c1.22329,-3.61605 1.05526,-8.25794 2.44296,-11.88746c0.40159,-1.05037 0.67862,-2.71579 1.4091,-2.89727c0.81187,-0.20171 1.57745,1.02633 2.15695,2.0113c0.36902,0.62722 0.33336,1.67936 0.50628,2.51537c0.33757,1.63206 0.67778,3.13021 0.97488,4.66968c0.50052,-2.04905 1.16245,-4.15015 1.7645,-5.98312c0.36159,-1.10088 0.48721,-2.93053 1.21717,-3.16721c2.44994,-0.79435 3.24369,5.83237 3.72179,8.5401c0.02648,0.14999 0.13281,0.66225 0.23989,1.30059c0.30622,-0.91578 0.63442,-1.71697 0.99438,-2.4404l0.43246,-1.83308l0.08824,0.05985l0.00114,-0.36187c0.77516,-1.53766 3.22196,-7.78271 4.87685,-3.09891c0.10287,0.29116 0.12662,0.59449 0.09838,0.90583c1.46776,2.20753 2.05286,7.00502 2.62972,9.54346c0.25882,1.13892 0.89528,2.33106 0.66163,3.48551c-0.4891,2.41662 -2.15832,2.4064 -3.25603,2.59987c-3.6707,0.64696 -7.46848,0.21151 -11.15816,0.20777c-2.64278,0.32006 -5.29626,0.20127 -7.94529,0.20127l-1.51133,-1.37253c0,0 -0.63149,-0.76478 -0.5042,-1.92215z" fill="#e0f4ff"/><path d="M106.10584,229.50531c0.00142,-0.59666 0.15868,-1.0766 0.15868,-1.0766c1.22329,-3.61605 1.05526,-8.25794 2.44296,-11.88746c0.40159,-1.05037 0.67862,-2.71579 1.4091,-2.89727c0.81187,-0.20171 1.57745,1.02633 2.15695,2.0113c0.36902,0.62722 0.33336,1.67936 0.50628,2.51537c0.33757,1.63206 0.67778,3.13021 0.97488,4.66968c0.50052,-2.04905 1.16245,-4.15015 1.7645,-5.98312c0.36159,-1.10088 0.48721,-2.93053 1.21717,-3.16721c2.44994,-0.79435 3.24369,5.83237 3.72179,8.5401c0.02648,0.14999 0.13281,0.66225 0.23989,1.30059c0.30622,-0.91578 0.63442,-1.71697 0.99438,-2.4404l0.43246,-1.83308l0.08824,0.05985l0.00114,-0.36187c0.77516,-1.53766 3.22196,-7.78271 4.87685,-3.09891c0.10287,0.29116 0.12662,0.59449 0.09838,0.90583c1.46776,2.20753 2.05286,7.00502 2.62972,9.54346c0.25882,1.13892 0.89528,2.33106 0.66163,3.48551c-0.4891,2.41662 -2.15832,2.4064 -3.25603,2.59987c-3.6707,0.64696 -7.46848,0.21151 -11.15816,0.20777c-2.64278,0.32006 -5.29626,0.20127 -7.94529,0.20127l-1.51133,-1.37253c0,0 -0.63149,-0.76478 -0.5042,-1.92215z" fill="#e0f4ff"/><path d="M208.10585,288.00531c0.00142,-0.59666 0.15868,-1.0766 0.15868,-1.0766c1.22329,-3.61605 1.05526,-8.25794 2.44296,-11.88746c0.40159,-1.05037 0.67862,-2.71579 1.4091,-2.89727c0.81187,-0.20171 1.57745,1.02633 2.15695,2.0113c0.36902,0.62722 0.33336,1.67936 0.50628,2.51537c0.33757,1.63206 0.67778,3.13021 0.97488,4.66968c0.50052,-2.04905 1.16245,-4.15015 1.7645,-5.98312c0.36159,-1.10088 0.48721,-2.93053 1.21717,-3.16721c2.44994,-0.79435 3.24369,5.83237 3.72179,8.5401c0.02648,0.14999 0.13281,0.66225 0.23989,1.30059c0.30622,-0.91578 0.63442,-1.71697 0.99438,-2.4404l0.43246,-1.83308l0.08824,0.05985l0.00114,-0.36187c0.77516,-1.53766 3.22196,-7.78271 4.87685,-3.09891c0.10287,0.29116 0.12662,0.59449 0.09838,0.90583c1.46776,2.20753 2.05286,7.00502 2.62972,9.54346c0.25882,1.13892 0.89528,2.33106 0.66163,3.48551c-0.4891,2.41662 -2.15832,2.4064 -3.25603,2.59987c-3.6707,0.64696 -7.46848,0.21151 -11.15816,0.20777c-2.64278,0.32006 -5.29626,0.20127 -7.94529,0.20127l-1.51133,-1.37253c0,0 -0.63149,-0.76478 -0.5042,-1.92215z" fill="#e0f4ff"/><path d="M184.10585,287.50531c0.00142,-0.59666 0.15868,-1.0766 0.15868,-1.0766c1.22329,-3.61605 1.05526,-8.25794 2.44296,-11.88746c0.40159,-1.05037 0.67862,-2.71579 1.4091,-2.89727c0.81187,-0.20171 1.57745,1.02633 2.15695,2.0113c0.36902,0.62722 0.33336,1.67936 0.50628,2.51537c0.33757,1.63206 0.67778,3.13021 0.97488,4.66968c0.50052,-2.04905 1.16245,-4.15015 1.7645,-5.98312c0.36159,-1.10088 0.48721,-2.93053 1.21717,-3.16721c2.44994,-0.79435 3.24369,5.83237 3.72179,8.5401c0.02648,0.14999 0.13281,0.66225 0.23989,1.30059c0.30622,-0.91578 0.63442,-1.71697 0.99438,-2.4404l0.43246,-1.83308l0.08824,0.05985l0.00114,-0.36187c0.77516,-1.53766 3.22196,-7.78271 4.87685,-3.09891c0.10287,0.29116 0.12662,0.59449 0.09838,0.90583c1.46776,2.20753 2.05286,7.00502 2.62972,9.54346c0.25882,1.13892 0.89528,2.33106 0.66163,3.48551c-0.4891,2.41662 -2.15832,2.4064 -3.25603,2.59987c-3.6707,0.64696 -7.46848,0.21151 -11.15816,0.20777c-2.64278,0.32006 -5.29626,0.20127 -7.94529,0.20127l-1.51133,-1.37253c0,0 -0.63149,-0.76478 -0.5042,-1.92215z" fill="#e0f4ff"/><path d="M500.14145,176.09798c-1.35656,9.8214 -11.85624,9.8214 -11.85624,9.8214c-8.57453,0 -84.34759,0.42028 -91.48528,-5.51472c-1.19831,-0.9964 -1.06698,-2.99303 -2.0512,-4.20136c-0.75902,-0.93185 -2.29675,-1.02538 -3,-2c-3.91968,-5.4322 -4.92769,-12.67273 -7.55007,-18.69172c-1.79376,-4.11709 -4.01267,-8.14893 -4.7585,-12.67001c-0.50438,-3.05747 0.81427,-7.29722 -0.53915,-10.12745c-0.37757,-1.13271 -0.11739,-2.52324 -0.82361,-3.48596c-0.55766,-0.7602 -1.51493,-1.19155 -2,-2c-0.38868,-0.64781 -1.38678,-2.10424 -1.53328,-2.66016c-1.23852,-0.06191 -2.48921,-0.53826 -3.72511,-0.73852c-2.77762,-0.45007 -6.84578,0.08991 -9.5338,0.08991c-4.85493,0 -205.1243,0.46612 -209.92219,-0.15495c-1.04537,-0.13532 -1.96258,-0.81326 -3,-1c-1.49905,-0.26983 -3.12195,0.15551 -4.55522,-0.35995c-7.1768,-2.58106 -13.57952,-8.22107 -16.30237,-15.21289c-1.45452,-2.26529 -2.13884,-4.94109 -3.19439,-7.41757c-0.41184,-0.96624 -1.3565,-1.63293 -1.80561,-2.58243c-2.34734,-4.96271 -3.56522,-10.96041 -5.48804,-16.14473c-0.97278,-2.62281 4.12478,-9.00428 7.98772,-9.51962c3.86294,-0.51534 289.81648,-4.19515 289.81648,-4.19515c0,0 4.08527,-46.90818 20.92576,-70.85656c15.77369,-22.43133 44.33262,-22.02062 45.43593,-21.51102c6.22248,2.87408 24.10197,186.09622 24.10197,188.95488v2c0,0 0,6.82204 -5.14376,10.1786z" data-paper-data="{&quot;index&quot;:null}" fill="#78878f"/><path d="M13.61101,-14.93305c4.6742,3.45215 4.6742,9.85243 4.6742,9.85243c0,7.71467 -0.97925,16.17227 -0.0584,23.81755c0.36844,3.05897 1.03335,6.10147 1.0584,9.18245c0.03794,4.66603 0,9.33373 0,14c0,2.34702 -0.45202,5.22606 -0.08991,7.5338c0.4261,2.71551 1.37631,5.32296 2,8c0,4.77553 1.33005,9.31034 2,14c0.11054,0.77378 0.15833,1.56983 0.08791,2.35032c4.1685,3.09358 7.87845,8.02177 11.48728,11.6306c1.35228,1.35228 2.24169,3.20266 3.82349,4.27747c0.87187,0.59242 2.12636,0.4102 3,1c1.60875,1.08609 2.81019,2.68237 4.29909,3.9277c1.40981,1.17918 3.18789,1.94667 4.38827,3.33847c3.33556,3.86748 4.66892,9.09011 8.21167,12.63286c0.33333,1 0.47286,2.08718 1,3c0.78365,1.357 2.27178,2.27187 2.87874,3.71657c0.25761,0.61317 -0.86022,1.36671 -0.50646,1.92991c0.3533,0.56246 1.57565,-0.16589 1.95638,0.37837c1.35402,1.9356 2.01014,4.28049 2.84772,6.48919c0.60123,1.58544 1.18486,3.19955 1.46085,4.87255c0.32553,1.97333 -0.40584,4.04161 0,6c1.6499,7.96165 2.12554,18.15063 1.06504,26.38839c-0.17548,1.36312 -0.83517,2.63555 -1,4c-0.55473,4.59214 0.77278,9.15251 -0.12661,13.80309c-0.67362,3.48316 -1.61173,5.15907 -2.93843,7.6529c0,3.28746 -1.63406,5.94707 -2,9c-0.37045,3.09058 0.48616,6.40515 0.06504,9.54401c-0.64796,4.82962 -1.91009,8.66657 -1.91009,13.5338c0,2.0266 -0.54694,4.08949 -0.15495,6.07781c0.45511,2.30849 1.69973,4.62493 2.41581,6.93288c0.73268,-0.05834 1.48358,-0.00783 2.20534,0.07922c5.90415,0.71206 12.89036,3.71317 18.32853,5.52589c12.87747,4.43023 27.67407,2.3842 41.20527,2.3842c5.76478,0 12.23187,-0.61459 17.98977,0.04089c3.36325,0.38287 6.57422,1.68921 9.93242,2.11406c2.01057,0.25436 4.05122,-0.15495 6.07781,-0.15495c4.59961,0 9.41612,-0.3612 14,0c2.54111,0.20023 5.36128,-0.31957 7.5922,0.91345c3.51474,1.94258 6.58986,4.85485 8.8502,8.17417c1.65091,2.42437 1.84126,5.58076 2.46769,8.44619c0.18117,0.82871 -0.20611,1.70754 -0.06504,2.54401c0.17529,1.03942 0.84793,1.95693 1,3c0.96111,6.59259 -0.42025,13.4551 0.12476,20.07152c0.21987,2.6692 1.27718,5.21444 1.72868,7.85119c1.23565,1.00865 2.53633,1.94465 3.73813,2.99112c1.96009,-0.47298 3.66986,0.78703 5.48557,1.16331c1.59815,0.33119 3.27248,0.07675 4.89536,-0.09655c5.0242,-0.53652 10.32769,-1.07161 15.26026,-1.90345c1.03942,-0.17529 1.95463,-0.86468 3,-1c3.50546,-0.45377 7.26295,0.38364 10.73974,-0.09655c10.64624,-1.4704 21.40535,-1.0584 32.18245,-1.0584c3,0 6.00072,-0.06566 9,0c0.69436,0.0152 2.47092,-0.41762 2.07781,0.15495c-1.16027,1.68997 -3.14211,2.64055 -4.81272,3.82853c-0.64573,0.45918 -1.97594,1.87523 -2.11014,1.09434c-0.35706,-2.07773 1.72694,-3.90957 2,-6c0.12952,-0.99158 -0.21537,-2.02347 0,-3c0.8211,-3.72308 2.48482,-7.27619 2.88594,-11.06758c0.27822,-2.62974 -0.22542,-5.30989 0.11406,-7.93242c0.13532,-1.04537 0.84944,-1.95672 1,-3c0.39563,-2.74144 0.52449,-5.51647 0.90345,-8.26026c0.56986,-4.12601 0.27737,-7.49479 1.29989,-11.72798c0.92286,-3.82059 2.29621,-10.12186 5.15643,-12.57485c3.16251,-2.71225 7.60351,-3.40848 11.40527,-5.11271c11.79409,-2.38848 23.08735,-2.402 35.08002,-2.402c6.03278,0 12.50208,-0.71711 18.4662,0.08991c7.67283,1.03823 15.41532,5.00737 22.66129,7.64227c1.96755,0.71547 3.72219,2.12635 5.7947,2.42277c4.4336,0.63413 9.55919,-0.37701 14.07781,-0.15495c2.16334,0.10631 4.54236,-0.45819 6.47741,0.5149c3.80508,1.91348 6.73512,5.21521 10.10269,7.82281c1.74989,10.67538 2.4199,20.84897 2.4199,31.6623c0,4.3313 0.46466,9.15845 -0.08991,13.4662c-0.17548,1.36312 -0.77697,2.64385 -1,4c-0.37828,2.30013 -0.17403,4.97815 -0.02379,7.5211c3.69898,-0.04547 7.43514,-0.18715 11.1137,0.0127c2.16276,0.1175 63.48927,-0.34453 65.47741,0.5149c3.359,1.45202 6.58541,3.50447 9.05907,6.20118c1.69996,1.85324 2.12347,4.56621 2.98496,6.92887c2.089,5.72914 2.95826,11.60946 3.45537,17.6094c0.91889,11.09075 3.01109,21.93557 4,33c0.60442,6.76253 -508.39834,1.44505 -516.05447,0.69716c-3.9071,-0.38167 -14.26277,-411.29547 -8.50295,-409.45403c2.37927,0.76066 4.97946,0.86591 7.24293,1.92242c1.55365,0.72519 2.62117,2.2111 3.94557,3.29999c1.63375,1.34323 3.57977,2.36706 4.92861,3.99618c0.91669,1.10716 1.01521,2.69623 1.67133,3.97515c0.67978,1.32505 5.84496,4.4321 7.27747,5.82349l3.24784,5.11872c0,0 0.28524,0.57047 0.59267,1.51414zM195.02422,296.59541c0.35906,0.05578 0.68546,0.04409 0.4688,0.0152c-0.14215,-0.01896 -0.30185,-0.02032 -0.4688,-0.0152z" data-paper-data="{&quot;index&quot;:null}" fill="#78878f"/><path d="M68.74264,116.20067c-4.24264,4.24264 -8.48528,0 -8.48528,0l1.34527,0.44946c-1.41901,-0.5294 -2.83801,-1.0588 -4.25702,-1.58819c-1.19932,-1.11117 -5.05285,-4.53569 -5.94952,-5.94952c-0.56455,-0.89016 -0.45767,-2.09612 -1,-3c-0.48507,-0.80845 -1.51493,-1.19155 -2,-2c-0.54233,-0.90388 -0.49432,-2.07512 -1,-3c-0.77897,-1.42473 -2.55385,-2.05749 -3.53615,-3.35045c-0.45752,-0.60221 -0.40218,-1.57493 -1.00191,-2.03569c-0.68693,-0.52776 -1.77159,-0.21538 -2.51242,-0.66434c-1.6593,-1.00555 -2.7285,-2.88297 -4.48172,-3.71401c-1.12831,-0.53482 -2.46074,-0.62212 -3.51828,-1.28599c-4.15464,-2.60808 -6.96111,-9.28202 -11.74298,-10.41181c0,0 -5.6921,-1.89737 -3.79473,-7.58947c1.89737,-5.6921 7.58947,-3.79473 7.58947,-3.79473c4.2573,1.5883 6.19692,3.3011 9.34527,6.44946c1.33777,1.33777 3.28716,4.25175 4.91175,5.13874c0.75553,0.4125 1.71829,0.31633 2.48172,0.71401c2.06561,1.07601 3.51548,3.09714 5.51828,4.28599c1.07048,0.63543 2.52363,0.54795 3.48758,1.33566c1.28291,1.04837 1.93799,2.69108 2.99809,3.96431c1.81217,2.17649 2.59274,1.69927 4.46385,4.64955c0.56455,0.89016 0.45767,2.09612 1,3c0.48507,0.80845 1.51493,1.19155 2,2c0.54233,0.90388 0.49432,2.07512 1,3c0.46371,0.84812 1.44634,1.29593 2.05048,2.05048c0.58099,0.13727 1.16199,0.27454 1.74298,0.41181l3.34527,2.44946c0,0 4.24264,4.24264 0,8.48528z" fill="#a4cade"/><path d="M187.5,242.95803c0,6 -6,6 -6,6h-1c-4.1366,0 -8.88682,0.59727 -12.96109,-0.07748c-2.07986,-0.34445 -3.91913,-1.66174 -6,-2c-1.2443,-0.20227 -2.58047,0.21506 -3.77761,-0.17997c-1.87874,-0.61995 -3.25506,-2.61122 -5.22239,-2.82003c-9.1035,-0.96623 -18.19467,-0.83956 -27.44768,-0.95172c-7.39707,1.47941 -16.72939,1.95683 -24.32433,0.98425c-2.4825,-0.3179 -4.74708,-1.70244 -7.22799,-2.03252c-3.60256,-0.47931 -7.40974,-0.3671 -11,-1c-2.07617,-0.366 -3.92119,-1.64931 -6,-2c-1.97213,-0.33269 -4.02354,0.30593 -6,0c-3.28973,-0.5092 -6.72313,-1.22604 -9.93627,-2.23042c0,0 -5.6921,-1.89737 -3.79473,-7.58947c1.89737,-5.6921 7.58947,-3.79473 7.58947,-3.79473c4.61032,1.71921 9.30267,0.98109 14.06373,1.76958c2.07986,0.34445 3.91588,1.68234 6,2c3.59327,0.54768 7.40244,0.45916 11,1c2.32455,0.34946 4.43816,1.68667 6.77201,1.96748c6.82619,0.82133 15.02055,0.31527 21.67567,-1.01575c7.55279,-0.06141 15.84213,-0.9953 23.32433,0.01575c1.36199,0.18404 2.63944,0.80564 4,1c1.06524,0.15217 2.17244,-0.17653 3.22799,0.03252c1.6087,0.3186 3.19036,0.83605 4.67502,1.53263c0.80605,0.37819 1.25944,1.36128 2.1026,1.64734c0.70382,0.23879 1.48975,-0.30494 2.22239,-0.17997c2.07817,0.35446 3.92119,1.64931 6,2c3.40102,0.57374 7.57182,-0.07748 11.03891,-0.07748h1c0,0 6,0 6,6z" fill="#a4cade"/><path d="M412.5,235.95803c0,6 -6,6 -6,6h-1c-9.93864,0 -20.18899,0.63281 -29.96109,-1.07748c-4.05842,-0.71029 -7.95527,-3.48667 -12,-4c-1.32272,-0.16787 -2.68241,0.20428 -4,0c-3.15297,-0.48883 -4.90823,-2.04149 -8.03891,-1.92252c-8,0 -16,0 -24,0c-2.85474,0 -6.25738,-0.58672 -9.03891,-0.07748c-8.49124,1.55458 -16.69986,2.9676 -25.06373,5.76958c0,0 -5.6921,1.89737 -7.58947,-3.79473c-1.89737,-5.6921 3.79473,-7.58947 3.79473,-7.58947c4.33052,-1.43724 9.42872,-3.53158 13.93627,-4.23042c3.31362,-0.51374 6.69549,-0.44925 10,-1c1.03975,-0.17329 1.95831,-0.83876 3,-1c3.49278,-0.54063 7.42317,-0.07748 10.96109,-0.07748c8,0 16,0 24,0c1.32036,0.02583 2.65822,-0.1383 3.96109,0.07748c2.07986,0.34445 3.90859,1.73457 6,2c2.65573,0.33705 5.38776,0.41093 7.93627,1.23042c2.53402,0.81484 5.44157,2.36663 8.06373,2.76958c9.19325,1.41272 18.69594,0.92252 28.03891,0.92252h1c0,0 6,0 6,6z" fill="#a4cade"/><path d="M282.5,290.95803c0,6 -6,6 -6,6c-2.66667,0 -6.33333,0 -9,0c-7.23997,0 -15.24252,-0.96822 -22.40877,-0.0292c-1.68527,0.22083 -3.31239,0.79783 -5,1c-3.48942,0.41802 -7.16615,-0.50227 -10.63013,-0.04828c-1.04515,0.13698 -1.9539,0.87045 -3,1c-1.59665,0.19773 -3.24896,-0.34691 -4.82645,-0.03079c-1.76006,0.35272 -3.24257,1.63441 -5,2c-1.17832,0.24512 -10.79916,0.00727 -11.40155,0.06331c-2.58995,0.24092 -5.13216,1.01363 -7.7331,1.04495c0,0 -6,0 -6,-6c0,-6 6,-6 6,-6c2.11267,0.0419 4.16215,-0.7676 6.2669,-0.95505c3.51895,-0.3134 7.16353,0.88946 10.59845,0.06331c1.74528,-0.41977 3.23967,-1.64861 5,-2c1.69118,-0.33758 3.46256,0.18499 5.17355,-0.03079c1.04581,-0.13189 1.95345,-0.87416 3,-1c3.72291,-0.44764 7.6627,0.43749 11.36987,-0.04828c9.50907,-1.24601 18.96411,-1.0292 28.59123,-1.0292c2.66667,0 5.33333,0 8,0h1c0,0 6,0 6,6z" fill="#a4cade"/><path d="M500.5,300.95803c0,6 -6,6 -6,6c-1,0 -4,0 -5,0c-10,0 -20,0 -30,0c-4.21773,0 -9.09215,-0.68117 -13.2669,-0.04495c-10.76186,1.64006 -21.78809,1.04495 -32.7331,1.04495c0,0 -6,0 -6,-6c0,-6 6,-6 6,-6c8.91814,0 18.45083,1.06344 27.2669,0.04495c1.36529,-0.15773 2.63801,-0.81596 4,-1c4.71912,-0.63768 9.98088,-0.04495 14.7331,-0.04495c10,0 20,0 30,0c1,0 2,0 3,0h2c0,0 6,0 6,6z" fill="#a4cade"/><path d="M419.63077,69.98718c0,6 -6,6 -6,6h-3c-4.3865,0 -9.74871,-0.86293 -14.03891,-0.07748c-1.03686,0.18983 -1.95831,0.83876 -3,1c-1.30508,0.20201 -2.64482,0.18448 -3.96109,0.07748c-0.27878,-0.02266 -0.46099,-0.59537 -0.7039,-0.45672c-0.81882,0.46735 -1.10648,1.69914 -2,2c-4.86023,1.63652 -12.16836,0.45672 -17.2961,0.45672c-4.54974,-0.08899 -8.56719,-1.27304 -12.96109,-2.07748c-2.42156,-0.44334 -200.56972,0.07748 -203.03891,0.07748c-4.86339,0 -10.2493,-0.72712 -15.03891,-0.07748c-1.84781,0.25063 -3.49096,1.32458 -5.28357,1.8382c-1.82142,0.52187 -3.9455,0.29392 -5.52314,1.34318c-0.78504,0.52212 -1.19155,1.51493 -2,2c-1.2743,0.76458 -2.98293,0.97868 -3.91175,2.13874c0,0 -4.24264,4.24264 -8.48528,0c-4.24264,-4.24264 0,-8.48528 0,-8.48528c4.81862,-4.46444 10.21851,-6.7102 16.56511,-8.51808c1.41129,-0.40202 5.60621,-1.9986 6.71643,-2.1618c4.45572,-0.65499 9.45263,-0.07748 13.96109,-0.07748c4.16075,0 203.85464,-0.55814 207.96109,0.07748c3.66053,0.5666 7.29272,2.06487 11.03891,1.92252c3,0 6,0 9,0c1,0 2.00752,-0.12238 3,0c0.27759,0.03423 0.46099,0.59537 0.7039,0.45672c0.81882,-0.46735 1.10648,-1.69914 2,-2c2.32027,-0.78127 4.92677,0.06165 7.33501,-0.37925c1.03686,-0.18983 1.95831,-0.83876 3,-1c5.06615,-0.78417 10.83053,-0.07748 15.96109,-0.07748h3c0,0 6,0 6,6z" fill="#a4cade"/><path d="M256.10585,286.00531c0.00142,-0.59666 0.15868,-1.0766 0.15868,-1.0766c1.22329,-3.61605 1.05526,-8.25794 2.44296,-11.88746c0.40159,-1.05037 0.67862,-2.71579 1.4091,-2.89727c0.81187,-0.20171 1.57745,1.02633 2.15695,2.0113c0.36902,0.62722 0.33336,1.67936 0.50628,2.51537c0.33757,1.63206 0.67778,3.13021 0.97488,4.66968c0.50052,-2.04905 1.16245,-4.15015 1.7645,-5.98312c0.36159,-1.10088 0.48721,-2.93053 1.21717,-3.16721c2.44994,-0.79435 3.24369,5.83237 3.72179,8.5401c0.02648,0.14999 0.13281,0.66225 0.23989,1.30059c0.30622,-0.91578 0.63442,-1.71697 0.99438,-2.4404l0.43246,-1.83308l0.08824,0.05985l0.00114,-0.36187c0.77516,-1.53766 3.22196,-7.78271 4.87685,-3.09891c0.10287,0.29116 0.12662,0.59449 0.09838,0.90583c1.46776,2.20753 2.05286,7.00502 2.62972,9.54346c0.25882,1.13892 0.89528,2.33106 0.66163,3.48551c-0.4891,2.41662 -2.15832,2.4064 -3.25603,2.59987c-3.6707,0.64696 -7.46848,0.21151 -11.15816,0.20777c-2.64278,0.32006 -5.29626,0.20127 -7.94529,0.20127l-1.51133,-1.37253c0,0 -0.63149,-0.76478 -0.5042,-1.92215z" fill="#e0f4ff"/><path d="M232.10585,285.50531c0.00142,-0.59666 0.15868,-1.0766 0.15868,-1.0766c1.22329,-3.61605 1.05526,-8.25794 2.44296,-11.88746c0.40159,-1.05037 0.67862,-2.71579 1.4091,-2.89727c0.81187,-0.20171 1.57745,1.02633 2.15695,2.0113c0.36902,0.62722 0.33336,1.67936 0.50628,2.51537c0.33757,1.63206 0.67778,3.13021 0.97488,4.66968c0.50052,-2.04905 1.16245,-4.15015 1.7645,-5.98312c0.36159,-1.10088 0.48721,-2.93053 1.21717,-3.16721c2.44994,-0.79435 3.24369,5.83237 3.72179,8.5401c0.02648,0.14999 0.13281,0.66225 0.23989,1.30059c0.30622,-0.91578 0.63442,-1.71697 0.99438,-2.4404l0.43246,-1.83308l0.08824,0.05985l0.00114,-0.36187c0.77516,-1.53766 3.22196,-7.78271 4.87685,-3.09891c0.10287,0.29116 0.12662,0.59449 0.09838,0.90583c1.46776,2.20753 2.05286,7.00502 2.62972,9.54346c0.25882,1.13892 0.89528,2.33106 0.66163,3.48551c-0.4891,2.41662 -2.15832,2.4064 -3.25603,2.59987c-3.6707,0.64696 -7.46848,0.21151 -11.15816,0.20777c-2.64278,0.32006 -5.29626,0.20127 -7.94529,0.20127l-1.51133,-1.37253c0,0 -0.63149,-0.76478 -0.5042,-1.92215z" fill="#e0f4ff"/></g></g></svg>