<svg version="1.1" xmlns="http://www.w3.org/2000/svg" xmlns:xlink="http://www.w3.org/1999/xlink" width="543.11615" height="379.18548" viewBox="0,0,543.11615,379.18548"><defs><radialGradient cx="329.5" cy="305.75002" r="271.55807" gradientUnits="userSpaceOnUse" id="color-1"><stop offset="0" stop-color="#000000" stop-opacity="0"/><stop offset="1" stop-color="#000000"/></radialGradient></defs><g transform="translate(34.5929,2.5)"><g data-paper-data="{&quot;isPaintingLayer&quot;:true}" fill-rule="nonzero" stroke-linejoin="miter" stroke-miterlimit="10" stroke-dasharray="" stroke-dashoffset="0" style="mix-blend-mode: normal"><path d="M-3.13184,193.5v-196h486v196z" fill="#000000" stroke="none" stroke-width="0" stroke-linecap="butt"/><path d="M508.01188,349.78347c-0.00728,0.82665 0.39389,1.68815 0.14324,2.47591c-1.43863,4.52139 -5.88907,10.69605 -9.7235,13.49063c-7.19582,5.24441 -23.76367,5.68511 -31.88836,5.75c-5.31446,0.04244 -12.11496,2.99306 -17.98664,3c-65.54113,0.07751 -131.08259,-0.17559 -196.62353,0c-2.40577,0.00644 -4.91383,0.99742 -7.37647,1c-74.01512,0.07761 -148.03037,-0.094 -222.04546,0c-9.09876,0.01155 -18.46141,2.17823 -27.70453,0.625c-3.72028,-0.62516 -6.67403,-2.51326 -9.99914,-3.80045c-0.68454,-0.26499 -1.5675,-0.09805 -2.12585,-0.57455c-9.28041,-7.92001 -13.47985,-21.82823 -15.04971,-33.49707c-0.49372,-3.6699 -2.05498,-6.97162 -2.07529,-10.75293c-0.11576,-21.55278 -0.14954,-45.10527 -0.14954,-66.65836c0,-7.70973 4.13117,-13.07631 6.08967,-20.05669c0.47359,-1.68795 0.20876,-3.63701 0.62995,-5.31259c-0.40993,-1.75776 -0.6267,-3.58975 -0.6267,-5.47236c0,-3.01109 0.55451,-5.89266 1.56699,-8.54818c0.42688,-1.91796 1.05158,-3.74229 2.18301,-5.32682c1.62549,-2.27645 3.4998,-4.02965 5.55749,-5.38361c0.39728,-1.7606 0.85771,-3.51798 1.74913,-5.24139c4.24808,-8.21296 13.40051,-11.90665 20.74739,-16.34267c14.24587,-8.60159 29.03025,-15.76781 44.01904,-23.01269c2.57598,-1.24511 4.75878,-3.3299 7.23357,-4.64464c1.27824,-0.67907 3.59418,-1.04818 4.79442,-1.53628c7.60201,-3.0915 15.09413,-7.03115 22.57405,-10.36256c4.56324,-2.03238 8.3164,-5.8692 12.63152,-8.10116c6.13062,-3.17101 12.72621,-6.29908 19.47727,-8.10795c1.04985,-0.2813 1.6012,-1.48345 2.52273,-1.89205c4.86974,-2.15922 10.65437,-3.42932 15.81208,-4.83771c4.18899,-1.14387 8.16024,-3.25318 12.36706,-4.44571c6.19105,-1.75501 10.79484,-2.4557 17.05702,-4.02118c9.58113,-2.39518 18.6774,-5.94519 28.17437,-8.4638c2.95287,-0.78311 5.78115,-0.57515 8.6948,-1.2316c4.1387,-0.93246 7.86406,-2.61452 11.84127,-3.85722c4.9474,-1.54584 10.10675,-1.56468 15.16239,-2.65866c5.4199,-1.1728 9.50022,-2.38639 14.94543,-3.15757c4.6366,-0.65666 9.24449,-0.14987 13.892,-0.99112c16.05931,-2.9069 31.82748,-5.42814 48.06727,-6.33542c2.65909,-0.14856 5.29255,-0.99504 7.9863,-1c34.99994,-0.06445 70.00006,-0.06082 105,0c5.00012,0.00869 10.31847,2.05891 14.95453,3c3.64535,0.73999 7.48648,0.03753 11.25679,1.1921c1.64353,0.5033 4.80729,2.56818 6.68334,2.8079c9.93446,1.2694 20.2276,2.54746 29.85534,5.375c7.8888,2.31684 11.161,3.56799 16.5,9.75c2.17818,2.5221 3.8791,10.80168 4.82337,14.35612c4.55223,17.1355 10.35143,39.24755 -6.65697,51.64349c-0.14599,0.1064 -0.29292,0.21072 -0.44076,0.31299c0.48715,1.50871 0.86767,2.8321 1.05201,3.61294c3.44539,14.59491 1.80591,35.63835 1.91573,48.49492c0.01943,2.27418 0.96195,4.62625 1,6.95453c0.07448,4.5577 -0.18562,9.16167 0.5199,13.66505c0.66928,4.27202 2.52554,8.33939 3.1051,12.58495c1.65276,12.10742 0.95727,24.11786 1.375,36.41796c0.10121,2.98016 2.1153,6.54889 2.625,9.58204c0.63563,3.78259 0.51871,7.98699 0.375,11.75c-0.00245,0.06408 -0.00511,0.12831 -0.00799,0.19266c5.90592,8.0217 3.60455,17.9749 3.51987,27.5908z" fill="#a4cade" stroke="none" stroke-width="0.5" stroke-linecap="butt"/><path d="" fill="#341f17" stroke="none" stroke-width="0.5" stroke-linecap="butt"/><path d="M418.61254,205.15064c0.14572,0.04857 0.28647,0.09963 0.4224,0.15302c4.59208,0.00417 5.56372,4.86238 5.56372,4.86238c0.83407,4.46095 2.13011,8.51339 2.58732,13.08547c0.08456,0.84562 0.63665,1.66122 0.5,2.5c-0.43036,2.64157 -0.09674,6.0349 -2.16687,7.73128c-3.15026,2.58151 -10.92913,0.49684 -13.4167,-2.30308c-1.20784,-1.3595 -1.27071,-3.41182 -1.77072,-5.16028c-1.45428,-5.08544 -1.48272,-11.02046 0.31262,-15.90504l0.37876,-1.16902c0,0 1.89737,-5.6921 7.58947,-3.79473z" fill="#8995a9" stroke="none" stroke-width="0.5" stroke-linecap="butt"/><path d="M379.22994,191.04418c0.0946,-1.21217 0.79528,-5.70144 5.98524,-5.70144c6,0 6,6 6,6l-0.01936,0.14566c0.01936,0.22332 0.01936,0.35434 0.01936,0.35434c0,3.14655 -0.24605,6.8167 0.39174,9.86535c0.18379,0.87851 1.08453,1.60646 1,2.5c-0.26548,2.80613 0.38521,6.73253 -2.01349,8.21277c-12.40396,7.65447 -15.70433,-9.30624 -13.66054,-16.67972c0.46553,-1.67953 1.52161,-3.13086 2.29705,-4.69696z" fill="#8995a9" stroke="none" stroke-width="0.5" stroke-linecap="butt"/><path d="M436.21517,264.84274c0.00348,1.48725 0.44441,3.06841 -0.07748,4.46109c-1.01516,2.70899 -1.76056,6.29332 -4.39804,7.48197c-5.47988,2.46966 -9.69817,-2.11719 -12.0785,-5.70934c-3.6923,-5.57205 -3.94599,-13.7402 -3.94599,-20.23372c0,0 0,-4.52879 3.93457,-5.71722c1.06476,-1.67293 2.93548,-2.78278 5.06543,-2.78278c2.94931,0 5.4016,2.12797 5.90528,4.9323l0.32204,1.6102c2.91261,4.61494 5.26,10.54313 5.27268,15.95751z" fill="#8995a9" stroke="none" stroke-width="0.5" stroke-linecap="butt"/><path d="M410.21551,175.03798c-0.00022,-0.06497 -0.00033,-0.13005 -0.00033,-0.19524c0,0 0,-4.5 4.5,-4.5c4.5,0 4.5,4.5 4.5,4.5c0,2.9468 -0.16675,6.29037 0.4188,9.14902c0.398,1.943 1.35025,3.88597 1.0812,5.85098c-0.26376,1.92631 0.3093,4.61799 -1.31802,5.68198c-6.86379,4.48775 -9.40849,0.12924 -11.10078,-4.831c-0.96962,-2.84204 -0.0812,-7.81315 -0.0812,-10.85098l1.47508,-4.01246c0,0 0.17508,-0.35017 0.52525,-0.7923z" fill="#8995a9" stroke="none" stroke-width="0.5" stroke-linecap="butt"/><path d="M385.75932,154.12985c0.26222,-0.5361 0.6508,-1.07501 1.22663,-1.49494c0.79314,-0.89291 2.07722,-1.61168 4.11174,-1.20478c4.41261,0.88252 3.53009,5.29514 3.53009,5.29514c-0.11409,0.55217 -0.24249,1.10189 -0.3844,1.64837c0.07938,3.68571 0.21467,7.96076 -1.19466,11.18166c-2.26162,5.16875 -4.37039,8.92316 -11.3136,3.6404c-1.65323,-1.25786 -1.19755,-11.25233 -0.54488,-12.86541c0.41405,-1.02334 1.79656,-1.33742 2.4532,-2.22483c0.41074,-0.55509 0.43252,-1.31158 0.64879,-1.96737z" fill="#8995a9" stroke="none" stroke-width="0.5" stroke-linecap="butt"/><path d="M508.01188,349.03348c-0.00728,0.82665 0.39389,1.68815 0.14324,2.47591c-1.43863,4.52139 -5.88907,10.69605 -9.7235,13.49063c-7.19582,5.24441 -23.76367,5.68511 -31.88836,5.75c-5.31446,0.04244 -12.11496,2.99306 -17.98664,3c-65.54113,0.07751 -131.08259,-0.17559 -196.62353,0c-2.40577,0.00644 -4.91383,0.99742 -7.37647,1c-74.01512,0.07761 -148.03037,-0.094 -222.04546,0c-9.09876,0.01155 -18.46141,2.17823 -27.70453,0.625c-3.72028,-0.62516 -6.67403,-2.51326 -9.99914,-3.80045c-0.68454,-0.26499 -1.5675,-0.09805 -2.12585,-0.57455c-9.28041,-7.92001 -13.47985,-21.82823 -15.04971,-33.49707c-0.49372,-3.6699 -2.05498,-6.97162 -2.07529,-10.75293c-0.11576,-21.55278 -0.14954,-45.10527 -0.14954,-66.65836c0,-7.70973 4.13117,-13.07631 6.08967,-20.05669c0.47359,-1.68795 0.20876,-3.63701 0.62995,-5.31259c-0.40993,-1.75776 -0.6267,-3.58975 -0.6267,-5.47236c0,-3.01109 0.55451,-5.89266 1.56699,-8.54818c0.42688,-1.91796 1.05158,-3.74229 2.18301,-5.32682c1.62549,-2.27645 3.4998,-4.02965 5.55749,-5.38361c0.39728,-1.7606 0.85771,-3.51798 1.74913,-5.24139c4.24808,-8.21296 13.40051,-11.90665 20.74739,-16.34267c14.24587,-8.60159 29.03025,-15.76781 44.01904,-23.01269c2.57598,-1.24511 4.75878,-3.3299 7.23357,-4.64464c1.27824,-0.67907 3.59418,-1.04818 4.79442,-1.53628c7.60201,-3.0915 15.09413,-7.03115 22.57405,-10.36256c4.56324,-2.03238 8.3164,-5.8692 12.63152,-8.10116c6.13062,-3.17101 12.72621,-6.29908 19.47727,-8.10795c1.04985,-0.2813 1.6012,-1.48345 2.52273,-1.89205c4.86974,-2.15922 10.65437,-3.42932 15.81208,-4.83771c4.18899,-1.14387 8.16024,-3.25318 12.36706,-4.44571c6.19105,-1.75501 10.79484,-2.4557 17.05702,-4.02118c9.58113,-2.39518 18.6774,-5.94519 28.17437,-8.4638c2.95287,-0.78311 5.78115,-0.57515 8.6948,-1.2316c4.1387,-0.93246 7.86406,-2.61452 11.84127,-3.85722c4.9474,-1.54584 10.10675,-1.56468 15.16239,-2.65866c5.4199,-1.1728 9.50022,-2.38639 14.94543,-3.15757c4.6366,-0.65666 9.24449,-0.14987 13.892,-0.99112c16.05931,-2.9069 31.82748,-5.42814 48.06727,-6.33542c2.65909,-0.14856 5.29255,-0.99504 7.9863,-1c34.99994,-0.06445 70.00006,-0.06082 105,0c5.00012,0.00869 10.31847,2.05891 14.95453,3c3.64535,0.73999 7.48648,0.03753 11.25679,1.1921c1.64353,0.5033 4.80729,2.56818 6.68334,2.8079c9.93446,1.2694 20.2276,2.54746 29.85534,5.375c7.8888,2.31684 11.161,3.56799 16.5,9.75c2.17818,2.5221 3.8791,10.80168 4.82337,14.35612c4.55223,17.1355 10.35143,39.24755 -6.65697,51.64349c-0.14599,0.1064 -0.29292,0.21072 -0.44076,0.31299c0.48715,1.50871 0.86767,2.8321 1.05201,3.61294c3.44539,14.59491 1.80591,35.63835 1.91573,48.49492c0.01943,2.27418 0.96195,4.62625 1,6.95453c0.07448,4.5577 -0.18562,9.16167 0.5199,13.66505c0.66928,4.27202 2.52554,8.33939 3.1051,12.58495c1.65276,12.10742 0.95727,24.11786 1.375,36.41796c0.10121,2.98016 2.1153,6.54889 2.625,9.58204c0.63563,3.78259 0.51871,7.98699 0.375,11.75c-0.00245,0.06408 -0.00511,0.12831 -0.00799,0.19266c5.90592,8.0217 3.60455,17.9749 3.51987,27.5908z" fill="url(#color-1)" stroke="none" stroke-width="0.5" stroke-linecap="butt"/><path d="" fill="#341f17" stroke="none" stroke-width="0.5" stroke-linecap="butt"/><path d="" fill="#341f17" stroke="none" stroke-width="0.5" stroke-linecap="butt"/><path d="" fill="#341f17" stroke="none" stroke-width="0.5" stroke-linecap="butt"/><path d="" fill="#341f17" stroke="none" stroke-width="0.5" stroke-linecap="butt"/><path d="M412.18992,150c-1.51843,-0.86767 -3.61041,-1.16565 -4.78297,-2.37686c-0.17883,-0.18472 -0.33627,-0.39068 -0.46703,-0.62314c-0.76908,-1.36724 -2.45405,-7.21864 -2.45405,-9.00208c0,-1.44381 -0.02737,-2.8889 0.03738,-4.33126c0.0512,-1.14048 1.70016,-2.64877 0.78656,-3.33333c-1.45038,-1.08676 -1.80715,0.21757 -2.78656,0c-1.29491,-0.28766 -2.63491,-0.36915 -3.97153,-0.40714c-0.01395,0.13745 -0.02368,0.27324 -0.02847,0.40714c-0.09518,2.66497 0.17376,5.339 0,8c0,0.1672 -0.00684,0.33281 -0.02025,0.49655c-0.25243,3.08141 -2.83324,5.50345 -5.97975,5.50345c-1.95257,0 -3.6873,-0.93269 -4.78297,-2.37686c-0.17883,-0.18472 -0.33627,-0.39068 -0.46703,-0.62314c-0.2197,-0.39057 -0.37775,-0.81413 -0.4916,-1.2527c-0.16803,-0.55286 -0.2584,-1.13953 -0.2584,-1.7473c-0.14734,-2.31384 -0.60745,-9.05783 0.48041,-14.09997c-0.57088,-2.68808 0.71565,-5.51183 0.85292,-8.23336c0.07146,-1.41673 -0.03738,-3.91273 -0.03738,-5.33126c0,-0.67875 0.99027,-2.27945 0.37072,-2.00222c-1.87059,0.83702 -3.88081,4.02205 -5.09069,5.57612c-2.47977,3.18521 -1.36137,1.76692 -4.71245,4.09414c-1.38458,0.96155 -5.98512,7.59848 -8.19894,6.36728c-1.66867,-0.92802 -2.65369,-3.62889 -4.24792,-4.70405c-3.80114,-2.56352 -1.46913,-6.82412 0.90006,-8.36656c6.32375,-4.11704 10.35695,-12.50757 16.68328,-15.21677c2.15985,-0.92494 4.08892,-2.12072 6.66874,-2.12072c3.47976,0 4.8609,-0.17616 4.86067,-0.1783c-0.93054,-8.69068 2.65922,-13.90031 11.13725,-15.78431c4.93274,-1.09616 12.36465,0.68373 16.0319,3.82709c5.18061,4.44052 0.80983,10.31213 0.54798,14.40122c-0.00356,0.05553 1.76748,0.36204 2.08678,0.5217c1.37639,0.6882 3.04263,2.07596 4.03115,3.22923c1.57497,1.83746 3.00166,5.05687 3.8513,7.36113c1.40836,3.81953 5.41156,7.29112 7.47631,10.76228c1.21408,2.04105 -10.39162,6.43257 -13.38991,2.91814c-1.04867,-1.22919 -2.12026,-3.17101 -3.00208,-4.67082c-0.45085,-0.76682 -0.71392,-1.6685 -1.32087,-2.3188c-0.34223,-0.36666 -0.75047,-1.58879 -0.97923,-1.14244c-0.93659,1.82749 -0.13539,4.13569 -0.63344,6.1279c-0.47684,1.90736 -2.51044,3.11645 -2.91627,5.11788c-0.27851,1.37352 0.25376,2.79529 0.25376,4.19676c0,2.93457 -1.73532,5.37087 -1.70405,8.39808c0.02265,2.19307 4.02433,8.16152 0.83756,9.98254z" fill="#0b0b0b" stroke="none" stroke-width="0.5" stroke-linecap="butt"/><path d="M425.28439,86.78118c1.7296,4.62462 -2.03533,7.01241 -5.40522,8.06298c-3.20547,0.99932 -6.42189,-0.62666 -9.38695,-1.33534c-2.69274,-0.64359 -3.07675,0.17524 -5.91766,-0.73836c-1.75594,-0.56469 -3.42094,-1.49296 -5.2459,-1.76081c-1.25259,-1.29535 -3.35589,-2.12951 -3.75778,-3.88604c-0.36622,-1.60067 1.01726,-3.14535 1.8215,-4.57694c1.52486,-2.7143 5.18435,-4.94989 8.19432,-5.56099c4.74416,-0.96319 9.60276,0.5557 13.55466,3.07921c2.70162,1.72513 6.76754,4.10098 6.14301,6.71629z" fill="#1b1210" stroke="none" stroke-width="0.5" stroke-linecap="butt"/><path d="M389.67451,102.0666c-0.19277,-0.48994 -0.25304,-1.10438 -0.06168,-1.86979c0.72761,-2.91043 3.63803,-2.18282 3.63803,-2.18282c5.25509,1.36658 10.97501,-0.30973 16.22108,1.39771c1.74086,0.5666 3.21717,1.88546 5.01211,2.24573c2.14166,0.42986 6.79817,0.02122 8.16897,1.88767c1.39184,1.8951 -0.55728,5.32452 -0.81891,7.41253c-0.49199,3.92651 0.38052,7.10409 -1.13451,10.92453c-0.52458,1.32283 -0.40134,3.1358 -1.54795,3.97864c-1.45489,1.06945 -3.54103,0.70905 -5.31155,1.06358c-6.59003,-0.69942 -13.10005,-1.86617 -19.68895,-2.68979c-1.18994,-0.14874 -6.02029,-0.68179 -6.62533,-1.14735c-5.15394,-3.96581 -2.08562,-12.34652 0.38297,-16.63407c0.58568,-1.01724 1.09102,-2.94088 1.76572,-4.38656zM397.1868,110.29589c0.00703,0.0154 0.01352,0.03062 0.01939,0.0456c0.00483,-0.00237 0.00967,-0.00474 0.0145,-0.00711c-0.01136,-0.01278 -0.02266,-0.02561 -0.03389,-0.03849z" fill="#111c12" stroke="none" stroke-width="0.5" stroke-linecap="butt"/><path d="M385.20315,116.46292c0.95971,-1.98807 3.30423,-1.46707 3.30423,-1.46707c4.57354,1.0218 9.12876,0.13252 13.61907,0.98983c0.89141,0.17019 1.6406,0.79943 2.51477,1.04316c2.19537,0.6121 3.0242,-0.18526 5.48523,0.29017c1.8004,0.34781 3.33318,1.5906 5.11446,2.02584c2.19512,0.53635 5.85553,-0.08121 6.96988,2.91314c1.8334,4.9265 -1.52379,6.76107 -4.9029,7.89533c-3.98399,1.3373 -8.14794,0.02568 -12.00216,-0.94658c-3.70648,-0.46331 -7.33914,-1.29669 -11,-2c-2.95373,-0.56746 -5.82562,0.05465 -8.73541,-1.01367c-1.80416,-0.6624 -4.57304,-0.70553 -5.18176,-2.52851c-0.93048,-2.78656 2.21101,-5.96497 4.8146,-7.20164z" fill="#11161c" stroke="none" stroke-width="0.5" stroke-linecap="butt"/><path d="M367.9496,117.58393l2.38264,1.95378c0.35355,1.5316 1.71331,3.16483 1.06064,4.59481c-1.91422,4.194 -7.26543,5.37789 -10.1386,1.28456c-1.52069,-2.16649 0.3446,-5.67455 1.1782,-7.67441c0,0 1.18176,-2.75744 3.93919,-1.57568c0.85097,0.3647 1.32677,0.87947 1.57792,1.41695z" fill="#262517" stroke="none" stroke-width="0.5" stroke-linecap="butt"/><path d="M439.37167,128.01519c-3.37144,1.32117 -11.75813,2.53862 -10.76556,-4.791c0.32853,-2.42602 3.64973,-3.37648 6.87058,-3.75726l-0.00681,-0.01816l2.60193,-0.97572c0.34554,-0.13887 0.7229,-0.21529 1.11811,-0.21529c1.65685,0 3,1.34315 3,3c0,0.44326 0.5532,5.43627 -2.81824,6.75744z" fill="#262517" stroke="none" stroke-width="0.5" stroke-linecap="butt"/><g><path d="M278.54732,238.23949l79.36497,69.84117" fill="none" stroke="#a76634" stroke-width="24" stroke-linecap="round"/><path d="M373.78528,235.06489l-111.11095,69.84117" fill="none" stroke="#a76634" stroke-width="24" stroke-linecap="round"/><path d="M408.70586,282.68387l-165.07913,-22.22219" fill="none" stroke="#a76634" stroke-width="24" stroke-linecap="round"/><path d="M396.00747,254.11248l-88.88876,73.01577" fill="none" stroke="#a76634" stroke-width="24" stroke-linecap="round"/><path d="M369.62627,226.85857c2.71512,0 2.71512,2.71512 2.71512,2.71512l-0.02097,1.30214c-0.94562,6.4475 -5.84234,11.25364 -11.7696,13.53755c-0.85234,3.59992 -2.24088,6.99401 -3.28102,10.53648c-1.7473,5.95089 -3.91121,12.24647 -8.8162,16.27589c-2.86994,2.35764 -5.6556,1.95115 -8.81009,3.14144c-1.34023,0.50571 -2.42726,1.52446 -3.67923,2.22054c-5.22473,2.94418 -10.58505,2.63402 -16.32236,2.02585c-5.08924,-0.53947 -10.09839,-0.34027 -15.17603,-1.23632c-4.96462,-0.87611 -9.56082,-3.05708 -14.48378,-4.15855c-6.37161,-2.19049 -11.19058,-8.1221 -14.22138,-13.88984c-0.95355,-1.81464 -2.68715,-3.20479 -3.7703,-4.91008c-2.11619,-3.33171 -2.72016,-7.69144 -4.09868,-11.3419c0,0 -0.95334,-2.54224 1.5889,-3.49559c2.54224,-0.95334 3.49559,1.5889 3.49559,1.5889c1.21073,3.24817 1.71363,7.45705 3.62432,10.37904c1.1839,1.81052 2.90485,3.28583 3.9527,5.22636c2.29923,4.25797 5.98999,9.66271 10.87837,11.20991c4.76245,1.05038 9.20384,3.20167 13.99478,4.04714c4.94184,0.87209 9.78968,0.6584 14.7506,1.17712c4.53239,0.47391 8.99032,1.05052 13.12158,-1.35296c1.52226,-0.845 2.89548,-1.99706 4.52646,-2.60634c2.43391,-0.90922 5.01217,-0.3093 7.1186,-2.16812c7.23096,-6.38095 7.52672,-17.9478 11.55446,-26.28325c4.17425,-2.63302 9.93743,-4.90756 10.43403,-10.59683l-0.02096,-0.62861c0,0 0,-2.71512 2.71512,-2.71512z" fill="#ff4a00" stroke="none" stroke-width="0.5" stroke-linecap="butt"/><path d="M358.70546,186.01114c0,-0.28446 0.04375,-0.5587 0.12488,-0.81637c-1.30099,-0.20111 -2.29697,-1.3258 -2.29697,-2.68312c0,-0.09442 0.00482,-0.18771 0.01423,-0.27965l0.028,-0.30798c-0.41527,0.25778 -0.90523,0.40663 -1.42995,0.40663c-1.39777,0 -2.54884,-1.05623 -2.69862,-2.41408l-0.1552,-1.24161c-0.79374,-0.12946 -1.47186,-0.60309 -1.87616,-1.26269c-0.38693,0.21218 -0.83118,0.33285 -1.30361,0.33285c-0.322,0 -0.63091,-0.05605 -0.9175,-0.15894l-0.29618,1.1847c-0.27439,1.2091 -1.35569,2.1117 -2.64782,2.1117c-1.29213,0 -2.37344,-0.9026 -2.64783,-2.1117l-0.46892,-1.87565l0.09509,-0.02377c-0.05405,-0.09972 -0.10606,-0.20068 -0.15581,-0.303c-0.08439,-0.17356 -0.15094,-0.3513 -0.20248,-0.53253c-0.45177,0.87198 -1.36245,1.46784 -2.41231,1.46784c-1.39777,0 -2.54885,-1.05623 -2.69862,-2.41408l-0.23688,-1.89501l0.00698,-0.00087c-0.00308,-0.00586 -0.00615,-0.01172 -0.00922,-0.01759c-0.31781,-0.60776 -0.1101,-1.36892 -0.22334,-2.04534c-0.25127,-1.50097 -0.58495,-2.99091 -0.74576,-4.50425c-0.45427,-4.27517 -0.675,-8.34039 -0.46281,-12.43795c-0.72169,0.37457 -1.4694,0.55494 -2.19516,0.3117c-1.33671,-0.44799 -1.45126,-2.32762 -1.77626,-3.81979c-2.71108,0.64016 -4.18557,-0.35386 -4.98903,-1.93821c-0.1479,0.32847 -0.30721,0.65137 -0.48256,0.96622l-0.93922,1.64365c-0.46093,0.84247 -1.35551,1.4138 -2.38353,1.4138c-1.22137,0 -2.25438,-0.80645 -2.59558,-1.91592l-0.94558,-2.83673l0.02722,-0.00908c-0.02288,-0.04147 -0.04556,-0.08306 -0.06803,-0.12477c-0.2783,-0.51636 -0.29417,-1.12758 -0.38681,-1.71415c-0.38279,1.03553 -1.37893,1.77376 -2.54749,1.77376c-1.02802,0 -1.9226,-0.57133 -2.38353,-1.4138l-0.93922,-1.64365l0.06354,-0.03631c-0.0687,-0.07852 -0.13586,-0.15854 -0.2013,-0.24021c-0.35566,-0.44379 -0.38321,-1.05088 -0.48555,-1.62775c-0.01503,0.03367 -0.02938,0.06752 -0.04297,0.10155c-0.97046,2.43114 -1.78499,4.89851 -2.82925,7.30749l-0.42898,1.71591c-0.27439,1.2091 -1.3557,2.11171 -2.64783,2.11171c-1.08388,0 -2.01943,-0.63512 -2.45478,-1.55349l-0.93907,-1.87814l0.34465,-0.17233c-0.15777,-0.21559 -0.30896,-0.4353 -0.45238,-0.65962c-0.40282,1.7867 -0.74723,3.61307 -1.06643,5.40753c-0.60521,3.40234 -0.95386,6.83696 -1.70506,10.21661c-0.33252,1.496 -0.95359,2.92776 -1.18066,4.44336c-0.52885,3.52979 0.06749,6.6545 -1.1593,10.07943c-0.57456,1.13145 -2.63719,5.33896 -3.21209,5.39282c-3.11831,0.29217 -4.67229,-2.1787 -5.59145,-4.9557c-0.80943,1.53343 -1.75838,3.01237 -2.33436,3.07283c-4.91255,0.51569 -4.82288,-5.47105 -5.53527,-8.15685c-0.05009,-0.18884 -0.13,-0.3687 -0.22776,-0.54289c-0.16514,0.27872 -0.28257,0.46778 -0.2928,0.48792c-0.95847,1.88795 -0.89183,4.3295 -2.08296,6.07636c-0.84228,1.23527 -1.45836,3.30702 -2.95182,3.37709c-1.4073,0.06603 -2.46569,-0.8959 -3.31116,-2.14888c-0.23911,3.13179 -0.46649,6.43535 1.03256,8.96288l0.79512,1.5809c0,0 1.21424,2.42848 -1.21424,3.64271c-2.42847,1.21424 -3.64271,-1.21424 -3.64271,-1.21424l-0.65294,-1.31522c-2.61914,-4.70276 -1.56445,-9.90093 -1.56445,-15.10367c0,-0.65858 -0.01206,-4.75005 0.05545,-4.8901c0.07977,-0.16551 0.16793,-0.32561 0.26308,-0.48119l-0.099,-0.04243l0.69938,-1.63189c0.40124,-0.99829 1.37843,-1.7031 2.52024,-1.7031c1.02802,0 1.9226,0.57134 2.38353,1.4138l0.93923,1.64364l-0.04256,0.02432l0.1075,0.0963c0.28534,0.64203 0.57069,1.28405 0.85604,1.92608c0.05842,-0.21111 0.12117,-0.42089 0.19156,-0.62836c0.9319,-2.74683 3.23511,-8.89517 7.11962,-8.24697c1.38551,0.23119 1.69715,2.24028 2.4873,3.40164c0.69411,1.0202 1.16357,2.03119 1.51616,3.08388l1.10801,-1.99442c0.45594,-0.85895 1.35954,-1.44395 2.39978,-1.44395c1.1418,0 2.11899,0.70481 2.52024,1.7031l0.69938,1.63189l-0.07501,0.03214l0.15246,0.1706c0.17741,0.69863 0.37357,1.39225 0.57275,2.08507c0.18141,-2.03883 -0.09794,-4.20373 0.20509,-6.22207c0.2418,-1.61055 0.87957,-3.13787 1.23278,-4.7277c0.88194,-3.96975 1.41081,-8.0118 2.15979,-12.0053c0.4183,-2.23035 0.43337,-5.56236 1.59767,-7.51271c0.78496,-1.31491 1.60578,-3.1704 3.12434,-3.36821c1.58161,-0.20603 3.07743,1.25192 4.16216,2.75748c0.72405,-2.18384 1.50507,-4.38115 2.67742,-6.06234c0.88593,-1.27045 1.56857,-3.24697 3.10289,-3.45868c1.20402,-0.16614 2.67581,1.21681 3.80969,2.66506l0.80618,-1.61236c0.43535,-0.91838 1.3709,-1.55349 2.45478,-1.55349c1.1418,0 2.11899,0.70481 2.52023,1.7031l0.69939,1.63189l-0.03906,0.01674l0.08135,0.0879c0.46338,1.3895 0.91545,2.79785 1.3409,4.20954c0.25921,-0.50869 0.57142,-0.95321 0.97162,-1.28446c0.13542,-0.11209 0.27504,-0.21762 0.41829,-0.31749l-0.05764,-0.06587l1.92085,-1.68074c0.47886,-0.42344 1.10833,-0.68044 1.79782,-0.68044c1.45177,0 2.63741,1.13941 2.71145,2.57276c0.46824,-0.81623 1.3483,-1.36604 2.35677,-1.36604c1.40933,0 2.56787,1.07377 2.70213,2.44784l0.20767,1.86908c0.0456,-0.06832 0.09246,-0.13884 0.14064,-0.21175c0,0 1.50608,-2.25912 3.76519,-0.75304c0.22164,0.14776 0.40705,0.30278 0.56119,0.46219c1.6724,0.82191 1.33495,2.84664 1.33495,2.84664l-0.25713,1.53418c-0.72853,3.62817 -0.99066,7.07985 -0.95875,10.5652c0.1143,-0.13075 0.23315,-0.25666 0.35593,-0.37836l-0.09991,-0.07771l1.67223,-2.15c0.49603,-0.6505 1.27917,-1.07028 2.16036,-1.07028c1.42605,0 2.59532,1.09941 2.70647,2.49688l0.23884,2.62721l-0.04233,0.00385l0.0507,0.11893c-0.00032,1.32147 -0.00035,2.63988 -0.00016,3.95732c0.13857,-0.0218 0.28061,-0.03312 0.4253,-0.03312c0.83601,0 1.58376,0.37784 2.08182,0.97206c0.48645,-0.73139 1.31812,-1.21341 2.26237,-1.21341c1.13791,0 2.11232,0.7 2.51611,1.69289c0.04593,-0.00231 0.09217,-0.00348 0.13867,-0.00348c1.49952,0 2.71512,1.2156 2.71512,2.71512v0.92802c0.48694,-0.46292 1.1455,-0.74701 1.87042,-0.74701c1.41854,0 2.583,1.08786 2.70463,2.47483l0.23835,2.38357l-0.05201,0.0052l0.06211,0.12971c0.00003,0.02555 0.00021,0.12859 0.00048,0.28885c0.56882,0.3797 0.9862,0.96845 1.14232,1.65643l0.46891,1.87565l-0.08136,0.02034l0.12221,0.17261c0.08931,0.88085 0.29145,2.37832 0.32312,3.62699c1.49656,-0.39622 3.1026,-0.70015 4.1938,0.19136c1.28766,1.05201 0.30334,3.31506 0.32538,4.97768c0.07103,5.35942 -0.99764,10.36025 0.20149,15.69761c0,0 0.58899,2.65046 -2.06147,3.23945c-2.65046,0.58899 -3.23945,-2.06147 -3.23945,-2.06147c-1.04161,-4.73219 -0.95655,-9.59288 -0.57116,-14.40653c-0.4845,0.44968 -1.13343,0.72464 -1.84659,0.72464c-1.49952,0 -2.71512,-1.2156 -2.71512,-2.71512z" fill="#ff4a00" stroke="none" stroke-width="0.5" stroke-linecap="butt"/><path d="M291.59467,212.05159l0.19555,1.33574c0.44013,-0.43086 0.87517,-0.85142 1.30565,-1.26184c-0.17028,-0.0433 -0.34095,-0.08076 -0.51213,-0.11175c-0.41892,-0.07581 -0.744,-0.05892 -0.98908,0.03784zM358.7566,241.39492c-0.49486,2.1807 -0.97206,4.31136 -1.22349,6.27364c-3.90437,30.47005 -31.38306,31.33583 -55.14062,25.39641c-33.59741,-1.8292 -54.14875,-66.81908 -18.83426,-84.7901c5.07885,-2.58451 10.26564,5.33396 15.873,6.3492c4.97879,0.90133 -3.05892,-10.19376 -1.74133,-15.07883c2.07428,-7.69066 1.87505,-19.01267 9.24456,-22.03565c9.22119,-3.7826 21.60187,-0.15365 29.24059,6.24863c5.28533,4.42983 2.352,13.62512 2.68939,20.51312c0.16775,3.4245 -4.60152,12.85001 -2.91746,9.86348c19.68632,-34.91246 34.53913,15.9601 34.66344,34.5809c0,0 0,12.12912 -11.85408,12.67909z" fill="#ff7b00" stroke="none" stroke-width="0.5" stroke-linecap="butt"/><path d="M332.92263,201.59001c2.96621,-2.96621 7.0641,-4.80092 11.59063,-4.80092c9.05273,0 16.39156,7.33882 16.39156,16.39155c0,1.49966 -0.20145,2.95212 -0.57862,4.33213l-4.00872,16.03487c0,0 -3.67121,14.68487 -18.06939,12.3035c-1.0802,3.21471 -2.52774,6.29009 -3.96758,8.80079l-7.08656,-0.10606l0.80548,3.22209l-16.03487,4.00871c-1.38001,0.37717 -2.83246,0.57862 -4.33212,0.57862c-9.05273,0 -16.39156,-7.33882 -16.39156,-16.39155c0,-3.59909 1.15987,-6.92724 3.12636,-9.63102l-7.22425,-14.9563c0,0 0,-13.06014 11.65751,-15.86506c0.3752,-1.50065 0.7504,-3.00129 1.12544,-4.5021c0,0 3.9756,-15.9021 19.87771,-11.92666c9.13239,2.28301 11.70898,8.4995 12.24777,13.37878z" fill="#fff700" stroke="none" stroke-width="0.5" stroke-linecap="butt"/><path d="M310.36737,160.07391c-0.28588,0.73221 -1.09022,2.08326 -3.05758,1.68979c-0.21796,-0.04359 -0.41451,-0.10146 -0.59169,-0.17097c-0.37328,0.17304 -0.79967,0.32535 -1.2848,0.45389c-0.29082,0.07706 -0.56995,0.05273 -0.84145,-0.03766c-0.33376,0.20095 -0.74433,0.33522 -1.24276,0.32556c-0.54908,2.74762 -1.08108,5.50919 -1.24289,8.26009c-0.17889,3.04114 -0.18116,6.29689 0.02284,9.41564c1.42291,0.73346 3.03023,1.06381 4.48035,1.74578c3.48932,1.641 6.89597,3.43991 10.56384,4.7047c1.57286,0.54237 5.63055,1.34647 7.22194,0.42846c1.49012,-0.85959 2.95583,-3.04591 4.34348,-4.19429c2.10811,-1.19666 4.58735,-2.27211 7.09672,-2.68746c0.34834,-0.6691 0.73184,-1.35902 1.15257,-2.02715c-0.06094,0.00409 -0.12244,0.00616 -0.18441,0.00616c-1.22137,0 -2.25438,-0.80645 -2.59558,-1.91592l-0.94558,-2.83673l0.05942,-0.01981c-0.04472,-0.07884 -0.08857,-0.15822 -0.13149,-0.23818c-0.50267,-0.93645 -0.20709,-3.72756 -0.29764,-4.70096c-0.02886,-0.31025 -0.06105,-0.62198 -0.0962,-0.93489c-0.772,-0.11014 -1.43932,-0.54503 -1.85919,-1.16187l-0.97034,-1.38619c-0.25151,-0.0944 -0.51281,-0.21062 -0.78456,-0.35052c-0.90476,-0.46578 -1.26131,-1.45771 -1.32901,-2.63146c-0.38361,-0.67113 -0.71051,-1.37578 -1.00897,-2.09261c-0.31888,0.10593 -0.64613,0.16421 -0.96903,0.16279c-0.45658,-0.00201 -1.00937,-0.15733 -1.61692,-0.41545c-0.42011,0.26662 -0.91846,0.42101 -1.45286,0.42101c-1.33462,0 -2.44433,-0.96295 -2.67226,-2.23196l-0.15789,-0.78947c-0.07479,-0.05361 -0.14913,-0.10714 -0.22294,-0.16051c-1.15092,2.11311 -3.28919,4.9952 -4.15495,5.24658c-1.81612,0.52732 -3.65636,-0.54274 -5.23016,-1.8764zM310.63819,144.82398l0.29012,-0.1657l-0.10363,-0.08636l1.19345,-1.43213c0.49795,-0.6062 1.25336,-0.99287 2.09909,-0.99287c1.49952,0 2.71512,1.2156 2.71512,2.71512v1.92109l0.51263,-1.36702c0.36959,-1.06031 1.3782,-1.82113 2.5645,-1.82113c1.08388,0 2.01942,0.63512 2.45478,1.55349l0.93907,1.87814l-0.07046,0.03523c0.07229,0.09746 0.14242,0.19668 0.21014,0.29786c0.47101,0.70374 0.26832,1.6769 0.50746,2.48925c0.02532,0.08601 0.0507,0.17207 0.07607,0.25817c0.6945,-0.97824 1.35962,-1.81474 1.62485,-1.95839c2.96602,-1.60642 5.54519,-1.26787 7.62411,1.48985c0.72934,0.96748 1.01789,2.06887 1.0661,3.21217c0.40952,0.10486 0.78175,0.30284 1.09279,0.57003c0.51475,-0.42702 1.0305,-0.68783 1.50825,-0.65281c1.89187,0.13868 3.28704,2.10662 4.33328,3.68896c0.57579,0.87082 0.14218,2.08358 0.17349,3.12707c0.09925,3.30755 0.17742,6.64196 -0.52253,9.8758c-0.17462,1.38608 -0.44501,2.76168 -0.78127,4.11765l-0.04027,0.05379l0.02285,0.00685l-0.31682,1.05607c1.30954,-0.98915 2.83621,-1.4348 4.60485,-0.82014c0.8681,0.30169 1.04162,1.31343 1.14376,2.37277c1.08201,-1.65092 2.26974,-3.21737 3.25266,-4.93747l0.22638,-0.12124l-0.08201,-0.06834l1.19344,-1.43213c0.49795,-0.6062 1.25336,-0.99287 2.09909,-0.99287c1.49952,0 2.71512,1.2156 2.71512,2.71512c0,0.10363 -0.00581,0.2059 -0.01711,0.30651l-0.23771,2.37709l-0.22107,-0.0221c0.12869,1.21386 0.06757,2.36346 -0.2582,3.67625l0.03014,0.07032c0.72343,-0.75412 1.50064,-1.46032 2.34467,-2.07136l1.02673,-1.23208c0.49795,-0.6062 1.25336,-0.99287 2.09909,-0.99287c1.49952,0 2.71512,1.2156 2.71512,2.71512c0,0.20171 -0.022,0.39829 -0.06372,0.58745l-0.47169,2.35846l-0.00803,-0.00161c0.00075,0.00996 0.00149,0.01993 0.00222,0.0299c0.10208,1.40077 -0.59468,2.75749 -0.66886,4.16002c-0.07087,1.33986 -0.08355,2.6883 -0.07397,4.03883c0.37238,-0.66374 0.78832,-1.31855 1.24673,-1.97188l0.09134,-0.05549l-0.02807,-0.02339l1.19344,-1.43213c0.49795,-0.6062 1.25336,-0.99287 2.09909,-0.99287c1.31575,0 2.41291,0.93592 2.66206,2.17833l0.47109,2.11989l-0.09972,0.02216c0.05783,0.14452 0.11181,0.29072 0.16135,0.43885c0.2369,0.70835 -0.19903,1.48187 -0.24357,2.22745c-0.15362,2.57161 -0.07693,5.15137 -0.24134,7.723c-0.3559,5.56661 0.6344,10.74404 1.19875,16.21647c0.22685,2.19974 -0.06451,3.80912 0.47556,5.96939l-0.1102,0.33174h0.13054v1.93075c0,1.49952 -1.2156,2.71512 -2.71512,2.71512c-0.68949,0 -1.31895,-0.25701 -1.79782,-0.68044l-1.92085,-1.68074l0.07629,-0.08718c-0.16216,-0.10856 -0.32042,-0.22333 -0.47408,-0.3454c-0.74156,-0.5891 -0.78185,-1.7259 -1.20933,-2.57101c-0.41444,-0.81931 -0.98434,-1.56372 -1.31535,-2.42015c-0.60676,-1.56989 -0.97037,-3.23397 -1.23209,-4.89655c-0.024,-0.15244 0.35428,-0.36788 0.20704,-0.41408c-0.21608,-0.0678 -0.39003,0.29012 -0.61645,0.28562c-2.40065,-0.04771 -3.74865,-0.5052 -5.74289,-2.04119c-0.85044,-0.65502 -2.67862,-3.19768 -3.35121,-4.09435c-2.19937,-2.93211 -4.74829,-6.10301 -6.13951,-9.5465c-0.40008,-0.99025 -0.02884,-2.33057 -0.75486,-3.11387c-0.21597,-0.233 -0.51527,-0.38332 -0.81998,-0.5248c-0.85206,1.09481 -1.86238,1.71479 -1.63772,3.10906c0,0 0,2.71512 -2.71512,2.71512c-2.71512,0 -2.71512,-2.71512 -2.71512,-2.71512c0.05406,-0.95168 -0.15422,-1.95587 0.16217,-2.85504c0.30015,-0.85303 1.07571,-1.45392 1.61058,-2.18307c0.14717,-0.20063 0.29131,-0.40402 0.43293,-0.60964c-1.2492,0.4875 -2.61178,0.86746 -3.52171,0.10532c-0.99183,-0.83073 -0.96319,-2.32095 -0.84291,-3.74701c-0.4447,0.19602 -0.87893,0.41549 -1.30035,0.65915c-1.52926,1.28748 -3.09147,3.59694 -4.82758,4.49409c-1.92061,0.99249 -3.85354,0.81941 -5.89207,0.81771c-5.09847,-0.00424 -10.79419,-2.54084 -15.27909,-4.9068c-0.59032,-0.31142 -1.47323,-0.62041 -2.42543,-0.96006c-0.04554,0.40975 -0.09458,0.82006 -0.09458,1.22099c0,0.98844 0.03988,1.98225 0.14727,2.96687c0.13918,0.37062 0.23869,0.72988 0.14189,1.04907c0.03943,0.24201 0.08362,0.48314 0.13299,0.72317l0.46586,2.09639c0.05056,0.20709 0.07736,0.4235 0.07736,0.64616c0,1.49952 -1.2156,2.71512 -2.71512,2.71512c-0.39898,0 -0.77785,-0.08605 -1.11908,-0.24062c-0.03659,0.0523 -0.07541,0.1049 -0.11655,0.1578c-1.66692,2.14318 -3.81011,0.47626 -3.81011,0.47626c-0.81288,-0.64929 -1.48603,-1.31685 -2.07981,-2.00461c-0.08591,-0.02357 -0.17312,-0.04862 -0.26166,-0.07518c-1.12041,-0.3361 -1.42182,-1.74741 -1.91292,-2.90968c-0.58763,-0.897 -1.18156,-1.82694 -1.88607,-2.79313c-0.34676,1.01675 -1.27984,1.76203 -2.39614,1.83274c-0.00727,1.7951 -0.21611,3.59008 -0.37027,5.05704c-0.15684,1.49234 -0.00226,3.01608 -0.2614,4.4941c-0.34795,1.98453 -1.58489,4.19146 -2.36597,5.96588c-1.05113,2.38789 -1.57481,4.29791 -3.272,6.40938c-0.77517,0.96439 -1.88876,1.60686 -2.73573,2.50885c-1.87637,1.99824 -3.9892,5.42449 -6.81361,6.26821c-1.49073,0.44532 -3.11036,0.08905 -4.66555,0.13357c-0.78181,-1.13527 -1.82928,-2.12767 -2.34542,-3.40582c-0.67435,-1.66997 -0.04659,-5.06401 0.17135,-6.8259c0.48393,-3.91222 0.70593,-7.89834 1.20196,-11.78534c0.18126,-1.42042 0.97075,-2.70591 1.24596,-4.11115c0.25202,-1.28684 -0.12065,-2.62403 -0.05208,-3.93352c0.12214,-2.33244 0.61326,-4.623 0.48269,-6.96981c-0.05357,-0.96294 -0.55011,-4.21496 -0.24056,-5.11227c0.01678,-0.04864 0.034,-0.09708 0.05166,-0.14533l-0.03921,-0.00436l0.23772,-2.13954c0.13426,-1.37407 1.2928,-2.44784 2.70213,-2.44784c1.1418,0 2.11899,0.70481 2.52024,1.7031l0.65701,1.53303c0.50342,0.90806 1.46631,1.4954 2.07197,2.33825c0,-0.55085 0,-1.1017 0,-1.65255c0,-1.36762 -0.40902,-2.79782 0,-4.10284v-1.93075c0,-1.49952 1.2156,-2.71512 2.71512,-2.71512c1.04024,0 1.94384,0.58499 2.39978,1.44395l1.17486,2.11474c1.22025,2.1464 2.25655,4.34085 3.5361,6.44532l0.86727,-1.56109c0.45594,-0.85895 1.35954,-1.44395 2.39978,-1.44395c1.31575,0 2.41291,0.93592 2.66206,2.17833l0.43027,1.93623c0.17898,0.43213 0.29434,0.88963 0.40763,1.34743c0.67665,-2.34622 1.86485,-4.36026 3.92752,-5.22073c-0.27882,-5.17689 0.17438,-10.38327 1.25525,-15.44511c0.73762,-3.45437 0.33605,-7.50905 1.41038,-10.86308c0.45864,-1.43187 1.23298,-2.74266 1.84947,-4.11399c1.61452,0.64321 3.43861,0.90663 4.84355,1.92963c0.58855,0.42855 0.83977,1.16011 1.09808,1.87353c1.01352,-2.50031 2.23613,-4.90989 3.49517,-7.38807zM354.19527,177.88638c0.01916,-0.02014 0.03836,-0.04025 0.0576,-0.06032l-0.04725,0.02025c-0.00342,0.01334 -0.00687,0.0267 -0.01035,0.04007zM346.27779,186.18932c-0.00097,0.14244 -0.00153,0.28419 -0.00153,0.42519c0,0.64358 0.09347,1.29399 0,1.93075c-0.03273,0.22298 -0.51909,0.40185 -0.36679,0.56796c0.34216,0.37317 1.09971,0.16708 1.40857,0.56825c0.99609,1.2938 1.05921,3.0903 1.65857,4.60913c1.17519,2.97802 3.55632,5.79435 5.44499,8.31294c0.06236,0.08317 2.08981,2.84289 2.44104,3.14596c1.82971,1.57879 4.23541,0.13379 6.19053,1.62323c0.05319,0.04052 0.10493,0.08208 0.15529,0.12465c-0.06789,-0.55307 -0.12183,-1.10827 -0.15467,-1.66656c-0.12743,-2.1664 -0.08769,-4.35094 0.01384,-6.5264c-0.51703,0.83374 -1.14615,1.55826 -2.03132,1.78814c-1.38269,0.35909 -2.68688,-1.00565 -3.92983,-1.70983c-3.34056,-1.89257 -4.35241,-5.75498 -4.88597,-9.21935c-0.15517,-1.00748 -0.80249,-2.0371 -0.51354,-3.01465c0.04178,-0.14134 0.08695,-0.2813 0.13519,-0.42001l-0.10839,-0.01549l0.14348,-1.00435c-0.64108,-0.01843 -1.31018,-0.19154 -2.01071,-0.56514c-0.48881,-0.26069 -0.69343,-0.73735 -0.77087,-1.30658c-0.44111,-0.17114 -0.82639,-0.45422 -1.12097,-0.81437c-0.55437,1.0588 -1.11397,2.12138 -1.69692,3.16655zM282.28054,189.83029c-0.19611,0.09483 -0.41765,0.16648 -0.6677,0.20493c-0.0042,0.30792 -0.00969,0.61575 -0.01671,0.92347c-0.02039,0.89354 0.16399,1.82699 -0.10521,2.67926c-0.4441,1.40599 -4.59205,7.31791 -6.02658,7.26854c-1.05133,-0.03618 -1.93129,-0.71071 -2.70205,-1.54298c-0.32366,0.82862 -0.74502,1.63314 -0.83612,2.51057c-0.40923,3.94135 -0.71197,7.91484 -1.21147,11.86635c-0.07666,0.60647 0.00773,2.9099 -0.26681,4.0643c0.90409,-1.03097 2.62618,-2.13815 3.27082,-2.83109c1.24931,-1.3429 2.59946,-2.59531 3.77604,-4.00237c1.08213,-1.2941 1.87025,-3.69716 2.52024,-5.17511c0.08241,-0.18737 1.83239,-3.70504 1.97822,-4.65325c0.30819,-2.00395 0.34443,-4.4136 0.451,-6.45796c0.05748,-1.10262 0.29087,-3.5891 -0.16367,-4.85465zM281.61943,184.33779c-0.00547,-0.00899 -0.01094,-0.01799 -0.01642,-0.02698c0.00009,0.01323 0.00017,0.02647 0.00026,0.0397z" fill="#ff7b00" stroke="none" stroke-width="0.5" stroke-linecap="butt"/><path d="M329.02363,208.63885c-0.12882,0.11431 -0.2607,0.22433 -0.39532,0.3305l0.09265,0.07941l-1.85841,2.16814c-0.64429,0.76087 -1.60656,1.24389 -2.68165,1.24389c-1.93983,0 -3.51237,-1.57254 -3.51237,-3.51237c0,-0.1665 0.01158,-0.3303 0.03399,-0.49062l0.30534,-2.44273l0.03058,0.00382l-0.02097,-0.07481c0.47403,-2.83808 0.89911,-5.62202 1.33035,-8.40129c-0.39909,0.15753 -0.83395,0.24407 -1.28903,0.24407c-1.89564,0 -3.44055,-1.50172 -3.50994,-3.3804c-0.26692,-0.10875 -0.51745,-0.24939 -0.74686,-0.41718c-0.21356,0.34765 -0.43169,0.69226 -0.65779,1.03153l-0.05262,0.03201l0.02008,0.01434l-1.53385,2.14738c-0.63444,0.912 -1.69018,1.50894 -2.88535,1.50894c-0.2639,0 -0.521,-0.02911 -0.76827,-0.08428l-0.12286,0.79861c-0.23413,1.71266 -1.70288,3.0322 -3.47983,3.0322c-1.93983,0 -3.51237,-1.57255 -3.51237,-3.51238v-2.41495c-1.13718,2.78446 -2.20059,5.68708 -3.14444,8.51559c-0.36517,1.09434 -0.2735,2.42005 -1.00558,3.31168c-0.06585,0.08021 -0.13291,0.15923 -0.20108,0.23713l0.07764,0.03882l-1.21482,2.42963c-0.56319,1.18804 -1.77344,2.00965 -3.17559,2.00965c-0.83118,0 -1.59493,-0.28871 -2.19642,-0.77132c-0.68948,4.50756 -1.02333,8.82076 -0.55285,13.45664c0,0 0.34949,3.49495 -3.14545,3.84444c-3.49495,0.34949 -3.84444,-3.14545 -3.84444,-3.14545c-0.5917,-5.99671 -0.05163,-11.56272 0.96962,-17.4897c0.40878,-2.37241 0.36208,-4.8309 0.99753,-7.15288c1.23438,-4.51054 2.95546,-8.81299 3.99007,-13.41981l0.29092,-2.32736c0.19375,-1.75657 1.68282,-3.12295 3.49103,-3.12295c1.82317,0 3.32189,1.38908 3.49558,3.16662l0.30753,2.76778l-0.06349,0.00706c0.02706,0.06193 0.0536,0.12412 0.0796,0.18659c0.07641,0.1836 0.13935,0.36989 0.19062,0.55852c2.31251,-5.5302 4.79552,-10.99358 7.16554,-16.51604l0.0797,-0.07549l-0.03492,-0.01746l1.52703,-3.05405c0.56319,-1.18804 1.77344,-2.00965 3.17559,-2.00965c1.83508,0 3.34147,1.40729 3.49881,3.20152l0.25089,2.50895c0.36364,-0.24647 0.76644,-0.39301 1.22562,-0.38713c2.03376,0.02604 3.64629,1.90465 4.94352,3.59293c1.4107,-1.03032 2.88397,-2.04443 4.43067,-3.15086l2.08246,-1.78497c0.6163,-0.53471 1.4207,-0.85833 2.30069,-0.85833c1.93983,0 3.51238,1.57255 3.51238,3.51238c0,0.2286 -0.02184,0.4521 -0.06354,0.66853l-0.61888,3.55855c0.01344,0.00706 0.02684,0.01423 0.04021,0.0215c0.45076,0.24519 0.74997,0.62151 0.95305,1.07692c0.4628,-0.24967 1.05045,-0.40817 1.79659,-0.40817c2.52651,0 3.23566,1.81736 3.43471,2.83757c0.58406,-1.12916 1.76276,-1.90094 3.12173,-1.90094c1.67155,0 3.07037,1.16765 3.42533,2.73178l0.6066,2.42641l-0.09626,0.02407c0.06205,0.13078 0.12045,0.26359 0.17482,0.39866c0.04425,0.10993 0.07984,0.24655 0.10782,0.40548c0.50972,-1.3108 1.78375,-2.23985 3.27476,-2.23985c1.85967,0 3.38179,1.44526 3.50441,3.27387l0.30984,4.02787l-0.03632,0.00279c0.01485,0.04387 0.02954,0.08781 0.04408,0.1318c0.32157,0.97309 0.42083,2.0538 0.40268,3.1827c1.62776,0.0757 2.96603,1.25941 3.27781,2.81412l0.60941,2.74237l-0.10694,0.02377c0.05858,0.11715 0.11518,0.23542 0.16961,0.35492c0.41922,0.92037 -0.0332,2.02391 0.01736,3.034c0.00388,0.07757 0.008,0.15508 0.01234,0.23254c1.44063,0.43811 2.48896,1.7771 2.48896,3.36094c0,0.32134 -0.04315,0.63259 -0.12398,0.92829l-0.56178,2.24712c-0.19372,1.92176 0.48868,4.00476 -0.25767,5.78475c-0.02934,0.06999 -0.05953,0.13953 -0.09052,0.20863l0.07018,0.00877l-0.30643,2.45146c-0.19375,1.75657 -1.68283,3.12295 -3.49103,3.12295c-1.8448,0 -3.35741,-1.42223 -3.50119,-3.23005l-0.06909,-0.76001c-0.3713,0.12828 -0.73392,0.20821 -1.07899,0.22643c-1.84313,0.09734 -3.59592,-0.85956 -5.34087,-1.46103c-1.65341,-0.56992 -9.31358,-4.09116 -10.31769,-4.69185c-0.13411,-0.08023 -0.26469,-0.16209 -0.39186,-0.24554c-0.52186,0.30726 -1.1301,0.4835 -1.77951,0.4835c-1.53465,0 -2.83942,-0.98422 -3.31753,-2.35587l-0.55816,-1.48842c-0.00798,0.00808 -0.01581,0.01554 -0.02349,0.02235zM303.87254,196.38772c-0.00987,0.02407 -0.01973,0.04816 -0.02959,0.07225h0.06745zM339.0677,202.97306c-0.28212,0.96329 -0.60252,1.90656 -1.0118,2.79308c0.45259,0.53116 1.02831,0.92382 1.66606,1.24398c-0.00568,-0.08166 -0.00856,-0.16408 -0.00856,-0.24718v-1.95398c-0.26601,-0.61331 -0.4783,-1.22497 -0.6457,-1.8359zM350.06053,211.38515c0.28498,0.05492 0.73355,-0.51179 1.17616,-1.19729c-0.03512,-0.31759 -0.07134,-0.63506 -0.10784,-0.9526c-0.49404,0.2652 -1.05888,0.41563 -1.65886,0.41563c-1.24641,0 -2.34119,-0.64923 -2.96461,-1.62797c-0.21363,0.55569 -0.56441,1.04334 -1.01091,1.42148c1.47542,0.79457 2.93898,1.62717 4.56605,1.94074z" fill="#fff700" stroke="none" stroke-width="0.5" stroke-linecap="butt"/><path d="M332.02293,225.02193l0.09722,0.03472l-1.18546,3.31928c-0.35783,1.0813 -1.37691,1.86146 -2.5782,1.86146c-0.60492,0 -1.16363,-0.19782 -1.61498,-0.53231c-0.32417,0.71783 -0.63424,1.44362 -0.92362,2.18234c-0.32021,0.81743 -0.43667,1.73008 -0.90017,2.47533l-0.92171,3.45639c-0.28882,1.1891 -1.36055,2.072 -2.6385,2.072c-1.49952,0 -2.71512,-1.2156 -2.71512,-2.71512c0,-0.12871 0.00895,-0.25532 0.02628,-0.37925l0.22463,-1.79706c-0.34976,0.83975 -0.69891,1.68274 -1.07521,2.52511c-0.46368,1.03797 -0.69664,2.30158 -1.57248,3.02635c-1.28465,1.06306 -3.11066,2.8703 -4.56274,2.05063c-1.02561,-0.57893 -1.5636,-1.88917 -1.86849,-3.38611c-0.31132,0.12437 -0.65104,0.19277 -1.00674,0.19277c-1.19583,0 -2.2111,-0.77308 -2.57328,-1.84674l-0.94374,-2.59529l0.06439,-0.02342l-0.12725,-0.17219c-0.5969,-3.01353 -0.50478,-5.50615 -0.20297,-8.39973c-1.42377,-0.08415 -2.55242,-1.26543 -2.55242,-2.71032v-2.65478h0.0303l-0.0288,-0.09036c0.13653,-2.0479 -0.29393,-8.05826 0.82337,-9.81379c0.06534,-0.10267 0.13435,-0.20215 0.20665,-0.29875l-0.08796,-0.0377l0.52216,-1.21839l0.02618,-0.13092c0.12633,-0.81526 0.2835,-1.62647 0.3939,-2.44382c-0.83661,-0.46263 -1.40313,-1.35399 -1.40313,-2.37766v-2.17209h0.18119l-0.15495,-0.37659c1.25227,-4.46403 2.8674,-8.50304 5.3265,-12.14515c0.00741,-0.11156 0.01189,-0.22254 0.01227,-0.33271l0.16308,0.07575c0.10646,-0.15435 0.21448,-0.30798 0.32408,-0.4609l-0.32308,-0.13846l0.69938,-1.63189c0.40124,-0.99829 1.37843,-1.7031 2.52024,-1.7031c1.06073,0 1.97939,0.60827 2.4262,1.49503c1.43304,-1.01384 3.08342,-1.74977 4.99931,-2.3459c0,0 1.80969,-0.54291 2.86271,0.78669c0.49705,-0.55323 1.21805,-0.90119 2.02031,-0.90119c0.62265,0 1.19633,0.20959 1.65438,0.56207l0.06493,-0.11364c0.46093,-0.84247 1.35551,-1.4138 2.38353,-1.4138c1.49952,0 2.71512,1.2156 2.71512,2.71512v2.17209c-0.00266,3.49502 -0.10718,7.00781 -0.47744,10.48175c1.16742,0.56671 2.07075,2.24896 2.88382,3.34704c0.86996,1.1749 0.98793,3.55473 0.98825,5.49863c0.85256,0.45791 1.43224,1.35802 1.43224,2.39352v2.65478h-0.09709l0.08784,0.22394c-0.10824,0.65987 -0.2058,1.32163 -0.31256,1.98176c0.35314,0.45827 0.56316,1.0325 0.56316,1.65579c0,0.12871 -0.00895,0.25532 -0.02628,0.37926l-0.23603,1.88826l-0.09785,-0.01223c0.0224,0.06746 0.0448,0.13491 0.06719,0.20237l-0.12505,0.1654l0.08099,0.02209l-0.70851,2.59788c-0.26557,1.06778 -1.16321,1.88574 -2.2727,2.03367c-0.18172,0.28616 -0.36725,0.56603 -0.55732,0.8421z" fill="#ffffff" stroke="none" stroke-width="0.5" stroke-linecap="butt"/><path d="M287.31717,282.31817c0.06512,0.06512 0.12581,0.13023 0.18232,0.19527c0.20124,-0.12075 0.40249,-0.24149 0.60373,-0.36224l1.3389,-0.89629c0,0 2.0735,-1.38233 3.57184,0.48814l0.00217,-0.00058c0.6888,-0.29466 1.37121,-0.6045 2.04822,-0.92573c-0.34902,-0.4568 -0.55633,-1.02764 -0.55633,-1.6469c0,-1.49952 1.2156,-2.71512 2.71512,-2.71512c1.49952,0 2.71512,1.2156 2.71512,2.71512c0,0.49461 -0.13226,0.95834 -0.36333,1.35773c0.20307,0.20866 0.39267,0.47342 0.55938,0.80685c1.21424,2.42847 -1.21424,3.64271 -1.21424,3.64271c-1.23894,0.61866 -2.49234,1.21023 -3.76485,1.75652l-2.01305,0.59775c0,0 -1.39631,0.39894 -2.43835,-0.40786c-0.74006,0.44404 -1.48013,0.88808 -2.2202,1.33212c0,0 -1.18433,0.7106 -2.37042,0.27347c0.00777,0.01506 0.01549,0.03026 0.02316,0.0456c1.21424,2.42847 -1.21424,3.64271 -1.21424,3.64271c-1.41083,0.69381 -2.89471,1.26152 -4.41722,1.65364l-1.24798,0.42442c0,0 -1.11863,0.37287 -2.12725,-0.11001c-0.42594,0.04286 -0.95071,0.01326 -1.44904,-0.23685c-0.54666,0.30223 -1.0959,0.59985 -1.64745,0.89319c0.10183,0.109 0.20193,0.23123 0.2996,0.36797c1.57813,2.20938 -0.63125,3.78751 -0.63125,3.78751c-0.56314,0.40224 -1.12627,0.80448 -1.6894,1.20672l-1.77648,0.79423c0,0 -2.37007,0.94803 -3.43331,-1.29243c-0.05841,0.03075 -0.0925,0.0459 -0.0925,0.0459l-2.00081,0.88194c-0.58858,0.37049 -1.17716,0.74098 -1.76574,1.11147c0,0 -2.30242,1.43901 -3.74142,-0.8634c-1.43901,-2.30242 0.86341,-3.74142 0.86341,-3.74142c0.69859,-0.43399 1.39717,-0.86798 2.09576,-1.30197l2.34338,-1.04882c0,0 2.39827,-1.0659 3.52697,1.25611c0.05005,-0.02619 0.09201,-0.04646 0.12345,-0.06101c-0.2305,-0.2187 -0.44557,-0.5057 -0.632,-0.87857c-1.21424,-2.42847 1.21424,-3.64271 1.21424,-3.64271c1.50995,-0.75452 3.00586,-1.53826 4.48119,-2.3584l0.1638,-0.5294c0,0 1.69612,-2.12015 3.81627,-0.42403c0.07352,0.05882 0.14245,0.11814 0.20703,0.17787l0.16479,-0.07062c0,0 1.34575,-0.57675 2.48431,0.10505c0.3109,-0.09696 0.61873,-0.20488 0.92281,-0.32262c-0.21719,-0.20153 -0.42308,-0.46196 -0.60818,-0.79514c-1.31858,-2.37344 1.05486,-3.69202 1.05486,-3.69202c0.72403,-0.40224 1.44806,-0.80448 2.17209,-1.20672l-0.11861,-0.02913c0,0 1.91988,-1.91988 3.83975,0z" fill="#ff8b33" stroke="none" stroke-width="0.5" stroke-linecap="butt"/><path d="M331.49395,278.86815c1.49952,0 2.71512,1.2156 2.71512,2.71512c0,0.95402 -0.49204,1.79311 -1.2362,2.27736c0.10644,0.37259 0.13573,0.79983 0.00453,1.26212c0.27417,-0.03595 0.53868,-0.02045 0.781,0.02286c0.13442,-0.29395 0.34117,-0.59532 0.64255,-0.89669c1.91988,-1.91988 3.83975,0 3.83975,0l-0.09012,0.04518c1.23879,0.71577 2.42497,1.53317 3.52857,2.44366c0,0 2.08581,1.73817 0.34764,3.82399c-1.73817,2.08581 -3.82399,0.34764 -3.82399,0.34764c-0.05054,-0.04266 -0.10134,-0.08503 -0.1524,-0.12711c-0.1296,0.22622 -0.30423,0.45572 -0.53373,0.68521c-1.91988,1.91988 -3.83975,0 -3.83975,0l-0.14094,-0.19318c-0.56314,-0.40224 -1.12627,-0.80448 -1.68941,-1.20672c0,0 -1.60258,-1.1447 -1.10307,-2.84915c-1.19319,0.18115 -2.19444,-0.65324 -2.19444,-0.65324l-1.5408,-1.28762c-0.59279,-0.59148 -1.18558,-1.18296 -1.77838,-1.77443c0,0 -1.91988,-1.91988 0,-3.83975c1.91988,-1.91988 3.83976,0 3.83976,0c0.08949,0.08971 0.17898,0.17942 0.26847,0.26913c0.49626,-0.64713 1.27733,-1.06437 2.15584,-1.06437z" fill="#ff8b33" stroke="none" stroke-width="0.5" stroke-linecap="butt"/><path d="M338.74178,306.21537l-0.34985,0.17025c-0.56314,0.32179 -1.12627,0.64358 -1.68941,0.96537c0,0 -1.04996,0.59998 -2.14885,0.29839c-0.35781,0.81731 -1.07096,1.29275 -1.07096,1.29275l-1.63556,1.0797c-0.72403,0.40224 -1.44806,0.80448 -2.17209,1.20672c0,0 -0.10666,0.05926 -0.28732,0.13004l-0.02859,0.04003c0,0 -1.57813,2.20938 -3.78751,0.63125c-0.21702,-0.15501 -0.39749,-0.31612 -0.54651,-0.48062c-0.20698,-0.0532 -0.4181,-0.13922 -0.62935,-0.26724c1.31059,1.9482 -0.57605,3.52041 -0.57605,3.52041c-0.94429,0.78438 -1.84766,1.61957 -2.71442,2.48885l-0.14345,0.31023c0,0 -0.2488,0.37319 -0.69583,0.7151c-0.05641,1.07708 -0.85012,1.8708 -0.85012,1.8708l-0.72403,0.72403c-0.98529,0.98276 -2.00999,1.92834 -3.07783,2.82071c0,0 -2.08581,1.73817 -3.82399,-0.34764c-0.09092,-0.1091 -0.17137,-0.21725 -0.24221,-0.32425c-0.16979,0.09603 -0.28377,0.14162 -0.28377,0.14162l-0.44811,0.02323c-1.021,0.86814 -1.97483,1.82197 -2.84297,2.84297c0,0 -1.76698,2.06147 -3.82845,0.2945c-2.06147,-1.76698 -0.2945,-3.82845 -0.2945,-3.82845c1.05691,-1.22489 2.20708,-2.37505 3.43197,-3.43197l1.96532,-0.94214c0,0 2.19265,-0.87706 3.3061,1.04966c0.59315,-0.50836 1.16999,-1.03628 1.73164,-1.57947c-1.43014,-1.96021 0.4786,-3.59627 0.4786,-3.59627c0.56314,-0.48269 1.12627,-0.96538 1.6894,-1.44806l0.81247,-0.82378c0,0 1.19231,-1.19231 2.63732,-0.75811c0.14602,-0.12539 0.29285,-0.24981 0.44051,-0.3732c0,0 1.51863,-1.26552 3.04411,-0.34109c-1.31059,-1.9482 0.57605,-3.5204 0.57605,-3.5204c0.48269,-0.40224 0.96538,-0.80448 1.44806,-1.20672l0.95613,-0.65599c0,0 1.76843,-1.17895 3.21911,0.11395l0.88373,-0.59664c0,0 0.08142,-0.05428 0.22365,-0.12677c-0.2231,-1.23641 0.66902,-2.27721 0.66902,-2.27721c0.48269,-0.56314 0.96538,-1.12627 1.44806,-1.68941l1.39778,-1.12915c0,0 1.22289,-0.91717 2.5217,-0.45756c0.41745,-0.23719 1.00645,-0.45699 1.66798,-0.36233c-0.89937,-1.7666 0.74064,-3.17232 0.74064,-3.17232c1.04973,-0.89972 2.1042,-1.794 3.16627,-2.67912l0.05964,-0.07541c0,0 1.25847,-1.25847 2.75652,-0.71873c0.15212,-0.18254 0.30423,-0.36508 0.45635,-0.54762c0,0 0.19086,-0.22903 0.52198,-0.47206c0.05158,-1.08264 0.85067,-1.88174 0.85067,-1.88174c0.98529,-0.98276 2.00999,-1.92834 3.07783,-2.82071l0.95613,-0.65599c0,0 1.15268,-0.76845 2.36022,-0.38417c-0.13444,-1.34276 0.99904,-2.31432 0.99904,-2.31432c0.56314,-0.48269 1.12627,-0.96538 1.68941,-1.44806l1.27757,-1.02405c0,0 1.70967,-1.36774 3.28669,-0.1115c0.32041,-0.22252 0.69103,-0.3778 1.09144,-0.44543c-1.60643,-1.99248 0.35695,-3.71044 0.35695,-3.71044c0.64358,-0.56314 1.28717,-1.12627 1.93075,-1.68941l1.7299,-1.18116c0,0 1.56353,-1.04235 2.95627,-0.092c-1.15312,-1.98961 0.78224,-3.44113 0.78224,-3.44113c0.73362,-0.54217 1.46724,-1.08435 2.20086,-1.62652l1.97883,-0.86907c0,0 0.4006,-0.17169 0.94959,-0.21698c0.30721,-0.65598 0.79521,-1.06265 0.79521,-1.06265c0.99214,-0.79567 1.76417,-1.85208 2.45874,-2.91744l1.29647,-1.5618c0,0 1.73817,-2.08581 3.82399,-0.34764c0.04132,0.03444 0.08115,0.06901 0.11952,0.1037c0.07575,-0.04328 0.15149,-0.08657 0.22724,-0.12985c-1.4617,-2.11138 0.63019,-3.68029 0.63019,-3.68029c0.64358,-0.48269 1.28716,-0.96538 1.93075,-1.44806l1.43887,-0.88013c0,0 1.7721,-1.06326 3.15183,0.21153c0.27192,-0.14212 0.54295,-0.28595 0.81298,-0.43161c-1.02119,-2.18673 1.15324,-3.42927 1.15324,-3.42927c0.56314,-0.32179 1.12627,-0.64358 1.68941,-0.96537l-0.09012,-0.04518c0,0 1.91988,-1.91988 3.83976,0c1.91988,1.91988 0,3.83975 0,3.83975l-1.05549,0.92019c-0.10104,0.05774 -0.20209,0.11548 -0.30313,0.17322c1.04122,2.19771 -1.14493,3.44694 -1.14493,3.44694c-1.23139,0.70281 -2.48514,1.36717 -3.75299,2.00184l-0.43219,0.31333c0,0 -1.67808,1.11872 -3.10587,-0.01847c-0.24928,0.18696 -0.49856,0.37392 -0.74783,0.56088c0.04062,0.06217 0.08048,0.12733 0.11948,0.19559c1.34707,2.35738 -1.01031,3.70446 -1.01031,3.70446c-0.56314,0.32179 -1.12627,0.64358 -1.68941,0.96538l-0.56503,0.38442c0,0 -1.33247,0.88831 -2.63297,0.27716c-0.79346,1.06576 -1.67992,2.0688 -2.68584,2.92835c0,0 -0.68255,0.56879 -1.59212,0.66518c-0.44929,0.98801 -1.48996,1.43401 -1.48996,1.43401l-0.33889,0.14015c0.52256,1.58998 -0.89442,2.80454 -0.89442,2.80454c-0.56314,0.48269 -1.12627,0.96538 -1.68941,1.44806l0.00945,0.16863c0,0 -1.50608,2.25912 -3.76519,0.75304c-0.01339,-0.00893 -0.02665,-0.01788 -0.03978,-0.02687c-0.18697,0.17494 -0.32688,0.26821 -0.32688,0.26821l-1.16622,0.74959c-0.64358,0.56314 -1.28717,1.12627 -1.93075,1.68941c0,0 -0.54427,0.47624 -1.3168,0.65623c0.34796,0.45642 0.55459,1.02639 0.55459,1.64462c0,1.49952 -1.2156,2.71512 -2.71512,2.71512c-0.58282,0 -1.12274,-0.18363 -1.56508,-0.4962l-1.01213,0.80792c-0.56314,0.48269 -1.12627,0.96538 -1.68941,1.44806c0,0 -1.24521,1.06732 -2.6296,0.57515c0.2022,1.54952 -1.25146,2.51863 -1.25146,2.51863l-0.49193,0.30938c-0.94429,0.78438 -1.84766,1.61957 -2.71442,2.48885c0,0 -0.13411,0.13411 -0.36688,0.29599c-0.06208,0.9602 -0.67391,1.6944 -0.67391,1.6944c-0.40224,0.48269 -0.80448,0.96538 -1.20672,1.44806l-1.59641,1.34735c0,0 -1.27996,1.02397 -2.64647,0.48616c-0.54385,0.46013 -1.086,0.92228 -1.62686,1.38591c0,0 -0.96634,0.82829 -2.14288,0.68906c0.64051,1.26956 -0.09646,2.41553 -0.44145,2.84809c0.88354,2.23076 -1.34722,3.34614 -1.34722,3.34614z" fill="#ff8b33" stroke="none" stroke-width="0.5" stroke-linecap="butt"/><path d="M250.10077,261.79308c0,-0.62291 0.14291,-1.10291 0.36316,-1.47278l-0.05184,-0.01061c-1.55837,-0.42549 -3.1244,-0.82583 -4.70147,-1.1757c0,0 -2.65046,-0.58899 -2.06147,-3.23945c0.58899,-2.65046 3.23945,-2.06147 3.23945,-2.06147c1.6609,0.36967 3.31058,0.79048 4.95228,1.23773l1.0248,0.1984c0,0 2.66239,0.53248 2.12991,3.19487c-0.04542,0.22711 -0.10634,0.43097 -0.17979,0.6139c0.36291,0 0.72739,0 1.06019,0c0.01344,-0.18706 0.04511,-0.38622 0.0981,-0.59818c0.65851,-2.63405 3.29256,-1.97554 3.29256,-1.97554c0.64358,0.16089 1.28716,0.3218 1.93075,0.48269l1.23591,0.19722c0,0 2.49978,0.41663 2.26665,2.85995l1.08853,0.01429c0.02418,-1.47863 1.23035,-2.66983 2.71475,-2.66983c1.49952,0 2.71512,1.2156 2.71512,2.71512c0,0.30922 -0.05169,0.60636 -0.1469,0.88326c0.9545,0.15635 1.93203,0.26528 2.98269,0.26312c0,0 2.71512,0 2.71512,2.71512c0,2.71512 -2.71512,2.71512 -2.71512,2.71512c-3.12233,-0.00559 -5.73168,-0.9227 -8.74687,-1.22332l-0.66554,0.01661c0,0 -2.71512,0 -2.71512,-2.71512c0,-0.06495 0.00155,-0.12834 0.00459,-0.19022c-0.23818,-0.00232 -0.39061,-0.02773 -0.39061,-0.02773l-1.66021,-0.28547c-0.08902,-0.02225 -0.17804,-0.04451 -0.26706,-0.06676c-0.24977,2.31993 -2.69458,2.31992 -2.69458,2.31992c-0.88493,0 -1.76986,0 -2.65478,0h-1.44806c0,0 -2.71512,0 -2.71512,-2.71512z" fill="#ff8b33" stroke="none" stroke-width="0.5" stroke-linecap="butt"/><path d="M399.74999,282.60898c-0.5629,2.20783 -2.9473,1.90978 -2.9473,1.90978c-1.40733,-0.17926 -2.80612,-0.4432 -4.18325,-0.78413l0.17583,0.08107c0,0 -2.71512,0 -2.71512,-2.71512c0,-0.18355 0.01241,-0.35468 0.03555,-0.51425c-0.0713,-0.01544 -0.14247,-0.03144 -0.21347,-0.04801c-0.39147,2.07066 -2.65786,2.07066 -2.65786,2.07066c-0.88493,0 -3.94195,0 -4.82688,0c0,0 -2.71512,0 -2.71512,-2.71512c0,-2.71512 2.71512,-2.71512 2.71512,-2.71512c0.88493,0 1.76986,0 2.65478,0h1.37638c0.03963,-0.23922 0.11394,-0.49501 0.23088,-0.76786c1.06954,-2.49559 3.56512,-1.42605 3.56512,-1.42605c0.85249,0.40947 1.84679,0.53673 2.79197,0.5045h1.93075c0,0 2.07246,0 2.59608,1.81065c0.441,-0.12124 0.78274,-0.12124 0.78274,-0.12124c0.72403,0 1.44806,0 2.17209,0h1.44806c0,0 2.16381,0 2.62808,1.93167l1.94006,0.00833c1.03951,0.17013 2.07903,0.34025 3.11854,0.51038c0,0 2.67818,0.44636 2.23182,3.12454c-0.44636,2.67817 -3.12454,2.23182 -3.12454,2.23182c-0.89124,-0.15167 -1.78247,-0.30333 -2.67371,-0.455l-1.70681,0.00925c0,0 -2.16312,0 -2.62785,-1.93075c-0.48327,0 -1.27789,0 -2.00193,0z" fill="#ff8b33" stroke="none" stroke-width="0.5" stroke-linecap="butt"/><path d="M343.25946,275.79102c0,-2.71512 2.71512,-2.71512 2.71512,-2.71512c0.11246,0 0.2561,0 0.42301,0c0.03209,-1.47166 1.2351,-2.65478 2.71446,-2.65478c0.47374,0 0.91914,0.12133 1.30683,0.33461c0.67556,-0.33461 1.34796,-0.33461 1.34796,-0.33461l1.67737,0.17287c0.9139,0.3718 1.92196,0.58086 2.90816,0.55116c0,0 2.71512,0 2.71512,2.71512c0,2.71512 -2.71512,2.71512 -2.71512,2.71512c-1.03769,-0.01872 -2.08025,-0.15505 -3.09732,-0.39243c-0.24784,2.32318 -2.69493,2.32318 -2.69493,2.32318c-0.88493,0 -1.76985,0 -2.65478,0h-1.93075c0,0 -2.71512,0 -2.71512,-2.71512z" fill="#ff8b33" stroke="none" stroke-width="0.5" stroke-linecap="butt"/><path d="M332.6898,296.77705c-1.91988,1.91988 -3.83976,0 -3.83976,0l-0.40727,-0.42305c-2.52572,-3.07314 -6.09244,-4.43831 -9.07074,-6.89766c-2.16895,-1.79103 -4.42285,-3.93007 -6.14842,-6.20311l-0.41411,0.20473c-4.66782,2.62954 -8.70377,6.32441 -13.4107,9.00279c-3.32786,1.40014 -5.4979,4.29772 -8.62202,5.99941c-2.2427,1.22159 -4.54952,2.37566 -6.68332,3.90579c-1.54994,1.11145 -3.27034,2.1904 -4.7711,3.33733c-0.63174,0.48279 -1.01929,1.28891 -1.73333,1.63867c-0.60394,0.29583 -1.66655,0.6837 -2.84616,0.92487c-2.52793,1.43675 -5.29154,2.55171 -8.14089,3.35381c-0.04349,0.02485 -0.08699,0.04971 -0.13048,0.07456c0,0 -0.74321,0.4247 -1.63349,0.37985c-1.90464,0.44604 -3.83336,0.75588 -5.74271,0.93211c0,0 -2.70397,0.24582 -2.94978,-2.45815c-0.24582,-2.70397 2.45815,-2.94978 2.45815,-2.94978c1.91428,-0.17107 3.8864,-0.49793 5.82405,-0.99043c0.24162,-0.13807 0.48324,-0.27613 0.72486,-0.4142c0.15749,-0.14854 1.3711,-1.2296 2.78778,-0.68402c0.39426,-0.14831 0.78443,-0.30434 1.16962,-0.46816c0.3534,-1.1974 1.46557,-2.37055 2.29403,-3.3138c0.58733,-0.66872 1.71533,-0.47984 2.55605,-0.77197c1.00624,-0.34963 1.98728,-0.76795 2.98092,-1.15193c0,0 0.86244,-0.3317 1.77457,-0.10497c0.23234,-0.14959 0.45963,-0.30634 0.67827,-0.47534c2.80454,-2.16779 5.73544,-3.94818 8.8297,-5.55674c3.16962,-1.64773 5.38103,-4.59901 8.75473,-6.06778c4.61383,-2.65024 8.5667,-6.21588 13.13711,-8.85665l1.09821,-0.55378c0,0 1.48206,-0.74103 2.70949,0.0925c1.92873,-0.80162 3.1773,1.07124 3.1773,1.07124c3.75867,5.86542 11.04529,8.2187 15.51404,13.52449l0.07541,0.05964c0,0 1.91988,1.91988 0,3.83975z" fill="#702824" stroke="none" stroke-width="0.5" stroke-linecap="butt"/><path d="M364.79939,303.72656c2.71512,0 2.71512,2.71512 2.71512,2.71512l-0.02097,2.02618c-0.42342,2.88696 -2.21197,7.48209 -5.16268,8.87964c-2.30267,1.09062 -5.23938,0.01683 -7.41266,-0.56221c-2.98238,-0.7946 -6.81637,-1.2203 -9.1741,-3.59685c-0.70909,-0.71475 -0.98265,-1.75759 -1.47397,-2.63639c0,0 -0.19799,-0.39599 -0.27418,-0.94812c-2.11709,1.7503 -4.28908,3.44466 -6.55411,5.06223c-2.26244,1.69362 -4.92806,3.03154 -6.93396,5.04833c-2.81994,2.83523 -5.28493,6.04831 -8.66027,8.32674c-1.80151,1.21605 -4.11547,1.53546 -6.12246,2.20591c-2.38456,0.79659 -3.50445,2.57855 -6.11254,3.22624c-1.87419,0.46543 -4.65607,0.05915 -6.59723,0.05915c0,0 -2.71512,0 -2.71512,-2.71512c0,-2.71512 2.71512,-2.71512 2.71512,-2.71512c1.61251,0 3.88762,0.38864 5.46996,0.05915c1.8739,-0.39021 3.61616,-2.36796 5.47196,-3.0487c1.53119,-0.56167 3.59859,-0.68044 4.97936,-1.65559c3.0148,-2.12916 5.17907,-5.04097 7.75111,-7.60195c2.22797,-2.2184 5.05212,-3.6961 7.54666,-5.5708c3.09723,-2.21272 6.38508,-4.47406 9.18521,-7.05433c3.00721,-2.77108 5.86032,-5.8472 9.10132,-8.34987c4.81036,-3.71452 9.72798,-7.14373 14.40175,-11.03854l1.48931,-0.82535c0,0 0.11364,-0.05682 0.30406,-0.1213c0.28452,-0.72171 0.81167,-1.18297 0.81167,-1.18297c5.11403,-4.47349 10.13233,-9.25328 15.65579,-13.19861l0.42335,-0.69346c0,0 0.38651,-0.48314 1.02115,-0.80364c2.21988,-2.99249 5.40619,-5.83304 8.36941,-8.09636c2.23414,-1.70644 4.98683,-2.21549 6.23995,-4.91311l-0.05545,-1.38483c0,0 0,-2.71512 2.71512,-2.71512c2.71512,0 2.71512,2.71512 2.71512,2.71512l-0.05545,2.47667c-1.5952,3.8244 -3.35177,5.17437 -6.86328,7.12091c-1.6747,0.92833 -2.95354,2.46099 -4.32938,3.73772c-1.61374,1.49748 -3.19349,2.5972 -4.46228,4.41286c0,0 -0.42766,0.59873 -1.14941,0.9502l-1.41259,1.61181c-3.65317,2.60941 -7.07964,5.60303 -10.46239,8.6207c3.26427,0.12837 6.53373,0.56789 9.38952,1.95369c0.62937,0.30541 1.04492,0.94084 1.63749,1.31264c1.29242,0.81092 3.46812,1.51797 4.9414,1.83199c4.76656,1.01598 10.12827,-0.0548 14.95075,-0.0548c0.58756,-0.07521 1.17513,-0.15042 1.76269,-0.22563l1.28028,-0.39918c0,0 2.61065,-0.7459 3.35655,1.86475c0.7459,2.61065 -1.86475,3.35655 -1.86475,3.35655l-2.09854,0.56619c-0.6996,0.08569 -1.3992,0.17137 -2.09881,0.25706c-5.34798,0 -11.12561,1.05075 -16.42393,-0.0548c-2.02971,-0.42352 -4.85183,-1.42867 -6.6431,-2.5122c-0.4769,-0.28848 -0.76479,-0.84237 -1.25863,-1.1008c-3.62616,-1.89758 -8.87136,-1.44645 -12.89558,-1.39893c-0.45638,0.61589 -1.07226,0.92383 -1.07226,0.92383l-0.44143,0.14002c-5.09604,4.2467 -10.9754,7.7487 -15.83596,12.22762c-2.36537,2.17965 -4.71693,4.33207 -7.11405,6.42479c1.11868,0.33921 1.67802,1.45788 1.67802,1.45788c1.01822,2.73093 4.72413,2.75665 7.21137,3.4205c0.79193,0.21137 2.80543,1.23657 3.68915,0.88586c0.21115,-0.0838 0.09286,-0.4535 0.20926,-0.64858c0.98252,-1.64666 1.70003,-2.05837 1.86837,-3.98703l-0.02096,-1.35264c0,0 0,-2.71512 2.71512,-2.71512z" fill="#702824" stroke="none" stroke-width="0.5" stroke-linecap="butt"/><path d="M293.66332,275.54967c0,2.71512 -2.71512,2.71512 -2.71512,2.71512l-1.62389,-0.08107c-1.21747,-0.32028 -2.51437,-0.21063 -3.7489,-0.45707c-3.92848,-0.78421 -7.78511,-2.41739 -11.68809,-3.40219c-3.92814,-0.99115 -8.31198,-0.64232 -12.31042,-0.65044c-3.46816,-0.42478 -6.86819,-1.55423 -10.29947,-1.94585c-2.3902,-0.2728 -4.61932,0.01846 -6.95549,-0.89945c-2.11792,-0.83215 -3.92664,-2.38774 -5.78822,-3.62904c-1.3862,-0.92432 -3.49863,-1.61507 -4.30205,-3.19883c-0.78126,-1.54008 -0.23839,-4.55853 0.37753,-6.11618c0.81263,-2.0551 2.42654,-3.64844 3.81235,-5.31141c0,0 1.73818,-2.08581 3.82399,-0.34764c2.08581,1.73817 0.34763,3.82399 0.34763,3.82399c-0.98125,1.17751 -2.35172,2.40918 -2.94527,3.85965c-0.16253,0.39717 -0.15983,0.84719 -0.30726,1.2502c-0.05197,0.14205 -0.38075,0.24329 -0.28058,0.35662c0.59814,0.67673 1.70403,0.64443 2.45557,1.14536c1.55272,1.03494 3.07348,2.40532 4.8309,3.12858c1.78974,0.73657 3.75075,0.32657 5.59439,0.54861c3.33538,0.40169 6.61223,1.48542 9.97341,1.91565c4.35556,-0.01018 8.9972,-0.26371 13.27202,0.79762c3.84019,0.95342 7.62781,2.58301 11.48091,3.35543c1.30944,0.2625 2.67569,0.19577 3.9741,0.50831l0.30686,-0.08107c0,0 2.71512,0 2.71512,2.71512z" fill="#702824" stroke="none" stroke-width="0.5" stroke-linecap="butt"/><path d="M377.58608,233.80416c-0.67353,-0.34671 -2.02009,-1.31232 -1.36454,-3.27898c0.8586,-2.57578 3.43438,-1.71719 3.43438,-1.71719l2.22282,1.47005c1.95185,3.59097 2.26062,8.43951 0.30485,12.23012c-1.16864,2.26501 -3.24876,3.27934 -5.21648,4.62105c-1.03363,0.70479 -1.77171,1.77517 -2.75442,2.54939c-4.32844,3.41013 -9.38848,7.09009 -14.5883,8.89803c0,0 -2.57579,0.85859 -3.43438,-1.71719c-0.8586,-2.57578 1.71719,-3.43438 1.71719,-3.43438c1.30284,-0.40709 2.43235,-1.24406 3.60248,-1.94685c3.7428,-2.248 7.3783,-4.42298 10.62987,-7.37736c1.37216,-1.24675 4.382,-2.28417 5.20227,-4.05127c0.86834,-1.87063 1.02401,-4.33208 0.24426,-6.24541z" fill="#702824" stroke="none" stroke-width="0.5" stroke-linecap="butt"/></g><text transform="translate(16.96856,79.54133) scale(0.45276,0.45276)" font-size="40" xml:space="preserve" fill="#000000" fill-rule="nonzero" stroke="none" stroke-width="1" stroke-linecap="butt" stroke-linejoin="miter" stroke-miterlimit="10" stroke-dasharray="" stroke-dashoffset="0" font-family="Sans Serif" font-weight="normal" text-anchor="start" style="mix-blend-mode: normal"><tspan x="0" dy="0">Stalatov rose to find Hakim gone and the night sky</tspan><tspan x="0" dy="48px">barren of a songle star to light it.</tspan><tspan x="0" dy="48px"> </tspan><tspan x="0" dy="48px">Stalatov, arisen and wondering, begun wandering.</tspan></text><text transform="translate(16.21679,78.93116) scale(0.45276,0.45276)" font-size="40" xml:space="preserve" fill="#ffffff" fill-rule="nonzero" stroke="none" stroke-width="1" stroke-linecap="butt" stroke-linejoin="miter" stroke-miterlimit="10" stroke-dasharray="" stroke-dashoffset="0" font-family="Sans Serif" font-weight="normal" text-anchor="start" style="mix-blend-mode: normal"><tspan x="0" dy="0">Stalatov rose to find Hakim gone and the night sky</tspan><tspan x="0" dy="48px">barren of a songle star to light it.</tspan><tspan x="0" dy="48px"> </tspan><tspan x="0" dy="48px">Stalatov, arisen and wondering, begun wandering.</tspan></text></g></g></svg>