<svg version="1.1" xmlns="http://www.w3.org/2000/svg" xmlns:xlink="http://www.w3.org/1999/xlink" width="605.37263" height="430.60813" viewBox="0,0,605.37263,430.60813"><g transform="translate(27.80851,51.82993)"><g data-paper-data="{&quot;isPaintingLayer&quot;:true}" fill-rule="nonzero" stroke="none" stroke-width="0.5" stroke-linecap="butt" stroke-linejoin="miter" stroke-miterlimit="10" stroke-dasharray="" stroke-dashoffset="0" style="mix-blend-mode: normal"><path d="M-6.54544,113.36204c3.41716,-4.86204 9.98777,-4.86204 9.98777,-4.86204c5.30565,0 9.72166,0.41011 14.98977,1.04089c2.47453,0.29629 5.00059,-0.23604 7.47643,0.04902c3.55371,0.40917 6.92671,1.50673 10.61161,1.06504c3.40816,-0.40852 5.63386,-2.77443 8.75099,-3.68148c0.05661,-0.08724 0.11261,-0.172 0.16758,-0.25374c-0.06759,-7.45462 -1.04516,-15.84507 0.15857,-23.14191c0.1932,-1.17112 1.90089,-6.19267 2.46085,-7.87255c1.12859,-3.38577 2.65093,-8.44256 4.89892,-10.69054c2.03233,-2.03233 5.051,-2.7616 7.69055,-3.89892c11.65533,-5.02199 24.39523,-3.6158 36.79473,-3.6158c8.629,0.22577 16.90199,2.03371 22.20781,9.69123c1.75647,2.53499 2.47822,6.92184 3.31363,9.95372c2.17548,7.8953 1.47856,16.18361 1.47856,24.35505c0,2.02953 -0.55783,5.1337 -0.15495,7.07782c1.24061,5.98658 1.15495,11.76246 1.15495,17.92219c0,11 0,22 0,33c0,2.38679 0,4.77356 0,7.16035c0.66653,-0.06761 1.33532,-0.16035 2,-0.16035c5.28414,0 11.32126,0.81597 16.5338,0.08991c1.36122,-0.18961 2.63688,-0.82451 4,-1c3.92298,-0.50503 8.52957,-0.08991 12.4662,-0.08991c7.33334,0 14.66666,0 22,0c4,0 8,0 12,0c0.11704,0 0.23408,0 0.35112,0c0.18585,-3.40796 -0.11921,-7.05428 -0.90728,-9.76654c-0.59213,-2.03788 -1.78379,-3.88887 -2.22732,-5.96417c-0.36801,-1.72193 0.00116,-3.52761 -0.17564,-5.27953c-0.53814,-5.33228 -2.42355,-10.48402 -2.98248,-15.80732c-0.16416,-1.56352 0.19021,-3.15216 0.03151,-4.71625c-0.27044,-2.66536 -1.23034,-5.21524 -1.79756,-7.83355c-1.61325,-7.44676 -1.63177,-14.18705 -0.13739,-21.55484c0.37903,-1.86879 0.11317,-3.87569 0.75849,-5.67002c0.15798,-0.43928 0.48641,-0.77043 0.85868,-1.07377c-0.08283,-0.73101 0.22787,-1.5785 0.22787,-2.33403c0,-1 -0.2358,-2.0282 0,-3c0.94406,-3.89078 0.60425,-8.73599 3.51472,-11.48528c0.20435,-0.19303 73.77637,-0.85738 77.48141,3.54365c2.41287,2.86613 2.71047,6.99487 3.77083,10.58823c1.25055,4.23787 1.70748,9.05321 1.07808,13.43121c1.71182,5.13544 1.15495,10.55607 1.15495,15.92219c0,9.14229 0.90109,18.84973 -0.15495,27.92219c-0.12187,1.04702 -0.82696,1.96021 -1,3c-0.40425,2.42912 0.18492,5.58869 0.15495,8.07781c-0.05157,4.28238 -0.8388,8.18005 -0.98416,12.41404c1.30512,0.23741 2.60703,0.52468 3.90634,0.74091c4.93736,0.82167 26.73765,-0.15495 31.74448,-0.15495c4.32142,0 5.36484,-0.23511 9.33333,-1.33999c0,-2.22 0,-4.44001 0,-6.66001c0,-7.33334 0,-14.66666 0,-22c0,-3.48466 -0.40787,-7.51044 0.15496,-10.92218c0.50587,-3.06652 3.71195,-11.08809 5.35976,-12.5631c2.61032,-2.33658 6.86645,-3.3792 10.22976,-4.35977c1.89581,-0.55272 20.66504,2.28754 24.17771,3c1.86879,0.37904 3.87569,0.11317 5.67001,0.75849c0.88718,0.31907 1.11659,1.67064 2,2c0.47821,0.17829 0.83109,-0.86602 1.32999,-0.75849c2.55573,0.55085 5.26877,1.10426 7.38659,2.63724c2.75281,1.99261 4.94902,4.75134 6.77778,7.61561c0.53814,0.84286 -0.09708,2.00472 0,3c0.03346,0.34302 -0.03041,-1.27763 0.19355,-1.01566c1.38216,1.61671 2.51819,3.44865 3.49968,5.33565c1.58587,3.04899 3.51164,8.99402 4.06527,12.35003c1.34224,8.13648 -0.08437,17.08249 -0.90345,25.10464c-0.29823,2.9209 -0.16808,5.95432 -1.09655,8.73974c1.34245,9.33791 0.15495,19.61909 0.15495,29.07781c0,3.67246 0.16176,8.60684 -1.4199,11.6623c-1.25642,2.42716 -3.97022,3.75726 -5.97223,5.61781c-1.42185,1.32137 -6.90564,8.53074 -19.29909,9.92771c-64.47064,7.26701 -152.89105,-2.35338 -253.49121,2.73379c-100.47765,5.08097 20.78766,0.1395 -11.81755,0.0584c-32.6052,-0.0811 -8.0349,-0.88088 -11.33558,-0.11599c-1.5187,0.35194 -5.47896,1.77355 -8.65614,2.56488c-0.14686,0.63963 -0.29772,1.27813 -0.48684,1.90617c-0.98754,3.27955 -1.64564,7.14471 -1.52144,10.64495c0,3.0873 -0.67566,7.08898 -0.15495,10.07781c0.36183,2.0769 1.65686,3.91993 2,6c0.44213,2.68012 -0.54678,6.36149 0,9c0.21389,1.03217 0.84794,1.95693 1,3c0.69455,4.76412 -0.95829,10.37574 0,15c0.54152,2.61313 1.10277,5.25405 1.15495,7.92219c0.05598,2.86193 -0.18208,5.42692 0.15946,8.05045c0.10458,0.01614 0.20696,0.02948 0.30674,0.03946c1.36755,0.13675 2.63877,0.8104 4,1c3.19236,0.44466 7.38067,-0.08991 10.5338,-0.08991c7.93608,0 16.29538,-0.66988 24.18245,0.0584c3.38495,0.31256 6.61541,1.6836 10,2c3.33541,0.3118 6.66898,0.64429 10,1c5.84624,0.6243 11.63418,0.22366 17.5632,0.96479c5.41802,-0.03861 10.8362,-0.02319 16.25435,-0.02319c2.73456,0 6.08304,0.43608 8.81755,0.0584c1.68369,-0.23254 3.3067,-0.85289 5,-1c8.59971,-0.74714 17.54969,-0.0584 26.18245,-0.0584c16,0 32,0 48,0c0.83646,0 9.43993,-0.01878 10.18245,0.0584c1.69056,0.17572 3.30624,0.85838 5,1c2.15292,0.18001 4.32515,-0.17823 6.48116,-0.04003c5.14246,0.32963 10.19875,1.50948 15.32616,2.02252c1.55068,0.15516 3.14011,-0.19662 4.67465,0.0751c2.51969,0.44615 4.85939,1.7143 7.39455,2.06197c12.35156,1.69389 24.16066,1.1234 36.36039,4.31952c1.54883,0.40576 2.86615,1.5226 4.43409,1.84672c4.38861,0.90717 9.02688,-0.03315 13.41584,0.87233c1.75803,0.36269 3.26482,1.54022 5,2c0.562,0.14892 1.14954,-0.20024 1.73071,-0.21652c3.33202,-0.09332 6.66667,0 10,0c2.41153,0 6.84859,0.74277 9.20526,-0.3842c3.09224,-1.02237 7.07515,-1.26824 9.94009,-2.58997c1.09131,-0.50347 1.87611,-1.57418 3,-2c2.38081,-0.90202 4.87739,-1.51583 7.38844,-1.93592c1.47178,-0.24622 2.99163,0.09966 4.47644,-0.04902c2.0175,-0.20202 3.978,-0.84956 6,-1c10.54086,-0.78427 21.40849,-0.04089 31.98976,-0.04089c8.908,0 19.50381,-1.65118 27.92219,1.15495c2.82092,0.79553 6.28476,0.42527 8.46276,2.38659c2.7215,2.45074 3.5107,6.43547 5.03297,9.76644c3.88862,8.50893 4.36183,21.52261 -1.93264,29.17731c-1.48888,1.81062 -4.17645,2.13376 -6.21306,3.29451c-2.80054,1.59614 -5.82047,2.84659 -8.91717,3.74165c-6.10453,1.76445 -12.05782,1.47856 -18.35505,1.47856c-8.33333,0 -16.66667,0 -25,0c-4.81558,0 -10.04483,-0.56806 -14.81755,-0.0584c-1.69007,0.18048 -3.30789,0.83985 -5,1c-2.74136,0.25946 -5.57579,-0.70971 -8.26027,-0.09655c-2.05525,0.46944 -3.91346,1.69868 -6,2c-8.28742,1.1968 -17.5224,0.15495 -25.92219,0.15495c-16,0 -32,0 -48,0c-6.94322,0 -14.09894,-0.5217 -21.01024,-0.04089c-4.04539,0.28143 -7.96226,1.62444 -12,2c-4.76696,0.44339 -9.54871,0.71192 -14.32616,1.02252c-9.7414,0.63333 -19.97797,-1.18347 -29.67384,-0.02252c-17.40999,2.0846 -35.43069,1.04089 -52.98977,1.04089c-8.8195,0 -17.96509,0.64102 -26.74565,-0.02319c-5.35952,-0.40542 -10.63924,-1.61118 -16,-2c-12.60897,-0.91456 -25.58233,0.02319 -38.25435,0.02319c-29,0 -58,0 -87,0c-1.28496,0 -8.60999,0.05244 -9.92219,-0.15495c-2.24681,-0.3551 -4.29224,-1.61282 -6.54401,-1.93496c-3.1203,-0.44639 -6.32139,0.26642 -9.45599,-0.06504c-1.04825,-0.11084 -1.95739,-0.84483 -3,-1c-1.595,-0.23739 -3.29629,0.31687 -4.83484,-0.16606c-5.24173,-1.64531 -10.88522,-4.70495 -13.68536,-9.76661c-1.81524,-3.28129 -1.77905,-7.29249 -2.40265,-10.9902c-0.17529,-1.03942 -0.86877,-1.95411 -1,-3c-0.23822,-1.89863 0.09782,-3.83612 -0.09655,-5.73973c-0.75136,-7.35896 -1.77757,-14.88419 -1,-22.3649c0.30355,-2.92035 1.02078,-5.80462 1.09655,-8.73973c2.0209,-6.74054 4.18001,-13.97809 8.63724,-19.38659c0.06693,-0.08121 0.21242,-4.45549 0.26621,-4.87367c0.26713,-2.0768 0.77366,-4.11578 1.17463,-6.17094c0.53124,-2.72286 1.41315,-5.37432 1.85688,-8.11281c0.67719,-4.17937 -0.08991,-9.20995 -0.08991,-13.5338c0,-11 0,-22 0,-33c0,-29 0,-58 0,-87c0,-4.33334 0,-8.66666 0,-13v-3c0,0 0,-8.38748 7.01224,-11.13796z" fill="#78878f"/><path d="M164.46114,64.80558c-1.09825,3.77147 -3.6137,7.50542 -3.66183,11.58847c-0.09384,7.95897 0.59866,15.93717 0.66667,23.94319c0.02295,2.70184 0.70728,5.59909 1,8.2824c0.3579,3.28084 0.28873,6.62374 0.791,9.88159c0.35478,2.30125 1.9365,4.09991 2.47,6.23392c1.59934,6.39737 1.28887,16.26087 -7.26099,16.79717c-11.89938,0.74639 -11.25733,-5.50244 -11.33333,-14.45623c-0.02903,-3.42033 -0.49702,-6.92092 -0.66667,-10.3487c-0.28555,-5.7698 -1.88267,-11.29117 -2,-17.19507c-0.09027,-4.54197 0.24372,-9.10578 -0.1974,-13.62719c-0.1266,-1.2976 0.19776,-3.72723 -0.14398,-4.60025c-2.43048,-6.20917 -2.83026,-14.25083 -3.29654,-20.80548c-0.50356,-7.07863 1.79104,-16.06923 -0.11972,-22.20535c-0.46496,-1.49315 -4.25469,-3.73255 -5.44236,-4.8284c-2.58742,-2.38739 -4.24001,-5.43196 -6.56137,-7.99772c-1.85895,-2.05466 -5.49837,-2.61311 -7.89471,-3.81128c-0.79906,-0.39953 -1.78705,-0.04911 -2.67725,-0.12433c-4.99304,-0.42189 -9.65038,-1.10538 -11.84147,-4.94221c-5.8776,0.32289 -12.03394,-0.09011 -17.84885,-0.09011c-2.54196,0 -5.98867,-0.5023 -8.5338,-0.08991c-3.12703,0.50668 -6.12822,1.75282 -9.28375,2.03151c-2.71698,0.23996 -5.45497,0.03893 -8.18245,0.0584c-7.08279,-0.03121 -13.92226,-1 -21,-1c-2.13077,0 -5.2797,-0.58066 -7.33559,-0.11599c-2.36699,0.53499 -4.60188,1.62864 -7,2c-0.89885,0.13919 -8.70262,0.11599 -10.66442,0.11599c-4.34684,0 -9.17135,0.52333 -13.4662,-0.08991c-4.64632,-0.66343 -9.27683,-2.84772 -13.5338,-3.91009c-4.19486,-1.04687 -9.84747,-0.08911 -12.48528,-3.51472c-8.60768,-11.1784 -3.91933,-14.47471 1.27747,-20.79405c1,-3 1.54566,-6.19199 3,-9c0.8657,-1.67148 2.70401,-2.64367 3.81686,-4.16184c2.62631,-3.58288 4.01205,-7.97606 6.65604,-11.54591c1.33509,-1.8026 3.19065,-3.15919 4.66946,-4.84589c2.92993,-3.34184 4.0912,-7.23201 8.40316,-9.71767c2.29132,-1.32084 5.20063,-0.96846 7.81162,-1.38972c5.88403,-0.94933 11.89055,-1.02323 17.85067,-1.03019c13.33325,-0.01557 26.66674,0 40,0c48.21584,0 96.43168,-0.00896 144.64752,0.00518c37.66318,-2.21548 75.63037,-1.00518 113.35249,-1.00518c71,0 142,0 213,0c2.15913,0.17163 4.38392,-0.04063 6.47741,0.5149c1.16165,0.30825 1.86744,1.59782 3,2c0.57061,0.20262 1.20533,-0.44872 1.79188,-0.29837c2.35875,0.60462 4.59982,1.60516 6.8582,2.51566c2.08219,0.83946 4.53211,1.18157 6.15643,2.73134c2.64764,2.52611 4.59126,5.77282 6.20118,9.05907c0.61865,1.26283 -0.04046,2.84332 0.29837,4.20812c0.31588,1.27237 1.242,2.32639 1.63445,3.57726c1.31932,4.20514 2.85806,8.39949 3.42713,12.76984c0.19225,1.47644 0.15495,9.75003 0.15495,11.92219c0,25.33334 0,50.66666 0,76c-0.02997,4.48874 0.34506,8.99849 -0.08991,13.4662c-0.26635,2.7358 -1.67585,5.27044 -2,8c-0.32547,2.74065 0.23197,5.5245 0.06672,8.27945c-0.41125,6.85622 -2.06859,13.43501 -3.13176,20.17654c-0.6674,4.23197 -0.55394,8.55074 -0.86824,12.82347c-0.71123,9.66881 -2.39022,19.8725 -4.17129,29.40604c-0.95461,5.10974 -1.95088,10.21276 -3.05694,15.29186c-0.51488,2.36435 -1.59326,4.61533 -1.83848,7.02264c-0.362,3.55371 0.25931,7.15142 0.03151,10.71625c-0.30924,4.83929 -1.63895,9.57657 -1.9565,14.41532c-0.51045,7.77792 -0.03496,15.36127 -1.00829,23.14789c0.02113,4.78757 -0.63909,10.05002 -0.06672,14.78815c0.80415,6.65682 2.66642,15.4072 0.17647,22.0584c-0.73585,1.96562 -2.57518,3.31593 -3.80645,5.01567c-2.40761,3.32365 -5.04607,6.57931 -8.26358,9.12704c-1.16869,0.92541 -2.76383,1.16687 -4,2c-1.92224,1.29552 -3.34932,3.31836 -5.42432,4.35165c-1.23353,0.61426 -2.80898,-0.04167 -4.11479,0.39855c-1.13887,0.38394 -1.82185,1.76254 -3,2c-5.66206,1.14123 -16.39691,1.05866 -22.3996,0.35995c-1.04703,-0.12187 -1.96021,-0.82696 -3,-1c-3.13825,-0.52227 -6.36283,0.10335 -9.54401,0.06504c-5.84069,-1.46017 -11.69209,-1.00273 -17.69717,-2.10671c-5.93104,-1.09037 -11.9028,-2.75905 -17.75882,-3.95833c-1.65526,-0.33899 -3.38705,0.28916 -5.06757,0.11406c-5.27263,-0.54938 -9.69971,-0.95911 -15.01024,-0.95911c-2.02954,0 -5.1337,-0.55783 -7.07781,-0.15495c-2.41889,0.50127 -4.86229,0.9922 -7.32781,1.12902c-0.0939,0.07918 -0.18908,0.15711 -0.2856,0.23374c-2.4953,1.98125 -8.61585,1.79219 -12.30878,1.79219c-1.69339,0 -3.41965,-0.49857 -5.07781,-0.15495c-1.03217,0.21389 -1.95463,0.86468 -3,1c-6.25511,0.80971 -13.07807,0.16005 -19.37842,0.14263c-21.37523,1.9432 -253.61392,-2.44914 -258.46596,-3.14262c-3.32587,-0.47535 -6.71814,0.15495 -10.07781,0.15495c0,0 -12,0 -12,-12c0,-12 12,-12 12,-12c3.267,0 12.69143,-0.02082 13.92219,0.15495c4.04517,0.57771 7.90819,2.09118 11.76985,3.42713c1.23894,0.42861 2.29892,1.34367 3.57726,1.63444c0.94826,0.21569 1.94671,-0.26627 2.91316,-0.15812c5.92381,0.66287 11.95228,2.1334 17.73973,3.09655c1.67042,0.27799 3.38442,-0.15495 5.07781,-0.15495c3.9994,0 8.00086,-0.03436 12,0c4.37661,0.0376 8.17711,1.08991 12.4662,1.08991c8.94606,2.23651 19.32388,0.91009 28.5338,0.91009c5.33334,0 10.66666,0 16,0c2.84476,0 5.71345,0.46175 8.5338,0.08991c3.14063,-0.41408 6.14229,-1.62381 9.28375,-2.03151c9.79237,-1.27086 19.78858,-3.32077 29.71625,-2.96849c10.19734,-2.54933 21.97,-1.08991 32.4662,-1.08991c21.10123,0 42.44023,0.92287 63.45623,-0.98768c5.15958,-0.01147 11.54341,0.98773 16.62158,0.14263c1.03979,-0.17304 1.95693,-0.84794 3,-1c0.90426,-0.13183 3.85382,-0.15659 6.20224,-0.15856c1.0802,-2.18586 2.61374,-4.91922 2.8749,-6.91858c0.12953,-0.99158 -0.18245,-2.01679 0,-3c0.38464,-2.0728 1.7491,-3.9068 2,-6c0.31737,-2.64772 -0.34233,-5.3554 0,-8c0.27067,-2.09092 0.96586,-4.15281 0.90345,-6.26026c1.00616,-5.0308 1.74762,-11.2102 1.03151,-16.35135c-0.1896,-1.36122 -0.82452,-2.63688 -1,-4c-0.39148,-3.04096 0.56125,-6.56235 0.06504,-9.54401c-0.17304,-1.03979 -0.87813,-1.95298 -1,-3c-0.36444,-3.13093 0.28661,-6.32359 -0.06504,-9.45599c-0.25376,-2.26049 -1.57986,-4.29721 -1.93496,-6.54401c-1.34429,-8.50552 -0.15495,-18.31776 -0.15495,-26.92219c0,-4.33334 0,-8.66666 0,-13c0,-1.69339 0.49857,-3.41965 0.15495,-5.07781c-0.54152,-2.61312 -1.10276,-5.25405 -1.15495,-7.92219c-0.27358,-13.98738 0,-28.00947 0,-42c0,-4.33334 0,-8.66666 0,-13c0,-1.14108 -0.1302,-2.29532 -0.16775,-3.44019c-0.89344,-0.13228 -1.89289,0.44658 -2.83225,0.44019c-4.80109,-0.03266 -9.06804,1.54033 -13.81755,1.9416c-8.81913,0.7451 -17.06382,-0.19461 -25.71625,1.96849c-7.82225,0.10877 -47.95345,-3.23271 -51.8267,-6.40136c-1.48822,-1.21749 -1.5102,-3.5422 -2.41928,-5.23651c-1.00472,-1.87256 -1.83531,-3.83552 -2.84957,-5.70293c-1.09583,-2.01761 -2.9289,-3.63226 -3.75485,-5.77455c-0.90247,-2.34076 -0.38294,-5.04707 -1.13724,-7.43969c-0.27128,-0.86048 -0.81535,-2.40348 -1.31897,-3.98092c-2.18916,-0.59558 -4.3809,-1.17332 -6.62579,-1.46404c-5.04197,-0.65296 -10.66361,0.43718 -15.71625,0.03151c-1.69422,-0.13602 -3.3057,-0.865 -5,-1c-4.59134,-0.36583 -102.42445,8.74182 -105.74342,8.63922c-1.8768,3.21985 -7.26212,5.56684 -9.05532,11.72476zM161.25169,8.91097c0.00826,0.17193 0.01999,0.3424 0.03569,0.51122c0,-0.11651 -0.0203,-0.32498 -0.03569,-0.51121z" fill="#78878f"/><path d="M50.0831,106.28641c2.21359,6.64078 -4.42719,8.85438 -4.42719,8.85438l-4.09232,1.26883c-1.37376,0.03013 -2.75395,0.22657 -4.12127,0.09039c-0.20637,-0.02056 -0.1459,-0.64365 -0.32122,-0.53284c-0.79696,0.50373 -1.11648,1.67092 -2,2c-1.43032,0.53275 -3.05826,0.1563 -4.55751,0.44245c-1.0354,0.19762 -1.95805,0.84046 -3,1c-5.43922,0.83284 -11.62821,0.09039 -17.12127,0.09039c-4.02895,0 -6.81131,-0.58888 -10.1171,1.82435c0,0 -5.82436,3.8829 -9.70725,-1.94145c-3.8829,-5.82435 1.94146,-9.70725 1.94146,-9.70725c3.04929,-1.93994 6.46038,-3.54327 10.02762,-4.1232c5.61967,-0.91361 12.15479,-0.05245 17.85528,-0.05245c1.62652,0 3.27976,0.38851 4.87873,0.09039c1.03624,-0.1932 1.95411,-0.86874 3,-1c0.49902,-0.06263 0.98427,0.64977 1.44249,0.44245c0.85898,-0.38864 1.10464,-1.70467 2,-2c2.36707,-0.78078 5.07768,-0.56176 7.55751,-0.44245l1.90768,-0.73117c0,0 6.64078,-2.21359 8.85438,4.42719z" fill="#a4cade"/><path d="M120.44232,65.5c0,7 -7,7 -7,7l-4.21359,-0.35922c-1.48884,-0.56207 -3.09032,-0.88707 -4.46652,-1.68623c-0.51643,-0.29989 -0.43946,-1.27782 -0.99867,-1.4874c-0.737,-0.27621 -1.60469,0.48627 -2.34971,0.23249c-1.83227,-0.62414 -3.16233,-2.64827 -5.09279,-2.79004c-5.20763,-0.38244 -8.73825,2.10864 -13.75745,3c-1.07197,0.19037 -2.18578,-0.09797 -3.266,0.03794c-2.65081,0.33352 -5.49156,2.0608 -7.86066,2.76225c-5.10734,1.5122 -10.68799,2.25481 -15.99462,2.29019c0,0 -7,0 -7,-7c0,-7 7,-7 7,-7c6.09179,0.05998 11.18722,-1.85336 16.84631,-3.66045c2.58124,-0.82426 5.35248,-0.84891 8.03241,-1.24916c3.03,-0.45253 5.93625,-2.493 9,-3c4.57528,-0.75713 9.98741,-0.33478 14.19674,1.62141c0.761,0.35366 1.15495,1.32919 1.95303,1.58856c1.15953,0.37684 2.52327,-0.23262 3.6503,0.23249c1.64647,0.67948 2.7898,2.46931 4.53481,2.82637l-0.21359,-0.35921c0,0 7,0 7,7z" fill="#a4cade"/><path d="M200.39207,169.44975c-4.25173,4.25173 -8.50346,1.19917 -9.61807,0.25366c-1.73616,-0.37768 -3.27338,-0.20341 -5.33168,-0.20341c-4.47368,0 -8.83828,-0.36337 -13.20333,0.7655c-1.99964,0.51714 -4.75619,1.8887 -6.6754,2.14411c-2.9069,0.38685 -5.94863,-0.7313 -8.79752,-0.03591c-1.74385,0.42566 -3.24185,1.63789 -5,2c-3.29982,0.67964 -5.58265,-0.19958 -8.74639,0.10245c-2.87835,0.27479 -5.58889,1.55991 -8.45609,1.93346c-2.29602,0.29914 -4.74562,-0.09749 -6.90768,0.73118c0,0 -6.64078,2.21359 -8.85438,-4.42719c-2.21359,-6.64078 4.42719,-8.85438 4.42719,-8.85438c2.92288,-0.90624 6.05358,-0.90748 9.09232,-1.26882c3.23226,-0.38435 6.30609,-1.73232 9.54391,-2.06654c2.40533,-0.24829 4.90446,0.67585 7.25361,0.10245c1.74385,-0.42566 3.24185,-1.63789 5,-2c3.00445,-0.61881 6.1536,0.30172 9.20248,-0.03591c3.73659,-0.41379 7.56325,-2.56888 11.43151,-3.05633c6.72871,-0.8479 15.4991,-0.6605 21.90336,1.32515l3.73615,2.69104c0,0 4.94975,4.94975 0,9.89949z" fill="#a4cade"/><path d="M272.39207,83.44974c-4.94975,4.94974 -9.8995,0 -9.8995,0l0.27096,-0.48259c-1.01403,1.6821 -3.58232,0.14086 -5.19994,0.44245c-1.03623,0.1932 -2,0.66666 -3,1c-3.71069,0.06549 -8.52669,0.61491 -12.24255,0c-2.0799,-0.34419 -3.90694,-1.74793 -6,-2c-1.95618,-0.23558 -4.00187,0.2918 -5.90722,-0.20996c-1.87184,-0.49294 -3.16646,-2.6002 -5.09278,-2.79004c-3.76319,-0.37086 -6.09345,1.39366 -9.75745,2c-2.30202,0.38095 -4.6873,-0.30961 -7,0c-3.0123,0.40327 -5.9617,2.49721 -9,3c-1.35565,0.22434 -2.74751,0.06026 -4.12127,0.09039c0,0 -7,0 -7,-7c0,-7 7,-7 7,-7c3.85096,0.18528 7.08578,-2.35007 10.87873,-2.90961c2.30835,-0.34054 4.69938,0.38934 7,0c3.64896,-0.61753 6.21013,-2.09039 10.12127,-2.09039c4.11781,0 5.01645,-0.17454 9.07546,1.71179c0.76101,0.35366 1.13486,1.40199 1.95303,1.58856c1.33187,0.3037 2.73802,-0.38522 4.09278,-0.20996c2.09077,0.27047 3.92137,1.64823 6,2c2.37271,0.40154 5.32681,-0.07632 7.75745,0c5.208,-1.736 10.3982,-1.06441 15.80006,-0.55755l4.27096,3.51741c0,0 4.94975,4.94974 0,9.89949z" fill="#a4cade"/><path d="M380.39207,123.44975c-4.23413,4.23413 -8.46826,1.22431 -9.60407,0.26551c-2.36245,-0.49193 -4.31582,0.08646 -7.20096,-0.2677c-5.80823,-0.71298 -29.14472,-3.94755 -37.14472,-3.94755c0,0 -7,0 -7,-7c0,-7 7,-7 7,-7c8,0 33.22876,3.33048 38.85528,4.05245c4.12102,0.52879 7.22922,0.02653 11.35832,1.30677l3.73615,2.69104c0,0 4.94975,4.94974 0,9.89949z" fill="#a4cade"/><path d="M416.44232,271.5c0,7 -7,7 -7,7l0.44415,-0.13146c-2.4181,0.682 -4.93689,1.07648 -7.44415,1.13146c-22.66667,0 -45.33333,0 -68,0c-5.18712,0 -9.23113,0.55173 -14.56504,0.98647c-6.37833,0.51988 -13.03127,0.01353 -19.43496,0.01353c-13,0 -26,0 -39,0c-5.49721,0 -11.23725,0.54782 -16.68976,-0.03406c-1.69008,-0.18036 -3.31169,-0.80376 -5,-1c-6.84798,-0.79597 -14.41914,0.03406 -21.31024,0.03406c-6.33334,0 -12.66666,0 -19,0c-3.49088,0 -7.42036,0.38883 -10.85529,-0.05244c-4.02003,-0.51644 -6.23765,-2.07023 -10.14471,-1.94756c-6.66666,0 -13.33334,0 -20,0c-0.83966,0 -7.34002,0.02923 -8.12127,-0.09039c-1.91573,-0.29333 -3.81544,-0.68795 -5.73401,-0.96205c-1.69267,-0.24183 -3.36047,-1.43559 -5.02344,-1.03795c-8.05072,1.92504 -16.81317,1.09039 -25.12127,1.09039c0,0 -7,0 -7,-7c0,-7 7,-7 7,-7c4.66666,0 9.33334,0 14,0c1.9598,0 3.95212,0.44959 5.87873,0.09039c2.63584,-0.49144 5.31055,-1.32368 7.97655,-1.03795c3.47171,0.37208 6.87471,1.40566 10.266,2.03795c2.96404,0.55263 6.85394,-0.09039 9.87873,-0.09039c5.33334,0 10.66666,0 16,0c1.70709,0.03013 3.43106,-0.15099 5.12127,0.09039c3.62904,0.51826 3.41029,1.56557 6.734,1.96205c2.9023,0.34621 6.21182,-0.05244 9.14472,-0.05244c6.33334,0 12.66666,0 19,0c7.39563,0 15.33156,-0.75119 22.68976,0.03406c1.69008,0.18036 3.31169,0.80376 5,1c4.96151,0.5767 10.28912,-0.03406 15.31024,-0.03406c13,0 26,0 39,0c6.10636,0 12.48578,0.53208 18.56504,0.01353c5.4549,-0.46529 10.04571,-1.01353 15.43496,-1.01353c22.66667,0 45.33333,0 68,0c1.2786,0.06151 2.59111,-0.18266 3.78641,-0.64078l3.21359,-0.35922c0,0 7,0 7,7z" fill="#a4cade"/><path d="M296.79931,137.19898c-2.56916,0 -4.81505,-1.38408 -6.03271,-3.44726l-0.09229,-0.05274l-0.0501,-0.20039c-0.5264,-0.98308 -0.8249,-2.10648 -0.8249,-3.29961l-1.99998,-75.33335l0.1222,-0.48879l-0.05184,-0.50116l0.26298,-1.84086v-0.71246l-0.04361,-0.06542l0.04361,-0.19626v-0.19505l0.33333,-1.33333v-0.20993l-0.04361,-0.06542l0.04361,-0.19626v-0.19505l0.3901,-1.56039l0.08399,-0.37795l-0.00482,-0.10115l0.1974,-0.98699v-1.18346l-0.04361,-0.06542l0.04361,-0.19626v-0.19505l0.3901,-1.56039l0.34891,-1.57011l0.08723,-0.17446l0.04876,-0.19505l0.06827,-0.03901l0.46241,-0.92482l2.34787,-2.73918l0.27598,-0.01533l0.13714,-0.23999l3.5,-0.875h9l0.34483,0.08621l0.3517,-0.05147l3.33333,0.33333l0.73667,0.26445l0.78039,0.06003l2,0.66667l0.17758,0.11301l0.20856,0.02844l3.2627,1.30508l2.59543,0.97329l0.46792,0.32271l0.54718,0.1539l4.66667,2.66667l0.31936,0.30605l0.40767,0.17165l15.33617,34.76474l-19.17173,9.29293h-0.28531l-14.82247,4.27697l-0.37636,0.2395l-0.36323,0.12108l-0.01703,0.02981l-0.19505,0.04876l-0.17446,0.08723l-1.57011,0.34891l-0.46045,0.11511l-0.06885,0.06598l-0.0918,-0.02582l-0.93928,0.23482h-0.19505l-0.19626,0.04361l-0.06542,-0.04361h-0.20993l-1.2839,-0.32097l0.25802,0.77405l0.0863,1.12194l0.27291,1.09166v0.7358l0.12433,0.23312l0.33333,1.33333v0.11895l0.15224,0.68508l0.16818,0.67273l0.08598,0.18151l0.33333,1.66667l-0.03096,0.65016l0.11013,0.49559l0.3901,1.56039v0.19505l0.04361,0.19626l-0.04361,0.06542v6.07165l0.27657,1.24457l0.3901,1.56039v0.19505l0.04361,0.19626l-0.04361,0.06542v16.54327c0,1.19312 -0.2985,2.31653 -0.8249,3.29961l-0.0501,0.20039l-0.09229,0.05274c-1.21766,2.06319 -3.46355,3.44726 -6.03271,3.44726zM326.2709,72.86565l0.49732,-0.12433h0.86174l-0.50308,-8.67736l-2.86399,-3.18221l-0.02361,-0.04449l-0.04137,-0.02873l-2.17985,-2.49126l-2.15009,-2.15009l-1.92004,-1.44003l-3.79988,-2.17136l-2.13996,-0.80249l-0.06438,-0.0444l-0.07749,-0.01057l-2.43566,-0.97427l0.04249,0.16998l2.25389,4.50779l0.02884,0.12979l0.08273,0.10408l1.66667,3.66667l0.01413,0.07692l0.04732,0.06227l0.64186,1.49767l0.92986,-0.2536l0.11401,-0.12742l0.20377,0.04075l3.19931,-0.87254l3.09359,1.85616l0.34371,0.34371l0.0771,0.01542l0.10794,0.16962l0.13792,0.13792l0.82752,1.3792l0.86352,1.35695l0.06168,0.18504l0.10344,0.1724l-0.02069,0.07586l0.1889,0.5667l0.0863,1.12194l0.27291,1.09166v4l-0.16667,0.66667z" fill="#78878f"/><path d="M271.96597,164.07398c2.83621,-1.5954 6.07108,-1.06865 9.07501,-1.60209c8.81897,-1.56606 16.13945,-2.39057 25.76805,-1.43715c3.55896,0.35241 12.24801,2.11138 13.91793,5.03374c2.12503,3.71879 -1.91579,10.50744 -7.31897,10.50744c-2.69924,0 -5.41804,-1.69753 -7.96849,-1.71028c-4.63966,-0.02319 -9.28008,-0.07648 -13.91917,0c-4.5143,0.07442 -9.58925,1.36212 -14.04702,2.04126c-0.55983,0.16729 -1.14909,0.2664 -1.75813,0.28772c-0.08272,0.00289 -0.1658,0.00435 -0.24922,0.00435c-3.86599,0 -7,-3.13401 -7,-7c0,-2.278 1.08814,-4.30186 2.77301,-5.58014c0.21551,-0.20863 0.45579,-0.39231 0.72699,-0.54486z" fill="#a4cade"/><path d="M494.24973,323.2246c0,7 -7,7 -7,7h-2c-1.18106,0 -6.38776,0.02193 -7.12128,-0.09039c-2.39977,-0.36744 -4.23117,-1.42753 -6.75745,-1c-2.07863,0.35177 -3.9201,1.65581 -6,2c-3.15152,0.52152 -6.91127,0.09039 -10.12128,0.09039c-5.66667,0 -11.33333,0 -17,0c-7,0 -14,0 -21,0c-2.40605,0 -5.52326,-0.52956 -7.87872,-0.09039c-4.38234,0.81707 -8.81178,1.44117 -13.26599,2.03794c-8.95567,1.19988 -17.98798,-0.94755 -26.85528,-0.94755c-6.0258,0 -12.73175,0.82115 -18.68977,-0.03407c-2.35847,-0.33853 -4.74304,-0.70344 -6.98902,-1.49878c-2.62739,-0.9304 -4.53886,-3.06615 -7.44249,-3.55755c-1.88458,-0.31893 -3.84183,0.30816 -5.73401,0.03794c-2.49019,-0.35562 -4.78959,-1.5964 -7.26599,-2.03794c-5.75308,-1.02576 -12.15993,0.78411 -18,0c-1.96526,-0.26386 -3.89681,-0.97184 -5.87872,-0.90961c-10,0 -20,0 -30,0c-3.75353,0 -8.18988,-0.66117 -11.87872,-0.09039c-1.0417,0.16118 -1.95528,0.85974 -3,1c-6.45063,0.86608 -13.6145,0.09039 -20.12127,0.09039c-3.9684,0 -7.3403,0.16994 -11.12127,-1.09039c-2.52007,0.12124 -5.31341,-0.41361 -7.75745,0c-2.07863,0.35177 -3.9201,1.65581 -6,2c-5.31387,0.87936 -10.95534,-0.66638 -16.26599,0.03794c-4.82569,0.64 -9.57442,1.64474 -14.54505,1.01838c-2.87018,-0.36168 -5.56041,-1.70202 -8.43151,-2.05632c-2.64659,-0.32659 -5.36713,0.42325 -8,0c-3.70237,-0.59518 -6.17462,-1.95556 -10,-2c-3.20965,-1.06988 -5.52538,-0.90961 -8.87873,-0.90961c-5.66666,0 -11.33334,0 -17,0c-16,0 -32,0 -48,0c0,0 -7,0 -7,-7c0,-7 7,-7 7,-7c17.33334,0 34.66666,0 52,0c7.59733,0 16.89444,-1.31856 24.12127,1.09038c3.60763,-0.05007 6.58366,1.39087 10,2c2.62527,0.46808 5.35425,-0.33339 8,0c2.58426,0.32565 4.98341,1.62468 7.56849,1.94368c4.02615,0.49683 7.56753,-0.5196 11.45495,-0.98162c5.09888,-0.606 10.70537,0.88895 15.73401,0.03794c2.07863,-0.35177 3.9201,-1.65581 6,-2c3.84258,-0.63588 8.36208,-0.0851 12.24255,0c4.49629,1.49876 9.13369,0.90962 13.87873,0.90962c4.08283,0 8.85352,0.7132 12.87873,0.09038c1.0417,-0.16118 1.95528,-0.85974 3,-1c4.51233,-0.60584 9.55286,-0.09038 14.12127,-0.09038c10,0 20,0 30,0c2.73095,0.0482 5.42202,0.67273 8.12128,1.09038c5.83076,0.90219 12.12964,-0.9437 18,0c2.30837,0.37108 4.41953,1.63123 6.73401,1.96206c2.06768,0.29556 4.20532,-0.30307 6.26599,0.03794c0.64042,0.10598 7.28533,2.29308 7.95418,2.62141c0.95065,0.46666 1.62473,1.41627 2.60332,1.82105c2.36259,0.97724 5.84659,0.46716 8.32121,0.46716c4,0 8,0 12,0c8.20753,0 16.89968,2.32388 25.14472,1.05244c1.35832,-0.20946 2.63781,-0.8175 4,-1c1.89445,-0.25382 3.85501,0.38827 5.73401,0.03794c1.03623,-0.1932 1.95805,-0.84046 3,-1c3.18563,-0.48777 6.88597,-0.09038 10.12128,-0.09038c7,0 14,0 21,0c5.66667,0 11.33333,0 17,0c2.43757,0 5.48497,0.49548 7.87872,0.09038c2.07863,-0.35177 3.9201,-1.65581 6,-2c5.46468,-0.90431 10.69933,0.90962 16.12128,0.90962h2c0,0 7,0 7,7z" fill="#a4cade"/></g></g></svg>