<svg version="1.1" xmlns="http://www.w3.org/2000/svg" xmlns:xlink="http://www.w3.org/1999/xlink" width="516.49078" height="148.79026" viewBox="0,0,516.49078,148.79026"><g transform="translate(17.00099,-222.77336)"><g data-paper-data="{&quot;isPaintingLayer&quot;:true}" fill-rule="nonzero" stroke="none" stroke-width="0.5" stroke-linecap="butt" stroke-linejoin="miter" stroke-miterlimit="10" stroke-dasharray="" stroke-dashoffset="0" style="mix-blend-mode: normal"><path d="M284.15572,288.00531c0.12729,1.15737 -0.5042,1.92215 -0.5042,1.92215l-1.51133,1.37253c-2.64903,0 -5.30251,0.11879 -7.94529,-0.20127c-3.68968,0.00374 -7.48746,0.43919 -11.15816,-0.20777c-1.09771,-0.19347 -2.76693,-0.18325 -3.25603,-2.59987c-0.23365,-1.15445 0.40281,-2.34659 0.66163,-3.48551c0.57686,-2.53844 1.16196,-7.33593 2.62972,-9.54346c-0.02824,-0.31134 -0.00449,-0.61467 0.09838,-0.90583c1.65489,-4.6838 4.10169,1.56125 4.87685,3.09891l0.00114,0.36187l0.08824,-0.05985l0.43246,1.83308c0.35996,0.72343 0.68816,1.52462 0.99438,2.4404c0.10708,-0.63834 0.21341,-1.1506 0.23989,-1.30059c0.4781,-2.70773 1.27185,-9.33445 3.72179,-8.5401c0.72996,0.23668 0.85558,2.06633 1.21717,3.16721c0.60205,1.83297 1.26398,3.93407 1.7645,5.98312c0.2971,-1.53947 0.63731,-3.03762 0.97488,-4.66968c0.17292,-0.83601 0.13726,-1.88815 0.50628,-2.51537c0.5795,-0.98497 1.34508,-2.21301 2.15695,-2.0113c0.73048,0.18148 1.00751,1.8469 1.4091,2.89727c1.3877,3.62952 1.21967,8.27141 2.44296,11.88746c0,0 0.15726,0.47994 0.15868,1.0766z" data-paper-data="{&quot;index&quot;:null}" fill="#e0f4ff"/><path d="M308.15572,287.50531c0.12729,1.15737 -0.5042,1.92215 -0.5042,1.92215l-1.51133,1.37253c-2.64903,0 -5.30251,0.11879 -7.94529,-0.20127c-3.68968,0.00374 -7.48746,0.43919 -11.15816,-0.20777c-1.09771,-0.19347 -2.76693,-0.18325 -3.25603,-2.59987c-0.23365,-1.15445 0.40281,-2.34659 0.66163,-3.48551c0.57686,-2.53844 1.16196,-7.33593 2.62972,-9.54346c-0.02824,-0.31134 -0.00449,-0.61467 0.09838,-0.90583c1.65489,-4.6838 4.10169,1.56125 4.87685,3.09891l0.00114,0.36187l0.08824,-0.05985l0.43246,1.83308c0.35996,0.72343 0.68816,1.52462 0.99438,2.4404c0.10708,-0.63834 0.21341,-1.1506 0.23989,-1.30059c0.4781,-2.70773 1.27185,-9.33445 3.72179,-8.5401c0.72996,0.23668 0.85558,2.06633 1.21717,3.16721c0.60205,1.83297 1.26398,3.93407 1.7645,5.98312c0.2971,-1.53947 0.63731,-3.03762 0.97488,-4.66968c0.17292,-0.83601 0.13726,-1.88815 0.50628,-2.51537c0.5795,-0.98497 1.34508,-2.21301 2.15695,-2.0113c0.73048,0.18148 1.00751,1.8469 1.4091,2.89727c1.3877,3.62952 1.21967,8.27141 2.44296,11.88746c0,0 0.15726,0.47994 0.15868,1.0766z" data-paper-data="{&quot;index&quot;:null}" fill="#e0f4ff"/><path d="M499.05402,368.87093c-7.65613,0.74789 -516.65889,6.06537 -516.05447,-0.69716c0.98891,-11.06443 3.08111,-4.90925 4,-16c0.49711,-5.99994 1.36637,-11.88026 3.45537,-17.6094c0.86149,-2.36266 1.285,-5.07563 2.98496,-6.92887c2.47366,-2.69671 5.70007,-4.74916 9.05907,-6.20118c1.45916,-0.63076 37.21482,-1.70692 55.75164,-6.53843c6.71997,-1.75152 9.15034,-10.94521 9.72577,-10.97647c3.67856,-0.19985 7.41472,-0.05817 11.1137,-0.0127c0.15024,-2.54295 0.35449,-5.22097 -0.02379,-7.5211c-0.22303,-1.35615 -0.82452,-2.63688 -1,-4c-0.55457,-4.30775 -0.08991,-9.1349 -0.08991,-13.4662c0,-10.81333 0.67001,-20.98692 2.4199,-31.6623c3.36757,-2.6076 6.29761,-5.90933 10.10269,-7.82281c1.93505,-0.97309 4.31407,-0.40859 6.47741,-0.5149c4.51862,-0.22206 9.64421,0.78908 14.07781,0.15495c2.07251,-0.29642 3.82715,-1.7073 5.7947,-2.42277c7.24597,-2.6349 14.98846,-6.60404 22.66129,-7.64227c5.96412,-0.80702 12.43342,-0.08991 18.4662,-0.08991c11.99267,0 23.28593,0.01352 35.08002,2.402c3.80176,1.70423 8.24276,2.40046 11.40527,5.11271c2.86022,2.45299 4.23357,8.75426 5.15643,12.57485c1.02252,4.23319 0.73003,7.60197 1.29989,11.72798c0.37896,2.74379 0.50782,5.51882 0.90345,8.26026c0.15056,1.04328 0.86468,1.95463 1,3c0.33948,2.62253 -0.16416,5.30268 0.11406,7.93242c0.40112,3.79139 2.06484,7.3445 2.88594,11.06758c0.21537,0.97653 -0.12952,2.00842 0,3c0.27306,2.09043 2.35706,3.92227 2,6c-0.1342,0.78089 -1.46441,-0.63516 -2.11014,-1.09434c-1.67061,-1.18798 -3.65245,-2.13856 -4.81272,-3.82853c-0.39311,-0.57257 1.38345,-0.13975 2.07781,-0.15495c2.99928,-0.06566 6,0 9,0c10.7771,0 21.53621,-0.412 32.18245,1.0584c3.47679,0.48019 7.23428,-0.35722 10.73974,0.09655c1.04537,0.13532 1.96058,0.82471 3,1c4.93257,0.83184 10.23606,1.36693 15.26026,1.90345c1.62288,0.1733 3.29721,0.42774 4.89536,0.09655c1.81571,-0.37628 3.52548,-1.63629 5.48557,-1.16331c1.2018,-1.04647 2.50248,-1.98247 3.73813,-2.99112c0.4515,-2.63675 1.50881,-5.18199 1.72868,-7.85119c0.54501,-6.61642 -0.83635,-13.47893 0.12476,-20.07152c0.15207,-1.04307 0.82471,-1.96058 1,-3c0.14107,-0.83647 -0.24621,-1.7153 -0.06504,-2.54401c0.62643,-2.86543 0.81678,-6.02182 2.46769,-8.44619c2.26034,-3.31932 5.33546,-6.23159 8.8502,-8.17417c2.23092,-1.23302 5.05109,-0.71322 7.5922,-0.91345c4.58388,-0.3612 9.40039,0 14,0c2.02659,0 4.06724,0.40931 6.07781,0.15495c3.3582,-0.42485 6.56917,-1.73119 9.93242,-2.11406c5.7579,-0.65548 12.22499,-0.04089 17.98977,-0.04089c13.5312,0 28.3278,2.04603 41.20527,-2.3842c5.43817,-1.81272 12.42438,-4.81383 18.32853,-5.52589c0.72176,-0.08705 1.47266,-0.13756 2.20534,-0.07922c0.71608,-2.30795 1.9607,-4.62439 2.41581,-6.93288c0.39199,-1.98832 48.17838,6.61546 48.17838,4.58886c0,-4.86723 23.65142,136.90321 19.74432,137.28488zM296.76854,296.61061c-0.21666,0.02889 0.10974,0.04058 0.4688,-0.0152c-0.16695,-0.00512 -0.32665,-0.00376 -0.4688,0.0152z" data-paper-data="{&quot;index&quot;:null}" fill="#78878f"/><path d="M304.76153,242.95804c0,-6 6,-6 6,-6h1c3.46709,0 7.63789,0.65122 11.03891,0.07748c2.07881,-0.35069 3.92183,-1.64554 6,-2c0.73264,-0.12497 1.51857,0.41876 2.22239,0.17997c0.84316,-0.28606 1.29655,-1.26915 2.1026,-1.64734c1.48466,-0.69658 3.06632,-1.21403 4.67502,-1.53263c1.05555,-0.20905 2.16275,0.11965 3.22799,-0.03252c1.36056,-0.19436 2.63801,-0.81596 4,-1c7.4822,-1.01105 15.77154,-0.07716 23.32433,-0.01575c6.65512,1.33102 14.84948,1.83708 21.67567,1.01575c2.33385,-0.28081 4.44746,-1.61802 6.77201,-1.96748c3.59756,-0.54084 7.40673,-0.45232 11,-1c2.08412,-0.31766 3.92014,-1.65555 6,-2c4.76106,-0.78849 54.45341,0.94963 59.06373,-0.76958c0,0 10.02543,-0.89737 11.9228,4.79473c1.89737,5.6921 -14.4614,5.9228 -14.4614,5.9228c-3.21314,1.00438 -45.31321,1.38789 -48.60294,1.89709c-1.97646,0.30593 -4.02787,-0.33269 -6,0c-2.07881,0.35069 -3.92383,1.634 -6,2c-3.59026,0.6329 -7.39744,0.52069 -11,1c-2.48091,0.33008 -4.74549,1.71462 -7.22799,2.03252c-7.59494,0.97258 -16.92726,0.49516 -24.32433,-0.98425c-9.25301,0.11216 -18.34418,-0.01451 -27.44768,0.95172c-1.96733,0.20881 -3.34365,2.20008 -5.22239,2.82003c-1.19714,0.39503 -2.53331,-0.0223 -3.77761,0.17997c-2.08087,0.33826 -3.92014,1.65555 -6,2c-4.07427,0.67475 -8.82449,0.07748 -12.96109,0.07748h-1c0,0 -6,0 -6,-6z" data-paper-data="{&quot;index&quot;:null}" fill="#a4cade"/><path d="M79.76157,235.95803c0,-6 6,-6 6,-6h1c9.34297,0 18.84566,0.4902 28.03891,-0.92252c2.62216,-0.40295 5.52971,-1.95474 8.06373,-2.76958c2.54851,-0.81949 5.28054,-0.89337 7.93627,-1.23042c2.09141,-0.26543 3.92014,-1.65555 6,-2c1.30287,-0.21578 2.64073,-0.05165 3.96109,-0.07748c8,0 16,0 24,0c3.53792,0 7.46831,-0.46315 10.96109,0.07748c1.04169,0.16124 1.96025,0.82671 3,1c3.30451,0.55075 6.68638,0.48626 10,1c4.50755,0.69884 9.60575,2.79318 13.93627,4.23042c0,0 5.6921,1.89737 3.79473,7.58947c-1.89737,5.6921 -7.58947,3.79473 -7.58947,3.79473c-8.36387,-2.80198 -16.57249,-4.215 -25.06373,-5.76958c-2.78153,-0.50924 -6.18417,0.07748 -9.03891,0.07748c-8,0 -16,0 -24,0c-3.13068,-0.11897 -4.88594,1.43369 -8.03891,1.92252c-1.31759,0.20428 -2.67728,-0.16787 -4,0c-4.04473,0.51333 -7.94158,3.28971 -12,4c-9.7721,1.71029 -20.02245,1.07748 -29.96109,1.07748h-1c0,0 -6,0 -6,-6z" data-paper-data="{&quot;index&quot;:null}" fill="#a4cade"/><path d="M209.76156,290.95801c0,-6 6,-6 6,-6h1c2.66667,0 5.33333,0 8,0c9.62712,0 19.08216,-0.21681 28.59123,1.0292c3.70717,0.48577 7.64696,-0.39936 11.36987,0.04828c1.04655,0.12584 1.95419,0.86811 3,1c1.71099,0.21578 3.48237,-0.30679 5.17355,0.03079c1.76033,0.35139 3.25472,1.58023 5,2c3.43492,0.82615 7.0795,-0.37671 10.59845,-0.06331c2.10475,0.18745 4.15423,0.99695 6.2669,0.95505c0,0 6,0 6,6c0,6 -6,6 -6,6c-2.60094,-0.03132 -5.14315,-0.80403 -7.7331,-1.04495c-0.60239,-0.05604 -10.22323,0.18181 -11.40155,-0.06331c-1.75743,-0.36559 -3.23994,-1.64728 -5,-2c-1.57749,-0.31612 -3.2298,0.22852 -4.82645,0.03079c-1.0461,-0.12955 -1.95485,-0.86302 -3,-1c-3.46398,-0.45399 -7.14071,0.4663 -10.63013,0.04828c-1.68761,-0.20217 -3.31473,-0.77917 -5,-1c-7.16625,-0.93902 -15.1688,0.0292 -22.40877,0.0292c-2.66667,0 -6.33333,0 -9,0c0,0 -6,0 -6,-6z" data-paper-data="{&quot;index&quot;:null}" fill="#a4cade"/><path d="M-2.23844,311.95803h2c1,0 2,0 3,0c10,0 20,0 30,0c4.75222,0 10.01398,-0.59273 14.7331,0.04495c1.36199,0.18404 22.34876,-16.04495 31.2669,-16.04495c0,0 6,0 6,6c0,6 -6,6 -6,6c-10.94501,0 -21.97124,17.59511 -32.7331,15.95505c-4.17475,-0.63622 -9.04917,0.04495 -13.2669,0.04495c-10,0 -20,0 -30,0c-1,0 -4,0 -5,0c0,0 -6,0 -6,-6c0,-6 6,-6 6,-6z" data-paper-data="{&quot;index&quot;:null}" fill="#a4cade"/><path d="M236.15572,286.00531c0.12729,1.15737 -0.5042,1.92215 -0.5042,1.92215l-1.51133,1.37253c-2.64903,0 -5.30251,0.11879 -7.94529,-0.20127c-3.68968,0.00374 -7.48746,0.43919 -11.15816,-0.20777c-1.09771,-0.19347 -2.76693,-0.18325 -3.25603,-2.59987c-0.23365,-1.15445 0.40281,-2.34659 0.66163,-3.48551c0.57686,-2.53844 1.16196,-7.33593 2.62972,-9.54346c-0.02824,-0.31134 -0.00449,-0.61467 0.09838,-0.90583c1.65489,-4.6838 4.10169,1.56125 4.87685,3.09891l0.00114,0.36187l0.08824,-0.05985l0.43246,1.83308c0.35996,0.72343 0.68816,1.52462 0.99438,2.4404c0.10708,-0.63834 0.21341,-1.1506 0.23989,-1.30059c0.4781,-2.70773 1.27185,-9.33445 3.72179,-8.5401c0.72996,0.23668 0.85558,2.06633 1.21717,3.16721c0.60205,1.83297 1.26398,3.93407 1.7645,5.98312c0.2971,-1.53947 0.63731,-3.03762 0.97488,-4.66968c0.17292,-0.83601 0.13726,-1.88815 0.50628,-2.51537c0.5795,-0.98497 1.34508,-2.21301 2.15695,-2.0113c0.73048,0.18148 1.00751,1.8469 1.4091,2.89727c1.3877,3.62952 1.21967,8.27141 2.44296,11.88746c0,0 0.15726,0.47994 0.15868,1.0766z" data-paper-data="{&quot;index&quot;:null}" fill="#e0f4ff"/><path d="M260.15572,285.50531c0.12729,1.15737 -0.5042,1.92215 -0.5042,1.92215l-1.51133,1.37253c-2.64903,0 -5.30251,0.11879 -7.94529,-0.20127c-3.68968,0.00374 -7.48746,0.43919 -11.15816,-0.20777c-1.09771,-0.19347 -2.76693,-0.18325 -3.25603,-2.59987c-0.23365,-1.15445 0.40281,-2.34659 0.66163,-3.48551c0.57686,-2.53844 1.16196,-7.33593 2.62972,-9.54346c-0.02824,-0.31134 -0.00449,-0.61467 0.09838,-0.90583c1.65489,-4.6838 4.10169,1.56125 4.87685,3.09891l0.00114,0.36187l0.08824,-0.05985l0.43246,1.83308c0.35996,0.72343 0.68816,1.52462 0.99438,2.4404c0.10708,-0.63834 0.21341,-1.1506 0.23989,-1.30059c0.4781,-2.70773 1.27185,-9.33445 3.72179,-8.5401c0.72996,0.23668 0.85558,2.06633 1.21717,3.16721c0.60205,1.83297 1.26398,3.93407 1.7645,5.98312c0.2971,-1.53947 0.63731,-3.03762 0.97488,-4.66968c0.17292,-0.83601 0.13726,-1.88815 0.50628,-2.51537c0.5795,-0.98497 1.34508,-2.21301 2.15695,-2.0113c0.73048,0.18148 1.00751,1.8469 1.4091,2.89727c1.3877,3.62952 1.21967,8.27141 2.44296,11.88746c0,0 0.15726,0.47994 0.15868,1.0766z" data-paper-data="{&quot;index&quot;:null}" fill="#e0f4ff"/></g></g></svg>