<svg version="1.1" xmlns="http://www.w3.org/2000/svg" xmlns:xlink="http://www.w3.org/1999/xlink" width="102.19258" height="22.6743" viewBox="0,0,102.19258,22.6743"><g transform="translate(-195.46853,-269.91842)"><g data-paper-data="{&quot;isPaintingLayer&quot;:true}" fill="#800000" fill-rule="nonzero" stroke="none" stroke-width="0.5" stroke-linecap="butt" stroke-linejoin="miter" stroke-miterlimit="10" stroke-dasharray="" stroke-dashoffset="0" style="mix-blend-mode: normal"><path d="" data-paper-data="{&quot;index&quot;:null}"/><path d="M297.64416,288.6969c0.12729,1.35102 -0.5042,2.24376 -0.5042,2.24376l-1.51133,1.60218c-2.64903,0 -93.18275,0.27773 -96.85345,-0.47748c-1.09771,-0.22584 -2.76693,-0.21391 -3.25603,-3.03487c-0.23365,-1.34761 0.40281,-2.73921 0.66163,-4.06869c0.57686,-2.96316 1.16196,-8.56334 2.62972,-11.14023c-0.02824,-0.36343 -0.00449,-0.71751 0.09838,-1.05739c1.65489,-5.46748 95.73204,-1.59385 96.13363,-0.36774c1.3877,4.2368 1.21967,10.82267 2.44296,15.04374c0,0 0.15726,0.56024 0.15868,1.25673z" data-paper-data="{&quot;index&quot;:null}"/></g></g></svg>