<svg version="1.1" xmlns="http://www.w3.org/2000/svg" xmlns:xlink="http://www.w3.org/1999/xlink" width="230.19258" height="80.6743" viewBox="0,0,230.19258,80.6743"><g transform="translate(-54.33889,-211.91842)"><g data-paper-data="{&quot;isPaintingLayer&quot;:true}" fill="#800000" fill-rule="nonzero" stroke="none" stroke-width="0.5" stroke-linecap="butt" stroke-linejoin="miter" stroke-miterlimit="10" stroke-dasharray="" stroke-dashoffset="0" style="mix-blend-mode: normal"><path d="M54.35585,230.69691c0.00142,-0.69649 0.15868,-1.25673 0.15868,-1.25673c1.22329,-4.22108 1.05526,-10.80695 2.44296,-15.04374c0.40159,-1.22611 91.47874,-5.09973 93.13363,0.36774c0.10287,0.33988 0.12662,0.69396 0.09838,1.05739c1.46776,2.57689 2.05286,8.17707 2.62972,11.14023c0.25882,1.32948 0.89528,2.72108 0.66163,4.06869c-0.4891,2.82096 -2.15832,2.80903 -3.25603,3.03487c-3.6707,0.7552 -91.20442,0.47748 -93.85345,0.47748l-1.51133,-1.60217c0,0 -0.63149,-0.89274 -0.5042,-2.24376z"/><path d="M182.35585,288.69691c0.00142,-0.69649 0.15868,-1.25673 0.15868,-1.25673c1.22329,-4.22107 1.05526,-10.80694 2.44296,-15.04374c0.40159,-1.22611 94.47874,-5.09974 96.13363,0.36774c0.10287,0.33988 0.12662,0.69396 0.09838,1.05739c1.46776,2.57689 2.05286,8.17707 2.62972,11.14023c0.25882,1.32948 0.89528,2.72108 0.66163,4.06869c-0.4891,2.82096 -2.15832,2.80903 -3.25603,3.03487c-3.6707,0.75521 -94.20442,0.47748 -96.85345,0.47748l-1.51133,-1.60218c0,0 -0.63149,-0.89274 -0.5042,-2.24376z"/></g></g></svg>