<svg version="1.1" xmlns="http://www.w3.org/2000/svg" xmlns:xlink="http://www.w3.org/1999/xlink" width="490" height="374" viewBox="0,0,490,374"><g transform="translate(3.5,5.5)"><g data-paper-data="{&quot;isPaintingLayer&quot;:true}" fill-rule="nonzero" stroke-linecap="butt" stroke-linejoin="miter" stroke-miterlimit="10" stroke-dasharray="" stroke-dashoffset="0" style="mix-blend-mode: normal"><path d="M-3.5,368.5v-374h490v374z" fill="#000000" stroke="none" stroke-width="NaN"/><path d="M126.5,210.89919c-0.59705,0.10442 -1,0.10442 -1,0.10442h-2c-3.97767,0 -8.02915,0.21861 -12,0c-1.76924,-0.0974 -3.66048,0.22479 -5.2961,-0.45672c-1.30543,-0.54393 -1.76703,-2.30733 -3,-3c-0.49626,-0.2788 -1.10075,0.45433 -1.66499,0.37925c-1.69263,-0.22523 -3.33259,-0.98736 -5.03891,-0.92252c-6.79059,0 -14.26362,0.95919 -20.96109,-0.07748c-1.04169,-0.16124 -1.958,-0.84082 -3,-1c-3.23628,-0.49439 -6.73037,0.50609 -10,0c-1.04169,-0.16124 -1.96153,-0.8192 -3,-1c-1.24195,-0.21622 -2.57753,0.20603 -3.77761,-0.17997c-1.14412,-0.368 -1.86123,-1.61574 -3,-2c-0.83431,-0.28152 -1.79369,0.34068 -2.63981,0.09694c-1.66479,-0.47956 -3.07858,-1.61031 -4.70316,-2.21218c-4.60507,-1.70609 -8.3129,-2.7044 -11.55838,-6.82338c-3.15353,-4.00228 -3.80971,-8.13169 -5.28247,-12.84284c-0.10336,-6.61876 -0.92433,-14.18678 2.81862,-20.11548c2.55147,-4.04145 7.57524,-6.85603 12.14281,-7.76814c0.98064,-0.19582 2.01361,0.1644 3,0c1.03975,-0.17329 1.9565,-0.85093 3,-1c1.31993,-0.18856 2.67728,0.16787 4,0c2.09141,-0.26543 3.92014,-1.65555 6,-2c3.99067,-0.6609 8.25721,0.57261 12.22799,-0.03252c1.35868,-0.20706 2.63801,-0.81596 4,-1c3.66962,-0.49587 6.19329,0.22543 9.77201,-0.96748c5.98724,-0.0935 11.97323,-0.07748 17.96109,-0.07748c0.65089,0 7.29211,-0.02607 7.96109,0.07748c1.04169,0.16124 1.96025,0.82671 3,1c0.98639,0.1644 2.01936,-0.19582 3,0c4.47425,0.89347 7.56301,4.29231 12,5c1.19924,0.19128 2.50518,-0.2908 3.64051,0.14024c4.77175,1.81163 10.17447,5.88304 14.20233,9.14224c0.53001,0.42886 0.76418,1.18814 1.35045,1.53615c1.07048,0.63543 2.51079,0.56392 3.48758,1.33566c0.94303,0.74508 1.06702,2.24237 2,3c0.67246,0.54608 1.67495,0.44289 2.51242,0.66434c2.02208,1.91436 3.81007,4.07602 5.48567,6.29997c0.91335,1.21224 2.41115,2.07201 2.90322,3.50783c1.82377,5.32156 0.31593,13.64585 -2.43937,18.45049c-0.46902,0.81787 -1.51493,1.19155 -2,2c-0.54233,0.90388 -0.3885,2.14141 -1,3c-1.08008,1.51651 -2.42503,2.88073 -3.94952,3.94952c-1.02241,0.71679 -2.3973,0.73596 -3.51828,1.28599c-1.36232,0.66845 -2.44481,1.91364 -3.8974,2.35266c-1.03132,0.3117 -6.13166,0.25745 -7.7387,0.25745c-4.33333,0 -8.66667,0 -13,0c0,0 -0.40295,0 -1,-0.10442z" fill="#ff0000" stroke="#800000" stroke-width="4"/><path d="M114.5,201.34897c0.06615,-0.0253 0.10263,-0.03746 0.10263,-0.03746c5.24881,-1.64071 12.37135,-0.09766 16.65473,-4.55054c1.1197,-1.16401 3.12813,-4.06205 3.32012,-5.71845c0.09579,-0.82644 -0.03169,-1.73301 0.2656,-2.49738c-0.04812,0.07039 -0.10205,0.12136 -0.14701,0.09853c-1.07157,-0.54424 -2.06737,-1.24194 -3,-2c-0.52906,-0.43003 -0.76418,-1.18814 -1.35045,-1.53615c-1.07048,-0.63543 -2.51079,-0.56392 -3.48758,-1.33566c-0.94303,-0.74508 -1.24074,-2.06835 -2,-3c-0.98121,-1.204 -3.10686,-0.0896 -4.65414,-0.22496c-0.95276,-0.81312 -1.83941,-1.7108 -2.85829,-2.43937c-1.03333,-0.73891 -2.55365,0.02746 -3.80671,-0.18138c-1.03975,-0.17329 -1.96314,-0.81017 -3,-1c-1.65237,-0.30252 -3.36213,0.17878 -5.03891,0.07748c-0.42832,-0.02588 -0.85904,-0.40684 -1.2613,-0.25745c-0.58887,0.21871 -0.88128,0.91134 -1.4105,1.24975c-0.47456,0.30345 -1.19297,0.22234 -1.55996,0.64966c-0.27314,0.31805 0.02737,0.84915 -0.07614,1.2554c-0.71656,2.81226 -1.27114,6.16836 -0.76958,9.14154c0.3499,2.07411 1.22268,3.2354 2.32012,4.71845c0.13907,0.18794 -0.17444,0.64717 0.05346,0.69936c0.97476,0.22326 2.09677,-0.42917 3,0c1.45616,0.69189 4.5006,3.85469 5.94654,5.30064c0.30392,0.37958 0.60783,0.75916 0.91175,1.13874l1.74298,0.41181c0,0 0.03648,0.01216 0.10263,0.03746zM114.5,212.75841c-1.98003,0.57642 -3.89737,-0.0627 -3.89737,-0.0627l-4.25702,-1.58819c-1.02942,-0.95375 -2.05884,-1.90751 -3.08825,-2.86126c-0.66667,-0.66667 -1.42918,-1.24963 -2,-2c-0.14155,-0.18608 0.17444,-0.64717 -0.05346,-0.69936c-0.97476,-0.22326 -2.09677,0.42917 -3,0c-1.54898,-0.736 -2.69603,-2.12707 -3.94654,-3.30064c-5.64755,-5.30004 -6.91333,-14.75596 -5.67988,-22.20373c1.12586,-6.79819 5.40459,-12.59563 12.18382,-14.78146c4.52583,-1.45927 10.32096,0.09022 14.6998,0.82003c3.57419,0.5957 6.87061,0.01063 9.33501,3.37925c2.45618,-0.55946 5.2541,0.37135 7.34586,1.77504c0.99797,0.6697 1.06702,2.24237 2,3c0.67246,0.54608 1.77159,0.21538 2.51242,0.66434c2.05259,1.24388 3.90194,2.81878 5.64955,4.46385c1.39117,1.30955 2.97682,2.59214 3.73934,4.34395c1.60634,3.6904 0.47402,10.46761 -1.15339,13.93221c-3.41598,7.27233 -10.42612,12.88122 -18.4288,14.28642c-3.17785,0.558 -5.09936,-0.33586 -8.06373,0.76958c0,0 -1.91734,0.63911 -3.89737,0.0627z" fill="#000000" stroke="none" stroke-width="0.5"/><path d="M114.38499,201.35995l-1.74962,-0.41401c-0.30392,-0.37958 -0.61257,-0.7614 -0.91648,-1.14098c-1.44594,-1.44594 -4.51201,-4.63175 -5.96817,-5.32364c-0.90323,-0.42917 -2.02678,0.21955 -3.00154,-0.00371c-0.2279,-0.0522 0.08491,-0.51348 -0.05417,-0.70142c-1.09743,-1.48305 -1.9726,-2.65954 -2.32249,-4.73365c-0.50157,-2.97318 0.05936,-6.3537 0.77592,-9.16596c0.10351,-0.40626 -0.1955,-0.93988 0.07765,-1.25793c0.36699,-0.42732 1.08756,-0.34932 1.56211,-0.65276c0.52923,-0.3384 0.8249,-1.03497 1.41377,-1.25367c0.40225,-0.1494 0.83433,0.23016 1.26265,0.25603c1.67678,0.1013 3.39688,-0.38794 5.04925,-0.08542c1.03686,0.18983 1.96834,0.82295 3.00809,0.99624c1.25306,0.20884 2.78944,-0.56048 3.82277,0.17843c1.01887,0.72857 1.9214,1.62854 2.87416,2.44167c1.54728,0.13536 3.6911,-0.96876 4.67231,0.23525c0.75926,0.93165 1.06735,2.26777 2.01038,3.01285c0.97678,0.77174 2.42136,0.71016 3.49183,1.34559c0.58628,0.34801 0.82289,1.11245 1.35195,1.54248c0.93263,0.75806 1.92912,1.46295 3.00068,2.00718c0.04496,0.02284 0.09889,-0.02841 0.147,-0.0988c-0.29729,0.76438 -0.17014,1.67821 -0.26593,2.50465c-0.19199,1.6564 -2.20651,4.57313 -3.32621,5.73713c-4.28337,4.45288 -11.46109,2.93392 -16.7099,4.57463c0,0 -0.03683,0.01208 -0.10298,0.03737c-0.06615,-0.0253 -0.10305,-0.03756 -0.10305,-0.03756z" data-paper-data="{&quot;noHover&quot;:false,&quot;origItem&quot;:[&quot;Path&quot;,{&quot;applyMatrix&quot;:true,&quot;segments&quot;:[[[115.5,283.84536],[-0.06615,-0.0253],[0.06615,-0.0253]],[[115.60263,283.8079],[0,0],[5.24881,-1.64071]],[[132.25736,279.25736],[-4.28337,4.45288],[1.1197,-1.16401]],[[135.57748,273.53891],[-0.19199,1.6564],[0.09579,-0.82644]],[[135.84308,271.04152],[-0.29729,0.76438],[-0.04812,0.07039]],[[135.69607,271.14005],[0.04496,0.02284],[-1.07157,-0.54424]],[[132.69607,269.14005],[0.93263,0.75806],[-0.52906,-0.43003]],[[131.34561,267.6039],[0.58628,0.34801],[-1.07048,-0.63543]],[[127.85804,266.26824],[0.97678,0.77174],[-0.94303,-0.74508]],[[125.85804,263.26824],[0.75926,0.93165],[-0.98121,-1.204]],[[121.2039,263.04328],[1.54728,0.13536],[-0.95276,-0.81312]],[[118.34561,260.6039],[1.01887,0.72857],[-1.03333,-0.73891]],[[114.53891,260.42252],[1.25306,0.20884],[-1.03975,-0.17329]],[[111.53891,259.42252],[1.03686,0.18983],[-1.65237,-0.30252]],[[106.5,259.5],[1.67678,0.1013],[-0.42832,-0.02588]],[[105.2387,259.24255],[0.40225,-0.1494],[-0.58887,0.21871]],[[103.8282,260.4923],[0.52923,-0.3384],[-0.47456,0.30345]],[[102.26824,261.14196],[0.36699,-0.42732],[-0.27314,0.31805]],[[102.1921,262.39737],[0.10351,-0.40626],[-0.71656,2.81226]],[[101.42252,271.53891],[-0.50157,-2.97318],[0.3499,2.07411]],[[103.74264,276.25736],[-1.09743,-1.48305],[0.13907,0.18794]],[[103.7961,276.95672],[-0.2279,-0.0522],[0.97476,0.22326]],[[106.7961,276.95672],[-0.90323,-0.42917],[1.45616,0.69189]],[[112.74264,282.25736],[-1.44594,-1.44594],[0.30392,0.37958]],[[113.65439,283.3961],[-0.30392,-0.37958],[0,0]],[115.39737,283.8079]],&quot;closed&quot;:true}]}" fill="#ffffff" stroke="none" stroke-width="0.5"/><path d="M353.5,209.89921c-0.59705,0.10442 -1,0.10442 -1,0.10442c-4.33333,0 -8.66667,0 -13,0c-1.60704,0 -6.70738,0.05425 -7.7387,-0.25745c-1.45259,-0.43902 -2.53508,-1.68421 -3.8974,-2.35266c-1.12098,-0.55003 -2.49587,-0.5692 -3.51828,-1.28599c-1.52449,-1.06879 -2.86944,-2.43301 -3.94952,-3.94952c-0.6115,-0.85859 -0.45767,-2.09612 -1,-3c-0.48507,-0.80845 -1.53098,-1.18213 -2,-2c-2.7553,-4.80464 -4.26314,-13.12893 -2.43937,-18.45049c0.49207,-1.43582 1.98987,-2.29559 2.90322,-3.50783c1.6756,-2.22395 3.46359,-4.38561 5.48567,-6.29997c0.83747,-0.22145 1.83996,-0.11826 2.51242,-0.66434c0.93298,-0.75763 1.05697,-2.25492 2,-3c0.97679,-0.77174 2.4171,-0.70023 3.48758,-1.33566c0.58627,-0.34801 0.82044,-1.10729 1.35045,-1.53615c4.02786,-3.2592 9.43058,-7.33061 14.20233,-9.14224c1.13533,-0.43104 2.44127,0.05104 3.64051,-0.14024c4.43699,-0.70769 7.52575,-4.10653 12,-5c0.98064,-0.19582 2.01361,0.1644 3,0c1.03975,-0.17329 1.95831,-0.83876 3,-1c0.66898,-0.10355 7.3102,-0.07748 7.96109,-0.07748c5.98786,0 11.97385,-0.01602 17.96109,0.07748c3.57872,1.19291 6.10239,0.47161 9.77201,0.96748c1.36199,0.18404 2.64132,0.79294 4,1c3.97078,0.60513 8.23732,-0.62838 12.22799,0.03252c2.07986,0.34445 3.90859,1.73457 6,2c1.32272,0.16787 2.68007,-0.18856 4,0c1.0435,0.14907 1.96025,0.82671 3,1c0.98639,0.1644 2.01936,-0.19582 3,0c4.56757,0.91211 9.59134,3.72669 12.14281,7.76814c3.74295,5.9287 2.92198,13.49672 2.81862,20.11548c-1.47276,4.71115 -2.12894,8.84056 -5.28247,12.84284c-3.24548,4.11898 -6.95331,5.11729 -11.55838,6.82338c-1.62458,0.60187 -3.03837,1.73262 -4.70316,2.21218c-0.84612,0.24374 -1.8055,-0.37846 -2.63981,-0.09694c-1.13877,0.38426 -1.85588,1.632 -3,2c-1.20008,0.386 -2.53566,-0.03625 -3.77761,0.17997c-1.03847,0.1808 -1.95831,0.83876 -3,1c-3.26963,0.50609 -6.76372,-0.49439 -10,0c-1.042,0.15918 -1.95831,0.83876 -3,1c-6.69747,1.03667 -14.1705,0.07748 -20.96109,0.07748c-1.70632,-0.06484 -3.34628,0.69729 -5.03891,0.92252c-0.56424,0.07508 -1.16873,-0.65805 -1.66499,-0.37925c-1.23297,0.69267 -1.69457,2.45607 -3,3c-1.63562,0.68151 -3.52686,0.35932 -5.2961,0.45672c-3.97085,0.21861 -8.02233,0 -12,0h-2c0,0 -0.40295,0 -1,-0.10442z" data-paper-data="{&quot;index&quot;:null}" fill="#ff0000" stroke="#800000" stroke-width="4"/><path d="M365.50001,200.34899c0.06615,-0.0253 0.10263,-0.03746 0.10263,-0.03746l1.74298,-0.41181c0.30392,-0.37958 0.60783,-0.75916 0.91175,-1.13874c1.44594,-1.44595 4.49038,-4.60875 5.94654,-5.30064c0.90323,-0.42917 2.02524,0.22326 3,0c0.2279,-0.05219 -0.08561,-0.51142 0.05346,-0.69936c1.09744,-1.48305 1.97022,-2.64434 2.32012,-4.71845c0.50156,-2.97318 -0.05302,-6.32928 -0.76958,-9.14154c-0.10351,-0.40625 0.197,-0.93735 -0.07614,-1.2554c-0.36699,-0.42732 -1.0854,-0.34621 -1.55996,-0.64966c-0.52922,-0.33841 -0.82163,-1.03104 -1.4105,-1.24975c-0.40226,-0.14939 -0.83298,0.23157 -1.2613,0.25745c-1.67678,0.1013 -3.38654,-0.38 -5.03891,-0.07748c-1.03686,0.18983 -1.96025,0.82671 -3,1c-1.25306,0.20884 -2.77338,-0.55753 -3.80671,0.18138c-1.01888,0.72857 -1.90553,1.62625 -2.85829,2.43937c-1.54728,0.13536 -3.67293,-0.97904 -4.65414,0.22496c-0.75926,0.93165 -1.05697,2.25492 -2,3c-0.97679,0.77174 -2.4171,0.70023 -3.48758,1.33566c-0.58627,0.34801 -0.82139,1.10612 -1.35045,1.53615c-0.93263,0.75806 -1.92843,1.45576 -3,2c-0.04496,0.02283 -0.09889,-0.02814 -0.14701,-0.09853c0.29729,0.76437 0.16981,1.67094 0.2656,2.49738c0.19199,1.6564 2.20042,4.55444 3.32012,5.71845c4.28338,4.45288 11.40592,2.90983 16.65473,4.55054c0,0 0.03648,0.01216 0.10263,0.03746zM365.50001,211.75844c-1.98003,0.57641 -3.89737,-0.0627 -3.89737,-0.0627c-2.96437,-1.10544 -4.88588,-0.21158 -8.06373,-0.76958c-8.00268,-1.4052 -15.01282,-7.01409 -18.4288,-14.28642c-1.62741,-3.4646 -2.75973,-10.24181 -1.15339,-13.93221c0.76252,-1.75181 2.34817,-3.0344 3.73934,-4.34395c1.74761,-1.64507 3.59696,-3.21997 5.64955,-4.46385c0.74083,-0.44896 1.83996,-0.11826 2.51242,-0.66434c0.93298,-0.75763 1.00203,-2.3303 2,-3c2.09176,-1.40369 4.88968,-2.3345 7.34586,-1.77504c2.4644,-3.36862 5.76082,-2.78355 9.33501,-3.37925c4.37884,-0.72981 10.17397,-2.2793 14.6998,-0.82003c6.77923,2.18583 11.05796,7.98327 12.18382,14.78146c1.23345,7.44777 -0.03233,16.90369 -5.67988,22.20373c-1.25051,1.17357 -2.39756,2.56464 -3.94654,3.30064c-0.90323,0.42917 -2.02524,-0.22326 -3,0c-0.2279,0.05219 0.08809,0.51328 -0.05346,0.69936c-0.57082,0.75037 -1.33333,1.33333 -2,2c-1.02941,0.95375 -2.05883,1.90751 -3.08825,2.86126l-4.25702,1.58819c0,0 -1.91734,0.63912 -3.89737,0.0627z" data-paper-data="{&quot;index&quot;:null}" fill="#000000" stroke="none" stroke-width="0.5"/><path d="M365.61503,200.35994c0,0 -0.0369,0.01226 -0.10305,0.03756c-0.06615,-0.02529 -0.10298,-0.03737 -0.10298,-0.03737c-5.24881,-1.64071 -12.42653,-0.12175 -16.7099,-4.57463c-1.1197,-1.164 -3.13422,-4.08073 -3.32621,-5.73713c-0.09579,-0.82644 0.03136,-1.74027 -0.26593,-2.50465c0.04811,0.07039 0.10204,0.12164 0.147,0.0988c1.07156,-0.54423 2.06805,-1.24912 3.00068,-2.00718c0.52906,-0.43003 0.76567,-1.19447 1.35195,-1.54248c1.07047,-0.63543 2.51505,-0.57385 3.49183,-1.34559c0.94303,-0.74508 1.25112,-2.0812 2.01038,-3.01285c0.98121,-1.20401 3.12503,-0.09989 4.67231,-0.23525c0.95276,-0.81313 1.85529,-1.7131 2.87416,-2.44167c1.03333,-0.73891 2.56971,0.03041 3.82277,-0.17843c1.03975,-0.17329 1.97123,-0.80641 3.00809,-0.99624c1.65237,-0.30252 3.37247,0.18672 5.04925,0.08542c0.42832,-0.02587 0.8604,-0.40543 1.26265,-0.25603c0.58887,0.2187 0.88454,0.91527 1.41377,1.25367c0.47455,0.30344 1.19512,0.22544 1.56211,0.65276c0.27315,0.31805 -0.02586,0.85167 0.07765,1.25793c0.71656,2.81226 1.27749,6.19278 0.77592,9.16596c-0.34989,2.07411 -1.22506,3.2506 -2.32249,4.73365c-0.13908,0.18794 0.17373,0.64922 -0.05417,0.70142c-0.97476,0.22326 -2.09831,-0.42546 -3.00154,0.00371c-1.45616,0.69189 -4.52223,3.8777 -5.96817,5.32364c-0.30391,0.37958 -0.61256,0.7614 -0.91648,1.14098l-1.74962,0.41401z" data-paper-data="{&quot;noHover&quot;:false,&quot;origItem&quot;:[&quot;Path&quot;,{&quot;applyMatrix&quot;:true,&quot;segments&quot;:[[[115.5,283.84536],[-0.06615,-0.0253],[0.06615,-0.0253]],[[115.60263,283.8079],[0,0],[5.24881,-1.64071]],[[132.25736,279.25736],[-4.28337,4.45288],[1.1197,-1.16401]],[[135.57748,273.53891],[-0.19199,1.6564],[0.09579,-0.82644]],[[135.84308,271.04152],[-0.29729,0.76438],[-0.04812,0.07039]],[[135.69607,271.14005],[0.04496,0.02284],[-1.07157,-0.54424]],[[132.69607,269.14005],[0.93263,0.75806],[-0.52906,-0.43003]],[[131.34561,267.6039],[0.58628,0.34801],[-1.07048,-0.63543]],[[127.85804,266.26824],[0.97678,0.77174],[-0.94303,-0.74508]],[[125.85804,263.26824],[0.75926,0.93165],[-0.98121,-1.204]],[[121.2039,263.04328],[1.54728,0.13536],[-0.95276,-0.81312]],[[118.34561,260.6039],[1.01887,0.72857],[-1.03333,-0.73891]],[[114.53891,260.42252],[1.25306,0.20884],[-1.03975,-0.17329]],[[111.53891,259.42252],[1.03686,0.18983],[-1.65237,-0.30252]],[[106.5,259.5],[1.67678,0.1013],[-0.42832,-0.02588]],[[105.2387,259.24255],[0.40225,-0.1494],[-0.58887,0.21871]],[[103.8282,260.4923],[0.52923,-0.3384],[-0.47456,0.30345]],[[102.26824,261.14196],[0.36699,-0.42732],[-0.27314,0.31805]],[[102.1921,262.39737],[0.10351,-0.40626],[-0.71656,2.81226]],[[101.42252,271.53891],[-0.50157,-2.97318],[0.3499,2.07411]],[[103.74264,276.25736],[-1.09743,-1.48305],[0.13907,0.18794]],[[103.7961,276.95672],[-0.2279,-0.0522],[0.97476,0.22326]],[[106.7961,276.95672],[-0.90323,-0.42917],[1.45616,0.69189]],[[112.74264,282.25736],[-1.44594,-1.44594],[0.30392,0.37958]],[[113.65439,283.3961],[-0.30392,-0.37958],[0,0]],[115.39737,283.8079]],&quot;closed&quot;:true}],&quot;index&quot;:null}" fill="#ffffff" stroke="none" stroke-width="0.5"/></g></g></svg>