<svg version="1.1" xmlns="http://www.w3.org/2000/svg" xmlns:xlink="http://www.w3.org/1999/xlink" width="497" height="364" viewBox="0,0,497,364"><g transform="translate(11.68791,0.79203)"><g data-paper-data="{&quot;isPaintingLayer&quot;:true}" fill-rule="nonzero" stroke-linejoin="miter" stroke-miterlimit="10" stroke-dasharray="" stroke-dashoffset="0" style="mix-blend-mode: normal"><path d="M-11.68791,363.20797v-364h497v364z" fill="#0b0b0b" stroke="none" stroke-width="0" stroke-linecap="butt"/><path d="M207,332.00001v-304h66v304z" fill="#181f00" stroke="none" stroke-width="0" stroke-linecap="butt"/><path d="M105.5,287.00001v-214h65v214z" fill="#181f00" stroke="none" stroke-width="0" stroke-linecap="butt"/><path d="M309.5,287.00001v-214h65v214z" fill="#181f00" stroke="none" stroke-width="0" stroke-linecap="butt"/><path d="M114.5,279.50001v-199h47v199z" fill="none" stroke="#0e0b00" stroke-width="6" stroke-linecap="butt"/><path d="M318.5,279.50001v-199h47v199z" fill="none" stroke="#0e0b00" stroke-width="6" stroke-linecap="butt"/><path d="M216.5,322.50001v-284h47v284z" fill="none" stroke="#0e0b00" stroke-width="6" stroke-linecap="butt"/><path d="M138,180c0,-56.33304 45.66696,-102 102,-102c56.33304,0 102,45.66696 102,102c0,56.33304 -45.66696,102 -102,102c-56.33304,0 -102,-45.66696 -102,-102z" fill="#181f00" stroke="none" stroke-width="0" stroke-linecap="butt"/><path d="M147,180c0,-51.36248 41.63752,-93 93,-93c51.36248,0 93,41.63752 93,93c0,51.36248 -41.63752,93 -93,93c-51.36248,0 -93,-41.63752 -93,-93z" fill="none" stroke="#0e0b00" stroke-width="6" stroke-linecap="butt"/><path d="M84.77656,229.43179c-1.97112,-2.67128 -5.46867,-9.1902 1.05025,-15.70912c8.48528,-8.48528 16.97056,0 16.97056,0l3.89892,5.69055c0.0118,0.04542 0.02875,0.09395 0.04946,0.14474c0.31972,0.12243 0.63937,0.29993 0.87512,0.44218c1.17749,0.71051 1.95582,1.95178 3.07617,2.74934c1.58341,1.12721 3.4601,1.81405 5,3c2.38188,1.8344 3.50482,3.22598 4.74883,5.04603c7.28792,-1.39791 15.36674,0.68354 22.36572,5.14807c4.10803,2.62044 7.67143,7.02345 10.18845,11.27009c3.53755,-4.00572 9.31205,-4.00572 9.31205,-4.00572c2.15914,0.17163 4.39478,-0.08006 6.47741,0.5149c1.76453,0.50409 3.14321,1.9054 4.79481,2.70532c1.29955,0.62941 2.82292,0.78961 4.03656,1.57197c3.67775,2.37084 5.44328,5.70524 8.17651,8.72253c1.99509,2.20243 7.30251,3.15595 9,5c1.21745,1.32256 1.92879,2.99632 2.60883,4.6918c1.78262,2.18851 6.4363,9.23364 -0.60883,16.27877c-8.48528,8.48528 -16.97056,0 -16.97056,0l-1.87621,-2.73837c-1.18722,-0.44715 -2.21281,-1.2315 -3.24106,-1.99976c0.96372,1.94633 1.94543,3.86025 3.01673,5.67143c1.36144,2.30171 4.48902,2.92166 6.58583,4.58142c0.6858,0.54286 1.43046,1.13416 2.20737,1.76949c2.9662,1.84917 5.51671,4.30266 7.47928,7.18823c3.05437,3.71062 5.16571,7.96962 4.2624,12.43307c0.0338,0.53205 0.05096,1.06863 0.05096,1.60921c0,7.3781 -3.19613,14.00969 -8.27938,18.58579c-1.16535,1.54035 -2.56413,2.84072 -4.31743,3.77489c-3.775,2.01134 -8.30087,2.83574 -12.79001,2.63639c-3.30622,-0.05015 -6.45683,-0.74211 -9.33274,-1.9568c-1.21569,-0.47884 -2.3765,-1.0402 -3.46078,-1.67958c-1.97802,-1.16642 -3.67744,-2.79502 -5.46195,-4.22464c-2.4965,1.58106 -5.29237,2.73202 -8.28344,3.34867c-6.23456,1.40114 -13.04937,0.46785 -19.0497,-3.52158c-3.3889,-2.25317 -7.4165,-5.40629 -10.11833,-8.51001c-0.55396,-0.63636 -0.61968,-1.63591 -1.24236,-2.20521c-4.28664,-3.91916 -9.11946,-7.72938 -12.75651,-12.23692c-2.84189,-3.52207 -4.29894,-8.6687 -7.29896,-11.89246c-1.03056,-1.10742 -2.86738,-1.09613 -4.06155,-2.02479c-2.97022,-2.30985 -5.55504,-7.02741 -7.82569,-9.50655c-5.80883,-6.34219 -9.84789,-9.1969 -12.05164,-18.09334c-0.18385,-0.7422 0.38301,-1.48707 0.45501,-2.2483c0.84836,-8.96954 1.04423,-18.9804 10.42232,-24.33931c1.50657,-0.8609 3.05584,-1.5795 4.63368,-2.1558c-1.36113,-1.79269 -1.94025,-3.29646 -2.71608,-5.52662z" fill="#0b0b0b" stroke="none" stroke-width="0.5" stroke-linecap="butt"/><path d="M350.57897,111.84139c2.07254,-4.14508 4.94548,-5.88894 7.69149,-6.46805c-2.96288,-2.79529 -5.91377,-5.61148 -9.02768,-8.14933c-8.29644,7.58874 -16.41596,-0.53078 -16.41596,-0.53078l-1,-1c-0.68767,-0.68767 -0.93745,-1.87659 -1.82349,-2.27747c-4.57093,-2.06809 -8.30103,-4.2683 -12.17651,-7.72253c0,0 -8.48528,-8.48528 0,-16.97056c2.88289,-2.88289 5.76577,-3.80684 8.31588,-3.77019c-0.69383,-6.69065 0.18107,-13.63962 4.02843,-18.09445c0.90746,-1.43405 1.9568,-2.76939 3.1283,-3.98631c4.54801,-4.72434 10.93707,-7.66376 18.01267,-7.66376c3.13655,0 6.13819,0.57762 8.90435,1.63228c1.99787,0.44467 3.89822,1.0954 5.54877,2.27397c2.75875,1.96987 4.50064,4.14255 5.85156,6.50563c1.87475,2.60481 3.26065,5.58499 4.02334,8.8062c0.69791,1.52477 8.31636,6.68825 9.67197,7.78192c3.82053,3.08231 7.12126,8.54565 11.75211,10.56506c4.91513,2.14338 9.08052,3.09672 13.02391,7.63534c2.48248,2.8572 5.06344,6.04708 5.80574,9.75859c3.64563,18.22813 -7.12613,30.43781 -23.13228,31.63802c0.17345,0.25354 0.3509,0.50328 0.53512,0.74659c0,0 6.6564,9.9846 -3.3282,16.64101c-1.46042,0.97361 -2.84964,1.59121 -4.15723,1.9361c1.46853,1.01597 2.65115,2.40416 3.98611,3.59401c0,0 8.05454,8.05454 0.62131,16.31617c0.26551,0.59139 0.47628,1.22674 0.66833,1.87795c1.00613,1.77862 1.80063,3.69276 2.34931,5.70821c0.2943,0.32838 0.63324,0.62253 1.02866,0.87322c4.89851,3.10564 11.20533,4.17518 16.34711,6.83472c3.31541,1.71487 5.38386,5.79011 8.60911,7.47871c6.49665,3.40136 16.46872,10.65689 19.98464,16.94317c7.57079,13.53618 7.08768,30.81326 -8.91341,38.8138c-4.4637,2.23185 -9.69132,3.2466 -14.6742,2.96978c-6.76644,-0.37591 -16.35612,-7.96349 -20.59989,-12.87733c-0.32385,-0.37498 -0.43724,-2.07087 -0.96539,-2.53184c-1.9156,-1.67196 -4.90534,-2.42609 -6.91629,-3.95814c-1.5978,-1.21729 -2.99556,-2.75472 -4.56931,-3.99041c-1.30615,-1.02557 -3.59955,-0.82505 -5.11195,-1.60733c-7.03783,-3.64026 -13.0616,-7.05263 -18.77072,-12.60408c-3.98608,-3.87599 -10.16803,-6.79037 -12.44759,-12.26132c-1.2367,-2.96809 -2.68233,-5.88505 -3.45546,-9.00614c-0.18385,-0.7422 0.38301,-1.48707 0.45501,-2.2483c0.85297,-9.01832 0.64038,-20.00301 10.05528,-25.60428c1.31642,-1.07707 2.7447,-2.02252 4.26478,-2.81625c0.89221,-0.56378 1.81628,-1.09285 2.74985,-1.50164l-2.92759,-2.95682c0,0 -5.36656,-10.73313 5.36656,-16.09969c0.49227,-0.24614 0.97326,-0.45841 1.44295,-0.6394c-2.24325,-0.70817 -4.29288,-1.93607 -6.44295,-2.89435l-2,-1c0,0 -10.73313,-5.36656 -5.36656,-16.09969zM365.71989,131.29451c-0.19606,-0.05776 -0.37279,0.0969 -0.54824,0.26432c0.21233,-0.0681 0.42221,-0.12976 0.62967,-0.18525c-0.01053,-0.03783 -0.03558,-0.06556 -0.08143,-0.07907z" fill="#0b0b0b" stroke="none" stroke-width="0.5" stroke-linecap="butt"/><path d="M88.82681,89.72267c6.78152,-6.78152 13.56303,-2.72333 16.01295,-0.82023c0.92703,0.3659 1.85407,0.7318 2.7811,1.0977c0.53454,0.58847 0.89009,1.41482 1.60361,1.76541c0.89131,0.43795 2.02621,0.08471 2.94226,0.46823c1.24878,0.52282 2.20925,1.58386 3.41757,2.19439c1.28878,0.65118 2.82292,0.78961 4.03656,1.57197c1.00717,0.64927 9.69735,8.29377 10.22771,8.92389c0.38623,0.45888 -0.40091,1.31135 -0.0512,1.79864c0.21292,0.29668 0.4963,-0.88471 0.82349,-0.72253c1.05121,0.52107 1.2866,2.36422 2.44826,2.52882c1.60772,0.22781 3.3814,-0.1309 4.83517,0.59243c3.37124,1.67738 6.09794,4.42616 9.01567,6.80645c1.05657,0.86196 1.53166,2.37075 2.70091,3.0723c1.67177,1.00306 3.89557,1.25279 5.17651,2.72253c1.88839,2.16672 2.59928,5.12703 3.89892,7.69055c0,0 2.07508,6.22524 -1.44717,11.00332c3.42207,3.40194 6.81912,6.78118 10.21866,10.0503c5.75862,5.53771 14.46808,9.22976 18.80001,15.92436c0.9694,1.49812 4.71965,6.15815 4.59026,8.39483l1.45405,8.42192c-0.02042,2.70067 -0.4676,5.39357 -1.2952,7.96379c-3.4821,10.81413 -13.69872,19.45639 -27.19866,17.36666c-8.3551,-1.29333 -18.08356,-9.7821 -25.82334,-17.09226c-8.20953,7.20564 -16.16808,-0.75292 -16.16808,-0.75292l-2,-2c-0.68767,-0.68767 -0.98957,-1.77712 -1.82349,-2.27747c-1.67177,-1.00306 -3.75536,-1.38789 -5.17651,-2.72253c-0.96038,-0.90192 -0.74661,-2.60258 -1.58017,-3.62286c-0.22947,-0.28087 -0.62891,0.66968 -0.95767,0.5165c-1.67201,-0.77902 -3.13719,-1.95553 -4.58475,-3.09882c-1.07007,-0.84515 -1.43261,-2.57156 -2.70091,-3.0723c-4.02826,-1.59039 -7.04089,-3.67691 -10.17651,-6.72253c0,0 -8.25104,-8.25104 -0.34406,-16.61676c-4.21069,-2.48651 -8.53408,-4.80483 -12.66534,-7.33795c-1.49814,-0.9186 -3.54574,-0.67687 -5.00532,-1.65557c-8.65911,-5.80621 -12.5,-10.19912 -12.5,-21.875c0,-4.99056 1.43024,-10.1201 3.90625,-14.45312c4.12255,-7.21447 11.51435,-9.96952 19.1298,-10.25129c0.46208,-1.85703 1.51675,-3.81895 3.47866,-5.78086z" fill="#0b0b0b" stroke="none" stroke-width="0.5" stroke-linecap="butt"/><path d="M228.31209,237.20795c0,-6.62742 5.37258,-12 12,-12c6.62742,0 12,5.37258 12,12c0,6.62742 -5.37258,12 -12,12c-6.62742,0 -12,-5.37258 -12,-12z" fill="#01ff00" stroke="none" stroke-width="0.5" stroke-linecap="butt"/><path d="M282.31209,213.20795c0,-6.62742 5.37258,-12 12,-12c6.62742,0 12,5.37258 12,12c0,6.62742 -5.37258,12 -12,12c-6.62742,0 -12,-5.37258 -12,-12z" fill="#aeff00" stroke="none" stroke-width="0.5" stroke-linecap="butt"/><path d="M280.31209,152.20795c0,-6.62742 5.37258,-12 12,-12c6.62742,0 12,5.37258 12,12c0,6.62742 -5.37258,12 -12,12c-6.62742,0 -12,-5.37258 -12,-12z" fill="#ffaf00" stroke="none" stroke-width="0.5" stroke-linecap="butt"/><path d="M179.31209,213.20795c0,-6.62742 5.37258,-12 12,-12c6.62742,0 12,5.37258 12,12c0,6.62742 -5.37258,12 -12,12c-6.62742,0 -12,-5.37258 -12,-12z" fill="#00b2ff" stroke="none" stroke-width="0.5" stroke-linecap="butt"/><path d="M183.31209,149.20795c0,-6.62742 5.37258,-12 12,-12c6.62742,0 12,5.37258 12,12c0,6.62742 -5.37258,12 -12,12c-6.62742,0 -12,-5.37258 -12,-12z" fill="#a800ff" stroke="none" stroke-width="0.5" stroke-linecap="butt"/><path d="M289.07303,331.86407l1.23906,3.34389c0,0 0,12 -12,12c-6.52525,0 -9.50226,-3.54824 -10.86046,-6.78586c-4.13688,-1.0954 -8.86613,-3.59889 -12.08118,-6.21801c-1.12043,-0.91275 -1.52721,-2.48357 -2.54365,-3.51086c-1.5012,-1.51722 -3.46896,-2.5129 -5,-4c0,0 -8.48528,-8.48528 0,-16.97056c6.96677,-6.96677 13.93354,-2.49352 16.20395,-0.66935c0.16004,-0.39607 0.34227,-0.80005 0.54821,-1.21193c0.76024,-1.52049 1.62819,-2.71788 2.55806,-3.6532c-1.21232,-2.05174 -2.04895,-4.21989 -2.21259,-6.4563c-0.40079,-1.77704 -0.61234,-3.62579 -0.61234,-5.52394c0,-3.39145 0.67532,-6.62518 1.89881,-9.57404c-0.21662,-0.10379 -0.44492,-0.13201 -0.69355,-0.04176l-3,-1c0,0 -11.3842,-3.79473 -7.58947,-15.17893c1.52541,-4.57622 4.27717,-6.6997 7.02287,-7.6029c-1.11717,-2.10691 -1.82161,-4.45314 -1.96913,-7.10851c-0.27683,-4.98288 0.73793,-10.2105 2.96978,-14.6742c6.94396,-13.88791 19.06423,-15.36329 31.41615,-11.99113c-0.55881,-2.25095 -0.39482,-4.98265 1.2114,-8.19509c5.36656,-10.73313 16.09969,-5.36656 16.09969,-5.36656l5.11872,3.24784c1.62489,1.62489 4.72302,4.64652 5.72253,6.17651c0.37397,0.57246 -0.08997,1.4842 0.32867,2.02485c0.33249,0.42938 0.76339,0.77832 1.22356,1.10113c4.3112,-2.31953 9.61829,-3.48741 15.73381,-3.14766c9.14835,0.50824 8.64829,3.06764 13.0636,7.02107c1.04185,0.93286 2.70041,0.7919 3.94255,1.43438c5.57427,2.88324 13.62174,6.90758 18.47542,10.91186c4.99454,4.1205 9.19565,10.74356 14.48546,14.24273c2.79348,1.84787 6.00172,2.57983 9.03912,3.84541c2.75247,1.14686 5.79234,5.07145 7.90798,6.82962c8.08844,6.72174 11.66705,9.21354 15.12456,19.58607l1.46745,8.45931c-0.22535,2.87742 -0.59062,5.33051 -1.12866,7.44935c-0.98688,3.88638 -2.55503,6.64822 -4.90727,8.84132c-4.58483,5.33233 -11.38008,8.70933 -18.96407,8.70933c-0.91608,0.30517 -1.88801,0.40499 -2.87116,0.36908c-2.04197,3.22044 -4.79993,5.94207 -8.05001,7.94102c-2.63473,2.20621 -6.19551,3.53348 -11.68129,3.84566c-3.83741,0.21838 -7.31006,-0.48253 -10.51443,-1.77841c-1.39396,13.41919 -10.02597,23.62265 -24.88311,23.62265c-4.99056,0 -9.95143,-1.75208 -14.45312,-3.90625c-2.58678,-1.23784 -3.50791,-4.65789 -5.85946,-6.29919c-4.02055,-2.80621 -8.76908,-3.86494 -12.66284,-6.83142c-3.0375,-2.31413 -5.82592,-5.89364 -9.22118,-7.61059c-0.82356,-0.41647 -1.64647,-0.828 -2.46733,-1.23786c-1.84472,3.2749 -4.22664,4.86842 -6.57513,5.54141z" fill="#0b0b0b" stroke="none" stroke-width="0.5" stroke-linecap="butt"/><path d="M261.67865,94.94108c-0.65481,0.3274 -1.28964,0.59488 -1.9045,0.80854c0.2461,0.99184 0.52156,1.96934 0.93361,2.88045c3.28729,7.26872 8.2672,11.00626 5.73976,20.27352c-2.41572,8.85762 -7.32049,14.82931 -13.45585,17.87202c1.76091,3.22378 3.15261,8.5707 -2.19431,13.91763c-8.48528,8.48528 -16.97056,0 -16.97056,0l-1,-1c-2.88725,-2.88725 -6.24666,-5.69221 -8.79482,-8.87741c-0.43985,-0.54981 -0.59012,-1.30676 -0.99545,-1.87344c-8.61594,7.25519 -20.62906,8.73278 -30.69987,2.22871c-5.54666,-3.58222 -10.82814,-12.6828 -14.53676,-18.30544c-3.54517,-5.37483 -7.59883,-10.01958 -11.6514,-15.01838c-4.71977,-5.82179 -8.69602,-12.6729 -14.03528,-18.03847c-10.94732,-11.00127 -25.79163,-19.68014 -32.93689,-33.97067l-2.86424,-11.63018c0.0957,-12.6552 9.14286,-22.06141 19.92573,-24.48472c6.23456,-1.40114 13.04937,-0.46785 19.0497,3.52158c2.35853,1.56811 5.6857,5.28096 8.77072,8.79328c3.3324,-5.36652 8.64066,-9.37793 14.90825,-11.01772c1.28334,-1.23711 1.9836,-1.00809 3.32548,-0.83629c3.38427,-8.44317 10.33999,-14.66125 19.32449,-17.11157c3.65164,-0.9959 7.659,-0.11398 11.32476,0.82864c6.08101,1.56369 6.70158,3.32626 10.48184,6.16546c2.09942,1.57679 4.92565,2.57868 6.86446,4.1782c4.45705,3.67707 8.60388,7.7837 13.00019,11.58341c3.07592,2.65851 6.82072,5.3559 8.70056,9.11558c0.23611,0.47221 0.49819,0.93764 0.77806,1.39852c1.72699,1.8886 3.1679,4.04319 4.25417,6.39518c0.88901,1.5561 1.54982,3.17745 1.67927,4.94651c0.40079,1.77704 0.61234,3.62579 0.61234,5.52394c0,4.13476 -1.00378,8.03508 -2.78094,11.47056c0.7989,1.42006 1.23942,2.87998 1.48234,4.05826c1.41151,1.25433 3.58669,3.25365 3.955,3.48658l5.07672,6.61804c0,0 5.36656,10.73313 -5.36656,16.09969z" fill="#0b0b0b" stroke="none" stroke-width="0.5" stroke-linecap="butt"/><path d="M234.625,199.625l-0.75,-12l-21,-7.25l-0.5,-20" fill="#141a00" stroke="#0e0b00" stroke-width="6" stroke-linecap="round"/><path d="M267.375,160.375l-0.5,20l-21,7.25l-0.75,12" data-paper-data="{&quot;index&quot;:null}" fill="#141a00" stroke="#0e0b00" stroke-width="6" stroke-linecap="round"/><path d="M228.625,168.25h22.75" fill="none" stroke="#0e0b00" stroke-width="6" stroke-linecap="round"/><path d="M265.375,208.25h-50.75" fill="none" stroke="#0e0b00" stroke-width="6" stroke-linecap="round"/><text transform="translate(16.96856,79.68294) scale(0.45276,0.45276)" font-size="40" xml:space="preserve" fill="#000000" fill-rule="nonzero" stroke="none" stroke-width="1" stroke-linecap="butt" stroke-linejoin="miter" stroke-miterlimit="10" stroke-dasharray="" stroke-dashoffset="0" font-family="Sans Serif" font-weight="normal" text-anchor="start" style="mix-blend-mode: normal"><tspan x="0" dy="0">Ŝtalatov whilestimbling about in the dark, tripped</tspan><tspan x="0" dy="48px">over a strange artifact. the srtifact was a faded</tspan><tspan x="0" dy="48px">yellow, with marks surrounding and a series of cuts</tspan><tspan x="0" dy="48px">that illumanated light.</tspan><tspan x="0" dy="48px"> </tspan><tspan x="0" dy="48px">Upon picking up the artifact to look at it closer, the</tspan><tspan x="0" dy="48px">artifact disappeared in a flash of light.</tspan><tspan x="0" dy="48px"> </tspan><tspan x="0" dy="48px">Ŝtalatov rose again feeling a newfound sense of</tspan><tspan x="0" dy="48px">confidence, feeling far lighter than before, albeit</tspan><tspan x="0" dy="48px">now with the distinct sense that there was now </tspan><tspan x="0" dy="48px">someone watching...</tspan></text><text transform="translate(16.5,79.07277) scale(0.45276,0.45276)" font-size="40" xml:space="preserve" fill="#ffffff" fill-rule="nonzero" stroke="none" stroke-width="1" stroke-linecap="butt" stroke-linejoin="miter" stroke-miterlimit="10" stroke-dasharray="" stroke-dashoffset="0" font-family="Sans Serif" font-weight="normal" text-anchor="start" style="mix-blend-mode: normal"><tspan x="0" dy="0">Ŝtalatov whilestimbling about in the dark, tripped</tspan><tspan x="0" dy="48px">over a strange artifact. the srtifact was a faded</tspan><tspan x="0" dy="48px">yellow, with marks surrounding and a series of cuts</tspan><tspan x="0" dy="48px">that illumanated light.</tspan><tspan x="0" dy="48px"> </tspan><tspan x="0" dy="48px">Upon picking up the artifact to look at it closer, the</tspan><tspan x="0" dy="48px">artifact disappeared in a flash of light.</tspan><tspan x="0" dy="48px"> </tspan><tspan x="0" dy="48px">Ŝtalatov rose again feeling a newfound sense of</tspan><tspan x="0" dy="48px">confidence, feeling far lighter than before, albeit</tspan><tspan x="0" dy="48px">now with the distinct sense that there was now </tspan><tspan x="0" dy="48px">someone watching...</tspan></text></g></g></svg>