<svg version="1.1" xmlns="http://www.w3.org/2000/svg" xmlns:xlink="http://www.w3.org/1999/xlink" width="510" height="385" viewBox="0,0,510,385"><g transform="translate(21.23167,16.5)"><g data-paper-data="{&quot;isPaintingLayer&quot;:true}" fill-rule="nonzero" stroke-linejoin="miter" stroke-miterlimit="10" stroke-dasharray="" stroke-dashoffset="0" style="mix-blend-mode: normal"><path d="M182.60585,176.00531c0.00142,-0.59666 0.15868,-1.0766 0.15868,-1.0766c1.22329,-3.61605 1.05526,-8.25794 2.44296,-11.88746c0.40159,-1.05037 0.67862,-2.71579 1.4091,-2.89727c0.81187,-0.20171 1.57745,1.02633 2.15695,2.0113c0.36902,0.62722 0.33336,1.67936 0.50628,2.51537c0.33757,1.63206 0.67778,3.13021 0.97488,4.66968c0.50052,-2.04905 1.16245,-4.15015 1.7645,-5.98312c0.36159,-1.10088 0.48721,-2.93053 1.21717,-3.16721c2.44994,-0.79435 3.24369,5.83237 3.72179,8.5401c0.02648,0.14999 0.13281,0.66225 0.23989,1.30059c0.30622,-0.91578 0.63442,-1.71697 0.99438,-2.4404l0.43246,-1.83308l0.08824,0.05985l0.00114,-0.36187c0.77516,-1.53766 3.22196,-7.78271 4.87685,-3.09891c0.10287,0.29116 0.12662,0.59449 0.09838,0.90583c1.46776,2.20753 2.05286,7.00502 2.62972,9.54346c0.25882,1.13892 0.89528,2.33106 0.66163,3.48551c-0.4891,2.41662 -2.15832,2.4064 -3.25603,2.59987c-3.6707,0.64696 -7.46848,0.21151 -11.15816,0.20777c-2.64278,0.32006 -5.29626,0.20127 -7.94529,0.20127l-1.51133,-1.37253c0,0 -0.63149,-0.76478 -0.5042,-1.92215z" data-paper-data="{&quot;index&quot;:null}" fill="#e0f4ff" stroke="none" stroke-width="0.5" stroke-linecap="butt"/><path d="M417.97252,176.00531c0.00142,-0.59666 0.15868,-1.0766 0.15868,-1.0766c1.22329,-3.61605 1.05527,-8.25794 2.44297,-11.88746c0.40159,-1.05037 0.67861,-2.71579 1.40909,-2.89727c0.81187,-0.20171 1.57746,1.02633 2.15695,2.0113c0.36902,0.62722 0.33335,1.67936 0.50628,2.51537c0.33757,1.63206 0.67778,3.13021 0.97488,4.66968c0.50052,-2.04905 1.16246,-4.15015 1.7645,-5.98312c0.36159,-1.10088 0.48721,-2.93053 1.21717,-3.16721c2.44993,-0.79435 3.24369,5.83237 3.72178,8.5401c0.02648,0.14999 0.13282,0.66225 0.2399,1.30059c0.30621,-0.91578 0.63441,-1.71697 0.99438,-2.4404l0.43246,-1.83308l0.08825,0.05985l0.00114,-0.36187c0.77516,-1.53766 3.22196,-7.78271 4.87685,-3.09891c0.10287,0.29116 0.12662,0.59449 0.09838,0.90583c1.46776,2.20753 2.05286,7.00502 2.62972,9.54346c0.25882,1.13892 0.89528,2.33106 0.66163,3.48551c-0.4891,2.41662 -2.15832,2.4064 -3.25603,2.59987c-3.6707,0.64696 -7.46848,0.21151 -11.15816,0.20777c-2.64278,0.32006 -5.29626,0.20127 -7.94529,0.20127l-1.51133,-1.37253c0,0 -0.6315,-0.76478 -0.50421,-1.92215z" data-paper-data="{&quot;index&quot;:null}" fill="#e0f4ff" stroke="none" stroke-width="0.5" stroke-linecap="butt"/><path d="M341.63918,175.83865c0.00142,-0.59666 0.15868,-1.0766 0.15868,-1.0766c1.22329,-3.61605 1.05527,-8.25794 2.44296,-11.88746c0.4016,-1.05037 0.67862,-2.71579 1.40909,-2.89727c0.81187,-0.20171 1.57746,1.02633 2.15695,2.0113c0.36902,0.62722 0.33335,1.67936 0.50627,2.51537c0.33758,1.63206 0.67778,3.13021 0.97488,4.66968c0.50053,-2.04905 1.16246,-4.15015 1.7645,-5.98312c0.36159,-1.10088 0.48721,-2.93053 1.21717,-3.16721c2.44994,-0.79435 3.24369,5.83237 3.72179,8.5401c0.02648,0.14999 0.13281,0.66225 0.23989,1.30059c0.30622,-0.91578 0.63441,-1.71697 0.99438,-2.4404l0.43246,-1.83308l0.08824,0.05985l0.00114,-0.36187c0.77516,-1.53766 3.22196,-7.78271 4.87685,-3.09891c0.10287,0.29116 0.12662,0.59449 0.09838,0.90583c1.46776,2.20753 2.05286,7.00502 2.62971,9.54346c0.25881,1.13892 0.89528,2.33106 0.66163,3.48551c-0.4891,2.41662 -2.15832,2.4064 -3.25603,2.59987c-3.6707,0.64696 -7.46848,0.21151 -11.15816,0.20777c-2.64278,0.32006 -5.29626,0.20127 -7.94529,0.20127l-1.51133,-1.37253c0,0 -0.6315,-0.76478 -0.50421,-1.92215z" data-paper-data="{&quot;index&quot;:null}" fill="#e0f4ff" stroke="none" stroke-width="0.5" stroke-linecap="butt"/><path d="M265.80585,175.83865c0.00142,-0.59666 0.15868,-1.0766 0.15868,-1.0766c1.22329,-3.61605 1.05527,-8.25794 2.44296,-11.88747c0.40159,-1.05037 0.67862,-2.71579 1.4091,-2.89727c0.81187,-0.2017 1.57745,1.02634 2.15695,2.01131c0.36902,0.62722 0.33335,1.67935 0.50627,2.51536c0.33757,1.63205 0.67778,3.13022 0.97488,4.66969c0.50053,-2.04905 1.16246,-4.15015 1.7645,-5.98312c0.36159,-1.10088 0.48721,-2.93054 1.21717,-3.16721c2.44993,-0.79436 3.24369,5.83237 3.72178,8.5401c0.02648,0.14999 0.13282,0.66225 0.2399,1.30059c0.30621,-0.91579 0.63442,-1.71697 0.99438,-2.4404l0.43246,-1.83308l0.08825,0.05985l0.00114,-0.36188c0.77516,-1.53765 3.22196,-7.78271 4.87685,-3.09891c0.10287,0.29116 0.12663,0.59449 0.09838,0.90583c1.46776,2.20752 2.05286,7.00502 2.62971,9.54346c0.25881,1.13892 0.89528,2.33106 0.66163,3.48552c-0.4891,2.41662 -2.15832,2.40639 -3.25603,2.59986c-3.6707,0.64696 -7.46849,0.21151 -11.15816,0.20778c-2.64277,0.32006 -5.29626,0.20127 -7.94528,0.20127l-1.51133,-1.37253c0,0 -0.63149,-0.76478 -0.5042,-1.92215z" data-paper-data="{&quot;index&quot;:null}" fill="#e0f4ff" stroke="none" stroke-width="0.5" stroke-linecap="butt"/><path d="M85.76833,215.5v-36h400v36z" data-paper-data="{&quot;index&quot;:null}" fill="#78878f" stroke="none" stroke-width="0" stroke-linecap="butt"/><path d="M-21.23167,262.5v-148h59v148z" data-paper-data="{&quot;index&quot;:null}" fill="#78878f" stroke="none" stroke-width="0" stroke-linecap="butt"/><path d="M-2.23167,286.5v-33h486v33z" data-paper-data="{&quot;index&quot;:null}" fill="#78878f" stroke="none" stroke-width="0" stroke-linecap="butt"/><path d="M-1.23167,368.5v-46h485v46z" data-paper-data="{&quot;index&quot;:null}" fill="#78878f" stroke="none" stroke-width="0" stroke-linecap="butt"/><path d="M-0.23167,321.5h479" data-paper-data="{&quot;index&quot;:null}" fill="none" stroke="#a4cade" stroke-width="12" stroke-linecap="round"/><path d="M478.76833,250.5h-439" data-paper-data="{&quot;index&quot;:null}" fill="none" stroke="#a4cade" stroke-width="12" stroke-linecap="round"/><path d="M482.76833,181.5h-395" data-paper-data="{&quot;index&quot;:null}" fill="none" stroke="#a4cade" stroke-width="12" stroke-linecap="round"/><path d="M0.76833,126.5v-143h481v143z" data-paper-data="{&quot;index&quot;:null}" fill="#78878f" stroke="none" stroke-width="0" stroke-linecap="butt"/></g></g></svg>