<svg version="1.1" xmlns="http://www.w3.org/2000/svg" xmlns:xlink="http://www.w3.org/1999/xlink" width="644.48332" height="459.75836" viewBox="0,0,644.48332,459.75836"><g transform="translate(82.71816,46.54197)"><g data-paper-data="{&quot;isPaintingLayer&quot;:true}" fill-rule="nonzero" stroke="none" stroke-linecap="butt" stroke-linejoin="miter" stroke-miterlimit="10" stroke-dasharray="" stroke-dashoffset="0" style="mix-blend-mode: normal"><path d="M297.10585,334.00531c0.00142,-0.59666 0.15868,-1.0766 0.15868,-1.0766c1.22329,-3.61605 1.05526,-8.25794 2.44296,-11.88746c0.40159,-1.05037 0.67862,-2.71579 1.4091,-2.89727c0.81187,-0.20171 1.57745,1.02633 2.15695,2.0113c0.36902,0.62722 0.33336,1.67936 0.50628,2.51537c0.33757,1.63206 0.67778,3.13021 0.97488,4.66968c0.50052,-2.04905 1.16245,-4.15015 1.7645,-5.98312c0.36159,-1.10088 0.48721,-2.93053 1.21717,-3.16721c2.44994,-0.79435 3.24369,5.83237 3.72179,8.5401c0.02648,0.14999 0.13281,0.66225 0.23989,1.30059c0.30622,-0.91578 0.63442,-1.71697 0.99438,-2.4404l0.43246,-1.83308l0.08824,0.05985l0.00114,-0.36187c0.77516,-1.53766 3.22196,-7.78271 4.87685,-3.09891c0.10287,0.29116 0.12662,0.59449 0.09838,0.90583c1.46776,2.20753 2.05286,7.00502 2.62972,9.54346c0.25882,1.13892 0.89528,2.33106 0.66163,3.48551c-0.4891,2.41662 -2.15832,2.4064 -3.25603,2.59987c-3.6707,0.64696 -7.46848,0.21151 -11.15816,0.20777c-2.64278,0.32006 -5.29626,0.20127 -7.94529,0.20127l-1.51133,-1.37253c0,0 -0.63149,-0.76478 -0.5042,-1.92215z" fill="#e0f4ff" stroke-width="0.5"/><path d="M273.10585,333.50531c0.00142,-0.59666 0.15868,-1.0766 0.15868,-1.0766c1.22329,-3.61605 1.05526,-8.25794 2.44296,-11.88746c0.40159,-1.05037 0.67862,-2.71579 1.4091,-2.89727c0.81187,-0.20171 1.57745,1.02633 2.15695,2.0113c0.36902,0.62722 0.33336,1.67936 0.50628,2.51537c0.33757,1.63206 0.67778,3.13021 0.97488,4.66968c0.50052,-2.04905 1.16245,-4.15015 1.7645,-5.98312c0.36159,-1.10088 0.48721,-2.93053 1.21717,-3.16721c2.44994,-0.79435 3.24369,5.83237 3.72179,8.5401c0.02648,0.14999 0.13281,0.66225 0.23989,1.30059c0.30622,-0.91578 0.63442,-1.71697 0.99438,-2.4404l0.43246,-1.83308l0.08824,0.05985l0.00114,-0.36187c0.77516,-1.53766 3.22196,-7.78271 4.87685,-3.09891c0.10287,0.29116 0.12662,0.59449 0.09838,0.90583c1.46776,2.20753 2.05286,7.00502 2.62972,9.54346c0.25882,1.13892 0.89528,2.33106 0.66163,3.48551c-0.4891,2.41662 -2.15832,2.4064 -3.25603,2.59987c-3.6707,0.64696 -7.46848,0.21151 -11.15816,0.20777c-2.64278,0.32006 -5.29626,0.20127 -7.94529,0.20127l-1.51133,-1.37253c0,0 -0.63149,-0.76478 -0.5042,-1.92215z" fill="#e0f4ff" stroke-width="0.5"/><path d="M249.10585,332.67198c0.00142,-0.59666 0.15868,-1.0766 0.15868,-1.0766c1.22329,-3.61605 1.05526,-8.25794 2.44296,-11.88746c0.40159,-1.05037 0.67862,-2.71579 1.4091,-2.89727c0.81187,-0.20171 1.57745,1.02633 2.15695,2.0113c0.36902,0.62722 0.33336,1.67936 0.50628,2.51537c0.33757,1.63206 0.67778,3.13021 0.97488,4.66968c0.50052,-2.04905 1.16245,-4.15015 1.7645,-5.98312c0.36159,-1.10088 0.48721,-2.93053 1.21717,-3.16721c2.44994,-0.79435 3.24369,5.83237 3.72179,8.5401c0.02648,0.14999 0.13281,0.66225 0.23989,1.30059c0.30622,-0.91578 0.63442,-1.71697 0.99438,-2.4404l0.43246,-1.83308l0.08824,0.05985l0.00114,-0.36187c0.77516,-1.53766 3.22196,-7.78271 4.87685,-3.09891c0.10287,0.29116 0.12662,0.59449 0.09838,0.90583c1.46776,2.20753 2.05286,7.00502 2.62972,9.54346c0.25882,1.13892 0.89528,2.33106 0.66163,3.48551c-0.4891,2.41662 -2.15832,2.4064 -3.25603,2.59987c-3.6707,0.64696 -7.46848,0.21151 -11.15816,0.20777c-2.64278,0.32006 -5.29626,0.20127 -7.94529,0.20127l-1.51133,-1.37253c0,0 -0.63149,-0.76478 -0.5042,-1.92215z" fill="#e0f4ff" stroke-width="0.5"/><path d="M225.10585,332.17198c0.00142,-0.59666 0.15868,-1.0766 0.15868,-1.0766c1.22329,-3.61605 1.05526,-8.25794 2.44296,-11.88746c0.40159,-1.05037 0.67862,-2.71579 1.4091,-2.89727c0.81187,-0.20171 1.57745,1.02633 2.15695,2.0113c0.36902,0.62722 0.33336,1.67936 0.50628,2.51537c0.33757,1.63206 0.67778,3.13021 0.97488,4.66968c0.50052,-2.04905 1.16245,-4.15015 1.7645,-5.98312c0.36159,-1.10088 0.48721,-2.93053 1.21717,-3.16721c2.44994,-0.79435 3.24369,5.83237 3.72179,8.5401c0.02648,0.14999 0.13281,0.66225 0.23989,1.30059c0.30622,-0.91578 0.63442,-1.71697 0.99438,-2.4404l0.43246,-1.83308l0.08824,0.05985l0.00114,-0.36187c0.77516,-1.53766 3.22196,-7.78271 4.87685,-3.09891c0.10287,0.29116 0.12662,0.59449 0.09838,0.90583c1.46776,2.20753 2.05286,7.00502 2.62972,9.54346c0.25882,1.13892 0.89528,2.33106 0.66163,3.48551c-0.4891,2.41662 -2.15832,2.4064 -3.25603,2.59987c-3.6707,0.64696 -7.46848,0.21151 -11.15816,0.20777c-2.64278,0.32006 -5.29626,0.20127 -7.94529,0.20127l-1.51133,-1.37253c0,0 -0.63149,-0.76478 -0.5042,-1.92215z" fill="#e0f4ff" stroke-width="0.5"/><path d="M133.10585,294.00531c0.00142,-0.59666 0.15868,-1.0766 0.15868,-1.0766c1.22329,-3.61605 1.05526,-8.25794 2.44296,-11.88746c0.40159,-1.05037 0.67862,-2.71579 1.4091,-2.89727c0.81187,-0.20171 1.57745,1.02633 2.15695,2.0113c0.36902,0.62722 0.33336,1.67936 0.50628,2.51537c0.33757,1.63206 0.67778,3.13021 0.97488,4.66968c0.50052,-2.04905 1.16245,-4.15015 1.7645,-5.98312c0.36159,-1.10088 0.48721,-2.93053 1.21717,-3.16721c2.44994,-0.79435 3.24369,5.83237 3.72179,8.5401c0.02648,0.14999 0.13281,0.66225 0.23989,1.30059c0.30622,-0.91578 0.63442,-1.71697 0.99438,-2.4404l0.43246,-1.83308l0.08824,0.05985l0.00114,-0.36187c0.77516,-1.53766 3.22196,-7.78271 4.87685,-3.09891c0.10287,0.29116 0.12662,0.59449 0.09838,0.90583c1.46776,2.20753 2.05286,7.00502 2.62972,9.54346c0.25882,1.13892 0.89528,2.33106 0.66163,3.48551c-0.4891,2.41662 -2.15832,2.4064 -3.25603,2.59987c-3.6707,0.64696 -7.46848,0.21151 -11.15816,0.20777c-2.64278,0.32006 -5.29626,0.20127 -7.94529,0.20127l-1.51133,-1.37253c0,0 -0.63149,-0.76478 -0.5042,-1.92215z" fill="#e0f4ff" stroke-width="0.5"/><path d="M109.10585,293.50531c0.00142,-0.59666 0.15868,-1.0766 0.15868,-1.0766c1.22329,-3.61605 1.05526,-8.25794 2.44296,-11.88746c0.40159,-1.05037 0.67862,-2.71579 1.4091,-2.89727c0.81187,-0.20171 1.57745,1.02633 2.15695,2.0113c0.36902,0.62722 0.33336,1.67936 0.50628,2.51537c0.33757,1.63206 0.67778,3.13021 0.97488,4.66968c0.50052,-2.04905 1.16245,-4.15015 1.7645,-5.98312c0.36159,-1.10088 0.48721,-2.93053 1.21717,-3.16721c2.44994,-0.79435 3.24369,5.83237 3.72179,8.5401c0.02648,0.14999 0.13281,0.66225 0.23989,1.30059c0.30622,-0.91578 0.63442,-1.71697 0.99438,-2.4404l0.43246,-1.83308l0.08824,0.05985l0.00114,-0.36187c0.77516,-1.53766 3.22196,-7.78271 4.87685,-3.09891c0.10287,0.29116 0.12662,0.59449 0.09838,0.90583c1.46776,2.20753 2.05286,7.00502 2.62972,9.54346c0.25882,1.13892 0.89528,2.33106 0.66163,3.48551c-0.4891,2.41662 -2.15832,2.4064 -3.25603,2.59987c-3.6707,0.64696 -7.46848,0.21151 -11.15816,0.20777c-2.64278,0.32006 -5.29626,0.20127 -7.94529,0.20127l-1.51133,-1.37253c0,0 -0.63149,-0.76478 -0.5042,-1.92215z" fill="#e0f4ff" stroke-width="0.5"/><path d="M65.10584,237.50531c0.00142,-0.59666 0.15868,-1.0766 0.15868,-1.0766c1.22329,-3.61605 1.05526,-8.25794 2.44296,-11.88746c0.40159,-1.05037 0.67862,-2.71579 1.4091,-2.89727c0.81187,-0.20171 1.57745,1.02633 2.15695,2.0113c0.36902,0.62722 0.33336,1.67936 0.50628,2.51537c0.33757,1.63206 0.67778,3.13021 0.97488,4.66968c0.50052,-2.04905 1.16245,-4.15015 1.7645,-5.98312c0.36159,-1.10088 0.48721,-2.93053 1.21717,-3.16721c2.44994,-0.79435 3.24369,5.83237 3.72179,8.5401c0.02648,0.14999 0.13281,0.66225 0.23989,1.30059c0.30622,-0.91578 0.63442,-1.71697 0.99438,-2.4404l0.43246,-1.83308l0.08824,0.05985l0.00114,-0.36187c0.77516,-1.53766 3.22196,-7.78271 4.87685,-3.09891c0.10287,0.29116 0.12662,0.59449 0.09838,0.90583c1.46776,2.20753 2.05286,7.00502 2.62972,9.54346c0.25882,1.13892 0.89528,2.33106 0.66163,3.48551c-0.4891,2.41662 -2.15832,2.4064 -3.25603,2.59987c-3.6707,0.64696 -7.46848,0.21151 -11.15816,0.20777c-2.64278,0.32006 -5.29626,0.20127 -7.94529,0.20127l-1.51133,-1.37253c0,0 -0.63149,-0.76478 -0.5042,-1.92215z" fill="#e0f4ff" stroke-width="0.5"/><path d="M41.10585,237.00531c0.00142,-0.59666 0.15868,-1.0766 0.15868,-1.0766c1.22329,-3.61605 1.05526,-8.25794 2.44296,-11.88746c0.40159,-1.05037 0.67862,-2.71579 1.4091,-2.89727c0.81187,-0.20171 1.57745,1.02633 2.15695,2.0113c0.36902,0.62722 0.33336,1.67936 0.50628,2.51537c0.33757,1.63206 0.67778,3.13021 0.97488,4.66968c0.50052,-2.04905 1.16245,-4.15015 1.7645,-5.98312c0.36159,-1.10088 0.48721,-2.93053 1.21717,-3.16721c2.44994,-0.79435 3.24369,5.83237 3.72179,8.5401c0.02648,0.14999 0.13281,0.66225 0.23989,1.30059c0.30622,-0.91578 0.63442,-1.71697 0.99438,-2.4404l0.43246,-1.83308l0.08824,0.05985l0.00114,-0.36187c0.77516,-1.53766 3.22196,-7.78271 4.87685,-3.09891c0.10287,0.29116 0.12662,0.59449 0.09838,0.90583c1.46776,2.20753 2.05286,7.00502 2.62972,9.54346c0.25882,1.13892 0.89528,2.33106 0.66163,3.48551c-0.4891,2.41662 -2.15832,2.4064 -3.25603,2.59987c-3.6707,0.64696 -7.46848,0.21151 -11.15816,0.20777c-2.64278,0.32006 -5.29626,0.20127 -7.94529,0.20127l-1.51133,-1.37253c0,0 -0.63149,-0.76478 -0.5042,-1.92215z" fill="#e0f4ff" stroke-width="0.5"/><path d="M-82.71816,329.5v-148h76v148z" data-paper-data="{&quot;index&quot;:null}" fill="#78878f" stroke-width="0"/><path d="M-12.09445,191.57643c1.35656,-9.8214 11.85624,-9.8214 11.85624,-9.8214c8.57453,0 17.34759,-0.42028 24.48528,5.51472c1.19831,0.9964 1.06698,2.99303 2.0512,4.20136c0.75902,0.93185 2.29675,1.02538 3,2c3.91968,5.4322 4.92769,12.67273 7.55007,18.69172c1.79376,4.11709 4.01267,8.14893 4.7585,12.67001c0.50438,3.05747 -0.81427,7.29722 0.53915,10.12745c0.37757,1.13271 0.11739,2.52324 0.82361,3.48596c0.55766,0.7602 1.51493,1.19155 2,2c0.38868,0.64781 1.38678,2.10424 1.53328,2.66016c1.23852,0.06191 2.48921,0.53826 3.72511,0.73852c2.77762,0.45007 6.84578,-0.08991 9.5338,-0.08991c4.85493,0 10.1243,-0.46612 14.92219,0.15495c1.04537,0.13532 1.96258,0.81326 3,1c1.49905,0.26983 3.12195,-0.15551 4.55522,0.35995c7.1768,2.58106 13.57952,8.22107 16.30237,15.21289c1.45452,2.26529 2.13884,4.94109 3.19439,7.41757c0.41184,0.96624 1.3565,1.63293 1.80561,2.58243c2.34734,4.96271 3.56522,10.96041 5.48804,16.14473c0.97278,2.62281 1.06195,7.47617 3.01228,9.51962c3.55625,3.72606 7.33242,3.58195 11.99211,5.82808c1.02477,0.49397 1.92773,1.20977 2.84453,1.88589c1.10579,-0.23185 3.53265,-0.1061 3.88325,-0.1061c3,0 6,0 9,0c1.08627,0 2.26114,0.78578 3.24296,0.32101c5.48061,-2.5944 9.26698,-4.53055 15.57458,-5.26261c4.23949,-0.49203 8.90478,-0.0584 13.18245,-0.0584c4.18876,0 8.79709,-0.43406 12.92219,0.15495c2.25186,0.32153 4.28129,1.70191 6.54401,1.93496c1.47767,0.1522 2.99855,-0.22228 4.45599,0.06504c5.86787,1.1568 5.73845,1.77745 10.10093,4.46613c2.14089,1.31947 4.67387,2.12546 6.46216,3.89364c1.70936,1.69014 2.48169,4.11767 3.72253,6.17651c1.20915,1.71717 2.68506,3.27465 3.62744,5.15151c0.70799,1.41005 0.63173,3.11398 1.2513,4.56506c0.49496,1.15923 1.37324,2.11411 2.05357,3.17521c1.44262,2.25005 2.62691,4.67127 3.63965,7.14477c0.07082,0.17297 0.23118,0.33386 0.42911,0.48506c2.08425,0.434 4.11863,1.14253 6.06333,2.00737c0.53873,0.23958 0.64917,1.09855 1.20519,1.29468c0.46805,0.1651 0.95353,-0.43069 1.44478,-0.35995c1.04333,0.15024 1.96784,0.7861 3,1c4.22175,0.87488 9.05324,-1.40193 13.15563,-2c4.44531,-0.64807 7.25445,-0.19949 11.73974,-1.09655c4.60375,0.13634 7.66827,-2.14592 12.26026,-2.90345c1.61965,-0.26719 3.28096,-0.12285 4.92219,-0.15495c6.81084,-0.13321 16.15363,-1.24561 22.5922,0.91345c1.11975,0.37549 2.02129,1.20308 2.88094,2.0531c0.19252,0.01483 0.39277,0.03854 0.52686,0.03345c0.99928,-0.03797 2,0 3,0c6.64297,0 13.28215,-0.05408 19.92219,0.15495c4.05586,1.216 9.76382,2.43196 13.38659,4.63724c6.26318,3.81258 8.8845,9.84029 11.07543,16.41308c0.5131,1.53931 2.34303,6.92755 2.46085,7.87255c1.02694,8.23672 -2.08699,17.5626 -8.82853,22.65709c-5.27877,3.98911 -11.86243,5.1872 -18.09434,6.11014c-2.16292,0.32033 -4.15629,1.38291 -6.28953,1.8626c-4.72731,1.063 -9.44458,2.10235 -14.16646,3.20244c-5.32908,0 -10.0078,1.06181 -15.4662,1.08991c-6.18412,0.03183 -13.82531,-0.90146 -20.07781,-0.15495c-2.64982,0.31637 -5.25405,1.10276 -7.92219,1.15495c-8.65994,0.16938 -17.33822,0 -26,0c-5.18738,0 -10.57564,0.36165 -15.74565,-0.02319c-13.72761,-1.02185 -27.45469,-1.97681 -41.25435,-1.97681c-21.66667,0 -43.33333,0 -65,0c-12.13672,0 -24.6476,0.87736 -36.74565,-0.02319c-11.43314,-0.85105 -22.80511,-1.97681 -34.25435,-1.97681c-2.64073,-0.05165 -5.2956,0.12279 -7.92219,-0.15495c-1.04825,-0.11085 -1.96021,-0.82696 -3,-1c-2.38747,-0.39732 -4.85293,0.34678 -7.26026,0.09655c-1.69057,-0.17572 -3.31345,-0.78918 -5,-1c-5.35943,-0.66993 -11.68552,-0.66341 -16.71559,-2.98673c-6.22248,-2.87408 -13.92047,-10.46434 -16.88175,-16.68266c-2.4571,-5.15961 -2.22022,-9.79114 -2.22022,-15.27222c0,-7.33333 0,-14.66667 0,-22c0,-4.66667 0,-9.33333 0,-14c0,-2.02954 0.55783,-5.1337 0.15495,-7.07781c-0.47829,-2.30799 -0.75352,-4.6559 -1,-7c-0.22046,-2.09663 -1.68791,-3.91504 -2,-6c-0.34541,-2.30762 0.47348,-4.71521 0,-7c-0.2139,-1.03216 -0.86468,-1.95463 -1,-3c-0.29954,-2.31403 0.47348,-4.71521 0,-7c-0.2139,-1.03216 -0.84793,-1.95693 -1,-3c-0.28852,-1.97908 0.34327,-4.02968 0,-6c-0.36184,-2.0769 -1.39456,-3.98062 -2,-6c-0.31375,-9.96679 -0.15495,-19.95057 -0.15495,-29.92219c0,-5.32386 -0.5189,-11.1785 0.08991,-16.4662c0.51637,-4.48485 1.32969,-9.03735 2.06504,-13.45599c0.46183,-2.77509 -0.15495,-6.21915 -0.15495,-9.07781v-2c0,0 0,-6.82204 5.14376,-10.1786z" fill="#78878f" stroke-width="0.5"/><path d="M407.43599,381.60746c-4.6742,-3.45215 -4.6742,-9.85243 -4.6742,-9.85243c0,-7.71467 0.97925,-16.17227 0.0584,-23.81755c-0.36844,-3.05897 -1.03335,-6.10147 -1.0584,-9.18245c-0.03794,-4.66603 0,-9.33373 0,-14c0,-2.34702 0.45202,-5.22606 0.08991,-7.5338c-0.4261,-2.71551 -1.37631,-5.32296 -2,-8c0,-4.77553 -1.33005,-9.31034 -2,-14c-0.11054,-0.77378 -0.15833,-1.56983 -0.08791,-2.35032c-4.1685,-3.09358 -7.87845,-8.02177 -11.48728,-11.6306c-1.35228,-1.35228 -2.24169,-3.20266 -3.82349,-4.27747c-0.87187,-0.59242 -2.12636,-0.4102 -3,-1c-1.60875,-1.08609 -2.81019,-2.68237 -4.29909,-3.9277c-1.40981,-1.17918 -3.18789,-1.94667 -4.38827,-3.33847c-3.33556,-3.86748 -4.66892,-9.09011 -8.21167,-12.63286c-0.33333,-1 -0.47286,-2.08718 -1,-3c-0.78365,-1.357 -2.27178,-2.27187 -2.87874,-3.71657c-0.25761,-0.61317 0.86022,-1.36671 0.50646,-1.92991c-0.3533,-0.56246 -1.57565,0.16589 -1.95638,-0.37837c-1.35402,-1.9356 -2.01014,-4.28049 -2.84772,-6.48919c-0.60123,-1.58544 -1.18486,-3.19955 -1.46085,-4.87255c-0.32553,-1.97333 0.40584,-4.04161 0,-6c-1.6499,-7.96165 -2.12554,-18.15063 -1.06504,-26.38839c0.17548,-1.36312 0.83517,-2.63555 1,-4c0.55473,-4.59214 -0.77278,-9.15251 0.12661,-13.80309c0.67362,-3.48316 1.61173,-5.15907 2.93843,-7.6529c0,-3.28746 1.63406,-5.94707 2,-9c0.37045,-3.09058 -0.48616,-6.40515 -0.06504,-9.54401c0.64796,-4.82962 1.91009,-8.66657 1.91009,-13.5338c0,-2.0266 0.54694,-4.08949 0.15495,-6.07781c-0.45511,-2.30849 -1.69973,-4.62493 -2.41581,-6.93288c-0.73268,0.05834 -1.48358,0.00783 -2.20534,-0.07922c-5.90415,-0.71206 -12.89036,-3.71317 -18.32853,-5.52589c-12.87747,-4.43023 -27.67407,-2.3842 -41.20527,-2.3842c-5.76478,0 -12.23187,0.61459 -17.98977,-0.04089c-3.36325,-0.38287 -6.57422,-1.68921 -9.93242,-2.11406c-2.01057,-0.25436 -4.05122,0.15495 -6.07781,0.15495c-4.59961,0 -9.41612,0.3612 -14,0c-2.54111,-0.20023 -5.36128,0.31957 -7.5922,-0.91345c-3.51474,-1.94258 -6.58986,-4.85485 -8.8502,-8.17417c-1.65091,-2.42437 -1.84126,-5.58076 -2.46769,-8.44619c-0.18117,-0.82871 0.20611,-1.70754 0.06504,-2.54401c-0.17529,-1.03942 -0.84793,-1.95693 -1,-3c-0.96111,-6.59259 0.42025,-13.4551 -0.12476,-20.07152c-0.21987,-2.6692 -1.27718,-5.21444 -1.72868,-7.85119c-1.23565,-1.00865 -2.53633,-1.94465 -3.73813,-2.99112c-1.96009,0.47298 -3.66986,-0.78703 -5.48557,-1.16331c-1.59815,-0.33119 -3.27248,-0.07675 -4.89536,0.09655c-5.0242,0.53652 -10.32769,1.07161 -15.26026,1.90345c-1.03942,0.17529 -1.95463,0.86468 -3,1c-3.50546,0.45377 -7.26295,-0.38364 -10.73974,0.09655c-10.64624,1.4704 -21.40535,1.0584 -32.18245,1.0584c-3,0 -6.00072,0.06566 -9,0c-0.69436,-0.0152 -2.47092,0.41762 -2.07781,-0.15495c1.16027,-1.68997 3.14211,-2.64055 4.81272,-3.82853c0.64573,-0.45918 1.97594,-1.87523 2.11014,-1.09434c0.35706,2.07773 -1.72694,3.90957 -2,6c-0.12952,0.99158 0.21537,2.02347 0,3c-0.8211,3.72308 -2.48482,7.27619 -2.88594,11.06758c-0.27822,2.62974 0.22542,5.30989 -0.11406,7.93242c-0.13532,1.04537 -0.84944,1.95672 -1,3c-0.39563,2.74144 -0.52449,5.51647 -0.90345,8.26026c-0.56986,4.12601 -0.27737,7.49479 -1.29989,11.72798c-0.92286,3.82059 -2.29621,10.12186 -5.15643,12.57485c-3.16251,2.71225 -7.60351,3.40848 -11.40527,5.11271c-11.79409,2.38848 -23.08735,2.402 -35.08002,2.402c-6.03278,0 -12.50208,0.71711 -18.4662,-0.08991c-7.67283,-1.03823 -15.41532,-5.00737 -22.66129,-7.64227c-1.96755,-0.71547 -3.72219,-2.12635 -5.7947,-2.42277c-4.4336,-0.63413 -9.55919,0.37701 -14.07781,0.15495c-2.16334,-0.10631 -4.54236,0.45819 -6.47741,-0.5149c-3.80508,-1.91348 -6.73512,-5.21521 -10.10269,-7.82281c-1.74989,-10.67538 -2.4199,-20.84897 -2.4199,-31.6623c0,-4.3313 -0.46466,-9.15845 0.08991,-13.4662c0.17548,-1.36312 0.77697,-2.64385 1,-4c0.37828,-2.30013 0.17403,-4.97815 0.02379,-7.5211c-3.69898,0.04547 -7.43514,0.18715 -11.1137,-0.0127c-2.16276,-0.1175 -4.48927,0.34453 -6.47741,-0.5149c-3.359,-1.45202 -6.58541,-3.50447 -9.05907,-6.20118c-1.69996,-1.85324 -2.12347,-4.56621 -2.98496,-6.92887c-2.089,-5.72914 -2.95826,-11.60946 -3.45537,-17.6094c-0.91889,-11.09075 -3.01109,-21.93557 -4,-33c-0.60442,-6.76253 0.00214,-14.00668 0.65327,-20.71773c2.40471,-3.29103 4.29946,-7.02384 7.21412,-9.8731c2.12899,-2.08122 4.87754,-3.50989 7.63201,-4.63992c1.40916,-0.57811 3.06878,-0.02761 4.55522,-0.35995c2.05739,-0.45999 3.91163,-1.71165 6,-2c3.16031,-0.43636 6.38239,-0.01185 9.5697,-0.14977c13.4155,-0.58054 24.91527,-1.00518 38.35248,-1.00518c37.47448,0 75.01624,0.71061 112.45836,-0.91095c12.50349,-0.54151 24.96124,-1.87731 37.42263,-3.03676c12.18276,-1.13353 24.46117,-0.68503 36.69126,-1.04466c10.8098,-0.31787 21.61329,-1.00315 32.42775,-1.00763c9.66667,0 19.33333,0 29,0c7.69257,0 15.42154,-0.6994 23.07767,0.04849c3.9071,0.38167 7.70756,1.51482 11.59401,2.06852c8.4903,1.20962 17.50852,2.3678 26.07397,2.90618c5.80083,0.36461 11.63943,-0.38083 17.4368,0.03521c4.83672,0.3471 9.57109,1.73781 14.41531,1.9565c18.29529,0.82594 36.69785,-0.72564 55,0c3.34733,0.13271 6.65326,0.85321 10,1c4.45972,0.19561 8.94213,-0.32906 13.392,0.02599c4.04233,0.32253 7.97485,1.50746 12,2c3.31207,0.40529 6.67346,-0.04089 10.01023,-0.04089c5.07318,0.08344 9.24587,1.50189 14.18245,2.0584c2.42107,0.27293 4.93783,-0.15996 7.29496,0.4565c1.77541,0.46432 3.15647,1.87857 4.79481,2.70532c1.63403,0.82457 3.57983,1.10327 5.01171,2.2433c1.65465,1.3174 2.63435,3.31034 3.99618,4.92861c0.94668,1.12495 2.14977,2.05148 2.9277,3.29909c0.55773,0.89446 0.47554,2.08564 1,3c0.25787,0.44958 0.95731,0.49654 1.25066,0.92383c1.62372,2.36514 3.13772,4.8163 4.44369,7.37066c2.94935,5.76867 3.26487,12.15166 4.77683,18.25725c2.02808,8.18974 6.07269,15.88082 8.02373,24.10254c0.65584,2.76374 0.53672,5.66562 1.09325,8.45107c0.82643,4.13627 2.38671,8.11555 3.04908,12.28124c1.23911,7.7929 1.29469,15.72921 2.07975,23.58085c0.684,5.53189 1.6245,11.03808 2.05201,16.59568c0.26197,3.40559 -0.14184,6.8348 0.01282,10.24695c0.42556,9.38889 1.70968,18.73035 2.00452,28.12425c0.76054,24.2311 -0.92327,48.55282 -0.00905,72.77669c0.33471,8.86887 1.36025,17.72181 2.82568,26.47518c0.68985,4.12064 2.34702,8.04058 3.02808,12.16269c1.98899,12.03834 2.15448,24.79899 2.16113,36.9599c0.00115,2.09864 0.03181,20.41949 -0.11599,21.66441c-0.33746,2.84254 -1.56777,5.50742 -2.25258,8.28681c-1.83115,7.43202 -3.20739,14.7043 -5.32478,22.06867c-1.33767,3.04928 -2.37163,6.25072 -4.01302,9.14785c-1.06515,1.88004 -2.9694,3.1923 -4.04134,5.06848c-1.54308,2.7008 -2.24437,5.82188 -3.73927,8.54964c-2.05881,3.75673 -5.09888,6.88799 -7.77812,10.23066c-1.16903,1.4585 -1.12587,3.58052 -1.95512,5.25569c-0.53319,1.0771 -1.41828,1.94831 -2,3c-1.28906,2.33048 -1.18147,5.24086 -2.33738,7.64017c-0.34928,0.725 -0.89581,1.36577 -1.52858,1.88629c0.24368,6.89157 -6.20088,15.36357 -11.30595,19.48143c-10.27431,8.2875 -24.39228,8.1713 -36.86222,9.69671c-8.1183,0.02791 -17.40216,1.13455 -25.41006,-0.0928c-6.19349,-0.94926 -10.99513,-3.54005 -16.75495,-5.38149c-2.37927,-0.76066 -4.97946,-0.86591 -7.24293,-1.92242c-1.55365,-0.72519 -2.62117,-2.2111 -3.94557,-3.29999c-1.63375,-1.34323 -3.57977,-2.36706 -4.92861,-3.99618c-0.91669,-1.10716 -1.01521,-2.69623 -1.67133,-3.97515c-0.67978,-1.32505 -5.84496,-4.4321 -7.27747,-5.82349l-3.24784,-5.11872c0,0 -0.28524,-0.57047 -0.59267,-1.51414zM226.02278,70.079c-0.35906,-0.05578 -0.68546,-0.04409 -0.4688,-0.0152c0.14215,0.01896 0.30185,0.02032 0.4688,0.0152z" fill="#78878f" stroke-width="0.5"/><path d="M24.76179,192.75503c-1.55489,0 -2.70684,-0.40295 -3.56026,-1c-7.47991,0 -14.95983,0 -22.43974,0c0,0 -6,0 -6,-6c0,-6 6,-6 6,-6c8.66667,0 17.33333,0 26,0l6,7c0,0 0,6 -6,6z" fill="#a4cade" stroke-width="0.5"/><path d="M93.15163,241.93774c1.77234,0.40238 4.61016,1.69093 4.61016,5.81729c0,6 -6,6 -6,6l-5.24264,-1.75736c-2.2749,-2.84126 -5.98893,-1.54841 -9.05346,-2.69936c-0.88261,-0.33148 -1.18118,-1.53265 -2,-2c-0.24291,-0.13865 -0.42631,0.42249 -0.7039,0.45672c-0.99248,0.12238 -2,0 -3,0c-2,0 -4,0 -6,0c-4.44254,0 -9.32614,0.55055 -13.7331,-0.04495c-3.67183,-0.49617 -6.52623,-0.95505 -10.2669,-0.95505c0,0 -6,0 -6,-6c0,-6 6,-6 6,-6c4.14381,0 7.68579,0.42816 11.7331,1.04495c5.77134,0.87952 12.40241,-0.04495 18.2669,-0.04495c2.13024,0 6.68454,-0.08592 8.2961,0.45672c0.89352,0.30086 1.13774,1.61869 2,2c0.52058,0.23021 1.10224,-0.46476 1.66499,-0.37925c3.64786,0.55433 6.68403,1.98181 9.42875,4.10523z" fill="#a4cade" stroke-width="0.5"/><path d="M218.76179,305.75503c0,6 -6,6 -6,6l-4.7387,-0.25745c-1,-0.66667 -1.8651,-1.60448 -3,-2c-0.70182,-0.24459 -1.49667,0.34033 -2.22239,0.17997c-1.79097,-0.39575 -3.57324,-0.9586 -5.19329,-1.81862c-1.04658,-0.55559 -1.62259,-2.13814 -2.80671,-2.18138c-3.08177,-0.11253 -5.23997,0.61824 -8.30581,1.03252c-4.19909,0.56741 -9.64882,0.04495 -13.7331,0.04495c-13.33333,0 -26.66667,0 -40,0c-1.00776,0 -6.3752,0.01956 -6.96109,-0.07748c-2.07986,-0.34445 -3.92398,-1.63313 -6,-2c-1.93798,-0.34248 -4.15127,0.32608 -5.87005,-0.63248c-1.88522,-1.05137 -2.7741,-3.3079 -4.16115,-4.96185c0,0 -3.3282,-4.9923 1.6641,-8.3205c4.9923,-3.3282 8.3205,1.6641 8.3205,1.6641c-0.05372,0.34605 -0.50414,0.96748 -0.16115,1.03815c0.72538,0.14947 1.3929,-0.70513 2.12995,-0.63248c2.09802,0.2068 3.92119,1.64931 6,2c1.65643,0.27943 3.35907,-0.07748 5.03891,-0.07748c13.33333,0 26.66667,0 40,0c3.34412,0 8.66521,0.59383 12.2669,0.04495c5.91714,-0.90174 11.16558,-2.18638 16.88749,0.85114c0.83274,0.44207 1.25558,1.42144 2,2c1.21029,0.94064 3.1251,-0.108 4.58432,0.36135c1.14412,0.368 2,1.33333 3,2l1.2613,-0.25745c0,0 6,0 6,6z" fill="#a4cade" stroke-width="0.5"/><path d="M346.76179,340.75503c0,6 -6,6 -6,6l-2.89737,-0.3079c-10.74876,-3.58292 -21.74598,-2.6921 -33.10263,-2.6921c-24.66667,0 -49.33333,0 -74,0c0,0 -6,0 -6,-6c0,-6 6,-6 6,-6c24.66667,0 49.33333,0 74,0c12.7054,0 24.81313,-0.72018 36.89737,3.3079l-0.89737,-0.3079c0,0 6,0 6,6z" fill="#a4cade" stroke-width="0.5"/></g></g></svg>