<svg version="1.1" xmlns="http://www.w3.org/2000/svg" xmlns:xlink="http://www.w3.org/1999/xlink" width="508.5094" height="273.59108" viewBox="0,0,508.5094,273.59108"><g transform="translate(9.50497,-91.85812)"><g data-paper-data="{&quot;isPaintingLayer&quot;:true}" fill-rule="nonzero" stroke-linejoin="miter" stroke-miterlimit="10" stroke-dasharray="" stroke-dashoffset="0" style="mix-blend-mode: normal"><path d="" fill="#999999" stroke="none" stroke-width="0.5" stroke-linecap="butt"/><path d="M478.76361,96.25076c1.66369,-1.0512 3.85297,-1.74285 6.73391,-1.74285c12,0 -0.64786,39.96016 -1.08991,43.4662c-0.46308,3.67277 1.22058,43.73082 -0.06504,51.45599c-0.27799,1.67042 0.21925,3.38564 0.15495,5.07781c-0.0116,0.30518 -0.03895,0.61389 -0.10996,0.91108c0.91885,1.50928 -0.90396,54.23638 -0.04499,59.16674c0.51979,2.98352 2.4887,36.52338 1.45145,39.29272c0.07636,0.11739 -0.38263,72.83052 -2.50431,69.93824c-0.55766,-0.7602 -25.58241,0.84528 -26,0c-1.15799,-2.34398 -1.99383,-4.85257 -2.63724,-7.38659c-0.2461,-0.96924 0.1644,-2.01361 0,-3c-0.17329,-1.03975 -0.84793,-1.95693 -1,-3c-1.16574,-7.99621 -0.15495,-16.82681 -0.15495,-24.92219c0,-3.94603 -0.57436,-8.57908 0.08991,-12.4662c0.42886,-2.50957 4.27477,-13.27376 4.79974,-14.26433c-2.05415,-3.03627 -8.92308,-18.17176 -9.37475,-19.79207c-0.67701,-2.42867 0.15167,-5.08641 -0.35995,-7.55522c-1.70826,-8.24328 -3.35243,-17.28732 -2,-25.84437c1.08195,-6.84565 4.10695,-13.97591 6.63724,-20.38659c0.66667,-0.66667 1.51493,-1.19155 2,-2c0.54233,-0.90388 0.45767,-2.09612 1,-3c0.48507,-0.80845 1.51493,-1.19155 2,-2c1.42985,-2.38308 1.60904,-4.61887 3.89826,-6.55019c-0.02354,-0.04063 -0.04657,-0.0803 -0.06937,-0.11792c-1.09823,-1.81195 -2.38081,-3.55496 -3.10618,-5.54571c-0.21989,-0.60348 0.64332,-1.29138 0.39855,-1.88521c-0.35929,-0.87166 -1.73455,-1.09533 -2,-2c-0.64389,-2.19442 -0.06028,-4.61101 -0.59243,-6.83517c-0.34688,-1.44979 -1.72526,-8.59893 -2.16606,-10.83485c-1.1038,-5.59887 -3.35771,-11.49984 -5,-17c-0.04724,-2.51011 -0.80501,-4.95893 -1.06504,-7.45599c-0.11308,-1.0859 -0.08991,-9.75902 -0.08991,-11.4662c0,-3.08957 -1.85801,-14.45807 1.80853,-23.87724c4.3387,-11.14589 14.41191,-20.36272 15.8827,-21.33058c0.88054,-0.57944 2.03963,-0.56549 3,-1c1.71796,-0.77728 2.3478,-3.09128 4,-4c1.73601,-0.95482 3.6689,-1.47217 5.57487,-2.04934z" fill="#78878f" stroke="none" stroke-width="0.5" stroke-linecap="butt"/><path d="M321.5232,215.16809l14.32767,-0.40262l1.60637,64.74897l-14.32768,0.40262z" fill="#a76634" stroke="none" stroke-width="0" stroke-linecap="butt"/><path d="M47.5,365.3334c-5.309,0 -37.69671,0.26055 -43,0c-2.10168,-0.10326 -4.40963,0.47544 -6.2961,-0.45672c-2.21758,-1.09578 -3.49812,-3.49812 -5.24718,-5.24718c-0.30325,-4.18038 -0.45672,-8.13276 -0.45672,-12.2961c0,-2.46918 0.52081,-5.61735 0.07748,-8.03891c-1.1501,-6.28192 -2.07748,-12.45974 -2.07748,-18.96109c0,-1.97406 -0.08592,-6.96127 0.45672,-8.2961c0.63983,-1.57391 3.43747,-4.03042 4.90322,-5.50783c2.69196,-2.71337 4.35124,-7.19892 8.04883,-8.16687c7.9763,-2.08802 43.13601,4.14994 43.13601,4.14994c2.51766,-0.62638 16.93286,-1.68824 19.49412,-2.10167c4.03627,-0.65152 20.00028,-0.22388 24.09735,-0.07593c12.0352,0.43462 24.06842,1.09153 36.09906,1.63932c5.11153,0.23274 12.80114,1.55624 17.86732,-0.33296l5.67729,4.81084c0.08642,-0.01415 0.17275,-0.02791 0.25899,-0.04126c1.97646,-0.30593 4.0327,0.36017 6,0c3.0256,-0.55393 5.965,-1.53023 9,-2c6.63264,-1.02663 14.24443,-0.07748 20.96109,-0.07748c3.35803,0 8.16894,-0.59625 11.2961,0.45672c0.89352,0.30086 1.12971,1.63738 2,2c0.54279,0.22616 1.11864,-0.3999 1.7039,-0.45672c0.99532,-0.09664 2,0 3,0c6.71708,0.25524 12.60136,-4.79215 19.03891,-5.92252c4.86898,-0.85495 10.16717,0.81528 15,0c2.07881,-0.35069 3.92422,-1.63178 6,-2c1.42776,-0.25327 3.04907,0.22161 4.32498,-0.46737c1.33525,-0.72102 2.4327,-1.95592 3.8974,-2.35266c3.58593,-0.97131 7.26237,0.4636 10.77761,-0.17997c2.06993,-0.37896 4.12377,-1.01132 6.22799,-1.03252c7.55321,-1.99508 13.35364,-6.13171 20.43033,-9.43485c3.88882,-1.81515 7.63033,-4.04526 11.66666,-6c4.86356,-2.35536 8.82952,-0.64552 13.67502,-1.53263c3.04882,-0.55818 6.28278,-0.94499 9.28357,-1.8382c3.39418,-1.0103 6.12779,-2.1618 9.71643,-2.1618c1.72234,-0.64227 3.37596,-1.17692 5.03127,-1.62275c0.25388,-0.87091 0.77396,-1.78414 1.68719,-2.69737c4.24264,-4.24264 8.48528,0 8.48528,0l0.00265,0.03465c1.0945,-0.63063 2.17697,-1.31458 3.37619,-1.6315c3.68419,-0.97364 9.69908,-0.33562 13.01463,1.4496c1.86514,1.00427 4.02624,1.94119 5.13213,3.74793c0.81678,1.3344 1.43921,2.74529 1.80068,4.14756c0.17003,-0.06973 0.34782,-0.13574 0.53371,-0.1977c5.6921,-1.89737 7.58947,3.79473 7.58947,3.79473c1.69786,5.18879 3.93747,6.89168 8.11183,10.25731c2.15551,1.73791 5.53356,2.88199 7.10056,5.18376c0.98515,1.44709 2.22875,7.54131 2.85623,9.77876c0.35047,1.24972 0.9783,2.43154 1.1618,3.71643c0.38759,2.71392 -0.86763,5.56858 -0.17997,8.22239c0.22333,0.86189 1.23963,1.31107 1.64734,2.1026c0.39417,0.76525 0.27102,1.74366 0.71401,2.48172c0.41383,0.68948 5.88808,7.57841 6.43937,8.85828c0.3956,0.91842 0,2 0,3c1.74184,1.27429 2.57404,3.55852 3.21744,5.61857c1.22912,3.93542 2.68223,8.50646 2.23928,12.67753c-0.23254,2.18971 0.25363,4.79729 -1.13255,6.50826c-1.6166,1.99539 -4.47844,2.57747 -6.90636,3.41426c-0.94542,0.32584 -2.01135,-0.15025 -3,0c-3.04269,0.46242 -350.62775,3.0775 -355.96108,3.0775z" fill="#78878f" stroke="none" stroke-width="0.5" stroke-linecap="butt"/><path d="M374.18328,276.69991c-5.36656,2.68328 -8.04984,-2.68328 -8.04984,-2.68328l1.03836,0.30902c-0.71108,-0.63004 -1.74095,-1.1823 -2.6718,-0.9923c-5.17147,0 -10.39421,0.70313 -15.15439,-1.8961c-1.70289,-0.92984 -2.77739,-2.78684 -4.48172,-3.71401c-0.24041,-0.13078 -0.53356,-0.16111 -0.84663,-0.14654c-0.97981,3.08833 -3.58063,6.03359 -6.22116,7.29993c-2.27276,1.08997 -8.53928,0.62328 -11.2961,0.45672c-0.42832,-0.02588 -0.86471,-0.42131 -1.2613,-0.25745c-0.82288,0.34 -1.31227,1.2373 -2.1026,1.64734c-0.93566,0.48544 -2.04443,0.55503 -3,1c-1.63099,0.75949 -2.62148,2.49378 -4.12785,3.47756c-1.63515,1.06788 -3.47477,1.78388 -5.21216,2.67582c-2.82351,0.95439 -9.52848,3.27332 -11.2961,3.45672c-1.36103,0.14122 -2.61137,-0.85252 -3.96109,-1.07748c-2.3905,-0.39842 -6.65764,0.11861 -8.70478,1.41263c-7.44167,4.70397 -7.32062,7.14913 -14.37304,8.58737c-0.97983,0.19982 -2.01361,-0.1644 -3,0c-1.03975,0.17329 -1.94604,1.01681 -3,1c-0.38267,-0.0061 -0.35374,-1.42473 -0.45283,-1.05507c-0.15479,0.57743 0.65548,1.32622 0.25998,1.77451c-2.41794,2.74066 -6.24575,4.61658 -9.80715,5.28056c-0.58685,0.10941 -7.33534,0.09719 -7.92219,0c-2.07986,-0.34445 -3.92119,-1.64931 -6,-2c-1.65643,-0.27943 -3.35907,0.07748 -5.03891,0.07748c-1.18873,-0.24264 -2.28089,0.84303 -3.36389,1.38989c-1.88188,0.95024 -4.11696,1.05204 -6,2c-4.02668,2.0271 -6.6923,5.07097 -11.25759,6.4496c-1.09083,0.32941 -2.29383,-0.10659 -3.41742,0.08303c-1.03939,0.17541 -1.95831,0.83876 -3,1c-4.1374,0.64041 -7.70615,-0.36347 -11.69419,-0.96748c-1.322,-0.20022 -2.73384,0.2003 -4.00561,-0.21249c-2.65751,-0.86257 -2.97274,-2.38245 -5.22239,-2.82003c-1.71882,-0.33433 -4.66182,1.27634 -6.14154,1.76958c-3.41781,1.13927 -6.308,2.23042 -9.93627,2.23042c-7.37247,2.45749 -81.97395,-3.69475 -83.97871,-6.03163c-0.00232,0.01308 -0.00909,0.02387 -0.0213,0.03163c-0.26247,0.16691 -15.71538,-0.02903 -33.66762,-0.38613c-24.42112,-0.48578 -53.46731,-1.26979 -55.19085,-1.8443c0,0 -5.6921,-1.89737 -3.79473,-7.58947c1.89737,-5.6921 7.58947,-3.79473 7.58947,-3.79473c3.32555,1.10852 82.84173,0.12131 89.39873,2.14882c1.19667,0.37002 68.41452,8.73018 77.7428,5.62075c6.9057,0 12.81719,-5.13464 19.92219,-4c1.61942,0.25862 3.19036,0.83605 4.67502,1.53263c0.80605,0.37819 1.26228,1.35304 2.1026,1.64734c0.63098,0.22098 1.33153,-0.29958 1.99439,-0.21249c2.71996,0.35733 5.46486,1.55264 8.30581,1.03252c1.03686,-0.18983 1.95985,-0.82915 3,-1c0.84991,-0.1396 1.74817,0.29661 2.58258,0.08303c3.0769,-0.7876 5.96987,-4.16996 8.74241,-5.5504c1.8872,-0.93963 4.11085,-1.06428 6,-2c1.35982,-0.67353 2.44481,-1.91364 3.8974,-2.35266c1.51425,-0.45765 3.15914,-0.17163 4.7387,-0.25745c1.00776,0 6.3752,-0.01956 6.96109,0.07748c3.73475,0.61852 6.19678,2.44983 10.07781,2c0.76417,-0.08857 1.75231,-0.08879 2.19285,-0.71944c0.91473,-1.30944 0.9369,-3.3306 2.25998,-4.22549c1.55907,-1.05452 3.71712,-0.61506 5.54717,-1.05507c1.02488,-0.24642 1.96025,-0.82671 3,-1c1.17493,-0.19582 3.01706,0.40512 4.2156,-0.41248c3.33969,-2.27821 6.35591,-5.03379 9.82103,-7.11627c4.13976,-2.48793 11.19063,-3.25373 15.88556,-2.47125c0.73582,0.12264 1.29873,1.01527 2.03891,0.92252c2.37149,-0.29716 4.43238,-1.8 6.7039,-2.54328c3.39895,-1.61444 5.23216,-4.05335 8.65999,-5.84661c0.934,-0.48862 2.05197,-0.53919 3,-1c1.36479,-0.66339 2.44481,-1.91364 3.8974,-2.35266c1.03132,-0.3117 6.13166,-0.25745 7.7387,-0.25745c1,0 2.00752,-0.12238 3,0c0.0266,0.00328 0.05488,0.00758 0.08424,0.01291c0.53977,-2.09292 0.0695,-4.81074 1.67312,-6.25555c1.84565,-1.66287 4.78584,-1.38899 7.24264,-1.75736c5.95363,-0.89269 9.93253,2.53466 14.15439,5.8961c0.74255,0.59122 1.89656,0.1185 2.84561,0.1039c1.99976,-0.03075 4,0 6,0c1.57957,0.08582 3.23313,-0.22799 4.7387,0.25745c1.69743,0.5473 3.05966,1.8335 4.5895,2.75025l3.03836,4.30902c0,0 2.68328,5.36656 -2.68328,8.04984z" fill="#a4cade" stroke="none" stroke-width="0.5" stroke-linecap="butt"/><path d="" fill="#999999" stroke="none" stroke-width="0.5" stroke-linecap="butt"/><path d="M325.09752,219.00791h7.8" fill="none" stroke="#814e28" stroke-width="1.5" stroke-linecap="round"/><path d="M326.29751,220.10791v4.6" fill="none" stroke="#814e28" stroke-width="1.5" stroke-linecap="round"/><path d="M331.69751,224.3079l-0.2,-4.4" fill="none" stroke="#814e28" stroke-width="1.5" stroke-linecap="round"/><path d="M324.49751,229.45051l9.4,-0.17407" fill="none" stroke="#814e28" stroke-width="1.5" stroke-linecap="round"/><path d="M324.69752,234.85051l9.4,-0.17407" fill="none" stroke="#814e28" stroke-width="1.5" stroke-linecap="round"/><path d="M334.29752,239.87643l-9.4,0.17407" fill="none" stroke="#814e28" stroke-width="1.5" stroke-linecap="round"/><path d="M334.09752,244.87642l-9.4,0.17407" fill="none" stroke="#814e28" stroke-width="1.5" stroke-linecap="round"/><path d="M241.14168,290.0714l-13,-1.75" fill="none" stroke="#a76634" stroke-width="2" stroke-linecap="round"/><path d="M238.39168,286.3214l-8.75,5.5" fill="none" stroke="#a76634" stroke-width="2" stroke-linecap="round"/><path d="M230.89168,286.5714l6.25,5.5" fill="none" stroke="#a76634" stroke-width="2" stroke-linecap="round"/><path d="M240.14168,287.8214l-7,5.75" fill="none" stroke="#a76634" stroke-width="2" stroke-linecap="round"/><path d="M231.91916,284.5091l0.0154,0.10519c0.03466,-0.03393 0.06892,-0.06705 0.10282,-0.09937c-0.01341,-0.00341 -0.02685,-0.00636 -0.04033,-0.0088c-0.03299,-0.00597 -0.05859,-0.00464 -0.07789,0.00298zM237.20817,286.81989c-0.03897,0.17173 -0.07655,0.33952 -0.09635,0.49405c-0.30747,2.39952 -2.47142,2.4677 -4.34233,1.99997c-2.6458,-0.14405 -4.26422,-5.26201 -1.4832,-6.67723c0.39996,-0.20353 0.80842,0.42005 1.25,0.5c0.39208,0.07098 -0.24089,-0.80276 -0.13713,-1.18746c0.16335,-0.60564 0.14766,-1.49725 0.72801,-1.73531c0.72617,-0.29788 1.70115,-0.0121 2.3027,0.49208c0.41622,0.34885 0.18522,1.07298 0.21179,1.61541c0.01321,0.26968 -0.36237,1.01194 -0.22975,0.77675c1.5503,-2.74936 2.71996,1.25686 2.72975,2.72325c0,0 0,0.95517 -0.93351,0.99848z" fill="#ff7b00" stroke="none" stroke-width="0.5" stroke-linecap="butt"/><path d="M234.68457,284.36429c0.18096,-0.18096 0.43096,-0.29289 0.70711,-0.29289c0.55228,0 1,0.44772 1,1c0,0.09149 -0.01229,0.1801 -0.0353,0.26429l-0.24456,0.97824c0,0 -0.22397,0.89588 -1.10236,0.7506c-0.0659,0.19612 -0.15421,0.38374 -0.24205,0.53691l-0.43233,-0.00647l0.04914,0.19657l-0.97824,0.24456c-0.08419,0.02301 -0.1728,0.0353 -0.26429,0.0353c-0.55228,0 -1,-0.44772 -1,-1c0,-0.21957 0.07076,-0.42261 0.19073,-0.58756l-0.44073,-0.91244c0,0 0,-0.79676 0.71119,-0.96788c0.02289,-0.09155 0.04578,-0.1831 0.06866,-0.27466c0,0 0.24254,-0.97014 1.21268,-0.72761c0.55714,0.13928 0.71433,0.51853 0.7472,0.8162z" fill="#fff700" stroke="none" stroke-width="0.5" stroke-linecap="butt"/><path d="M493.53122,95.21542c2.22123,0.57602 5.47321,2.26264 5.47321,7.20125c0,7.5 -7.5,7.5 -7.5,7.5l-6.3033,-2.1967c-1.3577,-1.95992 -1.92901,-0.29102 -4.49533,0.09986c-1.38486,0.21093 -2.80054,0.09684 -4.20137,0.09684c-0.68684,0 -1.57191,-0.60635 -2.05702,-0.12012c-1.33179,1.33487 -2.3831,3.02986 -4,4c-0.24611,0.14767 -0.53464,0.12083 -0.83235,0.06115c-0.18079,2.65349 -1.38844,5.2052 -2.73076,7.50195c-0.76499,1.30892 -2.88777,1.74718 -3.20169,3.2304c-0.25573,1.20828 0.28228,2.58186 -0.24909,3.69674c-0.82136,1.7233 -2.4172,2.95545 -3.6258,4.43318c0,0 -5.3033,5.3033 -10.6066,0c-5.3033,-5.3033 0,-10.6066 0,-10.6066c1.09217,1.26429 -0.46792,-0.37571 0.12511,-1.87008c1.02023,-2.57085 3.30092,-4.4441 4.79831,-6.7696c2.10743,-3.27294 0.98395,-6.90719 4.07658,-10.36032c1.07402,-1.19921 2.97988,-1.24832 4.36032,-2.07658c1.6169,-0.97014 2.355,-3.0783 4,-4c4.81807,-2.69959 7.10168,-1.14999 11.74162,-2.02327c1.0359,-0.19497 1.95329,-0.87543 3,-1c5.0316,-0.59881 8.66637,0.54648 12.22816,3.2019z" fill="#a4cade" stroke="none" stroke-width="0.5" stroke-linecap="butt"/></g></g></svg>